<svg viewBox="0 0 32 32" fill="none" xmlns="http://www.w3.org/2000/svg">
<g clipPath="url(#FileCodeMdIcon__clip0_3886_28034)">
<g filter="url(#FileCodeMdIcon__filter0_di_3886_28034)">
<path d="M5.5 4.8C5.5 3.2536 6.7536 2 8.3 2H18.9376C19.2985 2 19.6455 2.1394 19.9061 2.38911L26.0685 8.29358C26.3441 8.55765 26.5 8.92278 26.5 9.30447V27.2C26.5 28.7463 25.2463 30 23.7 30H8.3C6.7536 30 5.5 28.7463 5.5 27.2V4.8Z" fill="#4FC660"/>
<path d="M8.2998 2.25H18.9375C19.2339 2.25 19.5193 2.36422 19.7334 2.56934L25.8955 8.47363C26.1219 8.69058 26.25 8.99121 26.25 9.30469V27.2002C26.2499 28.6083 25.1083 29.7499 23.7002 29.75H8.2998C6.89165 29.7499 5.75012 28.6083 5.75 27.2002V4.7998C5.7501 3.39163 6.89163 2.2501 8.2998 2.25Z" stroke="#27272A" strokeOpacity="0.15" strokeWidth="0.5"/>
</g>
<path d="M19.5 3.40039L25.1 9.00038H19.5V3.40039Z" fill="white" fillOpacity="0.5"/>
<path fillRule="evenodd" clipRule="evenodd" d="M13.4348 13.8408C13.0823 13.8408 12.7804 13.9664 12.5291 14.2177C12.2779 14.4689 12.1522 14.767 12.1522 15.112V17.677C12.1522 18.0295 12.0266 18.3314 11.7754 18.5826C11.5241 18.8339 11.226 18.9595 10.881 18.9595H10.2397V20.242H10.881C11.226 20.242 11.5241 20.3657 11.7754 20.6133C12.0266 20.8608 12.1522 21.1608 12.1522 21.5133V24.0783C12.1522 24.4308 12.2779 24.7326 12.5291 24.9839C12.7804 25.2352 13.0823 25.3608 13.4348 25.3608H14.7173V24.0783H13.4348V20.872C13.4348 20.527 13.3091 20.2289 13.0579 19.9777C12.8066 19.7264 12.5048 19.6008 12.1522 19.6008C12.5048 19.6008 12.8066 19.4752 13.0579 19.2239C13.3091 18.9726 13.4348 18.6708 13.4348 18.3183V15.112H14.7173V13.8408H13.4348ZM18.5535 13.8408C18.906 13.8408 19.2079 13.9664 19.4591 14.2177C19.7104 14.4689 19.836 14.767 19.836 15.112V17.677C19.836 18.0295 19.9616 18.3314 20.2129 18.5826C20.4641 18.8339 20.766 18.9595 21.1185 18.9595H21.7597V20.242H21.1185C20.766 20.242 20.4641 20.3657 20.2129 20.6133C19.9616 20.8608 19.836 21.1608 19.836 21.5133V24.0783C19.836 24.4308 19.7104 24.7326 19.4591 24.9839C19.2079 25.2352 18.906 25.3608 18.5535 25.3608H17.271V24.0783H18.5535V20.872C18.5535 20.527 18.6791 20.2289 18.9304 19.9777C19.1816 19.7264 19.4835 19.6008 19.836 19.6008C19.4835 19.6008 19.1816 19.4752 18.9304 19.2239C18.6791 18.9726 18.5535 18.6708 18.5535 18.3183V15.112H17.271V13.8408H18.5535Z" fill="white"/>
</g>
<defs>
<filter id="FileCodeMdIcon__filter0_di_3886_28034" x="4" y="1.5" filterUnits="userSpaceOnUse" colorInterpolationFilters="sRGB">
<feFlood floodOpacity="0" result="BackgroundImageFix"/>
<feColorMatrix in="SourceAlpha" type="matrix" values="0 0 0 0 0 0 0 0 0 0 0 0 0 0 0 0 0 0 127 0" result="hardAlpha"/>
<feOffset dy="1"/>
<feGaussianBlur stdDeviation="0.75"/>
<feComposite in2="hardAlpha" operator="out"/>
<feColorMatrix type="matrix" values="0 0 0 0 0 0 0 0 0 0 0 0 0 0 0 0 0 0 0.06 0"/>
<feBlend mode="normal" in2="BackgroundImageFix" result="effect1_dropShadow_3886_28034"/>
<feBlend mode="normal" in="SourceGraphic" in2="effect1_dropShadow_3886_28034" result="shape"/>
<feColorMatrix in="SourceAlpha" type="matrix" values="0 0 0 0 0 0 0 0 0 0 0 0 0 0 0 0 0 0 127 0" result="hardAlpha"/>
<feOffset dy="-0.5"/>
<feComposite in2="hardAlpha" operator="arithmetic" k2="-1" k3="1"/>
<feColorMatrix type="matrix" values="0 0 0 0 0 0 0 0 0 0 0 0 0 0 0 0 0 0 0.1 0"/>
<feBlend mode="normal" in2="shape" result="effect2_innerShadow_3886_28034"/>
</filter>
<clipPath id="FileCodeMdIcon__clip0_3886_28034">
<rect fill="white"/>
</clipPath>
</defs>
</svg>