<svg viewBox="0 0 32 32" fill="none" xmlns="http://www.w3.org/2000/svg">
<g clipPath="url(#FileMusicMdIcon__clip0_3886_28031)">
<g filter="url(#FileMusicMdIcon__filter0_di_3886_28031)">
<path d="M5.5 4.8C5.5 3.2536 6.7536 2 8.3 2H18.9376C19.2985 2 19.6455 2.1394 19.9061 2.38911L26.0685 8.29358C26.3441 8.55765 26.5 8.92278 26.5 9.30447V27.2C26.5 28.7463 25.2463 30 23.7 30H8.3C6.7536 30 5.5 28.7463 5.5 27.2V4.8Z" fill="#8655FD"/>
<path d="M8.2998 2.25H18.9375C19.2339 2.25 19.5193 2.36422 19.7334 2.56934L25.8955 8.47363C26.1219 8.69058 26.25 8.99121 26.25 9.30469V27.2002C26.2499 28.6083 25.1083 29.7499 23.7002 29.75H8.2998C6.89165 29.7499 5.75012 28.6083 5.75 27.2002V4.7998C5.7501 3.39163 6.89163 2.2501 8.2998 2.25Z" stroke="#27272A" strokeOpacity="0.15" strokeWidth="0.5"/>
</g>
<path d="M19.5 3.40039L25.1 9.00038H19.5V3.40039Z" fill="white" fillOpacity="0.5"/>
<path fillRule="evenodd" clipRule="evenodd" d="M18.7777 17.8697C18.9544 17.8697 19.0977 17.7265 19.0977 17.5497V17.0357C19.0977 16.8589 18.9544 16.7157 18.7777 16.7157H17.1113C16.9281 16.7157 16.7683 16.8401 16.7235 17.0178L15.9997 19.8842C15.8783 19.7965 15.745 19.7273 15.5999 19.6767C15.4548 19.6261 15.2979 19.6008 15.1292 19.6008C14.731 19.6008 14.3919 19.7408 14.1118 20.0209C13.8317 20.3009 13.6917 20.6401 13.6917 21.0382C13.6917 21.4364 13.8317 21.7755 14.1118 22.0556C14.3919 22.3357 14.731 22.4757 15.1292 22.4757C15.5273 22.4757 15.8394 22.3537 16.1516 22.0556C16.4678 21.7536 16.6193 21.0382 16.6193 21.0382L17.3621 17.9311C17.3707 17.8951 17.4029 17.8697 17.4399 17.8697H18.7777ZM15.9997 13.8408C16.7893 13.8408 17.5351 13.9909 18.2369 14.2913C18.9388 14.5916 19.5496 15.0033 20.0692 15.5262C20.5889 16.0493 21.0005 16.6601 21.3042 17.3585C21.6079 18.057 21.7597 18.8044 21.7597 19.6008C21.7597 20.3904 21.6079 21.1361 21.3042 21.838C21.0005 22.5398 20.5889 23.1505 20.0692 23.6702C19.5496 24.1899 18.9388 24.6015 18.2369 24.9053C17.5351 25.2089 16.7893 25.3608 15.9997 25.3608C15.2034 25.3608 14.456 25.2089 13.7575 24.9053C13.059 24.6015 12.4483 24.1899 11.9252 23.6702C11.4022 23.1505 10.9905 22.5398 10.6902 21.838C10.3899 21.1361 10.2397 20.3904 10.2397 19.6008C10.2397 18.8044 10.3899 18.057 10.6902 17.3585C10.9905 16.6601 11.4022 16.0493 11.9252 15.5262C12.4483 15.0033 13.059 14.5916 13.7575 14.2913C14.456 13.9909 15.2034 13.8408 15.9997 13.8408Z" fill="white"/>
</g>
<defs>
<filter id="FileMusicMdIcon__filter0_di_3886_28031" x="4" y="1.5" filterUnits="userSpaceOnUse" colorInterpolationFilters="sRGB">
<feFlood floodOpacity="0" result="BackgroundImageFix"/>
<feColorMatrix in="SourceAlpha" type="matrix" values="0 0 0 0 0 0 0 0 0 0 0 0 0 0 0 0 0 0 127 0" result="hardAlpha"/>
<feOffset dy="1"/>
<feGaussianBlur stdDeviation="0.75"/>
<feComposite in2="hardAlpha" operator="out"/>
<feColorMatrix type="matrix" values="0 0 0 0 0 0 0 0 0 0 0 0 0 0 0 0 0 0 0.06 0"/>
<feBlend mode="normal" in2="BackgroundImageFix" result="effect1_dropShadow_3886_28031"/>
<feBlend mode="normal" in="SourceGraphic" in2="effect1_dropShadow_3886_28031" result="shape"/>
<feColorMatrix in="SourceAlpha" type="matrix" values="0 0 0 0 0 0 0 0 0 0 0 0 0 0 0 0 0 0 127 0" result="hardAlpha"/>
<feOffset dy="-0.5"/>
<feComposite in2="hardAlpha" operator="arithmetic" k2="-1" k3="1"/>
<feColorMatrix type="matrix" values="0 0 0 0 0 0 0 0 0 0 0 0 0 0 0 0 0 0 0.1 0"/>
<feBlend mode="normal" in2="shape" result="effect2_innerShadow_3886_28031"/>
</filter>
<clipPath id="FileMusicMdIcon__clip0_3886_28031">
<rect fill="white"/>
</clipPath>
</defs>
</svg>