<svg viewBox="0 0 24 24" fill="none" xmlns="http://www.w3.org/2000/svg">
<g filter="url(#FilePDFSmIcon__filter0_di_3887_28166)">
<path d="M4.5 4C4.5 2.89543 5.39543 2 6.5 2H14.0983C14.3561 2 14.6039 2.09957 14.7901 2.27794L19.1918 6.49542C19.3886 6.68403 19.5 6.94485 19.5 7.21748V20C19.5 21.1045 18.6045 22 17.5 22H6.5C5.39543 22 4.5 21.1045 4.5 20V4Z" fill="#E74341"/>
<path d="M6.5 2.25H14.0986C14.2917 2.25009 14.4776 2.32442 14.6172 2.45801L19.0186 6.67578C19.1662 6.81728 19.25 7.01334 19.25 7.21777V20C19.25 20.9664 18.4664 21.75 17.5 21.75H6.5C5.53351 21.75 4.75001 20.9664 4.75 20V4L4.75879 3.82129C4.84829 2.93873 5.59383 2.25 6.5 2.25Z" stroke="#27272A" strokeOpacity="0.15" strokeWidth="0.5"/>
</g>
<path d="M14.5 3L18.5 6.99999H14.5V3Z" fill="white" fillOpacity="0.5"/>
<path fillRule="evenodd" clipRule="evenodd" d="M11.6055 13.9665C11.7442 14.2766 11.9034 14.5581 12.083 14.811C12.2625 15.0639 12.4584 15.2801 12.6708 15.4596L12.9524 15.6798C12.6504 15.737 12.2973 15.8166 11.8932 15.9185C11.4891 16.0205 11.0667 16.1571 10.6258 16.3284L10.5524 16.353L10.8952 15.6309C11.0503 15.3291 11.187 15.0394 11.3055 14.7621C11.4237 14.4846 11.5238 14.2194 11.6055 13.9665ZM16.1115 16.6099C16.1769 16.5528 16.2258 16.4856 16.2585 16.408C16.2912 16.3305 16.3074 16.2469 16.3074 16.1571C16.3238 16.0837 16.3238 16.0143 16.3074 15.9491C16.2912 15.8838 16.2626 15.8268 16.2217 15.7778C16.1238 15.6146 15.9442 15.4923 15.683 15.4107C15.4218 15.3291 15.0748 15.2883 14.6421 15.2883L13.7361 15.3372L13.1361 14.9334C12.9156 14.7539 12.7095 14.5111 12.5177 14.2052C12.3258 13.8993 12.1605 13.5504 12.0217 13.1589L12.0462 13.0609C12.1605 12.5959 12.2442 12.1186 12.2973 11.6291C12.3504 11.1396 12.2625 10.7806 12.0339 10.5522C11.9769 10.495 11.9115 10.4523 11.838 10.4237C11.7646 10.3951 11.6871 10.3809 11.6055 10.3809H11.4462C11.3157 10.3809 11.1972 10.4379 11.0911 10.5522C10.985 10.6664 10.9197 10.7888 10.8952 10.9193C10.7646 11.3844 10.7238 11.7739 10.7727 12.088C10.8217 12.4021 10.9116 12.7713 11.0421 13.1955V13.2078C10.9605 13.5096 10.8585 13.8339 10.7361 14.1807C10.6136 14.5275 10.4667 14.8803 10.2952 15.2393L9.62171 16.4998L8.99726 16.8425C8.58093 17.1036 8.26871 17.3687 8.06051 17.6379C7.85231 17.9072 7.73193 18.1315 7.69931 18.3111C7.68296 18.3763 7.67681 18.4395 7.68093 18.5007C7.68498 18.5619 7.69931 18.6252 7.72376 18.6904L7.74828 18.7272L8.07888 18.9351L8.38496 19.0209C8.67071 19.0209 8.97888 18.8495 9.30948 18.5068C9.64008 18.1641 10.0218 17.6217 10.4544 16.8792L10.5891 16.8303C10.9482 16.716 11.3565 16.6181 11.8136 16.5366C12.2707 16.455 12.7973 16.3774 13.3932 16.304C13.7523 16.4835 14.1237 16.6161 14.5074 16.7017C14.8911 16.7874 15.2177 16.8303 15.487 16.8303C15.6339 16.8303 15.7605 16.8119 15.8667 16.7751C15.9728 16.7385 16.0544 16.6833 16.1115 16.6099ZM15.8299 16.1205L15.8911 16.1939C15.8911 16.2347 15.885 16.2591 15.8727 16.2672C15.8605 16.2754 15.8463 16.2836 15.8299 16.2918H15.8055L15.6708 16.304C15.5075 16.304 15.3095 16.2714 15.0768 16.2061C14.8442 16.1409 14.6013 16.0551 14.3483 15.9491C14.3809 15.9165 14.4075 15.8961 14.4279 15.888C14.4483 15.8798 14.4748 15.8757 14.5074 15.8757C14.9973 15.8757 15.3319 15.9083 15.5115 15.9735C15.6912 16.0389 15.7973 16.0878 15.8299 16.1205ZM9.43803 17.1362C9.21768 17.5523 9.00543 17.8746 8.80136 18.1029C8.59721 18.3315 8.41766 18.4742 8.26256 18.5313C8.27891 18.4008 8.36253 18.2274 8.51358 18.0112C8.66456 17.795 8.86256 17.5767 9.10743 17.3565L9.43803 17.1362ZM11.5442 12.3267C11.4626 12.0166 11.4197 11.7372 11.4156 11.4884C11.4115 11.2395 11.4381 11.0417 11.4952 10.8948L11.5442 10.8214L11.6544 10.8459C11.7115 10.9356 11.7442 11.0397 11.7524 11.1579C11.7606 11.2762 11.7483 11.4292 11.7156 11.6169L11.6911 11.727L11.5809 12.3021L11.5442 12.3267Z" fill="white"/>
<defs>
<filter id="FilePDFSmIcon__filter0_di_3887_28166" x="3.5" y="1.5" filterUnits="userSpaceOnUse" colorInterpolationFilters="sRGB">
<feFlood floodOpacity="0" result="BackgroundImageFix"/>
<feColorMatrix in="SourceAlpha" type="matrix" values="0 0 0 0 0 0 0 0 0 0 0 0 0 0 0 0 0 0 127 0" result="hardAlpha"/>
<feOffset dy="0.5"/>
<feGaussianBlur stdDeviation="0.5"/>
<feComposite in2="hardAlpha" operator="out"/>
<feColorMatrix type="matrix" values="0 0 0 0 0 0 0 0 0 0 0 0 0 0 0 0 0 0 0.06 0"/>
<feBlend mode="normal" in2="BackgroundImageFix" result="effect1_dropShadow_3887_28166"/>
<feBlend mode="normal" in="SourceGraphic" in2="effect1_dropShadow_3887_28166" result="shape"/>
<feColorMatrix in="SourceAlpha" type="matrix" values="0 0 0 0 0 0 0 0 0 0 0 0 0 0 0 0 0 0 127 0" result="hardAlpha"/>
<feOffset dy="-0.5"/>
<feComposite in2="hardAlpha" operator="arithmetic" k2="-1" k3="1"/>
<feColorMatrix type="matrix" values="0 0 0 0 0 0 0 0 0 0 0 0 0 0 0 0 0 0 0.1 0"/>
<feBlend mode="normal" in2="shape" result="effect2_innerShadow_3887_28166"/>
</filter>
</defs>
</svg>