<svg viewBox="0 0 24 18" fill="none" xmlns="http://www.w3.org/2000/svg" xmlnsXlink="http://www.w3.org/1999/xlink">
<g clipPath="url(#FileThumbnail43SmIcon__clip0_3887_28239)">
<g filter="url(#FileThumbnail43SmIcon__filter0_di_3887_28239)">
<path d="M0 4C0 1.79086 1.79086 0 4 0H20C22.2091 0 24 1.79086 24 4V14C24 16.2091 22.2091 18 20 18H4C1.79086 18 0 16.2091 0 14V4Z" fill="url(#FileThumbnail43SmIcon__pattern0_3887_28239)" shape-rendering="crispEdges"/>
<path d="M4 0.25H20C22.0711 0.25 23.75 1.92893 23.75 4V14C23.75 16.0711 22.0711 17.75 20 17.75H4C1.92893 17.75 0.25 16.0711 0.25 14V4C0.25 1.92893 1.92893 0.25 4 0.25Z" stroke="#27272A" strokeOpacity="0.15" strokeWidth="0.5" shape-rendering="crispEdges"/>
</g>
</g>
<defs>
<filter id="FileThumbnail43SmIcon__filter0_di_3887_28239" x="-3" y="-2" filterUnits="userSpaceOnUse" colorInterpolationFilters="sRGB">
<feFlood floodOpacity="0" result="BackgroundImageFix"/>
<feColorMatrix in="SourceAlpha" type="matrix" values="0 0 0 0 0 0 0 0 0 0 0 0 0 0 0 0 0 0 127 0" result="hardAlpha"/>
<feOffset dy="1"/>
<feGaussianBlur stdDeviation="1.5"/>
<feComposite in2="hardAlpha" operator="out"/>
<feColorMatrix type="matrix" values="0 0 0 0 0 0 0 0 0 0 0 0 0 0 0 0 0 0 0.06 0"/>
<feBlend mode="normal" in2="BackgroundImageFix" result="effect1_dropShadow_3887_28239"/>
<feBlend mode="normal" in="SourceGraphic" in2="effect1_dropShadow_3887_28239" result="shape"/>
<feColorMatrix in="SourceAlpha" type="matrix" values="0 0 0 0 0 0 0 0 0 0 0 0 0 0 0 0 0 0 127 0" result="hardAlpha"/>
<feOffset dy="-0.5"/>
<feComposite in2="hardAlpha" operator="arithmetic" k2="-1" k3="1"/>
<feColorMatrix type="matrix" values="0 0 0 0 0 0 0 0 0 0 0 0 0 0 0 0 0 0 0.1 0"/>
<feBlend mode="normal" in2="shape" result="effect2_innerShadow_3887_28239"/>
</filter>

<clipPath id="FileThumbnail43SmIcon__clip0_3887_28239">
<rect fill="white"/>
</clipPath>

</defs>
</svg>