<svg viewBox="0 0 32 32" fill="none" xmlns="http://www.w3.org/2000/svg">
<g clipPath="url(#FileDefaultMdIcon__clip0_3886_28033)">
<g filter="url(#FileDefaultMdIcon__filter0_di_3886_28033)">
<path d="M5.5 4.8C5.5 3.2536 6.7536 2 8.3 2H18.9376C19.2985 2 19.6455 2.13941 19.9061 2.38912L26.0685 8.29358C26.3441 8.55765 26.5 8.92278 26.5 9.30449V27.2C26.5 28.7463 25.2463 30 23.7 30H8.3C6.7536 30 5.5 28.7463 5.5 27.2V4.8Z" fill="white"/>
<path d="M8.2998 2.25H18.9375C19.2339 2.25 19.5193 2.36422 19.7334 2.56934L25.8955 8.47363C26.1219 8.69058 26.25 8.99118 26.25 9.30469V27.2002C26.2499 28.6083 25.1083 29.7499 23.7002 29.75H8.2998C6.89165 29.7499 5.75012 28.6083 5.75 27.2002V4.7998C5.7501 3.39163 6.89163 2.2501 8.2998 2.25Z" stroke="#27272A" strokeOpacity="0.15" strokeWidth="0.5"/>
</g>
<path d="M0 18C0 16.8954 0.895431 16 2 16H19C20.1046 16 21 16.8954 21 18V23C21 24.1046 20.1046 25 19 25H2C0.89543 25 0 24.1046 0 23V18Z" fill="#222225"/>
<path d="M4.37718 23H2.65203V17.9091H4.41198C4.91742 17.9091 5.35161 18.011 5.71453 18.2148C6.07912 18.417 6.35918 18.7079 6.55473 19.0874C6.75028 19.4669 6.84806 19.9209 6.84806 20.4496C6.84806 20.9799 6.74945 21.4356 6.55225 21.8168C6.3567 22.1979 6.07414 22.4904 5.70459 22.6942C5.33669 22.8981 4.89422 23 4.37718 23ZM3.57426 22.2021H4.33243C4.68707 22.2021 4.98288 22.1374 5.21986 22.0082C5.45684 21.8772 5.63499 21.6825 5.75431 21.424C5.87362 21.1638 5.93328 20.839 5.93328 20.4496C5.93328 20.0601 5.87362 19.737 5.75431 19.4801C5.63499 19.2216 5.4585 19.0285 5.22483 18.9009C4.99282 18.7717 4.70447 18.707 4.35977 18.707H3.57426V22.2021ZM7.7243 17.9091H8.85285L10.3642 21.598H10.4239L11.9352 17.9091H13.0638V23H12.1788V19.5025H12.1316L10.7247 22.9851H10.0634L8.65647 19.495H8.60924V23H7.7243V17.9091ZM17.4786 19.5348C17.4371 19.4006 17.38 19.2804 17.307 19.1744C17.2358 19.0666 17.1496 18.9747 17.0485 18.8984C16.9491 18.8222 16.8347 18.765 16.7055 18.7269C16.5762 18.6871 16.4354 18.6673 16.2829 18.6673C16.0095 18.6673 15.7658 18.736 15.5521 18.8736C15.3383 19.0111 15.1701 19.2133 15.0475 19.4801C14.9265 19.7453 14.866 20.0684 14.866 20.4496C14.866 20.834 14.9265 21.1597 15.0475 21.4265C15.1684 21.6933 15.3366 21.8963 15.5521 22.0355C15.7675 22.1731 16.0177 22.2418 16.3028 22.2418C16.5613 22.2418 16.785 22.1921 16.9739 22.0927C17.1645 21.9933 17.3112 21.8524 17.4139 21.6701C17.5167 21.4862 17.568 21.2707 17.568 21.0238L17.7769 21.0561H16.3948V20.3352H18.4604V20.9467C18.4604 21.3826 18.3676 21.7596 18.182 22.0778C17.9964 22.396 17.7412 22.6412 17.4164 22.8136C17.0916 22.9843 16.7187 23.0696 16.2978 23.0696C15.8288 23.0696 15.417 22.9644 15.0624 22.7539C14.7094 22.5418 14.4335 22.241 14.2346 21.8516C14.0374 21.4605 13.9388 20.9964 13.9388 20.4595C13.9388 20.0485 13.9968 19.6815 14.1128 19.3583C14.2305 19.0352 14.3945 18.7609 14.605 18.5355C14.8154 18.3085 15.0624 18.1361 15.3457 18.0185C15.6291 17.8991 15.9374 17.8395 16.2705 17.8395C16.5522 17.8395 16.8149 17.8809 17.0585 17.9638C17.3021 18.045 17.5183 18.161 17.7073 18.3118C17.8978 18.4626 18.0544 18.6416 18.1771 18.8487C18.2997 19.0559 18.3801 19.2846 18.4182 19.5348H17.4786Z" fill="white"/>
</g>
<defs>
<filter id="FileDefaultMdIcon__filter0_di_3886_28033" x="4" y="1.5" filterUnits="userSpaceOnUse" colorInterpolationFilters="sRGB">
<feFlood floodOpacity="0" result="BackgroundImageFix"/>
<feColorMatrix in="SourceAlpha" type="matrix" values="0 0 0 0 0 0 0 0 0 0 0 0 0 0 0 0 0 0 127 0" result="hardAlpha"/>
<feOffset dy="1"/>
<feGaussianBlur stdDeviation="0.75"/>
<feComposite in2="hardAlpha" operator="out"/>
<feColorMatrix type="matrix" values="0 0 0 0 0 0 0 0 0 0 0 0 0 0 0 0 0 0 0.06 0"/>
<feBlend mode="normal" in2="BackgroundImageFix" result="effect1_dropShadow_3886_28033"/>
<feBlend mode="normal" in="SourceGraphic" in2="effect1_dropShadow_3886_28033" result="shape"/>
<feColorMatrix in="SourceAlpha" type="matrix" values="0 0 0 0 0 0 0 0 0 0 0 0 0 0 0 0 0 0 127 0" result="hardAlpha"/>
<feOffset dy="-0.5"/>
<feComposite in2="hardAlpha" operator="arithmetic" k2="-1" k3="1"/>
<feColorMatrix type="matrix" values="0 0 0 0 0 0 0 0 0 0 0 0 0 0 0 0 0 0 0.1 0"/>
<feBlend mode="normal" in2="shape" result="effect2_innerShadow_3886_28033"/>
</filter>
<clipPath id="FileDefaultMdIcon__clip0_3886_28033">
<rect fill="white"/>
</clipPath>
</defs>
</svg>