<svg viewBox="0 0 24 24" fill="none" xmlns="http://www.w3.org/2000/svg" xmlnsXlink="http://www.w3.org/1999/xlink">
<g clipPath="url(#FileThumbnail11SmIcon__clip0_3887_28218)">
<g filter="url(#FileThumbnail11SmIcon__filter0_di_3887_28218)">
<path d="M0 4C0 1.79086 1.79086 0 4 0H20C22.2091 0 24 1.79086 24 4V20C24 22.2091 22.2091 24 20 24H4C1.79086 24 0 22.2091 0 20V4Z" fill="url(#FileThumbnail11SmIcon__pattern0_3887_28218)" shape-rendering="crispEdges"/>
<path d="M4 0.25H20C22.0711 0.25 23.75 1.92893 23.75 4V20C23.75 22.0711 22.0711 23.75 20 23.75H4C1.92893 23.75 0.25 22.0711 0.25 20V4C0.25 1.92893 1.92893 0.25 4 0.25Z" stroke="#27272A" strokeOpacity="0.15" strokeWidth="0.5" shape-rendering="crispEdges"/>
</g>
</g>
<defs>
<filter id="FileThumbnail11SmIcon__filter0_di_3887_28218" x="-3" y="-2" filterUnits="userSpaceOnUse" colorInterpolationFilters="sRGB">
<feFlood floodOpacity="0" result="BackgroundImageFix"/>
<feColorMatrix in="SourceAlpha" type="matrix" values="0 0 0 0 0 0 0 0 0 0 0 0 0 0 0 0 0 0 127 0" result="hardAlpha"/>
<feOffset dy="1"/>
<feGaussianBlur stdDeviation="1.5"/>
<feComposite in2="hardAlpha" operator="out"/>
<feColorMatrix type="matrix" values="0 0 0 0 0 0 0 0 0 0 0 0 0 0 0 0 0 0 0.06 0"/>
<feBlend mode="normal" in2="BackgroundImageFix" result="effect1_dropShadow_3887_28218"/>
<feBlend mode="normal" in="SourceGraphic" in2="effect1_dropShadow_3887_28218" result="shape"/>
<feColorMatrix in="SourceAlpha" type="matrix" values="0 0 0 0 0 0 0 0 0 0 0 0 0 0 0 0 0 0 127 0" result="hardAlpha"/>
<feOffset dy="-0.5"/>
<feComposite in2="hardAlpha" operator="arithmetic" k2="-1" k3="1"/>
<feColorMatrix type="matrix" values="0 0 0 0 0 0 0 0 0 0 0 0 0 0 0 0 0 0 0.1 0"/>
<feBlend mode="normal" in2="shape" result="effect2_innerShadow_3887_28218"/>
</filter>

<clipPath id="FileThumbnail11SmIcon__clip0_3887_28218">
<rect fill="white"/>
</clipPath>

</defs>
</svg>