<svg xmlns="http://www.w3.org/2000/svg" viewBox="0 0 48 48">
        <path d="M34.9981 32.0165C34.835 30.8329 34.588 29.6305 34.2478 28.4096C34.1639 28.102 34.0755 27.7898 33.9776 27.4775C33.1388 24.7606 32.0016 22.1602 30.5616 19.681C29.1216 17.2018 27.4347 14.9183 25.4867 12.8305C23.5434 10.7474 21.4649 9.06509 19.256 7.7882C17.3686 6.69771 15.579 6.01732 13.8874 5.74237C13.5938 5.69577 13.305 5.65849 13.0207 5.63519C11.3663 5.49538 9.89836 5.71441 8.60749 6.29227L7.94565 6.62315C6.51033 7.44334 5.36866 8.72956 4.52983 10.4725C3.69099 12.22 3.27148 14.3637 3.27148 16.8989C3.27148 19.434 3.69099 22.0624 4.52983 24.7793C5.36866 27.4962 6.51033 30.0919 7.94565 32.5758C9.38565 35.055 11.0774 37.3385 13.0207 39.4216C14.9687 41.5094 17.0424 43.1917 19.256 44.4686C21.4649 45.7408 23.5434 46.4631 25.4867 46.6218C27.4347 46.7802 29.1216 46.4492 30.5616 45.629C31.983 44.8228 33.1061 43.5645 33.9403 41.8542C33.9542 41.8309 33.9636 41.803 33.9776 41.7797C34.8164 40.0321 35.2358 37.8931 35.2358 35.3532C35.2358 34.2581 35.1612 33.1443 34.9981 32.0165ZM11.9628 15.3843C12.2098 15.2445 12.4801 15.1932 12.783 15.2352C13.0533 15.2725 13.3469 15.3797 13.6591 15.5614C14.3255 15.9482 14.8941 16.54 15.3601 17.3463C15.8261 18.1478 16.0591 18.9354 16.0591 19.6997C16.0591 20.4639 15.8261 20.9765 15.3601 21.2422C15.0386 21.4239 14.6657 21.4519 14.2509 21.3261C14.0645 21.2701 13.8641 21.1863 13.6591 21.0651C12.9973 20.6783 12.4289 20.0864 11.9628 19.2802C11.4968 18.4787 11.2638 17.6911 11.2638 16.9315C11.2638 16.1719 11.4968 15.6499 11.9628 15.3843ZM26.6843 35.7354C26.167 36.3878 25.5425 36.8538 24.8062 37.1241C24.4101 37.2732 23.986 37.3618 23.5293 37.3991C22.2245 37.5016 20.7985 37.1055 19.256 36.2154C17.7368 35.3393 16.3201 34.0903 15.0013 32.4732C13.6824 30.8562 12.6245 29.0853 11.823 27.156C11.6645 26.6946 11.6786 26.3358 11.865 26.0795C12.0514 25.8185 12.3309 25.7952 12.7037 26.0142L25.8082 33.5777C26.181 33.7921 26.4607 34.1369 26.6471 34.6123C26.8335 35.0876 26.8474 35.4604 26.6843 35.7354ZM26.5446 27.7012C26.0786 27.9668 25.5146 27.9063 24.8482 27.5241C24.1818 27.1373 23.618 26.5455 23.152 25.7393C22.6859 24.9377 22.4529 24.1501 22.4529 23.3905C22.4529 22.6962 22.644 22.2068 23.0261 21.9319C23.0681 21.8946 23.11 21.8666 23.152 21.8433C23.618 21.5777 24.1818 21.6383 24.8482 22.0204C25.5146 22.4072 26.0786 22.9991 26.5446 23.8053C26.5912 23.8798 26.633 23.9591 26.6703 24.0336C27.0571 24.756 27.2483 25.469 27.2483 26.1587C27.2483 26.9183 27.0153 27.4356 26.5446 27.7012Z" fill="white"/>
<path d="M26.6843 35.7354C26.167 36.3878 25.5425 36.8538 24.8062 37.1241C24.4101 37.2732 23.986 37.3618 23.5293 37.3991C22.2245 37.5016 20.7985 37.1055 19.256 36.2154C17.7368 35.3393 16.3201 34.0903 15.0013 32.4732C13.6824 30.8562 12.6245 29.0853 11.823 27.156C11.6645 26.6946 11.6786 26.3358 11.865 26.0795C12.0514 25.8185 12.3309 25.7952 12.7037 26.0142L25.8082 33.5777C26.181 33.7921 26.4607 34.1369 26.6471 34.6123C26.8335 35.0876 26.8474 35.4604 26.6843 35.7354Z" fill="white"/>
<path d="M27.2483 26.1587C27.2483 26.9183 27.0153 27.4356 26.5446 27.7012C26.0786 27.9668 25.5146 27.9063 24.8482 27.5241C24.1818 27.1373 23.618 26.5455 23.152 25.7393C22.6859 24.9377 22.4529 24.1501 22.4529 23.3905C22.4529 22.6962 22.644 22.2068 23.0261 21.9319C23.0681 21.8946 23.11 21.8666 23.152 21.8433C23.618 21.5777 24.1818 21.6383 24.8482 22.0204C25.5146 22.4072 26.0786 22.9991 26.5446 23.8053C26.5912 23.8798 26.633 23.9591 26.6703 24.0336C27.0571 24.756 27.2483 25.469 27.2483 26.1587Z" fill="white"/>
<path d="M16.0591 19.6997C16.0591 20.4593 15.8261 20.9765 15.3601 21.2422C15.0386 21.4239 14.6657 21.4519 14.2509 21.3261C14.0645 21.2701 13.8641 21.1863 13.6591 21.0651C12.9973 20.6783 12.4289 20.0864 11.9628 19.2802C11.4968 18.4787 11.2638 17.6911 11.2638 16.9315C11.2638 16.1719 11.4968 15.6499 11.9628 15.3843C12.2098 15.2445 12.4801 15.1932 12.783 15.2352C13.0533 15.2725 13.3469 15.3797 13.6591 15.5614C14.3255 15.9482 14.8941 16.54 15.3601 17.3463C15.8261 18.1478 16.0591 18.9354 16.0591 19.6997Z" fill="white"/>
<path d="M44.5562 30.693C44.5562 33.2328 44.1368 35.3719 43.298 37.1195C42.4591 38.867 41.322 40.1486 39.882 40.9688L39.225 41.2997L30.5616 45.629C31.983 44.8228 33.1061 43.5645 33.9403 41.8542C33.9542 41.8309 33.9636 41.803 33.9776 41.7797C34.8164 40.0321 35.2358 37.8931 35.2358 35.3532C35.2358 34.2581 35.1612 33.1443 34.9981 32.0165C34.835 30.8329 34.588 29.6305 34.2478 28.4096C34.1639 28.102 34.0755 27.7898 33.9776 27.4775C33.1388 24.7606 32.0016 22.1602 30.5616 19.681C29.1216 17.2018 27.4347 14.9183 25.4867 12.8305C23.5434 10.7474 21.4649 9.06509 19.256 7.7882C17.3686 6.69771 15.579 6.01732 13.8874 5.74237C13.5938 5.69577 13.305 5.65849 13.0207 5.63519C11.3663 5.49538 9.89836 5.71441 8.60749 6.29227L17.266 1.96294C18.706 1.14275 20.3978 0.811877 22.3411 0.974984C24.289 1.13343 26.3628 1.8511 28.5764 3.12799C30.7853 4.40488 32.8638 6.08723 34.8071 8.17033C36.7551 10.2581 38.442 12.5415 39.882 15.0208C41.322 17.5 42.4591 20.1004 43.298 22.8173C44.1368 25.5296 44.5562 28.1579 44.5562 30.693Z" fill="white"/>
<path d="M8.60749 6.29227C9.89836 5.71441 11.3663 5.49538 13.0207 5.63519C13.305 5.65849 13.5938 5.69577 13.8874 5.74237C15.579 6.01732 17.3686 6.69771 19.256 7.7882C21.4649 9.06509 23.5434 10.7474 25.4867 12.8305C27.4347 14.9183 29.1216 17.2018 30.5616 19.681C32.0016 22.1602 33.1388 24.7606 33.9776 27.4775C34.0755 27.7898 34.1639 28.102 34.2478 28.4096C34.588 29.6305 34.835 30.8329 34.9981 32.0165C35.1612 33.1443 35.2358 34.2581 35.2358 35.3532C35.2358 37.8931 34.8164 40.0321 33.9776 41.7797C33.9636 41.803 33.9542 41.8309 33.9403 41.8542C33.1061 43.5645 31.983 44.8228 30.5616 45.629M8.60749 6.29227L7.94565 6.62315C6.51033 7.44334 5.36866 8.72956 4.52983 10.4725C3.69099 12.22 3.27148 14.3637 3.27148 16.8989C3.27148 19.434 3.69099 22.0624 4.52983 24.7793C5.36866 27.4962 6.51033 30.0919 7.94565 32.5758C9.38565 35.055 11.0774 37.3385 13.0207 39.4216C14.9687 41.5094 17.0424 43.1917 19.256 44.4686C21.4649 45.7408 23.5434 46.4631 25.4867 46.6218C27.4347 46.7802 29.1216 46.4492 30.5616 45.629M8.60749 6.29227L17.266 1.96294C18.706 1.14275 20.3978 0.811877 22.3411 0.974984C24.289 1.13343 26.3628 1.8511 28.5764 3.12799C30.7853 4.40488 32.8638 6.08723 34.8071 8.17033C36.7551 10.2581 38.442 12.5415 39.882 15.0208C41.322 17.5 42.4591 20.1004 43.298 22.8173C44.1368 25.5296 44.5562 28.1579 44.5562 30.693C44.5562 33.2328 44.1368 35.3719 43.298 37.1195C42.4591 38.867 41.322 40.1486 39.882 40.9688L39.225 41.2997L30.5616 45.629M16.0591 19.6997C16.0591 18.9354 15.8261 18.1478 15.3601 17.3463C14.8941 16.54 14.3255 15.9482 13.6591 15.5614C13.3469 15.3797 13.0533 15.2725 12.783 15.2352C12.4801 15.1932 12.2098 15.2445 11.9628 15.3843C11.4968 15.6499 11.2638 16.1719 11.2638 16.9315C11.2638 17.6911 11.4968 18.4787 11.9628 19.2802C12.4288 20.0864 12.9973 20.6783 13.6591 21.0651C13.8641 21.1863 14.0645 21.2701 14.2509 21.3261C14.6657 21.4519 15.0386 21.4239 15.3601 21.2422M16.0591 19.6997C16.0591 20.4639 15.8261 20.9765 15.3601 21.2422M16.0591 19.6997C16.0591 20.4593 15.8261 20.9765 15.3601 21.2422M26.6843 35.7354C26.167 36.3878 25.5425 36.8538 24.8062 37.1241C24.4101 37.2732 23.986 37.3618 23.5293 37.3991C22.2245 37.5016 20.7985 37.1055 19.256 36.2154C17.7368 35.3393 16.3201 34.0903 15.0013 32.4732C13.6824 30.8562 12.6245 29.0853 11.823 27.156C11.6645 26.6946 11.6786 26.3358 11.865 26.0795C12.0514 25.8185 12.3309 25.7952 12.7037 26.0142L25.8082 33.5777C26.181 33.7921 26.4607 34.1369 26.6471 34.6123C26.8335 35.0876 26.8474 35.4604 26.6843 35.7354ZM26.5446 27.7012C26.0786 27.9668 25.5146 27.9063 24.8482 27.5241C24.1818 27.1373 23.618 26.5455 23.152 25.7393C22.6859 24.9377 22.4529 24.1501 22.4529 23.3905C22.4529 22.6962 22.644 22.2068 23.0261 21.9319C23.0681 21.8946 23.11 21.8666 23.152 21.8433C23.618 21.5777 24.1818 21.6383 24.8482 22.0204C25.5146 22.4072 26.0786 22.9991 26.5446 23.8053C26.5912 23.8798 26.633 23.9591 26.6703 24.0336C27.0571 24.756 27.2483 25.469 27.2483 26.1587C27.2483 26.9183 27.0153 27.4356 26.5446 27.7012Z" stroke="#27272A" stroke-opacity="0.25" stroke-linecap="round" stroke-linejoin="round"/>
      </svg>