<svg xmlns="http://www.w3.org/2000/svg" viewBox="0 0 48 48">
        <path d="M8.30918 5.90117L9.02716 5.54218C8.78111 5.64706 8.54313 5.76806 8.30918 5.90117Z" fill="white"/>
<path d="M35.1448 27.4003C34.7132 26.0047 34.205 24.6373 33.6201 23.3021C33.0312 21.9549 32.3657 20.644 31.6235 19.3613C31.5307 19.204 31.4379 19.0467 31.3411 18.8894C29.9213 16.5136 28.2715 14.3193 26.3919 12.3025C24.3872 10.1526 22.2453 8.41811 19.9663 7.10315C17.6873 5.78819 15.5455 5.04601 13.5408 4.88063C13.4843 4.8766 13.4278 4.87256 13.3714 4.86853C11.7579 4.75559 10.3179 4.98147 9.05137 5.53407L9.02716 5.54218L8.30918 5.90117C6.82481 6.74823 5.65102 8.07122 4.78783 9.87021C3.9206 11.6732 3.48901 13.8796 3.48901 16.4974C3.48901 19.1153 3.9206 21.8178 4.78783 24.6171C5.65102 27.4164 6.82481 30.0947 8.30918 32.6561C9.78952 35.2134 11.5361 37.565 13.5408 39.7149C15.5455 41.8648 17.6873 43.5992 19.9663 44.9142C22.2453 46.2292 24.3872 46.9713 26.3919 47.1367C28.2191 47.2819 29.8245 47.0157 31.2201 46.326L31.3895 46.2413C31.4662 46.2009 31.5468 46.1566 31.6235 46.1122C32.8255 45.4265 33.8258 44.4261 34.6204 43.1112C34.81 42.8046 34.9835 42.4819 35.1448 42.1431C36.008 40.3441 36.4396 38.1378 36.4396 35.52C36.4396 32.9021 36.008 30.1996 35.1448 27.4003ZM11.7942 15.8843C11.891 15.4406 12.1129 15.126 12.4477 14.9324C12.9277 14.6581 13.5125 14.7186 14.1983 15.1179C14.884 15.5132 15.4688 16.1263 15.9488 16.9532C16.4288 17.7842 16.6709 18.5909 16.6709 19.3815C16.6709 20.1721 16.4288 20.6964 15.9488 20.9707C15.4688 21.245 14.884 21.1845 14.1983 20.7892C13.5125 20.3939 12.9277 19.7808 12.4477 18.9499C12.4154 18.8934 12.3831 18.841 12.3549 18.7845C11.9354 18.0141 11.7257 17.2598 11.7257 16.5257C11.7257 16.2877 11.7458 16.0739 11.7942 15.8843ZM27.5858 39.3156C27.3922 39.5697 27.1058 39.5818 26.7186 39.36L13.1697 31.5388C12.7865 31.3169 12.4961 30.966 12.3025 30.4941C12.1129 30.0221 12.0967 29.643 12.2621 29.3606C13.085 28.2917 14.1862 27.7109 15.5576 27.6221C15.6423 27.6181 15.727 27.6141 15.8117 27.6141C17.1105 27.5858 18.4981 27.9973 19.9663 28.8443C21.5314 29.7479 22.9915 31.0346 24.3509 32.7005C25.7102 34.3664 26.8033 36.2097 27.6262 38.2305C27.7915 38.7025 27.7754 39.0655 27.5858 39.3156ZM27.4809 27.6302C27.0009 27.9045 26.4201 27.844 25.7304 27.4487C25.0446 27.0494 24.4598 26.4363 23.9798 25.6094C23.5885 24.9358 23.3586 24.2742 23.29 23.6248C23.2699 23.4796 23.2618 23.3304 23.2618 23.1852C23.2618 22.3986 23.4998 21.8662 23.9798 21.5919C24.4598 21.3176 25.0446 21.3781 25.7304 21.7774C26.4201 22.1727 27.0009 22.7858 27.4809 23.6127C27.7109 24.0121 27.8883 24.4033 28.0053 24.7946C28.1384 25.2141 28.203 25.6295 28.203 26.0369C28.203 26.8275 27.9609 27.3559 27.4809 27.6302Z" fill="white"/>
<path d="M27.5858 39.3156C27.3922 39.5697 27.1058 39.5818 26.7186 39.36L13.1697 31.5388C12.7865 31.3169 12.4961 30.966 12.3025 30.4941C12.1129 30.0221 12.0967 29.643 12.2621 29.3606C13.085 28.2917 14.1862 27.7109 15.5576 27.6221C15.6423 27.6181 15.727 27.6141 15.8117 27.6141C17.1105 27.5858 18.4981 27.9973 19.9663 28.8443C21.5314 29.7479 22.9915 31.0346 24.3509 32.7005C25.7102 34.3664 26.8033 36.2097 27.6262 38.2305C27.7915 38.7025 27.7754 39.0655 27.5858 39.3156Z" fill="white"/>
<path d="M28.203 26.0369C28.203 26.8275 27.9609 27.3559 27.4809 27.6302C27.0009 27.9045 26.4201 27.844 25.7304 27.4487C25.0446 27.0494 24.4598 26.4363 23.9798 25.6094C23.5885 24.9358 23.3586 24.2742 23.29 23.6248C23.2699 23.4796 23.2618 23.3304 23.2618 23.1852C23.2618 22.3986 23.4998 21.8662 23.9798 21.5919C24.4598 21.3176 25.0446 21.3781 25.7304 21.7774C26.4201 22.1727 27.0009 22.7858 27.4809 23.6127C27.7109 24.0121 27.8883 24.4033 28.0053 24.7946C28.1384 25.2141 28.203 25.6295 28.203 26.0369Z" fill="white"/>
<path d="M16.6709 19.3815C16.6709 20.168 16.4288 20.6964 15.9488 20.9707C15.4688 21.245 14.884 21.1845 14.1983 20.7892C13.5125 20.3939 12.9277 19.7808 12.4477 18.9499C12.4154 18.8934 12.3831 18.841 12.3549 18.7845C11.9354 18.0141 11.7257 17.2598 11.7257 16.5257C11.7257 16.2877 11.7458 16.0739 11.7942 15.8843C11.891 15.4406 12.1129 15.126 12.4477 14.9324C12.9277 14.6581 13.5125 14.7186 14.1983 15.1179C14.884 15.5132 15.4688 16.1263 15.9488 16.9532C16.4288 17.7842 16.6709 18.5909 16.6709 19.3815Z" fill="white"/>
<path d="M44.5069 31.4864C44.5069 34.1042 44.0753 36.3105 43.2121 38.1095C42.3448 39.9126 41.1711 41.2355 39.6907 42.0786C39.5738 42.1431 39.4568 42.2076 39.3398 42.2682L39.2147 42.3287L31.3895 46.2413C31.4662 46.2009 31.5468 46.1566 31.6235 46.1122C32.8255 45.4265 33.8258 44.4261 34.6204 43.1112C34.81 42.8046 34.9835 42.4819 35.1448 42.1431C36.008 40.3441 36.4396 38.1378 36.4396 35.52C36.4396 32.9021 36.008 30.1996 35.1448 27.4003C34.7132 26.0047 34.205 24.6373 33.6201 23.3021C33.0312 21.9549 32.3657 20.644 31.6235 19.3613C31.5307 19.204 31.4379 19.0467 31.3411 18.8894C29.9213 16.5136 28.2715 14.3193 26.3919 12.3025C24.3872 10.1526 22.2453 8.41811 19.9663 7.10315C17.6873 5.78819 15.5455 5.04601 13.5408 4.88063C13.4843 4.8766 13.4278 4.87256 13.3714 4.86853C11.7579 4.75559 10.3179 4.98147 9.05137 5.53407L16.203 1.97241C16.2594 1.93611 16.3159 1.8998 16.3764 1.86754C17.8567 1.02451 19.6033 0.681658 21.608 0.847036C23.6127 1.01241 25.7546 1.75459 28.0336 3.06955C30.3125 4.38449 32.4544 6.11899 34.4591 8.2689C36.4638 10.4188 38.2064 12.7704 39.6907 15.3277C41.1711 17.885 42.3448 20.5633 43.2121 23.3667C44.0753 26.166 44.5069 28.8726 44.5069 31.4864Z" fill="white"/>
<path d="M8.30918 5.90117L9.02716 5.54218M8.30918 5.90117C8.54313 5.76806 8.78111 5.64706 9.02716 5.54218M8.30918 5.90117C6.82481 6.74823 5.65102 8.07122 4.78783 9.87021C3.9206 11.6732 3.48901 13.8796 3.48901 16.4974C3.48901 19.1153 3.9206 21.8178 4.78783 24.6171C5.65102 27.4164 6.82481 30.0947 8.30918 32.6561C9.78952 35.2134 11.5361 37.565 13.5408 39.7149C15.5455 41.8648 17.6873 43.5992 19.9663 44.9142C22.2453 46.2292 24.3872 46.9713 26.3919 47.1367C28.2191 47.2819 29.8245 47.0157 31.2201 46.326L31.3895 46.2413M9.02716 5.54218L9.05137 5.53407M9.05137 5.53407C10.3179 4.98147 11.7579 4.75559 13.3714 4.86853C13.4278 4.87256 13.4843 4.87659 13.5408 4.88063C15.5455 5.04601 17.6873 5.78819 19.9663 7.10315C22.2453 8.41811 24.3872 10.1526 26.3919 12.3025C28.2715 14.3193 29.9213 16.5136 31.3411 18.8894C31.4379 19.0467 31.5307 19.204 31.6235 19.3613C32.3657 20.644 33.0312 21.9549 33.6201 23.3021C34.205 24.6373 34.7132 26.0047 35.1448 27.4003C36.008 30.1996 36.4396 32.9021 36.4396 35.52C36.4396 38.1378 36.008 40.3441 35.1448 42.1431C34.9835 42.4819 34.81 42.8046 34.6204 43.1112C33.8258 44.4261 32.8255 45.4265 31.6235 46.1122C31.5468 46.1566 31.4662 46.2009 31.3895 46.2413M9.05137 5.53407L16.203 1.97241C16.2594 1.93611 16.3159 1.8998 16.3764 1.86754C17.8567 1.02451 19.6033 0.681658 21.608 0.847036C23.6127 1.01241 25.7546 1.75459 28.0336 3.06955C30.3125 4.38449 32.4544 6.11899 34.4591 8.2689C36.4638 10.4188 38.2064 12.7704 39.6907 15.3277C41.1711 17.885 42.3448 20.5633 43.2121 23.3667C44.0753 26.166 44.5069 28.8726 44.5069 31.4864C44.5069 34.1042 44.0753 36.3105 43.2121 38.1095C42.3448 39.9126 41.1711 41.2355 39.6907 42.0786C39.5738 42.1431 39.4568 42.2076 39.3398 42.2682L39.2147 42.3287L31.3895 46.2413M16.6709 19.3815C16.6709 18.5909 16.4288 17.7842 15.9488 16.9532C15.4688 16.1263 14.884 15.5132 14.1983 15.1179C13.5125 14.7186 12.9277 14.6581 12.4477 14.9324C12.1129 15.126 11.891 15.4406 11.7942 15.8843C11.7458 16.0739 11.7257 16.2877 11.7257 16.5257C11.7257 17.2598 11.9354 18.0141 12.3549 18.7845C12.3831 18.841 12.4154 18.8934 12.4477 18.9499C12.9277 19.7808 13.5125 20.3939 14.1983 20.7892C14.884 21.1845 15.4688 21.245 15.9488 20.9707M16.6709 19.3815C16.6709 20.1721 16.4288 20.6964 15.9488 20.9707M16.6709 19.3815C16.6709 20.168 16.4288 20.6964 15.9488 20.9707M27.5858 39.3156C27.3922 39.5697 27.1058 39.5818 26.7186 39.36L13.1697 31.5388C12.7865 31.3169 12.4961 30.966 12.3025 30.4941C12.1129 30.0221 12.0967 29.643 12.2621 29.3606C13.085 28.2917 14.1862 27.7109 15.5576 27.6221C15.6423 27.6181 15.727 27.6141 15.8117 27.6141C17.1105 27.5858 18.4981 27.9973 19.9663 28.8443C21.5314 29.7479 22.9915 31.0346 24.3509 32.7005C25.7102 34.3664 26.8033 36.2097 27.6262 38.2305C27.7915 38.7025 27.7754 39.0655 27.5858 39.3156ZM27.4809 27.6302C27.0009 27.9045 26.4201 27.844 25.7304 27.4487C25.0446 27.0494 24.4598 26.4363 23.9798 25.6094C23.5885 24.9358 23.3586 24.2742 23.29 23.6248C23.2699 23.4796 23.2618 23.3304 23.2618 23.1852C23.2618 22.3986 23.4998 21.8662 23.9798 21.5919C24.4598 21.3176 25.0446 21.3781 25.7304 21.7774C26.4201 22.1727 27.0009 22.7858 27.4809 23.6127C27.7109 24.0121 27.8883 24.4033 28.0053 24.7946C28.1384 25.2141 28.203 25.6295 28.203 26.0369C28.203 26.8275 27.9609 27.3559 27.4809 27.6302Z" stroke="#27272A" stroke-opacity="0.25" stroke-linecap="round" stroke-linejoin="round"/>
      </svg>