<svg xmlns="http://www.w3.org/2000/svg" viewBox="0 0 48 48">
        <path d="M35.52 31.7409C35.4163 31.049 35.2865 30.3528 35.1222 29.6523C34.9535 28.9128 34.7546 28.169 34.5211 27.4166C33.6692 24.6577 32.5146 22.0198 31.053 19.4987C29.5914 16.9777 27.8746 14.6598 25.8984 12.5409C23.9222 10.422 21.8119 8.71388 19.5676 7.41659C17.4357 6.18848 15.4292 5.47064 13.5482 5.25875C13.4444 5.24578 13.3406 5.23713 13.2368 5.22848C11.559 5.09442 10.0627 5.31064 8.75676 5.89875L8.08212 6.23605C6.62052 7.06632 5.46159 8.37226 4.60969 10.1452C3.7578 11.9225 3.32971 14.0977 3.32971 16.675C3.32971 19.2523 3.7578 21.9204 4.60969 24.6793C5.46159 27.4382 6.62052 30.076 8.08212 32.5971C9.53942 35.1182 11.2606 37.436 13.2368 39.555C15.2087 41.6739 17.3189 43.382 19.5676 44.675C21.8119 45.9723 23.9222 46.7031 25.8984 46.8674C27.8746 47.0274 29.5914 46.6944 31.053 45.8598C32.3546 45.116 33.414 44.0004 34.2313 42.5085C34.3351 42.3269 34.4303 42.1409 34.5211 41.9463C35.3773 40.1733 35.8011 37.9982 35.8011 35.4209C35.8011 34.2144 35.7103 32.9906 35.52 31.7409ZM12.1427 15.1442C12.1427 15.1442 12.1557 15.1398 12.16 15.1355C12.6314 14.8631 13.2065 14.9236 13.8855 15.3128C14.56 15.7063 15.1352 16.3074 15.6109 17.1247C16.0822 17.942 16.32 18.7377 16.32 19.516C16.32 20.2944 16.0822 20.8133 15.6109 21.0858C15.1352 21.3539 14.56 21.2933 13.8855 20.9042C13.6822 20.7874 13.4876 20.649 13.3016 20.489C12.8692 20.1301 12.4887 19.6631 12.16 19.0923C11.6844 18.275 11.4508 17.4793 11.4508 16.7052C11.4508 15.9312 11.68 15.4166 12.1427 15.1442ZM26.7503 36.2512C26.1017 37.0079 25.28 37.436 24.2854 37.5485C24.0778 37.5744 23.8659 37.5831 23.6454 37.5787C22.361 37.5485 20.9989 37.1204 19.5676 36.2944C18.1059 35.4512 16.7308 34.2923 15.4465 32.822C14.1622 31.3474 13.1287 29.6869 12.3416 27.836C12.0432 27.1701 12.0043 26.6469 12.2205 26.275C12.4368 25.9031 12.787 25.8598 13.2757 26.1409C13.4919 26.2663 13.6865 26.435 13.8638 26.6425C14.0411 26.8544 14.1968 27.1052 14.3309 27.4036C14.9536 28.7225 15.7232 29.9204 16.6443 30.9971C17.5654 32.0696 18.5384 32.9042 19.5676 33.5009C20.013 33.756 20.4454 33.955 20.8692 34.0977C21.427 34.2879 21.9676 34.3787 22.4908 34.3701C23.4076 34.3571 24.1817 34.0501 24.8044 33.449C24.9125 33.2933 25.0509 33.2112 25.2282 33.2069C25.4055 33.1982 25.6 33.2587 25.8162 33.3798C26.3049 33.6652 26.6552 34.1236 26.8714 34.7593C27.0876 35.395 27.0487 35.8923 26.7503 36.2512ZM26.9752 27.6458C26.7936 27.7452 26.5946 27.8015 26.3827 27.8058C26.0454 27.8231 25.6649 27.7063 25.2498 27.4642C24.5709 27.075 23.9957 26.4696 23.5244 25.6523C23.0487 24.8393 22.8151 24.0393 22.8151 23.2652C22.8151 23.1052 22.8238 22.9539 22.8498 22.8155C22.9233 22.2793 23.1482 21.9074 23.5244 21.6955C23.9957 21.4274 24.5709 21.4836 25.2498 21.8771C25.9244 22.2663 26.4995 22.8717 26.9752 23.689C27.4465 24.502 27.6843 25.302 27.6843 26.076C27.6843 26.8501 27.4465 27.3777 26.9752 27.6458Z" fill="white"/>
<path d="M26.7503 36.2512C26.1017 37.0079 25.28 37.436 24.2854 37.5485C24.0778 37.5744 23.8659 37.5831 23.6454 37.5787C22.361 37.5485 20.9989 37.1204 19.5676 36.2944C18.1059 35.4512 16.7308 34.2923 15.4465 32.822C14.1622 31.3474 13.1287 29.6869 12.3416 27.836C12.0432 27.1701 12.0043 26.6469 12.2205 26.275C12.4368 25.9031 12.787 25.8598 13.2757 26.1409C13.4919 26.2663 13.6865 26.435 13.8638 26.6425C14.0411 26.8544 14.1968 27.1052 14.3309 27.4036C14.9536 28.7225 15.7232 29.9204 16.6443 30.9971C17.5654 32.0696 18.5384 32.9042 19.5676 33.5009C20.013 33.756 20.4454 33.955 20.8692 34.0977C21.427 34.2879 21.9676 34.3787 22.4908 34.3701C23.4076 34.3571 24.1817 34.0501 24.8044 33.449C24.9125 33.2933 25.0509 33.2112 25.2282 33.2069C25.4055 33.1982 25.6 33.2587 25.8162 33.3798C26.3049 33.6652 26.6552 34.1236 26.8714 34.7593C27.0876 35.395 27.0487 35.8923 26.7503 36.2512Z" fill="white"/>
<path d="M16.32 19.516C16.32 20.2901 16.0822 20.8133 15.6109 21.0858C15.1352 21.3539 14.56 21.2933 13.8855 20.9042C13.6822 20.7874 13.4876 20.649 13.3016 20.489C12.8692 20.1301 12.4887 19.6631 12.16 19.0923C11.6844 18.275 11.4508 17.4793 11.4508 16.7052C11.4508 15.9312 11.68 15.4166 12.1427 15.1442C12.1471 15.1442 12.1557 15.1398 12.16 15.1355C12.6314 14.8631 13.2065 14.9236 13.8855 15.3128C14.56 15.7063 15.1352 16.3074 15.6109 17.1247C16.0822 17.942 16.32 18.7377 16.32 19.516Z" fill="white"/>
<path d="M27.6843 26.076C27.6843 26.8544 27.4465 27.3777 26.9752 27.6458C26.7936 27.7452 26.5946 27.8015 26.3827 27.8058C26.0454 27.8231 25.6649 27.7063 25.2498 27.4642C24.5709 27.075 23.9957 26.4696 23.5244 25.6523C23.0487 24.8393 22.8151 24.0393 22.8151 23.2652C22.8151 23.1052 22.8238 22.9539 22.8498 22.8155C22.9233 22.2793 23.1482 21.9074 23.5244 21.6955C23.9957 21.4274 24.5709 21.4836 25.2498 21.8771C25.9244 22.2663 26.4995 22.8717 26.9752 23.689C27.4465 24.502 27.6843 25.302 27.6843 26.076Z" fill="white"/>
<path d="M44.4497 31.0966C44.4497 33.6739 44.026 35.849 43.1698 37.622C42.3179 39.3993 41.1633 40.7009 39.7017 41.5355L31.053 45.8598C32.3546 45.116 33.414 44.0004 34.2313 42.5085C34.3351 42.3269 34.4303 42.1409 34.5211 41.9463C35.3773 40.1733 35.8011 37.9982 35.8011 35.4209C35.8011 34.2144 35.7103 32.9906 35.52 31.7409C35.4163 31.049 35.2865 30.3528 35.1222 29.6523C34.9535 28.9128 34.7546 28.169 34.5211 27.4166C33.6692 24.6577 32.5146 22.0198 31.053 19.4987C29.5914 16.9777 27.8746 14.6598 25.8984 12.5409C23.9222 10.422 21.8119 8.71388 19.5676 7.41659C17.4357 6.18848 15.4292 5.47064 13.5482 5.25875C13.4444 5.24578 13.3406 5.23713 13.2368 5.22848C11.559 5.09442 10.0627 5.31064 8.75676 5.89875L16.7308 1.91171C18.1881 1.07711 19.9092 0.744145 21.8855 0.904145C23.8573 1.06847 25.9676 1.79496 28.2162 3.09225C30.4605 4.38956 32.5709 6.09767 34.5471 8.21659C36.5233 10.3355 38.24 12.6533 39.7017 15.1744C41.1633 17.6955 42.3179 20.3333 43.1698 23.0923C44.026 25.8512 44.4497 28.5193 44.4497 31.0966Z" fill="white"/>
<path d="M8.75676 5.89875C10.0627 5.31064 11.559 5.09442 13.2368 5.22848C13.3406 5.23713 13.4444 5.24578 13.5482 5.25875C15.4292 5.47064 17.4357 6.18848 19.5676 7.41659C21.8119 8.71388 23.9222 10.422 25.8984 12.5409C27.8746 14.6598 29.5914 16.9777 31.053 19.4987C32.5146 22.0198 33.6692 24.6577 34.5211 27.4166C34.7546 28.169 34.9535 28.9128 35.1222 29.6523C35.2865 30.3528 35.4163 31.049 35.52 31.7409C35.7103 32.9906 35.8011 34.2144 35.8011 35.4209C35.8011 37.9982 35.3773 40.1733 34.5211 41.9463C34.4303 42.1409 34.3351 42.3269 34.2313 42.5085C33.414 44.0004 32.3546 45.116 31.053 45.8598M8.75676 5.89875L8.08212 6.23605C6.62052 7.06632 5.46159 8.37226 4.60969 10.1452C3.7578 11.9225 3.32971 14.0977 3.32971 16.675C3.32971 19.2523 3.7578 21.9204 4.60969 24.6793C5.46159 27.4382 6.62052 30.076 8.08212 32.5971C9.53942 35.1182 11.2606 37.436 13.2368 39.555C15.2087 41.6739 17.3189 43.382 19.5676 44.675C21.8119 45.9723 23.9222 46.7031 25.8984 46.8674C27.8746 47.0274 29.5914 46.6944 31.053 45.8598M8.75676 5.89875L16.7308 1.91171C18.1881 1.07711 19.9092 0.744145 21.8855 0.904145C23.8573 1.06847 25.9676 1.79496 28.2162 3.09225C30.4605 4.38956 32.5709 6.09767 34.5471 8.21659C36.5233 10.3355 38.24 12.6533 39.7017 15.1744C41.1633 17.6955 42.3179 20.3333 43.1698 23.0923C44.026 25.8512 44.4497 28.5193 44.4497 31.0966C44.4497 33.6739 44.026 35.849 43.1698 37.622C42.3179 39.3993 41.1633 40.7009 39.7017 41.5355L31.053 45.8598M12.1427 15.1442C12.1427 15.1442 12.1557 15.1398 12.16 15.1355M12.1427 15.1442C11.68 15.4166 11.4508 15.9312 11.4508 16.7052C11.4508 17.4793 11.6844 18.275 12.16 19.0923C12.4887 19.6631 12.8692 20.1301 13.3016 20.489C13.4876 20.649 13.6822 20.7874 13.8855 20.9042C14.56 21.2933 15.1352 21.3539 15.6109 21.0858M12.1427 15.1442C12.1471 15.1442 12.1557 15.1398 12.16 15.1355M12.16 15.1355C12.6314 14.8631 13.2065 14.9236 13.8855 15.3128C14.56 15.7063 15.1352 16.3074 15.6109 17.1247C16.0822 17.942 16.32 18.7377 16.32 19.516M16.32 19.516C16.32 20.2944 16.0822 20.8133 15.6109 21.0858M16.32 19.516C16.32 20.2901 16.0822 20.8133 15.6109 21.0858M26.9752 27.6458C26.7936 27.7452 26.5946 27.8015 26.3827 27.8058C26.0454 27.8231 25.6649 27.7063 25.2498 27.4642C24.5709 27.075 23.9957 26.4696 23.5244 25.6523C23.0487 24.8393 22.8151 24.0393 22.8151 23.2652C22.8151 23.1052 22.8238 22.9539 22.8498 22.8155C22.9233 22.2793 23.1482 21.9074 23.5244 21.6955C23.9957 21.4274 24.5709 21.4836 25.2498 21.8771C25.9244 22.2663 26.4995 22.8717 26.9752 23.689C27.4465 24.502 27.6843 25.302 27.6843 26.076M26.9752 27.6458C27.4465 27.3777 27.6843 26.8501 27.6843 26.076M26.9752 27.6458C27.4465 27.3777 27.6843 26.8544 27.6843 26.076M26.7503 36.2512C26.1017 37.0079 25.28 37.436 24.2854 37.5485C24.0778 37.5744 23.8659 37.5831 23.6454 37.5787C22.361 37.5485 20.9989 37.1204 19.5676 36.2944C18.1059 35.4512 16.7308 34.2923 15.4465 32.822C14.1622 31.3474 13.1287 29.6869 12.3416 27.836C12.0432 27.1701 12.0043 26.6469 12.2205 26.275C12.4368 25.9031 12.787 25.8598 13.2757 26.1409C13.4919 26.2663 13.6865 26.435 13.8638 26.6425C14.0411 26.8544 14.1968 27.1052 14.3309 27.4036C14.9536 28.7225 15.7232 29.9204 16.6443 30.9971C17.5654 32.0696 18.5384 32.9042 19.5676 33.5009C20.013 33.756 20.4454 33.955 20.8692 34.0977C21.427 34.2879 21.9676 34.3788 22.4908 34.3701C23.4076 34.3571 24.1817 34.0501 24.8044 33.449C24.9125 33.2933 25.0509 33.2112 25.2282 33.2069C25.4055 33.1982 25.6 33.2587 25.8162 33.3798C26.3049 33.6652 26.6552 34.1236 26.8714 34.7593C27.0876 35.395 27.0487 35.8923 26.7503 36.2512Z" stroke="#27272A" stroke-opacity="0.25" stroke-linecap="round" stroke-linejoin="round"/>
      </svg>