<svg xmlns="http://www.w3.org/2000/svg" viewBox="0 0 48 48">
        <path d="M21.5368 23.308L13.152 28.0864L6.82979 17.1804C6.22006 16.1296 5.44601 15.3296 4.50331 14.7891C3.56062 14.2442 2.78224 14.1448 2.17251 14.4907L10.8212 10.1664C11.4309 9.82042 12.2093 9.91988 13.152 10.4647C14.0947 11.0053 14.8687 11.8053 15.4784 12.8561L21.5368 23.308Z" fill="white"/>
<path d="M38.3542 22.7848C38.3542 23.8658 38.0515 24.5794 37.4418 24.9296L15.4828 37.4485C14.8169 37.8248 14.0385 37.7599 13.152 37.2496C12.2655 36.735 11.4872 35.9048 10.8256 34.7588L2.17256 19.8356C1.56283 18.7848 1.26013 17.7167 1.26013 16.6356C1.26013 15.5545 1.56278 14.841 2.17251 14.4907C2.78224 14.1448 3.56062 14.2442 4.50331 14.7891C5.44601 15.3296 6.22006 16.1296 6.82979 17.1804L13.152 28.0864L21.5368 23.308L32.7845 16.895C32.845 16.8604 32.9055 16.8302 32.9661 16.8042C33.299 16.6702 33.671 16.6529 34.0904 16.7567C34.4061 16.8345 34.7434 16.9772 35.111 17.1891C36.0537 17.7339 36.832 18.5296 37.4418 19.5804C38.0515 20.6356 38.3542 21.7037 38.3542 22.7848Z" fill="white"/>
<path d="M47.0028 18.4604C47.0028 19.5415 46.7001 20.255 46.0904 20.6053L24.1315 33.1242L15.4828 37.4485L37.4418 24.9296C38.0515 24.5794 38.3542 23.8658 38.3542 22.7848C38.3542 21.7037 38.0515 20.6356 37.4418 19.5804C36.832 18.5296 36.0537 17.7339 35.111 17.1891C34.7434 16.9772 34.4061 16.8345 34.0904 16.7567C33.671 16.6529 33.299 16.6702 32.9661 16.8042L41.4332 12.5707C42.0429 12.2204 42.817 12.3199 43.7596 12.8647C44.7023 13.4096 45.4806 14.2053 46.0904 15.2561C46.7001 16.3112 47.0028 17.3793 47.0028 18.4604Z" fill="white"/>
<path d="M21.5368 23.308L15.4784 12.8561C14.8687 11.8053 14.0947 11.0053 13.152 10.4647C12.2093 9.91988 11.4309 9.82042 10.8212 10.1664L2.17251 14.4907M21.5368 23.308L32.7845 16.895C32.845 16.8604 32.9055 16.8302 32.9661 16.8042M21.5368 23.308L13.152 28.0864L6.82979 17.1804C6.22006 16.1296 5.44601 15.3296 4.50331 14.7891C3.56062 14.2442 2.78224 14.1448 2.17251 14.4907M2.17251 14.4907C1.56278 14.841 1.26013 15.5545 1.26013 16.6356C1.26013 17.7167 1.56283 18.7848 2.17256 19.8356L10.8256 34.7588C11.4872 35.9048 12.2655 36.735 13.152 37.2496C14.0385 37.7599 14.8169 37.8248 15.4828 37.4485M15.4828 37.4485L24.1315 33.1242L46.0904 20.6053C46.7001 20.255 47.0028 19.5415 47.0028 18.4604C47.0028 17.3793 46.7001 16.3112 46.0904 15.2561C45.4806 14.2053 44.7023 13.4096 43.7596 12.8647C42.817 12.3199 42.0429 12.2204 41.4332 12.5707L32.9661 16.8042M15.4828 37.4485L37.4418 24.9296C38.0515 24.5794 38.3542 23.8658 38.3542 22.7848C38.3542 21.7037 38.0515 20.6356 37.4418 19.5804C36.832 18.5296 36.0537 17.7339 35.111 17.1891C34.7434 16.9772 34.4061 16.8345 34.0904 16.7567C33.671 16.6529 33.299 16.6702 32.9661 16.8042" stroke="#27272A" stroke-opacity="0.25" stroke-linecap="round" stroke-linejoin="round"/>
      </svg>