<svg xmlns="http://www.w3.org/2000/svg" viewBox="0 0 48 48">
        <path d="M33.1564 17.9564V26.0075C33.1564 26.1204 33.1161 26.2253 33.0314 26.3221L28.6711 31.9208C27.2352 32.1305 25.7224 32.2314 24.1413 32.2273C23.7339 32.2273 23.3305 32.2193 22.9353 32.1991C22.7336 32.1991 22.5319 32.187 22.3302 32.1709V27.75C22.3867 27.9517 22.536 28.1251 22.782 28.2663C22.8022 28.2784 22.8263 28.2905 22.8505 28.3026C23.2418 28.5083 23.7097 28.5809 24.2421 28.5245C24.8108 28.464 25.2142 28.2865 25.4563 27.988L33.0314 18.2549C33.1121 18.1621 33.1524 18.0613 33.1564 17.9564Z" fill="white"/>
<path d="M10.2053 13.9511V14.3868C10.2618 14.2416 10.2618 14.0964 10.2053 13.9511Z" fill="white"/>
<path d="M33.0516 17.6136C33.0112 17.545 32.9467 17.4724 32.862 17.3958C32.6402 17.186 32.2771 16.9319 31.7649 16.6375C31.5229 16.4963 31.2244 16.4035 30.8734 16.3551C30.5185 16.3067 30.1837 16.3309 29.857 16.4237L23.149 18.1622L14.5695 20.3847L10.8143 21.3568L13.42 22.8613L15.9329 22.1595C16.3807 22.0425 16.8607 21.9901 17.373 22.0022C17.7521 22.0062 18.1514 22.0465 18.5669 22.1191C19.4018 22.2684 20.4505 22.6838 21.7211 23.3696C21.9389 23.4865 22.1608 23.6075 22.3908 23.7406C22.9877 24.0875 23.3548 24.4949 23.4919 24.9628C23.617 25.3783 23.5444 25.7857 23.2862 26.1931C23.2539 26.2455 23.2176 26.2939 23.1773 26.3464L22.4512 27.1854C22.3181 27.3588 22.2778 27.5443 22.3302 27.75C22.3867 27.9517 22.536 28.1251 22.782 28.2663C22.8022 28.2784 22.8263 28.2905 22.8505 28.3026C23.2418 28.5083 23.7097 28.5809 24.2421 28.5245C24.8108 28.464 25.2142 28.2865 25.4563 27.988L33.0314 18.2549C33.1121 18.1621 33.1524 18.0613 33.1564 17.9564C33.1605 17.8475 33.1282 17.7346 33.0516 17.6136ZM25.6741 23.2082L23.149 21.7521L22.9958 21.6633L21.2775 20.6711L21.4549 20.6227L29.4617 18.3921L29.627 18.4848L25.6741 23.2082Z" fill="white"/>
<path d="M29.627 18.4848L25.6741 23.2082L23.149 21.7521L22.9958 21.6633L21.2775 20.6711L21.4549 20.6227L29.4617 18.3921L29.627 18.4848Z" fill="white"/>
<path d="M47.0928 21.6069V21.6432C47.0928 23.0106 46.7257 24.3538 45.9957 25.6809C45.8263 25.9834 45.6407 26.2819 45.435 26.5844C44.7009 27.6573 43.7247 28.6577 42.5026 29.5854C41.8693 30.0654 41.1715 30.5293 40.4051 30.9689C38.1663 32.2597 35.6372 33.2277 32.8137 33.8691C30.7242 34.3491 28.6066 34.6476 26.4607 34.7646C25.7105 34.8089 24.9562 34.8291 24.1979 34.8251C23.7461 34.8251 23.2943 34.817 22.8466 34.7968C22.6731 34.7968 22.5037 34.7847 22.3303 34.7726C20.0473 34.6637 17.7925 34.3531 15.57 33.8409C12.7384 33.1874 10.1972 32.2072 7.94646 30.9084C7.13571 30.4405 6.39352 29.9484 5.72798 29.4321C4.6752 28.6254 3.80395 27.7582 3.1142 26.8345C2.79555 26.4109 2.52124 25.9834 2.28325 25.5518C1.67015 24.4546 1.31524 23.3333 1.22246 22.1918C1.09339 20.6066 1.4483 19.0294 2.29133 17.4644C3.13436 15.8953 4.47348 14.4553 6.30474 13.1484C6.73634 12.8378 7.24458 12.6926 7.82546 12.7168C8.4063 12.741 8.91453 12.862 9.35016 13.0839C9.78176 13.3017 10.0682 13.5922 10.2053 13.9511V14.3868C10.1247 14.6086 9.92701 14.8264 9.60432 15.0523C6.95827 17.0167 5.66747 19.2109 5.72798 21.6432C5.73201 21.8368 5.74819 22.0304 5.76835 22.224C5.90146 23.422 6.34113 24.5474 7.07928 25.5921C7.92634 26.7861 9.17272 27.8792 10.8144 28.8714C10.9193 28.936 11.0281 29.0005 11.141 29.0651C11.254 29.1296 11.367 29.1941 11.4799 29.2506C12.1051 29.6015 12.7546 29.9162 13.4201 30.1985C13.7751 30.3558 14.134 30.497 14.4971 30.6301C16.8688 31.5054 19.4784 32.0216 22.3302 32.1709C22.5319 32.187 22.7336 32.1951 22.9353 32.1991C23.3305 32.2193 23.7339 32.2273 24.1413 32.2273C25.7224 32.2314 27.2352 32.1305 28.6711 31.9208C31.8173 31.4771 34.6288 30.5414 37.1095 29.1094C38.9085 28.0688 40.2598 26.9272 41.1594 25.6849C42.0387 24.4748 42.4864 23.1639 42.5066 21.7561V21.623C42.4904 18.7188 40.6632 16.218 37.0289 14.1165C34.6127 12.7249 31.8335 11.7972 28.6953 11.3373C26.8237 11.063 24.9603 10.9541 23.1089 11.0066C21.8544 11.0469 20.608 11.1558 19.3616 11.3454L22.4554 13.1323C22.8063 13.338 23.0282 13.5679 23.1089 13.822C23.1371 13.9027 23.1491 13.9834 23.1491 14.0681V14.0761C23.1491 14.1609 23.1371 14.2415 23.1089 14.3182C23.1008 14.3504 23.0886 14.3787 23.0725 14.4109C22.9757 14.6288 22.77 14.8304 22.4675 15.0039C22.0076 15.2701 21.4671 15.3992 20.846 15.3992C20.2248 15.3992 19.6802 15.2661 19.2204 14.9998L12.7061 11.2405C12.2463 10.9743 12.0124 10.6597 12.0124 10.3007C12.0084 9.94169 12.2382 9.63111 12.6981 9.36489L19.168 5.62976C19.6278 5.36354 20.1684 5.23043 20.7895 5.23446C21.4107 5.23446 21.9552 5.36757 22.4151 5.63379C22.8749 5.90001 23.1089 6.21463 23.1089 6.57362V6.58169C23.1089 6.93665 22.8789 7.24724 22.4271 7.50943L20.8057 8.44119C21.5721 8.38069 22.3425 8.34035 23.1089 8.32825C25.7952 8.26775 28.4735 8.47749 31.1357 8.96556C34.5602 9.58674 37.6177 10.6758 40.3041 12.2247C42.555 13.5276 44.2491 14.9918 45.3785 16.6254C46.512 18.263 47.0807 19.9209 47.0928 21.6069Z" fill="white"/>
<path d="M47.0928 21.6432V29.6741C47.1009 31.3642 46.5483 33.022 45.435 34.6516C44.3217 36.2812 42.6437 37.7413 40.4051 39.0361C38.1663 40.3269 35.6372 41.295 32.8137 41.9363C29.9901 42.5817 27.1182 42.9003 24.1979 42.8922C21.2735 42.8882 18.3975 42.5575 15.57 41.9081C12.7384 41.2546 10.1972 40.2744 7.94647 38.9756C5.85705 37.7696 4.24361 36.4102 3.1142 34.9017C1.98478 33.3931 1.35153 31.8442 1.22245 30.259C1.20632 30.0654 1.19823 29.8677 1.19823 29.6741V29.6136L1.22246 22.1918C1.31524 23.3333 1.67015 24.4546 2.28325 25.5518C2.52124 25.9834 2.79555 26.4109 3.1142 26.8345C3.80395 27.7582 4.6752 28.6254 5.72798 29.4321C6.39352 29.9484 7.13571 30.4405 7.94646 30.9084C10.1972 32.2072 12.7384 33.1874 15.57 33.8409C17.7925 34.3531 20.0473 34.6637 22.3303 34.7726C22.5037 34.7847 22.6731 34.7928 22.8466 34.7968C23.2943 34.817 23.7461 34.8251 24.1979 34.8251C24.9562 34.8291 25.7105 34.8089 26.4607 34.7646C28.6066 34.6476 30.7242 34.3491 32.8137 33.8691C35.6372 33.2277 38.1663 32.2597 40.4051 30.9689C41.1715 30.5293 41.8693 30.0654 42.5026 29.5854C43.7247 28.6577 44.7009 27.6573 45.435 26.5844C45.6407 26.2819 45.8263 25.9834 45.9957 25.6809C46.7257 24.3538 47.0928 23.0106 47.0928 21.6432Z" fill="white"/>
<path d="M23.1491 14.0761L23.149 18.1622L14.5695 20.3847L12.7061 19.3077C12.2463 19.0414 12.0124 18.7268 12.0124 18.3678V10.3007C12.0124 10.6597 12.2463 10.9743 12.7061 11.2405L19.2204 14.9998C19.6802 15.2661 20.2207 15.3992 20.846 15.3992C21.4712 15.3992 22.0076 15.2701 22.4675 15.0039C22.77 14.8304 22.9757 14.6288 23.0725 14.4109C23.0886 14.3787 23.1008 14.3504 23.1089 14.3182C23.1371 14.2415 23.1491 14.1609 23.1491 14.0761Z" fill="white"/>
<path d="M9.6042 23.1196C8.54336 23.9061 7.70045 24.7289 7.07928 25.5921C6.34113 24.5474 5.90146 23.422 5.76835 22.224C5.74819 22.0304 5.73201 21.8368 5.72798 21.6432C5.66747 19.2109 6.95827 17.0167 9.60432 15.0523C9.92701 14.8264 10.1247 14.6086 10.2053 14.3868L10.2052 22.0184C10.3423 22.3774 10.1407 22.7445 9.6042 23.1196Z" fill="white"/>
<path d="M23.2862 26.1931C23.2539 26.2455 23.2176 26.2939 23.1773 26.3464L22.4512 27.1854C22.3181 27.3588 22.2778 27.5443 22.3302 27.75V31.7716C20.7853 30.8882 19.5309 30.3558 18.5669 30.1864C17.5948 30.0129 16.7155 30.025 15.9329 30.2267L14.4971 30.6301C14.134 30.497 13.7751 30.3558 13.4201 30.1985L13.42 22.8613L15.9329 22.1595C16.3807 22.0425 16.8607 21.9901 17.373 22.0022C17.7521 22.0062 18.1514 22.0465 18.5669 22.1191C19.4018 22.2684 20.4505 22.6838 21.7211 23.3696C21.9389 23.4865 22.1608 23.6075 22.3908 23.7406C22.9877 24.0875 23.3548 24.4949 23.4919 24.9628C23.617 25.3783 23.5444 25.7857 23.2862 26.1931Z" fill="white"/>
<path d="M13.42 22.8613L13.4201 30.1985C12.7546 29.9162 12.1051 29.6015 11.4799 29.2506C11.367 29.1941 11.254 29.1296 11.141 29.0651C11.0281 29.0005 10.9193 28.936 10.8144 28.8714L10.8143 21.3568L13.42 22.8613Z" fill="white"/>
<path d="M33.1565 26.0398L33.1564 26.0075L33.1565 26.0398Z" fill="white"/>
<path d="M42.5066 21.623V21.7561C42.4864 23.1639 42.0387 24.4748 41.1594 25.6849C40.2478 24.4143 38.8683 23.2487 37.0289 22.1838C35.831 21.494 34.5402 20.9172 33.1566 20.4534L33.1564 17.9564C33.1605 17.8475 33.1282 17.7346 33.0516 17.6136C33.0112 17.545 32.9467 17.4724 32.862 17.3958C32.6402 17.186 32.2771 16.9319 31.7649 16.6375C31.5229 16.4963 31.2244 16.4035 30.8734 16.3551C30.5185 16.3067 30.1837 16.3309 29.857 16.4237L23.149 18.1622L23.1491 14.0681C23.1491 13.9834 23.1371 13.9027 23.1089 13.822C23.0282 13.5679 22.8063 13.338 22.4554 13.1323L19.3616 11.3454C20.608 11.1558 21.8544 11.0469 23.1089 11.0066C24.9603 10.9541 26.8237 11.063 28.6953 11.3373C31.8335 11.7972 34.6127 12.7249 37.0289 14.1165C40.6632 16.218 42.4904 18.7188 42.5066 21.623Z" fill="white"/>
<path d="M23.1089 6.58169V8.32825C22.3425 8.34035 21.5721 8.38069 20.8057 8.44119L22.4271 7.50943C22.8789 7.24724 23.1089 6.93665 23.1089 6.58169Z" fill="white"/>
<path d="M33.1564 17.9564V26.0075M33.1564 17.9564C33.1524 18.0613 33.1121 18.1621 33.0314 18.2549L25.4563 27.988C25.2142 28.2865 24.8108 28.464 24.2421 28.5245C23.7097 28.5809 23.2418 28.5083 22.8505 28.3026C22.8263 28.2905 22.8022 28.2784 22.782 28.2663C22.536 28.1251 22.3867 27.9517 22.3302 27.75M33.1564 17.9564C33.1605 17.8475 33.1282 17.7346 33.0516 17.6136C33.0112 17.545 32.9467 17.4724 32.862 17.3958C32.6402 17.186 32.2771 16.9319 31.7649 16.6375C31.5229 16.4963 31.2244 16.4035 30.8734 16.3551C30.5185 16.3067 30.1837 16.3309 29.857 16.4237L23.149 18.1622M33.1564 17.9564L33.1566 20.4534C34.5402 20.9172 35.831 21.494 37.0289 22.1838C38.8683 23.2487 40.2478 24.4143 41.1594 25.6849M33.1564 26.0075C33.1564 26.1204 33.1161 26.2253 33.0314 26.3221L28.6711 31.9208M33.1564 26.0075L33.1565 26.0398M28.6711 31.9208C27.2352 32.1305 25.7224 32.2314 24.1413 32.2273C23.7339 32.2273 23.3305 32.2193 22.9353 32.1991M28.6711 31.9208C31.8173 31.4771 34.6288 30.5414 37.1095 29.1094C38.9085 28.0688 40.2598 26.9272 41.1594 25.6849M22.9353 32.1991C22.7336 32.1991 22.5319 32.187 22.3302 32.1709M22.9353 32.1991C22.7336 32.1951 22.5319 32.187 22.3302 32.1709M22.3302 32.1709V27.75M22.3302 32.1709C19.4784 32.0216 16.8688 31.5054 14.4971 30.6301M22.3302 27.75C22.2778 27.5443 22.3181 27.3588 22.4512 27.1854L23.1773 26.3464C23.2176 26.2939 23.2539 26.2455 23.2862 26.1931C23.5444 25.7857 23.617 25.3783 23.4919 24.9628C23.3548 24.4949 22.9877 24.0875 22.3908 23.7406C22.1608 23.6075 21.9389 23.4865 21.7211 23.3696C20.4505 22.6838 19.4018 22.2684 18.5669 22.1191C18.1514 22.0465 17.7521 22.0062 17.373 22.0022C16.8607 21.9901 16.3807 22.0425 15.9329 22.1595L13.42 22.8613M22.3302 27.75V31.7716C20.7853 30.8882 19.5309 30.3558 18.5669 30.1864C17.5948 30.0129 16.7155 30.025 15.9329 30.2267L14.4971 30.6301M10.2053 13.9511V14.3868M10.2053 13.9511C10.2618 14.0964 10.2618 14.2416 10.2053 14.3868M10.2053 13.9511C10.0682 13.5922 9.78176 13.3017 9.35016 13.0839C8.91453 12.862 8.4063 12.741 7.82546 12.7168C7.24458 12.6926 6.73634 12.8378 6.30474 13.1484C4.47348 14.4553 3.13436 15.8953 2.29133 17.4644C1.4483 19.0294 1.09339 20.6066 1.22246 22.1918M10.2053 14.3868C10.1247 14.6086 9.92701 14.8264 9.60432 15.0523C6.95827 17.0167 5.66747 19.2109 5.72798 21.6432C5.73201 21.8368 5.74819 22.0304 5.76835 22.224C5.90146 23.422 6.34113 24.5474 7.07928 25.5921M10.2053 14.3868L10.2052 22.0184C10.3423 22.3774 10.1407 22.7445 9.6042 23.1196C8.54336 23.9061 7.70045 24.7289 7.07928 25.5921M23.149 18.1622L14.5695 20.3847M23.149 18.1622L23.1491 14.0761M23.149 18.1622L23.1491 14.0681M14.5695 20.3847L10.8143 21.3568M14.5695 20.3847L12.7061 19.3077C12.2463 19.0414 12.0124 18.7268 12.0124 18.3678V10.3007M10.8143 21.3568L13.42 22.8613M10.8143 21.3568L10.8144 28.8714M13.42 22.8613L13.4201 30.1985M47.0928 21.6432V21.6069C47.0807 19.9209 46.512 18.263 45.3785 16.6254C44.2491 14.9918 42.555 13.5276 40.3041 12.2247C37.6177 10.6758 34.5602 9.58674 31.1357 8.96556C28.4735 8.47749 25.7952 8.26775 23.1089 8.32825M47.0928 21.6432C47.0928 23.0106 46.7257 24.3538 45.9957 25.6809C45.8263 25.9834 45.6407 26.2819 45.435 26.5844C44.7009 27.6573 43.7247 28.6577 42.5026 29.5854C41.8693 30.0654 41.1715 30.5293 40.4051 30.9689C38.1663 32.2597 35.6372 33.2277 32.8137 33.8691C30.7242 34.3491 28.6066 34.6476 26.4607 34.7646C25.7105 34.8089 24.9562 34.8291 24.1979 34.8251C23.7461 34.8251 23.2943 34.817 22.8466 34.7968M47.0928 21.6432V29.6741C47.1009 31.3642 46.5483 33.022 45.435 34.6516C44.3217 36.2812 42.6437 37.7413 40.4051 39.0361C38.1663 40.3269 35.6372 41.295 32.8137 41.9363C29.9901 42.5817 27.1182 42.9003 24.1979 42.8922C21.2735 42.8882 18.3975 42.5575 15.57 41.9081C12.7384 41.2546 10.1972 40.2744 7.94647 38.9756C5.85705 37.7696 4.24361 36.4102 3.1142 34.9017C1.98478 33.3931 1.35153 31.8442 1.22245 30.259C1.20632 30.0654 1.19823 29.8677 1.19823 29.6741V29.6136L1.22246 22.1918M22.8466 34.7968C22.6731 34.7968 22.5037 34.7847 22.3303 34.7726M22.8466 34.7968C22.6731 34.7928 22.5037 34.7847 22.3303 34.7726M22.3303 34.7726C20.0473 34.6637 17.7925 34.3531 15.57 33.8409C12.7384 33.1874 10.1972 32.2072 7.94646 30.9084C7.13571 30.4405 6.39352 29.9484 5.72798 29.4321C4.6752 28.6254 3.80395 27.7582 3.1142 26.8345C2.79555 26.4109 2.52124 25.9834 2.28325 25.5518C1.67015 24.4546 1.31524 23.3333 1.22246 22.1918M7.07928 25.5921C7.92634 26.7861 9.17272 27.8792 10.8144 28.8714M10.8144 28.8714C10.9193 28.936 11.0281 29.0005 11.141 29.0651C11.254 29.1296 11.367 29.1941 11.4799 29.2506C12.1051 29.6015 12.7546 29.9162 13.4201 30.1985M13.4201 30.1985C13.7751 30.3558 14.134 30.497 14.4971 30.6301M41.1594 25.6849C42.0387 24.4748 42.4864 23.1639 42.5066 21.7561V21.623C42.4904 18.7188 40.6632 16.218 37.0289 14.1165C34.6127 12.7249 31.8335 11.7972 28.6953 11.3373C26.8237 11.063 24.9603 10.9541 23.1089 11.0066C21.8544 11.0469 20.608 11.1558 19.3616 11.3454L22.4554 13.1323C22.8063 13.338 23.0282 13.5679 23.1089 13.822C23.1371 13.9027 23.1491 13.9834 23.1491 14.0681M23.1491 14.0681V14.0761M23.1491 14.0761C23.1491 14.1609 23.1371 14.2415 23.1089 14.3182C23.1008 14.3504 23.0886 14.3787 23.0725 14.4109C22.9757 14.6288 22.77 14.8304 22.4675 15.0039M22.4675 15.0039C22.0076 15.2701 21.4671 15.3992 20.846 15.3992M22.4675 15.0039C22.0076 15.2701 21.4712 15.3992 20.846 15.3992M20.846 15.3992C20.2248 15.3992 19.6802 15.2661 19.2204 14.9998M20.846 15.3992C20.2207 15.3992 19.6802 15.2661 19.2204 14.9998M19.2204 14.9998L12.7061 11.2405C12.2463 10.9743 12.0124 10.6597 12.0124 10.3007M12.0124 10.3007C12.0084 9.94169 12.2382 9.63111 12.6981 9.36489L19.168 5.62976C19.6278 5.36354 20.1684 5.23043 20.7895 5.23446C21.4107 5.23446 21.9552 5.36757 22.4151 5.63379C22.8749 5.90001 23.1089 6.21463 23.1089 6.57362V6.58169M23.1089 6.58169C23.1089 6.93665 22.8789 7.24724 22.4271 7.50943L20.8057 8.44119C21.5721 8.38069 22.3425 8.34035 23.1089 8.32825M23.1089 6.58169V8.32825M25.6741 23.2082L23.149 21.7521L22.9958 21.6633L21.2775 20.6711L21.4549 20.6227L29.4617 18.3921L29.627 18.4848L25.6741 23.2082Z" stroke="#27272A" stroke-opacity="0.25" stroke-linecap="round" stroke-linejoin="round"/>
      </svg>