<svg xmlns="http://www.w3.org/2000/svg" viewBox="0 0 48 48">
        <path d="M45.8527 18.7128L26.6491 7.62443C25.8937 7.18908 24.9821 6.96954 23.9104 6.96582C22.8388 6.96582 21.9272 7.18165 21.1793 7.61328L2.09464 18.6309C1.34301 19.0663 0.970916 19.5909 0.974637 20.2086C0.978358 20.83 1.35791 21.3547 2.10954 21.79L21.317 32.8784C22.0686 33.3137 22.9839 33.5333 24.0556 33.537C25.1272 33.537 26.0351 33.3212 26.7867 32.8896L45.8713 21.8682C46.6155 21.4402 46.9913 20.9156 46.9913 20.3016V20.2942C46.9876 19.6728 46.6081 19.1482 45.8527 18.7128ZM30.8425 24.2123C30.4556 24.4356 30.0016 24.5435 29.477 24.5435C28.9523 24.5435 28.4947 24.4319 28.1077 24.2049L17.131 17.8719C16.9858 17.7863 16.863 17.6933 16.7737 17.5965C16.6211 17.4403 16.5467 17.2654 16.5467 17.0793C16.5467 16.7779 16.7365 16.5137 17.1235 16.2905C17.5104 16.0672 17.9644 15.9556 18.4891 15.9593C18.8165 15.9593 19.1142 16.004 19.3896 16.0896C19.557 16.1416 19.7132 16.2123 19.8584 16.2979L30.8314 22.6309C31.2221 22.8579 31.4156 23.1184 31.4193 23.4235C31.4193 23.7249 31.2295 23.9891 30.8425 24.2123Z" fill="white"/>
<path d="M31.4193 23.4235C31.4193 23.7249 31.2295 23.9891 30.8425 24.2123C30.4556 24.4356 30.0016 24.5435 29.477 24.5435C28.9523 24.5435 28.4947 24.4319 28.1077 24.2049L17.131 17.8719C16.9858 17.7863 16.863 17.6933 16.7737 17.5965C16.6211 17.4403 16.5467 17.2654 16.5467 17.0793C16.5467 16.7779 16.7365 16.5137 17.1235 16.2905C17.5104 16.0672 17.9644 15.9556 18.4891 15.9593C18.8165 15.9593 19.1142 16.004 19.3896 16.0896C19.557 16.1416 19.7132 16.2123 19.8584 16.2979L30.8314 22.6309C31.2221 22.8579 31.4156 23.1184 31.4193 23.4235Z" fill="white"/>
<path d="M46.9913 20.3016L46.9913 27.7361C46.995 28.3537 46.6192 28.8784 45.8713 29.3101L26.7867 40.3315C26.0351 40.7631 25.1272 40.9789 24.0556 40.9789C22.9839 40.9752 22.0686 40.7556 21.317 40.3203L2.10951 29.2319C1.35789 28.7966 0.978332 28.2719 0.974611 27.6505L0.974637 20.2086C0.978358 20.83 1.35791 21.3547 2.10954 21.79L21.317 32.8784C22.0686 33.3137 22.9839 33.5333 24.0556 33.537C25.1272 33.537 26.0351 33.3212 26.7867 32.8896L45.8713 21.8682C46.6155 21.4402 46.9913 20.9156 46.9913 20.3016Z" fill="white"/>
<path d="M0.974637 20.2086C0.970916 19.5909 1.34301 19.0663 2.09464 18.6309L21.1793 7.61328C21.9272 7.18165 22.8388 6.96582 23.9104 6.96582C24.9821 6.96954 25.8937 7.18908 26.6491 7.62443L45.8527 18.7128C46.6081 19.1482 46.9876 19.6728 46.9913 20.2942V20.3016M0.974637 20.2086C0.978358 20.83 1.35791 21.3547 2.10954 21.79L21.317 32.8784C22.0686 33.3137 22.9839 33.5333 24.0556 33.537C25.1272 33.537 26.0351 33.3212 26.7867 32.8896L45.8713 21.8682C46.6155 21.4402 46.9913 20.9156 46.9913 20.3016M0.974637 20.2086L0.974611 27.6505C0.978332 28.2719 1.35789 28.7966 2.10951 29.2319L21.317 40.3203C22.0686 40.7556 22.9839 40.9752 24.0556 40.9789C25.1272 40.9789 26.0351 40.7631 26.7867 40.3315L45.8713 29.3101C46.6192 28.8784 46.995 28.3537 46.9913 27.7361L46.9913 20.3016M30.8425 24.2123C30.4556 24.4356 30.0017 24.5435 29.477 24.5435C28.9523 24.5435 28.4947 24.4319 28.1077 24.2049L17.131 17.8719C16.9858 17.7863 16.863 17.6933 16.7737 17.5965C16.6211 17.4402 16.5467 17.2654 16.5467 17.0793C16.5467 16.7779 16.7365 16.5137 17.1235 16.2905C17.5104 16.0672 17.9644 15.9556 18.4891 15.9593C18.8165 15.9593 19.1142 16.004 19.3896 16.0896C19.557 16.1416 19.7132 16.2123 19.8584 16.2979L30.8314 22.6309C31.2221 22.8579 31.4156 23.1184 31.4193 23.4235C31.4193 23.7249 31.2295 23.9891 30.8425 24.2123Z" stroke="#27272A" stroke-opacity="0.25" stroke-linecap="round" stroke-linejoin="round"/>
      </svg>