<svg xmlns="http://www.w3.org/2000/svg" viewBox="0 0 48 48">
        <path d="M35.5078 22.3117V24.3049L31.1959 26.7944L30.8054 27.0181C30.4352 27.2297 30.2481 27.4778 30.2522 27.7625V33.3924C30.0203 33.4575 29.7722 33.49 29.5078 33.4859C29.0196 33.4859 28.5885 33.3802 28.2142 33.1646C27.844 32.949 27.6529 32.6968 27.6529 32.4161V24.2805C27.6529 24.4839 27.7505 24.671 27.9457 24.8378C28.019 24.9029 28.1085 24.968 28.2142 25.029C28.5885 25.2446 29.0196 25.3503 29.5078 25.3503C29.9959 25.3544 30.423 25.2446 30.7932 25.033L31.1959 24.8012L35.5078 22.3117Z" fill="white"/>
<path d="M23.8657 15.5917V21.0669L22.1816 22.0391C21.8115 22.2547 21.6284 22.5028 21.6284 22.7835V25.0167L17.4386 27.4371C17.0684 27.6486 16.6413 27.7584 16.1532 27.7584C15.665 27.7584 15.2338 27.6486 14.8596 27.433C14.4894 27.2174 14.2982 26.9693 14.2982 26.6845V18.5489C14.2982 18.8337 14.4894 19.0818 14.8596 19.2974C15.2338 19.513 15.665 19.6188 16.1532 19.6228C16.2101 19.6228 16.2671 19.6228 16.3199 19.6228C16.7389 19.5984 17.1132 19.4927 17.4386 19.3056L18.9925 18.4106L23.8657 15.5957V15.5917Z" fill="white"/>
<path d="M18.3782 9.87233V15.7706L14.8515 17.8086C14.4813 18.0201 14.2982 18.2683 14.2982 18.5489L14.2982 20.7862L10.1125 23.2025C9.73824 23.4181 9.31112 23.5239 8.82299 23.5239C8.33485 23.5239 7.90366 23.414 7.53349 23.1984C7.15926 22.9828 6.97214 22.7347 6.96807 22.454V14.3184C6.96807 14.4364 7.00468 14.5503 7.07383 14.6601C7.12265 14.7374 7.1918 14.8147 7.27722 14.8839C7.35044 14.9489 7.43587 15.0059 7.53349 15.0628C7.90366 15.2784 8.33485 15.3883 8.82299 15.3883C9.31112 15.3883 9.73824 15.2825 10.1125 15.0669L12.0365 13.9564L12.3416 13.7815L17.821 10.6167C18.1952 10.4011 18.3782 10.153 18.3782 9.87233Z" fill="white"/>
<path d="M43.4318 33.2459V41.3733C43.4359 41.6581 43.2488 41.9062 42.8786 42.1178C42.5084 42.3333 42.0773 42.4391 41.5891 42.4391C41.101 42.4391 40.6738 42.3293 40.2996 42.1137L35.9877 39.6242C35.6135 39.4086 35.4263 39.1605 35.4263 38.8798V30.7442C35.4263 31.0249 35.6135 31.273 35.9877 31.4886L36.5694 31.8222L40.2996 33.9781C40.6738 34.1937 41.1051 34.3035 41.5891 34.3035C42.0732 34.3035 42.5084 34.1978 42.8786 33.9822C43.2447 33.7747 43.4318 33.5266 43.4318 33.2459Z" fill="white"/>
<path d="M18.3782 9.87233C18.3782 10.153 18.1952 10.4011 17.821 10.6167L12.3416 13.7815L12.0365 13.9564L10.1125 15.0669C9.73824 15.2825 9.31112 15.3883 8.82299 15.3883C8.33485 15.3883 7.90366 15.2784 7.53349 15.0628C7.43587 15.0059 7.35044 14.9489 7.27722 14.8839C7.1918 14.8147 7.12265 14.7374 7.07383 14.6601C7.00468 14.5503 6.96807 14.4364 6.96807 14.3184C6.96807 14.2005 7.0007 14.0825 7.07392 13.9727C7.16341 13.8303 7.31392 13.6961 7.52544 13.574L10.5234 11.8452L7.07392 9.85199L4.07595 11.5849C3.7017 11.7964 3.27457 11.9062 2.78643 11.9022C2.2983 11.9022 1.87118 11.7964 1.49695 11.5808C1.12271 11.3652 0.935586 11.113 0.931519 10.8323C0.931519 10.5517 1.11457 10.3035 1.4888 10.092L9.20137 5.63777C9.57154 5.42217 9.99866 5.31641 10.4868 5.31641C10.9749 5.31641 11.4061 5.42624 11.7804 5.64183C12.1505 5.85743 12.3417 6.10556 12.3417 6.38624C12.3417 6.66692 12.1586 6.91505 11.7885 7.13065L9.64476 8.36725L12.3417 9.92521L13.0943 10.3605L15.2339 9.12386C15.6082 8.90826 16.0353 8.8025 16.5234 8.8025C17.0115 8.8025 17.4427 8.91233 17.8129 9.12792C18.1871 9.34352 18.3742 9.59165 18.3782 9.87233Z" fill="white"/>
<path d="M28.7267 15.8479C28.7267 16.1286 28.5396 16.3767 28.1694 16.5923C27.7993 16.8039 27.3681 16.9096 26.884 16.9096C26.3999 16.9096 25.9647 16.7998 25.5904 16.5842L23.8657 15.5917L18.9925 18.4066L17.4386 19.3015C17.1132 19.4886 16.7389 19.5944 16.3199 19.6188C16.2671 19.6188 16.2101 19.6188 16.1532 19.6188C15.665 19.6188 15.2338 19.5089 14.8596 19.2933C14.4894 19.0778 14.2982 18.8296 14.2982 18.5449C14.2982 18.2601 14.4813 18.0161 14.8515 17.8045L18.3782 15.7666L18.9925 15.4127L21.2786 14.0906L19.5538 13.0981C19.1837 12.8825 18.9925 12.6344 18.9925 12.3496C18.9925 12.0649 19.1755 11.8208 19.5457 11.6093C19.9199 11.3937 20.347 11.2879 20.8351 11.2879C21.3233 11.2879 21.7504 11.3978 22.1247 11.6133L28.1613 15.0954C28.5355 15.315 28.7226 15.5632 28.7267 15.8439V15.8479Z" fill="white"/>
<path d="M41.402 23.3083C41.402 23.6906 41.162 24.0201 40.6779 24.3008L35.5037 27.2906L35.3451 27.3801L33.3925 28.5069C33.1607 28.6411 32.9084 28.7306 32.6318 28.7835H32.6278C32.461 28.812 32.286 28.8283 32.103 28.8283C31.6189 28.8242 31.1877 28.7184 30.8135 28.5028C30.7159 28.4459 30.6304 28.3889 30.5572 28.3239C30.3538 28.153 30.2521 27.9659 30.2521 27.7584C30.2481 27.4737 30.4352 27.2256 30.8054 27.014L31.1959 26.7903L35.5077 24.3008L37.2325 23.3042L35.5077 22.3076L31.1959 24.7971L30.7932 25.0289C30.423 25.2405 29.9959 25.3503 29.5077 25.3462C29.0196 25.3462 28.5884 25.2405 28.2142 25.0249C28.1084 24.9639 28.019 24.8988 27.9457 24.8337C27.7505 24.6669 27.6528 24.4798 27.6528 24.2764C27.6528 23.9957 27.8359 23.7476 28.2061 23.5361L28.4176 23.414L28.7267 23.235L31.1959 21.8113L32.9206 20.8147L31.1959 19.8181L28.7267 21.2418L24.7688 23.5279C24.5369 23.6622 24.2847 23.7517 24.0081 23.8045H24.004C23.8901 23.8249 23.7762 23.8371 23.6542 23.8452C23.5973 23.8493 23.5403 23.8493 23.4833 23.8493C22.9952 23.8493 22.564 23.7394 22.1898 23.5239C21.8155 23.3083 21.6284 23.0601 21.6284 22.7794C21.6284 22.4988 21.8115 22.2506 22.1817 22.035L23.8657 21.0628L24.1342 20.9083L29.4671 17.8289C29.9511 17.5483 30.5247 17.41 31.1837 17.41C31.8426 17.41 32.4162 17.5523 32.9044 17.8371L40.6657 22.3157C41.1539 22.5964 41.3979 22.93 41.402 23.3083Z" fill="white"/>
<path d="M46.8325 26.3022V26.3103C46.8325 26.5869 46.6454 26.835 46.2793 27.0466L40.5192 30.37L39.8521 30.7564L41.3776 31.635L42.8705 32.4974C43.2447 32.713 43.4318 32.9611 43.4318 33.2418V33.25C43.4318 33.5306 43.2447 33.7788 42.8786 33.9863C42.5084 34.2019 42.0773 34.3076 41.5891 34.3076C41.101 34.3076 40.6738 34.1978 40.2996 33.9822L36.5694 31.8262L35.9877 31.4927C35.6135 31.2771 35.4263 31.0289 35.4263 30.7483C35.4263 30.6425 35.4507 30.5449 35.4996 30.4513C35.585 30.2886 35.7477 30.1381 35.9796 30.0039L43.6922 25.5496C44.0624 25.3381 44.4935 25.2323 44.9776 25.2323C45.4617 25.2323 45.8969 25.3422 46.2712 25.5578C46.6454 25.7733 46.8325 26.0215 46.8325 26.3022Z" fill="white"/>
<path d="M7.07392 9.85199V13.9727C7.0007 14.0825 6.96807 14.1964 6.96807 14.3184L6.96815 18.0486L4.07595 19.7205C3.7017 19.932 3.27457 20.0418 2.78643 20.0378C2.2983 20.0378 1.87118 19.932 1.49695 19.7164C1.12271 19.5008 0.935586 19.2486 0.931519 18.9679V10.8323C0.935586 11.113 1.12271 11.3652 1.49695 11.5808C1.87118 11.7964 2.2983 11.9022 2.78643 11.9022C3.27457 11.9062 3.7017 11.7964 4.07595 11.5849L7.07392 9.85199Z" fill="white"/>
<path d="M10.5234 11.8411L7.52544 13.57C7.31392 13.692 7.16341 13.8262 7.07392 13.9686V9.84792L10.5234 11.8411Z" fill="white"/>
<path d="M12.3417 6.38624V9.92521L9.64476 8.36725L11.7885 7.13065C12.1586 6.91505 12.3417 6.67099 12.3417 6.38624Z" fill="white"/>
<path d="M21.2786 14.0947L18.9925 15.4167V12.3537C18.9925 12.6384 19.1837 12.8866 19.5538 13.1022L21.2786 14.0947Z" fill="white"/>
<path d="M28.7267 15.8479L28.7267 18.2601L24.1342 20.9123L23.8657 21.0669V15.5917L25.5904 16.5842C25.9647 16.7998 26.3959 16.9096 26.884 16.9096C27.3721 16.9096 27.7993 16.8039 28.1694 16.5923C28.5396 16.3767 28.7267 16.1286 28.7267 15.8479Z" fill="white"/>
<path d="M32.9206 20.8147L31.1959 21.8113V19.8222L32.9206 20.8147Z" fill="white"/>
<path d="M41.402 23.3083V26.8676L35.9797 29.9998C35.7478 30.134 35.5851 30.2845 35.4997 30.4472C35.4509 30.5408 35.4263 30.6384 35.4263 30.7442L35.4265 35.4669L33.3926 36.6425C33.0224 36.8581 32.5912 36.9639 32.1031 36.9639C31.619 36.9598 31.1878 36.854 30.8136 36.6384C30.4393 36.4228 30.2522 36.1747 30.2522 35.894L30.2521 27.7584C30.2521 27.9659 30.3538 28.153 30.5572 28.3239C30.6304 28.3889 30.7159 28.4459 30.8135 28.5028C31.1877 28.7184 31.6189 28.8242 32.103 28.8283C32.286 28.8283 32.461 28.812 32.6278 28.7835H32.6318C32.9084 28.7306 33.1607 28.6411 33.3925 28.5069L35.3451 27.3801L35.5037 27.2906L40.6779 24.3008C41.162 24.0201 41.402 23.6906 41.402 23.3083Z" fill="white"/>
<path d="M46.8325 26.3062V34.4337C46.8366 34.7144 46.6495 34.9625 46.2793 35.1781L43.4318 36.8215V33.2378C43.4318 32.9571 43.2447 32.7089 42.8705 32.4933L41.3776 31.631L39.8523 30.7523L40.5194 30.3659L46.2793 27.0425C46.6454 26.831 46.8325 26.5828 46.8325 26.3062Z" fill="white"/>
<path d="M31.1959 19.8222V21.8154L28.7267 23.2391L28.4176 23.4181L28.2061 23.5401C27.8359 23.7517 27.6529 23.9998 27.6529 24.2805L27.6528 30.0039L24.7688 31.6676C24.3986 31.8832 23.9674 31.9889 23.4833 31.9889C22.9993 31.9889 22.564 31.8791 22.1898 31.6635C21.8155 31.4479 21.6284 31.1998 21.6284 30.9191L21.6284 22.7835C21.6284 23.0642 21.8155 23.3123 22.1898 23.5279C22.564 23.7435 22.9952 23.8533 23.4833 23.8533C23.5403 23.8533 23.5973 23.8533 23.6542 23.8493C23.7762 23.8411 23.8901 23.8289 24.004 23.8086H24.0081C24.2847 23.7557 24.5369 23.6662 24.7688 23.532L28.7267 21.2459L31.1959 19.8222Z" fill="white"/>
<path d="M37.2325 23.3042L35.5077 24.3008L35.5078 22.3117L37.2325 23.3042Z" fill="white"/>
<path d="M35.5078 22.3117V24.3049L31.1959 26.7944L30.8054 27.0181C30.4352 27.2297 30.2481 27.4778 30.2522 27.7625V33.3924C30.0203 33.4575 29.7722 33.49 29.5078 33.4859C29.0196 33.4859 28.5885 33.3802 28.2142 33.1646C27.844 32.949 27.6529 32.6968 27.6529 32.4161V24.2805M35.5078 22.3117L31.1959 24.8012L30.7932 25.033C30.423 25.2446 29.9959 25.3544 29.5078 25.3503C29.0196 25.3503 28.5885 25.2446 28.2142 25.029C28.1085 24.968 28.019 24.9029 27.9457 24.8378C27.7505 24.671 27.6529 24.4839 27.6529 24.2805M35.5078 22.3117L35.5077 24.3008M35.5078 22.3117L37.2325 23.3042M27.6529 24.2805C27.6529 23.9998 27.8359 23.7517 28.2061 23.5401L28.4176 23.4181L28.7267 23.2391L31.1959 21.8154V19.8222M27.6529 24.2805L27.6528 30.0039L24.7688 31.6676C24.3986 31.8832 23.9674 31.9889 23.4833 31.9889C22.9993 31.9889 22.564 31.8791 22.1898 31.6635C21.8155 31.4479 21.6284 31.1998 21.6284 30.9191L21.6284 22.7835M23.8657 15.5917V21.0669M23.8657 15.5917V15.5957L18.9925 18.4106L17.4386 19.3056C17.1132 19.4927 16.7389 19.5984 16.3199 19.6228C16.2671 19.6228 16.2101 19.6228 16.1532 19.6228C15.665 19.6188 15.2338 19.513 14.8596 19.2974C14.4894 19.0818 14.2982 18.8337 14.2982 18.5489M23.8657 15.5917L25.5904 16.5842M23.8657 15.5917L18.9925 18.4066L17.4386 19.3015C17.1132 19.4886 16.7389 19.5944 16.3199 19.6188C16.2671 19.6188 16.2101 19.6188 16.1532 19.6188C15.665 19.6188 15.2338 19.5089 14.8596 19.2933C14.4894 19.0778 14.2982 18.8296 14.2982 18.5449C14.2982 18.2601 14.4813 18.0161 14.8515 17.8045L18.3782 15.7666L18.9925 15.4127L21.2786 14.0906L19.5538 13.0981C19.1837 12.8825 18.9925 12.6344 18.9925 12.3496C18.9925 12.0649 19.1755 11.8208 19.5457 11.6093C19.9199 11.3937 20.347 11.2879 20.8351 11.2879C21.3233 11.2879 21.7504 11.3978 22.1247 11.6133L28.1613 15.0954C28.5355 15.315 28.7226 15.5632 28.7267 15.8439V15.8479M23.8657 21.0669L22.1816 22.0391C21.8115 22.2547 21.6284 22.5028 21.6284 22.7835M23.8657 21.0669L24.1342 20.9123L28.7267 18.2601L28.7267 15.8479M21.6284 22.7835V25.0167L17.4386 27.4371C17.0684 27.6486 16.6413 27.7584 16.1532 27.7584C15.665 27.7584 15.2338 27.6486 14.8596 27.433C14.4894 27.2174 14.2982 26.9693 14.2982 26.6845V18.5489M21.6284 22.7835C21.6284 23.0642 21.8155 23.3123 22.1898 23.5279C22.564 23.7435 22.9952 23.8533 23.4833 23.8533C23.5403 23.8533 23.5973 23.8533 23.6542 23.8493C23.7762 23.8411 23.8901 23.8289 24.004 23.8086H24.0081C24.2847 23.7557 24.5369 23.6662 24.7688 23.532L28.7267 21.2459L31.1959 19.8222M14.2982 18.5489C14.2982 18.2683 14.4813 18.0201 14.8515 17.8086L18.3782 15.7706V9.87233M14.2982 18.5489L14.2982 20.7862L10.1125 23.2025C9.73824 23.4181 9.31112 23.5239 8.82299 23.5239C8.33485 23.5239 7.90366 23.414 7.53349 23.1984C7.15926 22.9828 6.97214 22.7347 6.96807 22.454V14.3184M18.3782 9.87233C18.3782 10.153 18.1952 10.4011 17.821 10.6167L12.3416 13.7815L12.0365 13.9564L10.1125 15.0669C9.73824 15.2825 9.31112 15.3883 8.82299 15.3883C8.33485 15.3883 7.90366 15.2784 7.53349 15.0628C7.43587 15.0059 7.35044 14.9489 7.27722 14.8839C7.1918 14.8147 7.12265 14.7374 7.07383 14.6601C7.00468 14.5503 6.96807 14.4364 6.96807 14.3184M18.3782 9.87233C18.3742 9.59165 18.1871 9.34352 17.8129 9.12792C17.4427 8.91233 17.0115 8.8025 16.5234 8.8025C16.0353 8.8025 15.6082 8.90826 15.2339 9.12386L13.0943 10.3605L12.3417 9.92521M6.96807 14.3184C6.96807 14.2005 7.0007 14.0825 7.07392 13.9727M6.96807 14.3184C6.96807 14.1964 7.0007 14.0825 7.07392 13.9727M6.96807 14.3184L6.96815 18.0486L4.07595 19.7205C3.7017 19.932 3.27457 20.0418 2.78643 20.0378C2.2983 20.0378 1.87118 19.932 1.49695 19.7164C1.12271 19.5008 0.935586 19.2486 0.931519 18.9679V10.8323M35.4263 30.7442V38.8798C35.4263 39.1605 35.6135 39.4086 35.9877 39.6242L40.2996 42.1137C40.6738 42.3293 41.101 42.4391 41.5891 42.4391C42.0773 42.4391 42.5085 42.3333 42.8786 42.1178C43.2488 41.9062 43.4359 41.6581 43.4318 41.3733V33.2459C43.4318 33.5266 43.2447 33.7747 42.8786 33.9822C42.5085 34.1978 42.0732 34.3035 41.5891 34.3035C41.1051 34.3035 40.6738 34.1937 40.2996 33.9781L36.5694 31.8222L35.9877 31.4886C35.6135 31.273 35.4263 31.0249 35.4263 30.7442ZM35.4263 30.7442C35.4263 30.6384 35.4509 30.5408 35.4997 30.4472C35.5851 30.2845 35.7478 30.134 35.9797 29.9998L41.402 26.8676V23.3083M35.4263 30.7442L35.4265 35.4669L33.3926 36.6425C33.0224 36.8581 32.5912 36.9639 32.1031 36.9639C31.619 36.9598 31.1878 36.854 30.8136 36.6384C30.4393 36.4228 30.2522 36.1747 30.2522 35.894L30.2521 27.7584M7.07392 13.9727C7.16341 13.8303 7.31392 13.6961 7.52544 13.574L10.5234 11.8452L7.07392 9.85199M7.07392 13.9727V9.85199M7.07392 9.85199L4.07595 11.5849C3.7017 11.7964 3.27457 11.9062 2.78643 11.9022C2.2983 11.9022 1.87118 11.7964 1.49695 11.5808C1.12271 11.3652 0.935586 11.113 0.931519 10.8323M0.931519 10.8323C0.931519 10.5517 1.11457 10.3035 1.4888 10.092L9.20137 5.63777C9.57154 5.42217 9.99866 5.31641 10.4868 5.31641C10.9749 5.31641 11.4061 5.42624 11.7804 5.64183C12.1505 5.85743 12.3417 6.10556 12.3417 6.38624M12.3417 6.38624C12.3417 6.66692 12.1586 6.91505 11.7885 7.13065M12.3417 6.38624V9.92521M12.3417 6.38624C12.3417 6.67099 12.1586 6.91505 11.7885 7.13065M11.7885 7.13065L9.64476 8.36725L12.3417 9.92521M28.7267 15.8479C28.7267 16.1286 28.5396 16.3767 28.1694 16.5923M28.1694 16.5923C27.7993 16.8039 27.3681 16.9096 26.884 16.9096M28.1694 16.5923C27.7993 16.8039 27.3721 16.9096 26.884 16.9096M26.884 16.9096C26.3999 16.9096 25.9647 16.7998 25.5904 16.5842M26.884 16.9096C26.3959 16.9096 25.9647 16.7998 25.5904 16.5842M41.402 23.3083C41.402 23.6906 41.162 24.0201 40.6779 24.3008L35.5037 27.2906L35.3451 27.3801L33.3925 28.5069C33.1607 28.6411 32.9084 28.7306 32.6318 28.7835H32.6278C32.461 28.812 32.286 28.8283 32.103 28.8283C31.6189 28.8242 31.1877 28.7184 30.8135 28.5028C30.7159 28.4459 30.6304 28.3889 30.5572 28.3239C30.3538 28.153 30.2521 27.9659 30.2521 27.7584M41.402 23.3083C41.3979 22.93 41.1539 22.5964 40.6657 22.3157L32.9044 17.8371C32.4162 17.5523 31.8426 17.41 31.1837 17.41C30.5247 17.41 29.9511 17.5483 29.4671 17.8289L24.1342 20.9083L23.8657 21.0628L22.1817 22.035C21.8115 22.2506 21.6284 22.4988 21.6284 22.7794C21.6284 23.0601 21.8155 23.3083 22.1898 23.5239C22.564 23.7394 22.9952 23.8493 23.4833 23.8493C23.5403 23.8493 23.5973 23.8493 23.6542 23.8452C23.7762 23.8371 23.8901 23.8249 24.004 23.8045H24.0081C24.2847 23.7517 24.5369 23.6622 24.7688 23.5279L28.7267 21.2418L31.1959 19.8181L32.9206 20.8147M30.2521 27.7584C30.2481 27.4737 30.4352 27.2256 30.8054 27.014L31.1959 26.7903L35.5077 24.3008M35.5077 24.3008L37.2325 23.3042M37.2325 23.3042L35.5077 22.3076L31.1959 24.7971L30.7932 25.0289C30.423 25.2405 29.9959 25.3503 29.5077 25.3462C29.0196 25.3462 28.5884 25.2405 28.2142 25.0249C28.1084 24.9639 28.019 24.8988 27.9457 24.8337C27.7505 24.6669 27.6528 24.4798 27.6528 24.2764C27.6528 23.9957 27.8359 23.7476 28.2061 23.5361L28.4176 23.414L28.7267 23.235L31.1959 21.8113M31.1959 21.8113L32.9206 20.8147M31.1959 21.8113V19.8222M32.9206 20.8147L31.1959 19.8222M46.8325 26.3022V26.3103C46.8325 26.5869 46.6454 26.835 46.2793 27.0466L40.5192 30.37L39.8521 30.7564L41.3776 31.635L42.8705 32.4974C43.2447 32.713 43.4318 32.9611 43.4318 33.2418V33.25C43.4318 33.5306 43.2447 33.7788 42.8786 33.9863C42.5085 34.2019 42.0773 34.3076 41.5891 34.3076C41.101 34.3076 40.6738 34.1978 40.2996 33.9822L36.5694 31.8262L35.9877 31.4927C35.6135 31.2771 35.4263 31.0289 35.4263 30.7483C35.4263 30.6425 35.4507 30.5449 35.4996 30.4513C35.585 30.2886 35.7477 30.1381 35.9796 30.0039L43.6922 25.5496C44.0624 25.3381 44.4935 25.2323 44.9776 25.2323C45.4617 25.2323 45.8969 25.3422 46.2712 25.5578C46.6454 25.7733 46.8325 26.0215 46.8325 26.3022ZM10.5234 11.8411L7.52544 13.57C7.31392 13.692 7.16341 13.8262 7.07392 13.9686V9.84792L10.5234 11.8411ZM21.2786 14.0947L18.9925 15.4167V12.3537C18.9925 12.6384 19.1837 12.8866 19.5538 13.1022L21.2786 14.0947ZM46.8325 26.3062V34.4337C46.8366 34.7144 46.6495 34.9625 46.2793 35.1781L43.4318 36.8215V33.2378C43.4318 32.9571 43.2447 32.7089 42.8705 32.4933L41.3776 31.631L39.8523 30.7523L40.5194 30.3659L46.2793 27.0425C46.6454 26.831 46.8325 26.5828 46.8325 26.3062Z" stroke="#27272A" stroke-opacity="0.25" stroke-linecap="round" stroke-linejoin="round"/>
      </svg>