<svg xmlns="http://www.w3.org/2000/svg" viewBox="0 0 48 48">
        <path d="M30.6419 45.319C30.6419 46.1541 30.3843 46.716 29.8653 47.0126C29.3502 47.3053 28.7258 47.2429 28 46.8253C27.2741 46.4039 26.6497 45.7482 26.1346 44.8585C25.6156 43.9648 25.358 43.1024 25.358 42.2673C25.358 41.4321 25.6156 40.8702 26.1346 40.5736C26.6497 40.277 27.2741 40.3395 28 40.7609C28.7258 41.1785 29.3502 41.8341 29.8653 42.7278C30.3843 43.6214 30.6419 44.4839 30.6419 45.319Z" fill="white"/>
<path d="M17.4283 37.6897C17.4283 38.5249 17.1707 39.0868 16.6517 39.3834C16.1366 39.676 15.5122 39.6175 14.7863 39.196C14.0605 38.7746 13.4361 38.119 12.921 37.2293C12.4019 36.3356 12.1444 35.4732 12.1444 34.638C12.1444 33.8029 12.4019 33.241 12.921 32.9444C13.4361 32.6478 14.0605 32.7102 14.7863 33.1317C15.5122 33.5493 16.1366 34.2088 16.6517 35.0985C17.1707 35.9922 17.4283 36.8546 17.4283 37.6897Z" fill="white"/>
<path d="M33.1317 24.7024C33.1317 24.7024 33.1239 24.718 33.12 24.7258L30.2166 29.0849L28.761 31.2741L28.398 31.8166C28.2458 32.0429 28.0585 32.2107 27.8439 32.3122L27.8127 32.3278C27.6917 32.3785 27.5629 32.4136 27.4224 32.4293C27.0127 32.4722 26.5678 32.3512 26.0839 32.0741L24.398 31.0985L17.6 27.1766L16.238 26.3883L14.7863 28.5815L25.1356 34.56L29.3229 36.9756C29.6976 37.1902 30.0097 37.518 30.2634 37.9551C30.3492 38.1034 30.4234 38.2556 30.478 38.4039C30.5873 38.6888 30.6419 38.9736 30.6419 39.2546C30.6419 39.6839 30.517 39.9687 30.2634 40.1131C30.0097 40.2575 29.6976 40.2224 29.3229 40.0078L28.3668 39.4575L22.8644 36.2771L15.1571 31.8283L14.7863 31.6137C13.7951 31.0439 13.0419 30.1151 12.5229 28.8312C12.0078 27.5473 11.9883 26.5366 12.4722 25.8068L14.2595 23.1219L9.50241 8.85072L8.1795 8.08975C7.80486 7.87121 7.49266 7.54731 7.239 7.11024C6.98534 6.67316 6.85657 6.23999 6.85657 5.81072C6.85657 5.38145 6.98534 5.09267 7.239 4.94828L7.31705 4.90926C7.5551 4.8117 7.84389 4.86243 8.1795 5.05755L10.3609 6.31414C10.6029 6.45463 10.8332 6.66536 11.0517 6.94243C11.2741 7.22341 11.438 7.5317 11.5473 7.87511L16.8 23.68L26.0527 29.0224L27.1922 27.3366L28.6634 25.1551L30.1385 22.9736L30.841 21.9317C30.8917 21.8419 30.9541 21.7717 31.0283 21.7249L31.1766 21.6507C31.2156 21.639 31.2585 21.6312 31.3015 21.6273C31.5005 21.6156 31.7229 21.6819 31.9648 21.8224C32.4722 22.1151 32.8507 22.5795 33.1044 23.2195C33.3541 23.8439 33.3619 24.3395 33.1317 24.7024Z" fill="white"/>
<path d="M21.6234 20.4019L20.4682 21.0966C20.2263 21.2371 20.1053 21.518 20.1053 21.9473V22.0254L16.8 23.68L11.5473 7.87511C11.438 7.5317 11.2741 7.22341 11.0517 6.94243C10.8332 6.66536 10.6029 6.45463 10.3609 6.31414L8.1795 5.05755C7.84389 4.86243 7.5551 4.8117 7.31705 4.90926L15.0439 1.04584C15.2975 0.901447 15.6097 0.936569 15.9843 1.15511L18.1658 2.41169C18.4078 2.55218 18.638 2.76291 18.8565 3.03998C19.079 3.32096 19.2429 3.62925 19.3521 3.97267L22.0409 12.0624L16.5658 14.798L16.4878 14.8371C16.2341 14.9815 16.1092 15.2702 16.1092 15.6995C16.1092 16.1288 16.2341 16.5619 16.4878 16.999C16.7414 17.4361 17.0536 17.76 17.4282 17.9785L21.6234 20.4019Z" fill="white"/>
<path d="M30.1385 22.9736L28.6634 25.1551L27.1922 27.3366L26.0527 29.0224L16.8 23.68L20.1053 22.0254C20.1092 22.0839 20.1132 22.1385 20.121 22.1931C20.1561 22.5404 20.2732 22.88 20.4683 23.2195C20.7337 23.676 21.0458 24.0039 21.4087 24.199C21.7717 24.398 22.0761 24.4253 22.318 24.2887L27.7307 21.5804L30.1385 22.9736Z" fill="white"/>
<path d="M26.1502 21.4985C26.1502 21.9005 26.0175 22.1776 25.7521 22.3297L24.757 22.8995L23.1726 23.801L22.318 24.2887C22.0761 24.4253 21.7717 24.398 21.4087 24.199C21.0458 24.0039 20.7337 23.676 20.4683 23.2195C20.2732 22.88 20.1561 22.5404 20.121 22.1931C20.1132 22.1385 20.1092 22.0839 20.1053 22.0254V21.9473C20.1053 21.518 20.2263 21.2371 20.4682 21.0966L21.6234 20.4019L17.4282 17.9785C17.0536 17.76 16.7414 17.4361 16.4878 16.999C16.2341 16.5619 16.1092 16.1288 16.1092 15.6995C16.1092 15.2702 16.2341 14.9815 16.4878 14.8371L16.5658 14.798C16.8039 14.7005 17.0926 14.7512 17.4282 14.9463L21.4048 17.241L21.6234 17.3658L21.2097 16.6517L20.4331 15.3171C20.1717 14.8605 20.0429 14.4351 20.0546 14.0371C20.0624 13.838 20.0975 13.6702 20.1678 13.5336C20.2341 13.3932 20.3356 13.2878 20.4682 13.2136C20.7336 13.0888 21.0419 13.12 21.3931 13.3112C21.7443 13.5024 22.0526 13.8263 22.318 14.279L25.7521 20.2068C25.8185 20.32 25.877 20.4332 25.9278 20.5424C26.076 20.878 26.1502 21.1941 26.1502 21.4985Z" fill="white"/>
<path d="M25.0186 10.9385L23.9454 11.477L20.4682 13.2136C20.3356 13.2878 20.2341 13.3932 20.1678 13.5336C20.0975 13.6702 20.0624 13.838 20.0546 14.0371C20.0429 14.4351 20.1717 14.8605 20.4331 15.3171L21.2097 16.6517L21.6234 17.3658L21.4048 17.241L17.4282 14.9463C17.0926 14.7512 16.8039 14.7005 16.5658 14.798L22.0409 12.0624L24.2927 10.9346C24.4956 10.8175 24.7376 10.8175 25.0186 10.9385Z" fill="white"/>
<path d="M33.9552 17.5961C33.9552 17.998 33.8225 18.2751 33.5571 18.4273L30.123 20.3863L27.7307 21.5804L22.318 24.2887L23.1726 23.801L24.757 22.8995L25.7521 22.3297C26.0175 22.1776 26.1502 21.9005 26.1502 21.4985C26.1502 21.1941 26.076 20.878 25.9278 20.5424C25.877 20.4332 25.8185 20.32 25.7521 20.2068L22.318 14.279C22.0526 13.8263 21.7443 13.5024 21.3931 13.3112C21.0419 13.12 20.7336 13.0888 20.4682 13.2136L23.9454 11.477L25.0186 10.9385L28.2732 9.31121C28.5386 9.18633 28.8469 9.21755 29.1981 9.40877C29.5493 9.59999 29.8576 9.92389 30.123 10.3766L33.5571 16.3044C33.8225 16.761 33.9552 17.1902 33.9552 17.5961Z" fill="white"/>
<path d="M40.9249 20.8234L36.2029 27.9141C36.0546 28.1327 35.8751 28.2966 35.6683 28.398L35.6254 28.4176L27.8478 32.3122C28.0624 32.2107 28.2498 32.0429 28.402 31.8166L28.7649 31.2741L30.2205 29.0849L33.1239 24.7258C33.1239 24.7258 33.1317 24.7102 33.1356 24.7024C33.3658 24.3395 33.358 23.8439 33.1083 23.2195C32.8546 22.5795 32.4761 22.1151 31.9688 21.8224C31.7268 21.6819 31.5044 21.6156 31.3054 21.6273C31.2624 21.6312 31.2195 21.639 31.1805 21.6507L38.8488 17.8107L38.8917 17.7873C38.958 17.7522 39.0322 17.7327 39.1102 17.7249C39.3093 17.7132 39.5317 17.7795 39.7737 17.92C40.281 18.2127 40.6595 18.6771 40.9132 19.3171C41.1668 19.9532 41.1707 20.4566 40.9288 20.8234H40.9249Z" fill="white"/>
<path d="M17.4283 37.6897C17.4283 36.8546 17.1707 35.9922 16.6517 35.0985C16.1366 34.2088 15.5122 33.5493 14.7863 33.1317C14.0605 32.7102 13.4361 32.6478 12.921 32.9444L15.1571 31.8283L22.8644 36.2771L16.6517 39.3834C17.1707 39.0868 17.4283 38.5249 17.4283 37.6897Z" fill="white"/>
<path d="M38.4468 41.4165C38.4468 42.2517 38.1892 42.8136 37.6702 43.1102L29.8653 47.0126C30.3843 46.716 30.6419 46.1541 30.6419 45.319C30.6419 44.4839 30.3843 43.6214 29.8653 42.7278C29.3502 41.8341 28.7258 41.1785 28 40.7609C27.2741 40.3395 26.6497 40.277 26.1346 40.5736L28.3668 39.4575L29.3229 40.0078C29.6976 40.2224 30.0097 40.2575 30.2634 40.1131L36.2185 37.1356C36.7687 37.5414 37.2565 38.1073 37.6702 38.8253C38.1892 39.719 38.4468 40.5814 38.4468 41.4165Z" fill="white"/>
<path d="M38.4468 35.3522C38.4468 35.7815 38.3219 36.0663 38.0683 36.2107L36.2185 37.1356L30.2634 40.1131C30.517 39.9687 30.6419 39.6839 30.6419 39.2546C30.6419 38.9736 30.5873 38.6888 30.478 38.4039C30.4234 38.2556 30.3492 38.1034 30.2634 37.9551C30.0097 37.518 29.6976 37.1902 29.3229 36.9756L25.1356 34.56L14.7863 28.5815L17.6 27.1766L24.398 31.0985L26.0839 32.0741C26.5678 32.3512 27.0127 32.4722 27.4224 32.4293C27.5629 32.4136 27.6917 32.3785 27.8127 32.3278L27.8439 32.3122L32.1093 30.1776L37.1239 33.0732C37.4985 33.2878 37.8107 33.6156 38.0644 34.0527C38.318 34.4897 38.4429 34.9229 38.4429 35.3522H38.4468Z" fill="white"/>
<path d="M17.6 27.1766L14.7863 28.5815L16.238 26.3883L17.6 27.1766Z" fill="white"/>
<path d="M29.8653 47.0126C30.3843 46.716 30.6419 46.1541 30.6419 45.319C30.6419 44.4839 30.3843 43.6214 29.8653 42.7278C29.3502 41.8341 28.7258 41.1785 28 40.7609C27.2741 40.3395 26.6497 40.277 26.1346 40.5736M29.8653 47.0126C29.3502 47.3053 28.7258 47.2429 28 46.8253C27.2741 46.4039 26.6497 45.7482 26.1346 44.8585C25.6156 43.9648 25.358 43.1024 25.358 42.2673C25.358 41.4321 25.6156 40.8702 26.1346 40.5736M29.8653 47.0126L37.6702 43.1102C38.1892 42.8136 38.4468 42.2517 38.4468 41.4165C38.4468 40.5814 38.1892 39.719 37.6702 38.8253C37.2565 38.1073 36.7687 37.5414 36.2185 37.1356M26.1346 40.5736L28.3668 39.4575M16.6517 39.3834C17.1707 39.0868 17.4283 38.5249 17.4283 37.6897C17.4283 36.8546 17.1707 35.9922 16.6517 35.0985C16.1366 34.2088 15.5122 33.5493 14.7863 33.1317C14.0605 32.7102 13.4361 32.6478 12.921 32.9444M16.6517 39.3834C16.1366 39.676 15.5122 39.6175 14.7863 39.196C14.0605 38.7746 13.4361 38.119 12.921 37.2293C12.4019 36.3356 12.1444 35.4732 12.1444 34.638C12.1444 33.8029 12.4019 33.241 12.921 32.9444M16.6517 39.3834L22.8644 36.2771M12.921 32.9444L15.1571 31.8283M27.8439 32.3122C28.0585 32.2107 28.2458 32.0429 28.398 31.8166L28.761 31.2741L30.2166 29.0849L33.12 24.7258C33.1239 24.718 33.1317 24.7024 33.1317 24.7024C33.3619 24.3395 33.3541 23.8439 33.1044 23.2195C32.8507 22.5795 32.4722 22.1151 31.9648 21.8224C31.7229 21.6819 31.5005 21.6156 31.3015 21.6273C31.2585 21.6312 31.2156 21.639 31.1766 21.6507L31.0283 21.7249C30.9541 21.7717 30.8917 21.8419 30.841 21.9317L30.1385 22.9736M27.8439 32.3122L27.8127 32.3278C27.6917 32.3785 27.5629 32.4136 27.4224 32.4293C27.0127 32.4722 26.5678 32.3512 26.0839 32.0741L24.398 31.0985L17.6 27.1766M27.8439 32.3122L32.1093 30.1776L37.1239 33.0732C37.4985 33.2878 37.8107 33.6156 38.0644 34.0527C38.318 34.4897 38.4429 34.9229 38.4429 35.3522H38.4468C38.4468 35.7815 38.3219 36.0663 38.0683 36.2107L36.2185 37.1356M17.6 27.1766L16.238 26.3883L14.7863 28.5815M17.6 27.1766L14.7863 28.5815M14.7863 28.5815L25.1356 34.56L29.3229 36.9756C29.6976 37.1902 30.0097 37.518 30.2634 37.9551C30.3492 38.1034 30.4234 38.2556 30.478 38.4039C30.5873 38.6888 30.6419 38.9736 30.6419 39.2546C30.6419 39.6839 30.517 39.9687 30.2634 40.1131M30.2634 40.1131C30.0097 40.2575 29.6976 40.2224 29.3229 40.0078L28.3668 39.4575M30.2634 40.1131L36.2185 37.1356M28.3668 39.4575L22.8644 36.2771M22.8644 36.2771L15.1571 31.8283M15.1571 31.8283L14.7863 31.6137C13.7951 31.0439 13.0419 30.1151 12.5229 28.8312C12.0078 27.5473 11.9883 26.5366 12.4722 25.8068L14.2595 23.1219L9.50241 8.85072L8.1795 8.08975C7.80486 7.87121 7.49266 7.54731 7.239 7.11024C6.98534 6.67316 6.85657 6.23999 6.85657 5.81072C6.85657 5.38145 6.98534 5.09267 7.239 4.94828L7.31705 4.90926M7.31705 4.90926C7.5551 4.8117 7.84389 4.86243 8.1795 5.05755L10.3609 6.31414C10.6029 6.45463 10.8332 6.66536 11.0517 6.94243C11.2741 7.22341 11.438 7.5317 11.5473 7.87511L16.8 23.68M7.31705 4.90926L15.0439 1.04584C15.2975 0.901447 15.6097 0.936569 15.9843 1.15511L18.1658 2.41169C18.4078 2.55218 18.638 2.76291 18.8565 3.03998C19.079 3.32096 19.2429 3.62925 19.3521 3.97267L22.0409 12.0624M16.8 23.68L20.1053 22.0254M16.8 23.68L26.0527 29.0224L27.1922 27.3366L28.6634 25.1551L30.1385 22.9736M30.1385 22.9736L27.7307 21.5804M20.1053 22.0254V21.9473C20.1053 21.518 20.2263 21.2371 20.4682 21.0966L21.6234 20.4019L17.4282 17.9785C17.0536 17.76 16.7414 17.4361 16.4878 16.999C16.2341 16.5619 16.1092 16.1288 16.1092 15.6995C16.1092 15.2702 16.2341 14.9815 16.4878 14.8371L16.5658 14.798M20.1053 22.0254C20.1092 22.0839 20.1132 22.1385 20.121 22.1931C20.1561 22.5404 20.2732 22.88 20.4683 23.2195C20.7337 23.676 21.0458 24.0039 21.4087 24.199C21.7717 24.398 22.0761 24.4253 22.318 24.2887M22.0409 12.0624L24.2927 10.9346C24.4956 10.8175 24.7376 10.8175 25.0186 10.9385M22.0409 12.0624L16.5658 14.798M16.5658 14.798C16.8039 14.7005 17.0926 14.7512 17.4282 14.9463L21.4048 17.241L21.6234 17.3658L21.2097 16.6517L20.4331 15.3171C20.1717 14.8605 20.0429 14.4351 20.0546 14.0371C20.0624 13.838 20.0975 13.6702 20.1678 13.5336C20.2341 13.3932 20.3356 13.2878 20.4682 13.2136M22.318 24.2887L23.1726 23.801L24.757 22.8995L25.7521 22.3297C26.0175 22.1776 26.1502 21.9005 26.1502 21.4985C26.1502 21.1941 26.076 20.878 25.9278 20.5424C25.877 20.4332 25.8185 20.32 25.7521 20.2068L22.318 14.279C22.0526 13.8263 21.7443 13.5024 21.3931 13.3112C21.0419 13.12 20.7336 13.0888 20.4682 13.2136M22.318 24.2887L27.7307 21.5804M27.7307 21.5804L30.123 20.3863L33.5571 18.4273C33.8225 18.2751 33.9552 17.998 33.9552 17.5961C33.9552 17.1902 33.8225 16.761 33.5571 16.3044L30.123 10.3766C29.8576 9.92389 29.5493 9.59999 29.1981 9.40877C28.8469 9.21755 28.5386 9.18633 28.2732 9.31121L25.0186 10.9385M20.4682 13.2136L23.9454 11.477L25.0186 10.9385M40.9249 20.8234L36.2029 27.9141C36.0546 28.1327 35.8751 28.2966 35.6683 28.398L35.6254 28.4176L27.8478 32.3122C28.0624 32.2107 28.2498 32.0429 28.402 31.8166L28.7649 31.2741L30.2205 29.0849L33.1239 24.7258C33.1239 24.7258 33.1317 24.7102 33.1356 24.7024C33.3658 24.3395 33.358 23.8439 33.1083 23.2195C32.8546 22.5795 32.4761 22.1151 31.9688 21.8224C31.7268 21.6819 31.5044 21.6156 31.3054 21.6273C31.2624 21.6312 31.2195 21.639 31.1805 21.6507L38.8488 17.8107L38.8917 17.7873C38.958 17.7522 39.0322 17.7327 39.1102 17.7249C39.3093 17.7132 39.5317 17.7795 39.7737 17.92C40.281 18.2127 40.6595 18.6771 40.9132 19.3171C41.1668 19.9532 41.1707 20.4566 40.9288 20.8234H40.9249Z" stroke="#27272A" stroke-opacity="0.25" stroke-linecap="round" stroke-linejoin="round"/>
      </svg>