<svg xmlns="http://www.w3.org/2000/svg" viewBox="0 0 48 48">
        <path d="M31.92 19.1411C31.36 18.1769 30.6863 17.4653 29.8989 17.0106L9.88204 5.4527C9.09467 4.99797 8.42106 4.9306 7.86106 5.2506C7.30106 5.5706 7.02307 6.18112 7.02307 7.08639V30.0548C7.02307 30.9601 7.30106 31.8948 7.86106 32.859C8.42106 33.8232 9.09467 34.5348 9.88204 34.9895L29.8989 46.5475C30.6863 47.0022 31.36 47.0696 31.92 46.7496C32.48 46.4296 32.7621 45.8191 32.7621 44.918V21.9453C32.7621 21.0443 32.48 20.1095 31.92 19.1411ZM25.6126 34.2274C25.6126 34.5138 25.562 34.7411 25.4568 34.9095C25.3894 35.0148 25.3053 35.099 25.2 35.158C24.9263 35.3138 24.5852 35.2759 24.181 35.0401L15.6 30.0885C15.1958 29.8527 14.8547 29.499 14.5811 29.0274C14.3074 28.5559 14.1726 28.0843 14.1726 27.6211V17.7769C14.1726 17.3095 14.3074 17.0022 14.5811 16.8422C14.8168 16.7074 15.1073 16.72 15.4441 16.88C15.4947 16.9011 15.5452 16.9306 15.6 16.9601L22.5937 20.998L24.181 21.9159C24.5852 22.1474 24.9263 22.5011 25.2 22.9727C25.4737 23.4485 25.6126 23.9159 25.6126 24.379V34.2274Z" fill="white"/>
<path d="M25.6127 26.7959L25.6126 34.2274C25.6126 34.5138 25.562 34.7411 25.4568 34.9095C25.3894 35.0148 25.3053 35.099 25.2 35.158C24.9263 35.3138 24.5852 35.2759 24.181 35.0401L15.6 30.0885C15.1958 29.8527 14.8547 29.499 14.5811 29.0274C14.3074 28.5559 14.1726 28.0843 14.1726 27.6211V17.7769C14.1726 17.3095 14.3074 17.0022 14.5811 16.8422C14.8168 16.7074 15.1073 16.72 15.4441 16.88C15.4947 16.9011 15.5452 16.9306 15.6 16.9601L22.5937 20.998L22.5938 23.4106C22.5938 23.8738 22.7285 24.3453 23.0022 24.8169C23.2759 25.2885 23.6169 25.6422 24.0211 25.878L25.6127 26.7959Z" fill="white"/>
<path d="M41.1831 17.7348V40.7074C41.1831 41.6085 40.901 42.2191 40.341 42.5391L31.92 46.7496C32.48 46.4296 32.7621 45.8191 32.7621 44.918V21.9453C32.7621 21.0443 32.48 20.1095 31.92 19.1411C31.36 18.1769 30.6863 17.4653 29.8989 17.0106L9.88204 5.4527C9.09467 4.99797 8.42106 4.9306 7.86106 5.2506L16.2821 1.04005C16.8421 0.72005 17.5157 0.787439 18.3031 1.24218L38.32 12.8001C39.1073 13.2548 39.781 13.9664 40.341 14.9306C40.901 15.899 41.1831 16.8338 41.1831 17.7348Z" fill="white"/>
<path d="M7.86106 5.2506C8.42106 4.9306 9.09467 4.99797 9.88204 5.4527L29.8989 17.0106C30.6863 17.4653 31.36 18.1769 31.92 19.1411C32.48 20.1095 32.7621 21.0443 32.7621 21.9453V44.918C32.7621 45.8191 32.48 46.4296 31.92 46.7496M7.86106 5.2506C7.30106 5.5706 7.02307 6.18112 7.02307 7.08639V30.0548C7.02307 30.9601 7.30106 31.8948 7.86106 32.859C8.42106 33.8232 9.09467 34.5348 9.88204 34.9895L29.8989 46.5475C30.6863 47.0022 31.36 47.0696 31.92 46.7496M7.86106 5.2506L16.2821 1.04005C16.8421 0.72005 17.5157 0.787439 18.3031 1.24218L38.32 12.8001C39.1073 13.2548 39.781 13.9664 40.341 14.9306C40.901 15.899 41.1831 16.8338 41.1831 17.7348V40.7074C41.1831 41.6085 40.901 42.2191 40.341 42.5391L31.92 46.7496M25.6126 34.2274C25.6126 34.5138 25.562 34.7411 25.4568 34.9095C25.3894 35.0148 25.3053 35.099 25.2 35.158C24.9263 35.3138 24.5852 35.2759 24.181 35.0401L15.6 30.0885C15.1957 29.8527 14.8547 29.499 14.5811 29.0274C14.3074 28.5559 14.1726 28.0843 14.1726 27.6211V17.7769C14.1726 17.3095 14.3074 17.0022 14.5811 16.8422C14.8168 16.7074 15.1073 16.72 15.4441 16.88C15.4947 16.9011 15.5452 16.9306 15.6 16.9601L22.5937 20.998M25.6126 34.2274V24.379C25.6126 23.9159 25.4737 23.4485 25.2 22.9727C24.9263 22.5011 24.5852 22.1474 24.181 21.9159L22.5937 20.998M25.6126 34.2274L25.6127 26.7959L24.0211 25.878C23.6169 25.6422 23.2759 25.2885 23.0022 24.8169C22.7285 24.3453 22.5938 23.8738 22.5938 23.4106L22.5937 20.998" stroke="#27272A" stroke-opacity="0.25" stroke-linecap="round" stroke-linejoin="round"/>
      </svg>