<svg xmlns="http://www.w3.org/2000/svg" viewBox="0 0 48 48">
        <path d="M36.3521 12.6825L30.4854 16.0691C30.3041 16.1758 30.1494 16.2825 30.0267 16.3998C29.7174 16.6771 29.5627 16.9865 29.5627 17.3278V23.5838C28.0214 23.7492 26.5067 23.9892 25.0187 24.3039C21.3921 25.0718 18.2027 26.2505 15.4507 27.8399C12.1547 29.7439 9.86136 31.9839 8.56536 34.5599C8.49602 34.6985 8.43208 34.8319 8.37341 34.9705V32.3252C8.38941 32.1279 8.36269 31.9305 8.28269 31.7278C7.72269 30.3838 7.47202 29.0452 7.53069 27.7172C7.58402 26.4372 7.93069 25.1625 8.56536 23.8932C9.86136 21.3172 12.1547 19.0772 15.4507 17.1732C18.2027 15.5838 21.3921 14.4052 25.0187 13.6372C26.4854 13.3278 27.9787 13.0878 29.4934 12.9225C31.728 12.6825 34.0107 12.6025 36.3521 12.6825Z" fill="white"/>
<path d="M46.6399 11.0666C46.6399 11.5466 46.336 11.968 45.7173 12.32L34.8532 18.592C34.6612 18.704 34.4586 18.7999 34.2453 18.8746C33.7759 19.0399 33.2532 19.1253 32.6772 19.1253C31.8452 19.1253 31.1146 18.944 30.4959 18.5866C29.8773 18.2293 29.5681 17.8078 29.5627 17.3278C29.5627 16.9865 29.7174 16.6771 30.0267 16.3998C30.1494 16.2825 30.3041 16.1758 30.4854 16.0691L36.3521 12.6825C34.0107 12.6025 31.728 12.6825 29.4934 12.9225C27.9787 13.0878 26.4854 13.3278 25.0187 13.6372C21.3921 14.4052 18.2027 15.5838 15.4507 17.1732C12.1547 19.0772 9.86136 21.3172 8.56536 23.8932C7.93069 25.1625 7.58402 26.4372 7.53069 27.7172C7.47202 29.0452 7.72269 30.3838 8.28269 31.7278C8.36269 31.9305 8.38941 32.1279 8.37341 32.3252C8.34674 32.5919 8.22386 32.8586 8.01586 33.1093C7.65853 33.552 7.06125 33.8453 6.22392 33.9893C5.39192 34.1333 4.59728 34.1066 3.85595 33.904C3.38128 33.7813 3.01324 33.6 2.75191 33.3653C2.60258 33.232 2.48517 33.0826 2.40517 32.912C1.82917 31.5786 1.48788 30.2506 1.39188 28.9279V28.8906C1.25322 26.9546 1.63718 25.0346 2.54384 23.1146C4.06918 19.8773 6.91186 17.056 11.0772 14.6506C14.3732 12.7466 18.1545 11.3226 22.4159 10.3786C24.7145 9.86662 27.0772 9.50929 29.4932 9.30129C31.5465 9.11996 33.6479 9.05057 35.7865 9.09324L30.4265 6.00524C29.8079 5.64791 29.4985 5.22657 29.4932 4.74124C29.4932 4.26124 29.7972 3.83992 30.4159 3.48792C31.0292 3.13059 31.7545 2.95459 32.5919 2.95459C33.4292 2.95459 34.1546 3.13593 34.7733 3.49326L45.7066 9.8079C46.3253 10.1652 46.6346 10.5812 46.6399 11.0666Z" fill="white"/>
<path d="M46.6399 11.0666L46.6398 21.7332C46.6398 22.2132 46.3358 22.6346 45.7171 22.9866L39.6958 26.4639C39.5731 26.3572 39.4238 26.2506 39.2531 26.1546C38.6344 25.7972 37.909 25.6159 37.0717 25.6159C36.2397 25.6106 35.5145 25.7919 34.8958 26.1439L32.7251 27.3972L30.5384 26.1386C30.2397 25.9679 29.9145 25.8346 29.5625 25.7439L29.5627 17.3278C29.5681 17.8078 29.8773 18.2293 30.4959 18.5866C31.1146 18.944 31.8452 19.1253 32.6772 19.1253C33.2532 19.1253 33.7759 19.0399 34.2453 18.8746C34.4586 18.7999 34.6612 18.704 34.8532 18.592L45.7173 12.32C46.336 11.968 46.6399 11.5466 46.6399 11.0666Z" fill="white"/>
<path d="M35.7865 9.09324C33.6479 9.05057 31.5465 9.11996 29.4932 9.30129V4.74124C29.4985 5.22657 29.8079 5.64791 30.4265 6.00524L35.7865 9.09324Z" fill="white"/>
<path d="M8.37341 32.3252V32.1813V32.3252Z" fill="white"/>
<path d="M8.37341 32.3252L8.3733 42.7519C8.4053 43.1092 8.28786 43.4506 8.01586 43.776C7.65853 44.2186 7.06125 44.512 6.22392 44.656C5.39192 44.8 4.59729 44.7733 3.85596 44.5706C3.10929 44.3733 2.62385 44.0426 2.40518 43.5786C1.71718 41.984 1.3652 40.4052 1.35986 38.8266V38.7786L1.39188 28.9279C1.48788 30.2506 1.82917 31.5786 2.40517 32.912C2.48517 33.0826 2.60258 33.232 2.75191 33.3653C3.01324 33.6 3.38128 33.7813 3.85595 33.904C4.59728 34.1066 5.39192 34.1333 6.22392 33.9893C7.06125 33.8453 7.65853 33.552 8.01586 33.1093C8.22386 32.8586 8.34674 32.5919 8.37341 32.3252Z" fill="white"/>
<path d="M8.37341 42.848L8.3733 42.7519L8.37341 42.848Z" fill="white"/>
<path d="M40.2186 32.448C40.2186 32.528 40.2079 32.6132 40.1866 32.6879C40.1066 33.0719 39.8079 33.4079 39.2959 33.7012C38.6826 34.0586 37.9573 34.2346 37.1199 34.2346C36.2826 34.2346 35.5572 34.0532 34.9385 33.6959L32.7519 32.4319L30.5812 33.6852C29.9625 34.0426 29.2372 34.2186 28.3999 34.2186C27.5625 34.2186 26.8373 34.0372 26.2186 33.6799C25.5999 33.3226 25.2906 32.9012 25.2853 32.4212C25.2853 31.9359 25.5893 31.5199 26.2079 31.1626L28.3786 29.9092L26.1919 28.6453C25.5732 28.288 25.2639 27.8666 25.2586 27.3866C25.2586 26.9013 25.5625 26.4852 26.1812 26.1279C26.7945 25.7759 27.5199 25.5946 28.3573 25.5999C28.7839 25.5999 29.1891 25.6479 29.5625 25.7439C29.9145 25.8346 30.2397 25.9679 30.5384 26.1386L32.7251 27.3972L34.8958 26.1439C35.5145 25.7919 36.2397 25.6106 37.0717 25.6159C37.909 25.6159 38.6344 25.7972 39.2531 26.1546C39.4238 26.2506 39.5731 26.3572 39.6958 26.4639C40.0265 26.7466 40.1866 27.0612 40.1866 27.4132V27.4239C40.1866 27.8986 39.8773 28.3199 39.2692 28.6719L37.0985 29.9253L39.2852 31.184C39.7972 31.4773 40.0959 31.8186 40.1866 32.2026C40.2079 32.2826 40.2186 32.3626 40.2186 32.448Z" fill="white"/>
<path d="M28.3786 29.9092L26.2079 31.1626C25.5893 31.5199 25.2853 31.9359 25.2853 32.4212V38.2719C25.2693 38.2026 25.2586 38.128 25.2586 38.0533V27.3866C25.2639 27.8666 25.5732 28.288 26.1919 28.6453L28.3786 29.9092Z" fill="white"/>
<path d="M32.7519 32.4319L32.7521 43.0986L30.5814 44.3519C29.9627 44.7092 29.2373 44.8852 28.4 44.8852C27.5626 44.8852 26.8374 44.7039 26.2187 44.3466C25.6001 43.9892 25.2907 43.5679 25.2854 43.0879L25.2853 32.4212C25.2906 32.9012 25.5999 33.3226 26.2186 33.6799C26.8373 34.0372 27.5679 34.2186 28.3999 34.2186C29.2319 34.2186 29.9625 34.0426 30.5812 33.6852L32.7519 32.4319Z" fill="white"/>
<path d="M40.2186 32.448L40.2187 43.1146C40.2187 43.5946 39.9147 44.016 39.2961 44.368C38.6827 44.7253 37.9574 44.9013 37.12 44.9013C36.2827 44.9013 35.5573 44.72 34.9386 44.3626L32.7521 43.0986L32.7519 32.4319L34.9385 33.6959C35.5572 34.0532 36.2826 34.2346 37.1199 34.2346C37.9573 34.2346 38.6826 34.0586 39.2959 33.7012C39.8079 33.4079 40.1066 33.0719 40.1866 32.6879C40.2079 32.6132 40.2186 32.528 40.2186 32.448Z" fill="white"/>
<path d="M40.1866 27.4239V32.2026C40.0959 31.8186 39.7972 31.4773 39.2852 31.184L37.0985 29.9253L39.2692 28.6719C39.8773 28.3199 40.1866 27.8986 40.1866 27.4239Z" fill="white"/>
<path d="M29.5627 17.3278C29.5627 16.9865 29.7174 16.6771 30.0267 16.3998C30.1494 16.2825 30.3041 16.1758 30.4854 16.0691L36.3521 12.6825C34.0107 12.6025 31.728 12.6825 29.4934 12.9225C27.9787 13.0878 26.4854 13.3278 25.0187 13.6372C21.3921 14.4052 18.2027 15.5838 15.4507 17.1732C12.1547 19.0772 9.86136 21.3172 8.56536 23.8932C7.93069 25.1625 7.58402 26.4372 7.53069 27.7172C7.47202 29.0452 7.72269 30.3838 8.28269 31.7278C8.36269 31.9305 8.38941 32.1279 8.37341 32.3252M29.5627 17.3278V23.5838C28.0214 23.7492 26.5067 23.9892 25.0187 24.3039C21.3921 25.0719 18.2027 26.2505 15.4507 27.8399C12.1547 29.7439 9.86136 31.9839 8.56536 34.5599C8.49602 34.6985 8.43208 34.8319 8.37341 34.9705V32.3252M29.5627 17.3278C29.5681 17.8078 29.8773 18.2293 30.4959 18.5866C31.1146 18.944 31.8452 19.1253 32.6772 19.1253C33.2532 19.1253 33.7759 19.0399 34.2453 18.8746C34.4586 18.7999 34.6612 18.704 34.8532 18.592L45.7173 12.32C46.336 11.968 46.6399 11.5466 46.6399 11.0666M29.5627 17.3278L29.5625 25.7439M8.37341 32.3252C8.34674 32.5919 8.22386 32.8586 8.01586 33.1093C7.65853 33.552 7.06125 33.8453 6.22392 33.9893C5.39192 34.1333 4.59728 34.1066 3.85595 33.904C3.38128 33.7813 3.01324 33.6 2.75191 33.3653C2.60258 33.232 2.48517 33.0826 2.40517 32.912C1.82917 31.5786 1.48788 30.2506 1.39188 28.9279M8.37341 32.3252V32.1813M8.37341 32.3252L8.3733 42.7519M46.6399 11.0666C46.6346 10.5812 46.3253 10.1652 45.7066 9.8079L34.7733 3.49326C34.1546 3.13593 33.4292 2.95459 32.5919 2.95459C31.7545 2.95459 31.0292 3.13059 30.4159 3.48792C29.7972 3.83992 29.4932 4.26124 29.4932 4.74124M46.6399 11.0666L46.6398 21.7332C46.6398 22.2132 46.3358 22.6346 45.7171 22.9866L39.6958 26.4639M1.39188 28.9279V28.8906C1.25322 26.9546 1.63718 25.0346 2.54384 23.1146C4.06918 19.8773 6.91186 17.056 11.0772 14.6506C14.3732 12.7466 18.1545 11.3226 22.4159 10.3786C24.7145 9.86662 27.0772 9.50929 29.4932 9.30129M1.39188 28.9279L1.35986 38.7786V38.8266C1.3652 40.4052 1.71718 41.984 2.40518 43.5786C2.62385 44.0426 3.10929 44.3733 3.85596 44.5706C4.59729 44.7733 5.39192 44.8 6.22392 44.656C7.06125 44.512 7.65853 44.2186 8.01586 43.776C8.28786 43.4506 8.4053 43.1092 8.3733 42.7519M29.4932 9.30129C31.5465 9.11996 33.6479 9.05057 35.7865 9.09324L30.4265 6.00524C29.8079 5.64791 29.4985 5.22657 29.4932 4.74124M29.4932 9.30129V4.74124M39.6958 26.4639C39.5731 26.3572 39.4238 26.2506 39.2531 26.1546C38.6344 25.7972 37.909 25.6159 37.0717 25.6159C36.2397 25.6106 35.5145 25.7919 34.8958 26.1439L32.7251 27.3972L30.5384 26.1386C30.2397 25.9679 29.9145 25.8346 29.5625 25.7439M39.6958 26.4639C40.0265 26.7466 40.1866 27.0612 40.1866 27.4132V27.4239M29.5625 25.7439C29.1891 25.6479 28.7839 25.5999 28.3573 25.5999C27.5199 25.5946 26.7945 25.7759 26.1812 26.1279C25.5625 26.4852 25.2586 26.9013 25.2586 27.3866M8.3733 42.7519L8.37341 42.848M40.2186 32.448C40.2186 32.528 40.2079 32.6132 40.1866 32.6879C40.1066 33.0719 39.8079 33.4079 39.2959 33.7012C38.6826 34.0586 37.9573 34.2346 37.1199 34.2346C36.2826 34.2346 35.5572 34.0532 34.9385 33.6959L32.7519 32.4319M40.2186 32.448C40.2186 32.3626 40.2079 32.2826 40.1866 32.2026M40.2186 32.448L40.2187 43.1146C40.2187 43.5946 39.9147 44.016 39.2961 44.368C38.6827 44.7253 37.9574 44.9013 37.12 44.9013C36.2827 44.9013 35.5573 44.72 34.9386 44.3626L32.7521 43.0986M32.7519 32.4319L30.5812 33.6852M32.7519 32.4319L32.7521 43.0986M30.5812 33.6852C29.9625 34.0426 29.2372 34.2186 28.3999 34.2186M30.5812 33.6852C29.9625 34.0426 29.2319 34.2186 28.3999 34.2186M28.3999 34.2186C27.5625 34.2186 26.8373 34.0372 26.2186 33.6799M28.3999 34.2186C27.5679 34.2186 26.8373 34.0372 26.2186 33.6799M26.2186 33.6799C25.5999 33.3226 25.2906 32.9012 25.2853 32.4212M25.2853 32.4212C25.2853 31.9359 25.5893 31.5199 26.2079 31.1626L28.3786 29.9092L26.1919 28.6453C25.5733 28.288 25.2639 27.8666 25.2586 27.3866M25.2853 32.4212V38.2719C25.2693 38.2026 25.2586 38.128 25.2586 38.0533V27.3866M25.2853 32.4212L25.2854 43.0879C25.2907 43.5679 25.6001 43.9892 26.2187 44.3466C26.8374 44.7039 27.5626 44.8852 28.4 44.8852C29.2373 44.8852 29.9627 44.7092 30.5814 44.3519L32.7521 43.0986M40.1866 27.4239C40.1866 27.8986 39.8772 28.3199 39.2692 28.6719L37.0985 29.9253L39.2852 31.184C39.7972 31.4773 40.0959 31.8186 40.1866 32.2026M40.1866 27.4239V32.2026" stroke="#27272A" stroke-opacity="0.25" stroke-linecap="round" stroke-linejoin="round"/>
      </svg>