<svg xmlns="http://www.w3.org/2000/svg" viewBox="0 0 48 48">
        <path d="M32.4386 36.7866L32.4858 36.8166C32.4944 36.7951 32.5029 36.7738 32.5072 36.7523L32.4386 36.7866ZM34.2986 32.5138C34.4186 32.4838 34.5215 32.4323 34.6115 32.3595L34.2986 32.5138Z" fill="white"/>
<path d="M10.5557 28.5152C10.4057 28.8238 10.2986 29.1624 10.2343 29.5309C10.17 29.8995 10.1357 30.3024 10.1357 30.7481V31.6695C10.1357 32.0895 10.0115 32.3681 9.76722 32.5095C9.51865 32.6509 9.21432 32.6166 8.85003 32.4024L5.63148 30.5466C5.26719 30.3366 4.96292 30.0195 4.71435 29.5909C4.46578 29.1667 4.34576 28.7467 4.34576 28.3267V27.4781C4.34576 26.7153 4.59006 26.1924 5.08292 25.9095C5.57578 25.6309 6.25291 25.601 7.11005 25.8238C7.66718 25.9524 8.17293 26.1324 8.62293 26.3681C9.07293 26.6038 9.55722 26.8952 10.0715 27.2381C10.2858 27.3881 10.44 27.5938 10.5386 27.8596C10.6329 28.1253 10.6415 28.3438 10.5557 28.5152Z" fill="white"/>
<path d="M12.0686 23.9251C12.0686 24.7351 11.8201 25.288 11.3272 25.5837C10.8344 25.8751 10.2215 25.8109 9.49289 25.3909C9.0386 25.1294 8.62718 24.7737 8.2586 24.3237C8.0486 24.0709 7.85579 23.7879 7.67579 23.4751C7.17006 22.6051 6.91719 21.7651 6.91719 20.9508C6.91719 20.1365 7.17006 19.558 7.67579 19.2837C8.17722 19.0094 8.78575 19.0737 9.49289 19.4851C10.2215 19.9051 10.8344 20.5394 11.3272 21.3922C11.5501 21.7737 11.7215 22.1551 11.8415 22.5322C11.9915 22.9994 12.0686 23.4622 12.0686 23.9251Z" fill="white"/>
<path d="M35.2329 29.3252C35.2329 29.7923 35.2072 30.238 35.1515 30.6623C35.1 31.0866 35.0186 31.4895 34.9115 31.8709C34.8515 32.0723 34.7615 32.2266 34.6372 32.3338C34.6286 32.3466 34.62 32.3509 34.6115 32.3595L34.2986 32.5138C33.9986 32.5866 33.6686 32.458 33.3043 32.1237C32.9615 31.828 32.6958 31.4552 32.5158 31.0052C32.3315 30.5552 32.2929 30.1609 32.4001 29.8309C32.4129 29.788 32.4258 29.7452 32.4301 29.7023C32.4944 29.4838 32.5415 29.2566 32.5715 29.0209C32.5801 28.978 32.5886 28.9309 32.5929 28.888C32.6401 28.558 32.6615 28.2066 32.6615 27.838C32.6615 26.7452 32.4686 25.6352 32.0872 24.5123C31.8044 23.6938 31.4229 22.8623 30.9386 22.0266C29.7901 20.0466 28.3886 18.5809 26.7386 17.6252C26.1386 17.278 25.5686 17.0466 25.0243 16.9309C24.9129 16.9009 24.8057 16.8837 24.6986 16.8709H24.6944C24.2872 16.8109 23.8972 16.8195 23.52 16.8966C23.34 16.9309 23.1686 16.9738 22.9972 17.0252C22.2386 17.2395 21.5444 17.5866 20.9144 18.0666C20.7644 18.1866 20.5972 18.2466 20.4086 18.2423C20.2201 18.238 20.0144 18.1737 19.7872 18.0452C19.3372 17.7837 18.9644 17.3595 18.6644 16.768C18.3558 16.1723 18.0343 15.5852 17.6872 15.0152C17.19 14.1795 16.6501 13.3737 16.0715 12.5937C15.9129 12.3794 15.7501 12.1695 15.5829 11.9723C14.8372 11.0766 14.0358 10.3566 13.1744 9.80799C13.0629 9.73514 12.9515 9.66661 12.84 9.60232C11.1857 8.64661 9.78865 8.49661 8.64008 9.15232C7.49149 9.80804 6.91719 11.0808 6.91719 12.9751C6.91719 13.3437 6.93863 13.7209 6.98149 14.1023C7.02434 14.4837 7.08863 14.8737 7.17435 15.268C7.26006 15.6837 7.21292 16.0094 7.03292 16.2366C6.9772 16.3094 6.90862 16.3609 6.83576 16.4037L6.81863 16.4123C6.66863 16.4937 6.48434 16.5023 6.27434 16.4466C5.91005 16.3566 5.57578 16.1166 5.27578 15.7223C4.97578 15.328 4.77434 14.8866 4.66719 14.4066C4.56005 13.9052 4.47862 13.408 4.4229 12.9194C4.37147 12.4351 4.34576 11.9595 4.34576 11.488C4.34576 8.78375 5.16863 6.95804 6.82292 6.01518L7.25149 5.80089C8.81579 5.11518 10.68 5.40236 12.84 6.64522C12.87 6.66236 12.8958 6.67946 12.9258 6.69661C13.8086 7.21518 14.6615 7.85799 15.4886 8.62942C15.9 9.00228 16.3029 9.41375 16.7015 9.85518C17.9229 11.2137 18.9515 12.7137 19.7872 14.3509C20.0529 14.1366 20.3358 13.9609 20.6401 13.8238C21.2958 13.5195 22.0415 13.3866 22.8772 13.4209C24.0986 13.4766 25.3886 13.8923 26.7386 14.6723C26.8843 14.758 27.0344 14.8437 27.1758 14.938C29.3486 16.3009 31.2086 18.3195 32.7558 20.9895C34.0844 23.2823 34.8815 25.5323 35.1386 27.7352C35.2029 28.2666 35.2329 28.798 35.2329 29.3252Z" fill="white"/>
<path d="M34.6115 32.3595C34.62 32.3509 34.6372 32.3338 34.6372 32.3338C34.6457 32.338 34.6457 32.3422 34.6457 32.3422L34.6115 32.3595ZM34.2986 32.5138C34.4186 32.4838 34.5215 32.4323 34.6115 32.3595L34.2986 32.5138ZM32.4386 36.7866L32.4858 36.8166C32.4944 36.7951 32.5029 36.7738 32.5072 36.7523L32.4386 36.7866Z" fill="white"/>
<path d="M43.8044 41.0252V41.8737C43.8044 42.2937 43.6801 42.5723 43.4358 42.7137L34.8644 46.9996C35.1087 46.8582 35.233 46.5796 35.233 46.1596V45.3111C35.233 44.5482 34.9887 43.7425 34.4915 42.8896C33.9987 42.0409 33.3258 41.2309 32.4644 40.4637C32.323 40.3309 32.1815 40.2066 32.0487 40.0866C31.6544 39.748 31.2901 39.4695 30.9558 39.2595C30.5015 38.9723 30.0215 38.7066 29.5073 38.458C29.293 38.3595 29.1344 38.3895 29.0401 38.5395C28.9415 38.6937 28.9373 38.908 29.023 39.178C29.173 39.658 29.2801 40.1208 29.3444 40.5623C29.383 40.8409 29.413 41.1195 29.4301 41.398L27.1415 42.5423C27.3858 42.4008 27.5101 42.1223 27.5101 41.7023V40.7808C27.5101 39.178 26.803 37.4766 25.3887 35.6766C23.9701 33.8723 22.1058 32.3037 19.7873 30.9666C18.3773 30.1523 17.1344 29.6208 16.0544 29.368H16.0501C15.3687 29.2094 14.7601 29.158 14.2073 29.2223C13.8644 29.2609 13.5601 29.3423 13.2987 29.4666L16.7615 27.7352L17.3358 27.4523C17.5373 27.7566 17.7473 28.0438 17.9701 28.3052C17.9873 28.3309 18.0087 28.3523 18.0344 28.378C18.5573 28.9952 19.1444 29.488 19.7873 29.8609C20.4301 30.2295 21.0087 30.418 21.5273 30.4223C21.8958 30.4266 22.2344 30.3366 22.5387 30.1566L28.873 26.9895C30.0387 27.6966 31.0844 28.468 32.0058 29.3038L28.2687 31.1723C27.763 31.4466 27.5101 32.0038 27.5101 32.8395C27.5101 33.2338 27.5701 33.6366 27.6901 34.048C27.8144 34.4766 28.0073 34.918 28.2687 35.3637C28.7701 36.2337 29.3787 36.8723 30.0858 37.2795C30.3473 37.4295 30.5915 37.5366 30.823 37.5966C31.2387 37.7038 31.603 37.6609 31.9201 37.4723L32.833 37.018L35.983 35.4409L37.5473 34.6609L38.3015 34.2837C38.7344 34.498 39.1373 34.7295 39.5273 34.9737C39.9773 35.2566 40.4787 35.6595 41.0358 36.178C41.8973 36.9452 42.5701 37.7552 43.063 38.6037C43.5601 39.4566 43.8044 40.2623 43.8044 41.0252Z" fill="white"/>
<path d="M20.58 18.9323L17.2458 20.5994L17.0529 20.6937C16.6629 20.908 16.3758 21.238 16.1915 21.6794C16.0115 22.0909 15.9258 22.5965 15.9258 23.2008V23.2823L13.0286 24.7351L11.3272 25.5837C11.8201 25.288 12.0686 24.7351 12.0686 23.9251C12.0686 23.4622 11.9915 22.9994 11.8415 22.5322C11.7215 22.1551 11.5501 21.7737 11.3272 21.3922C10.8344 20.5394 10.2215 19.9051 9.49289 19.4851C8.78575 19.0737 8.17722 19.0094 7.67579 19.2837L16.2472 14.998C16.6586 14.7752 17.1386 14.7752 17.6872 15.0152C18.0343 15.5852 18.3558 16.1723 18.6644 16.768C18.9644 17.3595 19.3372 17.7837 19.7872 18.0452C20.0144 18.1737 20.2201 18.238 20.4086 18.2423C20.4858 18.4737 20.5457 18.7009 20.58 18.9323Z" fill="white"/>
<path d="M32.0872 24.5123C31.9201 25.1338 31.5943 25.588 31.11 25.8708L28.873 26.9895L22.5387 30.1566C23.2801 29.7195 23.6486 28.888 23.6486 27.658C23.6486 26.7494 23.4557 25.8365 23.0657 24.9151C22.92 24.5637 22.74 24.2122 22.5386 23.8608C21.8657 22.6951 21.0429 21.7994 20.07 21.1737C19.98 21.1094 19.8815 21.0537 19.7872 20.998C18.8444 20.4494 18.0258 20.308 17.3315 20.5651C17.3315 20.5651 17.3286 20.5651 17.3229 20.5651L24.6944 16.8751H24.6986C24.8057 16.888 24.9129 16.9051 25.0243 16.9351C25.5686 17.0508 26.1386 17.2822 26.7386 17.6294C28.3886 18.5851 29.7901 20.0508 30.9386 22.0308C31.4229 22.8665 31.8044 23.698 32.0872 24.5166L32.0872 24.5123Z" fill="white"/>
<path d="M15.5829 11.9723C15.5186 12.0495 15.4415 12.1051 15.3558 12.1437L6.83576 16.4037C6.90862 16.3609 6.9772 16.3094 7.03292 16.2366C7.21292 16.0094 7.26006 15.6837 7.17435 15.268C7.08863 14.8737 7.02434 14.4837 6.98149 14.1023C6.93863 13.7209 6.91719 13.3437 6.91719 12.9751C6.91719 11.0808 7.49149 9.80804 8.64008 9.15232C9.78865 8.49661 11.1857 8.64661 12.84 9.60232C12.9515 9.66661 13.0629 9.73514 13.1744 9.80799C14.0358 10.3566 14.8372 11.0766 15.5829 11.9723Z" fill="white"/>
<path d="M28.3157 9.98366L20.6401 13.8238C20.3358 13.9609 20.0529 14.1366 19.7872 14.3509C18.9515 12.7137 17.9229 11.2137 16.7015 9.85518C16.3029 9.41375 15.9 9.00228 15.4886 8.62942C14.6615 7.85799 13.8086 7.21518 12.9258 6.69661C12.8958 6.67946 12.87 6.66236 12.84 6.64522C10.68 5.40236 8.81579 5.11518 7.25149 5.80089L15.3944 1.72939C17.0444 0.786534 19.05 1.00086 21.4115 2.35943C22.7615 3.13943 24.0472 4.21086 25.2729 5.56942C26.4729 6.90656 27.4886 8.37652 28.3157 9.98366Z" fill="white"/>
<path d="M35.233 45.3111V46.1596C35.233 46.5796 35.1087 46.8582 34.8644 46.9996C34.6158 47.1411 34.3115 47.1063 33.9472 46.8921L30.7286 45.0364C30.3644 44.8264 30.0601 44.5092 29.8115 44.0806C29.5672 43.6563 29.4429 43.2364 29.4429 42.8165V41.8951C29.4429 41.728 29.4387 41.5652 29.4301 41.398C29.413 41.1195 29.383 40.8409 29.3444 40.5623C29.2801 40.1208 29.173 39.658 29.023 39.178C28.9373 38.908 28.9415 38.6937 29.0401 38.5395C29.1344 38.3895 29.293 38.3595 29.5073 38.458C30.0215 38.7066 30.5015 38.9723 30.9558 39.2595C31.2901 39.4695 31.6544 39.748 32.0487 40.0866C32.1815 40.2066 32.323 40.3309 32.4644 40.4637C33.3258 41.2309 33.9987 42.0409 34.4915 42.8896C34.9887 43.7425 35.233 44.5482 35.233 45.3111Z" fill="white"/>
<path d="M30.823 37.5966L29.1558 38.428L30.823 37.5966Z" fill="white"/>
<path d="M17.3358 27.4523L16.7615 27.7352L13.2987 29.4666L13.2086 29.5094C12.5657 29.848 12.1972 30.4608 12.0986 31.3437L9.76722 32.5095C10.0115 32.3681 10.1357 32.0895 10.1357 31.6695V30.7481C10.1357 30.3024 10.17 29.8995 10.2343 29.5309C10.2986 29.1624 10.4057 28.8238 10.5557 28.5152C10.6415 28.3438 10.6329 28.1253 10.5386 27.8596C10.44 27.5938 10.2858 27.3881 10.0715 27.2381C9.55722 26.8952 9.07293 26.6038 8.62293 26.3681C8.17293 26.1324 7.66718 25.9524 7.11005 25.8238C6.25291 25.601 5.57578 25.6309 5.08292 25.9095L8.2586 24.3237C8.62718 24.7737 9.0386 25.1294 9.49289 25.3909C10.2215 25.8109 10.8344 25.8751 11.3272 25.5837L13.0286 24.7351L15.9258 23.2823C15.9429 24.4866 16.32 25.7208 17.0529 26.9894C17.1429 27.148 17.2415 27.3023 17.3358 27.4523Z" fill="white"/>
<path d="M27.5101 40.7808V41.7023C27.5101 42.1223 27.3858 42.4008 27.1415 42.5423C26.893 42.6794 26.5886 42.6451 26.2244 42.4351L13.3544 35.0037C12.9901 34.7937 12.6815 34.4766 12.4372 34.0523C12.1886 33.6237 12.0686 33.2038 12.0686 32.7838V31.8623C12.0686 31.678 12.0772 31.5065 12.0986 31.3437C12.1972 30.4608 12.5657 29.848 13.2086 29.5094L13.2987 29.4666C13.5601 29.3423 13.8644 29.2609 14.2073 29.2223C14.7601 29.158 15.3687 29.2094 16.0501 29.368H16.0544C17.1344 29.6208 18.3773 30.1523 19.7873 30.9666C22.1058 32.3037 23.9701 33.8723 25.3887 35.6766C26.803 37.4766 27.5101 39.178 27.5101 40.7808Z" fill="white"/>
<path d="M23.6486 27.658C23.6486 28.888 23.2801 29.7195 22.5387 30.1566C22.2344 30.3366 21.8958 30.4266 21.5273 30.4223C21.0087 30.4223 20.4301 30.2295 19.7873 29.8609C19.1444 29.488 18.5573 28.9952 18.0344 28.378C18.0087 28.3523 17.9873 28.3309 17.9701 28.3052C17.7473 28.0438 17.5373 27.7566 17.3358 27.4523C17.2415 27.3023 17.1429 27.148 17.0529 26.9894C16.32 25.7208 15.9429 24.4866 15.9258 23.2823V23.2008C15.9258 22.5965 16.0115 22.0909 16.1915 21.6794C16.3758 21.238 16.6629 20.908 17.0529 20.6937L17.2458 20.5994C17.2758 20.5866 17.3015 20.578 17.3315 20.5651C18.0258 20.308 18.8444 20.4494 19.7872 20.998C19.8815 21.0537 19.98 21.1094 20.07 21.1737C21.0429 21.7994 21.8657 22.6951 22.5386 23.8608C22.74 24.2122 22.92 24.5637 23.0657 24.9151C23.4557 25.8365 23.6486 26.7494 23.6486 27.658Z" fill="white"/>
<path d="M43.8043 25.0394C43.8043 25.5065 43.7786 25.9522 43.7229 26.3765C43.6715 26.8008 43.59 27.2037 43.4829 27.5851C43.3757 27.9408 43.1701 28.1551 42.8701 28.228L40.6672 29.3294L36.9172 31.2065L34.6457 32.3422C34.6457 32.3422 34.6457 32.338 34.6372 32.3338C34.7615 32.2266 34.8515 32.0723 34.9115 31.8709C35.0186 31.4895 35.1 31.0866 35.1515 30.6623C35.2072 30.238 35.2329 29.7923 35.2329 29.3252C35.2329 28.798 35.2029 28.2666 35.1386 27.7352C34.8815 25.5323 34.0844 23.2823 32.7558 20.9895C31.2086 18.3195 29.3486 16.3009 27.1758 14.938C27.0344 14.8437 26.8843 14.758 26.7386 14.6723C25.3886 13.8923 24.0986 13.4766 22.8772 13.4209C22.0415 13.3866 21.2958 13.5195 20.6401 13.8238L28.3157 9.98366L28.9758 9.65362L29.0657 9.60652L29.2329 9.52509C29.88 9.22938 30.6215 9.10081 31.4486 9.13509C32.67 9.19081 33.96 9.60652 35.31 10.3865C37.6715 11.7494 39.6772 13.8537 41.3272 16.7037C42.9772 19.5537 43.8043 22.3308 43.8043 25.0394Z" fill="white"/>
<path d="M32.5072 36.7523L32.4386 36.7866L32.4858 36.8166C32.3615 37.1037 32.173 37.3223 31.9201 37.4723C31.603 37.6609 31.2387 37.7038 30.823 37.5966C30.5915 37.5366 30.3473 37.4295 30.0858 37.2795C29.3787 36.8723 28.7701 36.2337 28.2687 35.3637C28.0073 34.918 27.8144 34.4766 27.6901 34.048C27.5701 33.6366 27.5101 33.2338 27.5101 32.8395C27.5101 32.0038 27.763 31.4466 28.2687 31.1723C28.7701 30.898 29.3786 30.9622 30.0857 31.3737C30.8143 31.7937 31.4272 32.4322 31.9201 33.2808C32.4129 34.1337 32.6615 34.978 32.6615 35.8137C32.6615 36.178 32.6101 36.4952 32.5072 36.7523Z" fill="white"/>
<path d="M41.2329 31.5279C41.2329 32.3379 40.9844 32.8908 40.4915 33.1865L38.3015 34.2837L37.5473 34.6609L35.983 35.4409L32.833 37.018L31.9201 37.4723C32.173 37.3223 32.3615 37.1037 32.4858 36.8166C32.4944 36.7951 32.5029 36.7738 32.5072 36.7523C32.6101 36.4952 32.6615 36.178 32.6615 35.8137C32.6615 34.978 32.4129 34.1337 31.9201 33.2808C31.4272 32.4322 30.8143 31.7937 30.0857 31.3737C29.3786 30.9622 28.7701 30.898 28.2687 31.1723L32.0058 29.3038L32.5715 29.0209C32.5415 29.2566 32.4944 29.4838 32.4301 29.7023C32.4258 29.7452 32.4129 29.788 32.4001 29.8309C32.2929 30.1609 32.3315 30.5552 32.5158 31.0052C32.6958 31.4552 32.9615 31.828 33.3043 32.1237C33.6686 32.458 33.9986 32.5866 34.2986 32.5138C34.4186 32.4838 34.5215 32.4323 34.6115 32.3595L36.9172 31.2065L40.6672 29.3294C41.0443 30.0665 41.2329 30.7993 41.2329 31.5279Z" fill="white"/>
<path d="M22.9972 17.0252L20.9144 18.0666L22.9972 17.0252Z" fill="white"/>
<path d="M32.4858 36.8166L32.4386 36.7866L32.5072 36.7523M32.4858 36.8166C32.4944 36.7951 32.5029 36.7738 32.5072 36.7523M32.4858 36.8166C32.3615 37.1037 32.173 37.3223 31.9201 37.4723M32.5072 36.7523C32.6101 36.4952 32.6615 36.178 32.6615 35.8137C32.6615 34.978 32.4129 34.1337 31.9201 33.2808C31.4272 32.4322 30.8143 31.7937 30.0857 31.3737C29.3786 30.9622 28.7701 30.898 28.2687 31.1723M34.2986 32.5138C34.4186 32.4838 34.5215 32.4323 34.6115 32.3595M34.2986 32.5138L34.6115 32.3595M34.2986 32.5138C33.9986 32.5866 33.6686 32.458 33.3043 32.1237C32.9615 31.828 32.6958 31.4552 32.5158 31.0052C32.3315 30.5552 32.2929 30.1609 32.4001 29.8309C32.4129 29.788 32.4258 29.7452 32.4301 29.7023C32.4944 29.4838 32.5415 29.2566 32.5715 29.0209M34.6115 32.3595C34.62 32.3509 34.6286 32.3466 34.6372 32.3338M34.6115 32.3595C34.62 32.3509 34.6372 32.3338 34.6372 32.3338M34.6115 32.3595L34.6457 32.3422M34.6115 32.3595L36.9172 31.2065M9.76722 32.5095C10.0115 32.3681 10.1357 32.0895 10.1357 31.6695V30.7481C10.1357 30.3024 10.17 29.8995 10.2343 29.5309C10.2986 29.1624 10.4057 28.8238 10.5557 28.5152C10.6415 28.3438 10.6329 28.1253 10.5386 27.8596C10.44 27.5938 10.2858 27.3881 10.0715 27.2381C9.55722 26.8952 9.07293 26.6038 8.62293 26.3681C8.17293 26.1324 7.66718 25.9524 7.11005 25.8238C6.25291 25.601 5.57578 25.6309 5.08292 25.9095M9.76722 32.5095C9.51865 32.6509 9.21432 32.6166 8.85003 32.4024L5.63148 30.5466C5.26719 30.3366 4.96292 30.0195 4.71435 29.5909C4.46578 29.1667 4.34576 28.7467 4.34576 28.3267V27.4781C4.34576 26.7153 4.59006 26.1924 5.08292 25.9095M9.76722 32.5095L12.0986 31.3437M5.08292 25.9095L8.2586 24.3237M11.3272 25.5837C11.8201 25.2879 12.0686 24.7351 12.0686 23.9251C12.0686 23.4622 11.9915 22.9994 11.8415 22.5322C11.7215 22.1551 11.5501 21.7737 11.3272 21.3922C10.8344 20.5394 10.2215 19.9051 9.49289 19.4851C8.78575 19.0737 8.17722 19.0094 7.67579 19.2837M11.3272 25.5837C10.8344 25.8751 10.2215 25.8109 9.49289 25.3909C9.0386 25.1294 8.62718 24.7737 8.2586 24.3237M11.3272 25.5837L13.0286 24.7351L15.9258 23.2823M8.2586 24.3237C8.0486 24.0709 7.85579 23.7879 7.67579 23.4751C7.17006 22.6051 6.91719 21.7651 6.91719 20.9508C6.91719 20.1365 7.17006 19.558 7.67579 19.2837M7.67579 19.2837L16.2472 14.998C16.6586 14.7752 17.1386 14.7752 17.6872 15.0152M34.6372 32.3338C34.7615 32.2266 34.8515 32.0723 34.9115 31.8709C35.0186 31.4895 35.1 31.0866 35.1515 30.6623C35.2072 30.238 35.2329 29.7923 35.2329 29.3252C35.2329 28.798 35.2029 28.2666 35.1386 27.7352C34.8815 25.5323 34.0844 23.2823 32.7558 20.9895C31.2086 18.3195 29.3486 16.3009 27.1758 14.938C27.0344 14.8437 26.8843 14.758 26.7386 14.6723C25.3886 13.8923 24.0986 13.4766 22.8772 13.4209C22.0415 13.3866 21.2958 13.5195 20.6401 13.8238M34.6372 32.3338C34.6457 32.338 34.6457 32.3422 34.6457 32.3422M32.5715 29.0209C32.5801 28.978 32.5886 28.9309 32.5929 28.888C32.6401 28.558 32.6615 28.2066 32.6615 27.838C32.6615 26.7452 32.4686 25.6352 32.0872 24.5123M32.5715 29.0209L32.0058 29.3038M32.0872 24.5123C31.8044 23.6938 31.4229 22.8623 30.9386 22.0266C29.7901 20.0466 28.3886 18.5809 26.7386 17.6252C26.1386 17.278 25.5686 17.0466 25.0243 16.9309C24.9129 16.9009 24.8057 16.8837 24.6986 16.8709H24.6944C24.2872 16.8109 23.8972 16.8195 23.52 16.8966C23.34 16.9309 23.1686 16.9738 22.9972 17.0252M32.0872 24.5123C31.9201 25.1338 31.5943 25.588 31.11 25.8708L28.873 26.9895M32.0872 24.5123L32.0872 24.5166C31.8044 23.698 31.4229 22.8665 30.9386 22.0308C29.7901 20.0508 28.3886 18.5851 26.7386 17.6294C26.1386 17.2822 25.5686 17.0508 25.0243 16.9351C24.9129 16.9051 24.8057 16.888 24.6986 16.8751H24.6944L17.3229 20.5651C17.3286 20.5651 17.3315 20.5651 17.3315 20.5651M22.9972 17.0252C22.2386 17.2395 21.5444 17.5866 20.9144 18.0666M22.9972 17.0252L20.9144 18.0666M20.9144 18.0666C20.7644 18.1866 20.5972 18.2466 20.4086 18.2423M20.4086 18.2423C20.2201 18.238 20.0144 18.1737 19.7872 18.0452C19.3372 17.7837 18.9644 17.3595 18.6644 16.768C18.3558 16.1723 18.0343 15.5852 17.6872 15.0152M20.4086 18.2423C20.4858 18.4737 20.5457 18.7009 20.58 18.9323L17.2458 20.5994M17.6872 15.0152C17.19 14.1795 16.6501 13.3737 16.0715 12.5937C15.9129 12.3794 15.7501 12.1695 15.5829 11.9723M15.5829 11.9723C14.8372 11.0766 14.0358 10.3566 13.1744 9.80799C13.0629 9.73514 12.9515 9.66661 12.84 9.60232C11.1857 8.64661 9.78865 8.49661 8.64008 9.15232C7.49149 9.80804 6.91719 11.0808 6.91719 12.9751C6.91719 13.3437 6.93863 13.7209 6.98149 14.1023C7.02434 14.4837 7.08863 14.8737 7.17435 15.268C7.26006 15.6837 7.21292 16.0094 7.03292 16.2366C6.9772 16.3094 6.90862 16.3609 6.83576 16.4037M15.5829 11.9723C15.5186 12.0495 15.4415 12.1051 15.3558 12.1437L6.83576 16.4037M6.83576 16.4037L6.81863 16.4123C6.66863 16.4937 6.48434 16.5023 6.27434 16.4466C5.91005 16.3566 5.57578 16.1166 5.27578 15.7223C4.97578 15.328 4.77434 14.8866 4.66719 14.4066C4.56005 13.9052 4.47862 13.408 4.4229 12.9194C4.37147 12.4351 4.34576 11.9595 4.34576 11.488C4.34576 8.78375 5.16863 6.95804 6.82292 6.01518L7.25149 5.80089M7.25149 5.80089C8.81579 5.11518 10.68 5.40236 12.84 6.64522C12.87 6.66236 12.8958 6.67946 12.9258 6.69661C13.8086 7.21518 14.6615 7.85799 15.4886 8.62942C15.9 9.00228 16.3029 9.41375 16.7015 9.85518C17.9229 11.2137 18.9515 12.7137 19.7872 14.3509C20.0529 14.1366 20.3358 13.9609 20.6401 13.8238M7.25149 5.80089L15.3944 1.72939C17.0444 0.786534 19.05 1.00086 21.4115 2.35943C22.7615 3.13943 24.0472 4.21086 25.2729 5.56942C26.4729 6.90656 27.4886 8.37652 28.3157 9.98366M20.6401 13.8238L28.3157 9.98366M34.6457 32.3422L36.9172 31.2065M34.8644 46.9996C35.1087 46.8582 35.233 46.5796 35.233 46.1596V45.3111C35.233 44.5482 34.9887 43.7425 34.4915 42.8896C33.9987 42.0409 33.3258 41.2309 32.4644 40.4637C32.323 40.3309 32.1815 40.2066 32.0487 40.0866C31.6544 39.748 31.2901 39.4695 30.9558 39.2595C30.5015 38.9723 30.0215 38.7066 29.5073 38.458C29.293 38.3595 29.1344 38.3895 29.0401 38.5395C28.9415 38.6937 28.9373 38.908 29.023 39.178C29.173 39.658 29.2801 40.1209 29.3444 40.5623C29.383 40.8409 29.413 41.1195 29.4301 41.398M34.8644 46.9996C34.6158 47.1411 34.3115 47.1063 33.9472 46.8921L30.7286 45.0364C30.3644 44.8264 30.0601 44.5092 29.8115 44.0806C29.5672 43.6563 29.4429 43.2363 29.4429 42.8165V41.8951C29.4429 41.728 29.4387 41.5652 29.4301 41.398M34.8644 46.9996L43.4358 42.7137C43.6801 42.5723 43.8044 42.2937 43.8044 41.8737V41.0252C43.8044 40.2623 43.5601 39.4566 43.063 38.6037C42.5701 37.7552 41.8973 36.9452 41.0358 36.178C40.4787 35.6595 39.9773 35.2566 39.5273 34.9737C39.1373 34.7295 38.7344 34.498 38.3015 34.2837M29.4301 41.398L27.1415 42.5423M27.1415 42.5423C27.3858 42.4008 27.5101 42.1223 27.5101 41.7023V40.7808C27.5101 39.178 26.803 37.4766 25.3887 35.6766C23.9701 33.8723 22.1058 32.3037 19.7873 30.9666C18.3773 30.1523 17.1344 29.6208 16.0544 29.368H16.0501C15.3687 29.2094 14.7601 29.158 14.2073 29.2223C13.8644 29.2609 13.5601 29.3423 13.2987 29.4666M27.1415 42.5423C26.893 42.6794 26.5886 42.6451 26.2244 42.4351L13.3544 35.0037C12.9901 34.7937 12.6815 34.4766 12.4372 34.0523C12.1886 33.6237 12.0686 33.2038 12.0686 32.7838V31.8623C12.0686 31.678 12.0772 31.5065 12.0986 31.3437M13.2987 29.4666L16.7615 27.7352L17.3358 27.4523M13.2987 29.4666L13.2086 29.5094C12.5657 29.848 12.1972 30.4608 12.0986 31.3437M17.3358 27.4523C17.5373 27.7566 17.7473 28.0438 17.9701 28.3052C17.9873 28.3309 18.0087 28.3523 18.0344 28.378C18.5573 28.9952 19.1444 29.488 19.7873 29.8609M17.3358 27.4523C17.2415 27.3023 17.1429 27.148 17.0529 26.9894C16.32 25.7208 15.9429 24.4866 15.9258 23.2823M19.7873 29.8609C20.4301 30.2295 21.0087 30.418 21.5273 30.4223M19.7873 29.8609C20.4301 30.2295 21.0087 30.4223 21.5273 30.4223M21.5273 30.4223C21.8958 30.4266 22.2344 30.3366 22.5387 30.1566M22.5387 30.1566L28.873 26.9895M22.5387 30.1566C23.2801 29.7195 23.6486 28.888 23.6486 27.658C23.6486 26.7494 23.4557 25.8365 23.0657 24.9151C22.92 24.5637 22.74 24.2122 22.5386 23.8608C21.8657 22.6951 21.0429 21.7994 20.07 21.1737C19.98 21.1094 19.8815 21.0537 19.7872 20.998C18.8444 20.4494 18.0258 20.308 17.3315 20.5651M28.873 26.9895C30.0387 27.6966 31.0844 28.468 32.0058 29.3038M32.0058 29.3038L28.2687 31.1723M28.2687 31.1723C27.763 31.4466 27.5101 32.0038 27.5101 32.8395C27.5101 33.2338 27.5701 33.6366 27.6901 34.048C27.8144 34.4766 28.0073 34.918 28.2687 35.3637C28.7701 36.2337 29.3787 36.8723 30.0858 37.2795C30.3473 37.4295 30.5915 37.5366 30.823 37.5966M30.823 37.5966C31.2387 37.7038 31.603 37.6609 31.9201 37.4723M30.823 37.5966L29.1558 38.428M31.9201 37.4723L32.833 37.018L35.983 35.4409L37.5473 34.6609L38.3015 34.2837M38.3015 34.2837L40.4915 33.1865C40.9844 32.8908 41.2329 32.3379 41.2329 31.5279C41.2329 30.7993 41.0443 30.0665 40.6672 29.3294M17.2458 20.5994L17.0529 20.6937C16.6629 20.908 16.3758 21.238 16.1915 21.6794C16.0115 22.0909 15.9258 22.5965 15.9258 23.2008V23.2823M17.2458 20.5994C17.2758 20.5866 17.3015 20.578 17.3315 20.5651M28.3157 9.98366L28.9758 9.65362L29.0657 9.60652L29.2329 9.52509C29.88 9.22938 30.6215 9.10081 31.4486 9.13509C32.67 9.19081 33.96 9.60652 35.31 10.3865C37.6715 11.7494 39.6772 13.8537 41.3272 16.7037C42.9772 19.5537 43.8043 22.3308 43.8043 25.0394C43.8043 25.5065 43.7786 25.9522 43.7229 26.3765C43.6715 26.8008 43.59 27.2037 43.4829 27.5851C43.3757 27.9408 43.1701 28.1551 42.8701 28.228L40.6672 29.3294M40.6672 29.3294L36.9172 31.2065" stroke="#27272A" stroke-opacity="0.25" stroke-linecap="round" stroke-linejoin="round"/>
      </svg>