<svg xmlns="http://www.w3.org/2000/svg" viewBox="0 0 48 48">
        <path d="M47.0187 25.1146V32.8566C47.0187 35.1327 45.6136 37.0837 42.8032 38.7056C39.9813 40.3353 36.5904 41.1482 32.6265 41.1405C28.6588 41.1327 25.2601 40.3121 22.4188 38.6708L5.37489 28.8308C2.53748 27.1934 1.1091 25.2269 1.09748 22.9392V15.1972C1.10523 16.6024 1.64717 17.8876 2.7233 19.0488C3.39298 19.7766 4.2794 20.4579 5.37489 21.0888L22.4188 30.9288C23.3556 31.4708 24.3542 31.9237 25.411 32.2798C27.5633 33.023 29.9672 33.3946 32.6265 33.3985C35.2549 33.4024 37.6317 33.0463 39.7529 32.334C40.8368 31.9701 41.851 31.5134 42.8032 30.9637C43.8678 30.3482 44.731 29.6863 45.3929 28.9779C46.4768 27.8166 47.0187 26.5276 47.0187 25.1146Z" fill="white"/>
<path d="M42.7413 19.196L25.6975 9.35596C22.86 7.71854 19.4575 6.89403 15.4936 6.88629C11.5297 6.87854 8.13493 7.69145 5.31299 9.32112C2.49104 10.9508 1.08587 12.9095 1.09748 15.1972C1.10523 16.6024 1.64717 17.8876 2.7233 19.0488C3.39298 19.7766 4.2794 20.4579 5.37489 21.0888L22.4188 30.9288C23.3556 31.4708 24.3542 31.9237 25.411 32.2798C27.5633 33.023 29.9672 33.3946 32.6265 33.3985C35.2549 33.4024 37.6317 33.0463 39.7529 32.334C40.8368 31.9701 41.851 31.5134 42.8032 30.9637C43.8678 30.3482 44.731 29.6863 45.3929 28.9779C46.4768 27.8166 47.0187 26.5276 47.0187 25.1146L47.0187 25.0876C47.0071 22.7998 45.5826 20.8373 42.7413 19.196ZM39.7955 25.2347C39.7413 26.3108 39.0368 27.236 37.6936 28.014C36.9697 28.4321 36.1685 28.7418 35.2936 28.9431C34.4652 29.1366 33.5672 29.2295 32.6033 29.2295C31.6394 29.2295 30.7026 29.125 29.8549 28.9237C28.9994 28.7147 28.2136 28.4089 27.4975 27.9947C26.0769 27.174 25.3646 26.1947 25.3607 25.0489C25.353 23.9031 26.0575 22.9237 27.4665 22.1108C28.8097 21.3328 30.4162 20.9302 32.2781 20.8992C32.371 20.8992 32.464 20.8992 32.5569 20.8992C34.5388 20.8992 36.2381 21.3134 37.6588 22.134C39.0794 22.9508 39.7916 23.934 39.7994 25.0798C39.7994 25.134 39.7994 25.1882 39.7955 25.2386V25.2347Z" fill="white"/>
<path d="M39.7994 25.076C39.7994 25.1302 39.7994 25.1844 39.7955 25.2347C39.7413 26.3108 39.0368 27.236 37.6936 28.014C36.9697 28.4321 36.1685 28.7418 35.2936 28.9431C34.4536 28.7418 33.5401 28.6373 32.5568 28.6373C31.5736 28.6373 30.6871 28.7302 29.8549 28.9237C28.9994 28.7147 28.2136 28.4089 27.4975 27.9947C26.0769 27.174 25.3646 26.1947 25.3607 25.0489C25.353 23.9031 26.0575 22.9237 27.4665 22.1108C28.8097 21.3328 30.4162 20.9302 32.2781 20.8992C32.371 20.8992 32.464 20.8992 32.5569 20.8992C34.5388 20.8992 36.2381 21.3134 37.6588 22.134C39.0794 22.9508 39.7916 23.934 39.7994 25.0798L39.7994 25.076Z" fill="white"/>
<path d="M47.0187 33.3985L47.0187 32.8566L47.0187 33.3985Z" fill="white"/>
<path d="M47.0187 25.1146V32.8566M47.0187 25.1146C47.0187 26.5276 46.4768 27.8166 45.3929 28.9779C44.731 29.6863 43.8678 30.3482 42.8032 30.9637C41.851 31.5134 40.8368 31.9701 39.7529 32.334C37.6317 33.0463 35.2549 33.4024 32.6265 33.3985C29.9672 33.3946 27.5633 33.023 25.411 32.2798C24.3542 31.9237 23.3556 31.4708 22.4188 30.9288L5.37489 21.0888C4.2794 20.4579 3.39298 19.7766 2.7233 19.0488C1.64717 17.8876 1.10523 16.6024 1.09748 15.1972M47.0187 25.1146L47.0187 25.0876C47.0071 22.7998 45.5826 20.8373 42.7413 19.196L25.6975 9.35596C22.86 7.71854 19.4575 6.89403 15.4936 6.88629C11.5297 6.87854 8.13493 7.69145 5.31299 9.32112C2.49104 10.9508 1.08587 12.9095 1.09748 15.1972M47.0187 32.8566C47.0187 35.1327 45.6136 37.0837 42.8032 38.7056C39.9813 40.3353 36.5904 41.1482 32.6265 41.1405C28.6588 41.1327 25.2601 40.3121 22.4188 38.6708L5.37489 28.8308C2.53748 27.1934 1.1091 25.2269 1.09748 22.9392V15.1972M47.0187 32.8566L47.0187 33.3985M39.7955 25.2347C39.7413 26.3108 39.0368 27.236 37.6936 28.014C36.9697 28.4321 36.1685 28.7418 35.2936 28.9431M39.7955 25.2347V25.2386C39.7994 25.1882 39.7994 25.134 39.7994 25.0798M39.7955 25.2347C39.7994 25.1844 39.7994 25.1302 39.7994 25.076L39.7994 25.0798M35.2936 28.9431C34.4652 29.1366 33.5672 29.2295 32.6033 29.2295C31.6394 29.2295 30.7026 29.125 29.8549 28.9237M35.2936 28.9431C34.4536 28.7418 33.54 28.6373 32.5568 28.6373C31.5736 28.6373 30.6871 28.7302 29.8549 28.9237M29.8549 28.9237C28.9994 28.7147 28.2136 28.4089 27.4975 27.9947C26.0769 27.174 25.3646 26.1947 25.3607 25.0489C25.353 23.9031 26.0575 22.9237 27.4665 22.1108C28.8097 21.3328 30.4162 20.9302 32.2781 20.8992C32.371 20.8992 32.464 20.8992 32.5569 20.8992C34.5388 20.8992 36.2381 21.3134 37.6588 22.134C39.0794 22.9508 39.7916 23.934 39.7994 25.0798" stroke="#27272A" stroke-opacity="0.25" stroke-linecap="round" stroke-linejoin="round"/>
      </svg>