<svg xmlns="http://www.w3.org/2000/svg" viewBox="0 0 48 48">
        <path d="M30.0686 46.4783C30.4629 46.3411 30.8443 46.1654 31.2043 45.9597C31.32 45.8911 31.44 45.8183 31.5557 45.7454L30.0686 46.4783ZM8.22 6.31686L8.85 6.00401C8.63571 6.09401 8.42571 6.20115 8.22 6.31686Z" fill="white"/>
<path d="M32.7043 33.6426C32.7043 35.3183 32.4729 36.7969 31.9929 38.0783C31.9757 38.1383 31.95 38.2026 31.92 38.2626C31.4529 39.454 30.7971 40.4269 29.9486 41.1811L12.1329 10.4612L11.7514 9.80115C11.9143 9.74972 12.0686 9.70686 12.2357 9.66829C13.2343 9.41972 14.3229 9.40258 15.4886 9.60829C15.6857 9.64258 15.8829 9.68115 16.08 9.73258C17.2543 10.0069 18.4586 10.504 19.7143 11.2283C20.1986 11.5069 20.67 11.8026 21.1329 12.1197L32.6357 31.9711C32.6871 32.5283 32.7043 33.0854 32.7043 33.6426Z" fill="white"/>
<path d="M35.7043 32.0441C35.6614 31.7655 35.6186 31.4869 35.5714 31.2041C35.5243 30.9255 35.4729 30.6469 35.4129 30.364C35.3357 29.9869 35.25 29.6098 35.1557 29.2283C35.0614 28.8512 34.9586 28.4655 34.8471 28.084C34.7871 27.8955 34.7314 27.7026 34.6714 27.5098C34.6114 27.3083 34.5471 27.1112 34.4786 26.9098C34.4571 26.8155 34.4271 26.7255 34.3929 26.6355C34.3543 26.5112 34.3114 26.3869 34.2643 26.2669C34.1914 26.0398 34.11 25.8126 34.0243 25.5898C33.9471 25.3755 33.8657 25.1654 33.7843 24.9554C33.6257 24.5354 33.4543 24.1197 33.2743 23.7083C33.21 23.5454 33.1371 23.3869 33.0643 23.2283C32.9529 22.9755 32.8371 22.7226 32.7214 22.4741C32.4129 21.8226 32.0829 21.1755 31.74 20.5369C31.5643 20.2198 31.3886 19.9026 31.2043 19.5855C31.02 19.2683 30.8357 18.9598 30.6429 18.6512C30.4543 18.3426 30.2571 18.034 30.06 17.7341C29.9014 17.4941 29.7429 17.254 29.5757 17.0183C29.5629 16.9969 29.5457 16.9712 29.5286 16.9498C29.4 16.7612 29.2671 16.5769 29.1343 16.3926C28.9929 16.1954 28.8514 15.9983 28.7057 15.8055C28.53 15.5655 28.3457 15.3298 28.1614 15.0941C27.7157 14.5283 27.2529 13.9712 26.7771 13.4312C26.5371 13.1569 26.2971 12.8912 26.0486 12.6255C24.9471 11.4426 23.7986 10.3883 22.6114 9.45834C21.6686 8.72548 20.7043 8.07405 19.7143 7.49976C17.5671 6.26115 15.54 5.53691 13.6371 5.33977C13.5514 5.32691 13.4657 5.32262 13.38 5.31405C13.2171 5.30119 13.0586 5.29262 12.8957 5.28405C12.2357 5.25405 11.6014 5.28405 11.0014 5.37834C10.8771 5.39548 10.7571 5.41262 10.6371 5.43834C10.5557 5.45548 10.4743 5.47262 10.3929 5.48977C10.2857 5.51119 10.1829 5.53691 10.08 5.56691C9.96428 5.59691 9.84428 5.63119 9.72857 5.66976C9.44571 5.75548 9.16714 5.86262 8.90143 5.98262C8.88428 5.99119 8.87143 5.99548 8.85428 6.00405L8.22428 6.31691C6.76714 7.15262 5.60571 8.45548 4.75285 10.2298C3.90428 12.0083 3.47571 14.1854 3.47571 16.7612C3.47571 19.3369 3.90428 22.0069 4.75285 24.7669C5.60571 27.5269 6.76714 30.1712 8.22428 32.6912C9.69 35.2112 11.4086 37.534 13.3843 39.6512C15.3557 41.7726 17.4729 43.4783 19.7186 44.7769C21.9643 46.0754 24.0729 46.804 26.0529 46.9669C27.54 47.0912 28.8814 46.9283 30.0729 46.4783L31.56 45.7454C31.6629 45.6769 31.7657 45.6083 31.8643 45.5354C32.0143 45.4326 32.1557 45.3212 32.2971 45.2012C32.34 45.1669 32.3871 45.1283 32.43 45.0897C32.5371 44.9997 32.6443 44.9011 32.7514 44.7983C32.8671 44.6826 32.9829 44.5669 33.0943 44.4426C33.1071 44.4297 33.12 44.4169 33.1286 44.404C33.21 44.3183 33.2829 44.2326 33.3557 44.1426C33.3771 44.1212 33.3943 44.0997 33.4071 44.0783C33.4586 44.0183 33.5057 43.954 33.5529 43.894C33.6171 43.8126 33.6814 43.7311 33.7371 43.6454C33.7629 43.6111 33.7886 43.5769 33.81 43.5426C33.9386 43.354 34.0629 43.1612 34.1829 42.9597C34.2429 42.8612 34.3029 42.7583 34.3586 42.6555C34.47 42.4583 34.5771 42.2569 34.6757 42.0469C34.9371 41.5026 35.16 40.9198 35.3443 40.2983C35.4257 40.0283 35.4943 39.7497 35.5586 39.4626C35.5843 39.3383 35.61 39.2141 35.6357 39.0898C35.6829 38.8412 35.7257 38.5841 35.7643 38.3226C35.8071 38.0655 35.8414 37.7998 35.8629 37.5298C35.9271 36.8912 35.9571 36.2183 35.9571 35.5154C35.9571 34.3754 35.8714 33.2183 35.7086 32.0441H35.7043ZM23.9357 42.6726C22.5814 42.4326 21.1714 41.8926 19.7143 41.0483C16.0886 38.9569 13.0157 35.7383 10.4957 31.3926C7.98 27.0512 6.7157 22.7998 6.7157 18.6383C6.7157 16.9583 6.96 15.4798 7.42714 14.2026C7.90286 12.9212 8.58857 11.8883 9.48428 11.0998L25.3886 38.5326L27.6686 42.4755C26.5329 42.8441 25.29 42.9083 23.9357 42.6726ZM31.9929 38.0783C31.9757 38.1383 31.95 38.2026 31.92 38.2626C31.4529 39.454 30.7971 40.4269 29.9486 41.1811L12.1329 10.4612L11.7514 9.80115C11.9143 9.74972 12.0686 9.70686 12.2357 9.66829C13.2343 9.41972 14.3229 9.40258 15.4886 9.60829C15.6857 9.64258 15.8829 9.68115 16.08 9.73258C17.2543 10.0069 18.4586 10.504 19.7143 11.2283C20.1986 11.5069 20.67 11.8026 21.1329 12.1197C24.15 14.1983 26.7429 17.1212 28.9329 20.884C31.1143 24.6469 32.3486 28.3411 32.6357 31.9711C32.6871 32.5283 32.7043 33.0854 32.7043 33.6426C32.7043 35.3183 32.4729 36.7969 31.9929 38.0783Z" fill="white"/>
<path d="M27.6686 42.4755C26.5329 42.8441 25.29 42.9083 23.9357 42.6726C22.5814 42.4326 21.1714 41.8926 19.7143 41.0483C16.0886 38.9569 13.0157 35.7383 10.4957 31.3926C7.98 27.0512 6.7157 22.7998 6.7157 18.6383C6.7157 16.9583 6.96 15.4798 7.42714 14.2026C7.90286 12.9212 8.58857 11.8883 9.48428 11.0998L25.3886 38.5326L27.6686 42.4755Z" fill="white"/>
<path d="M44.5286 31.2297C44.5286 33.8097 44.1 35.9869 43.2471 37.7612C42.3986 39.5354 41.2371 40.8383 39.7757 41.674L39.0986 42.0083L31.5557 45.7454C31.6586 45.6769 31.7614 45.6083 31.86 45.5354C32.01 45.4326 32.1514 45.3211 32.2929 45.2011C32.3357 45.1712 32.3829 45.1326 32.4257 45.0897C32.5329 44.9997 32.64 44.9011 32.7471 44.7983C32.8629 44.6826 32.9786 44.5669 33.09 44.4426C33.1029 44.4297 33.1157 44.4169 33.1243 44.404C33.2057 44.3183 33.2786 44.2326 33.3514 44.1426C33.3729 44.1212 33.39 44.0997 33.4029 44.0783C33.4543 44.0183 33.5057 43.9583 33.5486 43.894C33.6129 43.8126 33.6771 43.7311 33.7329 43.6454C33.7586 43.6111 33.7843 43.5769 33.8057 43.5426C33.9386 43.3583 34.0629 43.1611 34.1786 42.9597C34.2429 42.8611 34.3029 42.7583 34.3586 42.6555C34.47 42.4583 34.5771 42.2569 34.6757 42.0469C34.9371 41.5026 35.16 40.9197 35.34 40.2983C35.4214 40.0283 35.49 39.7497 35.5543 39.4626C35.5843 39.3426 35.61 39.214 35.6314 39.0897C35.6829 38.8411 35.7257 38.5841 35.7643 38.3226C35.8029 38.0655 35.8371 37.7998 35.8629 37.5298C35.9271 36.8912 35.9571 36.2183 35.9571 35.5154C35.9571 34.3754 35.8714 33.2183 35.7086 32.0441C35.67 31.7655 35.6229 31.4869 35.5714 31.2041C35.5243 30.9255 35.4729 30.6469 35.4129 30.364C35.3357 29.9869 35.25 29.6098 35.1557 29.2283C35.0614 28.8512 34.9586 28.4655 34.8471 28.084C34.7914 27.8955 34.7357 27.7026 34.6757 27.5097C34.6157 27.3083 34.5514 27.1069 34.4786 26.9098C34.4571 26.8155 34.4271 26.7255 34.3929 26.6355C34.3543 26.5112 34.3114 26.3869 34.2643 26.2669C34.1914 26.0398 34.11 25.8126 34.0243 25.5898C33.9514 25.3755 33.87 25.1654 33.7843 24.9554C33.6257 24.5354 33.4543 24.1197 33.2743 23.7083C33.21 23.5454 33.1371 23.3869 33.0643 23.2283C32.9529 22.9755 32.8371 22.7226 32.7214 22.4741C32.4129 21.8226 32.0829 21.1755 31.74 20.5369C31.5643 20.2198 31.3886 19.9026 31.2043 19.5855C31.02 19.2683 30.8357 18.9598 30.6429 18.6512C30.4543 18.3426 30.2571 18.034 30.06 17.7341C29.9014 17.4941 29.7429 17.254 29.5757 17.0183C29.5629 16.9969 29.5457 16.9712 29.5286 16.9498C29.4 16.7612 29.2714 16.5769 29.1343 16.3926C28.9971 16.1954 28.8514 15.9983 28.7057 15.8055C28.53 15.5655 28.3457 15.3298 28.1614 15.0941C27.7157 14.5283 27.2571 13.9712 26.7771 13.4312C26.5371 13.1569 26.2971 12.8912 26.0486 12.6255C24.9471 11.4426 23.7986 10.3883 22.6114 9.45834C21.6686 8.72548 20.7043 8.07405 19.7143 7.49976C17.5671 6.26115 15.54 5.53691 13.6371 5.33977C13.5514 5.32691 13.4657 5.32262 13.38 5.31405C13.2171 5.30119 13.0586 5.29262 12.8957 5.28405C12.2357 5.25405 11.6014 5.28405 11.0014 5.37834C10.8771 5.39548 10.7571 5.41262 10.6371 5.43834C10.5557 5.45548 10.4743 5.47262 10.3929 5.48977C10.2857 5.51119 10.1829 5.53691 10.08 5.56691C9.96428 5.59691 9.84428 5.63119 9.72857 5.66976C9.44571 5.75548 9.16714 5.86262 8.90143 5.98262L16.7957 2.03115C18.2571 1.19972 19.9757 0.865436 21.9514 1.02829C23.9271 1.18687 26.04 1.91972 28.2857 3.21401C30.5314 4.51258 32.6443 6.22258 34.62 8.33972C36.5957 10.4612 38.3143 12.7797 39.7757 15.2997C41.2371 17.824 42.3986 20.464 43.2471 23.224C44.1 25.984 44.5286 28.654 44.5286 31.2297Z" fill="white"/>
<path d="M31.5557 45.7454C31.44 45.8183 31.32 45.8911 31.2043 45.9597C30.8443 46.1654 30.4629 46.3411 30.0686 46.4783L31.5557 45.7454ZM31.5557 45.7454L39.0986 42.0083L39.7757 41.674C41.2371 40.8383 42.3986 39.5354 43.2471 37.7612C44.1 35.9869 44.5286 33.8097 44.5286 31.2297C44.5286 28.654 44.1 25.984 43.2471 23.224C42.3986 20.464 41.2371 17.824 39.7757 15.2997C38.3143 12.7797 36.5957 10.4612 34.62 8.33972C32.6443 6.22258 30.5314 4.51258 28.2857 3.21401C26.04 1.91972 23.9271 1.18687 21.9514 1.02829C19.9757 0.865436 18.2571 1.19972 16.7957 2.03115L8.90143 5.98262M31.5557 45.7454C31.6586 45.6769 31.7614 45.6083 31.86 45.5354C32.01 45.4326 32.1514 45.3211 32.2929 45.2011C32.3357 45.1711 32.3829 45.1326 32.4257 45.0897C32.5329 44.9997 32.64 44.9012 32.7471 44.7983C32.8629 44.6826 32.9786 44.5669 33.09 44.4426C33.1029 44.4297 33.1157 44.4169 33.1243 44.404C33.2057 44.3183 33.2786 44.2326 33.3514 44.1426C33.3729 44.1211 33.39 44.0997 33.4029 44.0783C33.4543 44.0183 33.5057 43.9583 33.5486 43.894C33.6129 43.8126 33.6771 43.7311 33.7329 43.6454C33.7586 43.6111 33.7843 43.5769 33.8057 43.5426C33.9386 43.3583 34.0629 43.1611 34.1786 42.9597C34.2429 42.8611 34.3029 42.7583 34.3586 42.6555M21.1329 12.1197C20.67 11.8026 20.1986 11.5069 19.7143 11.2283C18.4586 10.504 17.2543 10.0069 16.08 9.73258C15.8829 9.68115 15.6857 9.64258 15.4886 9.60829C14.3229 9.40258 13.2343 9.41972 12.2357 9.66829C12.0686 9.70686 11.9143 9.74972 11.7514 9.80115L12.1329 10.4612L29.9486 41.1811C30.7971 40.4269 31.4529 39.454 31.92 38.2626C31.95 38.2026 31.9757 38.1383 31.9929 38.0783C32.4729 36.7969 32.7043 35.3183 32.7043 33.6426C32.7043 33.0854 32.6871 32.5283 32.6357 31.9711M21.1329 12.1197L32.6357 31.9711M21.1329 12.1197C24.15 14.1983 26.7429 17.1212 28.9329 20.884C31.1143 24.6469 32.3486 28.3411 32.6357 31.9711M35.5714 31.2041C35.6186 31.4869 35.6614 31.7655 35.7043 32.0441H35.7086M35.5714 31.2041C35.5243 30.9255 35.4729 30.6469 35.4129 30.364C35.3357 29.9869 35.25 29.6098 35.1557 29.2283C35.0614 28.8512 34.9586 28.4655 34.8471 28.084M35.5714 31.2041C35.6229 31.4869 35.67 31.7655 35.7086 32.0441M34.8471 28.084C34.7871 27.8955 34.7314 27.7026 34.6714 27.5098C34.6114 27.3083 34.5471 27.1112 34.4786 26.9098M34.8471 28.084C34.7914 27.8955 34.7357 27.7026 34.6757 27.5097C34.6157 27.3083 34.5514 27.1069 34.4786 26.9098M34.4786 26.9098C34.4571 26.8155 34.4271 26.7255 34.3929 26.6355C34.3543 26.5112 34.3114 26.3869 34.2643 26.2669C34.1914 26.0398 34.11 25.8126 34.0243 25.5898M34.0243 25.5898C33.9471 25.3755 33.8657 25.1654 33.7843 24.9554M34.0243 25.5898C33.9514 25.3755 33.87 25.1654 33.7843 24.9554M33.7843 24.9554C33.6257 24.5354 33.4543 24.1197 33.2743 23.7083C33.21 23.5454 33.1371 23.3869 33.0643 23.2283C32.9529 22.9755 32.8371 22.7226 32.7214 22.4741C32.4129 21.8226 32.0829 21.1755 31.74 20.5369C31.5643 20.2198 31.3886 19.9026 31.2043 19.5855C31.02 19.2683 30.8357 18.9598 30.6429 18.6512C30.4543 18.3426 30.2571 18.0341 30.06 17.7341C29.9014 17.4941 29.7429 17.254 29.5757 17.0183C29.5629 16.9969 29.5457 16.9712 29.5286 16.9498M29.5286 16.9498C29.4 16.7612 29.2671 16.5769 29.1343 16.3926M29.5286 16.9498C29.4 16.7612 29.2714 16.5769 29.1343 16.3926M29.1343 16.3926C28.9929 16.1954 28.8514 15.9983 28.7057 15.8055M29.1343 16.3926C28.9971 16.1954 28.8514 15.9983 28.7057 15.8055M28.7057 15.8055C28.53 15.5655 28.3457 15.3298 28.1614 15.0941M28.1614 15.0941C27.7157 14.5283 27.2529 13.9712 26.7771 13.4312M28.1614 15.0941C27.7157 14.5283 27.2571 13.9712 26.7771 13.4312M26.7771 13.4312C26.5371 13.1569 26.2971 12.8912 26.0486 12.6255C24.9471 11.4426 23.7986 10.3883 22.6114 9.45834C21.6686 8.72548 20.7043 8.07405 19.7143 7.49976C17.5671 6.26115 15.54 5.53691 13.6371 5.33977C13.5514 5.32691 13.4657 5.32262 13.38 5.31405C13.2171 5.30119 13.0586 5.29262 12.8957 5.28405C12.2357 5.25405 11.6014 5.28405 11.0014 5.37834C10.8771 5.39548 10.7571 5.41262 10.6371 5.43834C10.5557 5.45548 10.4743 5.47262 10.3929 5.48977C10.2857 5.51119 10.1829 5.53691 10.08 5.56691C9.96428 5.59691 9.84428 5.63119 9.72857 5.66976C9.44571 5.75548 9.16714 5.86262 8.90143 5.98262M8.90143 5.98262C8.88428 5.99119 8.87143 5.99548 8.85428 6.00405L8.22428 6.31691C6.76714 7.15262 5.60571 8.45548 4.75285 10.2298C3.90428 12.0083 3.47571 14.1854 3.47571 16.7612C3.47571 19.3369 3.90428 22.0069 4.75285 24.7669C5.60571 27.5269 6.76714 30.1712 8.22428 32.6912C9.69 35.2112 11.4086 37.534 13.3843 39.6512C15.3557 41.7726 17.4729 43.4783 19.7186 44.7769C21.9643 46.0754 24.0729 46.804 26.0529 46.9669C27.54 47.0912 28.8814 46.9283 30.0729 46.4783L31.56 45.7454C31.6629 45.6769 31.7657 45.6083 31.8643 45.5354C32.0143 45.4326 32.1557 45.3212 32.2971 45.2012C32.34 45.1669 32.3871 45.1283 32.43 45.0897C32.5371 44.9997 32.6443 44.9012 32.7514 44.7983C32.8671 44.6826 32.9829 44.5669 33.0943 44.4426C33.1071 44.4297 33.12 44.4169 33.1286 44.404C33.21 44.3183 33.2829 44.2326 33.3557 44.1426C33.3771 44.1212 33.3943 44.0997 33.4071 44.0783C33.4586 44.0183 33.5057 43.954 33.5529 43.894C33.6171 43.8126 33.6814 43.7311 33.7371 43.6454C33.7629 43.6111 33.7886 43.5769 33.81 43.5426C33.9386 43.354 34.0629 43.1612 34.1829 42.9597C34.2429 42.8612 34.3029 42.7583 34.3586 42.6555M34.3586 42.6555C34.47 42.4583 34.5771 42.2569 34.6757 42.0469M34.6757 42.0469C34.9371 41.5026 35.16 40.9198 35.3443 40.2983C35.4257 40.0283 35.4943 39.7497 35.5586 39.4626C35.5843 39.3383 35.61 39.2141 35.6357 39.0898C35.6829 38.8412 35.7257 38.5841 35.7643 38.3226M34.6757 42.0469C34.9371 41.5026 35.16 40.9197 35.34 40.2983C35.4214 40.0283 35.49 39.7497 35.5543 39.4626C35.5843 39.3426 35.61 39.214 35.6314 39.0897C35.6829 38.8412 35.7257 38.5841 35.7643 38.3226M35.7643 38.3226C35.8071 38.0655 35.8414 37.7998 35.8629 37.5298M35.7643 38.3226C35.8029 38.0655 35.8371 37.7998 35.8629 37.5298M35.8629 37.5298C35.9271 36.8912 35.9571 36.2183 35.9571 35.5154C35.9571 34.3754 35.8714 33.2183 35.7086 32.0441M8.22 6.31686L8.85 6.00401C8.63571 6.09401 8.42571 6.20115 8.22 6.31686ZM23.9357 42.6726C22.5814 42.4326 21.1714 41.8926 19.7143 41.0483C16.0886 38.9569 13.0157 35.7383 10.4957 31.3926C7.98 27.0512 6.7157 22.7998 6.7157 18.6383C6.7157 16.9583 6.96 15.4798 7.42714 14.2026C7.90286 12.9212 8.58857 11.8883 9.48428 11.0998L25.3886 38.5326L27.6686 42.4755C26.5329 42.8441 25.29 42.9083 23.9357 42.6726Z" stroke="#27272A" stroke-opacity="0.25" stroke-linecap="round" stroke-linejoin="round"/>
      </svg>