<svg xmlns="http://www.w3.org/2000/svg" viewBox="0 0 48 48">
        <path d="M25.4727 14.0296V15.5794L18.4476 16.6899L17.7724 18.1136V15.3394L25.4727 14.0296Z" fill="white"/>
<path d="M31.8712 18.6831V25.395L30.4027 24.5489L29.7275 24.6547V23.2025L31.8712 18.6831Z" fill="white"/>
<path d="M29.7275 23.2025V24.6547L22.5763 25.7855L21.9051 27.2052V24.4391L26.4895 23.715L29.097 23.3001L29.7275 23.2025Z" fill="white"/>
<path d="M21.9051 24.4391V27.2052L20.4366 30.3048V31.7286L20.2414 31.6147V25.3991L16.3038 23.1252V21.2052L19.676 23.1496L21.6855 24.313L21.9051 24.4391Z" fill="white"/>
<path d="M37.6639 26.8228V34.9584L36.0042 34.0025V27.7828L34.8368 27.1075L32.0625 25.5089V23.593L33.531 24.4391L35.4673 25.5577L37.4442 26.6967L37.6639 26.8228Z" fill="white"/>
<path d="M27.7383 9.58348L25.4727 14.0296L17.7724 15.3394L17.5525 15.2133L12.1708 12.1055L13.6148 9.05467C13.806 8.59094 14.1925 8.18822 14.7742 7.85466C15.3559 7.51704 16.0474 7.29738 16.8528 7.18348L19.4766 6.78077C20.3064 6.65467 21.1321 6.6506 21.9538 6.77263C22.7714 6.89466 23.4915 7.1306 24.1016 7.48449L27.7383 9.58348Z" fill="white"/>
<path d="M16.1085 16.2994L13.8427 20.7455L13.2244 20.8513L6.14242 22.0553L5.91865 21.9252L2.50991 19.9523C1.89567 19.5984 1.48481 19.1875 1.27328 18.7116C1.16752 18.4797 1.11865 18.2479 1.11865 18.016V17.9916C1.12272 17.7557 1.17567 17.5197 1.2855 17.2838L1.98515 15.7665C2.17633 15.3028 2.56271 14.9042 3.14441 14.5665C3.7261 14.233 4.42174 14.0092 5.2231 13.8994L10.5112 13.0655L12.1709 14.0255L15.1973 15.7747L16.1085 16.2994Z" fill="white"/>
<path d="M6.14242 22.0553V25.0004L5.49967 26.5258C5.39391 26.7821 5.34916 27.0343 5.3695 27.2906V29.7435L2.50991 28.0879C1.89567 27.734 1.48481 27.3231 1.27328 26.8472C1.17159 26.6235 1.12272 26.4038 1.11865 26.1801V18.016C1.11865 18.2479 1.16752 18.4797 1.27328 18.7116C1.48481 19.1875 1.89567 19.5984 2.50991 19.9523L5.91865 21.9252L6.14242 22.0553Z" fill="white"/>
<path d="M20.2414 25.3991L18.1018 29.9143L17.4673 30.0119L12.9398 30.7238C12.415 30.8052 11.8903 30.8336 11.3736 30.8174H11.3656C11.0646 30.8052 10.7594 30.7767 10.4625 30.732C9.64077 30.6099 8.92496 30.374 8.31072 30.0201L8.04623 29.8655L6.7242 29.1008C6.13844 28.7631 5.73983 28.3645 5.52831 27.9089C5.43475 27.7055 5.3817 27.4981 5.3695 27.2906C5.34916 27.0343 5.39391 26.7821 5.49967 26.5258L6.14242 25.0004L6.81776 23.4018L13.8428 22.2913L14.6442 22.1652L16.1086 23.0113L16.3038 23.1252L20.2414 25.3991Z" fill="white"/>
<path d="M31.8712 18.6831L29.7275 23.2025L29.097 23.3001L26.4895 23.715L21.9051 24.4391L21.6855 24.313L19.676 23.1496L16.3038 21.2052L17.7724 18.1136L18.4476 16.6899L25.4727 15.5794L26.2699 15.4533L27.7384 16.2994L27.9336 16.4133L30.7037 18.012L31.8712 18.6831Z" fill="white"/>
<path d="M42.9234 12.7808C42.9234 13.0248 42.8705 13.2648 42.7566 13.5089L41.3573 16.4906L36.8012 17.2106H36.7972L33.5308 17.7272L33.3152 17.6011L27.9335 14.4933L30.0732 9.97398L35.2352 9.16449C36.0691 9.03839 36.8948 9.03839 37.7124 9.16449C38.5341 9.28246 39.2501 9.52245 39.8643 9.87636L41.5363 10.8404C42.1464 11.1943 42.5573 11.6092 42.7688 12.0811C42.8746 12.317 42.9234 12.5489 42.9234 12.7848V12.7808Z" fill="white"/>
<path d="M47.0481 21.7381V22.0594C47.0278 22.2425 46.9749 22.4255 46.8895 22.6086L46.1898 24.1218C45.9987 24.5855 45.6122 24.9882 45.0305 25.3218C44.4488 25.6594 43.7532 25.8831 42.9478 25.993L42.2563 26.1028L37.6639 26.8228L37.4442 26.6967L35.4673 25.5577L33.531 24.4391L32.0625 23.593L33.531 20.4974L34.2062 19.0736L41.3573 17.9428L42.0325 17.837L42.9234 18.3536L45.6651 19.936C46.2793 20.2899 46.6902 20.7048 46.9017 21.1767C46.9871 21.3638 47.0359 21.5469 47.0481 21.7381Z" fill="white"/>
<path d="M36.0042 27.7828L34.5601 30.8336C34.3689 31.3014 33.9825 31.7001 33.4008 32.0377C33.2625 32.115 33.1201 32.1882 32.9737 32.2533C32.4896 32.4689 31.9404 32.6194 31.3221 32.7048L30.6266 32.8147L28.6984 33.1116C28.1778 33.1889 27.657 33.2214 27.1364 33.2011H27.1323C26.8272 33.1889 26.5262 33.1604 26.2211 33.1157C25.3994 32.9936 24.6836 32.7577 24.0734 32.4038L21.9052 31.1509L20.4366 30.3048L21.9051 27.2052L22.5763 25.7855L29.7275 24.6547L30.4027 24.5489L31.8712 25.395L32.0625 25.5089L34.8368 27.1075L36.0042 27.7828Z" fill="white"/>
<path d="M18.1018 29.9143L18.1018 38.0499L12.9398 38.8594C12.1059 38.9855 11.2801 38.9896 10.4625 38.8675C9.64077 38.7455 8.92492 38.5096 8.31068 38.1557L6.7242 37.2364C6.13844 36.8987 5.73979 36.5001 5.52827 36.0445C5.41844 35.8045 5.36559 35.5645 5.36559 35.3204V29.7435L5.3695 27.2906C5.3817 27.4981 5.43475 27.7055 5.52831 27.9089C5.73983 28.3645 6.13844 28.7631 6.7242 29.1008L8.04623 29.8655L8.31072 30.0201C8.92496 30.374 9.64077 30.6099 10.4625 30.732C10.7594 30.7767 11.0646 30.8052 11.3656 30.8174H11.3736C11.8903 30.8336 12.415 30.8052 12.9398 30.7238L17.4673 30.0119L18.1018 29.9143Z" fill="white"/>
<path d="M5.36559 35.4058V35.3204V35.4058Z" fill="white"/>
<path d="M20.2414 25.3991V33.5347L18.1018 38.0499L18.1018 29.9143L20.2414 25.3991Z" fill="white"/>
<path d="M36.0042 27.7828V35.9184L34.5601 38.9692C34.3689 39.437 33.9825 39.8357 33.4008 40.1733C32.8191 40.5069 32.1275 40.7306 31.3221 40.8404L28.6984 41.2472C27.8686 41.3733 27.0387 41.3733 26.2211 41.2472C25.3994 41.1252 24.6836 40.8892 24.0734 40.5353L20.4367 38.4364V30.3008L21.9052 31.1469L24.0734 32.3997C24.6836 32.7536 25.3994 32.9896 26.2211 33.1116C26.5262 33.1564 26.8272 33.1848 27.1323 33.197H27.1364C27.657 33.2174 28.1778 33.1848 28.6984 33.1075L30.6266 32.8106L31.3221 32.7008C31.9404 32.6153 32.4896 32.4648 32.9737 32.2492C33.1201 32.1842 33.2625 32.1109 33.4008 32.0336C33.9825 31.696 34.3689 31.2974 34.5601 30.8296L36.0042 27.7787V27.7828Z" fill="white"/>
<path d="M42.9234 12.7808V18.3536L42.0325 17.837L41.3573 17.9428V16.4906L42.7566 13.5089C42.8705 13.2648 42.9234 13.0248 42.9234 12.7808Z" fill="white"/>
<path d="M41.3573 16.4906V17.9428L34.2062 19.0736L33.531 20.4974L33.5308 17.7272L36.7972 17.2106H36.8012L41.3573 16.4906Z" fill="white"/>
<path d="M27.7383 9.58348L27.7384 16.2994L26.2699 15.4533L25.4727 15.5794V14.0296L27.7383 9.58348Z" fill="white"/>
<path d="M33.5308 17.7272L33.531 20.4974L32.0625 23.593L32.0623 25.0126L31.8712 24.9028L31.8712 18.6831L30.7037 18.012L27.9336 16.4133L27.9335 14.4933L33.3152 17.6011L33.5308 17.7272Z" fill="white"/>
<path d="M17.7724 15.3394V18.1136L16.3038 21.2052L16.3037 22.6289L16.1084 22.515L16.1085 16.2994L15.1973 15.7747L12.1709 14.0255L12.1708 12.1055L17.5525 15.2133L17.7724 15.3394Z" fill="white"/>
<path d="M16.1085 16.2994L16.1086 23.0113L14.6442 22.1652L13.8428 22.2913L13.8427 20.7455L16.1085 16.2994Z" fill="white"/>
<path d="M47.0563 30.0079V30.016C47.0563 30.2601 47.0034 30.5001 46.8895 30.7442L46.1898 32.2574C45.9987 32.7211 45.6122 33.1238 45.0305 33.4574C44.4488 33.795 43.7532 34.0187 42.9478 34.1286L37.6639 34.9584V26.8228L42.2563 26.1028L42.9478 25.993C43.7532 25.8831 44.4488 25.6594 45.0305 25.3218C45.6122 24.9882 45.9987 24.5855 46.1898 24.1218L46.8895 22.6086C46.9749 22.4255 47.0278 22.2425 47.0481 22.0594L47.0563 30.0079Z" fill="white"/>
<path d="M47.0563 30.1462V30.016V30.1462Z" fill="white"/>
<path d="M13.8427 20.7455L13.8428 22.2913L6.81776 23.4018L6.14242 25.0004V22.0553L13.2244 20.8513L13.8427 20.7455Z" fill="white"/>
<path d="M25.4727 14.0296V15.5794M25.4727 14.0296L27.7383 9.58348M25.4727 14.0296L17.7724 15.3394M25.4727 15.5794L26.2699 15.4533L27.7384 16.2994M25.4727 15.5794L18.4476 16.6899L17.7724 18.1136M17.7724 18.1136V15.3394M17.7724 18.1136L16.3038 21.2052M17.7724 15.3394L17.5525 15.2133L12.1708 12.1055M31.8712 18.6831V25.395M31.8712 18.6831L29.7275 23.2025M31.8712 18.6831L30.7037 18.012L27.9336 16.4133M31.8712 18.6831L31.8712 24.9028L32.0623 25.0126L32.0625 23.593M31.8712 25.395L30.4027 24.5489L29.7275 24.6547M31.8712 25.395L32.0625 25.5089M29.7275 24.6547V23.2025M29.7275 24.6547L22.5763 25.7855L21.9051 27.2052M29.7275 23.2025L29.097 23.3001L26.4895 23.715L21.9051 24.4391M21.9051 27.2052V24.4391M21.9051 27.2052L20.4366 30.3048M21.9051 24.4391L21.6855 24.313L19.676 23.1496L16.3038 21.2052M20.4366 30.3048V31.7286L20.2414 31.6147V25.3991M20.4366 30.3048L21.9052 31.1509L24.0734 32.4038C24.6836 32.7577 25.3994 32.9936 26.2211 33.1157C26.5262 33.1604 26.8272 33.1889 27.1323 33.2011H27.1364C27.657 33.2214 28.1778 33.1889 28.6984 33.1116L30.6266 32.8147L31.3221 32.7048C31.9404 32.6194 32.4896 32.4689 32.9737 32.2533C33.1201 32.1882 33.2625 32.115 33.4008 32.0377C33.9825 31.7001 34.3689 31.3014 34.5601 30.8336L36.0042 27.7828M20.2414 25.3991L18.1018 29.9143M20.2414 25.3991V33.5347L18.1018 38.0499M20.2414 25.3991L16.3038 23.1252M16.3038 23.1252V21.2052M16.3038 23.1252L16.1086 23.0113M16.3038 21.2052L16.3037 22.6289L16.1084 22.515L16.1085 16.2994M37.6639 26.8228V34.9584M37.6639 26.8228L37.4442 26.6967L35.4673 25.5577L33.531 24.4391L32.0625 23.593M37.6639 26.8228L42.2563 26.1028L42.9478 25.993C43.7532 25.8831 44.4488 25.6594 45.0305 25.3218C45.6122 24.9882 45.9987 24.5855 46.1898 24.1218L46.8895 22.6086C46.9749 22.4255 47.0278 22.2425 47.0481 22.0594M37.6639 34.9584L36.0042 34.0025V27.7828M37.6639 34.9584L42.9478 34.1286C43.7532 34.0187 44.4488 33.795 45.0305 33.4574C45.6122 33.1238 45.9987 32.7211 46.1898 32.2574L46.8895 30.7442C47.0034 30.5001 47.0563 30.2601 47.0563 30.016M36.0042 27.7828L34.8368 27.1075L32.0625 25.5089M36.0042 27.7828V35.9184L34.5601 38.9692C34.3689 39.437 33.9825 39.8357 33.4008 40.1733C32.8191 40.5069 32.1275 40.7306 31.3221 40.8404L28.6984 41.2472C27.8686 41.3733 27.0387 41.3733 26.2211 41.2472C25.3994 41.1252 24.6836 40.8892 24.0734 40.5353L20.4367 38.4364V30.3008L21.9052 31.1469L24.0734 32.3997C24.6836 32.7536 25.3994 32.9896 26.2211 33.1116C26.5262 33.1564 26.8272 33.1848 27.1323 33.197H27.1364C27.657 33.2174 28.1778 33.1848 28.6984 33.1075L30.6266 32.8106L31.3221 32.7008C31.9404 32.6153 32.4896 32.4648 32.9737 32.2492C33.1201 32.1842 33.2625 32.1109 33.4008 32.0336C33.9825 31.696 34.3689 31.2974 34.5601 30.8296L36.0042 27.7787V27.7828ZM32.0625 25.5089V23.593M32.0625 23.593L33.531 20.4974M27.7383 9.58348L24.1016 7.48449C23.4915 7.1306 22.7714 6.89466 21.9538 6.77263C21.1321 6.6506 20.3064 6.65467 19.4766 6.78077L16.8528 7.18348C16.0474 7.29738 15.3559 7.51704 14.7742 7.85466C14.1925 8.18822 13.806 8.59094 13.6148 9.05467L12.1708 12.1055M27.7383 9.58348L27.7384 16.2994M12.1708 12.1055L12.1709 14.0255M16.1085 16.2994L13.8427 20.7455M16.1085 16.2994L15.1973 15.7747L12.1709 14.0255M16.1085 16.2994L16.1086 23.0113M13.8427 20.7455L13.2244 20.8513L6.14242 22.0553M13.8427 20.7455L13.8428 22.2913M6.14242 22.0553L5.91865 21.9252L2.50991 19.9523C1.89567 19.5984 1.48481 19.1875 1.27328 18.7116C1.16752 18.4797 1.11865 18.2479 1.11865 18.016M6.14242 22.0553V25.0004M1.11865 18.016V17.9916C1.12272 17.7557 1.17567 17.5197 1.2855 17.2838L1.98515 15.7665C2.17633 15.3028 2.56271 14.9042 3.14441 14.5665C3.7261 14.233 4.42174 14.0092 5.2231 13.8994L10.5112 13.0655L12.1709 14.0255M1.11865 18.016V26.1801C1.12272 26.4038 1.17159 26.6235 1.27328 26.8472C1.48481 27.3231 1.89567 27.734 2.50991 28.0879L5.3695 29.7435V27.2906M6.14242 25.0004L5.49967 26.5258C5.39391 26.7821 5.34916 27.0343 5.3695 27.2906M6.14242 25.0004L6.81776 23.4018L13.8428 22.2913M5.3695 27.2906C5.3817 27.4981 5.43475 27.7055 5.52831 27.9089C5.73983 28.3645 6.13844 28.7631 6.7242 29.1008L8.04623 29.8655L8.31072 30.0201C8.92496 30.374 9.64077 30.6099 10.4625 30.732C10.7594 30.7767 11.0646 30.8052 11.3656 30.8174H11.3736C11.8903 30.8336 12.415 30.8052 12.9398 30.7238L17.4673 30.0119L18.1018 29.9143M5.3695 27.2906L5.36559 29.7435V35.3204M18.1018 29.9143L18.1018 38.0499M13.8428 22.2913L14.6442 22.1652L16.1086 23.0113M27.7384 16.2994L27.9336 16.4133M27.9336 16.4133L27.9335 14.4933M42.9234 12.7808C42.9234 13.0248 42.8705 13.2648 42.7566 13.5089L41.3573 16.4906M42.9234 12.7808V12.7848C42.9234 12.5489 42.8746 12.317 42.7688 12.0811C42.5573 11.6092 42.1464 11.1943 41.5363 10.8404L39.8643 9.87636C39.2501 9.52245 38.5341 9.28246 37.7124 9.16449C36.8948 9.03839 36.0691 9.03839 35.2352 9.16449L30.0732 9.97398L27.9335 14.4933M42.9234 12.7808V18.3536M41.3573 16.4906L36.8012 17.2106H36.7972L33.5308 17.7272M41.3573 16.4906V17.9428M33.5308 17.7272L33.3152 17.6011L27.9335 14.4933M33.5308 17.7272L33.531 20.4974M47.0481 22.0594V21.7381C47.0359 21.5469 46.9871 21.3638 46.9017 21.1767C46.6902 20.7048 46.2793 20.2899 45.6651 19.936L42.9234 18.3536M47.0481 22.0594L47.0563 30.0079V30.016M33.531 20.4974L34.2062 19.0736L41.3573 17.9428M41.3573 17.9428L42.0325 17.837L42.9234 18.3536M18.1018 38.0499L12.9398 38.8594C12.1059 38.9855 11.2801 38.9896 10.4625 38.8675C9.64077 38.7455 8.92492 38.5096 8.31068 38.1557L6.7242 37.2364C6.13844 36.8987 5.73979 36.5001 5.52827 36.0445C5.41844 35.8045 5.36559 35.5645 5.36559 35.3204M5.36559 35.3204V35.4058M47.0563 30.016V30.1462" stroke="#27272A" stroke-opacity="0.25" stroke-linecap="round" stroke-linejoin="round"/>
      </svg>