<svg xmlns="http://www.w3.org/2000/svg" viewBox="0 0 48 48">
        <path d="M0.940186 29.1606V29.1725C0.940186 29.2479 0.952063 29.3233 0.96793 29.3986V28.9266C0.952063 29.0059 0.940186 29.0813 0.940186 29.1606Z" fill="white"/>
<path d="M46.9963 25.1025V32.8182C47.0281 33.0959 46.9329 33.3736 46.7107 33.6512C46.4886 33.9289 46.1514 34.1471 45.7031 34.3137C45.2548 34.4803 44.7272 34.5557 44.1163 34.5359L30.9263 33.9527V26.0188L31.561 26.0466L31.9855 26.0664L44.1163 26.602C44.7272 26.6218 45.2548 26.5464 45.7031 26.3798C46.1514 26.2132 46.4886 25.995 46.7107 25.7174C46.8734 25.515 46.9725 25.3088 46.9963 25.1025Z" fill="white"/>
<path d="M30.9263 26.0188V33.9527L23.9841 40.4149C23.6628 40.7124 23.2542 40.9107 22.7584 41.0099C22.2625 41.1131 21.7587 41.1448 21.243 41.1051C20.7313 41.0694 20.2632 40.9464 19.8466 40.7441C19.4261 40.5379 19.1524 40.2681 19.0215 39.9349L15.8083 32.5365V24.6026L19.0215 32.001C19.1524 32.3342 19.4261 32.604 19.8466 32.8102C20.2632 33.0126 20.7313 33.1355 21.243 33.1712C21.3937 33.1831 21.5445 33.1871 21.6952 33.1871C22.0522 33.1871 22.4093 33.1514 22.7584 33.076C23.2542 32.9769 23.6628 32.7785 23.9841 32.481L30.9263 26.0188Z" fill="white"/>
<path d="M42.9342 10.643V18.5055C42.9302 18.688 42.8667 18.8665 42.7358 19.0529L41.5656 20.719L37.8129 18.1405L42.7358 11.119C42.7874 11.0437 42.831 10.9723 42.8588 10.9009C42.8985 10.8136 42.9223 10.7263 42.9342 10.643Z" fill="white"/>
<path d="M35.2701 21.2981H35.2781L35.286 21.2902L35.2701 21.2981Z" fill="white"/>
<path d="M46.3656 24.0195L41.5656 20.719L37.8129 18.1405L42.7358 11.119C42.7874 11.0437 42.831 10.9723 42.8588 10.9009C42.8985 10.8136 42.9223 10.7263 42.9342 10.643C42.9501 10.4883 42.9223 10.3375 42.8509 10.1907C42.7041 9.88529 42.4542 9.62744 42.0972 9.42513C41.7441 9.21885 41.3038 9.07604 40.7722 8.99273C40.2446 8.90546 39.7051 8.92926 39.1617 9.0562L26.999 11.8965L16.8198 6.96166C16.3041 6.73951 15.8043 6.61653 15.3243 6.5967C14.8443 6.57686 14.3603 6.6324 13.8803 6.75934C13.4003 6.89025 13.0155 7.08463 12.7299 7.34248C12.4403 7.60033 12.3134 7.90579 12.3491 8.25885L13.3527 15.8754L12.3531 16.2324L2.16198 19.882C1.64628 20.0684 1.30514 20.3025 1.13059 20.5921C1.00365 20.7944 0.940186 21.0046 0.940186 21.2109V21.2188C0.940186 21.3021 0.948096 21.3815 0.96793 21.4648C1.0314 21.7623 1.24166 22.0321 1.59472 22.2701C1.95174 22.5121 2.41588 22.6707 2.99506 22.7461L15.8083 24.6026L19.0215 32.001C19.1524 32.3342 19.4261 32.604 19.8466 32.8102C20.2632 33.0126 20.7313 33.1355 21.243 33.1712C21.3937 33.1831 21.5445 33.1871 21.6952 33.1871C22.0522 33.1871 22.4093 33.1514 22.7584 33.076C23.2542 32.9769 23.6628 32.7785 23.9841 32.481L30.9263 26.0188L31.561 26.0466L31.9855 26.0664L44.1163 26.602C44.7272 26.6218 45.2548 26.5464 45.7031 26.3798C46.1514 26.2132 46.4886 25.995 46.7107 25.7174C46.8734 25.515 46.9725 25.3088 46.9963 25.1025L46.9963 24.8843C46.9606 24.6066 46.7504 24.317 46.3656 24.0195ZM34.1038 23.004L32.4456 22.9286L31.561 22.8929L28.0225 22.7382L22.7068 27.6453L20.3187 22.0003L35.286 13.3564L31.561 18.7435L31.5848 18.7593L35.2701 21.2981L35.286 21.2902L35.278 21.3021L37.9875 23.1706L34.1038 23.004Z" fill="white"/>
<path d="M35.286 13.3564L31.561 18.7435V22.8929L28.0225 22.7382L22.7068 27.6453L20.3187 22.0003L35.286 13.3564Z" fill="white"/>
<path d="M37.9875 23.1706L34.1038 23.004L32.4456 22.9286L31.561 22.8929L31.561 18.7633L31.5848 18.7593L35.2701 21.2981L35.278 21.3021L37.9875 23.1706Z" fill="white"/>
<path d="M13.3527 15.8754L12.3531 16.2324L12.3491 16.1928V8.25885L13.3527 15.8754Z" fill="white"/>
<path d="M0.940186 29.1606V29.1725V29.1606Z" fill="white"/>
<path d="M15.8083 24.6026V32.5365L2.99506 30.68C2.41588 30.6046 1.95174 30.4459 1.59472 30.204C1.24166 29.9659 1.0314 29.6962 0.96793 29.3986V28.9266C0.952063 29.0059 0.940186 29.0813 0.940186 29.1606V21.2188C0.940186 21.3021 0.948096 21.3815 0.96793 21.4648C1.0314 21.7623 1.24166 22.0321 1.59472 22.2701C1.95174 22.5121 2.41588 22.6707 2.99506 22.7461L15.8083 24.6026Z" fill="white"/>
<path d="M42.9342 10.643V10.5438V10.643Z" fill="white"/>
<path d="M0.940186 29.1606V29.1725C0.940186 29.2479 0.952063 29.3233 0.96793 29.3986M0.940186 29.1606C0.940186 29.0813 0.952063 29.0059 0.96793 28.9266V29.3986M0.940186 29.1606V21.2188M0.96793 29.3986C1.0314 29.6962 1.24166 29.9659 1.59472 30.204C1.95174 30.4459 2.41588 30.6046 2.99506 30.68L15.8083 32.5365M46.9963 25.1025V32.8182C47.0281 33.0959 46.9329 33.3736 46.7107 33.6512C46.4886 33.9289 46.1514 34.1471 45.7031 34.3137C45.2548 34.4803 44.7272 34.5557 44.1163 34.5359L30.9263 33.9527M46.9963 25.1025C46.9725 25.3088 46.8734 25.515 46.7107 25.7174C46.4886 25.995 46.1514 26.2132 45.7031 26.3798C45.2548 26.5464 44.7272 26.6218 44.1163 26.602L31.9855 26.0664L31.561 26.0466L30.9263 26.0188M46.9963 25.1025L46.9963 24.8843C46.9606 24.6066 46.7504 24.317 46.3656 24.0195L41.5656 20.719M30.9263 33.9527V26.0188M30.9263 33.9527L23.9841 40.4149C23.6628 40.7124 23.2542 40.9107 22.7584 41.0099C22.2625 41.1131 21.7587 41.1448 21.243 41.1051C20.7313 41.0694 20.2632 40.9464 19.8466 40.7441C19.4261 40.5379 19.1524 40.2681 19.0215 39.9349L15.8083 32.5365M30.9263 26.0188L23.9841 32.481C23.6628 32.7785 23.2542 32.9769 22.7584 33.076C22.4093 33.1514 22.0522 33.1871 21.6952 33.1871C21.5445 33.1871 21.3937 33.1831 21.243 33.1712C20.7313 33.1355 20.2632 33.0126 19.8466 32.8102C19.4261 32.604 19.1524 32.3342 19.0215 32.001L15.8083 24.6026M15.8083 32.5365V24.6026M15.8083 24.6026L2.99506 22.7461C2.41588 22.6707 1.95174 22.5121 1.59472 22.2701C1.24166 22.0321 1.0314 21.7623 0.96793 21.4648C0.948096 21.3815 0.940186 21.3021 0.940186 21.2188M42.9342 10.643V18.5055C42.9302 18.688 42.8667 18.8665 42.7358 19.0529L41.5656 20.719M42.9342 10.643C42.9223 10.7263 42.8985 10.8136 42.8588 10.9009C42.831 10.9723 42.7874 11.0437 42.7358 11.119L37.8129 18.1405L41.5656 20.719M42.9342 10.643C42.9501 10.4883 42.9223 10.3375 42.8509 10.1907C42.7041 9.88529 42.4542 9.62744 42.0972 9.42513C41.7441 9.21885 41.3038 9.07604 40.7722 8.99273C40.2446 8.90546 39.7051 8.92926 39.1617 9.0562L26.999 11.8965L16.8198 6.96166C16.3041 6.73951 15.8043 6.61653 15.3243 6.5967C14.8443 6.57686 14.3603 6.6324 13.8803 6.75934C13.4003 6.89025 13.0155 7.08463 12.7299 7.34248C12.4403 7.60033 12.3134 7.90579 12.3491 8.25885M42.9342 10.643V10.5438M35.2701 21.2981H35.2781L35.286 21.2902M35.2701 21.2981L35.286 21.2902M35.2701 21.2981L31.5848 18.7593M35.2701 21.2981L35.278 21.3021M35.286 21.2902L35.278 21.3021M12.3491 8.25885V16.1928L12.3531 16.2324M12.3491 8.25885L13.3527 15.8754L12.3531 16.2324M12.3531 16.2324L2.16198 19.882C1.64628 20.0684 1.30514 20.3025 1.13059 20.5921C1.00365 20.7944 0.940186 21.0046 0.940186 21.2109V21.2188M31.561 22.8929L32.4456 22.9286L34.1038 23.004L37.9875 23.1706L35.278 21.3021M31.561 22.8929L28.0225 22.7382L22.7068 27.6453L20.3187 22.0003L35.286 13.3564L31.561 18.7435M31.561 22.8929V18.7435M31.561 22.8929L31.561 18.7633L31.5848 18.7593M31.561 18.7435L31.5848 18.7593" stroke="#27272A" stroke-opacity="0.25" stroke-linecap="round" stroke-linejoin="round"/>
      </svg>