<svg xmlns="http://www.w3.org/2000/svg" viewBox="0 0 48 48">
        <path d="M28.5892 29.9112C27.8221 29.467 27.0908 29.2652 26.4045 29.31C26.2744 29.319 26.1443 29.3325 26.0232 29.3594C25.5028 29.4626 25.0587 29.7183 24.6953 30.122C24.1121 30.7591 23.372 31.0776 22.4703 31.0731C21.5686 31.0686 20.6041 30.7725 19.5679 30.1759C19.3974 30.0772 19.2269 29.9695 19.0609 29.8573C18.24 29.31 17.455 28.5968 16.7103 27.722C16.0239 26.9235 15.4228 26.0532 14.9069 25.1112C14.7454 24.8151 14.5884 24.5146 14.4449 24.205C13.9918 23.1867 13.431 22.2581 12.7536 21.4282C12.2288 20.7777 11.6636 20.2439 11.0579 19.8177C10.892 19.7011 10.7215 19.5934 10.5465 19.4948C10.6811 19.3108 10.8516 19.1628 11.0579 19.0462C11.0938 19.0192 11.1342 19.0013 11.1746 18.9878L11.3136 18.9205C11.9955 18.6513 12.969 18.6648 14.243 18.9609C16.1271 19.3916 17.8991 20.0913 19.5679 21.0558C21.2366 22.0158 23.0131 23.3706 24.8927 25.1067C26.7768 26.8472 28.006 28.4487 28.5892 29.9112Z" fill="white"/>
<path d="M37.0542 40.2693V45.7422C37.0542 46.2581 36.9016 46.6035 36.5966 46.7785C36.2915 46.949 35.9147 46.9086 35.4661 46.6484L27.517 42.0592C27.0684 41.7991 26.6871 41.4043 26.3865 40.8794C26.0815 40.3546 25.9289 39.8342 25.9289 39.3183V36.9901C25.0003 37.2144 24 37.2144 22.9278 36.9901C21.8557 36.7658 20.7342 36.3172 19.5678 35.6443C18.4284 34.9893 17.3158 34.1415 16.2302 33.1052C15.822 32.7105 15.4228 32.3022 15.0325 31.8716C14.3955 31.1673 13.7899 30.4091 13.2112 29.6017V31.9748C13.2112 32.4906 13.0586 32.8361 12.7536 33.011C12.4486 33.186 12.0717 33.1411 11.6231 32.8809L3.67399 28.2918C3.22539 28.0316 2.84408 27.6413 2.54352 27.1164C2.23847 26.5871 2.08594 26.0667 2.08594 25.5508V20.0779C2.08594 19.0462 2.39548 18.3598 3.01903 18.0189C3.64258 17.6779 4.38726 17.7632 5.26202 18.2656L10.4702 21.2712C10.7035 21.4058 10.9278 21.5673 11.1521 21.7557C11.4347 21.9934 11.7129 22.2761 11.9776 22.5991C12.323 23.0118 12.6145 23.4559 12.8568 23.9269C12.9555 24.1108 13.0497 24.3037 13.1304 24.4966C13.902 26.125 14.8486 27.6009 15.9745 28.9198C16.5039 29.5389 17.0467 30.0951 17.6074 30.5841C18.24 31.1359 18.8949 31.6069 19.5678 31.9972C20.8687 32.7463 22.08 33.1142 23.2059 33.0918C24.3319 33.0738 25.265 32.688 26.0052 31.9299C26.3506 31.6114 26.7544 31.4364 27.2209 31.4005C27.6829 31.3602 28.1674 31.4903 28.6699 31.7819L33.8736 34.7875C34.2953 35.0297 34.6856 35.3303 35.04 35.6936C35.4482 36.0974 35.816 36.5819 36.139 37.1426C36.2018 37.2503 36.2602 37.3579 36.314 37.4656C36.8075 38.4032 37.0542 39.3407 37.0542 40.2693Z" fill="white"/>
<path d="M28.9077 28.4981C29.1006 28.8345 29.3069 29.1486 29.5178 29.4491L28.5892 29.9112C28.006 28.4487 26.7768 26.8472 24.8927 25.1067C23.0131 23.3706 21.2366 22.0158 19.5679 21.0558C17.8991 20.0913 16.1271 19.3916 14.243 18.9609C12.969 18.6648 11.9955 18.6513 11.3136 18.9205L16.5622 16.2873C17.4146 17.5837 18.415 18.5662 19.5679 19.2301C20.5054 19.7684 21.3308 19.9927 22.0576 19.903C22.3806 19.8671 22.6856 19.7594 22.9682 19.5979L23.2867 19.4409L28.7641 16.7C29.8452 17.3415 30.9712 18.1444 32.1376 19.1089L29.0781 20.6387L28.9077 20.7239C27.9791 21.2353 27.517 22.267 27.517 23.8192C27.517 24.2364 27.5529 24.6536 27.6202 25.0798C27.7458 25.8379 27.9836 26.605 28.3335 27.3856C28.4994 27.7534 28.6923 28.1257 28.9077 28.4981Z" fill="white"/>
<path d="M19.6126 6.19382L16.3603 7.82223L16.1898 7.90746C15.2657 8.42335 14.7992 9.45513 14.7992 11.0073C14.7992 11.42 14.8351 11.8372 14.9023 12.2544C15.0279 13.0215 15.2702 13.7976 15.6246 14.5826C15.6784 14.7082 15.7367 14.8293 15.7995 14.9549L10.2504 17.7273C10.5779 17.5344 10.847 17.2787 11.0579 16.9557C11.4347 16.386 11.6231 15.6144 11.6231 14.6409C11.6231 14.3762 11.6097 14.1161 11.5828 13.8514C11.5828 13.8155 11.5738 13.7796 11.5693 13.7437C11.4302 12.4921 10.9906 11.2271 10.2504 9.95307C9.33528 8.37401 8.20477 7.19868 6.85449 6.41812C5.60739 5.69588 4.53976 5.54331 3.64705 5.95602L12.4486 1.55529C13.3727 1.0394 14.4986 1.16503 15.8265 1.93213C17.1767 2.71269 18.3072 3.88802 19.2224 5.46709C19.3615 5.70933 19.4915 5.95158 19.6126 6.19382Z" fill="white"/>
<path d="M24.3364 16.5116C24.3364 17.8574 23.9776 18.8128 23.2643 19.3915C23.1701 19.4678 23.0714 19.5351 22.9682 19.5979C22.6856 19.7594 22.3806 19.8671 22.0576 19.903C21.3308 19.9927 20.5054 19.7684 19.5679 19.2301C18.415 18.5662 17.4146 17.5837 16.5622 16.2873C16.4366 16.0944 16.311 15.8925 16.1899 15.6861C16.0464 15.4439 15.9162 15.1971 15.7995 14.9549C15.7367 14.8293 15.6784 14.7082 15.6246 14.5826C15.2702 13.7976 15.0279 13.0215 14.9023 12.2544C14.8351 11.8372 14.7992 11.42 14.7992 11.0073C14.7992 9.45513 15.2657 8.42335 16.1898 7.90746L16.3603 7.82223C17.2575 7.41401 18.3252 7.56648 19.5679 8.28424C19.8908 8.46817 20.2004 8.67901 20.4964 8.90779C21.4475 9.64798 22.2729 10.6214 22.9682 11.8192C23.529 12.7882 23.9148 13.7527 24.1301 14.7127C24.2692 15.3138 24.3364 15.9149 24.3364 16.5116Z" fill="white"/>
<path d="M33.3084 12.0256C33.3084 13.5463 32.8508 14.5736 31.9402 15.1119L28.7641 16.7L23.2867 19.4409L22.9682 19.5979C23.0714 19.5351 23.1701 19.4678 23.2643 19.3915C23.9776 18.8128 24.3364 17.8574 24.3364 16.5116C24.3364 15.9149 24.2692 15.3138 24.1301 14.7127C23.9148 13.7527 23.529 12.7882 22.9682 11.8192C22.2729 10.6214 21.4475 9.64798 20.4964 8.90779C20.2004 8.67901 19.8908 8.46817 19.5679 8.28424C18.3252 7.56648 17.2575 7.41401 16.3603 7.82223L19.6126 6.19382L25.1619 3.42148C26.0905 2.91008 27.2164 3.03567 28.5398 3.79829C29.8946 4.57887 31.025 5.75868 31.9402 7.33326C32.8508 8.91232 33.3084 10.4734 33.3084 12.0256Z" fill="white"/>
<path d="M37.0542 29.3235C37.0542 30.8442 36.5966 31.8715 35.6814 32.4099C35.4347 32.5534 35.1745 32.6477 34.9009 32.697C34.5644 32.7598 34.2011 32.7463 33.8108 32.6611C33.3398 32.5624 32.8328 32.356 32.2855 32.042C31.2403 31.4409 30.3163 30.5751 29.5178 29.4491C29.3069 29.1486 29.1006 28.8345 28.9077 28.4981C28.6923 28.1257 28.4994 27.7534 28.3335 27.3856C27.9836 26.605 27.7458 25.8379 27.6202 25.0798C27.5529 24.6536 27.517 24.2364 27.517 23.8192C27.517 22.267 27.9791 21.2353 28.9077 20.7239L29.0781 20.6387C29.9753 20.226 31.0429 20.3784 32.2855 21.1007C33.6358 21.8813 34.7708 23.0566 35.6814 24.6356C35.7173 24.6984 35.7532 24.7657 35.7891 24.8285C36.0134 25.2233 36.2063 25.6226 36.3678 26.0219C36.4934 26.3269 36.6056 26.6319 36.6908 26.937C36.933 27.7355 37.0542 28.534 37.0542 29.3235Z" fill="white"/>
<path d="M46.0262 24.8376C46.0262 26.3583 45.5685 27.3856 44.6534 27.9239L41.4773 29.512L35.6814 32.4099C36.5966 31.8715 37.0542 30.8442 37.0542 29.3235C37.0542 28.534 36.933 27.7355 36.6908 26.937C36.6056 26.6319 36.4934 26.3269 36.3678 26.0219C36.2063 25.6226 36.0134 25.2233 35.7891 24.8285C35.7532 24.7657 35.7173 24.6984 35.6814 24.6356C34.7708 23.0566 33.6358 21.8813 32.2855 21.1007C31.0429 20.3784 29.9753 20.226 29.0781 20.6387L32.1376 19.1089L37.8795 16.2379C38.8081 15.722 39.9341 15.8476 41.2575 16.6148C42.6078 17.3953 43.7427 18.5706 44.6534 20.1497C45.5685 21.7243 46.0262 23.2899 46.0262 24.8376Z" fill="white"/>
<path d="M11.6231 14.6409C11.6231 15.6144 11.4347 16.386 11.0579 16.9557C10.847 17.2787 10.5779 17.5344 10.2504 17.7273C9.33528 18.2611 8.20482 18.14 6.85454 17.3594C6.48668 17.1486 6.13678 16.9063 5.80033 16.6282C4.92109 15.9105 4.14502 14.9729 3.47661 13.8155C2.54801 12.214 2.08594 10.6574 2.08594 9.13662C2.08594 7.61587 2.54801 6.5527 3.47661 6.0413L3.64705 5.95602C4.53976 5.54331 5.60739 5.69588 6.85449 6.41812C8.20477 7.19868 9.33528 8.37401 10.2504 9.95307C10.9906 11.2271 11.4302 12.4921 11.5693 13.7437C11.5693 13.7796 11.5783 13.8155 11.5828 13.8514C11.6097 14.1161 11.6231 14.3762 11.6231 14.6409Z" fill="white"/>
<path d="M46.0262 35.7833V41.2562C46.0262 41.7721 45.8736 42.1175 45.5686 42.2925L45.4744 42.3374L36.5966 46.7785C36.9016 46.6035 37.0542 46.2581 37.0542 45.7422V40.2693C37.0542 39.3407 36.8075 38.4032 36.314 37.4656C36.2602 37.3579 36.2018 37.2503 36.139 37.1426C35.816 36.5819 35.4482 36.0974 35.04 35.6936C34.6856 35.3303 34.2953 35.0297 33.8736 34.7875L28.6699 31.7819C28.1674 31.4903 27.6829 31.3602 27.2209 31.4005C26.7544 31.4364 26.3506 31.6114 26.0052 31.9299C25.265 32.688 24.3319 33.0738 23.2059 33.0918C22.08 33.1142 20.8687 32.7463 19.5678 31.9972C18.8949 31.6069 18.24 31.1359 17.6074 30.5841C17.0467 30.0951 16.5039 29.5389 15.9745 28.9198C14.8486 27.6009 13.902 26.125 13.1304 24.4966C13.0497 24.3037 12.9555 24.1108 12.8568 23.9269C12.6145 23.4559 12.323 23.0118 11.9776 22.5991C11.7129 22.2761 11.4347 21.9934 11.1521 21.7557C10.9278 21.5673 10.7035 21.4058 10.4702 21.2712L5.26202 18.2656C4.38726 17.7632 3.64258 17.6779 3.01903 18.0189L5.80033 16.6282C6.13678 16.9063 6.48668 17.1486 6.85454 17.3594C8.20482 18.14 9.33528 18.2611 10.2504 17.7273L15.7995 14.9549C15.9162 15.1971 16.0464 15.4439 16.1899 15.6861C16.311 15.8925 16.4366 16.0944 16.5622 16.2873L11.3136 18.9205L11.1746 18.9878C11.1342 19.0013 11.0938 19.0192 11.0579 19.0462C10.8516 19.1628 10.6811 19.3108 10.5465 19.4948C10.7215 19.5934 10.892 19.7011 11.0579 19.8177C11.6636 20.2439 12.2288 20.7777 12.7536 21.4282C13.431 22.2581 13.9918 23.1867 14.4449 24.205C14.5884 24.5146 14.7454 24.8151 14.9069 25.1112C15.4228 26.0532 16.0239 26.9235 16.7103 27.722C17.455 28.5968 18.24 29.31 19.0609 29.8573C19.2269 29.9695 19.3974 30.0772 19.5679 30.1759C20.6041 30.7725 21.5686 31.0686 22.4703 31.0731C23.372 31.0776 24.1121 30.7591 24.6953 30.122C25.0587 29.7183 25.5028 29.4626 26.0232 29.3594C26.1443 29.3325 26.2744 29.319 26.4045 29.31C27.0908 29.2652 27.8221 29.467 28.5892 29.9112L29.5178 29.4491C30.3163 30.5751 31.2403 31.4409 32.2855 32.042C32.8328 32.356 33.3398 32.5624 33.8108 32.6611C34.2011 32.7463 34.5644 32.7598 34.9009 32.697C35.1745 32.6477 35.4347 32.5534 35.6814 32.4099L41.4773 29.512L42.8456 30.3015C43.7473 30.8174 44.5009 31.6069 45.111 32.6566C45.7211 33.7063 46.0262 34.7471 46.0262 35.7833Z" fill="white"/>
<path d="M15.0325 31.8716L12.7536 33.011L15.0325 31.8716Z" fill="white"/>
<path d="M28.5892 29.9112C27.8221 29.467 27.0908 29.2652 26.4045 29.31C26.2744 29.319 26.1443 29.3325 26.0232 29.3594C25.5028 29.4626 25.0587 29.7183 24.6953 30.122C24.1121 30.7591 23.372 31.0776 22.4703 31.0731C21.5686 31.0686 20.6041 30.7725 19.5679 30.1759C19.3974 30.0772 19.2269 29.9695 19.0609 29.8573C18.24 29.31 17.455 28.5968 16.7103 27.722C16.0239 26.9235 15.4228 26.0532 14.9069 25.1112C14.7454 24.8151 14.5884 24.5146 14.4449 24.205C13.9918 23.1867 13.431 22.2581 12.7536 21.4282C12.2288 20.7777 11.6636 20.2439 11.0579 19.8177C10.892 19.7011 10.7215 19.5934 10.5465 19.4948C10.6811 19.3108 10.8516 19.1628 11.0579 19.0462C11.0938 19.0192 11.1342 19.0013 11.1746 18.9878L11.3136 18.9205M28.5892 29.9112C28.006 28.4487 26.7768 26.8472 24.8927 25.1067C23.0131 23.3706 21.2366 22.0158 19.5679 21.0558C17.8991 20.0913 16.1271 19.3916 14.243 18.9609C12.969 18.6648 11.9955 18.6513 11.3136 18.9205M28.5892 29.9112L29.5178 29.4491M11.3136 18.9205L16.5622 16.2873M36.5966 46.7785C36.9016 46.6035 37.0542 46.2581 37.0542 45.7422V40.2693C37.0542 39.3407 36.8075 38.4032 36.314 37.4656C36.2602 37.3579 36.2018 37.2503 36.139 37.1426C35.816 36.5819 35.4482 36.0974 35.04 35.6936C34.6856 35.3303 34.2953 35.0297 33.8736 34.7875L28.6699 31.7819C28.1674 31.4903 27.6829 31.3602 27.2209 31.4005C26.7543 31.4364 26.3506 31.6114 26.0052 31.9299C25.265 32.688 24.3319 33.0738 23.2059 33.0918C22.08 33.1142 20.8687 32.7463 19.5678 31.9972C18.8949 31.6069 18.24 31.1359 17.6074 30.5841C17.0467 30.0951 16.5039 29.5389 15.9745 28.9198C14.8486 27.6009 13.902 26.125 13.1304 24.4966C13.0497 24.3037 12.9555 24.1108 12.8568 23.9269C12.6145 23.4559 12.323 23.0118 11.9776 22.5991C11.7129 22.2761 11.4347 21.9934 11.1521 21.7557C10.9278 21.5673 10.7035 21.4058 10.4702 21.2712L5.26202 18.2656C4.38726 17.7632 3.64258 17.6779 3.01903 18.0189M36.5966 46.7785C36.2915 46.949 35.9147 46.9086 35.4661 46.6484L27.517 42.0592C27.0684 41.7991 26.6871 41.4043 26.3865 40.8794C26.0815 40.3546 25.9289 39.8342 25.9289 39.3183V36.9901C25.0003 37.2144 24 37.2144 22.9278 36.9901C21.8557 36.7658 20.7342 36.3172 19.5678 35.6443C18.4284 34.9893 17.3158 34.1415 16.2302 33.1052C15.822 32.7105 15.4228 32.3022 15.0325 31.8716M36.5966 46.7785L45.4744 42.3374L45.5686 42.2925C45.8736 42.1175 46.0262 41.7721 46.0262 41.2562V35.7833C46.0262 34.7471 45.7211 33.7063 45.111 32.6566C44.5009 31.6069 43.7473 30.8174 42.8456 30.3015L41.4773 29.512M15.0325 31.8716C14.3955 31.1673 13.7899 30.4091 13.2112 29.6017V31.9748C13.2112 32.4906 13.0586 32.8361 12.7536 33.011M15.0325 31.8716L12.7536 33.011M12.7536 33.011C12.4486 33.186 12.0717 33.1411 11.6231 32.8809L3.67399 28.2918C3.22539 28.0316 2.84408 27.6413 2.54352 27.1164C2.23847 26.5871 2.08594 26.0667 2.08594 25.5508V20.0779C2.08594 19.0462 2.39548 18.3598 3.01903 18.0189M3.01903 18.0189L5.80033 16.6282M29.5178 29.4491C29.3069 29.1486 29.1006 28.8345 28.9077 28.4981C28.6923 28.1257 28.4994 27.7534 28.3335 27.3856C27.9836 26.605 27.7458 25.8379 27.6202 25.0798C27.5529 24.6536 27.517 24.2364 27.517 23.8192C27.517 22.267 27.9791 21.2353 28.9077 20.7239L29.0781 20.6387M29.5178 29.4491C30.3163 30.5751 31.2403 31.4409 32.2855 32.042C32.8328 32.356 33.3398 32.5624 33.8108 32.6611C34.2011 32.7463 34.5644 32.7598 34.9009 32.697C35.1745 32.6477 35.4347 32.5534 35.6814 32.4099M16.5622 16.2873C17.4146 17.5837 18.415 18.5662 19.5679 19.2301C20.5054 19.7684 21.3308 19.9927 22.0576 19.903C22.3806 19.8671 22.6856 19.7594 22.9682 19.5979M16.5622 16.2873C16.4366 16.0944 16.311 15.8925 16.1899 15.6861C16.0464 15.4439 15.9162 15.1971 15.7995 14.9549M22.9682 19.5979L23.2867 19.4409L28.7641 16.7M22.9682 19.5979C23.0714 19.5351 23.1701 19.4678 23.2643 19.3915C23.9776 18.8128 24.3364 17.8574 24.3364 16.5116C24.3364 15.9149 24.2692 15.3138 24.1301 14.7127C23.9148 13.7527 23.529 12.7882 22.9682 11.8192C22.2729 10.6214 21.4475 9.64798 20.4964 8.90779C20.2004 8.67901 19.8908 8.46817 19.5679 8.28424C18.3252 7.56648 17.2575 7.41401 16.3603 7.82223M28.7641 16.7C29.8452 17.3415 30.9712 18.1444 32.1376 19.1089M28.7641 16.7L31.9402 15.1119C32.8508 14.5736 33.3084 13.5463 33.3084 12.0256C33.3084 10.4734 32.8508 8.91232 31.9402 7.33326C31.025 5.75868 29.8946 4.57887 28.5398 3.79829C27.2164 3.03567 26.0905 2.91008 25.1619 3.42148L19.6126 6.19382M32.1376 19.1089L29.0781 20.6387M32.1376 19.1089L37.8795 16.2379C38.8081 15.722 39.9341 15.8476 41.2575 16.6148C42.6078 17.3953 43.7427 18.5706 44.6534 20.1497C45.5685 21.7243 46.0262 23.2899 46.0262 24.8376C46.0262 26.3583 45.5685 27.3856 44.6534 27.9239L41.4773 29.512M29.0781 20.6387C29.9753 20.226 31.0429 20.3784 32.2855 21.1007C33.6358 21.8813 34.7708 23.0566 35.6814 24.6356C35.7173 24.6984 35.7532 24.7657 35.7891 24.8285C36.0134 25.2233 36.2063 25.6226 36.3678 26.0219C36.4934 26.3269 36.6056 26.6319 36.6908 26.937C36.933 27.7355 37.0542 28.534 37.0542 29.3235C37.0542 30.8442 36.5966 31.8715 35.6814 32.4099M19.6126 6.19382L16.3603 7.82223M19.6126 6.19382C19.4915 5.95158 19.3615 5.70933 19.2224 5.46709C18.3072 3.88802 17.1767 2.71269 15.8265 1.93213C14.4986 1.16503 13.3727 1.0394 12.4486 1.55529L3.64705 5.95602M16.3603 7.82223L16.1898 7.90746C15.2657 8.42335 14.7992 9.45513 14.7992 11.0073C14.7992 11.42 14.8351 11.8372 14.9023 12.2544C15.0279 13.0215 15.2702 13.7976 15.6246 14.5826C15.6784 14.7082 15.7367 14.8293 15.7995 14.9549M15.7995 14.9549L10.2504 17.7273M10.2504 17.7273C10.5779 17.5344 10.847 17.2787 11.0579 16.9557C11.4347 16.386 11.6231 15.6144 11.6231 14.6409C11.6231 14.3762 11.6097 14.1161 11.5828 13.8514M10.2504 17.7273C9.33528 18.2611 8.20482 18.14 6.85454 17.3594C6.48668 17.1486 6.13678 16.9063 5.80033 16.6282M11.5828 13.8514C11.5828 13.8155 11.5738 13.7796 11.5693 13.7437M11.5828 13.8514C11.5783 13.8155 11.5693 13.7796 11.5693 13.7437M11.5693 13.7437C11.4302 12.4921 10.9906 11.2271 10.2504 9.95307C9.33528 8.37401 8.20477 7.19868 6.85449 6.41812C5.60739 5.69588 4.53976 5.54331 3.64705 5.95602M3.64705 5.95602L3.47661 6.0413C2.54801 6.5527 2.08594 7.61587 2.08594 9.13662C2.08594 10.6574 2.54801 12.214 3.47661 13.8155C4.14502 14.9729 4.92109 15.9105 5.80033 16.6282M35.6814 32.4099L41.4773 29.512" stroke="#27272A" stroke-opacity="0.25" stroke-linecap="round" stroke-linejoin="round"/>
      </svg>