<svg xmlns="http://www.w3.org/2000/svg" viewBox="0 0 48 48">
        <path d="M36.0706 18.8809C35.3977 18.4903 34.5929 18.2974 33.6518 18.2927C32.7153 18.2927 31.9106 18.4856 31.2424 18.8715C30.5742 19.2574 30.2447 19.7186 30.2447 20.2598C30.2447 20.8056 30.5883 21.2668 31.2566 21.6574C31.9295 22.0433 32.7389 22.2409 33.6753 22.2409C34.6118 22.2409 35.4166 22.0527 36.0848 21.6668C36.753 21.2809 37.0871 20.8151 37.0824 20.2739C37.0824 19.7327 36.7436 19.2668 36.0706 18.8809Z" fill="white"/>
<path d="M45.0777 14.4245C43.9529 12.8056 42.2777 11.3515 40.0424 10.0621C37.8118 8.77268 35.2941 7.80327 32.4894 7.15857C29.68 6.50916 26.833 6.18445 23.9342 6.17974C21.0401 6.17503 18.193 6.49033 15.393 7.12563C12.593 7.76563 10.0848 8.72092 7.86834 10.0056C5.64716 11.2856 3.98595 12.735 2.88478 14.3491C1.7789 15.9632 1.23302 17.6103 1.24243 19.2809C1.25184 20.8621 1.75536 22.4198 2.76242 23.9492C2.81418 24.0386 2.8753 24.128 2.93648 24.2174C4.06118 25.8362 5.73657 27.2903 7.96716 28.5797C9.18598 29.2809 10.4894 29.8927 11.8777 30.4009C13.0353 30.8292 14.2494 31.1915 15.5247 31.488C18.32 32.1327 21.1671 32.4574 24.0565 32.4668H24.0801C26.9413 32.4715 29.7554 32.1656 32.5224 31.5351C32.5554 31.5303 32.5883 31.5256 32.6212 31.5162C34.1648 31.1633 35.6189 30.7162 36.9883 30.1609C38.0989 29.7233 39.153 29.215 40.1459 28.6409C42.3624 27.3562 44.0236 25.9115 45.1295 24.2927C45.1719 24.2315 45.2142 24.1656 45.2519 24.1045C46.2636 22.5656 46.7718 20.9985 46.7718 19.4032V19.3609C46.7624 17.6903 46.1977 16.0433 45.0777 14.4245ZM19.9483 12.3491C20.6165 11.9632 21.4165 11.7703 22.3577 11.7703C23.2941 11.7703 24.0989 11.968 24.7718 12.3586C25.4448 12.7445 25.7836 13.2103 25.7883 13.7515C25.7883 14.2927 25.4542 14.7585 24.786 15.1444C24.4283 15.3515 24.033 15.5021 23.5953 15.5962C23.2189 15.6809 22.8142 15.7186 22.3765 15.7186C22.0942 15.7186 21.8259 15.6998 21.5718 15.6621C20.9695 15.5821 20.433 15.4033 19.9625 15.1351C19.2895 14.7445 18.9506 14.2833 18.9506 13.7374C18.9459 13.1962 19.2801 12.735 19.9483 12.3491ZM27.7836 25.7609C27.6471 26.0527 27.3412 26.2456 26.8612 26.3398C24.7718 26.6127 22.6918 26.5891 20.6259 26.2597C18.5601 25.9303 16.7435 25.3139 15.1859 24.4151C13.6518 23.5303 12.5929 22.4856 12.0094 21.2856C11.4306 20.0856 11.3742 18.8809 11.8495 17.6762C11.8777 17.6291 11.9106 17.5821 11.9483 17.5445C12.1271 17.3374 12.4283 17.2056 12.8518 17.1397C12.9836 17.1209 13.1106 17.1115 13.233 17.1115H13.2424C13.5953 17.1115 13.9106 17.1915 14.1836 17.3515L27.4165 24.9938C27.7929 25.2103 27.9153 25.4644 27.7836 25.7609ZM36.0848 21.6668C35.4166 22.0527 34.6118 22.2456 33.6753 22.2409C32.7389 22.2409 31.9295 22.0433 31.2566 21.6574C30.5883 21.2668 30.2494 20.8056 30.2447 20.2598C30.2447 19.7186 30.5742 19.2574 31.2424 18.8715C31.9106 18.4856 32.7153 18.2927 33.6518 18.2927C34.5929 18.2974 35.3977 18.4903 36.0706 18.8809C36.7436 19.2668 37.0824 19.7327 37.0824 20.2739C37.0871 20.8151 36.753 21.2809 36.0848 21.6668Z" fill="white"/>
<path d="M25.7883 13.7515C25.7883 14.2927 25.4542 14.7585 24.786 15.1444C24.4283 15.3515 24.033 15.5021 23.5953 15.5962C23.2189 15.6809 22.8142 15.7186 22.3765 15.7186C22.0942 15.7186 21.8259 15.6998 21.5718 15.6621C20.9695 15.5821 20.433 15.4033 19.9625 15.1351C19.2895 14.7445 18.9506 14.2833 18.9506 13.7374C18.9459 13.1962 19.2801 12.735 19.9483 12.3491C20.6165 11.9632 21.4165 11.7703 22.3577 11.7703C23.2941 11.7703 24.0989 11.968 24.7718 12.3586C25.4448 12.7445 25.7836 13.2103 25.7883 13.7515Z" fill="white"/>
<path d="M27.7836 25.7609C27.6471 26.0527 27.3412 26.2456 26.8612 26.3398C24.7718 26.6127 22.6918 26.5891 20.6259 26.2597C18.5601 25.9303 16.7435 25.3139 15.1859 24.4151C13.6518 23.5303 12.5929 22.4856 12.0094 21.2856C11.4306 20.0856 11.3742 18.8809 11.8495 17.6762C11.8777 17.6291 11.9106 17.5821 11.9483 17.5445C12.1271 17.3374 12.4283 17.2056 12.8518 17.1397C12.9836 17.1209 13.1106 17.1115 13.233 17.1115H13.2424C13.5953 17.1115 13.9106 17.1915 14.1836 17.3515L27.4165 24.9938C27.7929 25.2103 27.9153 25.4644 27.7836 25.7609Z" fill="white"/>
<path d="M46.7718 19.4032V28.7727C46.7812 30.448 46.2306 32.0903 45.1295 33.7045C44.0236 35.3233 42.3624 36.7679 40.1459 38.0527C37.9248 39.3327 35.4165 40.2927 32.6212 40.928C29.8212 41.568 26.9742 41.8833 24.0801 41.8786C21.1813 41.8692 18.3294 41.5445 15.5247 40.8998C12.72 40.2503 10.2025 39.2809 7.96716 37.9915C5.73657 36.7021 4.06118 35.248 2.93647 33.6292C1.81647 32.0103 1.25184 30.3633 1.24242 28.6927L1.24243 19.2809C1.25184 20.8621 1.75536 22.4198 2.76242 23.9492C2.81418 24.0386 2.8753 24.128 2.93648 24.2174C4.06118 25.8362 5.73657 27.2903 7.96716 28.5797C9.18598 29.2809 10.4894 29.8927 11.8777 30.4009C13.0353 30.8292 14.2494 31.1915 15.5247 31.488C18.32 32.1327 21.1671 32.4574 24.0565 32.4668H24.0801C26.9413 32.4715 29.7554 32.1656 32.5224 31.5351C32.5554 31.5303 32.5883 31.5256 32.6212 31.5162C34.1648 31.1633 35.6189 30.7162 36.9883 30.1609C38.0989 29.7233 39.153 29.215 40.1459 28.6409C42.3624 27.3562 44.0236 25.9115 45.1295 24.2927C45.1719 24.2315 45.2142 24.1656 45.2519 24.1045C46.2636 22.5656 46.7718 20.9985 46.7718 19.4032Z" fill="white"/>
<path d="M30.2447 20.2598C30.2447 19.7186 30.5742 19.2574 31.2424 18.8715C31.9106 18.4856 32.7153 18.2927 33.6518 18.2927C34.5929 18.2974 35.3977 18.4903 36.0706 18.8809C36.7436 19.2668 37.0824 19.7327 37.0824 20.2739C37.0871 20.8151 36.753 21.2809 36.0848 21.6668M30.2447 20.2598C30.2447 20.8056 30.5883 21.2668 31.2566 21.6574M30.2447 20.2598C30.2494 20.8056 30.5883 21.2668 31.2566 21.6574M31.2566 21.6574C31.9295 22.0433 32.7389 22.2409 33.6753 22.2409M33.6753 22.2409C34.6118 22.2409 35.4166 22.0527 36.0848 21.6668M33.6753 22.2409C34.6118 22.2456 35.4166 22.0527 36.0848 21.6668M1.24243 19.2809C1.23302 17.6103 1.7789 15.9632 2.88478 14.3491C3.98595 12.735 5.64716 11.2856 7.86834 10.0056C10.0848 8.72092 12.593 7.76563 15.393 7.12563C18.193 6.49033 21.0401 6.17503 23.9342 6.17974C26.833 6.18445 29.68 6.50916 32.4894 7.15857C35.2941 7.80327 37.8118 8.77268 40.0424 10.0621C42.2777 11.3515 43.9529 12.8056 45.0777 14.4245C46.1977 16.0433 46.7624 17.6903 46.7718 19.3609V19.4032M1.24243 19.2809C1.25184 20.8621 1.75536 22.4198 2.76242 23.9492C2.81418 24.0386 2.8753 24.128 2.93648 24.2174C4.06118 25.8362 5.73657 27.2903 7.96716 28.5797C9.18598 29.2809 10.4894 29.8927 11.8777 30.4009C13.0353 30.8292 14.2494 31.1915 15.5247 31.488C18.32 32.1327 21.1671 32.4574 24.0565 32.4668H24.0801C26.9413 32.4715 29.7554 32.1656 32.5224 31.5351C32.5554 31.5303 32.5883 31.5256 32.6212 31.5162C34.1648 31.1633 35.6189 30.7162 36.9883 30.1609C38.0989 29.7233 39.153 29.215 40.1459 28.6409C42.3624 27.3562 44.0236 25.9115 45.1295 24.2927C45.1719 24.2315 45.2142 24.1656 45.2519 24.1045C46.2636 22.5656 46.7718 20.9985 46.7718 19.4032M1.24243 19.2809L1.24242 28.6927C1.25184 30.3633 1.81647 32.0103 2.93647 33.6292C4.06118 35.248 5.73657 36.7021 7.96716 37.9915C10.2025 39.2809 12.72 40.2503 15.5247 40.8998C18.3294 41.5445 21.1813 41.8692 24.0801 41.8786C26.9742 41.8833 29.8212 41.568 32.6212 40.928C35.4165 40.2927 37.9248 39.3327 40.1459 38.0527C42.3624 36.7679 44.0236 35.3233 45.1295 33.7045C46.2306 32.0903 46.7812 30.448 46.7718 28.7727V19.4032M19.9483 12.3491C20.6165 11.9632 21.4165 11.7703 22.3577 11.7703C23.2941 11.7703 24.0989 11.968 24.7718 12.3586C25.4448 12.7445 25.7836 13.2103 25.7883 13.7515C25.7883 14.2927 25.4542 14.7585 24.786 15.1444C24.4283 15.3515 24.033 15.5021 23.5953 15.5962C23.2189 15.6809 22.8142 15.7186 22.3765 15.7186C22.0942 15.7186 21.8259 15.6998 21.5718 15.6621C20.9695 15.5821 20.433 15.4033 19.9625 15.1351C19.2895 14.7445 18.9506 14.2833 18.9506 13.7374C18.9459 13.1962 19.2801 12.735 19.9483 12.3491ZM27.7836 25.7609C27.6471 26.0527 27.3412 26.2456 26.8612 26.3398C24.7718 26.6127 22.6918 26.5891 20.6259 26.2597C18.5601 25.9303 16.7435 25.3139 15.1859 24.4151C13.6518 23.5303 12.5929 22.4856 12.0094 21.2856C11.4306 20.0856 11.3742 18.8809 11.8495 17.6762C11.8777 17.6291 11.9106 17.5821 11.9483 17.5445C12.1271 17.3374 12.4283 17.2056 12.8518 17.1397C12.9836 17.1209 13.1106 17.1115 13.233 17.1115H13.2424C13.5953 17.1115 13.9106 17.1915 14.1836 17.3515L27.4165 24.9938C27.7929 25.2103 27.9153 25.4644 27.7836 25.7609Z" stroke="#27272A" stroke-opacity="0.25" stroke-linecap="round" stroke-linejoin="round"/>
      </svg>