<svg xmlns="http://www.w3.org/2000/svg" viewBox="0 0 48 48">
        <path d="M30.9221 7.27039V17.3655C30.9271 17.7192 30.7048 18.0224 30.2551 18.2801L25.5157 21.0135C25.0711 21.2712 24.5456 21.4026 23.9342 21.4026C23.3279 21.4026 22.8024 21.2712 22.3477 21.0085L17.5831 18.2548C17.1334 17.9971 16.9061 17.6939 16.9061 17.3403V7.23502C16.9061 7.58871 17.1334 7.89187 17.5831 8.14955L22.3477 10.9032C22.8024 11.1659 23.3279 11.2923 23.9342 11.2973C24.5456 11.2973 25.0711 11.1659 25.5157 10.9083L30.2551 8.17481C30.6997 7.92218 30.9221 7.61902 30.9221 7.27039Z" fill="white"/>
<path d="M30.2451 6.34579C29.7954 6.0881 29.2649 5.95673 28.6585 5.95168C28.0522 5.95168 27.5268 6.08305 27.0771 6.34073L23.9192 8.16473L20.7411 6.33063C20.2914 6.06789 19.7609 5.93652 19.1545 5.93652C18.5482 5.93652 18.0228 6.06284 17.5731 6.32052C17.1234 6.58326 16.901 6.88639 16.9061 7.23502C16.9061 7.58871 17.1334 7.89187 17.5831 8.14955L22.3477 10.9032C22.8024 11.1659 23.3279 11.2923 23.9342 11.2973C24.5456 11.2973 25.0711 11.1659 25.5157 10.9083L30.2551 8.17481C30.6997 7.92218 30.9221 7.61902 30.9221 7.27039L30.9221 7.26031C30.9221 6.91168 30.6948 6.60347 30.2451 6.34579Z" fill="white"/>
<path d="M10.3933 19.1138V19.1239C10.3933 19.4675 10.171 19.7757 9.72633 20.0283L4.99202 22.7618C4.54234 23.0195 4.01686 23.1508 3.41055 23.1458C2.79918 23.1458 2.2737 23.0144 1.82401 22.7567C1.37433 22.494 1.14697 22.1908 1.14192 21.8422C1.14192 21.4885 1.36424 21.1854 1.81393 20.9277L4.97182 19.1037L1.7937 17.2696C1.34401 17.0068 1.11666 16.7037 1.11666 16.3551C1.11161 16.0014 1.33393 15.6982 1.78361 15.4405C2.22824 15.1828 2.75874 15.0515 3.36506 15.0515C3.97137 15.0515 4.50191 15.1828 4.95159 15.4456L9.71623 18.1993C10.1659 18.4569 10.3933 18.7652 10.3933 19.1138Z" fill="white"/>
<path d="M31.0534 31.038C31.0534 31.3917 30.8311 31.6948 30.3865 31.9525C29.9368 32.2102 29.4113 32.3416 28.7999 32.3365C28.1936 32.3365 27.6681 32.2052 27.2184 31.9475L24.0404 30.1134L20.8825 31.9374C20.4328 32.1951 19.9073 32.3214 19.2959 32.3214C18.6845 32.3214 18.1641 32.19 17.7144 31.9323C17.2597 31.6696 17.0374 31.3664 17.0324 31.0127C17.0324 30.6641 17.2547 30.3609 17.7043 30.1033L22.4387 27.3647C22.8883 27.107 23.4138 26.9807 24.0201 26.9807C24.6264 26.9807 25.157 27.1121 25.6067 27.3698L30.3763 30.1235C30.826 30.3862 31.0484 30.6894 31.0534 31.038Z" fill="white"/>
<path d="M46.8431 21.923C46.8431 21.9937 46.833 22.0695 46.8127 22.1352C46.742 22.3979 46.5298 22.6354 46.1761 22.8375C45.7264 23.0952 45.201 23.2215 44.5946 23.2215C43.9883 23.2215 43.4578 23.0902 43.0081 22.8325L38.2384 20.0788C37.7887 19.8161 37.5664 19.5129 37.5614 19.1643C37.5614 18.8106 37.7837 18.5074 38.2283 18.2497L42.9677 15.5163C43.4174 15.2535 43.9429 15.1272 44.5492 15.1272C45.1555 15.1272 45.686 15.2586 46.1357 15.5213C46.5854 15.779 46.8127 16.0872 46.8127 16.4358V16.4459C46.8127 16.7895 46.5904 17.0977 46.1458 17.3504L42.9879 19.1744L46.166 21.0085C46.5197 21.2106 46.737 21.4481 46.8127 21.7108C46.833 21.7765 46.8431 21.8523 46.8431 21.923Z" fill="white"/>
<path d="M46.8431 21.923V32.0284C46.8431 32.377 46.6208 32.6852 46.1761 32.9429C45.7264 33.2006 45.201 33.3269 44.5946 33.3269C43.9883 33.3269 43.4578 33.1955 43.0081 32.9378L38.2384 30.1842C37.7887 29.9214 37.5664 29.6183 37.5614 29.2696V19.1643C37.5664 19.5129 37.7887 19.8161 38.2384 20.0788L43.0081 22.8325C43.4578 23.0902 43.9883 23.2215 44.5946 23.2215C45.201 23.2215 45.7264 23.0952 46.1761 22.8375C46.5298 22.6354 46.742 22.3979 46.8127 22.1352C46.833 22.0695 46.8431 21.9937 46.8431 21.923Z" fill="white"/>
<path d="M46.8127 16.4459V21.7108C46.737 21.4481 46.5197 21.2106 46.166 21.0085L42.9879 19.1744L46.1458 17.3504C46.5904 17.0977 46.8127 16.7895 46.8127 16.4459Z" fill="white"/>
<path d="M31.0534 31.038L31.0535 41.1433C31.0535 41.4969 30.8312 41.8001 30.3865 42.0578C29.9369 42.3155 29.4114 42.4468 28.8 42.4418C28.1937 42.4418 27.6682 42.3104 27.2185 42.0527L24.0404 40.2186L24.0404 30.1134L27.2184 31.9475C27.6681 32.2052 28.1936 32.3365 28.7999 32.3365C29.4113 32.3416 29.9368 32.2102 30.3865 31.9525C30.8311 31.6948 31.0534 31.3917 31.0534 31.038Z" fill="white"/>
<path d="M24.0404 30.1134L24.0404 40.2186L20.8825 42.0426C20.4328 42.3003 19.9073 42.4266 19.2959 42.4266C18.6845 42.4266 18.1641 42.2953 17.7144 42.0376C17.2597 41.7748 17.0374 41.4717 17.0324 41.118V31.0127C17.0374 31.3664 17.2597 31.6696 17.7144 31.9323C18.1641 32.19 18.6896 32.3214 19.2959 32.3214C19.9022 32.3214 20.4328 32.1951 20.8825 31.9374L24.0404 30.1134Z" fill="white"/>
<path d="M10.3933 19.1239L10.3934 29.219C10.3984 29.5677 10.1761 29.8759 9.72638 30.1336L4.99209 32.867C4.54241 33.1247 4.01693 33.2561 3.41061 33.251C2.79924 33.251 2.27377 33.1197 1.82408 32.862C1.3744 32.5993 1.14704 32.2961 1.14199 31.9475L1.14192 21.8422C1.14697 22.1908 1.37433 22.494 1.82401 22.7567C2.2737 23.0144 2.79918 23.1458 3.41055 23.1458C4.01686 23.1508 4.54234 23.0195 4.99202 22.7618L9.72633 20.0283C10.171 19.7757 10.3933 19.4675 10.3933 19.1239Z" fill="white"/>
<path d="M4.97182 19.1037L1.81393 20.9277C1.36424 21.1854 1.14192 21.4885 1.14192 21.8422L1.14184 26.6523C1.12668 26.5917 1.11658 26.526 1.11658 26.4603L1.11666 16.3551C1.11666 16.7037 1.34401 17.0068 1.7937 17.2696L4.97182 19.1037Z" fill="white"/>
<path d="M30.9221 7.27039V17.3655C30.9271 17.7192 30.7048 18.0224 30.2551 18.2801L25.5157 21.0135C25.0711 21.2712 24.5456 21.4026 23.9342 21.4026C23.3279 21.4026 22.8024 21.2712 22.3477 21.0085L17.5831 18.2548C17.1334 17.9971 16.9061 17.6939 16.9061 17.3403V7.23502M30.9221 7.27039C30.9221 7.61902 30.6997 7.92218 30.2551 8.17481L25.5157 10.9083C25.0711 11.1659 24.5456 11.2973 23.9342 11.2973C23.3279 11.2923 22.8024 11.1659 22.3477 10.9032L17.5831 8.14955C17.1334 7.89187 16.9061 7.58871 16.9061 7.23502M30.9221 7.27039L30.9221 7.26031C30.9221 6.91168 30.6948 6.60347 30.2451 6.34579C29.7954 6.0881 29.2649 5.95673 28.6585 5.95168C28.0522 5.95168 27.5268 6.08305 27.0771 6.34073L23.9192 8.16473L20.7411 6.33063C20.2914 6.06789 19.7609 5.93652 19.1545 5.93652C18.5482 5.93652 18.0228 6.06284 17.5731 6.32052C17.1234 6.58326 16.901 6.88639 16.9061 7.23502M10.3933 19.1239V19.1138C10.3933 18.7652 10.1659 18.4569 9.71623 18.1993L4.95159 15.4456C4.50191 15.1828 3.97137 15.0515 3.36506 15.0515C2.75874 15.0515 2.22824 15.1828 1.78361 15.4405C1.33393 15.6982 1.11161 16.0014 1.11666 16.3551M10.3933 19.1239C10.3933 19.4675 10.171 19.7757 9.72633 20.0283L4.99202 22.7618C4.54234 23.0195 4.01686 23.1508 3.41055 23.1458C2.79918 23.1458 2.2737 23.0144 1.82401 22.7567C1.37433 22.494 1.14697 22.1908 1.14192 21.8422M10.3933 19.1239L10.3934 29.219C10.3984 29.5677 10.1761 29.8759 9.72638 30.1336L4.99209 32.867C4.54241 33.1247 4.01693 33.2561 3.41061 33.251C2.79924 33.251 2.27377 33.1197 1.82408 32.862C1.3744 32.5993 1.14704 32.2961 1.14199 31.9475L1.14192 21.8422M1.14192 21.8422C1.14192 21.4885 1.36424 21.1854 1.81393 20.9277L4.97182 19.1037L1.7937 17.2696C1.34401 17.0068 1.11666 16.7037 1.11666 16.3551M1.14192 21.8422L1.14184 26.6523C1.12668 26.5917 1.11658 26.526 1.11658 26.4603L1.11666 16.3551M31.0534 31.038C31.0534 31.3917 30.8311 31.6948 30.3865 31.9525C29.9368 32.2102 29.4113 32.3416 28.7999 32.3365C28.1936 32.3365 27.6681 32.2052 27.2184 31.9475L24.0404 30.1134M31.0534 31.038C31.0484 30.6894 30.826 30.3862 30.3763 30.1235L25.6067 27.3698C25.157 27.1121 24.6264 26.9807 24.0201 26.9807C23.4138 26.9807 22.8883 27.1071 22.4387 27.3647L17.7043 30.1033C17.2547 30.3609 17.0324 30.6641 17.0324 31.0127M31.0534 31.038L31.0535 41.1433C31.0535 41.4969 30.8312 41.8001 30.3865 42.0578C29.9369 42.3155 29.4114 42.4468 28.8 42.4418C28.1937 42.4418 27.6682 42.3104 27.2185 42.0527L24.0404 40.2186M24.0404 30.1134L20.8825 31.9374M24.0404 30.1134L24.0404 40.2186M20.8825 31.9374C20.4328 32.1951 19.9073 32.3214 19.2959 32.3214M20.8825 31.9374C20.4328 32.1951 19.9022 32.3214 19.2959 32.3214M19.2959 32.3214C18.6845 32.3214 18.1641 32.19 17.7144 31.9323M19.2959 32.3214C18.6896 32.3214 18.1641 32.19 17.7144 31.9323M17.7144 31.9323C17.2597 31.6696 17.0374 31.3664 17.0324 31.0127M17.0324 31.0127V41.118C17.0374 41.4717 17.2597 41.7748 17.7144 42.0376C18.1641 42.2953 18.6845 42.4266 19.2959 42.4266C19.9073 42.4266 20.4328 42.3003 20.8825 42.0426L24.0404 40.2186M46.8431 21.923C46.8431 21.9937 46.833 22.0695 46.8127 22.1352C46.742 22.3979 46.5298 22.6354 46.1761 22.8375C45.7264 23.0952 45.201 23.2215 44.5946 23.2215C43.9883 23.2215 43.4578 23.0902 43.0081 22.8325L38.2384 20.0788C37.7887 19.8161 37.5664 19.5129 37.5614 19.1643M46.8431 21.923C46.8431 21.8523 46.833 21.7765 46.8127 21.7108M46.8431 21.923V32.0284C46.8431 32.377 46.6207 32.6852 46.1761 32.9429C45.7264 33.2006 45.201 33.3269 44.5946 33.3269C43.9883 33.3269 43.4578 33.1955 43.0081 32.9378L38.2384 30.1842C37.7887 29.9214 37.5664 29.6183 37.5614 29.2696V19.1643M37.5614 19.1643C37.5614 18.8106 37.7837 18.5074 38.2283 18.2497L42.9677 15.5163C43.4174 15.2535 43.9429 15.1272 44.5492 15.1272C45.1555 15.1272 45.686 15.2586 46.1357 15.5213C46.5854 15.779 46.8127 16.0872 46.8127 16.4358V16.4459M46.8127 16.4459C46.8127 16.7895 46.5904 17.0977 46.1458 17.3504L42.9879 19.1744L46.166 21.0085C46.5197 21.2106 46.737 21.4481 46.8127 21.7108M46.8127 16.4459V21.7108" stroke="#27272A" stroke-opacity="0.25" stroke-linecap="round" stroke-linejoin="round"/>
      </svg>