<svg xmlns="http://www.w3.org/2000/svg" viewBox="0 0 48 48">
        <path d="M38.6765 29.4879V29.797H38.6806C38.6887 29.6912 38.6847 29.5855 38.6765 29.4879Z" fill="white"/>
<path d="M46.8732 10.174V10.1943C46.8732 11.1462 46.2834 11.9557 45.1119 12.635C44.8515 12.7814 44.5871 12.9075 44.3146 13.0133C44.0421 13.115 43.741 13.2045 43.4115 13.2858L43.9119 13.5746C44.5261 13.9326 45.0224 14.3231 45.3885 14.7543C45.7587 15.1896 46.0068 15.6411 46.1248 16.1211C46.1451 16.1943 46.1573 16.2675 46.1573 16.3367C46.1573 16.4262 46.137 16.5157 46.1004 16.6011C46.0434 16.7394 45.9336 16.8655 45.7749 16.9834C45.4454 17.2275 44.998 17.378 44.4285 17.4309C43.859 17.4837 43.3627 17.4146 42.9356 17.2234C42.5085 17.0322 42.2482 16.7719 42.1505 16.4424C42.1017 16.1943 41.9878 15.9746 41.8088 15.7753C41.6298 15.576 41.3858 15.3889 41.0766 15.2099C40.8122 15.0594 40.5437 14.9292 40.263 14.8275C39.7382 14.6363 39.1851 14.5306 38.6034 14.5184C37.7166 14.498 36.5044 14.5183 34.9668 14.5834C34.7065 14.5956 34.4665 14.5834 34.2549 14.5428C34.0393 14.498 33.8399 14.4248 33.6488 14.315C33.4576 14.2051 33.3234 14.0872 33.238 13.957C33.1932 13.8879 33.1647 13.8106 33.1484 13.7333V13.534C33.2623 12.6187 33.3071 11.9149 33.2786 11.4227C33.2542 10.9305 32.8597 10.4668 32.099 10.0275C31.3383 9.58819 30.4637 9.36853 29.4671 9.36446C28.4746 9.36446 27.5959 9.58006 26.8433 10.0153C25.8508 10.5889 25.2895 11.4553 25.1512 12.6187C25.0454 13.5462 25.0292 14.6607 25.1024 15.9665C25.1187 16.296 25.143 16.6336 25.1756 16.9875C25.1796 17.0282 25.1837 17.0648 25.1837 17.1014V17.1136C25.1837 17.4187 25.0291 17.6871 24.7199 17.9271C24.366 18.1997 23.9023 18.338 23.3369 18.3339C22.8651 18.3339 22.4542 18.2526 22.1084 18.0939C22.0027 18.0451 21.901 17.9882 21.8074 17.9231C21.4007 17.6506 21.1891 17.3251 21.1606 16.959C21.0955 16.235 21.0589 15.5516 21.0549 14.9048V14.8153C21.0426 13.7048 21.1159 12.7122 21.2745 11.8336C21.5308 10.4221 22.4338 9.27087 23.9918 8.37189C25.5254 7.48511 27.3478 7.04579 29.4549 7.04986C31.5621 7.04986 33.3885 7.5014 34.9301 8.39225C35.0278 8.44513 35.1051 8.49802 35.1621 8.54683C35.2231 8.59158 35.3003 8.64445 35.3938 8.69733C35.5362 8.50615 35.6989 8.33121 35.8901 8.1685C36.0772 8.00172 36.301 7.84718 36.5613 7.69667C37.741 7.01328 39.1607 6.67566 40.8163 6.67972C42.4759 6.68379 43.8997 7.02545 45.0875 7.71291C46.2753 8.3963 46.8692 9.21802 46.8732 10.174Z" fill="white"/>
<path d="M18.1342 9.78345V17.9232C18.1261 18.0859 18.0651 18.2404 17.9471 18.3909C17.7356 18.6716 17.3776 18.8587 16.8773 18.9604V16.2268C16.8773 16.1577 16.861 16.0804 16.8244 16.0072C16.7512 15.8567 16.6454 15.7143 16.503 15.576C15.7179 14.9333 15.0305 14.2377 14.4488 13.4892C13.863 12.7448 14.1722 12.0248 15.3762 11.3292C15.5674 11.2194 15.779 11.1258 16.0149 11.0445C16.2509 10.9631 16.5112 10.894 16.7959 10.8411C17.341 10.7434 17.7234 10.5523 17.9471 10.2553C18.0651 10.1007 18.1261 9.94616 18.1342 9.78345Z" fill="white"/>
<path d="M38.6765 29.4879V29.797H38.6806C38.6887 29.6912 38.6847 29.5855 38.6765 29.4879Z" fill="white"/>
<path d="M43.1634 25.4444C42.8054 25.8146 42.3336 26.1685 41.7437 26.5101C41.1905 26.8315 40.5884 27.0877 39.9295 27.2871C39.8847 27.2993 39.8399 27.3156 39.7952 27.3278C39.0833 27.5312 38.3267 27.6735 37.5213 27.7549C38.229 28.2674 38.6155 28.845 38.6765 29.4837V29.8416C38.6684 29.8986 38.6603 29.9596 38.6521 30.0207C38.5057 30.8749 37.924 31.5949 36.907 32.1806C36.004 32.7013 34.9667 33.0267 33.7911 33.1488C33.4291 33.1894 33.0549 33.2098 32.6684 33.2098C31.326 33.2138 30.1221 32.9779 29.0685 32.5101C28.8326 32.4085 28.6047 32.2904 28.385 32.1643C27.7667 31.8104 27.303 31.3834 26.9898 30.8912C26.7661 30.5332 26.6521 30.1712 26.6521 29.8091C26.6521 29.7725 26.6521 29.7318 26.6603 29.6952C26.6603 29.5935 26.6766 29.4959 26.701 29.3942C25.2569 29.6789 23.825 29.7359 22.4013 29.5691C21.726 29.4918 21.0833 29.3616 20.4732 29.1745C19.806 28.9793 19.1797 28.719 18.5939 28.3935C18.1668 28.1495 17.9552 27.8687 17.9512 27.5515C17.9512 27.2382 18.1505 26.9657 18.5491 26.7338C18.9518 26.502 19.4237 26.3881 19.9688 26.3881C20.5138 26.3881 20.9898 26.506 21.3925 26.7379C22.1532 27.1772 23.0521 27.3929 24.0935 27.3807C25.1389 27.3685 26.0257 27.1528 26.7538 26.7298C27.1565 26.4979 27.5226 26.1969 27.8521 25.8267C28.0067 25.6559 28.1654 25.4647 28.3444 25.2532H28.3485C28.4949 25.0701 28.6494 24.8749 28.8121 24.6674C28.8691 24.5982 28.9219 24.5291 28.9789 24.4559C29.0968 24.3338 29.2351 24.2281 29.3857 24.1386C29.5402 24.0491 29.7356 23.9922 29.9715 23.9678C30.2074 23.9393 30.4271 23.9352 30.6304 23.9555C30.8298 23.9799 31.0495 24.0287 31.2895 24.1101C32.4285 24.5779 33.665 25.001 35.0074 25.3793C36.3457 25.7576 37.6393 25.5867 38.8922 24.8626C39.8359 24.3176 40.1694 23.7196 39.8928 23.0728C39.8562 22.9833 39.8155 22.8979 39.7667 22.8125C39.4657 22.2715 38.9531 21.7915 38.2331 21.3766C37.4033 20.8966 36.301 20.4247 34.922 19.9569C34.4013 19.7779 33.8481 19.5989 33.2582 19.4077C33.2216 19.3955 33.185 19.3833 33.1484 19.3711C32.2128 19.0742 31.1919 18.761 30.0854 18.4315C29.5648 18.2647 29.1905 18.0288 28.9627 17.7196C28.9139 17.6546 28.8773 17.5894 28.8569 17.5284C28.8285 17.4552 28.8121 17.3779 28.8121 17.3047C28.8121 17.1379 28.8895 16.9711 29.044 16.8084C29.3288 16.5074 29.764 16.3243 30.3579 16.2552C30.9478 16.1901 31.505 16.2389 32.0257 16.4016C32.408 16.5155 32.7823 16.6335 33.1484 16.7434C34.6657 17.2112 36.0365 17.6546 37.2569 18.0735C38.7742 18.5942 40.0555 19.1596 41.101 19.7616C42.7404 20.7094 43.6963 21.8159 43.9607 23.0891C44.1397 23.9311 43.8753 24.7162 43.1634 25.4444Z" fill="white"/>
<path d="M28.3444 20.2133V20.2376C28.3444 20.3475 28.3199 20.4614 28.267 20.5712C28.1165 20.8885 27.7912 21.1407 27.2949 21.3156C26.6237 21.5759 25.92 21.8363 25.1837 22.0966C25.143 22.1129 25.1024 22.1251 25.0617 22.1414C24.4027 22.3733 23.7152 22.6092 23.0033 22.8451C22.3606 23.0566 21.7138 23.2519 21.063 23.4268C20.1396 23.6709 19.2081 23.8743 18.2685 24.037C17.8007 24.1183 17.3368 24.1834 16.8772 24.2282C16.869 24.2323 16.861 24.2322 16.8569 24.2322C15.7424 24.3461 14.6399 24.3705 13.5457 24.2973C11.9959 24.1915 10.5803 23.7685 9.29489 23.0282C8.20472 22.3976 7.50905 21.6654 7.20803 20.8397C7.13888 20.6485 7.09015 20.4573 7.06574 20.2621C7.04947 20.1441 7.04129 20.0221 7.04129 19.9001V19.8105C7.04536 19.721 7.05354 19.6315 7.06574 19.5421H7.06981C7.12676 19.1393 7.28129 18.7367 7.52943 18.3258C6.65485 18.395 5.79252 18.338 4.93828 18.159C4.08405 17.98 3.3478 17.7115 2.72949 17.3536C1.52949 16.658 0.923319 15.8444 0.923319 14.9007V14.8804C0.931454 13.9326 1.5254 13.1149 2.70506 12.4356C3.71794 11.8458 4.96676 11.5122 6.44744 11.4268C7.92405 11.3373 9.23384 11.557 10.3728 12.0777C10.5152 11.614 10.7593 11.1787 11.1132 10.7678C11.4671 10.357 11.9389 9.98273 12.5288 9.64104C12.9274 9.40915 13.379 9.20576 13.8752 9.03085C14.3715 8.85187 14.9003 8.70952 15.4698 8.60376C16.0149 8.50613 16.5356 8.52648 17.0318 8.66479C17.5322 8.80309 17.8616 9.03086 18.0325 9.34408C18.1098 9.49459 18.1464 9.64108 18.1342 9.78345C18.1261 9.94616 18.0651 10.1007 17.9471 10.2553C17.7234 10.5523 17.341 10.7434 16.7959 10.8411C16.5112 10.894 16.2509 10.9631 16.0149 11.0445C15.779 11.1258 15.5674 11.2194 15.3762 11.3292C14.1722 12.0248 13.863 12.7448 14.4488 13.4892C15.0305 14.2377 15.7179 14.9333 16.503 15.576C16.6454 15.7143 16.7512 15.8567 16.8244 16.0072C16.861 16.0804 16.8773 16.1577 16.8773 16.2268L16.8772 16.2349C16.8772 16.3122 16.861 16.3854 16.8244 16.4587C16.7796 16.5563 16.7186 16.6417 16.6332 16.719C16.5885 16.7637 16.5355 16.8085 16.4745 16.8451C16.3077 16.9549 16.0962 17.0444 15.8359 17.1136C14.9613 17.3414 14.2291 17.5488 13.6352 17.7237C13.0454 17.8987 12.5491 18.1061 12.1464 18.338C11.4386 18.7448 11.0766 19.2492 11.0562 19.8512C11.0359 20.4533 11.3938 20.9658 12.1301 21.3929C12.8501 21.8037 13.7288 22.0153 14.7742 22.0234H14.9572C15.5796 22.0112 16.2223 21.9624 16.8772 21.8648C17.406 21.7956 17.9431 21.6939 18.4882 21.5678C19.3546 21.3685 20.2087 21.1326 21.0549 20.86C21.0874 20.8478 21.1199 20.8397 21.1525 20.8275C21.4779 20.7217 21.7993 20.6119 22.1207 20.498C23.2678 20.0831 24.2888 19.7048 25.1796 19.3468H25.1837C25.2244 19.3306 25.2569 19.3183 25.2935 19.3021C25.4318 19.2451 25.5741 19.2004 25.7206 19.1719C26.0704 19.0865 26.4446 19.0661 26.8392 19.1109C27.3965 19.1719 27.8033 19.3468 28.0677 19.6356C28.2467 19.8227 28.3362 20.018 28.3444 20.2133Z" fill="white"/>
<path d="M46.8732 10.1943V18.3096C46.8773 18.9238 46.6373 19.4811 46.1573 19.9773V16.3367C46.1573 16.2675 46.1451 16.1943 46.1248 16.1211C46.0068 15.6411 45.7587 15.1896 45.3885 14.7543C45.0224 14.3231 44.5261 13.9326 43.9119 13.5746L43.4115 13.2858C43.741 13.2045 44.0421 13.115 44.3146 13.0133C44.5871 12.9075 44.8515 12.7814 45.1119 12.635C46.2834 11.9557 46.8732 11.1462 46.8732 10.1943Z" fill="white"/>
<path d="M44.0136 25.5787V23.6669V25.5787Z" fill="white"/>
<path d="M26.6521 37.8879V37.538V37.8879Z" fill="white"/>
<path d="M7.52943 18.3258C7.28129 18.7367 7.12676 19.1393 7.06981 19.5421H7.06574C7.05354 19.6315 7.04536 19.721 7.04129 19.8105V26.4858C6.3335 26.5061 5.63384 26.441 4.93824 26.2946C4.08401 26.1156 3.34778 25.8471 2.72948 25.4892C1.52134 24.7895 0.915163 23.9678 0.923299 23.0159L0.923319 14.9007C0.923319 15.8444 1.52949 16.658 2.72949 17.3536C3.3478 17.7115 4.08405 17.98 4.93828 18.159C5.79252 18.338 6.65485 18.395 7.52943 18.3258Z" fill="white"/>
<path d="M18.1342 9.78345L18.1342 9.73053L18.1342 9.78345Z" fill="white"/>
<path d="M16.8772 16.2349V21.8648C16.2223 21.9624 15.5796 22.0112 14.9572 22.0234H14.7742C13.7288 22.0153 12.8501 21.8037 12.1301 21.3929C11.3938 20.9658 11.0359 20.4533 11.0562 19.8512C11.0766 19.2492 11.4386 18.7448 12.1464 18.338C12.5491 18.1061 13.0454 17.8987 13.6352 17.7237C14.2291 17.5488 14.9613 17.3414 15.8359 17.1136C16.0962 17.0444 16.3077 16.9549 16.4745 16.8451C16.5355 16.8085 16.5885 16.7637 16.6332 16.719C16.7186 16.6417 16.7796 16.5563 16.8244 16.4587C16.861 16.3854 16.8772 16.3122 16.8772 16.2349Z" fill="white"/>
<path d="M25.1837 17.1136L25.1837 19.3468H25.1796C24.2888 19.7048 23.2678 20.0831 22.1207 20.498C21.7993 20.6119 21.4779 20.7217 21.1525 20.8275C21.1199 20.8397 21.0874 20.8478 21.0549 20.86V14.9048C21.0589 15.5516 21.0955 16.235 21.1606 16.959C21.1891 17.3251 21.4007 17.6506 21.8074 17.9231C21.901 17.9882 22.0027 18.0451 22.1084 18.0939C22.4542 18.2526 22.8651 18.3339 23.3369 18.3339C23.9023 18.338 24.366 18.1997 24.7199 17.9271C25.0291 17.6871 25.1837 17.4187 25.1837 17.1136Z" fill="white"/>
<path d="M33.1484 13.534L33.1484 16.7434C32.7823 16.6335 32.408 16.5155 32.0257 16.4016C31.505 16.2389 30.9478 16.1901 30.3579 16.2552C29.764 16.3243 29.3288 16.5074 29.044 16.8084C28.8895 16.9711 28.8121 17.1379 28.8121 17.3047L28.8121 17.5326C28.7918 17.5326 28.7674 17.5326 28.7471 17.5407C28.7348 17.5407 28.7267 17.5448 28.7145 17.5448C28.6575 17.5529 28.5965 17.557 28.5437 17.5693C28.4664 17.5815 28.3891 17.5936 28.3118 17.6099C28.2589 17.618 28.202 17.6302 28.1491 17.6465C28.0922 17.6546 28.0311 17.6709 27.9741 17.6872C27.9172 17.7034 27.8603 17.7197 27.8033 17.736C27.7138 17.7645 27.6324 17.793 27.547 17.8215C27.4412 17.8581 27.3395 17.9028 27.2419 17.9475C27.1849 17.9719 27.1321 17.9964 27.0792 18.0248C26.9979 18.0655 26.9206 18.1062 26.8433 18.1509C26.3714 18.4234 25.9972 18.761 25.7206 19.1719C25.5741 19.2004 25.4318 19.2451 25.2935 19.3021C25.2569 19.3183 25.2244 19.3306 25.1837 19.3468L25.1837 17.1014C25.1837 17.0648 25.1796 17.0282 25.1756 16.9875C25.143 16.6336 25.1187 16.296 25.1024 15.9665C25.0292 14.6607 25.0454 13.5462 25.1512 12.6187C25.2895 11.4553 25.8508 10.5889 26.8433 10.0153C27.5959 9.58006 28.4746 9.36446 29.4671 9.36446C30.4637 9.36853 31.3383 9.58819 32.099 10.0275C32.8597 10.4668 33.2542 10.9305 33.2786 11.4227C33.3071 11.9149 33.2623 12.6187 33.1484 13.534Z" fill="white"/>
<path d="M46.1573 16.3367V24.517C46.141 24.7407 46.0149 24.9401 45.7749 25.119C45.4454 25.3631 44.998 25.5136 44.4285 25.5665C44.2861 25.5787 44.1437 25.5869 44.0136 25.5787V31.7658C43.9932 32.8234 43.2366 33.7834 41.7437 34.6458C41.1539 34.9875 40.503 35.2601 39.7952 35.4635C39.4332 35.5652 39.063 35.6546 38.6765 35.7279V29.797H38.6806C38.6887 29.6912 38.6847 29.5855 38.6765 29.4879C38.6155 28.8451 38.229 28.2674 37.5213 27.7549C38.3267 27.6735 39.0833 27.5312 39.7952 27.3278C39.8399 27.3156 39.8847 27.2993 39.9295 27.2871C40.5884 27.0877 41.1905 26.8315 41.7437 26.5101C42.3336 26.1685 42.8054 25.8146 43.1634 25.4444C43.8753 24.7162 44.1397 23.9311 43.9607 23.0891C43.6963 21.8159 42.7404 20.7094 41.101 19.7616C40.0555 19.1596 38.7742 18.5942 37.2569 18.0735C36.0365 17.6546 34.6657 17.2112 33.1484 16.7434L33.1484 13.7333C33.1647 13.8106 33.1932 13.8879 33.238 13.957C33.3234 14.0872 33.4576 14.2051 33.6488 14.315C33.8399 14.4248 34.0393 14.498 34.2549 14.5428C34.4665 14.5834 34.7065 14.5956 34.9668 14.5834C36.5044 14.5183 37.7166 14.498 38.6034 14.5184C39.1851 14.5306 39.7382 14.6363 40.263 14.8275C40.5437 14.9292 40.8122 15.0594 41.0766 15.2099C41.3858 15.3889 41.6298 15.576 41.8088 15.7753C41.9878 15.9746 42.1017 16.1943 42.1505 16.4424C42.2482 16.7719 42.5085 17.0322 42.9356 17.2234C43.3627 17.4146 43.859 17.4837 44.4285 17.4309C44.998 17.378 45.4454 17.2275 45.7749 16.9834C45.9336 16.8655 46.0434 16.7394 46.1004 16.6011C46.137 16.5157 46.1573 16.4262 46.1573 16.3367Z" fill="white"/>
<path d="M38.6521 38.1563C38.5057 39.0106 37.924 39.7306 36.907 40.3163C35.7274 40.9997 34.3159 41.3414 32.6684 41.3455C31.025 41.3495 29.5932 40.9997 28.385 40.3C27.7667 39.9461 27.303 39.5191 26.9898 39.0269C26.6807 38.5347 26.583 38.0343 26.701 37.5299C26.6847 37.534 26.6684 37.538 26.6521 37.538L26.6521 29.8091C26.6521 30.1712 26.7661 30.5332 26.9898 30.8912C27.303 31.3834 27.7667 31.8104 28.385 32.1643C28.6047 32.2904 28.8326 32.4085 29.0685 32.5101C30.1221 32.9779 31.326 33.2138 32.6684 33.2098C33.0549 33.2098 33.4291 33.1894 33.7911 33.1488C34.9667 33.0267 36.004 32.7013 36.907 32.1806C37.924 31.5949 38.5057 30.8749 38.6521 30.0207C38.6603 29.9596 38.6684 29.8986 38.6765 29.8416V37.6397C38.6928 37.8065 38.6847 37.9773 38.6521 38.1563Z" fill="white"/>
<path d="M26.701 29.3942C26.6766 29.4959 26.6603 29.5935 26.6603 29.6952L26.6521 29.6953L26.6521 37.538C25.2243 37.8146 23.8088 37.8716 22.4013 37.7048C20.9816 37.5421 19.7126 37.1475 18.5939 36.5292C18.1668 36.2851 17.9552 36.0045 17.9512 35.6872V27.5515C17.9512 27.8687 18.1668 28.1495 18.5939 28.3935C19.1797 28.719 19.806 28.9793 20.4732 29.1745C21.0833 29.3616 21.726 29.4918 22.4013 29.5691C23.825 29.7359 25.2569 29.6789 26.701 29.3942Z" fill="white"/>
<path d="M28.3444 20.2376L28.3444 25.2532C28.1654 25.4647 28.0067 25.6559 27.8521 25.8267C27.5226 26.1969 27.1565 26.4979 26.7538 26.7298C26.0257 27.1528 25.1389 27.3685 24.0935 27.3807C23.0521 27.3929 22.1532 27.1772 21.3925 26.7379C20.9898 26.506 20.5138 26.3881 19.9688 26.3881C19.4237 26.3881 18.9518 26.502 18.5491 26.7338C18.1505 26.9657 17.9512 27.2382 17.9512 27.5515V32.2254C16.4664 32.4613 14.9979 32.5265 13.5457 32.4329C11.9959 32.3271 10.5803 31.9041 9.29489 31.1637C8.20472 30.5332 7.50905 29.801 7.20803 28.9753C7.0982 28.6743 7.04129 28.3732 7.04129 28.0682V19.9001C7.04129 20.0221 7.04947 20.1441 7.06574 20.2621C7.09015 20.4573 7.13888 20.6485 7.20803 20.8397C7.50905 21.6654 8.20472 22.3976 9.29489 23.0282C10.5803 23.7685 11.9959 24.1915 13.5457 24.2973C14.6399 24.3705 15.7424 24.3461 16.8569 24.2322C16.861 24.2322 16.869 24.2323 16.8772 24.2282C17.3368 24.1834 17.8007 24.1183 18.2685 24.037C19.2081 23.8743 20.1396 23.6709 21.063 23.4268C21.7138 23.2519 22.3606 23.0566 23.0033 22.8451C23.7152 22.6092 24.4027 22.3733 25.0617 22.1414C25.1024 22.1251 25.143 22.1129 25.1837 22.0966C25.92 21.8363 26.6237 21.5759 27.2949 21.3156C27.7912 21.1407 28.1165 20.8885 28.267 20.5712C28.3199 20.4614 28.3444 20.3475 28.3444 20.2376Z" fill="white"/>
<path d="M38.8922 24.8626C37.6393 25.5867 36.3457 25.7576 35.0074 25.3793C33.665 25.001 32.4285 24.5779 31.2895 24.1101C31.0495 24.0287 30.8298 23.9799 30.6304 23.9555C30.4271 23.9352 30.2074 23.9393 29.9715 23.9678C29.7356 23.9922 29.5402 24.0491 29.3857 24.1386C29.2351 24.2281 29.0968 24.3338 28.9789 24.4559C28.9219 24.5291 28.8691 24.5982 28.8121 24.6674V17.3047C28.8121 17.3779 28.8285 17.4552 28.8569 17.5284C28.8773 17.5894 28.9139 17.6546 28.9627 17.7196C29.1905 18.0288 29.5648 18.2647 30.0854 18.4315C31.1919 18.761 32.2128 19.0742 33.1484 19.3711C33.185 19.3833 33.2216 19.3955 33.2582 19.4077C33.8481 19.5989 34.4013 19.7779 34.922 19.9569C36.301 20.4247 37.4033 20.8966 38.2331 21.3766C38.9531 21.7915 39.4657 22.2715 39.7667 22.8125C39.8155 22.8979 39.8562 22.9833 39.8928 23.0728C40.1694 23.7196 39.8359 24.3176 38.8922 24.8626Z" fill="white"/>
<path d="M28.8121 17.3047L28.8121 17.2072L28.8121 17.3047Z" fill="white"/>
<path d="M25.1837 19.3753V19.3468V19.3753Z" fill="white"/>
<path d="M25.1837 17.1014V17.1136V17.1014Z" fill="white"/>
<path d="M28.3444 20.2133V20.2376V20.2133Z" fill="white"/>
<path d="M38.6765 29.4879V29.797M38.6765 29.4879C38.6847 29.5855 38.6887 29.6912 38.6806 29.797H38.6765M38.6765 29.4879C38.6155 28.8451 38.229 28.2674 37.5213 27.7549M38.6765 29.797V35.7279C39.063 35.6546 39.4332 35.5652 39.7952 35.4635C40.503 35.2601 41.1539 34.9875 41.7437 34.6458C43.2366 33.7834 43.9932 32.8234 44.0136 31.7658V25.5787M46.8732 10.1943V10.174C46.8692 9.21802 46.2753 8.3963 45.0875 7.71291C43.8997 7.02545 42.4759 6.68379 40.8163 6.67972C39.1607 6.67566 37.741 7.01328 36.5613 7.69667C36.301 7.84718 36.0772 8.00172 35.8901 8.1685C35.6989 8.33121 35.5362 8.50615 35.3938 8.69733C35.3003 8.64445 35.2231 8.59158 35.1621 8.54683C35.1051 8.49802 35.0278 8.44513 34.9301 8.39225C33.3885 7.5014 31.5621 7.04986 29.4549 7.04986C27.3478 7.04579 25.5254 7.48511 23.9918 8.37189C22.4338 9.27087 21.5308 10.4221 21.2745 11.8336C21.1159 12.7122 21.0426 13.7048 21.0549 14.8153V14.9048M46.8732 10.1943C46.8732 11.1462 46.2834 11.9557 45.1119 12.635C44.8515 12.7814 44.5871 12.9075 44.3146 13.0133C44.0421 13.115 43.741 13.2045 43.4115 13.2858L43.9119 13.5746C44.5261 13.9326 45.0224 14.3231 45.3885 14.7543C45.7587 15.1896 46.0068 15.6411 46.1248 16.1211C46.1451 16.1943 46.1573 16.2675 46.1573 16.3367M46.8732 10.1943V18.3096C46.8773 18.9238 46.6373 19.4811 46.1573 19.9773V16.3367M46.1573 16.3367C46.1573 16.4262 46.137 16.5157 46.1004 16.6011C46.0434 16.7394 45.9336 16.8655 45.7749 16.9834C45.4454 17.2275 44.998 17.378 44.4285 17.4309C43.859 17.4837 43.3627 17.4146 42.9356 17.2234C42.5085 17.0322 42.2482 16.7719 42.1505 16.4424C42.1017 16.1943 41.9878 15.9746 41.8088 15.7753C41.6298 15.576 41.3858 15.3889 41.0766 15.2099C40.8122 15.0594 40.5437 14.9292 40.263 14.8275C39.7382 14.6363 39.1851 14.5306 38.6034 14.5184C37.7166 14.498 36.5044 14.5183 34.9668 14.5834C34.7065 14.5956 34.4665 14.5834 34.2549 14.5428C34.0393 14.498 33.8399 14.4248 33.6488 14.315C33.4576 14.2051 33.3234 14.0872 33.238 13.957C33.1932 13.8879 33.1647 13.8106 33.1484 13.7333M46.1573 16.3367V24.517C46.141 24.7407 46.0149 24.9401 45.7749 25.119C45.4454 25.3631 44.998 25.5136 44.4285 25.5665C44.2861 25.5787 44.1437 25.5869 44.0136 25.5787M33.1484 13.7333V13.534M33.1484 13.7333L33.1484 16.7434M33.1484 13.534C33.2623 12.6187 33.3071 11.9149 33.2786 11.4227C33.2542 10.9305 32.8597 10.4668 32.099 10.0275C31.3383 9.58819 30.4637 9.36853 29.4671 9.36446C28.4746 9.36446 27.5959 9.58006 26.8433 10.0153C25.8508 10.5889 25.2895 11.4553 25.1512 12.6187C25.0454 13.5462 25.0292 14.6607 25.1024 15.9665C25.1187 16.296 25.143 16.6336 25.1756 16.9875C25.1796 17.0282 25.1837 17.0648 25.1837 17.1014M33.1484 13.534L33.1484 16.7434M25.1837 17.1014V17.1136M25.1837 17.1014L25.1837 19.3468M25.1837 17.1136C25.1837 17.4187 25.0291 17.6871 24.7199 17.9271C24.366 18.1997 23.9023 18.338 23.3369 18.3339C22.8651 18.3339 22.4542 18.2526 22.1084 18.0939C22.0027 18.0451 21.901 17.9882 21.8074 17.9231C21.4007 17.6506 21.1891 17.3251 21.1606 16.959C21.0955 16.235 21.0589 15.5516 21.0549 14.9048M25.1837 17.1136L25.1837 19.3468M21.0549 14.9048V20.86M18.1342 9.78345V17.9232C18.1261 18.0859 18.0651 18.2404 17.9471 18.3909C17.7356 18.6716 17.3776 18.8587 16.8773 18.9604V16.2268M18.1342 9.78345C18.1261 9.94616 18.0651 10.1007 17.9471 10.2553C17.7234 10.5523 17.341 10.7434 16.7959 10.8411C16.5112 10.894 16.2509 10.9631 16.0149 11.0445C15.779 11.1258 15.5674 11.2194 15.3762 11.3292C14.1722 12.0248 13.863 12.7448 14.4488 13.4892C15.0305 14.2377 15.7179 14.9333 16.503 15.576C16.6454 15.7143 16.7512 15.8567 16.8244 16.0072C16.861 16.0804 16.8773 16.1577 16.8773 16.2268M18.1342 9.78345C18.1464 9.64108 18.1098 9.49459 18.0325 9.34408C17.8616 9.03086 17.5322 8.80309 17.0318 8.66479C16.5356 8.52648 16.0149 8.50613 15.4698 8.60376C14.9003 8.70952 14.3715 8.85187 13.8752 9.03085C13.379 9.20576 12.9274 9.40915 12.5288 9.64104C11.9389 9.98273 11.4671 10.357 11.1132 10.7678C10.7593 11.1787 10.5152 11.614 10.3728 12.0777C9.23383 11.557 7.92405 11.3373 6.44744 11.4268C4.96676 11.5122 3.71794 11.8458 2.70506 12.4356C1.5254 13.1149 0.931454 13.9326 0.923319 14.8804V14.9007M18.1342 9.78345L18.1342 9.73053M16.8773 16.2268L16.8772 16.2349M37.5213 27.7549C38.3267 27.6735 39.0833 27.5312 39.7952 27.3278C39.8399 27.3156 39.8847 27.2993 39.9295 27.2871C40.5884 27.0877 41.1905 26.8315 41.7437 26.5101C42.3336 26.1685 42.8054 25.8146 43.1634 25.4444C43.8753 24.7162 44.1397 23.9311 43.9607 23.0891C43.6963 21.8159 42.7404 20.7094 41.101 19.7616C40.0555 19.1596 38.7742 18.5942 37.2569 18.0735C36.0365 17.6546 34.6657 17.2112 33.1484 16.7434M37.5213 27.7549C38.229 28.2674 38.6155 28.845 38.6765 29.4837V29.8416M38.6765 29.8416C38.6684 29.8986 38.6603 29.9596 38.6521 30.0207C38.5057 30.8749 37.924 31.5949 36.907 32.1806C36.004 32.7013 34.9667 33.0267 33.7911 33.1488C33.4291 33.1894 33.0549 33.2098 32.6684 33.2098C31.326 33.2138 30.1221 32.9779 29.0685 32.5101C28.8326 32.4085 28.6047 32.2904 28.385 32.1643C27.7667 31.8104 27.303 31.3834 26.9898 30.8912C26.7661 30.5332 26.6521 30.1712 26.6521 29.8091M38.6765 29.8416V37.6397C38.6928 37.8065 38.6847 37.9773 38.6521 38.1563C38.5057 39.0106 37.924 39.7306 36.907 40.3163C35.7274 40.9997 34.3159 41.3414 32.6684 41.3455C31.025 41.3495 29.5932 40.9997 28.385 40.3C27.7667 39.9461 27.303 39.5191 26.9898 39.0269C26.6807 38.5347 26.583 38.0343 26.701 37.5299C26.6847 37.534 26.6684 37.538 26.6521 37.538M26.6521 29.8091C26.6521 29.7725 26.6521 29.7318 26.6603 29.6952M26.6521 29.8091L26.6521 37.538M26.6603 29.6952C26.6603 29.5935 26.6766 29.4959 26.701 29.3942C25.2569 29.6789 23.825 29.7359 22.4013 29.5691C21.726 29.4918 21.0833 29.3616 20.4732 29.1745C19.806 28.9793 19.1797 28.719 18.5939 28.3935M26.6603 29.6952L26.6521 29.6953L26.6521 37.538M18.5939 28.3935C18.1668 28.1495 17.9552 27.8687 17.9512 27.5515M18.5939 28.3935C18.1668 28.1495 17.9512 27.8687 17.9512 27.5515M17.9512 27.5515C17.9512 27.2382 18.1505 26.9657 18.5491 26.7338C18.9518 26.502 19.4237 26.3881 19.9688 26.3881C20.5138 26.3881 20.9898 26.506 21.3925 26.7379C22.1532 27.1772 23.0521 27.3929 24.0935 27.3807C25.1389 27.3685 26.0257 27.1528 26.7538 26.7298C27.1565 26.4979 27.5226 26.1969 27.8521 25.8267C28.0067 25.6559 28.1654 25.4647 28.3444 25.2532M17.9512 27.5515V35.6872C17.9552 36.0045 18.1668 36.2851 18.5939 36.5292C19.7126 37.1475 20.9816 37.5421 22.4013 37.7048C23.8088 37.8716 25.2243 37.8146 26.6521 37.538M17.9512 27.5515V32.2254C16.4664 32.4613 14.9979 32.5265 13.5457 32.4329C11.9959 32.3271 10.5803 31.9041 9.29489 31.1637C8.20472 30.5332 7.50905 29.801 7.20803 28.9753C7.0982 28.6743 7.04129 28.3732 7.04129 28.0682V19.9001M28.3444 25.2532H28.3485C28.4949 25.0701 28.6494 24.8749 28.8121 24.6674M28.3444 25.2532L28.3444 20.2376M28.8121 24.6674C28.8691 24.5982 28.9219 24.5291 28.9789 24.4559C29.0968 24.3338 29.2351 24.2281 29.3857 24.1386C29.5402 24.0491 29.7356 23.9922 29.9715 23.9678C30.2074 23.9393 30.4271 23.9352 30.6304 23.9555C30.8298 23.9799 31.0495 24.0287 31.2895 24.1101C32.4285 24.5779 33.665 25.001 35.0074 25.3793C36.3457 25.7576 37.6393 25.5867 38.8922 24.8626C39.8359 24.3176 40.1694 23.7196 39.8928 23.0728C39.8562 22.9833 39.8155 22.8979 39.7667 22.8125C39.4657 22.2715 38.9531 21.7915 38.2331 21.3766C37.4033 20.8966 36.301 20.4247 34.922 19.9569C34.4013 19.7779 33.8481 19.5989 33.2582 19.4077C33.2216 19.3955 33.185 19.3833 33.1484 19.3711C32.2128 19.0742 31.1919 18.761 30.0854 18.4315C29.5648 18.2647 29.1905 18.0288 28.9627 17.7196C28.9139 17.6546 28.8773 17.5894 28.8569 17.5284C28.8285 17.4552 28.8121 17.3779 28.8121 17.3047M28.8121 24.6674V17.3047M28.8121 17.3047C28.8121 17.1379 28.8895 16.9711 29.044 16.8084C29.3288 16.5074 29.764 16.3243 30.3579 16.2552C30.9478 16.1901 31.505 16.2389 32.0257 16.4016C32.408 16.5155 32.7823 16.6335 33.1484 16.7434M28.8121 17.3047L28.8121 17.5326C28.7918 17.5326 28.7674 17.5326 28.7471 17.5407C28.7348 17.5407 28.7267 17.5448 28.7145 17.5448C28.6575 17.5529 28.5965 17.557 28.5437 17.5693C28.4664 17.5815 28.3891 17.5936 28.3118 17.6099C28.2589 17.618 28.202 17.6302 28.1491 17.6465C28.0922 17.6546 28.0311 17.6709 27.9741 17.6872C27.9172 17.7034 27.8603 17.7197 27.8033 17.736C27.7138 17.7645 27.6324 17.793 27.547 17.8215C27.4412 17.8581 27.3395 17.9028 27.2419 17.9475C27.1849 17.9719 27.1321 17.9964 27.0792 18.0248C26.9979 18.0655 26.9206 18.1062 26.8433 18.1509C26.3714 18.4234 25.9972 18.761 25.7206 19.1719M28.8121 17.3047L28.8121 17.2072M28.3444 20.2376V20.2133C28.3362 20.018 28.2467 19.8227 28.0677 19.6356C27.8033 19.3468 27.3965 19.1719 26.8392 19.1109C26.4446 19.0661 26.0704 19.0865 25.7206 19.1719M28.3444 20.2376C28.3444 20.3475 28.3199 20.4614 28.267 20.5712C28.1165 20.8885 27.7912 21.1407 27.2949 21.3156C26.6237 21.5759 25.92 21.8363 25.1837 22.0966C25.143 22.1129 25.1024 22.1251 25.0617 22.1414C24.4027 22.3733 23.7152 22.6092 23.0033 22.8451C22.3606 23.0566 21.7138 23.2519 21.063 23.4268C20.1396 23.6709 19.2081 23.8743 18.2685 24.037C17.8007 24.1183 17.3368 24.1834 16.8772 24.2282C16.869 24.2323 16.861 24.2322 16.8569 24.2322C15.7424 24.3461 14.6399 24.3705 13.5457 24.2973C11.9959 24.1915 10.5803 23.7685 9.29489 23.0282C8.20472 22.3976 7.50905 21.6654 7.20803 20.8397C7.13888 20.6485 7.09015 20.4573 7.06574 20.2621C7.04947 20.1441 7.04129 20.0221 7.04129 19.9001M7.04129 19.9001V19.8105M7.04129 19.8105C7.04536 19.721 7.05354 19.6315 7.06574 19.5421H7.06981C7.12676 19.1393 7.28129 18.7367 7.52943 18.3258C6.65485 18.395 5.79252 18.338 4.93828 18.159C4.08405 17.98 3.3478 17.7115 2.72949 17.3536C1.52949 16.658 0.923319 15.8444 0.923319 14.9007M7.04129 19.8105V26.4858C6.3335 26.5061 5.63384 26.441 4.93824 26.2946C4.08401 26.1156 3.34778 25.8471 2.72948 25.4892C1.52134 24.7895 0.915163 23.9678 0.923299 23.0159L0.923319 14.9007M16.8772 16.2349C16.8772 16.3122 16.861 16.3854 16.8244 16.4587C16.7796 16.5563 16.7186 16.6417 16.6332 16.719C16.5885 16.7637 16.5355 16.8085 16.4745 16.8451C16.3077 16.9549 16.0962 17.0444 15.8359 17.1136C14.9613 17.3414 14.2291 17.5488 13.6352 17.7237C13.0454 17.8987 12.5491 18.1061 12.1464 18.338C11.4386 18.7448 11.0766 19.2492 11.0562 19.8512C11.0359 20.4533 11.3938 20.9658 12.1301 21.3929C12.8501 21.8037 13.7288 22.0153 14.7742 22.0234H14.9572C15.5796 22.0112 16.2223 21.9624 16.8772 21.8648M16.8772 16.2349V21.8648M16.8772 21.8648C17.406 21.7956 17.9431 21.6939 18.4882 21.5678C19.3546 21.3685 20.2087 21.1326 21.0549 20.86M21.0549 20.86C21.0874 20.8478 21.1199 20.8397 21.1525 20.8275C21.4779 20.7217 21.7993 20.6119 22.1207 20.498C23.2678 20.0831 24.2888 19.7048 25.1796 19.3468H25.1837M25.1837 19.3468C25.2244 19.3306 25.2569 19.3183 25.2935 19.3021C25.4318 19.2451 25.5741 19.2004 25.7206 19.1719M25.1837 19.3468V19.3753M44.0136 25.5787V23.6669M26.6521 37.8879V37.538" stroke="#27272A" stroke-opacity="0.25" stroke-linecap="round" stroke-linejoin="round"/>
      </svg>