<svg xmlns="http://www.w3.org/2000/svg" viewBox="0 0 48 48">
        <path d="M25.2826 14.2582C25.2826 14.7225 25.1489 15.0451 24.8774 15.23C24.5823 15.3953 24.2321 15.3638 23.8269 15.1317C23.4216 14.8956 23.0754 14.5258 22.7803 14.0182L22.143 12.9245L21.4898 11.7953V28.9966C21.4898 29.4727 21.3482 29.7952 21.0649 29.9566C20.8446 30.0825 20.577 30.0825 20.2702 29.9527C20.1915 29.9251 20.1049 29.8858 20.0184 29.8346C19.9239 29.7795 19.8295 29.7205 19.743 29.6497C19.4793 29.4491 19.2472 29.1893 19.0466 28.8746C19.019 28.8313 18.9954 28.7881 18.9679 28.7448C18.6846 28.2569 18.543 27.773 18.543 27.293V10.0917L17.217 10.8471C16.922 11.0163 16.5797 10.9809 16.1862 10.7369C16.1587 10.7172 16.1272 10.7015 16.0997 10.6818C15.7416 10.4418 15.4269 10.0838 15.1554 9.61561C14.8839 9.11987 14.7423 8.64381 14.7305 8.18741V8.17954C14.7187 7.72709 14.8603 7.41627 15.1554 7.24708L18.9836 5.06348L19.078 5.01626C19.3534 4.9061 19.6682 4.94938 20.0184 5.15397C20.4079 5.37823 20.7541 5.74807 21.0492 6.25561L24.8774 12.8615C25.1489 13.3297 25.2826 13.794 25.2826 14.2582Z" fill="white"/>
<path d="M31.8019 26.4943V45.0923C31.8019 46.0209 31.5147 46.6504 30.9364 46.9809C30.3619 47.3113 29.6655 47.2405 28.855 46.7723L11.1777 36.5664C10.3672 36.0982 9.67472 35.3664 9.09636 34.371C8.51799 33.3756 8.23079 32.4117 8.23079 31.4831V12.8851C8.23079 11.9566 8.51799 11.3271 9.09636 10.9966C9.67472 10.67 10.3672 10.7409 11.1777 11.2051L14.1246 12.9087C14.5416 13.1487 14.8918 13.5146 15.1711 13.9986C15.4544 14.4864 15.596 14.9704 15.596 15.4504C15.596 15.9304 15.4544 16.2491 15.1711 16.4104C14.8918 16.5717 14.5416 16.5284 14.1246 16.2884L11.1777 14.5887V33.1828L28.855 43.3927V24.7946L26.4118 23.3861L25.9082 23.095C25.4911 22.851 25.1409 22.4891 24.8616 22.0012C24.5783 21.5133 24.4367 21.0333 24.4367 20.5533C24.4367 20.0733 24.5783 19.7546 24.8616 19.5933L24.9482 19.55C25.2118 19.4438 25.5344 19.495 25.9082 19.7113L28.855 21.415C29.0282 21.5133 29.1973 21.6274 29.3587 21.7533C29.9567 22.2097 30.4839 22.8274 30.9364 23.6104C31.5147 24.6058 31.8019 25.5658 31.8019 26.4943Z" fill="white"/>
<path d="M24.4367 20.5533C24.4367 21.0333 24.5783 21.5133 24.8616 22.0012C25.1409 22.4891 25.4911 22.851 25.9082 23.095L26.4118 23.3861L28.855 24.7946L28.8551 26.0615H28.8472L21.0649 29.9566C21.3482 29.7952 21.4898 29.4727 21.4898 28.9966V11.7953L22.143 12.9245L22.7803 14.0182C23.0754 14.5258 23.4216 14.8956 23.8269 15.1317C24.2321 15.3638 24.5823 15.3953 24.8774 15.23L29.3587 12.9913V17.3468L24.9482 19.55L24.8616 19.5933C24.5783 19.7546 24.4367 20.0733 24.4367 20.5533Z" fill="white"/>
<path d="M33.1514 10.3238C33.1514 10.7881 33.0177 11.1107 32.7462 11.2956L29.3587 12.9913L24.8774 15.23C25.1489 15.0451 25.2826 14.7225 25.2826 14.2582C25.2826 13.794 25.1489 13.3297 24.8774 12.8615L21.0492 6.25561C20.7541 5.74807 20.4079 5.37823 20.0184 5.15397C19.6682 4.94938 19.3534 4.9061 19.078 5.01626L26.8524 1.12906C27.1475 0.96381 27.4937 0.991351 27.8872 1.21955C28.2767 1.44381 28.6229 1.81365 28.918 2.32119L32.7462 8.92708C33.0177 9.39528 33.1514 9.85954 33.1514 10.3238Z" fill="white"/>
<path d="M18.543 10.0917L18.5429 14.7264L15.1711 16.4104C15.4544 16.2491 15.596 15.9264 15.596 15.4504C15.596 14.9743 15.4544 14.4864 15.1711 13.9986C14.8918 13.5146 14.5416 13.1487 14.1246 12.9087L11.1777 11.2051C10.3672 10.7409 9.67472 10.67 9.09636 10.9966L14.7305 8.17954V8.18741C14.7423 8.64381 14.8839 9.11987 15.1554 9.61561C15.4269 10.0838 15.7416 10.4418 16.0997 10.6818C16.1272 10.7015 16.1587 10.7172 16.1862 10.7369C16.5797 10.9809 16.922 11.0163 17.217 10.8471L18.543 10.0917Z" fill="white"/>
<path d="M19.0466 28.8746L19.0465 29.2484L16.9023 30.3225L11.1777 33.1828V14.5887L14.1246 16.2884C14.5416 16.5284 14.8918 16.5717 15.1711 16.4104L18.5429 14.7264L18.543 27.293C18.543 27.773 18.6846 28.2569 18.9679 28.7448C18.9954 28.7881 19.019 28.8313 19.0466 28.8746Z" fill="white"/>
<path d="M28.855 34.914V43.3927L11.1777 33.1828L16.9023 30.3225L19.0465 29.2484L19.743 29.6497C19.8295 29.7205 19.9239 29.7795 20.0184 29.8346C20.1049 29.8858 20.1915 29.9251 20.2702 29.9527L28.855 34.914Z" fill="white"/>
<path d="M39.6708 22.5598V41.1579C39.6708 42.0864 39.3836 42.7159 38.8052 43.0464L30.9364 46.9809C31.5147 46.6504 31.8019 46.0209 31.8019 45.0923V26.4943C31.8019 25.5658 31.5147 24.6058 30.9364 23.6104C30.4839 22.8274 29.9567 22.2097 29.3587 21.7533C29.1973 21.6274 29.0282 21.5133 28.855 21.415L25.9082 19.7113C25.5344 19.495 25.2118 19.4438 24.9482 19.55L29.3587 17.3468L32.7305 15.6588C33.0098 15.4975 33.36 15.5369 33.777 15.7769L36.7239 17.4805C37.5344 17.9487 38.2308 18.6805 38.8052 19.6759C39.3836 20.6713 39.6708 21.6313 39.6708 22.5598Z" fill="white"/>
<path d="M24.8774 15.23C25.1489 15.0451 25.2826 14.7225 25.2826 14.2582C25.2826 13.794 25.1489 13.3297 24.8774 12.8615L21.0492 6.25561C20.7541 5.74807 20.4079 5.37823 20.0184 5.15397C19.6682 4.94938 19.3534 4.9061 19.078 5.01626M24.8774 15.23C24.5823 15.3953 24.2321 15.3638 23.8269 15.1317C23.4216 14.8956 23.0754 14.5258 22.7803 14.0182L22.143 12.9245L21.4898 11.7953V28.9966C21.4898 29.4727 21.3482 29.7952 21.0649 29.9566M24.8774 15.23L29.3587 12.9913M21.0649 29.9566C20.8446 30.0825 20.577 30.0825 20.2702 29.9527M21.0649 29.9566L28.8472 26.0615H28.8551L28.855 24.7946M20.2702 29.9527C20.1915 29.9251 20.1049 29.8858 20.0184 29.8346C19.9239 29.7795 19.8295 29.7205 19.743 29.6497M20.2702 29.9527L28.855 34.914V43.3927M19.743 29.6497C19.4793 29.4491 19.2472 29.1893 19.0466 28.8746M19.743 29.6497L19.0465 29.2484M19.0466 28.8746C19.019 28.8313 18.9954 28.7881 18.9679 28.7448C18.6846 28.2569 18.543 27.773 18.543 27.293M19.0466 28.8746L19.0465 29.2484M18.543 27.293V10.0917M18.543 27.293L18.5429 14.7264M18.543 10.0917L17.217 10.8471C16.922 11.0163 16.5797 10.9809 16.1862 10.7369C16.1587 10.7172 16.1272 10.7015 16.0997 10.6818C15.7416 10.4418 15.4269 10.0838 15.1554 9.61561C14.8839 9.11987 14.7423 8.64381 14.7305 8.18741V8.17954M18.543 10.0917L18.5429 14.7264M14.7305 8.17954C14.7187 7.72708 14.8603 7.41626 15.1554 7.24708L18.9836 5.06348L19.078 5.01626M14.7305 8.17954L9.09636 10.9966M19.078 5.01626L26.8524 1.12906C27.1475 0.96381 27.4937 0.991351 27.8872 1.21955C28.2767 1.44381 28.6229 1.81365 28.918 2.32119L32.7462 8.92708C33.0177 9.39528 33.1514 9.85954 33.1514 10.3238C33.1514 10.7881 33.0177 11.1107 32.7462 11.2956L29.3587 12.9913M30.9364 46.9809C31.5147 46.6504 31.8019 46.0209 31.8019 45.0923V26.4943C31.8019 25.5658 31.5147 24.6058 30.9364 23.6104C30.4839 22.8274 29.9567 22.2097 29.3587 21.7533C29.1973 21.6274 29.0282 21.5133 28.855 21.415L25.9082 19.7113C25.5344 19.495 25.2118 19.4438 24.9482 19.55M30.9364 46.9809C30.3619 47.3113 29.6655 47.2405 28.855 46.7723L11.1777 36.5664C10.3672 36.0982 9.67472 35.3664 9.09636 34.371C8.51799 33.3756 8.23079 32.4117 8.23079 31.4831V12.8851C8.23079 11.9566 8.51799 11.3271 9.09636 10.9966M30.9364 46.9809L38.8052 43.0464C39.3836 42.7159 39.6708 42.0864 39.6708 41.1579V22.5598C39.6708 21.6313 39.3836 20.6713 38.8052 19.6759C38.2308 18.6805 37.5344 17.9487 36.7239 17.4805L33.777 15.7769C33.36 15.5369 33.0098 15.4975 32.7305 15.6588L29.3587 17.3468M9.09636 10.9966C9.67472 10.67 10.3672 10.7409 11.1777 11.2051L14.1246 12.9087C14.5416 13.1487 14.8918 13.5146 15.1711 13.9986M15.1711 13.9986C15.4544 14.4864 15.596 14.9704 15.596 15.4504M15.1711 13.9986C15.4544 14.4864 15.596 14.9743 15.596 15.4504M15.596 15.4504C15.596 15.9304 15.4544 16.2491 15.1711 16.4104M15.596 15.4504C15.596 15.9264 15.4544 16.2491 15.1711 16.4104M15.1711 16.4104C14.8918 16.5717 14.5416 16.5284 14.1246 16.2884L11.1777 14.5887V33.1828M15.1711 16.4104L18.5429 14.7264M11.1777 33.1828L28.855 43.3927M11.1777 33.1828L16.9023 30.3225L19.0465 29.2484M28.855 43.3927V24.7946M28.855 24.7946L26.4118 23.3861L25.9082 23.095C25.4911 22.851 25.1409 22.4891 24.8616 22.0012C24.5783 21.5133 24.4367 21.0333 24.4367 20.5533C24.4367 20.0733 24.5783 19.7546 24.8616 19.5933L24.9482 19.55M24.9482 19.55L29.3587 17.3468M29.3587 12.9913V17.3468" stroke="#27272A" stroke-opacity="0.25" stroke-linecap="round" stroke-linejoin="round"/>
      </svg>