<svg xmlns="http://www.w3.org/2000/svg" viewBox="0 0 48 48">
        <path d="M31.8662 19.2287C31.3076 18.2645 30.6331 17.557 29.851 17.1018L29.5696 16.9404L9.88552 5.5735C9.18207 5.16799 8.56965 5.07282 8.04827 5.28799L7.87033 5.37488C7.31171 5.6935 7.03033 6.30178 7.03033 7.19971V30.1114C7.03033 31.0135 7.31171 31.9445 7.87033 32.9087C8.42896 33.8728 9.09931 34.5804 9.88552 35.0314L29.851 46.5596C30.6331 47.0107 31.3076 47.081 31.8662 46.7624C32.4248 46.4438 32.7021 45.8314 32.7021 44.9334V22.0218C32.7021 21.1239 32.4248 20.1887 31.8662 19.2287ZM26.5862 31.1128C26.3131 31.2701 25.9738 31.2287 25.5724 30.997L21.2938 28.5266V33.4383C21.2938 33.9018 21.1572 34.2121 20.8841 34.3652C20.611 34.5225 20.2717 34.4811 19.8662 34.2494C19.4607 34.0176 19.1255 33.6659 18.8524 33.1942C18.5752 32.7225 18.4386 32.2549 18.4386 31.7914V26.8797L14.16 24.4094C13.7586 24.1776 13.4193 23.8259 13.1462 23.3542C12.8731 22.8825 12.7365 22.4149 12.7365 21.9514C12.7365 21.488 12.8731 21.1776 13.1462 21.0204C13.4193 20.8632 13.7586 20.9045 14.16 21.1363L18.4386 23.6066V18.699C18.4386 18.2356 18.5752 17.9252 18.8524 17.768C19.1255 17.6107 19.4607 17.6521 19.8662 17.8839C20.2717 18.1197 20.611 18.4714 20.8841 18.9432C21.1572 19.4149 21.2938 19.8825 21.2938 20.3459V25.2535L21.48 25.3611L24.331 27.008L25.5724 27.7239C25.9738 27.9556 26.3131 28.3114 26.5862 28.7832C26.8593 29.2549 26.9959 29.7225 26.9959 30.1859C26.9959 30.6494 26.8593 30.9556 26.5862 31.1128Z" fill="white"/>
<path d="M21.48 25.3611L18.4386 26.8797L14.16 24.4094C13.7586 24.1776 13.4193 23.8259 13.1462 23.3542C12.8731 22.8825 12.7365 22.4149 12.7365 21.9514C12.7365 21.488 12.8731 21.1776 13.1462 21.0204C13.4193 20.8632 13.7586 20.9045 14.16 21.1363L18.4386 23.6066L21.2938 22.179V25.2535L21.48 25.3611Z" fill="white"/>
<path d="M21.2938 20.3459V22.179L18.4386 23.6066V18.699C18.4386 18.2356 18.5752 17.9252 18.8524 17.768C19.1255 17.6107 19.4607 17.6521 19.8662 17.8839C20.2717 18.1197 20.611 18.4714 20.8841 18.9432C21.1572 19.4149 21.2938 19.8825 21.2938 20.3459Z" fill="white"/>
<path d="M26.9959 30.1859C26.9959 30.6494 26.8593 30.9556 26.5862 31.1128C26.3131 31.2701 25.9738 31.2287 25.5724 30.997L21.2938 28.5266L24.331 27.008L25.5724 27.7239C25.9738 27.9556 26.3131 28.3114 26.5862 28.7832C26.8593 29.2549 26.9959 29.7225 26.9959 30.1859Z" fill="white"/>
<path d="M24.331 27.008L21.2938 28.5266V33.4383C21.2938 33.9018 21.1572 34.2121 20.8841 34.3652C20.611 34.5225 20.2717 34.4811 19.8662 34.2494C19.4607 34.0176 19.1255 33.6659 18.8524 33.1942C18.5752 32.7225 18.4386 32.2549 18.4386 31.7914V26.8797L21.48 25.3611L24.331 27.008Z" fill="white"/>
<path d="M40.9779 17.8838V40.7955C40.9779 41.6934 40.7007 42.3058 40.1421 42.6245L39.9641 42.7114L31.8662 46.7624C32.4248 46.4438 32.7021 45.8314 32.7021 44.9334V22.0218C32.7021 21.1239 32.4248 20.1887 31.8662 19.2287C31.3076 18.2645 30.6331 17.557 29.851 17.1018L29.5696 16.9404L9.88552 5.5735C9.18207 5.16799 8.56965 5.07282 8.04827 5.28799L16.1462 1.23692C16.7048 0.918295 17.3752 0.984502 18.1614 1.43554L38.1269 12.9638C38.909 13.419 39.5834 14.1266 40.1421 15.0907C40.7007 16.0507 40.9779 16.9859 40.9779 17.8838Z" fill="white"/>
<path d="M8.04827 5.28799C8.56965 5.07282 9.18207 5.16799 9.88552 5.5735L29.5696 16.9404L29.851 17.1018C30.6331 17.557 31.3076 18.2645 31.8662 19.2287C32.4248 20.1887 32.7021 21.1239 32.7021 22.0218V44.9334C32.7021 45.8314 32.4248 46.4438 31.8662 46.7624M8.04827 5.28799L7.87033 5.37488C7.31171 5.6935 7.03033 6.30178 7.03033 7.19971V30.1114C7.03033 31.0135 7.31171 31.9445 7.87033 32.9087C8.42896 33.8728 9.09931 34.5804 9.88552 35.0314L29.851 46.5596C30.6331 47.0107 31.3076 47.081 31.8662 46.7624M8.04827 5.28799L16.1462 1.23692C16.7048 0.918295 17.3752 0.984502 18.1614 1.43554L38.1269 12.9638C38.909 13.419 39.5834 14.1266 40.1421 15.0907C40.7007 16.0507 40.9779 16.9859 40.9779 17.8838V40.7955C40.9779 41.6934 40.7007 42.3058 40.1421 42.6245L39.9641 42.7114L31.8662 46.7624M21.2938 28.5266L25.5724 30.997C25.9738 31.2287 26.3131 31.2701 26.5862 31.1128C26.8593 30.9556 26.9959 30.6494 26.9959 30.1859C26.9959 29.7225 26.8593 29.2549 26.5862 28.7832C26.3131 28.3114 25.9738 27.9556 25.5724 27.7239L24.331 27.008M21.2938 28.5266V33.4383C21.2938 33.9018 21.1572 34.2121 20.8841 34.3652C20.611 34.5225 20.2717 34.4811 19.8662 34.2494C19.4607 34.0176 19.1255 33.6659 18.8524 33.1942C18.5752 32.7225 18.4386 32.2549 18.4386 31.7914V26.8797M21.2938 28.5266L24.331 27.008M18.4386 26.8797L21.48 25.3611M18.4386 26.8797L14.16 24.4094C13.7586 24.1776 13.4193 23.8259 13.1462 23.3542C12.8731 22.8825 12.7365 22.4149 12.7365 21.9514C12.7365 21.488 12.8731 21.1776 13.1462 21.0204C13.4193 20.8632 13.7586 20.9045 14.16 21.1363L18.4386 23.6066M18.4386 23.6066V18.699C18.4386 18.2356 18.5752 17.9252 18.8524 17.768C19.1255 17.6107 19.4607 17.6521 19.8662 17.8839C20.2717 18.1197 20.611 18.4714 20.8841 18.9432C21.1572 19.4149 21.2938 19.8825 21.2938 20.3459M18.4386 23.6066L21.2938 22.179M21.2938 20.3459V25.2535M21.2938 20.3459V22.179M21.2938 25.2535L21.48 25.3611M21.2938 25.2535V22.179M21.48 25.3611L24.331 27.008" stroke="#27272A" stroke-opacity="0.25" stroke-linecap="round" stroke-linejoin="round"/>
      </svg>