<svg xmlns="http://www.w3.org/2000/svg" viewBox="0 0 48 48">
        <path d="M34.076 19.9751C34.08 20.2776 33.8864 20.5398 33.5032 20.7657L27.8804 24.0127L25.2747 22.5082C24.8875 22.2864 24.4316 22.1734 23.9072 22.1734C23.3829 22.1693 22.9271 22.2823 22.5439 22.5041L20.0027 23.9724L14.384 20.7294C13.9967 20.5035 13.799 20.2413 13.799 19.9388C13.799 19.8138 13.8272 19.6968 13.8958 19.5879C13.9886 19.4265 14.1459 19.2813 14.3758 19.1522L22.5439 14.4369C22.9271 14.2151 23.3829 14.1021 23.9072 14.1062C24.4316 14.1062 24.8875 14.2191 25.2747 14.441L33.4911 19.1885C33.7573 19.3378 33.9308 19.5072 34.0155 19.6968C34.0559 19.7855 34.076 19.8783 34.076 19.9751Z" fill="white"/>
<path d="M45.7775 18.4221L26.6016 7.34987C25.8473 6.91424 24.9358 6.69642 23.8669 6.69238C22.798 6.69238 21.8864 6.90618 21.1401 7.33778L2.08132 18.3415C1.33107 18.773 0.959961 19.2975 0.959961 19.9186C0.963995 20.5358 1.34309 21.0601 2.09737 21.4957L21.2732 32.568C22.0275 33.0036 22.9391 33.2214 24.008 33.2255C25.0809 33.2255 25.9885 33.0117 26.7388 32.5801L45.7977 21.5764C46.5398 21.1448 46.915 20.6204 46.915 20.0073V19.9993C46.9109 19.3822 46.5318 18.8578 45.7775 18.4221ZM33.5032 20.7657L27.8804 24.0127L25.3351 25.4809C24.9478 25.7028 24.4921 25.8117 23.9677 25.8117C23.4433 25.8117 22.9915 25.6988 22.6003 25.4729L20.0027 23.9724L14.384 20.7294C13.9967 20.5035 13.799 20.2413 13.799 19.9388C13.799 19.8138 13.8272 19.6968 13.8958 19.5879C13.9886 19.4265 14.1459 19.2813 14.3758 19.1522L22.5439 14.4369C22.9271 14.2151 23.3829 14.1021 23.9072 14.1062C24.4316 14.1062 24.8875 14.2191 25.2747 14.441L33.4911 19.1885C33.7573 19.3378 33.9308 19.5072 34.0155 19.6968C34.0559 19.7855 34.076 19.8783 34.076 19.9751C34.08 20.2776 33.8864 20.5398 33.5032 20.7657Z" fill="white"/>
<path d="M46.915 20.0073V28.0665C46.919 28.6837 46.5439 29.208 45.7977 29.6436L26.7388 40.6474C25.9885 41.079 25.0809 41.2927 24.008 41.2927C22.9391 41.2887 22.0275 41.0709 21.2732 40.6352L2.09737 29.563C1.34309 29.1273 0.963995 28.603 0.959961 27.9859V19.9186C0.963995 20.5358 1.34309 21.0601 2.09737 21.4957L21.2732 32.568C22.0275 33.0036 22.9391 33.2214 24.008 33.2255C25.0809 33.2255 25.9885 33.0117 26.7388 32.5801L45.7977 21.5764C46.5398 21.1448 46.915 20.6204 46.915 20.0073Z" fill="white"/>
<path d="M27.8804 24.0127L33.5032 20.7657C33.8864 20.5398 34.08 20.2776 34.076 19.9751C34.076 19.8783 34.0559 19.7855 34.0155 19.6968C33.9308 19.5072 33.7573 19.3378 33.4911 19.1885L25.2747 14.441C24.8875 14.2191 24.4316 14.1062 23.9072 14.1062C23.3829 14.1021 22.9271 14.2151 22.5439 14.4369L14.3758 19.1522C14.1459 19.2813 13.9886 19.4265 13.8958 19.5879C13.8272 19.6968 13.799 19.8138 13.799 19.9388C13.799 20.2413 13.9967 20.5035 14.384 20.7294L20.0027 23.9724M27.8804 24.0127L25.2747 22.5082C24.8875 22.2864 24.4316 22.1734 23.9072 22.1734C23.3829 22.1693 22.9271 22.2823 22.5439 22.5041L20.0027 23.9724M27.8804 24.0127L25.3351 25.4809C24.9478 25.7028 24.4921 25.8117 23.9677 25.8117C23.4433 25.8117 22.9915 25.6988 22.6003 25.4729L20.0027 23.9724M0.959961 19.9186C0.959961 19.2975 1.33107 18.773 2.08132 18.3415L21.1401 7.33778C21.8864 6.90618 22.798 6.69238 23.8669 6.69238C24.9358 6.69642 25.8473 6.91424 26.6016 7.34987L45.7775 18.4221C46.5318 18.8578 46.9109 19.3822 46.915 19.9993V20.0073M0.959961 19.9186C0.963995 20.5358 1.34309 21.0601 2.09737 21.4957L21.2732 32.568C22.0275 33.0036 22.9391 33.2214 24.008 33.2255C25.0809 33.2255 25.9885 33.0117 26.7388 32.5801L45.7977 21.5764C46.5398 21.1448 46.915 20.6204 46.915 20.0073M0.959961 19.9186V27.9859C0.963995 28.603 1.34309 29.1273 2.09737 29.563L21.2732 40.6352C22.0275 41.0709 22.9391 41.2887 24.008 41.2927C25.0809 41.2927 25.9885 41.079 26.7388 40.6474L45.7977 29.6436C46.5439 29.208 46.919 28.6837 46.915 28.0665V20.0073" stroke="#27272A" stroke-opacity="0.25" stroke-linecap="round" stroke-linejoin="round"/>
      </svg>