<svg xmlns="http://www.w3.org/2000/svg" viewBox="0 0 48 48">
        <path d="M35.8183 30.1428C35.7417 30.4736 35.5803 30.7035 35.3343 30.8285C35.2536 30.8729 35.1649 30.9012 35.0641 30.9213L29.1266 32.3291L27.7753 32.6517L30.6392 44.9785C30.8086 45.6117 30.8005 46.1079 30.615 46.4628C30.4738 46.7291 30.2963 46.9146 30.0745 47.0235C29.9978 47.0598 29.9212 47.088 29.8364 47.1082C29.5017 47.1848 29.1144 47.1082 28.6788 46.8743C28.2432 46.6403 27.8398 46.245 27.4727 45.6884L20.0348 34.8743L12.5928 37.0968C12.2257 37.2299 11.8223 37.1613 11.3867 36.8911C10.9511 36.6208 10.5679 36.2538 10.2331 35.7899C9.89834 35.3301 9.63615 34.8138 9.45061 34.245C9.26909 33.6763 9.26103 33.1721 9.4264 32.7324L12.2943 23.7133L5.00555 13.5647C4.60219 13.0242 4.35211 12.4756 4.25127 11.919C4.15043 11.3623 4.16656 10.9106 4.29967 10.5637C4.43277 10.2168 4.67076 9.9788 5.00555 9.84569C5.34034 9.71258 5.73968 9.78115 6.21161 10.0514L15.2066 15.2467L17.4977 7.87729L18.1229 5.85645C18.26 5.49342 18.4536 5.25544 18.7118 5.13443L18.7722 5.10619C18.8166 5.09006 18.857 5.07796 18.9013 5.06586C19.2563 4.98115 19.6314 5.05376 20.0348 5.28367C20.4341 5.51762 20.8133 5.88065 21.1642 6.36871C21.5151 6.86081 21.7773 7.42552 21.9427 8.0588L24.859 20.8171L33.858 26.0124C34.3259 26.2827 34.7293 26.678 35.0641 27.1983C35.3988 27.7186 35.6327 28.2309 35.7659 28.7311C35.899 29.2312 35.9191 29.7032 35.8183 30.1428Z" fill="white"/>
<path d="M43.8853 26.1092C43.8167 26.4158 43.6756 26.6336 43.4618 26.7627L43.369 26.807L36.2496 30.3687L35.3343 30.8285C35.5803 30.7035 35.7417 30.4736 35.8183 30.1428C35.9191 29.7032 35.899 29.2312 35.7659 28.7311C35.6327 28.2309 35.3988 27.7186 35.0641 27.1983C34.7293 26.678 34.3259 26.2827 33.858 26.0124L24.859 20.8171L32.926 16.7835L41.9249 21.9788C42.3928 22.2491 42.7962 22.6443 43.131 23.1647C43.4658 23.685 43.6998 24.1973 43.8329 24.6975C43.966 25.1976 43.9862 25.6696 43.8853 26.1092Z" fill="white"/>
<path d="M38.6821 42.4292C38.5409 42.6954 38.3635 42.881 38.1416 42.9899L30.0745 47.0235C30.2963 46.9146 30.4738 46.7291 30.615 46.4628C30.8005 46.1079 30.8086 45.6117 30.6392 44.9785L27.7753 32.6517L29.1266 32.3291L35.0641 30.9213C35.1649 30.9012 35.2536 30.8729 35.3343 30.8285L36.2496 30.3687L38.7063 40.9449C38.8757 41.5781 38.8677 42.0743 38.6821 42.4292Z" fill="white"/>
<path d="M17.4977 7.87729L15.2066 15.2467L6.21161 10.0514C5.73968 9.78115 5.34034 9.71258 5.00555 9.84569L13.0726 5.81208C13.4074 5.67897 13.8067 5.74754 14.2787 6.01779L17.4977 7.87729Z" fill="white"/>
<path d="M32.926 16.7835L24.859 20.8171L21.9427 8.0588C21.7773 7.42552 21.5151 6.86081 21.1642 6.36871C20.8133 5.88065 20.4341 5.51762 20.0348 5.28367C19.6314 5.05376 19.2563 4.98115 18.9013 5.06586C18.857 5.07796 18.8166 5.09006 18.7722 5.10619L26.678 1.1573H26.682C26.7667 1.09679 26.8635 1.05646 26.9684 1.03226C27.3233 0.947549 27.6985 1.02015 28.1018 1.25007C28.5012 1.48402 28.8803 1.84704 29.2312 2.33511C29.5822 2.82721 29.8444 3.39192 30.0097 4.0252L32.926 16.7835Z" fill="white"/>
<path d="M38.2062 42.9576L38.1416 42.9899L38.2062 42.9576Z" fill="white"/>
<path d="M30.0745 47.0235L30.0461 47.0396L30.0745 47.0235Z" fill="white"/>
<path d="M18.7118 5.13443L18.7722 5.10619L18.7118 5.13443Z" fill="white"/>
<path d="M35.3343 30.8285C35.5803 30.7035 35.7417 30.4736 35.8183 30.1428C35.9191 29.7032 35.899 29.2312 35.7659 28.7311C35.6328 28.2309 35.3988 27.7186 35.0641 27.1983C34.7293 26.678 34.3259 26.2827 33.858 26.0124L24.859 20.8171M35.3343 30.8285C35.2536 30.8729 35.1649 30.9012 35.0641 30.9213L29.1266 32.3291L27.7753 32.6517L30.6392 44.9785C30.8086 45.6117 30.8005 46.1079 30.615 46.4628C30.4738 46.7291 30.2963 46.9146 30.0745 47.0235M35.3343 30.8285L36.2496 30.3687M30.0745 47.0235C29.9978 47.0598 29.9212 47.088 29.8364 47.1082C29.5017 47.1849 29.1144 47.1082 28.6788 46.8743C28.2432 46.6403 27.8398 46.245 27.4727 45.6884L20.0348 34.8743L12.5928 37.0968C12.2257 37.2299 11.8223 37.1613 11.3867 36.8911C10.9511 36.6208 10.5679 36.2538 10.2331 35.7899C9.89834 35.3301 9.63615 34.8138 9.45061 34.245C9.26909 33.6763 9.26103 33.1721 9.4264 32.7324L12.2943 23.7133L5.00555 13.5647C4.60219 13.0242 4.35211 12.4756 4.25127 11.919C4.15043 11.3623 4.16656 10.9106 4.29967 10.5637C4.43277 10.2168 4.67076 9.9788 5.00555 9.84569M30.0745 47.0235L38.1416 42.9899M30.0745 47.0235L30.0461 47.0396M5.00555 9.84569C5.34034 9.71258 5.73968 9.78115 6.21161 10.0514L15.2066 15.2467L17.4977 7.87729M5.00555 9.84569L13.0726 5.81208C13.4074 5.67897 13.8067 5.74754 14.2787 6.01779L17.4977 7.87729M17.4977 7.87729L18.1229 5.85645C18.26 5.49342 18.4536 5.25544 18.7118 5.13443L18.7722 5.10619M18.7722 5.10619C18.8166 5.09006 18.857 5.07796 18.9013 5.06586C19.2563 4.98115 19.6314 5.05376 20.0348 5.28367C20.4341 5.51762 20.8133 5.88065 21.1642 6.36871C21.5151 6.86081 21.7773 7.42552 21.9427 8.0588L24.859 20.8171M18.7722 5.10619L26.678 1.1573H26.682C26.7667 1.09679 26.8635 1.05646 26.9684 1.03226C27.3233 0.947549 27.6985 1.02015 28.1018 1.25007C28.5012 1.48402 28.8803 1.84704 29.2312 2.33511C29.5822 2.82721 29.8444 3.39192 30.0097 4.0252L32.926 16.7835M24.859 20.8171L32.926 16.7835M36.2496 30.3687L43.369 26.807L43.4618 26.7627C43.6756 26.6336 43.8168 26.4158 43.8853 26.1092C43.9862 25.6696 43.966 25.1976 43.8329 24.6975C43.6998 24.1973 43.4658 23.685 43.131 23.1647C42.7962 22.6443 42.3928 22.2491 41.9249 21.9788L32.926 16.7835M36.2496 30.3687L38.7063 40.9449C38.8757 41.5781 38.8677 42.0743 38.6821 42.4292C38.5409 42.6954 38.3635 42.881 38.1416 42.9899M38.1416 42.9899L38.2062 42.9576" stroke="#27272A" stroke-opacity="0.25" stroke-linecap="round" stroke-linejoin="round"/>
      </svg>