<svg xmlns="http://www.w3.org/2000/svg" viewBox="0 0 48 48">
        <path d="M30.2309 15.3375C30.2309 17.4357 29.5818 18.8575 28.2789 19.598L24.4115 21.5317L19.1361 24.1695C20.4389 23.4289 21.0881 22.0072 21.0881 19.9089C21.0881 19.854 21.0881 19.8037 21.0835 19.7489C21.0698 18.702 20.8915 17.6369 20.5486 16.5535C20.2286 15.5203 19.7578 14.4689 19.1361 13.3992C18.6241 12.5169 18.0755 11.7352 17.4857 11.0403C16.5669 9.95231 15.5521 9.09288 14.4412 8.44831C12.7726 7.48374 11.3235 7.26888 10.0938 7.80831L18.8938 3.40602C20.1921 2.66545 21.7601 2.82088 23.5841 3.87688C25.4126 4.93288 26.9761 6.58316 28.2789 8.82774C29.5818 11.0723 30.2309 13.2437 30.2309 15.3375Z" fill="white"/>
<path d="M32.7544 28.5123C32.7544 28.5123 32.7315 28.4849 32.7178 28.4712V28.5306M32.7544 28.5123C32.7864 28.5397 32.8138 28.5672 32.8366 28.5992L32.7178 28.5306M32.7544 28.5123L32.7178 28.5306L32.7544 28.5123Z" fill="white"/>
<path d="M27.7348 41.2895V42.8117C27.7348 43.8632 27.4103 44.5717 26.7566 44.942C26.1075 45.3123 25.3258 45.2346 24.4115 44.7089L4.47548 33.198C3.56119 32.6677 2.77953 31.8449 2.12581 30.7203C1.47667 29.6003 1.15204 28.5123 1.15204 27.4655V25.9386C1.15204 24.8597 1.39437 24.0049 1.87894 23.3786C2.13494 23.0494 2.43664 22.8026 2.78407 22.6472C3.09036 22.5055 3.43321 22.4277 3.80807 22.4232C5.52693 22.4277 7.27317 22.6975 9.04232 23.2277C9.4766 23.3603 9.9155 23.5066 10.3544 23.6666C11.7029 24.1649 13.0652 24.814 14.4412 25.6049C16.2698 26.6609 18.0708 27.9455 19.8446 29.4632C21.6137 30.9763 23.3601 32.7226 25.0744 34.702C25.3395 35.0083 25.5863 35.3329 25.8103 35.6666C26.2857 36.3523 26.6835 37.0929 27.0081 37.8883C27.4926 39.0723 27.7348 40.206 27.7348 41.2895Z" fill="white"/>
<path d="M41.792 32.1192C41.7188 32.3752 41.5817 32.558 41.3852 32.6677L36.6857 35.0174L32.2423 37.2392C32.5577 37.0609 32.7178 36.6997 32.7178 36.1603V32.3432L36.0412 34.2632C36.2241 34.3683 36.3932 34.4415 36.5486 34.4735C36.8046 34.5375 37.0286 34.51 37.2251 34.4003L40.5943 32.7134H40.5989L41.792 32.1192Z" fill="white"/>
<path d="M41.8606 20.1466V23.9592L32.7544 28.5123C32.7544 28.5123 32.7315 28.4849 32.7178 28.4712V24.718C32.7178 24.1786 32.5577 23.6346 32.2423 23.086C31.9223 22.5375 31.5291 22.126 31.0583 21.8517C30.9166 21.774 30.7886 21.7146 30.6652 21.6689H30.6606C30.4001 21.5866 30.1715 21.5866 29.9704 21.6735L39.0172 17.1477C39.3326 16.9649 39.7303 17.0106 40.2011 17.2803C40.672 17.5546 41.0652 17.966 41.3852 18.5146C41.7006 19.0632 41.8606 19.6072 41.8606 20.1466Z" fill="white"/>
<path d="M21.0881 19.9089C21.0881 22.0072 20.4389 23.4289 19.1361 24.1695C17.8332 24.91 16.2698 24.7546 14.4412 23.6986C12.9464 22.8392 11.6251 21.5729 10.4823 19.9089C10.2948 19.6392 10.112 19.3557 9.93832 19.0632C9.87432 18.9626 9.81036 18.8575 9.75093 18.7523C8.44807 16.5032 7.79893 14.3363 7.79893 12.238C7.79893 10.1397 8.44807 8.72259 9.75093 7.97745L10.0938 7.80831C11.3235 7.26888 12.7726 7.48374 14.4412 8.44831C15.5521 9.09288 16.5669 9.95231 17.4857 11.0403C18.0755 11.7352 18.6241 12.5169 19.1361 13.3992C19.7578 14.4689 20.2286 15.5203 20.5486 16.5535C20.8915 17.6369 21.0698 18.702 21.0835 19.7489C21.0881 19.8037 21.0881 19.854 21.0881 19.9089Z" fill="white"/>
<path d="M29.4629 22.2723C29.4172 22.4232 29.3943 22.6015 29.3943 22.8026V26.6152L26.0709 24.6952C25.6457 24.4529 25.2846 24.3889 24.9829 24.5123L27.1588 23.4197L29.4629 22.2723Z" fill="white"/>
<path d="M37.7052 33.3169C37.7052 33.8563 37.5451 34.2175 37.2251 34.4003C37.0286 34.51 36.8046 34.5375 36.5486 34.4735C36.3932 34.4415 36.2241 34.3683 36.0412 34.2632L32.7178 32.3432V36.1603C32.7178 36.6997 32.5577 37.0609 32.2423 37.2392C31.9223 37.422 31.5291 37.3763 31.0583 37.1066C30.5874 36.8323 30.1898 36.4209 29.8744 35.8723C29.5544 35.3237 29.3943 34.7797 29.3943 34.2403V30.4277L26.0709 28.5077C25.6 28.238 25.2068 27.8266 24.8868 27.278C24.5714 26.7295 24.4115 26.1809 24.4115 25.6414C24.4115 25.102 24.5714 24.7409 24.8868 24.558L24.9829 24.5123C25.2846 24.3889 25.6457 24.4529 26.0709 24.6952L29.3943 26.6152V22.8026C29.3943 22.6015 29.4172 22.4232 29.4629 22.2723C29.536 22.0117 29.6732 21.8289 29.8744 21.7192L29.9704 21.6735C30.1715 21.5866 30.4001 21.5866 30.6606 21.6689H30.6652C30.7886 21.7146 30.9166 21.774 31.0583 21.8517C31.5291 22.126 31.9223 22.5375 32.2423 23.086C32.5577 23.6346 32.7178 24.1786 32.7178 24.718V28.5306L32.8366 28.5992L36.0412 30.4506C36.5121 30.7203 36.9051 31.1317 37.2251 31.6803C37.5451 32.2334 37.7052 32.7774 37.7052 33.3169Z" fill="white"/>
<path d="M32.7544 28.5123L32.7178 28.5306L32.7544 28.5123Z" fill="white"/>
<path d="M46.848 28.7455C46.848 29.2849 46.688 29.646 46.368 29.8289L41.792 32.1146L40.5989 32.7134H40.5943L37.2251 34.4003C37.5451 34.2175 37.7052 33.8563 37.7052 33.3169C37.7052 32.7774 37.5451 32.2334 37.2251 31.6803C36.9051 31.1317 36.5121 30.7203 36.0412 30.4506L32.8366 28.5992C32.8138 28.5672 32.7864 28.5397 32.7544 28.5123L41.8606 23.9592L45.1841 25.8792C45.6549 26.1489 46.048 26.5603 46.368 27.1089C46.688 27.662 46.848 28.206 46.848 28.7455Z" fill="white"/>
<path d="M36.8777 36.718V38.2403C36.8777 39.2917 36.5532 40.0003 35.8995 40.3706L35.6938 40.4712L26.7566 44.942C27.4103 44.5717 27.7348 43.8632 27.7348 42.8117V41.2895C27.7348 40.206 27.4926 39.0723 27.0081 37.8883C26.6835 37.0929 26.2857 36.3523 25.8103 35.6666C25.5863 35.3329 25.3395 35.0083 25.0744 34.702C23.3601 32.7226 21.6137 30.9763 19.8446 29.4632C18.0708 27.9455 16.2698 26.6609 14.4412 25.6049C13.0652 24.814 11.7029 24.1649 10.3544 23.6666C9.9155 23.5066 9.4766 23.3603 9.04232 23.2277C7.27317 22.6975 5.52693 22.4277 3.80807 22.4232C3.43321 22.4277 3.09036 22.5055 2.78407 22.6472L9.93832 19.0632C10.112 19.3557 10.2948 19.6392 10.4823 19.9089C11.6251 21.5729 12.9464 22.8392 14.4412 23.6986C16.2698 24.7546 17.8332 24.91 19.1361 24.1695L24.4115 21.5317C25.3349 22.0986 26.2491 22.7295 27.1588 23.4197L24.9829 24.5123L24.8868 24.558C24.5714 24.7409 24.4115 25.102 24.4115 25.6414C24.4115 26.1809 24.5714 26.7295 24.8868 27.278C25.2068 27.8266 25.6 28.238 26.0709 28.5077L29.3943 30.4277V34.2403C29.3943 34.7797 29.5544 35.3237 29.8744 35.8723C30.1898 36.4209 30.5874 36.8323 31.0583 37.1066C31.5291 37.3763 31.9223 37.422 32.2423 37.2392L36.6857 35.0174C36.8137 35.598 36.8777 36.1649 36.8777 36.718Z" fill="white"/>
<path d="M24.4115 21.5317L19.1361 24.1695M24.4115 21.5317C25.3349 22.0986 26.2491 22.7295 27.1588 23.4197M24.4115 21.5317L28.2789 19.598C29.5818 18.8575 30.2309 17.4357 30.2309 15.3375C30.2309 13.2437 29.5818 11.0723 28.2789 8.82774C26.9761 6.58316 25.4126 4.93288 23.5841 3.87688C21.7601 2.82088 20.1921 2.66545 18.8938 3.40602L10.0938 7.80831M19.1361 24.1695C20.4389 23.4289 21.0881 22.0072 21.0881 19.9089C21.0881 19.854 21.0881 19.8037 21.0835 19.7489C21.0698 18.702 20.8915 17.6369 20.5486 16.5535C20.2286 15.5203 19.7578 14.4689 19.1361 13.3992C18.6241 12.5169 18.0755 11.7352 17.4857 11.0403C16.5669 9.95231 15.5521 9.09288 14.4412 8.44831C12.7726 7.48374 11.3235 7.26888 10.0938 7.80831M19.1361 24.1695C17.8332 24.91 16.2698 24.7546 14.4412 23.6986C12.9464 22.8392 11.6251 21.5729 10.4823 19.9089C10.2948 19.6392 10.112 19.3557 9.93832 19.0632M10.0938 7.80831L9.75093 7.97745C8.44807 8.72259 7.79893 10.1397 7.79893 12.238C7.79893 14.3363 8.44807 16.5032 9.75093 18.7523C9.81036 18.8575 9.87432 18.9626 9.93832 19.0632M32.7544 28.5123C32.7544 28.5123 32.7315 28.4849 32.7178 28.4712M32.7544 28.5123C32.7864 28.5397 32.8138 28.5672 32.8366 28.5992M32.7544 28.5123L32.7178 28.5306M32.7544 28.5123L41.8606 23.9592M32.7178 28.4712V28.5306M32.7178 28.4712V24.718M32.7178 28.5306L32.8366 28.5992M32.7178 28.5306V24.718M32.8366 28.5992L36.0412 30.4506C36.5121 30.7203 36.9051 31.1317 37.2251 31.6803C37.5451 32.2335 37.7052 32.7774 37.7052 33.3169C37.7052 33.8563 37.5451 34.2175 37.2251 34.4003M26.7566 44.942C27.4103 44.5717 27.7348 43.8632 27.7348 42.8117V41.2895C27.7348 40.206 27.4926 39.0723 27.0081 37.8883C26.6835 37.0929 26.2857 36.3523 25.8103 35.6666C25.5863 35.3329 25.3395 35.0083 25.0744 34.702C23.3601 32.7226 21.6137 30.9763 19.8446 29.4632C18.0708 27.9455 16.2698 26.6609 14.4412 25.6049C13.0652 24.814 11.7029 24.1649 10.3544 23.6666C9.9155 23.5066 9.4766 23.3603 9.04232 23.2277C7.27317 22.6975 5.52693 22.4277 3.80807 22.4232C3.43321 22.4277 3.09036 22.5055 2.78407 22.6472M26.7566 44.942C26.1075 45.3123 25.3258 45.2346 24.4115 44.7089L4.47548 33.198C3.56119 32.6677 2.77953 31.8449 2.12581 30.7203C1.47667 29.6003 1.15204 28.5123 1.15204 27.4655V25.9386C1.15204 24.8597 1.39437 24.0049 1.87894 23.3786C2.13494 23.0495 2.43664 22.8026 2.78407 22.6472M26.7566 44.942L35.6938 40.4712L35.8995 40.3706C36.5532 40.0003 36.8777 39.2917 36.8777 38.2403V36.718C36.8777 36.1649 36.8137 35.598 36.6857 35.0174M2.78407 22.6472L9.93832 19.0632M36.6857 35.0174L32.2423 37.2392M36.6857 35.0174L41.3852 32.6677C41.5817 32.558 41.7188 32.3752 41.792 32.1192L40.5989 32.7134M32.2423 37.2392C32.5577 37.0609 32.7178 36.6997 32.7178 36.1603V32.3432L36.0412 34.2632C36.2241 34.3683 36.3932 34.4415 36.5486 34.4735C36.8046 34.5375 37.0286 34.51 37.2251 34.4003M32.2423 37.2392C31.9223 37.422 31.5291 37.3763 31.0583 37.1066C30.5874 36.8323 30.1898 36.4209 29.8744 35.8723C29.5544 35.3237 29.3943 34.7797 29.3943 34.2403V30.4277L26.0709 28.5077C25.6 28.238 25.2068 27.8266 24.8868 27.278C24.5714 26.7294 24.4115 26.1809 24.4115 25.6414C24.4115 25.102 24.5714 24.7409 24.8868 24.558L24.9829 24.5123M37.2251 34.4003L40.5943 32.7134H40.5989M40.5989 32.7134L41.792 32.1146L46.368 29.8289C46.688 29.646 46.848 29.2849 46.848 28.7455C46.848 28.206 46.688 27.662 46.368 27.1089C46.048 26.5603 45.6549 26.1489 45.1841 25.8792L41.8606 23.9592M41.8606 23.9592V20.1466C41.8606 19.6072 41.7006 19.0632 41.3852 18.5146C41.0652 17.966 40.672 17.5546 40.2011 17.2803C39.7303 17.0106 39.3326 16.9649 39.0172 17.1477L29.9704 21.6735M32.7178 24.718C32.7178 24.1786 32.5577 23.6346 32.2423 23.086C31.9223 22.5375 31.5291 22.126 31.0583 21.8517C30.9166 21.774 30.7886 21.7146 30.6652 21.6689H30.6606C30.4001 21.5866 30.1715 21.5866 29.9704 21.6735M29.9704 21.6735L29.8744 21.7192C29.6732 21.8289 29.536 22.0117 29.4629 22.2723M29.4629 22.2723C29.4172 22.4232 29.3943 22.6015 29.3943 22.8026V26.6152L26.0709 24.6952C25.6457 24.4529 25.2846 24.3889 24.9829 24.5123M29.4629 22.2723L27.1588 23.4197M24.9829 24.5123L27.1588 23.4197" stroke="#27272A" stroke-opacity="0.25" stroke-linecap="round" stroke-linejoin="round"/>
      </svg>