<svg xmlns="http://www.w3.org/2000/svg" viewBox="0 0 48 48">
        <path d="M30.363 19.3804V24.704C30.2599 24.7516 30.1607 24.8032 30.0655 24.8587C29.7164 25.065 29.4586 25.2911 29.2999 25.545C29.161 25.7552 29.0976 25.9853 29.0976 26.2273V28.3933C28.8596 28.2584 28.6057 28.1275 28.336 27.9926C28.1178 27.8895 27.8758 27.8617 27.6219 27.9053C27.364 27.949 27.1855 28.0481 27.0863 28.1949C26.9118 28.4567 26.6896 28.7027 26.4239 28.9248C26.1581 29.1469 25.8487 29.3572 25.4916 29.5635L25.0751 29.8055V26.5922C25.0751 26.2828 24.9958 25.9536 24.849 25.6045C24.6824 25.2197 24.4404 24.8349 24.1072 24.4501C23.405 23.617 22.3181 22.7721 20.8463 21.9271C20.644 21.8081 20.4417 21.697 20.2394 21.5899V19.3565C20.2434 20.1539 20.7432 20.8402 21.7349 21.4154C22.7505 21.9986 23.9445 22.2921 25.3211 22.2881C26.6936 22.2841 27.8718 21.9985 28.8635 21.4273C29.6014 21.0068 30.0615 20.5228 30.2559 19.9873C30.3313 19.7929 30.363 19.5906 30.363 19.3804Z" fill="white"/>
<path d="M25.0751 26.5922V29.8055L24.7538 29.9919C24.6507 30.0514 24.5634 30.1149 24.492 30.1823C24.3333 30.3291 24.25 30.4917 24.254 30.6742V36.0891C24.0953 36.22 23.9089 36.3469 23.7065 36.4659L22.9687 36.8944C22.6275 37.0888 22.2308 37.184 21.7826 37.184C21.3264 37.18 20.9297 37.0848 20.5925 36.8904L8.67977 30.0117C8.33861 29.8173 8.172 29.5872 8.172 29.3254V21.3915C8.172 21.6534 8.33861 21.8834 8.67977 22.0778L10.0325 22.8593L10.0682 22.8791L10.5284 23.1489L13.8884 25.0848L20.5925 28.9565C20.8741 29.1192 21.1955 29.2104 21.5565 29.2422H21.5604C21.6279 29.2461 21.7072 29.2501 21.7826 29.2501C22.2308 29.2501 22.6275 29.1549 22.9687 28.9605L23.7065 28.532C24.615 28.0044 25.0751 27.3579 25.0751 26.5922Z" fill="white"/>
<path d="M30.6645 15.0563V21.3677C30.6169 21.0305 30.5336 20.6973 30.4186 20.3641C30.4027 20.3165 30.3829 20.2689 30.363 20.2213V19.3724C30.3591 18.5869 29.8553 17.9006 28.8437 17.3135C27.848 16.7422 26.6658 16.4487 25.2893 16.4408C24.4087 16.4368 23.6073 16.5479 22.8853 16.7859H22.8576C20.7353 16.782 18.9224 17.2183 17.403 18.095C17.1729 18.222 16.9706 18.3608 16.7763 18.4996H16.7723V15.2348C16.7683 14.7112 16.4351 14.251 15.7607 13.8623C15.1062 13.4854 14.3167 13.291 13.3924 13.2831C13.2179 13.2831 13.0434 13.287 12.8767 13.3029V10.7601C12.8807 10.8395 12.8966 10.9148 12.9244 10.9942C13.0235 11.256 13.2933 11.4583 13.7296 11.5972C14.1025 11.7241 14.5111 11.7558 14.9475 11.7003C15.3759 11.6448 15.7091 11.5099 15.9234 11.2917C16.1217 11.0854 16.3438 10.891 16.5898 10.7006C16.8357 10.5142 17.1055 10.3317 17.403 10.1611C18.9224 9.28444 20.7353 8.84806 22.8576 8.85203C24.9759 8.85203 26.7968 9.30028 28.328 10.181C29.4189 10.8117 30.1171 11.5615 30.4186 12.4302C30.7201 13.299 30.8034 14.1757 30.6645 15.0563Z" fill="white"/>
<path d="M31.7078 31.3724V31.3843C31.7078 31.7374 31.565 32.0587 31.2754 32.3324C31.1445 32.4633 30.9858 32.5823 30.7954 32.6894L30.1131 33.0821C29.9029 33.2051 29.6649 33.2884 29.403 33.332C29.3039 33.3519 29.2047 33.3598 29.0976 33.3678C29.042 33.3717 28.9865 33.3717 28.931 33.3717C28.4748 33.3717 28.0781 33.2725 27.7409 33.0781L25.0751 31.5429L24.7617 31.3605C24.4245 31.1621 24.2539 30.936 24.2539 30.6702C24.25 30.4877 24.3333 30.3251 24.492 30.1783C24.5634 30.1109 24.6506 30.0474 24.7538 29.9879L25.0751 29.8015L25.4956 29.5595C25.8487 29.3532 26.1581 29.1429 26.4239 28.9208C26.6936 28.6986 26.9118 28.4527 27.0903 28.1909C27.1895 28.0441 27.364 27.9449 27.6219 27.9013C27.8797 27.8577 28.1177 27.8854 28.3359 27.9886C28.6057 28.1234 28.8596 28.2543 29.0976 28.3892C29.3118 28.5043 29.5141 28.6233 29.7006 28.7423C29.7006 28.7462 29.7045 28.7462 29.7045 28.7462C30.1012 28.9962 30.482 29.3174 30.8391 29.7062C31.4143 30.2894 31.7078 30.8448 31.7078 31.3724Z" fill="white"/>
<path d="M35.8375 26.2351V26.243C35.8375 26.7667 35.5042 27.2229 34.8338 27.6077C34.1832 27.9806 33.3978 28.171 32.4775 28.1749C31.6603 28.1789 30.9422 28.0282 30.3194 27.7188C30.2401 27.6831 30.1608 27.6394 30.0854 27.5958C29.4308 27.2189 29.1016 26.7627 29.0976 26.2232C29.0976 25.9813 29.1611 25.7511 29.2999 25.5409C29.4586 25.287 29.7165 25.0609 30.0695 24.8546C30.1647 24.7991 30.2639 24.7475 30.367 24.6999C30.97 24.4143 31.6682 24.2755 32.4576 24.2834C33.3779 24.2913 34.1674 24.4857 34.8219 24.8626C35.4963 25.2513 35.8335 25.7115 35.8375 26.2351Z" fill="white"/>
<path d="M46.8536 20.7727V20.7925C46.8536 22.296 46.0563 23.617 44.4576 24.7515C44.1997 24.934 43.9141 25.1165 43.6126 25.291C43.2358 25.5053 42.843 25.7075 42.4265 25.89C42.2837 25.9535 42.1369 26.013 41.9901 26.0686C41.7085 26.1796 41.4189 26.2867 41.1214 26.382C40.689 26.5208 40.2328 26.5644 39.7568 26.5168C39.2847 26.4692 38.9277 26.3224 38.6857 26.0686C38.5349 25.9218 38.4516 25.7671 38.4437 25.6084V25.5608C38.4437 25.4894 38.4635 25.4179 38.4913 25.3426C38.5984 25.0847 38.8602 24.8943 39.2728 24.7674C39.2926 24.7595 39.3125 24.7555 39.3323 24.7475C39.6695 24.6404 39.9908 24.5175 40.2963 24.3826C40.6215 24.2438 40.931 24.0851 41.2285 23.9145C41.5101 23.7518 41.764 23.5812 41.9941 23.4107C43.0017 22.6411 43.5055 21.7605 43.4976 20.7648C43.4896 19.5429 42.724 18.4877 41.1928 17.607C40.1019 16.9763 38.8087 16.5757 37.3131 16.4091C35.8176 16.2385 34.2982 16.1869 32.7551 16.2543C32.1402 16.2861 31.6285 16.1829 31.208 15.9449C30.8867 15.7585 30.7082 15.5403 30.6685 15.2864V15.0524C30.8034 14.1717 30.7201 13.295 30.4186 12.4262C30.1171 11.5575 29.4189 10.8077 28.328 10.177C26.8007 9.29631 24.9759 8.85202 22.8576 8.84805C20.7392 8.84408 18.9224 9.28047 17.403 10.1572C17.1055 10.3277 16.8357 10.5102 16.5898 10.6967C16.3438 10.8871 16.1217 11.0815 15.9234 11.2877C15.7091 11.5059 15.3799 11.6408 14.9475 11.6963C14.5111 11.7519 14.1065 11.7201 13.7296 11.5932C13.2933 11.4543 13.0235 11.252 12.9244 10.9902C12.8966 10.9109 12.8807 10.8355 12.8807 10.7562C12.8807 10.5737 12.964 10.3951 13.1267 10.2206C13.3845 9.95877 13.6701 9.70493 13.9835 9.46692C14.3009 9.2289 14.646 8.99878 15.0189 8.78457C17.1888 7.53101 19.7991 6.90425 22.8457 6.91218C25.8963 6.91615 28.5104 7.55088 30.6962 8.81237C31.9458 9.53435 32.8781 10.3714 33.485 11.3274C34.0959 12.2834 34.322 13.2513 34.1713 14.2351C35.8691 14.1479 37.5511 14.2788 39.2053 14.6279C40.8596 14.981 42.3115 15.5165 43.561 16.2385C45.7468 17.5 46.8417 19.0114 46.8536 20.7727Z" fill="white"/>
<path d="M43.4976 20.7648C43.5055 21.7605 43.0017 22.6411 41.9941 23.4107C41.764 23.5812 41.5101 23.7518 41.2285 23.9145C40.931 24.0851 40.6215 24.2438 40.2963 24.3826C39.9908 24.5175 39.6695 24.6404 39.3323 24.7475C38.7055 24.5571 38.0351 24.4223 37.3132 24.3429C35.8176 24.1724 34.2982 24.1208 32.7551 24.1882C32.1402 24.2199 31.6285 24.1168 31.208 23.8788C30.7915 23.6368 30.613 23.3393 30.6685 22.9862L30.6685 15.2864C30.7082 15.5403 30.8867 15.7585 31.208 15.9449C31.6285 16.1829 32.1402 16.2861 32.7551 16.2543C34.2982 16.1869 35.8176 16.2385 37.3131 16.4091C38.8087 16.5757 40.1019 16.9763 41.1928 17.607C42.724 18.4877 43.4896 19.5429 43.4976 20.7648Z" fill="white"/>
<path d="M30.367 19.3684V19.3764C30.367 19.5866 30.3313 19.7889 30.2599 19.9833C30.0655 20.5189 29.6014 21.0028 28.8636 21.4233C27.8758 21.9946 26.6976 22.2801 25.3211 22.2841C23.9446 22.2881 22.7505 21.9946 21.7389 21.4114C20.7472 20.8362 20.2474 20.1499 20.2434 19.3525C20.2394 18.5512 20.7313 17.865 21.7151 17.2977C22.0801 17.0874 22.4728 16.9129 22.8854 16.782C23.6113 16.5439 24.4127 16.4329 25.2894 16.4368C26.6659 16.4448 27.848 16.7383 28.8437 17.3096C29.8553 17.8967 30.3631 18.583 30.367 19.3684Z" fill="white"/>
<path d="M25.0751 26.5922C25.0751 27.3579 24.615 28.0044 23.7065 28.532L22.9687 28.9605C22.6275 29.1549 22.2308 29.2501 21.7826 29.2501C21.7072 29.2501 21.6279 29.2461 21.5604 29.2422H21.5565C21.1955 29.2104 20.8741 29.1192 20.5925 28.9565L13.8884 25.0848L10.5284 23.1489L10.0682 22.8791L10.0325 22.8593L8.67977 22.0778C8.33861 21.8834 8.172 21.6534 8.172 21.3915C8.16803 21.1297 8.3346 20.8996 8.67179 20.7053L9.40964 20.2769C9.60799 20.1618 9.81824 20.0586 10.0325 19.9714C10.1951 19.9039 10.3617 19.8484 10.5283 19.7929C11.4566 19.5152 12.5316 19.4279 13.7693 19.5429C14.0034 19.5628 14.2493 19.5905 14.4953 19.6262C14.5627 19.6342 14.6222 19.6461 14.6817 19.658C15.3799 19.7651 16.0781 19.9277 16.7723 20.138H16.7763C17.9346 20.4831 19.085 20.9671 20.2394 21.5899C20.4417 21.697 20.644 21.8081 20.8463 21.9271C22.3181 22.7721 23.405 23.617 24.1072 24.4501C24.4404 24.8349 24.6824 25.2197 24.849 25.6045C24.9958 25.9536 25.0751 26.2828 25.0751 26.5922Z" fill="white"/>
<path d="M16.7723 15.2348L16.7723 15.2428C16.7723 15.5086 16.689 15.7585 16.5145 15.9886C16.3479 16.2107 16.1019 16.417 15.7727 16.6035C15.376 16.8336 14.9317 16.9922 14.4398 17.0834C14.1184 17.1429 13.7773 17.1747 13.4163 17.1747C13.2298 17.1747 13.0513 17.1668 12.8768 17.1509C12.1786 17.0914 11.5637 16.905 11.0203 16.5955C10.3697 16.2187 10.0365 15.7585 10.0325 15.223C10.0285 14.6874 10.3578 14.2312 11.0084 13.8543C11.5519 13.541 12.1706 13.3584 12.8767 13.3029C13.0434 13.287 13.2179 13.2831 13.3924 13.2831C14.3167 13.291 15.1062 13.4854 15.7607 13.8623C16.4351 14.251 16.7683 14.7112 16.7723 15.2348Z" fill="white"/>
<path d="M16.7763 18.4996V20.138H16.7723C16.0781 19.9277 15.3799 19.7651 14.6817 19.658C14.6222 19.6461 14.5627 19.6342 14.4953 19.6262C14.2493 19.5905 14.0034 19.5628 13.7693 19.5429C12.5316 19.4279 11.4566 19.5152 10.5283 19.7929L10.5283 17.8848C10.5283 17.7857 10.4688 17.6944 10.3458 17.6071C10.2427 17.5357 10.1356 17.4683 10.0325 17.4009L10.0325 15.223C10.0365 15.7585 10.3697 16.2187 11.0203 16.5955C11.5637 16.905 12.1786 17.0914 12.8768 17.1509C13.0513 17.1668 13.2298 17.1747 13.4163 17.1747C13.7773 17.1747 14.1184 17.1429 14.4398 17.0834C14.9317 16.9922 15.376 16.8336 15.7727 16.6035C16.1019 16.417 16.3479 16.2107 16.5145 15.9886C16.689 15.7585 16.7723 15.5086 16.7723 15.2428L16.7723 18.4996H16.7763Z" fill="white"/>
<path d="M46.8536 20.7925V28.7066C46.8615 30.464 45.7825 31.9714 43.6126 33.225C43.2358 33.4392 42.843 33.6415 42.4265 33.8239C42.0139 34.0024 41.5776 34.1691 41.1214 34.3159C40.689 34.4547 40.2328 34.4984 39.7568 34.4508C39.2848 34.4031 38.9277 34.2564 38.6857 34.0025C38.535 33.8557 38.4517 33.701 38.4438 33.5423L38.4437 25.6084C38.4516 25.7671 38.5349 25.9218 38.6857 26.0686C38.9277 26.3224 39.2847 26.4692 39.7568 26.5168C40.2328 26.5644 40.689 26.5208 41.1214 26.382C41.4189 26.2867 41.7085 26.1796 41.9901 26.0686C42.1369 26.013 42.2837 25.9535 42.4265 25.89C42.843 25.7075 43.2358 25.5053 43.6126 25.291C43.9141 25.1165 44.1997 24.934 44.4576 24.7515C46.0563 23.617 46.8536 22.296 46.8536 20.7925Z" fill="white"/>
<path d="M12.8807 10.7562L12.8808 10.7126L12.8807 10.7562Z" fill="white"/>
<path d="M10.5323 17.8808V17.8054V17.8808Z" fill="white"/>
<path d="M10.5283 17.8848L10.5283 19.7929C10.3617 19.8484 10.1951 19.9039 10.0325 19.9714C9.81824 20.0586 9.60799 20.1618 9.40964 20.2769L8.67179 20.7053C8.3346 20.8996 8.16803 21.1297 8.172 21.3915V26.8936C7.98555 26.9809 7.80307 27.0761 7.62456 27.1793L6.88274 27.6077C6.54952 27.8021 6.15282 27.8973 5.69663 27.8973C5.24043 27.8973 4.8477 27.7981 4.51051 27.6037L1.53134 25.8861C1.19415 25.6877 1.02356 25.4616 1.02356 25.1958V17.2619C1.02356 17.5277 1.19415 17.7539 1.53134 17.9522L4.51051 19.6698C4.8477 19.8642 5.24439 19.9634 5.69663 19.9634C6.14886 19.9634 6.54952 19.8682 6.88274 19.6738L7.62456 19.2454C7.97762 19.0431 8.34654 18.8646 8.73134 18.7098C9.1201 18.5551 9.53663 18.4282 9.99282 18.3251C10.0087 18.3211 10.0206 18.3171 10.0325 18.3132C10.2705 18.2576 10.4173 18.1584 10.4966 18.0196C10.5165 17.972 10.5283 17.9285 10.5283 17.8848Z" fill="white"/>
<path d="M10.5283 17.8848C10.5283 17.9285 10.5165 17.972 10.4966 18.0196C10.4173 18.1584 10.2705 18.2576 10.0325 18.3132C10.0206 18.3171 10.0087 18.3211 9.99282 18.3251C9.53663 18.4282 9.1201 18.5551 8.73134 18.7098C8.34654 18.8646 7.97762 19.0431 7.62456 19.2454L6.88274 19.6738C6.54952 19.8682 6.15282 19.9634 5.69663 19.9634C5.24043 19.9634 4.8477 19.8642 4.51051 19.6698L1.53134 17.9522C1.19415 17.7539 1.02356 17.5277 1.02356 17.2619C1.02356 17.0001 1.18621 16.774 1.5234 16.5796L2.20175 16.1869C2.81663 15.8338 3.57432 15.6553 4.48274 15.6593C5.39911 15.6593 6.35514 15.8259 7.37068 16.1591C8.04109 16.3694 8.60043 16.5875 9.03282 16.8136C9.37001 16.9882 9.7032 17.1867 10.0325 17.4009C10.1356 17.4683 10.2427 17.5357 10.3458 17.6071C10.4688 17.6944 10.5283 17.7857 10.5283 17.8848Z" fill="white"/>
<path d="M25.0751 26.5882V26.5367V26.5882Z" fill="white"/>
<path d="M35.8375 26.243V34.1691C35.8414 34.6967 35.5082 35.1529 34.8338 35.5417C34.1832 35.9146 33.3978 36.105 32.4775 36.1089C32.2117 36.1089 31.9538 36.0931 31.7079 36.0613L31.7078 31.3724C31.7078 30.8448 31.4143 30.2894 30.8391 29.7062C30.482 29.3174 30.1012 28.9962 29.7045 28.7462C29.7045 28.7462 29.7006 28.7462 29.7006 28.7423C29.5141 28.6233 29.3118 28.5043 29.0976 28.3892L29.0976 26.2232C29.1016 26.7627 29.4308 27.2189 30.0854 27.5958C30.1608 27.6394 30.2401 27.6831 30.3194 27.7188C30.9422 28.0282 31.6603 28.1789 32.4775 28.1749C33.3978 28.171 34.1832 27.9806 34.8338 27.6077C35.5042 27.2229 35.8375 26.7667 35.8375 26.243Z" fill="white"/>
<path d="M31.7078 31.3843L31.7079 39.3063C31.7119 39.83 31.4064 40.2703 30.7955 40.6233L30.1132 41.016C29.78 41.2104 29.3833 41.3057 28.931 41.3057C28.4788 41.3057 28.0782 41.2065 27.741 41.0121L24.7618 39.2944C24.4246 39.096 24.254 38.87 24.254 38.6042L24.2539 30.6702C24.2539 30.936 24.4245 31.1621 24.7617 31.3605L25.0751 31.5429L27.7409 33.0781C28.0781 33.2725 28.4748 33.3717 28.931 33.3717C28.9865 33.3717 29.042 33.3717 29.0976 33.3678C29.2047 33.3598 29.3039 33.3519 29.403 33.332C29.6649 33.2884 29.9029 33.2051 30.1131 33.0821L30.7954 32.6894C30.9858 32.5823 31.1445 32.4633 31.2754 32.3324C31.565 32.0587 31.7078 31.7374 31.7078 31.3843Z" fill="white"/>
<path d="M25.0751 29.8055L25.4916 29.5635C25.8487 29.3572 26.1581 29.1469 26.4239 28.9248C26.6896 28.7027 26.9118 28.4567 27.0863 28.1949C27.1855 28.0481 27.364 27.949 27.6219 27.9053C27.8758 27.8617 28.1178 27.8895 28.336 27.9926C28.6057 28.1275 28.8596 28.2584 29.0976 28.3933V26.2273C29.0976 25.9853 29.161 25.7552 29.2999 25.545C29.4586 25.2911 29.7164 25.065 30.0655 24.8587C30.1607 24.8031 30.2599 24.7516 30.363 24.704V19.3804C30.363 19.5906 30.3313 19.7929 30.2559 19.9873C30.0615 20.5228 29.6014 21.0068 28.8635 21.4273C27.8718 21.9985 26.6936 22.2841 25.3211 22.2881C23.9445 22.2921 22.7505 21.9986 21.7349 21.4154C20.7432 20.8402 20.2434 20.1539 20.2394 19.3565V21.5899M25.0751 29.8055V26.5922M25.0751 29.8055L24.7538 29.9919C24.6507 30.0514 24.5634 30.1149 24.492 30.1823C24.3333 30.3291 24.25 30.4917 24.254 30.6742V36.0891C24.0953 36.22 23.9089 36.3469 23.7065 36.4659L22.9687 36.8944C22.6275 37.0888 22.2308 37.184 21.7826 37.184C21.3264 37.18 20.9297 37.0848 20.5925 36.8904L8.67977 30.0117C8.33861 29.8173 8.172 29.5872 8.172 29.3254V21.3915M25.0751 26.5922C25.0751 26.2828 24.9958 25.9536 24.849 25.6045C24.6824 25.2197 24.4404 24.8349 24.1072 24.4501C23.405 23.617 22.3181 22.7721 20.8463 21.9271C20.644 21.8081 20.4417 21.697 20.2394 21.5899M25.0751 26.5922C25.0751 27.3579 24.615 28.0044 23.7065 28.532L22.9687 28.9605C22.6275 29.1549 22.2308 29.2501 21.7826 29.2501C21.7072 29.2501 21.6279 29.2461 21.5604 29.2422H21.5565C21.1955 29.2104 20.8741 29.1192 20.5925 28.9565L13.8884 25.0848L10.5284 23.1489L10.0682 22.8791L10.0325 22.8593L8.67977 22.0778C8.33861 21.8834 8.172 21.6534 8.172 21.3915M20.2394 21.5899C19.085 20.9671 17.9346 20.4831 16.7763 20.138M8.172 21.3915C8.16803 21.1297 8.3346 20.8996 8.67179 20.7053L9.40964 20.2769C9.60799 20.1618 9.81824 20.0586 10.0325 19.9714C10.1951 19.9039 10.3617 19.8484 10.5283 19.7929M8.172 21.3915V26.8936C7.98555 26.9809 7.80307 27.0761 7.62456 27.1793L6.88274 27.6077C6.54952 27.8021 6.15282 27.8973 5.69663 27.8973C5.24043 27.8973 4.8477 27.7981 4.51051 27.6037L1.53134 25.8861C1.19415 25.6877 1.02356 25.4616 1.02356 25.1958V17.2619M16.7763 18.4996C16.9706 18.3608 17.1729 18.222 17.403 18.095C18.9224 17.2183 20.7353 16.782 22.8576 16.7859H22.8853C23.6073 16.5479 24.4087 16.4368 25.2893 16.4408C26.6658 16.4487 27.848 16.7422 28.8437 17.3135C29.8553 17.9006 30.3591 18.5869 30.363 19.3724V20.2213C30.3829 20.2689 30.4027 20.3165 30.4186 20.3641C30.5336 20.6973 30.6169 21.0305 30.6645 21.3677V15.0563C30.8034 14.1757 30.7201 13.299 30.4186 12.4302C30.1171 11.5615 29.4189 10.8117 28.328 10.181C26.7968 9.30028 24.9759 8.85203 22.8576 8.85203C20.7353 8.84806 18.9224 9.28444 17.403 10.1611C17.1055 10.3317 16.8357 10.5142 16.5898 10.7006C16.3438 10.891 16.1217 11.0854 15.9234 11.2917C15.7091 11.5099 15.3759 11.6448 14.9475 11.7003C14.5111 11.7558 14.1025 11.7241 13.7296 11.5972C13.2933 11.4583 13.0235 11.256 12.9244 10.9942C12.8966 10.9148 12.8807 10.8395 12.8767 10.7601V13.3029M16.7763 18.4996H16.7723M16.7763 18.4996V20.138M16.7723 18.4996V15.2348M16.7723 18.4996L16.7723 15.2428M16.7723 15.2348C16.7683 14.7112 16.4351 14.251 15.7607 13.8623C15.1062 13.4854 14.3167 13.291 13.3924 13.2831C13.2179 13.2831 13.0434 13.287 12.8767 13.3029M16.7723 15.2348L16.7723 15.2428M12.8767 13.3029C12.1706 13.3584 11.5519 13.541 11.0084 13.8543C10.3578 14.2312 10.0285 14.6874 10.0325 15.223M31.7078 31.3724V31.3843M31.7078 31.3724C31.7078 30.8448 31.4143 30.2893 30.8391 29.7062C30.482 29.3174 30.1012 28.9962 29.7045 28.7462C29.7045 28.7462 29.7006 28.7462 29.7006 28.7423C29.5141 28.6233 29.3118 28.5043 29.0976 28.3892M31.7078 31.3724L31.7079 36.0613C31.9538 36.0931 32.2117 36.1089 32.4775 36.1089C33.3978 36.105 34.1832 35.9146 34.8338 35.5417C35.5082 35.1529 35.8414 34.6967 35.8375 34.1691V26.243M31.7078 31.3843C31.7078 31.7374 31.565 32.0587 31.2754 32.3324C31.1445 32.4633 30.9858 32.5823 30.7954 32.6894L30.1131 33.0821C29.9029 33.2051 29.6649 33.2884 29.403 33.332C29.3039 33.3519 29.2047 33.3598 29.0976 33.3678C29.042 33.3717 28.9865 33.3717 28.931 33.3717C28.4748 33.3717 28.0781 33.2725 27.7409 33.0781L25.0751 31.5429L24.7617 31.3605C24.4245 31.1621 24.2539 30.936 24.2539 30.6702M31.7078 31.3843L31.7079 39.3063C31.7119 39.83 31.4064 40.2703 30.7955 40.6233L30.1132 41.016C29.78 41.2104 29.3833 41.3057 28.931 41.3057C28.4788 41.3057 28.0782 41.2065 27.741 41.0121L24.7618 39.2944C24.4246 39.096 24.254 38.87 24.254 38.6042L24.2539 30.6702M24.2539 30.6702C24.25 30.4877 24.3333 30.3251 24.492 30.1783C24.5634 30.1109 24.6506 30.0474 24.7538 29.9879L25.0751 29.8015L25.4956 29.5595C25.8487 29.3532 26.1581 29.1429 26.4239 28.9208C26.6936 28.6986 26.9118 28.4527 27.0903 28.1909C27.1895 28.0441 27.364 27.9449 27.6219 27.9013C27.8797 27.8577 28.1177 27.8854 28.3359 27.9886C28.6057 28.1234 28.8596 28.2543 29.0976 28.3892M29.0976 28.3892L29.0976 26.2232M35.8375 26.243V26.2351C35.8335 25.7115 35.4963 25.2513 34.8219 24.8626C34.1674 24.4857 33.3779 24.2913 32.4576 24.2834C31.6682 24.2755 30.97 24.4143 30.367 24.6999C30.2639 24.7475 30.1647 24.7991 30.0695 24.8546C29.7165 25.0609 29.4586 25.287 29.2999 25.5409C29.1611 25.7511 29.0976 25.9813 29.0976 26.2232M35.8375 26.243C35.8375 26.7667 35.5042 27.2229 34.8338 27.6077C34.1832 27.9806 33.3978 28.171 32.4775 28.1749C31.6603 28.1789 30.9422 28.0282 30.3194 27.7188C30.2401 27.6831 30.1608 27.6394 30.0854 27.5958C29.4308 27.2189 29.1016 26.7627 29.0976 26.2232M46.8536 20.7925V20.7727C46.8417 19.0114 45.7468 17.5 43.561 16.2385C42.3115 15.5165 40.8596 14.981 39.2053 14.6279C37.5511 14.2788 35.8691 14.1479 34.1713 14.2351C34.322 13.2513 34.0959 12.2834 33.485 11.3274C32.8781 10.3714 31.9458 9.53435 30.6962 8.81237C28.5104 7.55088 25.8963 6.91615 22.8457 6.91218C19.7991 6.90425 17.1888 7.53101 15.0189 8.78457C14.646 8.99878 14.3009 9.2289 13.9835 9.46692C13.6701 9.70493 13.3845 9.95877 13.1267 10.2206C12.964 10.3951 12.8807 10.5737 12.8807 10.7562M46.8536 20.7925C46.8536 22.296 46.0563 23.617 44.4576 24.7515C44.1997 24.934 43.9141 25.1165 43.6126 25.291C43.2358 25.5053 42.843 25.7075 42.4265 25.89C42.2837 25.9535 42.1369 26.013 41.9901 26.0686C41.7085 26.1796 41.4189 26.2867 41.1214 26.382C40.689 26.5208 40.2328 26.5644 39.7568 26.5168C39.2847 26.4692 38.9277 26.3224 38.6857 26.0686C38.5349 25.9218 38.4516 25.7671 38.4437 25.6084M46.8536 20.7925V28.7066C46.8615 30.464 45.7825 31.9714 43.6126 33.225C43.2358 33.4392 42.843 33.6415 42.4265 33.8239C42.0139 34.0024 41.5776 34.1691 41.1214 34.3159C40.689 34.4547 40.2328 34.4984 39.7568 34.4508C39.2848 34.4031 38.9277 34.2564 38.6857 34.0025C38.535 33.8557 38.4517 33.701 38.4438 33.5423L38.4437 25.6084M38.4437 25.6084V25.5608C38.4437 25.4894 38.4635 25.4179 38.4913 25.3426C38.5984 25.0847 38.8602 24.8943 39.2728 24.7674C39.2926 24.7595 39.3125 24.7555 39.3323 24.7475M39.3323 24.7475C39.6695 24.6404 39.9908 24.5175 40.2963 24.3826C40.6215 24.2438 40.931 24.0851 41.2285 23.9145C41.5101 23.7518 41.764 23.5812 41.9941 23.4107C43.0017 22.6411 43.5055 21.7605 43.4976 20.7648C43.4896 19.5429 42.724 18.4877 41.1928 17.607C40.1019 16.9763 38.8087 16.5757 37.3131 16.4091C35.8176 16.2385 34.2982 16.1869 32.7551 16.2543C32.1402 16.2861 31.6285 16.1829 31.208 15.9449C30.8867 15.7585 30.7082 15.5403 30.6685 15.2864M39.3323 24.7475C38.7055 24.5571 38.0351 24.4223 37.3132 24.3429C35.8176 24.1724 34.2982 24.1208 32.7551 24.1882C32.1402 24.2199 31.6285 24.1168 31.208 23.8788C30.7915 23.6368 30.613 23.3393 30.6685 22.9862L30.6685 15.2864M30.6685 15.2864V15.0524C30.8034 14.1717 30.7201 13.295 30.4186 12.4262C30.1171 11.5575 29.4189 10.8077 28.328 10.177C26.8007 9.29631 24.9759 8.85202 22.8576 8.84805C20.7392 8.84408 18.9224 9.28047 17.403 10.1572C17.1055 10.3277 16.8357 10.5102 16.5898 10.6967C16.3438 10.8871 16.1217 11.0815 15.9234 11.2877C15.7091 11.5059 15.3799 11.6408 14.9475 11.6963C14.5111 11.7519 14.1065 11.7201 13.7296 11.5932C13.2933 11.4543 13.0235 11.252 12.9244 10.9902C12.8966 10.9109 12.8807 10.8355 12.8807 10.7562M12.8807 10.7562L12.8808 10.7126M10.5283 19.7929C11.4566 19.5152 12.5316 19.4279 13.7693 19.5429C14.0034 19.5628 14.2493 19.5905 14.4953 19.6262C14.5627 19.6342 14.6222 19.6461 14.6817 19.658C15.3799 19.7651 16.0781 19.9277 16.7723 20.138H16.7763M10.5283 19.7929L10.5283 17.8848M16.7723 15.2428C16.7723 15.5086 16.689 15.7585 16.5145 15.9886C16.3479 16.2107 16.1019 16.417 15.7727 16.6035C15.376 16.8336 14.9317 16.9922 14.4398 17.0834C14.1184 17.1429 13.7773 17.1747 13.4163 17.1747C13.2298 17.1747 13.0513 17.1668 12.8768 17.1509C12.1786 17.0914 11.5637 16.905 11.0203 16.5955C10.3697 16.2187 10.0365 15.7585 10.0325 15.223M10.0325 15.223L10.0325 17.4009M10.5283 17.8848C10.5283 17.7857 10.4688 17.6944 10.3458 17.6071C10.2427 17.5357 10.1356 17.4683 10.0325 17.4009M10.5283 17.8848C10.5283 17.9285 10.5165 17.972 10.4966 18.0196C10.4173 18.1584 10.2705 18.2576 10.0325 18.3132C10.0206 18.3171 10.0087 18.3211 9.99282 18.3251C9.53663 18.4282 9.1201 18.5551 8.73134 18.7098C8.34654 18.8646 7.97762 19.0431 7.62456 19.2454L6.88274 19.6738M10.0325 17.4009C9.7032 17.1867 9.37001 16.9882 9.03282 16.8136C8.60043 16.5875 8.04109 16.3694 7.37068 16.1591C6.35514 15.8259 5.39911 15.6593 4.48274 15.6593C3.57432 15.6553 2.81663 15.8338 2.20175 16.1869L1.5234 16.5796C1.18621 16.774 1.02356 17.0001 1.02356 17.2619M10.5323 17.8808V17.8054M1.02356 17.2619C1.02356 17.5277 1.19415 17.7539 1.53134 17.9522L4.51051 19.6698M4.51051 19.6698C4.8477 19.8642 5.24439 19.9634 5.69663 19.9634M4.51051 19.6698C4.8477 19.8642 5.24043 19.9634 5.69663 19.9634M5.69663 19.9634C6.14886 19.9634 6.54952 19.8682 6.88274 19.6738M5.69663 19.9634C6.15282 19.9634 6.54952 19.8682 6.88274 19.6738M25.0751 26.5882V26.5367M30.367 19.3684V19.3764C30.367 19.5866 30.3313 19.7889 30.2599 19.9833C30.0655 20.5189 29.6014 21.0028 28.8636 21.4233C27.8758 21.9946 26.6976 22.2801 25.3211 22.2841C23.9446 22.2881 22.7505 21.9946 21.7389 21.4114C20.7472 20.8362 20.2474 20.1499 20.2434 19.3525C20.2394 18.5512 20.7313 17.865 21.7151 17.2977C22.0801 17.0874 22.4728 16.9129 22.8854 16.782C23.6113 16.5439 24.4127 16.4329 25.2894 16.4368C26.6659 16.4448 27.848 16.7383 28.8437 17.3096C29.8553 17.8967 30.3631 18.583 30.367 19.3684Z" stroke="#27272A" stroke-opacity="0.25" stroke-linecap="round" stroke-linejoin="round"/>
      </svg>