<svg xmlns="http://www.w3.org/2000/svg" viewBox="0 0 48 48">
        <path d="M27.8569 26.024C27.8569 26.8014 27.6233 27.3281 27.1476 27.5957C27.1263 27.6085 27.1051 27.6169 27.0838 27.6254C26.6208 27.8633 26.0686 27.7911 25.4187 27.4173C24.739 27.0265 24.1656 26.419 23.6898 25.6035C23.2141 24.7836 22.9805 23.9851 22.9805 23.2077C22.9805 22.4304 23.2141 21.9079 23.6898 21.636C24.1656 21.3642 24.739 21.4237 25.4187 21.8145C26.0983 22.2095 26.6718 22.8127 27.1476 23.6325C27.4619 24.172 27.67 24.703 27.7762 25.2254C27.8314 25.4931 27.8569 25.7607 27.8569 26.024Z" fill="white"/>
<path d="M34.7129 27.3664C34.1352 25.5016 33.4173 23.6878 32.5592 21.9292C32.2831 21.3558 31.99 20.7908 31.6799 20.2301C31.5355 19.9625 31.3868 19.6992 31.2339 19.4358C29.7684 16.9084 28.0481 14.5848 26.0686 12.4609C24.0891 10.3413 21.9738 8.62943 19.7267 7.3296C17.5518 6.07226 15.5001 5.35009 13.5801 5.15894C13.5122 5.15044 13.4484 5.14199 13.3805 5.13774C11.6899 5.00181 10.1904 5.2227 8.87782 5.81314L8.21517 6.14447C6.75393 6.98128 5.59429 8.28535 4.74048 10.0652C3.88668 11.8408 3.45764 14.0241 3.45764 16.6025C3.45764 19.1809 3.88668 21.8613 4.74048 24.6223C5.59429 27.3877 6.75393 30.034 8.21517 32.5572C9.68065 35.0846 11.401 37.4082 13.3805 39.5278C15.3599 41.6517 17.4753 43.3635 19.7267 44.6634C21.9738 45.9632 24.0891 46.6938 26.0686 46.8552C28.0481 47.0166 29.7684 46.6811 31.2339 45.8485C32.5125 45.1179 33.5575 44.0347 34.3688 42.5862C34.4877 42.3739 34.6024 42.153 34.7129 41.9278C35.5667 40.148 35.9914 37.9689 35.9914 35.3862C35.9914 32.8036 35.5667 30.1317 34.7129 27.3664ZM14.0304 20.8418C13.7245 20.6634 13.4399 20.4468 13.1766 20.1792C12.8538 19.8606 12.5649 19.4783 12.3058 19.028C11.83 18.2082 11.5922 17.4096 11.5922 16.6322C11.5922 15.9611 11.7706 15.4811 12.1231 15.1923C12.1784 15.1413 12.2421 15.0988 12.3058 15.0606C12.7773 14.7887 13.355 14.8524 14.0304 15.2432C14.71 15.634 15.2877 16.2372 15.7592 17.057C16.235 17.8768 16.4729 18.6754 16.4729 19.4528C16.4729 20.2301 16.235 20.7526 15.7592 21.0245C15.2877 21.2921 14.71 21.2326 14.0304 20.8418ZM24.2591 34.7491C24.0297 34.8808 23.7366 34.8468 23.384 34.6429L16.0651 30.4163C15.7125 30.2124 15.4237 29.9108 15.19 29.5158C14.9607 29.1165 14.846 28.7172 14.846 28.3136C14.846 27.9101 14.9607 27.6383 15.19 27.5066C15.4237 27.3749 15.7125 27.4132 16.0651 27.6171L16.4431 27.8379L23.384 31.8436C23.7366 32.0475 24.0297 32.3448 24.2591 32.7441C24.4884 33.1392 24.6074 33.5427 24.6074 33.9462C24.6074 34.3498 24.4884 34.6174 24.2591 34.7491ZM27.1476 27.5957C27.1263 27.6085 27.1051 27.6169 27.0838 27.6254C26.6208 27.8633 26.0686 27.7911 25.4187 27.4173C24.739 27.0265 24.1656 26.419 23.6898 25.6035C23.2141 24.7836 22.9805 23.9851 22.9805 23.2077C22.9805 22.4304 23.2141 21.9079 23.6898 21.636C24.1656 21.3642 24.739 21.4237 25.4187 21.8145C26.0983 22.2095 26.6718 22.8127 27.1476 23.6325C27.4619 24.172 27.67 24.703 27.7762 25.2254C27.8314 25.4931 27.8569 25.7607 27.8569 26.024C27.8569 26.8014 27.6233 27.3281 27.1476 27.5957Z" fill="white"/>
<path d="M24.6074 33.9462C24.6074 34.3498 24.4884 34.6174 24.2591 34.7491C24.0297 34.8808 23.7366 34.8468 23.384 34.6429L16.0651 30.4163C15.7125 30.2124 15.4237 29.9108 15.19 29.5158C14.9607 29.1165 14.846 28.7172 14.846 28.3136C14.846 27.9101 14.9607 27.6383 15.19 27.5066C15.4237 27.3749 15.7125 27.4132 16.0651 27.6171L16.4431 27.8379L23.384 31.8436C23.7366 32.0475 24.0297 32.3448 24.2591 32.7441C24.4884 33.1392 24.6074 33.5427 24.6074 33.9462Z" fill="white"/>
<path d="M16.4729 19.4528C16.4729 20.2301 16.235 20.7526 15.7592 21.0245C15.2877 21.2921 14.71 21.2326 14.0304 20.8418C13.7245 20.6634 13.4399 20.4468 13.1766 20.1792C12.8538 19.8606 12.5649 19.4783 12.3058 19.028C11.83 18.2082 11.5922 17.4096 11.5922 16.6322C11.5922 15.9611 11.7706 15.4811 12.1231 15.1923C12.1784 15.1413 12.2421 15.0988 12.3058 15.0606C12.7773 14.7887 13.355 14.8524 14.0304 15.2432C14.71 15.634 15.2877 16.2372 15.7592 17.057C16.235 17.8768 16.4729 18.6754 16.4729 19.4528Z" fill="white"/>
<path d="M44.487 31.1384C44.487 33.721 44.0622 35.9002 43.2084 37.68C42.3546 39.4598 41.195 40.7639 39.7295 41.6007L31.2339 45.8485C32.5125 45.1179 33.5575 44.0347 34.3688 42.5862C34.4877 42.3739 34.6024 42.153 34.7129 41.9278C35.5667 40.148 35.9914 37.9689 35.9914 35.3862C35.9914 32.8036 35.5667 30.1317 34.7129 27.3664C34.1352 25.5016 33.4173 23.6878 32.5592 21.9292C32.2831 21.3558 31.99 20.7908 31.6799 20.2301C31.5355 19.9625 31.3868 19.6992 31.2339 19.4358C29.7684 16.9084 28.0481 14.5848 26.0686 12.4609C24.0891 10.3413 21.9738 8.62943 19.7267 7.3296C17.5518 6.07226 15.5001 5.35009 13.5801 5.15894C13.5122 5.15044 13.4484 5.14199 13.3805 5.13774C11.6899 5.00181 10.1904 5.2227 8.87782 5.81314L16.7107 1.89663C18.1762 1.06406 19.8966 0.728489 21.8761 0.889905C23.8555 1.05132 25.9709 1.78196 28.2222 3.08178C30.4693 4.3816 32.5847 6.09345 34.5642 8.2131C36.5437 10.337 38.264 12.6605 39.7295 15.188C41.195 17.7112 42.3546 20.3575 43.2084 23.1185C44.0622 25.8839 44.487 28.5557 44.487 31.1384Z" fill="white"/>
<path d="M8.87782 5.81314C10.1904 5.2227 11.6899 5.00181 13.3805 5.13774C13.4484 5.14199 13.5122 5.15044 13.5801 5.15894C15.5001 5.35009 17.5518 6.07226 19.7267 7.3296C21.9738 8.62943 24.0891 10.3413 26.0686 12.4609C28.0481 14.5848 29.7684 16.9084 31.2339 19.4358C31.3868 19.6992 31.5355 19.9625 31.6799 20.2301C31.99 20.7908 32.2831 21.3558 32.5592 21.9292C33.4173 23.6878 34.1352 25.5016 34.7129 27.3664C35.5667 30.1317 35.9914 32.8036 35.9914 35.3862C35.9914 37.9689 35.5667 40.148 34.7129 41.9278C34.6024 42.153 34.4877 42.3738 34.3688 42.5862C33.5575 44.0347 32.5125 45.1179 31.2339 45.8485M8.87782 5.81314L8.21517 6.14447C6.75393 6.98128 5.59429 8.28535 4.74048 10.0652C3.88668 11.8408 3.45764 14.0241 3.45764 16.6025C3.45764 19.1809 3.88668 21.8613 4.74048 24.6223C5.59429 27.3877 6.75393 30.034 8.21517 32.5572C9.68065 35.0846 11.401 37.4082 13.3805 39.5278C15.3599 41.6517 17.4753 43.3635 19.7267 44.6634C21.9738 45.9632 24.0891 46.6938 26.0686 46.8552C28.0481 47.0166 29.7684 46.6811 31.2339 45.8485M8.87782 5.81314L16.7107 1.89663C18.1762 1.06406 19.8966 0.728489 21.8761 0.889905C23.8555 1.05132 25.9709 1.78196 28.2222 3.08178C30.4693 4.3816 32.5847 6.09345 34.5642 8.2131C36.5437 10.337 38.264 12.6605 39.7295 15.188C41.195 17.7112 42.3546 20.3575 43.2084 23.1185C44.0622 25.8839 44.487 28.5557 44.487 31.1384C44.487 33.721 44.0622 35.9002 43.2084 37.68C42.3546 39.4598 41.195 40.7639 39.7295 41.6007L31.2339 45.8485M27.8569 26.024C27.8569 26.8014 27.6233 27.3281 27.1476 27.5957C27.1263 27.6085 27.1051 27.6169 27.0838 27.6254C26.6208 27.8633 26.0686 27.7911 25.4187 27.4173C24.739 27.0265 24.1656 26.419 23.6898 25.6035C23.2141 24.7836 22.9805 23.9851 22.9805 23.2077C22.9805 22.4304 23.2141 21.9079 23.6898 21.636C24.1656 21.3642 24.739 21.4237 25.4187 21.8145C26.0983 22.2095 26.6718 22.8127 27.1476 23.6325C27.4619 24.172 27.67 24.703 27.7762 25.2254C27.8314 25.4931 27.8569 25.7607 27.8569 26.024ZM14.0304 20.8418C13.7245 20.6634 13.4399 20.4468 13.1766 20.1792C12.8538 19.8606 12.5649 19.4783 12.3058 19.028C11.83 18.2082 11.5922 17.4096 11.5922 16.6322C11.5922 15.9611 11.7706 15.4811 12.1231 15.1923C12.1784 15.1413 12.2421 15.0988 12.3058 15.0606C12.7773 14.7887 13.355 14.8524 14.0304 15.2432C14.71 15.634 15.2877 16.2372 15.7592 17.057C16.235 17.8768 16.4729 18.6754 16.4729 19.4528C16.4729 20.2301 16.235 20.7526 15.7592 21.0245C15.2877 21.2921 14.71 21.2326 14.0304 20.8418ZM24.2591 34.7491C24.0297 34.8808 23.7366 34.8468 23.384 34.6429L16.0651 30.4163C15.7125 30.2124 15.4237 29.9108 15.19 29.5158C14.9607 29.1165 14.846 28.7172 14.846 28.3136C14.846 27.9101 14.9607 27.6383 15.19 27.5066C15.4237 27.3749 15.7125 27.4132 16.0651 27.6171L16.4431 27.8379L23.384 31.8436C23.7366 32.0475 24.0297 32.3448 24.2591 32.7441C24.4884 33.1392 24.6074 33.5427 24.6074 33.9462C24.6074 34.3498 24.4884 34.6174 24.2591 34.7491Z" stroke="#27272A" stroke-opacity="0.25" stroke-linecap="round" stroke-linejoin="round"/>
      </svg>