<svg xmlns="http://www.w3.org/2000/svg" viewBox="0 0 48 48">
        <path d="M27.3511 26.7328V28.562L25.2624 29.6041V25.5263C25.2624 25.3144 25.1889 25.0895 25.0505 24.8474C24.9121 24.6052 24.7478 24.4322 24.5619 24.3241L15.8527 19.2949C15.55 19.122 15.2992 18.8625 15.1046 18.5252C14.9057 18.1836 14.8062 17.8376 14.8062 17.4917C14.8062 17.1457 14.9057 16.9166 15.1046 16.8041C15.2992 16.6917 15.55 16.722 15.8527 16.8949L24.5619 21.9284C25.3316 22.3695 25.9846 23.0614 26.5338 24.0041C27.0786 24.9425 27.3511 25.8549 27.3511 26.7328Z" fill="white"/>
<path d="M32.9252 23.5544V32.3111C32.9252 32.6701 32.8258 32.9166 32.6225 33.0463L32.5144 33.1025C32.4755 33.1198 32.4323 33.1328 32.3847 33.1414C32.2031 33.176 32.0215 33.1501 31.8355 33.0636C31.6452 32.9814 31.455 32.8344 31.2561 32.6268C31.1956 32.5706 31.1307 32.5144 31.0701 32.4582C31.0009 32.3976 30.9274 32.3328 30.8582 32.2722C30.5901 32.043 30.3263 31.8225 30.0539 31.6106C29.7252 31.3598 29.3793 31.122 29.0247 30.9101C28.9425 30.8539 28.8604 30.8063 28.7783 30.7587C28.5231 30.6117 28.2809 30.4776 28.0474 30.3566C27.8139 30.2355 27.5847 30.136 27.3512 30.0539L27.3511 26.7328C27.3511 25.8549 27.0786 24.9425 26.5338 24.0041C25.9846 23.0614 25.3316 22.3695 24.5619 21.9284L15.8527 16.8949C15.55 16.722 15.2992 16.6917 15.1046 16.8041C14.9057 16.9166 14.8062 17.1457 14.8062 17.4917C14.8062 17.8376 14.9057 18.1836 15.1046 18.5252C15.2992 18.8625 15.55 19.122 15.8527 19.2949L24.5619 24.3241C24.7478 24.4322 24.9121 24.6052 25.0505 24.8474C25.1889 25.0895 25.2624 25.3144 25.2624 25.5263V29.6041C24.8646 29.5911 24.5015 29.6128 24.1642 29.6733C23.8269 29.7295 23.4939 29.8247 23.1696 29.9587V27.5198C23.1696 27.0657 23.0356 26.6074 22.7675 26.149C22.5037 25.6863 22.1707 25.3447 21.7771 25.1155L12.0215 19.4809C11.6237 19.256 11.295 19.2171 11.0269 19.3684C10.7588 19.5198 10.6247 19.8225 10.6247 20.2766V25.0766C10.6247 25.5263 10.7588 25.9847 11.0269 26.4474C11.295 26.9057 11.6237 27.2517 12.0215 27.4809L20.869 32.5879C20.6139 33.2149 20.4583 33.9241 20.3977 34.7155C20.3415 35.5112 20.3717 36.3371 20.4885 37.2063C20.5317 37.6344 20.4539 37.9457 20.242 38.1447C20.0345 38.3436 19.7663 38.3479 19.442 38.162L7.83986 31.4636C7.07013 31.0182 6.41713 30.3263 5.86794 29.3879C5.32307 28.4452 5.05069 27.5328 5.05069 26.6549V7.46358C5.05069 6.58142 5.32307 5.98466 5.86794 5.67331L6.04092 5.58682C6.55119 5.37926 7.14797 5.47439 7.83986 5.87223L30.1404 18.7457C30.9058 19.1911 31.5631 19.883 32.108 20.8257C32.6528 21.7641 32.9252 22.6766 32.9252 23.5544Z" fill="white"/>
<path d="M27.3511 28.562L27.3511 29.3489L20.869 32.5879L12.0215 27.4809C11.6237 27.2517 11.295 26.9057 11.0269 26.4474C10.7588 25.9847 10.6247 25.5263 10.6247 25.0766V20.2766C10.6247 19.8225 10.7588 19.5198 11.0269 19.3684C11.295 19.2171 11.6237 19.256 12.0215 19.4809L21.7771 25.1155C22.1707 25.3447 22.5037 25.6863 22.7675 26.149C23.0356 26.6074 23.1696 27.0657 23.1696 27.5198V29.9587C23.4939 29.8247 23.8269 29.7295 24.1642 29.6733C24.5015 29.6128 24.8646 29.5911 25.2624 29.6041L27.3511 28.562Z" fill="white"/>
<path d="M38.7328 42.0582C38.6679 42.2744 38.5555 42.4258 38.3868 42.5209L38.3047 42.5598L29.7382 46.8451C30.0063 46.6938 30.1403 46.3911 30.1403 45.937V42.7371L32.9252 44.35C33.323 44.5748 33.6517 44.6138 33.9198 44.4624L37.7252 42.5598H37.7295L38.7328 42.0582Z" fill="white"/>
<path d="M41.574 19.23V27.9867C41.574 28.3457 41.4745 28.5921 41.2712 28.7219L38.1491 30.283L33.9199 32.4019H33.9156L32.6225 33.0463C32.8258 32.9166 32.9252 32.6701 32.9252 32.3111V23.5544C32.9252 22.6766 32.6528 21.7641 32.108 20.8257C31.5631 19.883 30.9058 19.1911 30.1404 18.7457L7.83986 5.87223C7.14797 5.47439 6.55119 5.37926 6.04092 5.58682L14.5166 1.34888C15.0658 1.03753 15.7188 1.10672 16.4886 1.5478L38.7891 14.4213C39.5545 14.8667 40.2118 15.5586 40.7567 16.5013C41.3015 17.4397 41.574 18.3521 41.574 19.23Z" fill="white"/>
<path d="M34.3222 43.5543C34.3222 44.0084 34.1879 44.3111 33.9198 44.4624C33.6517 44.6138 33.323 44.5748 32.9252 44.35L30.1403 42.7371V45.937C30.1403 46.3911 30.0063 46.6938 29.7382 46.8451C29.4701 46.9965 29.1417 46.9619 28.7438 46.7327C28.3503 46.5035 28.0174 46.1576 27.7536 45.6992C27.4855 45.2365 27.3514 44.7824 27.3514 44.3284V41.1284L24.5623 39.5197C24.1687 39.2905 23.8401 38.9489 23.5719 38.4862C23.3038 38.0235 23.1698 37.5694 23.1698 37.1154C23.1698 36.9467 23.1871 36.7954 23.226 36.67C23.2909 36.4538 23.4076 36.3024 23.5719 36.2073L23.6541 36.1684C23.8228 36.0992 24.0131 36.0992 24.2293 36.1727C24.3331 36.203 24.4455 36.2548 24.5623 36.3197L27.3514 37.9284V34.7327C27.3514 34.6938 27.3514 34.6592 27.3557 34.6246C27.3601 34.4992 27.3774 34.3867 27.4076 34.2916C27.4725 34.0711 27.585 33.9197 27.7536 33.8246L27.8357 33.7857C27.8703 33.7684 27.9049 33.7597 27.9395 33.7511C28.0822 33.7165 28.2422 33.7294 28.4152 33.7857C28.5147 33.8159 28.6228 33.8678 28.7309 33.9284C28.7352 33.9284 28.7395 33.9284 28.7438 33.937C29.1417 34.1662 29.4703 34.5078 29.7384 34.9705C30.0065 35.4289 30.1406 35.8873 30.1406 36.3413V39.5413L32.9255 41.15C33.3233 41.3792 33.6519 41.7208 33.9201 42.1835C34.1882 42.6419 34.3222 43.1003 34.3222 43.5543Z" fill="white"/>
<path d="M27.4076 34.2916C27.3774 34.3867 27.3601 34.4992 27.3557 34.6246C27.3514 34.6592 27.3514 34.6938 27.3514 34.7327V37.9284L24.5623 36.3197C24.4455 36.2548 24.3331 36.203 24.2293 36.1727C24.0131 36.0992 23.8228 36.0992 23.6541 36.1684L27.4076 34.2916Z" fill="white"/>
<path d="M42.9705 39.2299C42.9705 39.684 42.8364 39.9867 42.5683 40.138L42.4862 40.177L38.7326 42.0537L37.7295 42.5598H37.7252L33.9198 44.4624C34.1879 44.3111 34.3222 44.0084 34.3222 43.5543C34.3222 43.1003 34.1882 42.6419 33.9201 42.1835C33.6519 41.7208 33.3233 41.3792 32.9255 41.15L30.1406 39.5413L38.7889 35.217L41.5738 36.8256C41.9716 37.0548 42.3002 37.3964 42.5683 37.8591C42.8364 38.3175 42.9705 38.7759 42.9705 39.2299Z" fill="white"/>
<path d="M29.1457 33.1284L27.922 33.7381L27.8357 33.7857L27.7536 33.8246C27.585 33.9197 27.4722 34.0711 27.4074 34.2873L23.6541 36.1684L23.5719 36.2073C23.4076 36.3024 23.2906 36.4538 23.2257 36.6657L20.242 38.1447C20.4539 37.9457 20.5317 37.6344 20.4885 37.2063C20.3717 36.3371 20.3415 35.5112 20.3977 34.7155C20.4583 33.9241 20.6139 33.2149 20.869 32.5879L27.3511 29.3489L27.3512 30.0539C27.5847 30.136 27.8139 30.2355 28.0474 30.3566C28.2809 30.4776 28.5231 30.6117 28.7783 30.7587C28.8604 30.8063 28.9425 30.8539 29.0247 30.9101C29.0074 31.5457 29.0463 32.1987 29.1371 32.8819C29.1457 32.9684 29.1501 33.0506 29.1457 33.1284Z" fill="white"/>
<path d="M38.7889 32.0169L38.7889 35.217L30.1406 39.5413V36.3413C30.1406 35.8873 30.0065 35.4289 29.7384 34.9705C29.4703 34.5078 29.1417 34.1662 28.7438 33.937C28.7395 33.9327 28.7352 33.9327 28.7309 33.9284C28.6228 33.8678 28.5147 33.8159 28.4152 33.7857C28.2422 33.7294 28.0822 33.7165 27.9395 33.7511L27.922 33.7381L29.1457 33.1284L30.8582 32.2722C30.9274 32.3328 31.0009 32.3976 31.0701 32.4582C31.1307 32.5144 31.1956 32.5706 31.2561 32.6268C31.455 32.8344 31.6452 32.9814 31.8355 33.0636C32.0215 33.1501 32.2031 33.176 32.3847 33.1414C32.4323 33.1328 32.4755 33.1198 32.5144 33.1025L32.6225 33.0463L33.9156 32.4019H33.9199L38.1491 30.283C38.2312 30.3954 38.3133 30.5164 38.3868 30.6461C38.6549 31.1045 38.7889 31.5629 38.7889 32.0169Z" fill="white"/>
<path d="M27.3511 26.7328V28.562M27.3511 26.7328C27.3511 25.8549 27.0786 24.9425 26.5338 24.0041C25.9846 23.0614 25.3316 22.3695 24.5619 21.9284L15.8527 16.8949C15.55 16.722 15.2992 16.6917 15.1046 16.8041C14.9057 16.9166 14.8062 17.1457 14.8062 17.4917C14.8062 17.8376 14.9057 18.1836 15.1046 18.5252C15.2992 18.8625 15.55 19.122 15.8527 19.2949L24.5619 24.3241C24.7478 24.4322 24.9121 24.6052 25.0505 24.8474C25.1889 25.0895 25.2624 25.3144 25.2624 25.5263V29.6041M27.3511 26.7328L27.3512 30.0539M27.3511 28.562L25.2624 29.6041M27.3511 28.562L27.3511 29.3489M25.2624 29.6041C24.8646 29.5911 24.5015 29.6128 24.1642 29.6733C23.8269 29.7295 23.4939 29.8247 23.1696 29.9587V27.5198C23.1696 27.0657 23.0356 26.6074 22.7675 26.149C22.5037 25.6863 22.1707 25.3447 21.7771 25.1155L12.0215 19.4809C11.6237 19.256 11.295 19.2171 11.0269 19.3684C10.7588 19.5198 10.6247 19.8225 10.6247 20.2766V25.0766C10.6247 25.5263 10.7588 25.9847 11.0269 26.4474C11.295 26.9057 11.6237 27.2517 12.0215 27.4809L20.869 32.5879M32.6225 33.0463C32.8258 32.9166 32.9252 32.6701 32.9252 32.3111V23.5544C32.9252 22.6766 32.6528 21.7641 32.108 20.8257C31.5631 19.883 30.9058 19.1911 30.1404 18.7457L7.83986 5.87223C7.14797 5.47439 6.55119 5.37926 6.04092 5.58682M32.6225 33.0463L32.5144 33.1025C32.4755 33.1198 32.4323 33.1328 32.3847 33.1414C32.2031 33.176 32.0215 33.1501 31.8355 33.0636C31.6452 32.9814 31.455 32.8344 31.2561 32.6268C31.1956 32.5706 31.1307 32.5144 31.0701 32.4582C31.0009 32.3976 30.9274 32.3328 30.8582 32.2722M32.6225 33.0463L33.9156 32.4019H33.9199L38.1491 30.283M30.8582 32.2722C30.5901 32.043 30.3263 31.8225 30.0539 31.6106C29.7252 31.3598 29.3793 31.122 29.0247 30.9101M30.8582 32.2722L29.1457 33.1284M29.0247 30.9101C28.9425 30.8539 28.8604 30.8063 28.7783 30.7587C28.5231 30.6117 28.2809 30.4776 28.0474 30.3566C27.8139 30.2355 27.5847 30.136 27.3512 30.0539M29.0247 30.9101C29.0074 31.5457 29.0463 32.1987 29.1371 32.8819C29.1457 32.9684 29.1501 33.0506 29.1457 33.1284M27.3512 30.0539L27.3511 29.3489M20.869 32.5879C20.6139 33.2149 20.4583 33.9241 20.3977 34.7155C20.3415 35.5111 20.3717 36.3371 20.4885 37.2063C20.5317 37.6344 20.4539 37.9457 20.242 38.1447M20.869 32.5879L27.3511 29.3489M20.242 38.1447C20.0345 38.3436 19.7663 38.3479 19.442 38.162L7.83986 31.4636C7.07013 31.0182 6.41713 30.3263 5.86794 29.3879C5.32307 28.4452 5.05069 27.5328 5.05069 26.6549V7.46358C5.05069 6.58142 5.32307 5.98466 5.86794 5.67331L6.04092 5.58682M20.242 38.1447L23.2257 36.6657C23.2906 36.4538 23.4076 36.3024 23.5719 36.2073M6.04092 5.58682L14.5166 1.34888C15.0658 1.03753 15.7188 1.10672 16.4886 1.5478L38.7891 14.4213C39.5545 14.8667 40.2118 15.5586 40.7567 16.5013C41.3015 17.4397 41.574 18.3521 41.574 19.23V27.9867C41.574 28.3457 41.4745 28.5921 41.2712 28.7219L38.1491 30.283M29.7382 46.8451L38.3047 42.5598L38.3868 42.5209C38.5555 42.4258 38.6679 42.2744 38.7328 42.0582L37.7295 42.5598M29.7382 46.8451C30.0063 46.6938 30.1403 46.3911 30.1403 45.937V42.7371L32.9252 44.35C33.323 44.5748 33.6517 44.6138 33.9198 44.4624M29.7382 46.8451C29.4701 46.9965 29.1417 46.9619 28.7438 46.7327C28.3503 46.5035 28.0174 46.1576 27.7536 45.6992C27.4855 45.2365 27.3514 44.7824 27.3514 44.3284V41.1284L24.5623 39.5197C24.1687 39.2905 23.8401 38.9489 23.5719 38.4862C23.3038 38.0235 23.1698 37.5694 23.1698 37.1154C23.1698 36.9467 23.1871 36.7954 23.226 36.67C23.2909 36.4538 23.4076 36.3024 23.5719 36.2073M33.9198 44.4624L37.7252 42.5598H37.7295M33.9198 44.4624C34.1879 44.3111 34.3222 44.0084 34.3222 43.5543C34.3222 43.1003 34.1882 42.6419 33.9201 42.1835C33.6519 41.7208 33.3233 41.3792 32.9255 41.15L30.1406 39.5413M37.7295 42.5598L38.7326 42.0537L42.4862 40.177L42.5683 40.138C42.8364 39.9867 42.9705 39.684 42.9705 39.2299C42.9705 38.7759 42.8364 38.3175 42.5683 37.8591C42.3002 37.3964 41.9716 37.0548 41.5738 36.8256L38.7889 35.217M38.1491 30.283C38.2312 30.3954 38.3133 30.5164 38.3868 30.6461C38.6549 31.1045 38.7889 31.5629 38.7889 32.0169L38.7889 35.217M23.5719 36.2073L23.6541 36.1684M23.6541 36.1684C23.8228 36.0992 24.0131 36.0992 24.2293 36.1727C24.3331 36.203 24.4455 36.2548 24.5623 36.3197L27.3514 37.9284V34.7327C27.3514 34.6938 27.3514 34.6592 27.3557 34.6246C27.3601 34.4992 27.3774 34.3867 27.4076 34.2916M23.6541 36.1684L27.4076 34.2916M23.6541 36.1684L27.4074 34.2873C27.4722 34.0711 27.585 33.9197 27.7536 33.8246M27.4076 34.2916C27.4725 34.0711 27.585 33.9197 27.7536 33.8246M27.7536 33.8246L27.8357 33.7857M27.8357 33.7857C27.8703 33.7684 27.9049 33.7597 27.9395 33.7511M27.8357 33.7857L27.922 33.7381M27.9395 33.7511C28.0822 33.7165 28.2422 33.7294 28.4152 33.7857C28.5147 33.8159 28.6228 33.8678 28.7309 33.9284M27.9395 33.7511L27.922 33.7381M28.7309 33.9284C28.7352 33.9284 28.7395 33.9284 28.7438 33.937M28.7309 33.9284C28.7352 33.9327 28.7395 33.9327 28.7438 33.937M28.7438 33.937C29.1417 34.1662 29.4703 34.5078 29.7384 34.9705C30.0065 35.4289 30.1406 35.8873 30.1406 36.3413V39.5413M30.1406 39.5413L38.7889 35.217M29.1457 33.1284L27.922 33.7381" stroke="#27272A" stroke-opacity="0.25" stroke-linecap="round" stroke-linejoin="round"/>
      </svg>