<svg xmlns="http://www.w3.org/2000/svg" viewBox="0 0 48 48">
        <path d="M28.8852 35.5962V43.9132C28.8852 45.2995 28.4636 46.2326 27.6202 46.7126C26.7724 47.1971 25.745 47.0894 24.5383 46.3896L10.0441 38.0231C9.63135 37.7853 9.28588 37.4265 9.00775 36.9465C8.72962 36.4665 8.5906 35.9954 8.5906 35.5199C8.5906 35.0444 8.72962 34.7349 9.00775 34.5779L9.09308 34.5375C9.35775 34.4298 9.67172 34.4792 10.0441 34.6945L15.84 38.041V36.3812L10.9951 33.582L7.14164 31.3569C6.73341 31.1192 6.38797 30.7648 6.10984 30.2848C5.83171 29.8048 5.69268 29.3293 5.69268 28.8582C5.69268 28.3872 5.83171 28.0732 6.10984 27.9117L6.19516 27.8713C6.45535 27.7636 6.77379 27.8175 7.14164 28.0328L15.84 33.0526V31.3883L15.6291 31.2672L8.09719 26.9158L5.69268 25.5296C5.28445 25.2919 4.93901 24.9375 4.66088 24.4575C4.38275 23.9775 4.24371 23.502 4.24371 23.0309C4.24371 22.5599 4.38275 22.2459 4.66088 22.0844L4.74609 22.044C5.00627 21.9364 5.32483 21.9902 5.69268 22.2055L15.84 28.0642V26.3999L15.2478 26.059L8.5906 22.2145C8.18238 21.9767 7.83696 21.6179 7.55883 21.1423C7.48256 21.0078 7.41528 20.8732 7.35696 20.7386C7.21341 20.3932 7.14164 20.0522 7.14164 19.7158C7.14164 19.2448 7.28067 18.9263 7.55883 18.7693L7.6441 18.7289C7.90878 18.6212 8.22275 18.6751 8.5906 18.8859L17.437 23.9909L16.7685 22.2594L16.2033 20.7879C15.9117 20.0388 15.7996 19.3524 15.8579 18.7379C15.8669 18.6302 15.8849 18.5315 15.9073 18.4373C15.9297 18.3251 15.9611 18.222 16.0014 18.1233C16.1226 17.8272 16.311 17.6074 16.5667 17.4594L16.7103 17.419C16.809 17.3607 16.9211 17.3248 17.0333 17.3158C17.1723 17.3023 17.3159 17.3293 17.4729 17.3876C17.5222 17.4055 17.5761 17.4279 17.6299 17.4549C17.9708 17.6253 18.2803 17.9124 18.5674 18.3117C18.5764 18.3207 18.5809 18.3341 18.5899 18.3431L24.3992 26.6691L24.8075 27.2522L27.1447 30.5988C27.6964 31.3928 28.1271 32.2182 28.4276 33.0885C28.7327 33.9543 28.8807 34.7932 28.8807 35.5962H28.8852Z" fill="white"/>
<path d="M41.1096 30.5271C41.1903 30.5136 41.2621 30.4733 41.3384 30.415L41.1096 30.5271Z" fill="white"/>
<path d="M15.84 26.3999V28.0642L5.69268 22.2055C5.32483 21.9902 5.00627 21.9364 4.74609 22.044L7.35696 20.7386C7.41528 20.8732 7.48256 21.0078 7.55883 21.1423C7.83696 21.6179 8.18238 21.9767 8.5906 22.2145L15.2478 26.059L15.84 26.3999Z" fill="white"/>
<path d="M37.8574 32.1555V39.4272C37.8574 40.8134 37.4358 41.7465 36.5924 42.2265L36.3277 42.3566L27.6202 46.7126C28.4636 46.2326 28.8852 45.2995 28.8852 43.9132V35.5962C28.8852 34.7932 28.7374 33.9543 28.4323 33.0886C28.1318 32.2183 27.7012 31.3929 27.1494 30.5988L24.8122 27.2523L24.4039 26.6691L18.5946 18.3431C18.5946 18.3431 18.5811 18.3207 18.5721 18.3117C18.285 17.9125 17.9755 17.6254 17.6346 17.4549C17.5808 17.428 17.5269 17.4056 17.4776 17.3876C17.3205 17.3293 17.177 17.3024 17.038 17.3158C16.9258 17.3248 16.8137 17.3607 16.715 17.419L16.5714 17.4594L16.9796 17.253L19.2316 16.1271L19.429 16.4142L21.7887 19.8101L28.4548 29.3562C28.8899 29.9932 29.2802 30.6482 29.6167 31.3166C29.9531 31.9805 30.2312 32.6534 30.451 33.3353C30.5452 33.6942 30.6932 34.0082 30.8861 34.2729C31.079 34.5375 31.2944 34.7394 31.5367 34.8785C31.7071 34.9727 31.8552 35.0265 31.9897 35.0355C32.1243 35.04 32.2499 34.9951 32.371 34.9009L37.8619 32.1555H37.8574Z" fill="white"/>
<path d="M34.9009 31.5813C34.7798 32.2901 34.5151 32.8418 34.1069 33.2456L32.3663 34.9009C32.2451 34.9951 32.1196 35.04 31.985 35.0355C31.8505 35.0265 31.7024 34.9727 31.532 34.8785C31.2897 34.7394 31.0743 34.5375 30.8814 34.2729C30.6885 34.0082 30.5405 33.6942 30.4463 33.3353C30.2264 32.6534 29.9484 31.9805 29.6119 31.3166C29.2755 30.6482 28.8852 29.9932 28.45 29.3562L21.7839 19.8101L19.4243 16.4142L19.2268 16.1271L17.6164 13.8078L17.1274 13.108L14.1846 8.86874L14.1577 8.82837L13.7764 8.28108C13.4355 7.81005 13.2425 7.33902 13.1932 6.86351C13.1483 6.39248 13.2426 6.0336 13.4849 5.78687C13.5477 5.72407 13.6194 5.67024 13.6912 5.63435C13.7674 5.59398 13.8437 5.57155 13.929 5.56257H13.9379C14.086 5.54463 14.2474 5.57155 14.4268 5.64332C14.8126 5.79585 15.176 6.10986 15.5124 6.58089L16.3469 7.78314L19.2852 12.0269L19.7741 12.7312L21.3801 15.0504L21.5775 15.333L23.6321 18.2983L24.5023 17.428L22.6766 14.8037L22.6677 14.7902L22.4702 14.5076L20.8598 12.1884L20.5143 11.6949L18.702 9.08856C18.3656 8.61753 18.1681 8.14201 18.1053 7.66201C18.0649 7.348 18.092 7.08781 18.1862 6.868C18.2355 6.75585 18.2983 6.65715 18.379 6.57192C18.4284 6.52257 18.4821 6.47771 18.5449 6.44183L18.5719 6.42837C18.6436 6.39248 18.7154 6.37005 18.7962 6.36108H18.8052C18.9084 6.34314 19.0205 6.35659 19.1416 6.388C19.1999 6.40145 19.2583 6.42388 19.3211 6.4508C19.7069 6.61678 20.0702 6.93977 20.4067 7.4108L22.9951 11.1207L24.6145 13.4355L24.9016 13.8527L27.508 17.585L27.8355 14.9024C27.8579 14.7185 27.8893 14.5525 27.9432 14.4C28.0553 14.0366 28.2526 13.7719 28.5263 13.597L28.755 13.4803C28.9569 13.3996 29.1857 13.3772 29.4279 13.4086C29.5894 13.4265 29.7599 13.4714 29.9394 13.5386L30.1547 13.6239C30.5181 13.7764 30.8455 14.0456 31.1326 14.4358C31.4242 14.8261 31.6306 15.2478 31.7518 15.7054L34.7933 29.2351C34.9862 30.0919 35.022 30.877 34.9009 31.5813Z" fill="white"/>
<path d="M18.1862 6.868C18.092 7.08781 18.0649 7.348 18.1053 7.66201C18.1681 8.14201 18.3656 8.61753 18.702 9.08856L20.5143 11.6949L20.8598 12.1884L22.4702 14.5076L22.6677 14.7902L22.6766 14.8037L24.5023 17.428L23.6321 18.2983L21.5775 15.333L21.3801 15.0504L19.7741 12.7312L19.2852 12.0269L16.3469 7.78314L15.5124 6.58089C15.176 6.10986 14.8126 5.79585 14.4268 5.64332C14.2474 5.57155 14.086 5.54463 13.9379 5.56257H13.929C13.8437 5.57155 13.7674 5.59398 13.6912 5.63435L22.5692 1.20221H22.5737C22.798 1.04071 23.0716 1.02725 23.399 1.15735C23.7848 1.30987 24.1482 1.62389 24.4846 2.09492L25.1845 3.10875L18.5719 6.42837L18.5449 6.44183C18.4821 6.47771 18.4284 6.52257 18.379 6.57192C18.2983 6.65715 18.2357 6.75585 18.1864 6.86351L18.1862 6.868Z" fill="white"/>
<path d="M43.8728 27.0953C43.7517 27.8041 43.487 28.3559 43.0788 28.7596L41.3384 30.415L41.1096 30.5271L37.8574 32.1555L32.3663 34.9009L34.1069 33.2456C34.5151 32.8418 34.7798 32.2901 34.9009 31.5813C35.022 30.877 34.9862 30.0919 34.7933 29.2351L31.7518 15.7054C31.6306 15.2478 31.4242 14.8261 31.1326 14.4358C30.8455 14.0456 30.5181 13.7764 30.1547 13.6239L29.9394 13.5386C29.7599 13.4714 29.5894 13.4265 29.4279 13.4086C29.1857 13.3772 28.9569 13.3996 28.755 13.4803L29.2889 13.2157L34.681 10.5196L37.4981 9.11103C37.8839 8.85982 38.355 8.84187 38.9113 9.05271L39.1266 9.13795C39.49 9.29047 39.8174 9.55963 40.1045 9.94991C40.3961 10.3402 40.6025 10.7619 40.7236 11.2194L43.7651 24.7492C43.958 25.606 43.9939 26.391 43.8728 27.0953Z" fill="white"/>
<path d="M15.84 36.3812V38.041L10.0441 34.6945C9.67172 34.4792 9.35775 34.4298 9.09308 34.5375L10.9951 33.582L15.84 36.3812Z" fill="white"/>
<path d="M15.84 31.3883V33.0526L7.14164 28.0328C6.77379 27.8175 6.45535 27.7636 6.19516 27.8713L8.09719 26.9158L15.6291 31.2672L15.84 31.3883Z" fill="white"/>
<path d="M14.0993 19.0744C13.8975 19.2852 13.6373 19.3525 13.3233 19.2672C13.2694 19.2583 13.2156 19.2403 13.1572 19.2179C12.7939 19.0699 12.4485 18.7872 12.1256 18.3521C12.1076 18.3297 12.0896 18.3028 12.0717 18.2758C11.7352 17.8048 11.5378 17.3338 11.493 16.8628C11.493 16.8448 11.4885 16.8224 11.4885 16.8044C11.4526 16.3558 11.5469 16.0194 11.7801 15.7816C11.8429 15.7188 11.9102 15.665 11.9865 15.6291C12.0583 15.5932 12.1345 15.5708 12.2153 15.5618H12.2242C12.3678 15.5439 12.5293 15.5753 12.7043 15.6471C12.8703 15.7188 13.0317 15.8175 13.1887 15.9521C13.3906 16.1181 13.5835 16.3334 13.7764 16.5981C14.0052 16.9166 14.1667 17.2351 14.2699 17.5491C14.3192 17.7016 14.3506 17.8542 14.373 18.0022C14.4313 18.4687 14.3416 18.8276 14.0993 19.0744Z" fill="white"/>
<path d="M15.7861 13.9335C15.7951 14.2789 15.7278 14.557 15.5798 14.7589C15.5484 14.8037 15.517 14.8441 15.4766 14.88C15.3286 15.0236 15.1402 15.0908 14.9204 15.0908H14.9159C14.8172 15.0908 14.7185 15.0729 14.6063 15.0415C14.4045 14.9877 14.2026 14.8665 13.9962 14.6736C13.9828 14.6647 13.9737 14.6512 13.9603 14.6378C13.8122 14.5032 13.6642 14.3282 13.5207 14.1219L12.3274 12.4351C11.9865 11.9641 11.7936 11.4886 11.7442 11.0176C11.6949 10.5465 11.7935 10.1877 12.0358 9.94094C12.0807 9.89159 12.13 9.85122 12.1839 9.81982L12.2557 9.78393C12.3185 9.75253 12.3903 9.73458 12.462 9.72561H12.471C12.6235 9.70318 12.7895 9.73458 12.9779 9.81533C13.3637 9.9858 13.727 10.3043 14.0635 10.7798L15.2254 12.489C15.5484 12.9645 15.7278 13.3996 15.7727 13.7854C15.7816 13.8348 15.7861 13.8841 15.7861 13.9335Z" fill="white"/>
<path d="M34.681 10.5196L29.2889 13.2157L28.755 13.4803L28.5263 13.597C28.2526 13.7719 28.0553 14.0366 27.9432 14.4C27.8893 14.5525 27.8579 14.7185 27.8355 14.9024L27.508 17.585L24.9016 13.8527L24.6145 13.4355L22.9951 11.1207L20.4067 7.4108C20.0702 6.93977 19.7069 6.61678 19.3211 6.4508C19.2583 6.42388 19.1999 6.40145 19.1416 6.388C19.0205 6.35659 18.9084 6.34314 18.8052 6.36108H18.7962C18.7154 6.37005 18.6436 6.39248 18.5719 6.42837L25.1842 3.11322L27.4632 1.98724L27.5124 1.96032L27.6067 1.91098H27.6112C27.8041 1.83472 28.0329 1.85266 28.2931 1.96481C28.6789 2.13079 29.0422 2.45379 29.3787 2.92481L34.681 10.5196Z" fill="white"/>
<path d="M18.5449 6.44183L18.5719 6.42837L18.5449 6.44183Z" fill="white"/>
<path d="M13.6912 5.63435L13.624 5.6658L13.6912 5.63435Z" fill="white"/>
<path d="M22.6139 1.17974L22.5736 1.19768L22.6139 1.17974Z" fill="white"/>
<path d="M17.6164 13.8078L16.8584 14.1891H16.854L16.329 14.4538L15.4766 14.88C15.517 14.8441 15.5484 14.8037 15.5798 14.7589C15.7278 14.557 15.7951 14.2789 15.7861 13.9335C15.7861 13.8841 15.7816 13.8348 15.7727 13.7854C15.7278 13.3996 15.5484 12.9645 15.2254 12.489L14.0635 10.7798C13.727 10.3043 13.3637 9.9858 12.9779 9.81533C12.7895 9.73458 12.6235 9.70318 12.471 9.72561H12.462C12.3903 9.73458 12.3185 9.75253 12.2557 9.78393L14.1577 8.82837L14.1846 8.86874L17.1274 13.108L17.6164 13.8078Z" fill="white"/>
<path d="M17.437 23.9909L8.5906 18.8859C8.22275 18.6751 7.90878 18.6212 7.6441 18.7289L11.4885 16.8044C11.4885 16.8044 11.493 16.8448 11.493 16.8628C11.5378 17.3338 11.7352 17.8048 12.0717 18.2758C12.0896 18.3028 12.1076 18.3297 12.1256 18.3521C12.4485 18.7872 12.7939 19.0699 13.1572 19.2179C13.2156 19.2403 13.2694 19.2583 13.3233 19.2672C13.6373 19.3525 13.8975 19.2852 14.0993 19.0744L16.0014 18.1233C15.9611 18.222 15.9297 18.3251 15.9073 18.4373C15.8849 18.5315 15.8669 18.6302 15.8579 18.7379C15.7996 19.3524 15.9117 20.0388 16.2033 20.7879L16.7685 22.2594L17.437 23.9909Z" fill="white"/>
<path d="M19.2268 16.1271L16.9748 17.2531L16.5667 17.4594C16.311 17.6074 16.1226 17.8272 16.0014 18.1233L14.0993 19.0744C14.3416 18.8276 14.4313 18.4687 14.373 18.0022C14.3506 17.8542 14.3192 17.7016 14.2699 17.5491C14.1667 17.2351 14.0052 16.9166 13.7764 16.5981C13.5835 16.3334 13.3906 16.1181 13.1887 15.9521C13.0317 15.8175 12.8703 15.7188 12.7043 15.6471C12.5293 15.5753 12.3678 15.5439 12.2242 15.5618H12.2153C12.1345 15.5708 12.0583 15.5932 11.9865 15.6291L13.9603 14.6378C13.9603 14.6378 13.9828 14.6647 13.9962 14.6736C14.2026 14.8665 14.4045 14.9877 14.6063 15.0415C14.7185 15.0729 14.8172 15.0908 14.9159 15.0908H14.9204C15.1402 15.0908 15.3286 15.0236 15.4766 14.88L16.329 14.4538L16.854 14.1891H16.8584L17.6164 13.8078L19.2268 16.1271Z" fill="white"/>
<path d="M28.8852 35.5962V43.9132C28.8852 45.2995 28.4636 46.2326 27.6202 46.7126M28.8852 35.5962H28.8807C28.8807 34.7932 28.7327 33.9543 28.4276 33.0885C28.127 32.2182 27.6964 31.3928 27.1447 30.5988L24.8075 27.2522L24.3992 26.6691L18.5899 18.3431C18.5809 18.3341 18.5764 18.3207 18.5674 18.3117C18.2803 17.9124 17.9708 17.6253 17.6299 17.4549C17.5761 17.4279 17.5222 17.4055 17.4729 17.3876C17.3159 17.3293 17.1723 17.3023 17.0333 17.3158C16.9211 17.3248 16.809 17.3607 16.7103 17.419L16.5667 17.4594M28.8852 35.5962C28.8852 34.7932 28.7374 33.9543 28.4323 33.0886C28.1318 32.2183 27.7012 31.3929 27.1494 30.5988L24.8122 27.2523L24.4039 26.6691L18.5946 18.3431C18.5946 18.3431 18.5811 18.3207 18.5721 18.3117C18.285 17.9125 17.9755 17.6254 17.6346 17.4549C17.5808 17.428 17.5269 17.4056 17.4776 17.3876C17.3205 17.3293 17.177 17.3024 17.038 17.3158C16.9258 17.3248 16.8137 17.3607 16.715 17.419L16.5714 17.4594L16.9796 17.253L19.2316 16.1271L19.429 16.4142L21.7887 19.8101L28.4548 29.3562C28.8899 29.9932 29.2802 30.6482 29.6167 31.3166C29.9531 31.9805 30.2312 32.6534 30.451 33.3353C30.5452 33.6942 30.6932 34.0082 30.8861 34.2729C31.079 34.5375 31.2944 34.7394 31.5367 34.8785C31.7071 34.9727 31.8552 35.0265 31.9897 35.0355C32.1243 35.04 32.2499 34.9951 32.371 34.9009L37.8619 32.1555H37.8574M27.6202 46.7126C26.7724 47.1971 25.745 47.0894 24.5383 46.3896L10.0441 38.0231C9.63135 37.7853 9.28588 37.4265 9.00775 36.9465C8.72962 36.4665 8.5906 35.9954 8.5906 35.5199C8.5906 35.0444 8.72962 34.7349 9.00775 34.5779L9.09308 34.5375M27.6202 46.7126L36.3277 42.3566L36.5924 42.2265C37.4358 41.7465 37.8574 40.8134 37.8574 39.4272V32.1555M9.09308 34.5375C9.35775 34.4298 9.67172 34.4792 10.0441 34.6945L15.84 38.041V36.3812L10.9951 33.582M9.09308 34.5375L10.9951 33.582M10.9951 33.582L7.14164 31.3569C6.73341 31.1192 6.38797 30.7648 6.10984 30.2848C5.83171 29.8048 5.69268 29.3293 5.69268 28.8582C5.69268 28.3872 5.83171 28.0732 6.10984 27.9117L6.19516 27.8713M6.19516 27.8713C6.45535 27.7636 6.77379 27.8175 7.14164 28.0328L15.84 33.0526V31.3883L15.6291 31.2672L8.09719 26.9158M6.19516 27.8713L8.09719 26.9158M8.09719 26.9158L5.69268 25.5296C5.28445 25.2919 4.93901 24.9375 4.66088 24.4575C4.38275 23.9775 4.24371 23.502 4.24371 23.0309C4.24371 22.5599 4.38275 22.2459 4.66088 22.0844L4.74609 22.044M4.74609 22.044C5.00627 21.9364 5.32483 21.9902 5.69268 22.2055L15.84 28.0642V26.3999L15.2478 26.059L8.5906 22.2145C8.18238 21.9767 7.83696 21.6179 7.55883 21.1423C7.48257 21.0078 7.41528 20.8732 7.35696 20.7386M4.74609 22.044L7.35696 20.7386M7.35696 20.7386C7.21341 20.3932 7.14164 20.0522 7.14164 19.7158C7.14164 19.2448 7.28067 18.9263 7.55883 18.7693L7.6441 18.7289M7.6441 18.7289C7.90878 18.6212 8.22275 18.6751 8.5906 18.8859L17.437 23.9909L16.7685 22.2594L16.2033 20.7879C15.9117 20.0388 15.7996 19.3524 15.8579 18.7379C15.8669 18.6302 15.8849 18.5315 15.9073 18.4373C15.9297 18.3251 15.9611 18.222 16.0014 18.1233M7.6441 18.7289L11.4885 16.8044M16.0014 18.1233C16.1226 17.8272 16.311 17.6074 16.5667 17.4594M16.0014 18.1233L14.0993 19.0744M16.5667 17.4594L16.9748 17.2531L19.2268 16.1271M41.1096 30.5271C41.1903 30.5136 41.2621 30.4733 41.3384 30.415M41.1096 30.5271L41.3384 30.415M41.1096 30.5271L37.8574 32.1555M41.3384 30.415L43.0788 28.7596C43.487 28.3559 43.7517 27.8041 43.8728 27.0953C43.9939 26.391 43.958 25.606 43.7651 24.7492L40.7236 11.2194C40.6025 10.7619 40.3961 10.3402 40.1045 9.94991C39.8174 9.55963 39.49 9.29047 39.1266 9.13795L38.9113 9.05271C38.355 8.84187 37.8839 8.85982 37.4981 9.11103L34.681 10.5196M37.8574 32.1555L32.3663 34.9009M32.3663 34.9009L34.1069 33.2456C34.5151 32.8418 34.7798 32.2901 34.9009 31.5813C35.022 30.877 34.9862 30.0919 34.7933 29.2351L31.7518 15.7054C31.6306 15.2478 31.4242 14.8261 31.1326 14.4358C30.8455 14.0456 30.5181 13.7764 30.1547 13.6239L29.9394 13.5386C29.7599 13.4714 29.5894 13.4265 29.4279 13.4086C29.1857 13.3772 28.9569 13.3996 28.755 13.4803M32.3663 34.9009C32.2451 34.9951 32.1196 35.04 31.985 35.0355C31.8505 35.0265 31.7024 34.9727 31.532 34.8785C31.2897 34.7394 31.0743 34.5375 30.8814 34.2729C30.6885 34.0082 30.5405 33.6942 30.4463 33.3353C30.2264 32.6534 29.9484 31.9805 29.6119 31.3166C29.2755 30.6482 28.8852 29.9932 28.45 29.3562L21.7839 19.8101L19.4243 16.4142L19.2268 16.1271M19.2268 16.1271L17.6164 13.8078M17.6164 13.8078L17.1274 13.108L14.1846 8.86874L14.1577 8.82837M17.6164 13.8078L16.8584 14.1891H16.854L16.329 14.4538L15.4766 14.88M14.1577 8.82837L13.7764 8.28108C13.4355 7.81005 13.2425 7.33902 13.1932 6.86351C13.1483 6.39248 13.2426 6.0336 13.4849 5.78687C13.5477 5.72407 13.6194 5.67024 13.6912 5.63435M14.1577 8.82837L12.2557 9.78393M13.6912 5.63435C13.7674 5.59398 13.8437 5.57155 13.929 5.56257H13.9379C14.086 5.54463 14.2474 5.57155 14.4268 5.64332C14.8126 5.79585 15.176 6.10986 15.5124 6.58089L16.3469 7.78314L19.2852 12.0269L19.7741 12.7312L21.3801 15.0504L21.5775 15.333L23.6321 18.2983L24.5023 17.428L22.6766 14.8037L22.6677 14.7902L22.4702 14.5076L20.8598 12.1884L20.5143 11.6949L18.702 9.08856C18.3656 8.61753 18.1681 8.14201 18.1053 7.66201C18.0649 7.348 18.092 7.08781 18.1862 6.868M13.6912 5.63435L22.5692 1.20221H22.5737C22.798 1.04071 23.0716 1.02725 23.399 1.15735C23.7848 1.30987 24.1482 1.62389 24.4846 2.09492L25.1845 3.10875L18.5719 6.42837M13.6912 5.63435L13.624 5.6658M18.1862 6.868C18.2355 6.75585 18.2983 6.65715 18.379 6.57192M18.1862 6.868L18.1864 6.86351C18.2357 6.75585 18.2983 6.65715 18.379 6.57192M18.379 6.57192C18.4284 6.52257 18.4821 6.47771 18.5449 6.44183L18.5719 6.42837M18.5719 6.42837C18.6436 6.39248 18.7154 6.37005 18.7962 6.36108H18.8052C18.9084 6.34314 19.0205 6.35659 19.1416 6.388C19.1999 6.40145 19.2583 6.42388 19.3211 6.4508C19.7069 6.61678 20.0702 6.93977 20.4067 7.4108L22.9951 11.1207L24.6145 13.4355L24.9016 13.8527L27.508 17.585L27.8355 14.9024C27.8579 14.7185 27.8893 14.5525 27.9432 14.4C28.0553 14.0366 28.2526 13.7719 28.5263 13.597L28.755 13.4803M18.5719 6.42837L25.1842 3.11322L27.4632 1.98724L27.5124 1.96032L27.6067 1.91098H27.6112C27.8041 1.83472 28.0329 1.85266 28.2931 1.96481C28.6789 2.13079 29.0422 2.45379 29.3787 2.92481L34.681 10.5196M28.755 13.4803L29.2889 13.2157L34.681 10.5196M14.0993 19.0744C13.8975 19.2852 13.6373 19.3525 13.3233 19.2672C13.2694 19.2583 13.2156 19.2403 13.1572 19.2179C12.7939 19.0699 12.4485 18.7872 12.1256 18.3521C12.1076 18.3297 12.0896 18.3028 12.0717 18.2758C11.7352 17.8048 11.5378 17.3338 11.493 16.8628M14.0993 19.0744C14.3416 18.8276 14.4313 18.4687 14.373 18.0022C14.3506 17.8542 14.3192 17.7016 14.2699 17.5491C14.1667 17.2351 14.0052 16.9166 13.7764 16.5981C13.5835 16.3334 13.3906 16.1181 13.1887 15.9521C13.0317 15.8175 12.8703 15.7188 12.7043 15.6471C12.5293 15.5753 12.3678 15.5439 12.2242 15.5618H12.2153C12.1345 15.5708 12.0583 15.5932 11.9865 15.6291M11.493 16.8628C11.493 16.8448 11.4885 16.8224 11.4885 16.8044M11.493 16.8628C11.493 16.8448 11.4885 16.8044 11.4885 16.8044M11.4885 16.8044C11.4526 16.3558 11.5469 16.0194 11.7801 15.7816C11.8429 15.7188 11.9102 15.665 11.9865 15.6291M11.9865 15.6291L13.9603 14.6378M15.4766 14.88C15.517 14.8441 15.5484 14.8037 15.5798 14.7589C15.7278 14.557 15.7951 14.2789 15.7861 13.9335C15.7861 13.8841 15.7816 13.8348 15.7727 13.7854C15.7278 13.3996 15.5484 12.9645 15.2254 12.489L14.0635 10.7798C13.727 10.3043 13.3637 9.9858 12.9779 9.81533C12.7895 9.73458 12.6235 9.70318 12.471 9.72561H12.462C12.3903 9.73458 12.3185 9.75253 12.2557 9.78393M15.4766 14.88C15.3286 15.0236 15.1402 15.0908 14.9204 15.0908H14.9159C14.8172 15.0908 14.7185 15.0729 14.6063 15.0415C14.4045 14.9877 14.2026 14.8665 13.9962 14.6736M13.9962 14.6736C13.9828 14.6647 13.9737 14.6512 13.9603 14.6378M13.9962 14.6736C13.9828 14.6647 13.9603 14.6378 13.9603 14.6378M13.9603 14.6378C13.8122 14.5032 13.6642 14.3282 13.5207 14.1219L12.3274 12.4351C11.9865 11.9641 11.7936 11.4886 11.7442 11.0176C11.6949 10.5465 11.7935 10.1877 12.0358 9.94094C12.0807 9.89159 12.13 9.85122 12.1839 9.81982L12.2557 9.78393M22.6139 1.17974L22.5736 1.19768" stroke="#27272A" stroke-opacity="0.25" stroke-linecap="round" stroke-linejoin="round"/>
      </svg>