<svg xmlns="http://www.w3.org/2000/svg" viewBox="0 0 48 48">
        <path d="M33.9363 19.1074C33.9363 19.4331 33.7263 19.716 33.2978 19.9646C32.8692 20.2131 32.3721 20.3375 31.8107 20.3332C31.2492 20.3332 30.7564 20.2089 30.3235 19.9603L24.8549 16.8018L22.8792 17.9417L24.8549 19.0818L27.8507 20.8132C28.4121 21.1389 28.6949 21.5203 28.6992 21.9574V21.966C28.6992 22.4031 28.4207 22.7846 27.8635 23.1018L27.3534 23.3931L24.8977 24.8117C24.8977 24.8117 24.8678 24.8289 24.8549 24.8332C24.3064 25.146 23.6635 25.296 22.9178 25.296C22.1721 25.296 21.4991 25.1331 20.9334 24.8074L20.402 24.5032L19.0607 23.7231L16.1249 22.026L14.4749 21.0746C14.0421 20.826 13.8278 20.5389 13.8235 20.2175C13.8235 19.896 14.0335 19.6089 14.4535 19.3646C14.4535 19.3646 14.4535 19.3646 14.4621 19.3646C14.7064 19.2232 14.9763 19.1203 15.2678 19.0603C15.482 19.0174 15.7092 18.996 15.9492 18.996C16.5106 18.996 17.0078 19.1203 17.4363 19.3689L19.0607 20.3074L20.3249 21.036L22.9049 22.5275L24.8549 21.396L24.8807 21.3831L24.8549 21.3703L20.7149 18.9789L19.9092 18.516C19.3478 18.1903 19.0649 17.8089 19.0607 17.3675C19.0607 16.9303 19.3392 16.5489 19.8963 16.2274L20.7149 15.756L22.862 14.5131C23.4191 14.1917 24.0792 14.0289 24.842 14.0331C25.6006 14.0331 26.2606 14.196 26.8263 14.5217L33.2892 18.2546C33.7177 18.5031 33.9363 18.7903 33.9363 19.1117V19.1074Z" fill="white"/>
<path d="M28.6992 21.966V26.4574C28.2063 26.4745 27.7692 26.5988 27.3878 26.8217C27.3835 26.826 27.3792 26.826 27.3749 26.8302C26.9549 27.0702 26.7449 27.3574 26.7492 27.6788V32.316L24.8977 33.3831C24.3406 33.7089 23.6807 33.8674 22.9178 33.8674C22.1549 33.8674 21.4991 33.7046 20.9334 33.3789L14.4749 29.646C14.0421 29.3974 13.8278 29.1103 13.8235 28.7889V20.2175C13.8278 20.5389 14.0421 20.826 14.4749 21.0746L16.1249 22.026L19.0607 23.7231L20.402 24.5032L20.9334 24.8074C21.4991 25.1331 22.1592 25.296 22.9178 25.296C23.6764 25.296 24.3064 25.146 24.8549 24.8332C24.8678 24.8289 24.8849 24.8203 24.8977 24.8117L27.3534 23.3931L27.8635 23.1018C28.4207 22.7846 28.6992 22.4031 28.6992 21.966Z" fill="white"/>
<path d="M46.8621 26.5689C46.8621 26.8947 46.6478 27.1818 46.2193 27.4261C45.7907 27.6747 45.2978 27.7989 44.7364 27.7947C44.175 27.7947 43.6778 27.6704 43.2493 27.4218L37.7806 24.2632L35.8049 25.4075L37.7806 26.5476L40.7763 28.2747C41.3377 28.6004 41.6206 28.9818 41.6249 29.4232C41.6249 29.8604 41.3463 30.2418 40.7849 30.5633L40.2792 30.8547L37.8235 32.2733C37.8235 32.2733 37.7934 32.2904 37.7806 32.2947C37.2277 32.6075 36.5849 32.7576 35.8434 32.7576C35.102 32.7576 34.4206 32.5947 33.8592 32.2689L33.3278 31.9647L28.6991 29.2904L27.3963 28.5361C26.9677 28.2875 26.7492 28.0002 26.7492 27.6788C26.7449 27.3574 26.9549 27.0702 27.3749 26.8302C27.3792 26.826 27.3835 26.826 27.3878 26.8217C27.7692 26.5988 28.2063 26.4745 28.6992 26.4574C28.7549 26.4531 28.8149 26.4532 28.8706 26.4532C29.432 26.4532 29.9291 26.5775 30.362 26.8261L31.9863 27.7647L33.3106 28.5276L35.8305 29.9847L37.7806 28.8533L37.8063 28.8404L37.7806 28.8275L33.9363 26.6075L32.8349 25.9732C32.2691 25.6475 31.9863 25.2661 31.9863 24.8247C31.982 24.3875 32.2605 24.0061 32.822 23.6847L33.9363 23.0375L35.7835 21.9704C36.3449 21.6489 37.0049 21.4904 37.7634 21.4904C38.522 21.4904 39.1863 21.6532 39.7478 21.9789L46.2107 25.7118C46.6436 25.9604 46.8578 26.2475 46.8621 26.5689Z" fill="white"/>
<path d="M37.7806 24.2632V26.5476L35.8049 25.4075L37.7806 24.2632Z" fill="white"/>
<path d="M46.8621 26.5689L46.8621 35.1403C46.8621 35.466 46.6478 35.7531 46.2193 35.9974C45.7907 36.246 45.2978 36.3702 44.7364 36.366C44.175 36.366 43.6778 36.2417 43.2493 35.9931L41.6249 35.0546L41.6249 29.4232C41.6206 28.9818 41.3377 28.6004 40.7763 28.2747L37.7806 26.5476V24.2632L43.2493 27.4218C43.6778 27.6704 44.175 27.7947 44.7364 27.7947C45.2978 27.7989 45.7907 27.6747 46.2193 27.4261C46.6478 27.1818 46.8621 26.8947 46.8621 26.5689Z" fill="white"/>
<path d="M41.6249 29.4232L41.625 37.9946C41.625 38.4318 41.3464 38.8133 40.785 39.1347L37.8236 40.8447C37.2622 41.1704 36.6021 41.329 35.8436 41.329C35.085 41.329 34.4207 41.1661 33.8593 40.8404L27.3964 37.1075C26.9678 36.8589 26.7493 36.5718 26.7493 36.2504L26.7492 27.6788C26.7492 28.0002 26.9677 28.2875 27.3963 28.5361L28.6991 29.2904L33.3278 31.9647L33.8592 32.2689C34.4206 32.5947 35.0849 32.7576 35.8434 32.7576C36.602 32.7576 37.2277 32.6075 37.7806 32.2947C37.7934 32.2904 37.8106 32.2818 37.8235 32.2733L40.2792 30.8547L40.7849 30.5633C41.3463 30.2418 41.6249 29.8604 41.6249 29.4232Z" fill="white"/>
<path d="M37.7806 28.8275V28.8533L35.8305 29.9847L33.3106 28.5276L31.9863 27.7647V24.8247C31.9863 25.2661 32.2691 25.6475 32.8349 25.9732L33.9363 26.6075L37.7806 28.8275Z" fill="white"/>
<path d="M24.8549 16.8018V19.0818L22.8792 17.9417L24.8549 16.8018Z" fill="white"/>
<path d="M33.9363 19.1074L33.9363 23.0375L32.822 23.6847C32.2605 24.0061 31.982 24.3875 31.9863 24.8247V27.7647L30.362 26.8261C29.9291 26.5775 29.432 26.4532 28.8706 26.4532C28.8149 26.4532 28.7549 26.4531 28.6992 26.4574V21.9574C28.6949 21.5203 28.4121 21.1389 27.8507 20.8132L24.8549 19.0818V16.8018L30.3235 19.9603C30.7564 20.2089 31.2492 20.3332 31.8107 20.3332C32.3721 20.3375 32.8692 20.2131 33.2978 19.9646C33.7263 19.716 33.9363 19.4331 33.9363 19.1074Z" fill="white"/>
<path d="M24.8548 21.366V21.3918L22.9048 22.5232L20.3248 21.0318L19.0605 20.3032V17.3632C19.0605 17.8046 19.3477 18.186 19.9091 18.5118L20.7148 18.9746L24.8548 21.366Z" fill="white"/>
<path d="M20.715 11.6546V15.7517L19.8964 16.2231C19.3393 16.5445 19.0605 16.926 19.0605 17.3632V20.3032L17.4365 19.3646C17.0079 19.116 16.5107 18.9917 15.9493 18.9917C15.7093 18.9917 15.4821 19.0131 15.2678 19.056V12.4946C15.2721 12.8203 15.4864 13.1031 15.9193 13.3517C16.3136 13.5831 16.8022 13.7031 17.3808 13.716C17.9594 13.7246 18.4479 13.6174 18.8422 13.386L19.8793 12.7902C20.4364 12.4688 20.715 12.0874 20.715 11.6546Z" fill="white"/>
<path d="M13.5535 15.9232V24.4946C13.5535 24.8375 13.3564 25.1246 12.9621 25.3518L11.9763 25.9218C11.4149 26.2475 10.7549 26.406 9.99628 26.406C9.23771 26.406 8.57347 26.2432 8.01204 25.9175L2.04637 22.4718C1.48494 22.146 1.20209 21.7646 1.1978 21.3275V12.756C1.1978 13.1932 1.48494 13.5746 2.04637 13.9003L7.48061 17.0375L8.01204 17.346C8.57347 17.6718 9.23771 17.8346 9.99628 17.8346C10.7549 17.8346 11.3806 17.6846 11.9334 17.3718C11.9463 17.3675 11.9635 17.3589 11.9763 17.3503L12.9621 16.7803C13.3564 16.5532 13.5535 16.266 13.5535 15.9232Z" fill="white"/>
<path d="M20.7149 11.646L20.715 11.6546C20.715 12.0874 20.4364 12.4688 19.8793 12.7902L18.8422 13.386C18.4479 13.6174 17.9594 13.7246 17.3808 13.716C16.8022 13.7031 16.3136 13.5831 15.9193 13.3517C15.4864 13.1031 15.2721 12.8203 15.2678 12.4946C15.2678 12.1689 15.4821 11.886 15.9107 11.6375L11.9335 9.34031L6.00641 12.7646L9.97927 15.0617C10.3778 14.8303 10.8621 14.7146 11.4407 14.706C11.6121 14.7018 11.7792 14.7103 11.9335 14.7317C12.3106 14.7789 12.6493 14.8903 12.9536 15.066C13.1164 15.156 13.2449 15.2589 13.3392 15.3703C13.4807 15.5331 13.5535 15.7175 13.5535 15.9232C13.5535 16.266 13.3564 16.5532 12.9621 16.7803L11.9763 17.3503C11.9763 17.3503 11.9463 17.3675 11.9334 17.3718C11.3806 17.6846 10.7377 17.8346 9.99628 17.8346C9.25485 17.8346 8.57347 17.6718 8.01204 17.346L7.48061 17.0375L2.04637 13.9003C1.48494 13.5746 1.20209 13.1932 1.1978 12.756C1.19352 12.3146 1.47212 11.9374 2.03355 11.6117L9.93637 7.04746C10.4978 6.72603 11.1578 6.56318 11.9164 6.56747C12.675 6.56747 13.3392 6.73028 13.9007 7.05599L19.8664 10.5017C20.4278 10.8274 20.7106 11.2089 20.7149 11.646Z" fill="white"/>
<path d="M11.9335 9.34031V14.7317C11.7792 14.7103 11.6121 14.7018 11.4407 14.706C10.8621 14.7146 10.3778 14.8303 9.97927 15.0617L6.00641 12.7646L11.9335 9.34031Z" fill="white"/>
<path d="M15.9107 11.6375C15.4821 11.886 15.2678 12.1689 15.2678 12.4946V19.056C14.9764 19.116 14.7064 19.2189 14.4621 19.3603C14.4578 19.3603 14.4578 19.3603 14.4535 19.3603L13.5535 18.8417V15.9189C13.5535 15.7132 13.4806 15.5289 13.3392 15.366C13.2449 15.2546 13.1164 15.1518 12.9535 15.0618C12.6492 14.886 12.3106 14.7746 11.9334 14.7275V9.33604L15.9106 11.6332L15.9107 11.6375Z" fill="white"/>
<path d="M33.9363 19.1074C33.9363 19.4331 33.7263 19.716 33.2978 19.9646C32.8692 20.2131 32.3721 20.3375 31.8107 20.3332C31.2492 20.3332 30.7564 20.2089 30.3235 19.9603L24.8549 16.8018M33.9363 19.1074V19.1117C33.9363 18.7903 33.7177 18.5031 33.2892 18.2546L26.8263 14.5217C26.2606 14.196 25.6006 14.0331 24.842 14.0331C24.0792 14.0289 23.4191 14.1917 22.862 14.5131L20.7149 15.756L19.8963 16.2274C19.3392 16.5489 19.0607 16.9303 19.0607 17.3675C19.0649 17.8089 19.3478 18.1903 19.9092 18.516L20.7149 18.9789L24.8549 21.3703L24.8807 21.3831L24.8549 21.396L22.9049 22.5275L20.3249 21.036L19.0607 20.3074L17.4363 19.3689C17.0078 19.1203 16.5106 18.996 15.9492 18.996C15.7092 18.996 15.482 19.0174 15.2678 19.0603C14.9763 19.1203 14.7064 19.2232 14.4621 19.3646C14.4535 19.3646 14.4535 19.3646 14.4535 19.3646C14.0335 19.6089 13.8235 19.896 13.8235 20.2175M33.9363 19.1074L33.9363 23.0375M24.8549 16.8018L22.8792 17.9417L24.8549 19.0818M24.8549 16.8018V19.0818M24.8549 19.0818L27.8507 20.8132C28.4121 21.1389 28.6949 21.5203 28.6992 21.9574M28.6992 21.9574V21.966M28.6992 21.9574V26.4574M28.6992 21.966C28.6992 22.4031 28.4207 22.7846 27.8635 23.1018L27.3534 23.3931L24.8977 24.8117M28.6992 21.966V26.4574M24.8977 24.8117C24.8977 24.8117 24.8678 24.8289 24.8549 24.8332M24.8977 24.8117C24.8849 24.8203 24.8678 24.8289 24.8549 24.8332M24.8549 24.8332C24.3064 25.146 23.6635 25.296 22.9178 25.296M24.8549 24.8332C24.3064 25.146 23.6764 25.296 22.9178 25.296M22.9178 25.296C22.1721 25.296 21.4991 25.1331 20.9334 24.8074M22.9178 25.296C22.1592 25.296 21.4991 25.1331 20.9334 24.8074M20.9334 24.8074L20.402 24.5032L19.0607 23.7231L16.1249 22.026L14.4749 21.0746C14.0421 20.826 13.8278 20.5389 13.8235 20.2175M13.8235 20.2175V28.7889C13.8278 29.1103 14.0421 29.3974 14.4749 29.646L20.9334 33.3789C21.4991 33.7046 22.1549 33.8674 22.9178 33.8674C23.6807 33.8674 24.3406 33.7089 24.8977 33.3831L26.7492 32.316V27.6788M28.6992 26.4574C28.2063 26.4745 27.7692 26.5988 27.3878 26.8217C27.3835 26.826 27.3792 26.826 27.3749 26.8302C26.9549 27.0702 26.7449 27.3574 26.7492 27.6788M28.6992 26.4574C28.7549 26.4531 28.8149 26.4532 28.8706 26.4532C29.432 26.4532 29.9291 26.5775 30.362 26.8261L31.9863 27.7647M26.7492 27.6788C26.7492 28.0002 26.9677 28.2875 27.3963 28.5361L28.6991 29.2904L33.3278 31.9647L33.8592 32.2689M26.7492 27.6788L26.7493 36.2504C26.7493 36.5718 26.9678 36.8589 27.3964 37.1075L33.8593 40.8404C34.4207 41.1661 35.085 41.329 35.8436 41.329C36.6021 41.329 37.2622 41.1704 37.8236 40.8447L40.785 39.1347C41.3464 38.8133 41.625 38.4318 41.625 37.9946L41.6249 29.4232M46.8621 26.5689C46.8621 26.8947 46.6478 27.1818 46.2193 27.4261C45.7907 27.6747 45.2978 27.7989 44.7364 27.7947C44.175 27.7947 43.6778 27.6704 43.2493 27.4218L37.7806 24.2632M46.8621 26.5689C46.8578 26.2475 46.6436 25.9604 46.2107 25.7118L39.7478 21.9789C39.1863 21.6532 38.522 21.4904 37.7634 21.4904C37.0049 21.4904 36.3449 21.6489 35.7835 21.9704L33.9363 23.0375M46.8621 26.5689L46.8621 35.1403C46.8621 35.466 46.6478 35.7531 46.2193 35.9974C45.7907 36.246 45.2978 36.3702 44.7364 36.366C44.175 36.366 43.6778 36.2417 43.2493 35.9931L41.6249 35.0546L41.6249 29.4232M37.7806 24.2632L35.8049 25.4075L37.7806 26.5476M37.7806 24.2632V26.5476M37.7806 26.5476L40.7763 28.2747C41.3377 28.6004 41.6206 28.9818 41.6249 29.4232M41.6249 29.4232C41.6249 29.8604 41.3463 30.2418 40.7849 30.5633L40.2792 30.8547L37.8235 32.2733M37.8235 32.2733C37.8235 32.2733 37.7934 32.2904 37.7806 32.2947M37.8235 32.2733C37.8106 32.2818 37.7934 32.2904 37.7806 32.2947M37.7806 32.2947C37.2277 32.6075 36.5849 32.7576 35.8434 32.7576M37.7806 32.2947C37.2277 32.6075 36.602 32.7576 35.8434 32.7576M35.8434 32.7576C35.102 32.7576 34.4206 32.5947 33.8592 32.2689M35.8434 32.7576C35.0849 32.7576 34.4206 32.5947 33.8592 32.2689M31.9863 27.7647L33.3106 28.5276L35.8305 29.9847L37.7806 28.8533M31.9863 27.7647V24.8247M37.7806 28.8533L37.8063 28.8404L37.7806 28.8275M37.7806 28.8533V28.8275M37.7806 28.8275L33.9363 26.6075L32.8349 25.9732C32.2691 25.6475 31.9863 25.2661 31.9863 24.8247M31.9863 24.8247C31.982 24.3875 32.2605 24.0061 32.822 23.6847L33.9363 23.0375M19.0605 20.3032L20.3248 21.0318L22.9048 22.5232L24.8548 21.3918V21.366L20.7148 18.9746L19.9091 18.5118C19.3477 18.186 19.0605 17.8046 19.0605 17.3632M19.0605 20.3032V17.3632M19.0605 20.3032L17.4365 19.3646C17.0079 19.116 16.5107 18.9917 15.9493 18.9917C15.7093 18.9917 15.4821 19.0131 15.2678 19.056M19.0605 17.3632C19.0605 16.926 19.3393 16.5445 19.8964 16.2231L20.715 15.7517V11.6546M20.715 11.6546C20.715 12.0874 20.4364 12.4688 19.8793 12.7902L18.8422 13.386C18.4479 13.6174 17.9594 13.7246 17.3808 13.716C16.8022 13.7031 16.3136 13.5831 15.9193 13.3517C15.4864 13.1031 15.2721 12.8203 15.2678 12.4946M20.715 11.6546L20.7149 11.646C20.7106 11.2089 20.4278 10.8274 19.8664 10.5017L13.9007 7.05599C13.3392 6.73028 12.675 6.56747 11.9164 6.56747C11.1578 6.56318 10.4978 6.72603 9.93637 7.04746L2.03355 11.6117C1.47212 11.9374 1.19352 12.3146 1.1978 12.756M15.2678 19.056V12.4946M15.2678 19.056C14.9764 19.116 14.7064 19.2189 14.4621 19.3603C14.4578 19.3603 14.4578 19.3603 14.4535 19.3603L13.5535 18.8417V15.9189C13.5535 15.7132 13.4806 15.5289 13.3392 15.366C13.2449 15.2546 13.1164 15.1518 12.9535 15.0618C12.6492 14.886 12.3106 14.7746 11.9334 14.7275V9.33604L15.9106 11.6332L15.9107 11.6375M15.2678 12.4946C15.2678 12.1689 15.4821 11.886 15.9107 11.6375M13.5535 15.9232V24.4946C13.5535 24.8375 13.3564 25.1246 12.9621 25.3518L11.9763 25.9218C11.4149 26.2475 10.7549 26.406 9.99628 26.406C9.23771 26.406 8.57347 26.2432 8.01204 25.9175L2.04637 22.4718C1.48494 22.146 1.20209 21.7646 1.1978 21.3275V12.756M13.5535 15.9232C13.5535 16.266 13.3564 16.5532 12.9621 16.7803L11.9763 17.3503M13.5535 15.9232C13.5535 15.7175 13.4807 15.5331 13.3392 15.3703C13.2449 15.2589 13.1164 15.156 12.9536 15.066C12.6493 14.8903 12.3106 14.7789 11.9335 14.7317M1.1978 12.756C1.1978 13.1932 1.48494 13.5746 2.04637 13.9003M1.1978 12.756C1.20209 13.1932 1.48494 13.5746 2.04637 13.9003M2.04637 13.9003L7.48061 17.0375L8.01204 17.346M8.01204 17.346C8.57347 17.6718 9.23771 17.8346 9.99628 17.8346M8.01204 17.346C8.57347 17.6718 9.25485 17.8346 9.99628 17.8346M9.99628 17.8346C10.7549 17.8346 11.3806 17.6846 11.9334 17.3718M9.99628 17.8346C10.7377 17.8346 11.3806 17.6846 11.9334 17.3718M11.9334 17.3718C11.9463 17.3675 11.9635 17.3589 11.9763 17.3503M11.9334 17.3718C11.9463 17.3675 11.9763 17.3503 11.9763 17.3503M15.9107 11.6375L11.9335 9.34031M11.9335 9.34031L6.00641 12.7646L9.97927 15.0617C10.3778 14.8303 10.8621 14.7146 11.4407 14.706C11.6121 14.7018 11.7792 14.7103 11.9335 14.7317M11.9335 9.34031V14.7317" stroke="#27272A" stroke-opacity="0.25" stroke-linecap="round" stroke-linejoin="round"/>
      </svg>