<svg xmlns="http://www.w3.org/2000/svg" viewBox="0 0 48 48">
        <path d="M28.4593 25.4405C28.4714 25.8923 28.3665 26.2352 28.1406 26.4651C28.0761 26.5377 27.9994 26.5942 27.9147 26.6426L21.11 30.5229C20.9245 30.6318 20.7188 30.6641 20.4969 30.6278C20.2791 30.5915 20.0411 30.5027 19.787 30.3535C19.5369 30.2083 19.2989 30.0268 19.0811 29.8089C18.8593 29.5911 18.6535 29.3209 18.468 28.9942L16.2495 25.1663L12.7362 19.1118L12.0384 17.9058L11.6633 17.2604C11.2841 16.6069 11.1026 15.9979 11.1188 15.4291C11.1349 14.8604 11.3164 14.457 11.6633 14.2231L11.7883 14.1626C12.1352 14.0173 12.5467 14.0738 13.0105 14.3239C13.5268 14.6063 13.9786 15.0742 14.3537 15.7236L17.8993 21.8385V6.32928C17.8993 5.71617 18.0808 5.30474 18.4438 5.09903C18.8028 4.89331 19.2546 4.94575 19.787 5.25231C20.3235 5.56289 20.7752 6.03079 21.1342 6.656C21.4972 7.27718 21.6788 7.89836 21.6788 8.51147V24.0207L24.9177 22.1733L25.2243 21.9999L25.3413 21.9434C25.6922 21.7942 26.0996 21.8668 26.5675 22.1531C27.0878 22.4718 27.5356 22.9558 27.9147 23.6093C28.2616 24.2426 28.4431 24.8516 28.4593 25.4405Z" fill="white"/>
<path d="M36.5265 21.4069C36.5426 21.9918 36.3611 22.3952 35.9819 22.6089L29.1772 26.4893L23.744 29.2039L21.11 30.5229L27.9147 26.6426C27.9994 26.5942 28.0761 26.5377 28.1406 26.4651C28.3665 26.2352 28.4714 25.8923 28.4593 25.4405C28.4431 24.8516 28.2616 24.2426 27.9147 23.6093C27.5356 22.9558 27.0878 22.4718 26.5675 22.1531C26.0996 21.8668 25.6922 21.7942 25.3413 21.9434L29.746 19.741L33.2915 17.9663C33.6667 17.7484 34.1144 17.8009 34.6347 18.1195C35.1551 18.4382 35.6028 18.9222 35.9819 19.5757C36.3288 20.2089 36.5104 20.818 36.5265 21.4069Z" fill="white"/>
<path d="M34.2798 35.2866L31.783 36.537L31.67 36.5934C31.3151 36.7992 31.1335 37.2025 31.1295 37.8076V42.1598L8.4485 29.0667L16.2495 25.1663L18.468 28.9942C18.6535 29.3209 18.8593 29.5911 19.0811 29.8089C19.2989 30.0268 19.5369 30.2083 19.787 30.3535C20.0411 30.5027 20.2791 30.5915 20.4969 30.6278C20.7188 30.6641 20.9245 30.6278 21.11 30.5229L23.744 29.2039L34.2798 35.2866Z" fill="white"/>
<path d="M34.909 39.9898V44.342C34.909 45.5359 34.5379 46.3426 33.7957 46.7662C33.0576 47.1857 32.1661 47.0969 31.1295 46.5L8.4485 33.4029C7.41186 32.8059 6.52043 31.8661 5.77825 30.5874C5.0401 29.3128 4.66901 28.0785 4.66901 26.8846V22.5484C4.66901 21.9353 4.85052 21.5239 5.21354 21.3182L5.32649 21.2617C5.66531 21.1205 6.07674 21.1931 6.56077 21.4715C7.09724 21.778 7.54498 22.2459 7.908 22.8711C8.26699 23.4963 8.4485 24.1175 8.4485 24.7306L8.4485 29.0667L31.1295 42.1598V37.8076C31.1335 37.2025 31.3151 36.7992 31.67 36.5934L31.783 36.537C32.1218 36.3958 32.5332 36.4684 33.0172 36.7468C33.5537 37.0533 34.0014 37.5212 34.3645 38.1464C34.7235 38.7676 34.905 39.3807 34.909 39.9898Z" fill="white"/>
<path d="M29.746 4.47785L29.746 19.741L25.3413 21.9434L25.2243 21.9999L24.9177 22.1733L21.6788 24.0207V8.51147C21.6788 7.89836 21.4972 7.27718 21.1342 6.656C20.7752 6.03079 20.3235 5.56289 19.787 5.25231C19.2546 4.94575 18.8028 4.89331 18.4438 5.09903L26.511 1.0654C26.5352 1.04927 26.5635 1.03717 26.5917 1.02507C26.9346 0.867756 27.3581 0.932294 27.8542 1.21868C28.3907 1.52927 28.8425 1.99717 29.2014 2.62238C29.5645 3.24355 29.746 3.86473 29.746 4.47785Z" fill="white"/>
<path d="M17.8993 11.1051V21.8385L14.3537 15.7236C13.9786 15.0742 13.5268 14.6063 13.0105 14.3239C12.5467 14.0738 12.1352 14.0173 11.7883 14.1626L17.8993 11.1051Z" fill="white"/>
<path d="M16.2495 25.1663L8.4485 29.0667L8.4485 24.7306C8.4485 24.1175 8.26699 23.4963 7.908 22.8711C7.54498 22.2459 7.09724 21.778 6.56077 21.4715C6.07674 21.1931 5.66531 21.1205 5.32649 21.2617L12.0384 17.9058L12.7362 19.1118L16.2495 25.1663Z" fill="white"/>
<path d="M42.9762 35.9723V40.3084C42.9762 41.5023 42.6051 42.309 41.863 42.7326L41.7056 42.8092L33.7957 46.7662C34.5379 46.3426 34.909 45.5359 34.909 44.342V39.9898C34.905 39.3807 34.7235 38.7676 34.3645 38.1464C34.0014 37.5212 33.5537 37.0533 33.0172 36.7468C32.5332 36.4684 32.1218 36.3958 31.783 36.537L34.2798 35.2866L39.7372 32.5598C40.1003 32.3501 40.548 32.4025 41.0845 32.7131C41.6209 33.0197 42.0687 33.4876 42.4317 34.1128C42.7947 34.738 42.9762 35.3592 42.9762 35.9723Z" fill="white"/>
<path d="M21.11 30.5229C20.9245 30.6318 20.7188 30.6641 20.4969 30.6278M21.11 30.5229L23.744 29.2039M21.11 30.5229C20.9245 30.6278 20.7188 30.6641 20.4969 30.6278M21.11 30.5229L27.9147 26.6426C27.9994 26.5942 28.0761 26.5377 28.1406 26.4651C28.3665 26.2352 28.4714 25.8923 28.4593 25.4405C28.4431 24.8516 28.2616 24.2426 27.9147 23.6093C27.5356 22.9558 27.0878 22.4718 26.5675 22.1531C26.0996 21.8668 25.6922 21.7942 25.3413 21.9434M20.4969 30.6278C20.2791 30.5915 20.0411 30.5027 19.787 30.3535C19.5369 30.2083 19.2989 30.0268 19.0811 29.8089C18.8593 29.5911 18.6535 29.3209 18.468 28.9942L16.2495 25.1663M16.2495 25.1663L12.7362 19.1118L12.0384 17.9058M16.2495 25.1663L8.4485 29.0667M12.0384 17.9058L11.6633 17.2604C11.2841 16.6069 11.1026 15.9979 11.1188 15.4291C11.1349 14.8604 11.3164 14.457 11.6633 14.2231L11.7883 14.1626M12.0384 17.9058L5.32649 21.2617M11.7883 14.1626C12.1352 14.0173 12.5467 14.0738 13.0105 14.3239C13.5268 14.6063 13.9786 15.0742 14.3537 15.7236L17.8993 21.8385M11.7883 14.1626L17.8993 11.1051V21.8385M17.8993 21.8385V6.32928C17.8993 5.71617 18.0808 5.30474 18.4438 5.09903M18.4438 5.09903C18.8028 4.89331 19.2546 4.94575 19.787 5.25231C20.3235 5.56289 20.7752 6.03079 21.1342 6.656C21.4972 7.27718 21.6788 7.89836 21.6788 8.51147V24.0207L24.9177 22.1733L25.2243 21.9999L25.3413 21.9434M18.4438 5.09903L26.511 1.0654C26.5352 1.04927 26.5635 1.03717 26.5917 1.02507C26.9346 0.867756 27.3581 0.932294 27.8542 1.21868C28.3907 1.52927 28.8425 1.99717 29.2014 2.62238C29.5645 3.24355 29.746 3.86473 29.746 4.47785L29.746 19.741M25.3413 21.9434L29.746 19.741M23.744 29.2039L34.2798 35.2866M23.744 29.2039L29.1772 26.4893L35.9819 22.6089C36.3611 22.3952 36.5426 21.9918 36.5265 21.4069C36.5104 20.818 36.3288 20.2089 35.9819 19.5757C35.6028 18.9222 35.1551 18.4382 34.6347 18.1195C34.1144 17.8009 33.6667 17.7484 33.2915 17.9663L29.746 19.741M34.2798 35.2866L31.783 36.537M34.2798 35.2866L39.7372 32.5598C40.1003 32.3501 40.548 32.4025 41.0845 32.7131C41.6209 33.0197 42.0687 33.4876 42.4317 34.1128C42.7947 34.738 42.9762 35.3592 42.9762 35.9723V40.3084C42.9762 41.5023 42.6051 42.309 41.863 42.7326L41.7056 42.8092L33.7957 46.7662M31.783 36.537L31.67 36.5934C31.3151 36.7992 31.1335 37.2025 31.1295 37.8076V42.1598L8.4485 29.0667M31.783 36.537C32.1218 36.3958 32.5332 36.4684 33.0172 36.7468C33.5537 37.0533 34.0014 37.5212 34.3645 38.1464C34.7235 38.7676 34.905 39.3807 34.909 39.9898V44.342C34.909 45.5359 34.5379 46.3426 33.7957 46.7662M8.4485 29.0667L8.4485 24.7306C8.4485 24.1175 8.26699 23.4963 7.908 22.8711C7.54498 22.2459 7.09724 21.778 6.56077 21.4715C6.07674 21.1931 5.66531 21.1205 5.32649 21.2617M33.7957 46.7662C33.0576 47.1857 32.1661 47.0969 31.1295 46.5L8.4485 33.4029C7.41186 32.8059 6.52043 31.8661 5.77825 30.5874C5.0401 29.3128 4.66901 28.0785 4.66901 26.8846V22.5484C4.66901 21.9353 4.85052 21.5239 5.21354 21.3182L5.32649 21.2617" stroke="#27272A" stroke-opacity="0.25" stroke-linecap="round" stroke-linejoin="round"/>
      </svg>