<svg xmlns="http://www.w3.org/2000/svg" viewBox="0 0 48 48">
        <path d="M32.0452 19.7305C31.9742 19.5802 31.8949 19.4341 31.8073 19.2838C31.2522 18.3239 30.5843 17.6185 29.8038 17.1677L9.93599 5.69776C9.15546 5.24698 8.48762 5.1802 7.93249 5.49742C7.37736 5.81463 7.09772 6.41985 7.09772 7.31724V30.111C7.09772 31.0084 7.37736 31.935 7.93249 32.895C8.48762 33.8508 9.15546 34.5562 9.93599 35.007L29.8038 46.4769C30.5843 46.9277 31.2522 46.9945 31.8073 46.6772C32.3624 46.36 32.6421 45.7548 32.6421 44.8574V22.0637C32.6421 21.3082 32.4417 20.5277 32.0452 19.7305ZM26.8946 26.6425L26.2894 26.9889L18.9099 31.1962L18.8765 31.2129C18.5927 31.3757 18.2629 31.3465 17.8831 31.1294C17.5033 30.9082 17.1736 30.5576 16.8897 30.0651L12.8452 23.0905C12.5864 22.6438 12.457 22.1889 12.457 21.7256C12.457 21.2623 12.5864 20.9576 12.8452 20.8115C13.1082 20.6612 13.4379 20.703 13.8386 20.9367C14.2435 21.1705 14.5732 21.5085 14.832 21.9593L17.8831 27.2185L23.9896 23.7374L24.9078 23.2157C25.1374 23.0821 25.4296 23.0988 25.7718 23.2741C25.8136 23.2908 25.8595 23.3158 25.9012 23.3409C26.3019 23.5746 26.6358 23.9127 26.8946 24.3635C27.1533 24.8101 27.2828 25.2651 27.2828 25.7284C27.2828 26.1917 27.1533 26.4922 26.8946 26.6425Z" fill="white"/>
<path d="M25.7718 23.2741L24.1816 24.0713L17.8831 27.2185L23.9896 23.7374L24.9078 23.2157C25.1374 23.0821 25.4296 23.0988 25.7718 23.2741Z" fill="white"/>
<path d="M27.2786 25.7284C27.2786 26.1875 27.1492 26.4922 26.8905 26.6425L26.2852 26.9889L18.9058 31.1962L18.8724 31.2129C18.5885 31.3757 18.2588 31.3465 17.879 31.1294C17.4992 30.9082 17.1694 30.5576 16.8856 30.0651L12.8411 23.0905C12.5823 22.6439 12.4529 22.1889 12.4529 21.7256C12.4529 21.2623 12.5823 20.9576 12.8411 20.8115C13.104 20.6612 13.4338 20.703 13.8345 20.9367C14.2393 21.1705 14.5691 21.5085 14.8279 21.9593L17.879 27.2185L24.1774 24.0713L25.7677 23.2741C25.8094 23.2908 25.8553 23.3158 25.8971 23.3409C26.2978 23.5746 26.6317 23.9127 26.8905 24.3635C27.1492 24.8101 27.2786 25.2651 27.2786 25.7284Z" fill="white"/>
<path d="M40.9899 17.8898V40.6835C40.9899 41.5809 40.7102 42.1861 40.1551 42.5033L31.8073 46.6772C32.3624 46.36 32.6421 45.7548 32.6421 44.8574V22.0637C32.6421 21.3082 32.4417 20.5277 32.0452 19.7305C31.9742 19.5802 31.8949 19.4341 31.8073 19.2838C31.2522 18.3239 30.5843 17.6185 29.8038 17.1677L9.93599 5.69776C9.15546 5.24698 8.48762 5.1802 7.93249 5.49742L16.2803 1.32349C16.8355 1.00627 17.5033 1.07306 18.2838 1.52384L38.1516 12.9938C38.9322 13.4445 39.6 14.1499 40.1551 15.1099C40.7102 16.0658 40.9899 16.9924 40.9899 17.8898Z" fill="white"/>
<path d="M7.93249 5.49742C8.48762 5.1802 9.15546 5.24698 9.93599 5.69776L29.8038 17.1677C30.5843 17.6185 31.2522 18.3238 31.8073 19.2838C31.8949 19.4341 31.9742 19.5802 32.0452 19.7305C32.4417 20.5277 32.6421 21.3082 32.6421 22.0637V44.8574C32.6421 45.7548 32.3624 46.36 31.8073 46.6772M7.93249 5.49742C7.37736 5.81463 7.09772 6.41985 7.09772 7.31724V30.111C7.09772 31.0084 7.37736 31.935 7.93249 32.895C8.48762 33.8508 9.15546 34.5562 9.93599 35.007L29.8038 46.4769C30.5843 46.9277 31.2522 46.9945 31.8073 46.6772M7.93249 5.49742L16.2803 1.32349C16.8355 1.00627 17.5033 1.07306 18.2838 1.52384L38.1516 12.9938C38.9322 13.4445 39.6 14.1499 40.1551 15.1099C40.7102 16.0658 40.9899 16.9924 40.9899 17.8898V40.6835C40.9899 41.5809 40.7102 42.1861 40.1551 42.5033L31.8073 46.6772M17.8831 27.2185L23.9896 23.7374L24.9078 23.2157C25.1374 23.0821 25.4296 23.0988 25.7718 23.2741M17.8831 27.2185L24.1816 24.0713L25.7718 23.2741M17.8831 27.2185L14.832 21.9593C14.5732 21.5085 14.2435 21.1705 13.8386 20.9367C13.4379 20.703 13.1082 20.6612 12.8452 20.8115C12.5864 20.9576 12.457 21.2623 12.457 21.7256C12.457 22.1889 12.5864 22.6438 12.8452 23.0905L16.8897 30.0651C17.1736 30.5576 17.5033 30.9082 17.8831 31.1294C18.2629 31.3465 18.5927 31.3757 18.8765 31.2129L18.9099 31.1962L26.2894 26.9889L26.8946 26.6425C27.1533 26.4922 27.2828 26.1917 27.2828 25.7284C27.2828 25.2651 27.1533 24.8101 26.8946 24.3635C26.6358 23.9127 26.3019 23.5746 25.9012 23.3409C25.8595 23.3158 25.8136 23.2908 25.7718 23.2741M27.2786 25.7284C27.2786 26.1875 27.1492 26.4922 26.8905 26.6425L26.2852 26.9889L18.9058 31.1962L18.8724 31.2129C18.5885 31.3757 18.2588 31.3465 17.879 31.1294C17.4992 30.9082 17.1694 30.5576 16.8856 30.0651L12.8411 23.0905C12.5823 22.6439 12.4529 22.1889 12.4529 21.7256C12.4529 21.2623 12.5823 20.9576 12.8411 20.8115C13.104 20.6612 13.4338 20.703 13.8345 20.9367C14.2393 21.1705 14.5691 21.5085 14.8279 21.9593L17.879 27.2185L24.1774 24.0713L25.7677 23.2741C25.8094 23.2908 25.8553 23.3158 25.8971 23.3409C26.2978 23.5746 26.6317 23.9127 26.8905 24.3635C27.1492 24.8101 27.2786 25.2651 27.2786 25.7284Z" stroke="#27272A" stroke-opacity="0.25" stroke-linecap="round" stroke-linejoin="round"/>
      </svg>