<svg xmlns="http://www.w3.org/2000/svg" viewBox="0 0 48 48">
        <path d="M34.2496 45.3496C33.9608 45.9018 33.5827 46.3011 33.1197 46.5475L32.9498 46.6324C32.4485 46.8533 31.8496 46.9085 31.1615 46.7981L25.805 45.9358C25.2825 45.8423 24.7515 45.6342 24.2206 45.3156C23.6854 44.9928 23.1671 44.5425 22.6659 43.9691L14.9561 35.4055C14.6163 35.0275 14.3742 34.5942 14.2383 34.1099C14.1023 33.6257 14.1151 33.2349 14.2723 32.9375L14.3402 32.8186C14.4846 32.5765 14.6588 32.3938 14.8712 32.2664L15.0071 32.1942L15.0708 32.1644C15.143 32.1347 15.211 32.1177 15.2917 32.0965C15.7038 32.0073 16.1583 32.0837 16.6595 32.3174L18.9788 33.4643L18.2057 30.597L17.662 28.5623L15.1558 19.2384C15.0199 18.7414 15.0326 18.3506 15.1898 18.0618C15.2195 18.0108 15.2492 17.9641 15.2875 17.9259C15.3639 17.8367 15.4616 17.7729 15.5721 17.739L15.5891 17.7305C15.6995 17.6965 15.8312 17.6922 15.9756 17.7135C16.3409 17.7687 16.685 17.9811 17.0163 18.3549C17.3477 18.7244 17.577 19.162 17.7172 19.659L19.8284 27.5174L20.3678 29.5138L20.9923 31.8459L21.4 31.9096L22.2878 32.0455L21.4723 28.9616L21.0262 27.2837C20.8861 26.7868 20.8776 26.3195 20.9923 25.8735C21.0602 25.6059 21.1749 25.4317 21.3321 25.3467L21.3873 25.3213C21.4807 25.283 21.5869 25.2745 21.7059 25.2915C22.0712 25.3425 22.4195 25.5549 22.7466 25.9287C23.0779 26.3025 23.3115 26.7358 23.4475 27.2328L23.6259 27.8954L24.845 32.466L26.1066 32.6444L25.1848 29.1783C25.0616 28.7237 25.0616 28.3584 25.1848 28.0823C25.1976 28.0568 25.2103 28.0314 25.223 28.0059C25.291 27.8827 25.376 27.7935 25.4779 27.7298L25.5586 27.6915C25.6861 27.6406 25.8347 27.6278 26.0046 27.6533C26.37 27.7085 26.7183 27.9209 27.0454 28.2947C27.1473 28.4137 27.245 28.5326 27.3257 28.6643C27.5126 28.9446 27.6528 29.259 27.7462 29.5988L28.668 33.065L29.9636 33.2689C29.8277 32.7719 29.8404 32.3811 29.9976 32.0922C30.0613 31.9818 30.1377 31.8926 30.2354 31.8331L30.3459 31.7779C30.4691 31.7312 30.6135 31.7184 30.7834 31.7439C31.1445 31.7949 31.4928 32.0115 31.8241 32.3853C32.1512 32.7549 32.3848 33.1924 32.5207 33.6894L34.3983 40.643C34.5002 41.0253 34.5809 41.3906 34.6361 41.7432C34.8783 43.1917 34.7466 44.3938 34.2454 45.3496H34.2496Z" fill="white"/>
<path d="M10.8614 14.4852V11.1167C9.54455 12.0809 8.52933 13.4147 7.82418 15.1181C7.11905 16.8257 6.76649 18.8306 6.76649 21.1244C6.76649 23.4183 7.11905 25.831 7.82418 28.3542C8.25747 29.9089 8.80968 31.4551 9.48083 32.9928C9.89712 33.9528 10.3559 34.9085 10.8614 35.86V32.4958C10.8614 32.4236 10.8656 32.3598 10.8741 32.2961C10.9081 32.0625 11.0015 31.9053 11.1502 31.8204C11.3201 31.7269 11.5198 31.7354 11.7619 31.8501H11.7661C11.8044 31.8671 11.8469 31.8883 11.8851 31.9096C12.1824 32.0795 12.4246 32.3344 12.6199 32.6657C12.8111 33.0013 12.9088 33.3368 12.9088 33.6767V38.7655C12.9088 39.2073 12.7771 39.5046 12.518 39.6533C12.2546 39.802 11.9318 39.768 11.5453 39.5429L7.11056 36.9814C6.81321 36.8115 6.56685 36.5609 6.3757 36.2253C6.1803 35.894 6.08686 35.5542 6.08686 35.2186C6.08686 34.883 6.1803 34.6537 6.3757 34.5432C6.56685 34.4328 6.81321 34.4625 7.11056 34.6324L8.84791 35.6391C8.52933 35.0105 8.23198 34.386 7.95161 33.7574C7.03834 31.7227 6.31622 29.6837 5.77675 27.6406C5.07162 24.9644 4.71906 22.3988 4.71906 19.9436C4.71906 17.4883 5.07162 15.3305 5.77675 13.4699C6.48188 11.6052 7.50562 10.1184 8.84791 9.01401L7.11056 8.01153C6.81321 7.84162 6.56685 7.58675 6.3757 7.25542C6.1803 6.91985 6.08686 6.58427 6.08686 6.24445C6.08686 5.90463 6.1803 5.68374 6.3757 5.5733C6.56685 5.46286 6.81321 5.49259 7.11056 5.6625L11.5453 8.22392C11.9318 8.4448 12.2546 8.78463 12.518 9.23489C12.7771 9.68516 12.9088 10.1354 12.9088 10.5772V15.666C12.9088 16.0059 12.8111 16.231 12.6199 16.3414C12.4246 16.4519 12.1824 16.4221 11.8851 16.2522C11.5877 16.0781 11.3456 15.8275 11.1502 15.4919C10.9591 15.1606 10.8614 14.825 10.8614 14.4852Z" fill="white"/>
<path d="M17.6664 28.5623L11.1502 31.8204C11.0015 31.9053 10.9082 32.0625 10.8742 32.2919C10.8657 32.3598 10.8614 32.4236 10.8614 32.4958V35.86C10.3559 34.9085 9.89712 33.9528 9.48083 32.9928C8.80968 31.4551 8.25747 29.9089 7.82418 28.3542C7.11905 25.831 6.76649 23.4225 6.76649 21.1244C6.76649 18.8264 7.11905 16.8257 7.82418 15.1181C8.52933 13.4147 9.54455 12.0809 10.8614 11.1167V14.4852C10.8614 14.825 10.9591 15.1606 11.1502 15.4919C11.3456 15.8275 11.5877 16.0781 11.8851 16.2522C12.1824 16.4221 12.4246 16.4519 12.6199 16.3414L13.219 16.0398L15.3557 14.9737C15.2919 15.5853 15.2622 16.2183 15.2622 16.8767C15.2622 17.225 15.2707 17.5733 15.2919 17.9259C15.2537 17.9641 15.224 18.0108 15.1942 18.0618C15.0371 18.3506 15.0243 18.7414 15.1603 19.2384L15.6063 20.8951C15.7762 21.9443 16.0141 23.0147 16.3199 24.1064C16.5705 24.9984 16.8594 25.8862 17.1864 26.774L17.6664 28.5623Z" fill="white"/>
<path d="M42.7452 41.1018C42.4436 41.6795 42.0443 42.0915 41.5515 42.3337L33.1197 46.5475C33.5827 46.3011 33.9608 45.9018 34.2496 45.3496C34.7508 44.3938 34.8825 43.1917 34.6404 41.7432C34.5852 41.3906 34.5045 41.0253 34.4025 40.643L32.525 33.6894C32.3891 33.1924 32.1554 32.7549 31.8284 32.3853C31.497 32.0115 31.1487 31.7949 30.7877 31.7439C30.6177 31.7184 30.4733 31.7312 30.3501 31.7779L37.0616 28.4221L38.7607 27.5726C38.9009 27.4919 39.0751 27.4664 39.2832 27.4961C39.6443 27.5471 39.9926 27.7637 40.3239 28.1375C40.651 28.5071 40.8846 28.9446 41.0206 29.4416L42.8981 36.3952C43.4206 38.3407 43.3696 39.9124 42.7452 41.1018Z" fill="white"/>
<path d="M37.0616 28.4221L30.3501 31.7779L30.2399 31.8331C30.1422 31.8926 30.0657 31.9818 30.002 32.0922C29.8449 32.3811 29.8321 32.7719 29.968 33.2689L28.6725 33.065L27.7507 29.5988C27.6572 29.259 27.5171 28.9446 27.3302 28.6643C27.2495 28.5326 27.1518 28.4137 27.0498 28.2947C26.7227 27.9209 26.3744 27.7085 26.0091 27.6533C25.8392 27.6278 25.6905 27.6406 25.5631 27.6915L26.8926 27.0289L29.0505 25.9499L30.1549 25.402L32.3043 24.3273L33.9057 23.5329L33.927 23.5202C34.0757 23.4098 34.271 23.3715 34.5047 23.4055C34.87 23.4607 35.2183 23.6731 35.5454 24.0469C35.8767 24.4207 36.1103 24.854 36.2463 25.351L37.0616 28.4221Z" fill="white"/>
<path d="M18.9831 33.4643L16.6638 32.3174C16.1625 32.0837 15.708 32.0073 15.296 32.0965C15.2153 32.1177 15.1473 32.1347 15.0751 32.1644L17.0078 31.196L17.2033 31.1025L18.21 30.597L18.9831 33.4643Z" fill="white"/>
<path d="M21.4045 6.3294V11.4183C21.4045 11.7581 21.3068 11.9832 21.1157 12.0937L15.3557 14.9737L13.219 16.0398L12.6199 16.3414C12.8111 16.231 12.9088 16.0059 12.9088 15.666V10.5772C12.9088 10.1354 12.7771 9.68516 12.518 9.23489C12.2546 8.78463 11.9318 8.4448 11.5453 8.22392L7.11056 5.6625C6.81321 5.49259 6.56685 5.46286 6.3757 5.5733L14.8714 1.32552C15.0626 1.21507 15.3089 1.24481 15.6063 1.41472L20.041 3.97614C20.4275 4.19702 20.7503 4.53684 21.0137 4.9871C21.2728 5.43737 21.4045 5.88763 21.4045 6.3294Z" fill="white"/>
<path d="M18.21 30.597L17.2035 31.0983L17.0078 31.196L15.0751 32.1644L15.0116 32.1942L14.8757 32.2621C14.6633 32.3938 14.4891 32.5765 14.3447 32.8186L14.2767 32.9375C14.1195 33.2349 14.1068 33.6257 14.2428 34.1099C14.3787 34.5942 14.6208 35.0275 14.9606 35.4055L16.8424 37.4954L12.5224 39.6533C12.7815 39.5046 12.9132 39.2073 12.9132 38.7655V33.6767C12.9132 33.3368 12.8155 33.0013 12.6243 32.6657C12.4289 32.3344 12.1868 32.0795 11.8895 31.9096C11.8512 31.8883 11.8088 31.8671 11.7706 31.8501H11.7661C11.524 31.7354 11.3245 31.7269 11.1546 31.8204L17.6707 28.5623L18.2145 30.597L18.21 30.597Z" fill="white"/>
<path d="M8.84791 35.6391L7.11056 34.6324C6.81321 34.4625 6.56685 34.4328 6.3757 34.5432L7.95161 33.7574C8.23198 34.386 8.52933 35.0105 8.84791 35.6391Z" fill="white"/>
<path d="M32.3043 24.3273L30.1549 25.402L29.0505 25.9499L26.8926 27.0289L25.5631 27.6915L25.4822 27.7298C25.3803 27.7935 25.2953 27.8827 25.2274 28.0059C25.2146 28.0313 25.2019 28.0568 25.1892 28.0823C25.066 28.3584 25.066 28.7237 25.1892 29.1783L26.1109 32.6444L24.8493 32.466L23.6302 27.8954L23.4518 27.2328C23.3159 26.7358 23.0822 26.3025 22.7509 25.9287C22.4238 25.5549 22.0755 25.3425 21.7102 25.2915C21.5913 25.2745 21.4851 25.283 21.3916 25.3213L27.9927 22.0165L29.798 21.116L29.8702 21.0777C29.9679 21.0352 30.0784 21.0225 30.2058 21.0437C30.5711 21.0947 30.9194 21.3071 31.2465 21.6809C31.5778 22.0547 31.8115 22.488 31.9474 22.985L32.3043 24.3273Z" fill="white"/>
<path d="M20.9964 25.8735C20.8817 26.3195 20.8902 26.7868 21.0304 27.2837L21.4764 28.9616L22.2919 32.0455L21.4042 31.9096L20.9964 31.8459L20.372 29.5138L19.8325 27.5174L17.7213 19.659C17.5812 19.162 17.3518 18.7244 17.0205 18.3549C16.6892 17.9811 16.3451 17.7687 15.9798 17.7135C15.8354 17.6922 15.7037 17.6965 15.5932 17.7305L23.9954 13.5167C24.127 13.4529 24.2885 13.436 24.4754 13.4657C24.8407 13.5209 25.1847 13.7333 25.5161 14.1071C25.8474 14.4767 26.0767 14.9142 26.2169 15.4112L27.9927 22.0165L21.3916 25.3213L21.3362 25.3468C21.179 25.4317 21.0644 25.6059 20.9964 25.8735Z" fill="white"/>
<path d="M34.2496 45.3496C33.9607 45.9018 33.5827 46.3011 33.1197 46.5475M34.2496 45.3496H34.2454C34.7466 44.3938 34.8783 43.1917 34.6361 41.7432C34.5809 41.3906 34.5002 41.0253 34.3983 40.643L32.5207 33.6894C32.3848 33.1924 32.1512 32.7549 31.8241 32.3853C31.4928 32.0115 31.1445 31.7949 30.7834 31.7439C30.6135 31.7184 30.4691 31.7312 30.3459 31.7779L30.2354 31.8331C30.1377 31.8926 30.0613 31.9818 29.9976 32.0922C29.8404 32.3811 29.8277 32.7719 29.9636 33.2689L28.668 33.065L27.7462 29.5988C27.6528 29.259 27.5126 28.9446 27.3257 28.6643C27.245 28.5326 27.1473 28.4137 27.0454 28.2947C26.7183 27.9209 26.37 27.7085 26.0046 27.6533C25.8347 27.6278 25.6861 27.6406 25.5586 27.6915L25.4779 27.7298C25.376 27.7935 25.291 27.8827 25.223 28.0059C25.2103 28.0314 25.1976 28.0568 25.1848 28.0823C25.0616 28.3584 25.0616 28.7237 25.1848 29.1783L26.1066 32.6444L24.845 32.466L23.6259 27.8954L23.4475 27.2328C23.3115 26.7358 23.0779 26.3025 22.7466 25.9287C22.4195 25.5549 22.0712 25.3425 21.7059 25.2915C21.5869 25.2745 21.4807 25.283 21.3873 25.3213L21.3321 25.3467C21.1749 25.4317 21.0602 25.6059 20.9923 25.8735C20.8776 26.3195 20.8861 26.7868 21.0262 27.2837L21.4723 28.9616L22.2878 32.0455L21.4 31.9096L20.9923 31.8459L20.3678 29.5138L19.8284 27.5174L17.7172 19.659C17.577 19.162 17.3477 18.7244 17.0163 18.3549C16.685 17.9811 16.3409 17.7687 15.9756 17.7135C15.8312 17.6922 15.6995 17.6965 15.5891 17.7305L15.5721 17.739C15.4616 17.7729 15.3639 17.8367 15.2875 17.9259C15.2492 17.9641 15.2195 18.0108 15.1898 18.0618C15.0326 18.3506 15.0199 18.7414 15.1558 19.2384L17.662 28.5623L18.2057 30.597L18.9788 33.4643L16.6595 32.3174C16.1583 32.0837 15.7038 32.0073 15.2917 32.0965C15.211 32.1177 15.143 32.1347 15.0708 32.1644L15.0071 32.1942L14.8712 32.2664C14.6588 32.3938 14.4846 32.5765 14.3402 32.8186L14.2723 32.9375C14.1151 33.2349 14.1023 33.6257 14.2383 34.1099C14.3742 34.5942 14.6163 35.0275 14.9561 35.4055L22.6659 43.9691C23.1671 44.5425 23.6854 44.9928 24.2206 45.3156C24.7515 45.6342 25.2825 45.8423 25.805 45.9358L31.1615 46.7981C31.8496 46.9085 32.4485 46.8533 32.9498 46.6324L33.1197 46.5475M34.2496 45.3496C34.7508 44.3938 34.8825 43.1917 34.6404 41.7432C34.5852 41.3906 34.5045 41.0253 34.4025 40.643L32.525 33.6894C32.3891 33.1924 32.1554 32.7549 31.8284 32.3853C31.497 32.0115 31.1487 31.7949 30.7877 31.7439C30.6177 31.7184 30.4733 31.7312 30.3501 31.7779M33.1197 46.5475L41.5515 42.3337C42.0443 42.0915 42.4436 41.6795 42.7452 41.1018C43.3696 39.9124 43.4206 38.3407 42.8981 36.3952L41.0206 29.4416C40.8846 28.9446 40.651 28.5071 40.3239 28.1375C39.9926 27.7637 39.6443 27.5471 39.2832 27.4961C39.0751 27.4664 38.9009 27.4919 38.7607 27.5726L37.0616 28.4221M7.82418 15.1181C8.52933 13.4147 9.54455 12.0809 10.8614 11.1167V14.4852C10.8614 14.825 10.9591 15.1606 11.1502 15.4919C11.3456 15.8275 11.5877 16.0781 11.8851 16.2522C12.1824 16.4221 12.4246 16.4519 12.6199 16.3414M7.82418 15.1181C7.11905 16.8257 6.76649 18.8306 6.76649 21.1244M7.82418 15.1181C7.11905 16.8257 6.76649 18.8264 6.76649 21.1244M6.76649 21.1244C6.76649 23.4183 7.11905 25.831 7.82418 28.3542M6.76649 21.1244C6.76649 23.4225 7.11905 25.831 7.82418 28.3542M7.82418 28.3542C8.25747 29.9089 8.80968 31.4551 9.48083 32.9928C9.89712 33.9528 10.3559 34.9085 10.8614 35.86V32.4958M10.8614 32.4958C10.8614 32.4236 10.8656 32.3598 10.8741 32.2961C10.9081 32.0625 11.0015 31.9053 11.1502 31.8204M10.8614 32.4958C10.8614 32.4236 10.8657 32.3598 10.8742 32.2919C10.9082 32.0625 11.0015 31.9053 11.1502 31.8204M11.1502 31.8204C11.3201 31.7269 11.5198 31.7354 11.7619 31.8501H11.7661M11.1502 31.8204L17.6664 28.5623L17.1864 26.774C16.8594 25.8862 16.5705 24.9984 16.3199 24.1064C16.0141 23.0147 15.7762 21.9443 15.6063 20.8951L15.1603 19.2384C15.0243 18.7414 15.0371 18.3506 15.1942 18.0618C15.224 18.0108 15.2537 17.9641 15.2919 17.9259C15.2707 17.5733 15.2622 17.225 15.2622 16.8767C15.2622 16.2183 15.2919 15.5853 15.3557 14.9737M11.7661 31.8501C11.8044 31.8671 11.8469 31.8883 11.8851 31.9096C12.1824 32.0795 12.4246 32.3344 12.6199 32.6657C12.8111 33.0013 12.9088 33.3368 12.9088 33.6767V38.7655C12.9088 39.2073 12.7771 39.5046 12.518 39.6533C12.2546 39.802 11.9318 39.768 11.5453 39.5429L7.11056 36.9814C6.81321 36.8115 6.56685 36.5609 6.3757 36.2253C6.1803 35.894 6.08686 35.5542 6.08686 35.2186C6.08686 34.883 6.1803 34.6537 6.3757 34.5432M11.7661 31.8501H11.7706C11.8088 31.8671 11.8512 31.8883 11.8895 31.9096C12.1868 32.0795 12.4289 32.3344 12.6243 32.6657C12.8155 33.0013 12.9132 33.3368 12.9132 33.6767V38.7655C12.9132 39.2073 12.7815 39.5046 12.5224 39.6533L16.8424 37.4954L14.9606 35.4055C14.6208 35.0275 14.3787 34.5942 14.2428 34.1099C14.1068 33.6257 14.1195 33.2349 14.2767 32.9375L14.3447 32.8186C14.4891 32.5765 14.6633 32.3938 14.8757 32.2621L15.0116 32.1942L15.0751 32.1644M11.7661 31.8501C11.524 31.7354 11.3245 31.7269 11.1546 31.8204L17.6707 28.5623L18.2145 30.597L18.21 30.597M6.3757 34.5432C6.56685 34.4328 6.81321 34.4625 7.11056 34.6324L8.84791 35.6391C8.52933 35.0105 8.23198 34.386 7.95161 33.7574M6.3757 34.5432L7.95161 33.7574M7.95161 33.7574C7.03834 31.7227 6.31622 29.6837 5.77675 27.6406C5.07162 24.9644 4.71906 22.3988 4.71906 19.9436C4.71906 17.4883 5.07162 15.3305 5.77675 13.4699C6.48188 11.6052 7.50562 10.1184 8.84791 9.01401L7.11056 8.01153C6.81321 7.84162 6.56685 7.58675 6.3757 7.25542C6.1803 6.91985 6.08686 6.58427 6.08686 6.24445C6.08686 5.90463 6.1803 5.68374 6.3757 5.5733M6.3757 5.5733C6.56685 5.46286 6.81321 5.49259 7.11056 5.6625L11.5453 8.22392C11.9318 8.4448 12.2546 8.78463 12.518 9.23489C12.7771 9.68516 12.9088 10.1354 12.9088 10.5772V15.666C12.9088 16.0059 12.8111 16.231 12.6199 16.3414M6.3757 5.5733L14.8714 1.32552C15.0626 1.21507 15.3089 1.24481 15.6063 1.41472L20.041 3.97614C20.4275 4.19702 20.7503 4.53684 21.0137 4.9871C21.2728 5.43737 21.4045 5.88763 21.4045 6.3294V11.4183C21.4045 11.7581 21.3068 11.9832 21.1157 12.0937L15.3557 14.9737M12.6199 16.3414L13.219 16.0398L15.3557 14.9737M30.3501 31.7779L37.0616 28.4221M30.3501 31.7779L30.2399 31.8331C30.1422 31.8926 30.0657 31.9818 30.002 32.0922C29.8449 32.3811 29.8321 32.7719 29.968 33.2689L28.6725 33.065L27.7507 29.5988C27.6572 29.259 27.5171 28.9446 27.3302 28.6643C27.2495 28.5326 27.1518 28.4137 27.0498 28.2947C26.7227 27.9209 26.3744 27.7085 26.0091 27.6533C25.8392 27.6278 25.6905 27.6406 25.5631 27.6915M37.0616 28.4221L36.2463 25.351C36.1103 24.854 35.8767 24.4207 35.5454 24.0469C35.2183 23.6731 34.87 23.4607 34.5047 23.4055C34.271 23.3715 34.0757 23.4098 33.927 23.5202L33.9057 23.5329L32.3043 24.3273M25.5631 27.6915L26.8926 27.0289L29.0505 25.9499L30.1549 25.402L32.3043 24.3273M25.5631 27.6915L25.4822 27.7298C25.3803 27.7935 25.2953 27.8827 25.2274 28.0059C25.2146 28.0313 25.2019 28.0568 25.1892 28.0823C25.066 28.3584 25.066 28.7237 25.1892 29.1783L26.1109 32.6444L24.8493 32.466L23.6302 27.8954L23.4518 27.2328C23.3159 26.7358 23.0822 26.3025 22.7509 25.9287C22.4238 25.5549 22.0755 25.3425 21.7102 25.2915C21.5913 25.2745 21.4851 25.283 21.3916 25.3213M32.3043 24.3273L31.9474 22.985C31.8115 22.488 31.5778 22.0547 31.2465 21.6809C30.9194 21.3071 30.5711 21.0947 30.2058 21.0437C30.0784 21.0225 29.9679 21.0352 29.8702 21.0777L29.798 21.116L27.9927 22.0165M15.0751 32.1644C15.1473 32.1347 15.2153 32.1177 15.296 32.0965C15.708 32.0073 16.1625 32.0837 16.6638 32.3174L18.9831 33.4643L18.21 30.597M15.0751 32.1644L17.0078 31.196M17.0078 31.196L17.2033 31.1025L18.21 30.597M17.0078 31.196L17.2035 31.0983L18.21 30.597M21.3916 25.3213L21.3362 25.3468C21.179 25.4317 21.0644 25.6059 20.9964 25.8735C20.8817 26.3195 20.8902 26.7868 21.0304 27.2837L21.4764 28.9616L22.2919 32.0455L21.4042 31.9096L20.9964 31.8459L20.372 29.5138L19.8325 27.5174L17.7213 19.659C17.5812 19.162 17.3518 18.7244 17.0205 18.3549C16.6892 17.9811 16.3451 17.7687 15.9798 17.7135C15.8354 17.6922 15.7037 17.6965 15.5932 17.7305L23.9954 13.5167C24.127 13.4529 24.2885 13.436 24.4754 13.4657C24.8407 13.5209 25.1847 13.7333 25.5161 14.1071C25.8474 14.4767 26.0767 14.9142 26.2169 15.4112L27.9927 22.0165M21.3916 25.3213L27.9927 22.0165" stroke="#27272A" stroke-opacity="0.25" stroke-linecap="round" stroke-linejoin="round"/>
      </svg>