<svg xmlns="http://www.w3.org/2000/svg" viewBox="0 0 48 48">
        <path d="M46.8841 19.8854V28.0823C46.8882 28.8864 46.4 29.5757 45.4235 30.1377L27.6388 40.4064C26.6583 40.9726 25.4726 41.2516 24.0737 41.2516C22.6747 41.2475 21.485 40.9603 20.5003 40.3941L2.60495 30.0598C2.01007 29.7152 1.58341 29.3172 1.32906 28.8618C1.16495 28.5746 1.08289 28.2834 1.08289 27.9921V19.8403C1.09519 20.1152 1.17316 20.3859 1.32906 20.6567C1.58341 21.1121 2.01007 21.51 2.60495 21.8546L12.3978 27.5121L15.7865 29.4649L20.5003 32.189C20.8203 32.3736 21.165 32.5295 21.5301 32.6526C22.2809 32.9111 23.1301 33.0423 24.0737 33.0464C24.9803 33.0464 25.7968 32.9275 26.527 32.6895C26.925 32.5623 27.2942 32.4023 27.6388 32.2013L45.4235 21.9326C46.3959 21.3746 46.8841 20.6854 46.8841 19.8854Z" fill="white"/>
<path d="M45.3989 17.8136L27.5034 7.47922C26.9086 7.13461 26.2152 6.89255 25.4275 6.74486C24.6357 6.59717 23.8398 6.56435 23.0398 6.6505L7.83983 8.13973C6.76906 8.2423 5.86239 8.50486 5.12393 8.93563C4.38137 9.3623 3.92186 9.88332 3.74955 10.5028L1.16494 19.2782C1.11161 19.4382 1.08699 19.5941 1.08699 19.7541V19.8402C1.0952 20.1151 1.17316 20.3859 1.32906 20.6567C1.58341 21.1121 2.01007 21.51 2.60495 21.8546L12.3978 27.5121L15.7865 29.4649L20.5003 32.189C20.8203 32.3736 21.165 32.5295 21.5301 32.6526C22.2809 32.9111 23.1301 33.0423 24.0737 33.0464C24.9803 33.0464 25.7968 32.9275 26.527 32.6895C26.925 32.5623 27.2942 32.4023 27.6388 32.2013L45.4235 21.9326C46.3959 21.3746 46.8841 20.6854 46.8841 19.8854L46.8841 19.8772C46.88 19.069 46.3835 18.3797 45.3989 17.8136ZM35.606 20.3654C35.4829 20.5418 35.286 20.7059 35.0234 20.8577C34.5188 21.149 33.9403 21.2926 33.288 21.2926L26.5065 21.2802L26.5311 25.1941C26.5311 25.2761 26.5188 25.3582 26.4942 25.4361C26.4901 25.4443 26.4901 25.4567 26.486 25.4649C26.3916 25.7356 26.1537 25.9818 25.7762 26.1992C25.2716 26.4905 24.6932 26.6341 24.0409 26.6341C23.3844 26.63 22.806 26.4864 22.2973 26.191C21.7885 25.8997 21.5342 25.5633 21.5342 25.1859L21.5177 22.4043V21.272H21.4973L14.7321 21.2597C14.0798 21.2597 13.4973 21.112 12.9927 20.8208C12.4839 20.5254 12.2296 20.1931 12.2296 19.8115C12.2296 19.4341 12.4757 19.1018 12.9803 18.8105C13.4849 18.5192 14.0634 18.3756 14.7157 18.3756L21.4973 18.3879L21.4809 15.0074V14.4741C21.4726 14.0967 21.7229 13.7602 22.2275 13.4731C22.7321 13.1818 23.3106 13.0341 23.967 13.0382C24.6193 13.0382 25.2019 13.1859 25.7065 13.4772C26.2152 13.7685 26.4696 14.1049 26.4696 14.4823V15.2208L26.4942 18.3961L32.2173 18.4085H33.2716C33.9239 18.4126 34.5065 18.5561 35.0152 18.8515C35.5198 19.1428 35.7742 19.4792 35.7783 19.8567C35.7783 20.0372 35.7209 20.2054 35.606 20.3654Z" fill="white"/>
<path d="M35.7783 19.8567C35.7783 20.0372 35.7209 20.2054 35.606 20.3654C35.4829 20.5418 35.286 20.7059 35.0234 20.8577C34.5188 21.149 33.9403 21.2926 33.288 21.2926L26.5065 21.2802L26.5311 25.1941C26.5311 25.2761 26.5188 25.3582 26.4942 25.4361V18.3961L32.2173 18.4085H33.2716C33.9239 18.4126 34.5065 18.5561 35.0152 18.8515C35.5198 19.1428 35.7742 19.4792 35.7783 19.8567Z" fill="white"/>
<path d="M26.4942 18.3961V25.4361C26.4942 25.4361 26.4901 25.4567 26.486 25.4649L26.4695 22.6874C26.4695 22.31 26.2152 21.9736 25.7065 21.6823C25.2018 21.391 24.6193 21.2433 23.967 21.2433C23.3106 21.2392 22.7321 21.3869 22.2275 21.6782C21.85 21.8915 21.6121 22.1377 21.5177 22.4043V21.272H21.4973V18.3879L21.4809 15.0074V14.4741C21.4726 14.0967 21.7229 13.7602 22.2275 13.4731C22.7321 13.1818 23.3106 13.0341 23.967 13.0382C24.6193 13.0382 25.2019 13.1859 25.7065 13.4772C26.2152 13.7685 26.4696 14.1049 26.4696 14.4823V15.2208L26.4942 18.3961Z" fill="white"/>
<path d="M21.4973 18.3879V21.272L14.7321 21.2597C14.0798 21.2597 13.4973 21.112 12.9927 20.8208C12.4839 20.5254 12.2296 20.1931 12.2296 19.8115C12.2296 19.4341 12.4757 19.1018 12.9803 18.8105C13.4849 18.5192 14.0634 18.3756 14.7157 18.3756L21.4973 18.3879Z" fill="white"/>
<path d="M1.08289 28.0741V27.9921V28.0741Z" fill="white"/>
<path d="M46.8841 19.8854V28.0823C46.8882 28.8864 46.4 29.5757 45.4235 30.1377L27.6388 40.4064C26.6583 40.9726 25.4726 41.2516 24.0737 41.2516C22.6747 41.2475 21.485 40.9603 20.5003 40.3941L2.60495 30.0598C2.01007 29.7152 1.58341 29.3172 1.32906 28.8618C1.16495 28.5746 1.08289 28.2834 1.08289 27.9921M46.8841 19.8854C46.8841 20.6854 46.3958 21.3746 45.4235 21.9326L27.6388 32.2013C27.2942 32.4023 26.925 32.5623 26.527 32.6895C25.7968 32.9275 24.9803 33.0464 24.0737 33.0464C23.1301 33.0423 22.2809 32.9111 21.5301 32.6526C21.165 32.5295 20.8203 32.3736 20.5003 32.189L15.7865 29.4649L12.3978 27.5121L2.60495 21.8546C2.01007 21.51 1.58341 21.1121 1.32906 20.6567M46.8841 19.8854L46.8841 19.8772C46.88 19.069 46.3835 18.3797 45.3989 17.8136L27.5034 7.47922C26.9085 7.13461 26.2152 6.89255 25.4275 6.74486C24.6357 6.59717 23.8398 6.56435 23.0398 6.6505L7.83983 8.13973C6.76906 8.2423 5.86239 8.50486 5.12393 8.93563C4.38137 9.3623 3.92186 9.88332 3.74955 10.5028L1.16494 19.2782C1.11161 19.4382 1.08699 19.5941 1.08699 19.7541V19.8402C1.0952 20.1151 1.17316 20.3859 1.32906 20.6567M1.08289 27.9921V19.8403C1.09519 20.1152 1.17316 20.3859 1.32906 20.6567M1.08289 27.9921V28.0741M26.4942 25.4361C26.5188 25.3582 26.5311 25.2761 26.5311 25.1941L26.5065 21.2802L33.288 21.2926C33.9403 21.2926 34.5188 21.149 35.0234 20.8577C35.286 20.7059 35.4829 20.5418 35.606 20.3654C35.7209 20.2054 35.7783 20.0372 35.7783 19.8567C35.7742 19.4792 35.5198 19.1428 35.0152 18.8515C34.5065 18.5561 33.9239 18.4126 33.2716 18.4085H32.2173L26.4942 18.3961M26.4942 25.4361C26.4901 25.4443 26.4901 25.4567 26.486 25.4649M26.4942 25.4361V18.3961M26.4942 25.4361C26.4942 25.4361 26.4901 25.4567 26.486 25.4649M26.486 25.4649C26.3916 25.7356 26.1537 25.9818 25.7762 26.1992C25.2716 26.4905 24.6932 26.6341 24.0409 26.6341C23.3844 26.63 22.806 26.4864 22.2973 26.191C21.7885 25.8997 21.5342 25.5633 21.5342 25.1859L21.5177 22.4043M26.486 25.4649L26.4695 22.6874C26.4695 22.31 26.2152 21.9736 25.7065 21.6823C25.2018 21.391 24.6193 21.2433 23.967 21.2433C23.3106 21.2392 22.7321 21.3869 22.2275 21.6782C21.85 21.8915 21.6121 22.1377 21.5177 22.4043M21.5177 22.4043V21.272H21.4973M21.4973 21.272L14.7321 21.2597C14.0798 21.2597 13.4973 21.112 12.9927 20.8208C12.4839 20.5254 12.2296 20.1931 12.2296 19.8115C12.2296 19.4341 12.4757 19.1018 12.9803 18.8105C13.4849 18.5192 14.0634 18.3756 14.7157 18.3756L21.4973 18.3879M21.4973 21.272V18.3879M21.4973 18.3879L21.4809 15.0074V14.4741C21.4726 14.0967 21.7229 13.7602 22.2275 13.4731C22.7321 13.1818 23.3106 13.0341 23.967 13.0382C24.6193 13.0382 25.2019 13.1859 25.7065 13.4772C26.2152 13.7685 26.4696 14.1049 26.4696 14.4823V15.2208L26.4942 18.3961" stroke="#27272A" stroke-opacity="0.25" stroke-linecap="round" stroke-linejoin="round"/>
      </svg>