<svg xmlns="http://www.w3.org/2000/svg" viewBox="0 0 48 48">
        <path d="M47.0836 17.0186C47.0836 17.3764 46.8567 17.6862 46.3985 17.948L43.8196 19.436L43.5884 19.5713L37.1302 23.3022C35.7818 23.1757 34.4684 23.2368 33.1898 23.4943C32.7316 23.5859 32.2909 23.695 31.8764 23.8259C31.1345 24.0528 30.4626 24.3408 29.8604 24.6899L27.8444 25.855L25.8153 24.6812C25.4837 24.4892 25.1433 24.319 24.7898 24.1662C23.376 23.551 21.7701 23.2325 19.968 23.2063C19.8938 23.2019 19.8152 23.2019 19.741 23.2019C19.1301 23.2019 18.5455 23.2324 17.9782 23.2979C16.368 23.4811 14.9367 23.935 13.6844 24.6593L11.6683 25.8245C11.3192 26.0252 11.1491 26.2608 11.1491 26.5226C11.1491 26.7844 11.328 27.02 11.677 27.2251C12.0305 27.4259 12.4364 27.5306 12.8945 27.5306C13.3527 27.5306 13.7542 27.4302 14.1033 27.2295L16.1193 26.0644C17.1404 25.4753 18.3535 25.183 19.7542 25.183C20.6924 25.183 21.5477 25.3226 22.32 25.5931C22.6997 25.7197 23.0575 25.8811 23.3978 26.0775L25.6844 27.3997L26.2386 27.7182C26.6924 27.9844 27.2291 28.1154 27.8444 28.1197H27.8575C28.4771 28.1197 29.0138 27.9888 29.472 27.7226L32.2909 26.095C33.312 25.5059 34.5251 25.2135 35.9258 25.2135H35.952C37.344 25.2222 38.5484 25.519 39.5695 26.1081C39.8226 26.2521 39.984 26.4135 40.0538 26.5925C40.0844 26.6623 40.1019 26.7365 40.1019 26.8106C40.1019 27.0725 39.9273 27.308 39.5782 27.5088L34.3375 30.5328C32.3739 31.6674 30.2095 32.5051 27.8444 33.055C27.1985 33.2033 26.5352 33.3299 25.8589 33.4346C24.2007 33.6964 22.4509 33.8273 20.6094 33.823C18.2792 33.8186 16.0975 33.6048 14.0553 33.1815C11.411 32.636 9.00659 31.7371 6.84223 30.4848C4.93968 29.3851 3.504 28.1808 2.544 26.8717C1.56219 25.5365 1.06913 24.092 1.06041 22.5386C1.04296 19.4535 2.94106 16.8135 6.75923 14.6099L22.0756 5.76481C22.5295 5.50299 23.0705 5.37207 23.6902 5.37207C24.3098 5.37207 24.8509 5.50731 25.309 5.77349C25.7672 6.03967 25.9985 6.3495 26.0029 6.70732C26.0029 7.06514 25.776 7.37496 25.3178 7.64114L15.6436 13.2266L18.8902 15.0986L26.0029 10.9925L31.7891 7.64988C32.2473 7.38806 32.784 7.25714 33.4036 7.25714C34.0233 7.25714 34.5643 7.39243 35.0225 7.65861C35.4807 7.92479 35.712 8.23462 35.7164 8.59243C35.7164 8.95027 35.4895 9.26009 35.0313 9.52627L26.0029 14.7364L25.7716 14.8717L22.1367 16.9706L25.379 18.847L35.7164 12.8775L39.8924 10.4688C40.3462 10.2026 40.8873 10.0717 41.5069 10.0717C42.1265 10.0717 42.6633 10.207 43.1258 10.4731C43.584 10.7393 43.8152 11.0491 43.8196 11.407C43.8196 11.7648 43.5927 12.079 43.1345 12.3408L28.6255 20.719L29.6945 21.3342L31.8676 22.591L43.1564 16.0761C43.3571 15.9583 43.5797 15.8666 43.8196 15.8055C44.112 15.7226 44.4305 15.679 44.7709 15.6834C45.3905 15.6834 45.9316 15.8186 46.3898 16.0804C46.848 16.3466 47.0792 16.6608 47.0836 17.0186Z" fill="white"/>
<path d="M40.1019 26.8106L40.1018 35.5378C40.1018 35.7996 39.9273 36.0353 39.5782 36.236L34.3375 39.26C30.5237 41.4637 25.9461 42.5589 20.6094 42.5502C15.2727 42.5415 10.6822 41.4287 6.84223 39.212C3.00222 36.9953 1.07349 34.3465 1.0604 31.2658L1.06041 22.5386C1.06913 24.092 1.56219 25.5365 2.544 26.8717C3.504 28.1808 4.93968 29.3851 6.84223 30.4848C9.00659 31.7371 11.411 32.636 14.0553 33.1815C16.0975 33.6048 18.2792 33.8186 20.6094 33.823C22.4509 33.8273 24.2007 33.6964 25.8589 33.4346C26.5352 33.3299 27.1985 33.2033 27.8444 33.055C30.2095 32.5051 32.3739 31.6674 34.3375 30.5328L39.5782 27.5088C39.9273 27.308 40.1019 27.0725 40.1019 26.8106Z" fill="white"/>
<path d="M1.05603 31.3444V31.2658V31.3444Z" fill="white"/>
<path d="M26.0029 6.70732V10.9925L18.8902 15.0986L15.6436 13.2266L25.3178 7.64114C25.776 7.37496 26.0029 7.06514 26.0029 6.70732Z" fill="white"/>
<path d="M35.7164 8.59243V12.8775L25.379 18.847L22.1367 16.9706L25.7716 14.8717L26.0029 14.7364L35.0313 9.52627C35.4895 9.26009 35.7164 8.95027 35.7164 8.59243Z" fill="white"/>
<path d="M43.8152 11.407V15.8056C43.5753 15.8667 43.3527 15.9583 43.152 16.0761L31.8632 22.591L29.6901 21.3343L28.6211 20.719L43.1302 12.3409C43.5884 12.079 43.8152 11.7648 43.8152 11.407Z" fill="white"/>
<path d="M27.8444 25.855V28.1197C27.2291 28.1154 26.6924 27.9844 26.2386 27.7182L25.6844 27.3997L23.3978 26.0775C23.0575 25.8811 22.6997 25.7197 22.32 25.5931C21.5477 25.3226 20.6924 25.1874 19.7542 25.183C18.3535 25.183 17.1404 25.4753 16.1193 26.0644L14.1033 27.2295C13.7542 27.4302 13.3527 27.5306 12.8945 27.5306C12.4364 27.5306 12.0305 27.4259 11.677 27.2251C11.328 27.02 11.1491 26.7888 11.1491 26.5226C11.1491 26.2564 11.3192 26.0252 11.6683 25.8245L13.6844 24.6593C14.9367 23.935 16.368 23.4811 17.9782 23.2979C18.5455 23.2324 19.1301 23.2019 19.741 23.2019C19.8152 23.2019 19.8938 23.2019 19.968 23.2063C21.7701 23.2325 23.376 23.551 24.7898 24.1662C25.1433 24.319 25.4837 24.4892 25.8153 24.6812L27.8444 25.855Z" fill="white"/>
<path d="M47.0836 17.0186V25.7459C47.0836 26.1037 46.8567 26.4135 46.3985 26.6753L40.1018 30.3146L40.1019 26.8106C40.1019 26.7365 40.0844 26.6623 40.0538 26.5925C39.984 26.4135 39.8226 26.2521 39.5695 26.1081C38.5484 25.519 37.344 25.2222 35.952 25.2135H35.9258C34.5251 25.2135 33.312 25.5059 32.2909 26.095L29.472 27.7226C29.0138 27.9888 28.4771 28.1197 27.8575 28.1197H27.8444V25.855L29.8604 24.6899C30.4626 24.3408 31.1345 24.0528 31.8764 23.8259C32.2909 23.695 32.7316 23.5859 33.1898 23.4943C34.4684 23.2368 35.7818 23.1757 37.1302 23.3022L43.5884 19.5713L43.8196 19.436L46.3985 17.948C46.8567 17.6862 47.0836 17.3764 47.0836 17.0186Z" fill="white"/>
<path d="M47.0836 17.0186C47.0836 17.3764 46.8567 17.6862 46.3985 17.948L43.8196 19.436L43.5884 19.5713L37.1302 23.3022C35.7818 23.1757 34.4684 23.2368 33.1898 23.4943C32.7316 23.5859 32.2909 23.695 31.8764 23.8259C31.1345 24.0528 30.4626 24.3408 29.8604 24.6899L27.8444 25.855M47.0836 17.0186C47.0792 16.6608 46.848 16.3466 46.3898 16.0804C45.9316 15.8186 45.3905 15.6834 44.7709 15.6834C44.4305 15.679 44.112 15.7226 43.8196 15.8055C43.5797 15.8666 43.3571 15.9583 43.1564 16.0761L31.8676 22.591L29.6945 21.3342L28.6255 20.719L43.1345 12.3408C43.5927 12.079 43.8196 11.7648 43.8196 11.407C43.8152 11.0491 43.584 10.7393 43.1258 10.4731C42.6633 10.207 42.1265 10.0717 41.5069 10.0717C40.8873 10.0717 40.3462 10.2026 39.8924 10.4688L35.7164 12.8775M47.0836 17.0186V25.7459C47.0836 26.1037 46.8567 26.4135 46.3985 26.6753L40.1018 30.3146L40.1019 26.8106M27.8444 25.855L25.8153 24.6812C25.4837 24.4892 25.1433 24.319 24.7898 24.1662C23.376 23.551 21.7701 23.2325 19.968 23.2063C19.8938 23.2019 19.8152 23.2019 19.741 23.2019C19.1301 23.2019 18.5455 23.2324 17.9782 23.2979C16.368 23.4811 14.9367 23.935 13.6844 24.6593L11.6683 25.8245M27.8444 25.855V28.1197M11.6683 25.8245C11.3192 26.0252 11.1491 26.2608 11.1491 26.5226M11.6683 25.8245C11.3192 26.0252 11.1491 26.2564 11.1491 26.5226M11.1491 26.5226C11.1491 26.7844 11.328 27.02 11.677 27.2251M11.1491 26.5226C11.1491 26.7888 11.328 27.02 11.677 27.2251M11.677 27.2251C12.0305 27.4259 12.4364 27.5306 12.8945 27.5306C13.3527 27.5306 13.7542 27.4302 14.1033 27.2295L16.1193 26.0644C17.1404 25.4753 18.3535 25.183 19.7542 25.183M19.7542 25.183C20.6924 25.183 21.5477 25.3226 22.32 25.5931M19.7542 25.183C20.6924 25.1874 21.5477 25.3226 22.32 25.5931M22.32 25.5931C22.6997 25.7197 23.0575 25.8811 23.3978 26.0775L25.6844 27.3997L26.2386 27.7182C26.6924 27.9844 27.2291 28.1154 27.8444 28.1197M27.8444 28.1197H27.8575C28.4771 28.1197 29.0138 27.9888 29.472 27.7226L32.2909 26.095C33.312 25.5059 34.5251 25.2135 35.9258 25.2135H35.952C37.344 25.2222 38.5484 25.519 39.5695 26.1081C39.8226 26.2521 39.984 26.4135 40.0538 26.5925C40.0844 26.6623 40.1019 26.7365 40.1019 26.8106M40.1019 26.8106C40.1019 27.0725 39.9273 27.308 39.5782 27.5088L34.3375 30.5328C32.3739 31.6674 30.2095 32.5051 27.8444 33.055C27.1985 33.2033 26.5352 33.3299 25.8589 33.4346C24.2007 33.6964 22.4509 33.8273 20.6094 33.823C18.2792 33.8186 16.0975 33.6048 14.0553 33.1815C11.411 32.636 9.00659 31.7371 6.84223 30.4848C4.93968 29.3851 3.504 28.1808 2.544 26.8717C1.56219 25.5365 1.06913 24.092 1.06041 22.5386M40.1019 26.8106L40.1018 35.5378C40.1018 35.7996 39.9273 36.0353 39.5782 36.236L34.3375 39.26C30.5237 41.4637 25.9461 42.5589 20.6094 42.5502C15.2727 42.5415 10.6822 41.4287 6.84223 39.212C3.00222 36.9953 1.07349 34.3465 1.0604 31.2658L1.06041 22.5386M1.06041 22.5386C1.04296 19.4535 2.94106 16.8135 6.75923 14.6099L22.0756 5.76481C22.5295 5.50299 23.0705 5.37207 23.6902 5.37207C24.3098 5.37207 24.8509 5.50731 25.309 5.77349C25.7672 6.03967 25.9985 6.3495 26.0029 6.70732M26.0029 6.70732C26.0029 7.06513 25.776 7.37496 25.3178 7.64114L15.6436 13.2266L18.8902 15.0986L26.0029 10.9925M26.0029 6.70732V10.9925M26.0029 10.9925L31.7891 7.64988C32.2473 7.38806 32.784 7.25714 33.4036 7.25714C34.0233 7.25714 34.5643 7.39243 35.0225 7.65861C35.4807 7.92479 35.712 8.23462 35.7164 8.59243M35.7164 8.59243C35.7164 8.95027 35.4895 9.26009 35.0313 9.52627L26.0029 14.7364L25.7716 14.8717L22.1367 16.9706L25.379 18.847L35.7164 12.8775M35.7164 8.59243V12.8775M1.05603 31.3444V31.2658M43.8152 11.407V15.8056C43.5753 15.8667 43.3527 15.9583 43.152 16.0761L31.8632 22.591L29.6901 21.3343L28.6211 20.719L43.1302 12.3409C43.5884 12.079 43.8152 11.7648 43.8152 11.407Z" stroke="#27272A" stroke-opacity="0.25" stroke-linecap="round" stroke-linejoin="round"/>
      </svg>