<svg xmlns="http://www.w3.org/2000/svg" viewBox="0 0 48 48">
        <path d="M27.302 28.4676C27.302 29.0014 27.1531 29.3531 26.851 29.5227L22.3199 32.1089L20.9627 32.8828C20.6358 33.069 20.2551 33.0358 19.8165 32.7834C19.382 32.531 18.9972 32.1213 18.6703 31.5586L12.782 21.4C12.4841 20.8828 12.3268 20.3614 12.3103 19.84C12.302 19.4386 12.3889 19.1365 12.5793 18.9338C12.6372 18.8675 12.7034 18.8179 12.782 18.7724C13.0841 18.6027 13.4648 18.6483 13.9282 18.9172C14.3917 19.1862 14.7723 19.5793 15.0744 20.0966L18.182 25.4097V8.18759C18.182 7.65379 18.3392 7.29793 18.6496 7.12L18.7448 7.07444C19.0427 6.95444 19.3986 7.01242 19.8165 7.25242C20.28 7.52138 20.6689 7.9269 20.9834 8.46483C21.2979 9.0069 21.451 9.54479 21.451 10.0744V27.2966L24.5627 25.571L24.6579 25.5255C24.9392 25.4097 25.2827 25.4634 25.6841 25.6828C25.833 25.7655 25.9779 25.8648 26.1144 25.9848C26.3875 26.2166 26.6317 26.5186 26.851 26.8951C27.0372 27.2138 27.1654 27.5324 27.2358 27.8552C27.2813 28.0579 27.302 28.2648 27.302 28.4676Z" fill="white"/>
<path d="M22.3199 32.1089L20.9627 32.8828L22.3738 32.1752C22.3573 32.1545 22.3365 32.1296 22.3199 32.1089Z" fill="white"/>
<path d="M32.073 38.5518C31.5641 39.8139 30.8109 40.8194 29.822 41.5558C29.5944 41.7338 29.3544 41.891 29.102 42.0358C26.5654 43.4841 23.4703 43.1531 19.8165 41.0428C16.1627 38.9325 13.0675 35.6925 10.5351 31.3187C7.9985 26.9449 6.7282 22.6621 6.7282 18.4704C6.7282 15.7145 7.34471 13.5297 8.56954 11.9076C9.47161 10.7118 10.593 9.92146 11.9378 9.53664C12.422 9.39595 12.9351 9.30487 13.4771 9.27177C13.6095 9.26353 13.7295 9.23043 13.8371 9.17664L13.862 9.16418L16.9737 7.60832C16.9282 7.66211 16.8868 7.7159 16.8454 7.7697C15.6206 9.39177 15.0041 11.5766 15.0041 14.3325C15.0041 15.3959 15.0868 16.4676 15.2523 17.5394L12.782 18.7724C12.7034 18.8179 12.6372 18.8675 12.5793 18.9338C12.3889 19.1365 12.302 19.4386 12.3103 19.84C12.3268 20.3614 12.4841 20.8828 12.782 21.4L18.6703 31.5586C18.9972 32.1213 19.382 32.531 19.8165 32.7834C20.2551 33.0358 20.6358 33.069 20.9627 32.8828L22.3738 32.1752C24.0994 34.1242 26.0027 35.6966 28.0923 36.9049C29.5034 37.7201 30.8317 38.2704 32.073 38.5518Z" fill="white"/>
<path d="M36.1737 35.4691C36.1737 36.549 36.0993 37.5587 35.9503 38.5021C35.7434 39.8221 35.3875 41.0056 34.8868 42.0482C34.7503 42.3338 34.6055 42.6027 34.4524 42.8634C33.6538 44.2413 32.6276 45.28 31.3903 45.9875C29.9172 46.8275 28.1875 47.1669 26.1972 47.0013C24.2068 46.84 22.08 46.1034 19.8165 44.7958C17.5531 43.4882 15.4261 41.771 13.4358 39.6359C11.4454 37.5007 9.71579 35.1628 8.24268 32.6222C6.76958 30.0856 5.60684 27.4249 4.74615 24.6442C3.88546 21.8635 3.45926 19.178 3.45926 16.5794C3.45926 13.0745 4.2289 10.2897 5.76821 8.22487C6.4551 7.30211 7.25372 6.57379 8.15992 6.04414C8.43303 5.88276 8.71445 5.74211 9.00824 5.61797C9.21514 5.52694 9.43441 5.44832 9.65372 5.37797C9.65786 5.37797 9.67031 5.37388 9.68686 5.3656C10.4151 5.13388 11.2013 5.00556 12.0455 4.97246C12.4096 4.96004 12.7862 5.1297 13.1793 5.47728C13.2331 5.5228 13.2827 5.5725 13.3365 5.62215C13.7834 6.06905 14.1061 6.59866 14.2965 7.21108C14.4579 7.77384 14.4579 8.2497 14.2965 8.6428C14.193 8.88694 14.0482 9.06073 13.862 9.16418L13.8371 9.17664C13.7295 9.23043 13.6095 9.26353 13.4771 9.27177C12.9351 9.30487 12.422 9.39595 11.9378 9.53664C10.593 9.92146 9.47161 10.7118 8.56954 11.9076C7.34471 13.5297 6.7282 15.7145 6.7282 18.4704C6.7282 22.6621 7.9985 26.9449 10.5351 31.3187C13.0675 35.6925 16.1627 38.9325 19.8165 41.0428C23.4703 43.1531 26.5654 43.4841 29.102 42.0358C29.3544 41.891 29.5944 41.7338 29.822 41.5558C30.8109 40.8194 31.5641 39.8139 32.073 38.5518C32.6275 37.1946 32.9048 35.5394 32.9048 33.5821C32.9048 31.6249 32.5696 29.4235 31.8951 27.2304C31.6592 26.4607 31.382 25.6828 31.0634 24.8925C30.7903 24.218 30.4965 23.5517 30.182 22.9062C30.1654 22.869 30.1447 22.8276 30.1241 22.7904C29.9999 22.5214 29.8634 22.2607 29.7268 22C28.7999 20.2166 27.7075 18.5407 26.4579 16.9683C26.3585 16.84 26.2592 16.7159 26.1558 16.5917C25.7751 16.12 25.502 15.5945 25.3365 15.0152C25.1751 14.4359 25.1751 13.96 25.3365 13.5835C25.4151 13.3931 25.5227 13.2483 25.6593 13.1531L25.8579 13.0538L25.8785 13.0456C25.982 13.0166 26.0938 13.0042 26.2179 13.0125C26.2965 13.0166 26.3792 13.029 26.4579 13.0538C26.793 13.1407 27.1158 13.3766 27.422 13.7573C28.2413 14.7173 29.011 15.7186 29.7268 16.749C30.7861 18.2759 31.7379 19.8814 32.5737 21.5656C32.5737 21.5697 32.5779 21.5738 32.5779 21.578C33.0165 22.4594 33.4261 23.3656 33.8027 24.2925C34.0096 24.8014 34.2041 25.3104 34.382 25.8111C35.5779 29.1504 36.1737 32.3697 36.1737 35.4691Z" fill="white"/>
<path d="M25.3365 13.5835C25.1751 13.96 25.1751 14.4359 25.3365 15.0152C25.502 15.5945 25.7751 16.12 26.1558 16.5917C26.2592 16.7159 26.3585 16.84 26.4579 16.9683C27.7075 18.5407 28.7999 20.2166 29.7268 22V22.989L25.5806 25.0621L24.6579 25.5255L24.5627 25.571L21.451 27.2966V10.0744C21.451 9.54479 21.2979 9.0069 20.9834 8.46483C20.6689 7.9269 20.28 7.52138 19.8165 7.25242C19.3986 7.01242 19.0427 6.95444 18.7448 7.07444L26.9254 2.98211C27.2399 2.80418 27.6289 2.84967 28.0924 3.1145C28.5558 3.38347 28.9448 3.789 29.2592 4.32694C29.5737 4.86901 29.7268 5.4069 29.7268 5.93655V11.1172L26.4579 12.7518L25.8785 13.0456L25.8579 13.0538L25.6593 13.1531C25.5227 13.2483 25.4151 13.3931 25.3365 13.5835Z" fill="white"/>
<path d="M22.5724 4.50483C22.4648 4.75724 22.3117 4.93517 22.1172 5.03448L22.0966 5.0428L22.0179 5.08L16.9737 7.60832L13.862 9.16418C14.0482 9.06073 14.193 8.88694 14.2965 8.6428C14.4579 8.2497 14.4579 7.77384 14.2965 7.21108C14.1061 6.59866 13.7834 6.06905 13.3365 5.62215C13.2827 5.5725 13.2331 5.5228 13.1793 5.47728C12.7862 5.1297 12.4096 4.96004 12.0455 4.97246C11.2013 5.00556 10.4151 5.13388 9.68686 5.3656C9.67031 5.37388 9.65786 5.37797 9.65372 5.37797C9.43441 5.44832 9.21514 5.52694 9.00824 5.61797L16.5227 1.85241L16.6428 1.79038L16.6841 1.76967H16.6883C17.7559 1.1945 18.9641 0.884147 20.3214 0.834492C20.731 0.822078 21.1614 1.03728 21.6124 1.48418C22.0593 1.93107 22.382 2.46071 22.5724 3.07313C22.7338 3.63588 22.7338 4.11173 22.5724 4.50483Z" fill="white"/>
<path d="M16.6841 1.76967C16.6841 1.76967 16.6635 1.77797 16.6428 1.79038L16.6841 1.76967Z" fill="white"/>
<path d="M44.4497 31.331C44.4497 33.9297 44.0235 36.1227 43.1628 37.9103C42.3063 39.6979 41.1394 41.0096 39.6663 41.8496C39.5132 41.9365 39.3559 42.0193 39.1945 42.0979L31.3903 45.9875C32.6276 45.28 33.6538 44.2413 34.4524 42.8634C34.6055 42.6027 34.7503 42.3338 34.8868 42.0482C35.3875 41.0056 35.7434 39.8221 35.9503 38.5021C36.0993 37.5587 36.1737 36.549 36.1737 35.4691C36.1737 32.3697 35.5779 29.1504 34.382 25.8111C34.2041 25.3104 34.0096 24.8014 33.8027 24.2925C33.4261 23.3656 33.0165 22.4594 32.5779 21.578C32.5779 21.5738 32.5737 21.5697 32.5737 21.5656C31.7379 19.8814 30.7861 18.2759 29.7268 16.749C29.011 15.7186 28.2413 14.7173 27.422 13.7573C27.1158 13.3766 26.793 13.1407 26.4579 13.0538C26.3792 13.029 26.2965 13.0166 26.2179 13.0125C26.0938 13.0042 25.982 13.0166 25.8785 13.0456L26.4579 12.7518L29.7268 11.1172L33.9849 8.98621L33.9973 8.97793C34.1339 8.89517 34.2994 8.86207 34.4938 8.87448C34.9159 8.89931 35.3173 9.14755 35.698 9.61927C38.3711 12.7558 40.498 16.269 42.0787 20.1545C43.6594 24.04 44.4497 27.7641 44.4497 31.331Z" fill="white"/>
<path d="M18.1819 16.0745L18.182 25.4097L15.0744 20.0966C14.7723 19.5793 14.3917 19.1862 13.9282 18.9172C13.4648 18.6483 13.0841 18.6027 12.782 18.7724L15.2523 17.5394L18.1819 16.0745Z" fill="white"/>
<path d="M31.8951 27.2304L29.2386 28.7449L22.3738 32.1752C22.3573 32.1545 22.3365 32.1296 22.3199 32.1089L26.851 29.5227C27.1531 29.3531 27.302 29.0014 27.302 28.4676C27.302 28.2648 27.2813 28.0579 27.2358 27.8552C27.1654 27.5324 27.0372 27.2138 26.851 26.8951C26.6317 26.5186 26.3875 26.2166 26.1144 25.9848C25.9779 25.8648 25.833 25.7655 25.6841 25.6828C25.2827 25.4634 24.9392 25.4097 24.6579 25.5255L25.5806 25.0621L29.7268 22.989L30.1241 22.7904C30.1447 22.8276 30.1654 22.869 30.182 22.9062C30.4965 23.5517 30.7903 24.218 31.0634 24.8925C31.382 25.6828 31.6592 26.4607 31.8951 27.2304Z" fill="white"/>
<path d="M22.3199 32.1089L26.851 29.5227C27.1531 29.3531 27.302 29.0014 27.302 28.4676C27.302 28.2648 27.2813 28.0579 27.2358 27.8552C27.1654 27.5324 27.0372 27.2138 26.851 26.8951C26.6317 26.5186 26.3875 26.2166 26.1144 25.9848C25.9779 25.8648 25.833 25.7655 25.6841 25.6828C25.2827 25.4634 24.9392 25.4097 24.6579 25.5255M22.3199 32.1089L20.9627 32.8828M22.3199 32.1089C22.3365 32.1296 22.3573 32.1545 22.3738 32.1752M20.9627 32.8828C20.6358 33.069 20.2551 33.0358 19.8165 32.7834C19.382 32.531 18.9972 32.1213 18.6703 31.5586L12.782 21.4C12.4841 20.8828 12.3268 20.3614 12.3103 19.84C12.302 19.4386 12.3889 19.1365 12.5793 18.9338C12.6372 18.8675 12.7034 18.8179 12.782 18.7724M20.9627 32.8828L22.3738 32.1752M12.782 18.7724C13.0841 18.6027 13.4648 18.6483 13.9282 18.9172C14.3917 19.1862 14.7723 19.5793 15.0744 20.0966L18.182 25.4097M12.782 18.7724L15.2523 17.5394M18.182 25.4097V8.18759C18.182 7.65379 18.3392 7.29793 18.6496 7.12L18.7448 7.07444M18.182 25.4097L18.1819 16.0745L15.2523 17.5394M18.7448 7.07444C19.0427 6.95444 19.3986 7.01242 19.8165 7.25242C20.28 7.52138 20.6689 7.9269 20.9834 8.46483C21.2979 9.0069 21.451 9.54479 21.451 10.0744V27.2966L24.5627 25.571L24.6579 25.5255M18.7448 7.07444L26.9254 2.98211C27.2399 2.80418 27.6289 2.84967 28.0924 3.1145C28.5558 3.38347 28.9448 3.789 29.2592 4.32694C29.5737 4.86901 29.7268 5.4069 29.7268 5.93655V11.1172M24.6579 25.5255L25.5806 25.0621L29.7268 22.989M22.3738 32.1752C24.0994 34.1242 26.0027 35.6966 28.0923 36.9049C29.5034 37.7201 30.8317 38.2704 32.073 38.5518M22.3738 32.1752L29.2386 28.7449L31.8951 27.2304M32.073 38.5518C31.5641 39.8139 30.8109 40.8194 29.822 41.5558C29.5944 41.7338 29.3544 41.891 29.102 42.0358C26.5654 43.4841 23.4703 43.1531 19.8165 41.0428C16.1627 38.9325 13.0675 35.6925 10.5351 31.3187C7.9985 26.9449 6.7282 22.6621 6.7282 18.4704C6.7282 15.7145 7.34471 13.5297 8.56954 11.9076C9.47161 10.7118 10.593 9.92146 11.9378 9.53664C12.422 9.39595 12.9351 9.30487 13.4771 9.27177C13.6095 9.26353 13.7295 9.23043 13.8371 9.17664L13.862 9.16418M32.073 38.5518C32.6275 37.1946 32.9048 35.5394 32.9048 33.5821C32.9048 31.6249 32.5696 29.4235 31.8951 27.2304M13.862 9.16418L16.9737 7.60832M13.862 9.16418C14.0482 9.06073 14.193 8.88694 14.2965 8.6428C14.4579 8.2497 14.4579 7.77384 14.2965 7.21108C14.1061 6.59866 13.7834 6.06905 13.3365 5.62215C13.2827 5.5725 13.2331 5.5228 13.1793 5.47728C12.7862 5.1297 12.4096 4.96004 12.0455 4.97246C11.2013 5.00556 10.4151 5.13388 9.68686 5.3656C9.67031 5.37388 9.65785 5.37797 9.65372 5.37797C9.43441 5.44832 9.21514 5.52694 9.00824 5.61797M16.9737 7.60832C16.9282 7.66211 16.8868 7.7159 16.8454 7.7697C15.6206 9.39177 15.0041 11.5766 15.0041 14.3325C15.0041 15.3959 15.0868 16.4676 15.2523 17.5394M16.9737 7.60832L22.0179 5.08L22.0966 5.0428L22.1172 5.03448C22.3117 4.93517 22.4648 4.75724 22.5724 4.50483C22.7338 4.11173 22.7338 3.63588 22.5724 3.07313C22.382 2.46071 22.0593 1.93107 21.6124 1.48418C21.1614 1.03728 20.731 0.822078 20.3214 0.834492C18.9641 0.884147 17.7559 1.1945 16.6883 1.76967H16.6841M31.3903 45.9875C32.6276 45.28 33.6538 44.2413 34.4524 42.8634C34.6055 42.6027 34.7503 42.3338 34.8868 42.0482C35.3875 41.0056 35.7434 39.8221 35.9503 38.5021C36.0993 37.5587 36.1737 36.5491 36.1737 35.4691C36.1737 32.3697 35.5779 29.1504 34.382 25.8111C34.2041 25.3104 34.0096 24.8014 33.8027 24.2925C33.4261 23.3656 33.0165 22.4594 32.5779 21.578C32.5779 21.5738 32.5737 21.5697 32.5737 21.5656C31.7379 19.8814 30.7861 18.2759 29.7268 16.749C29.011 15.7186 28.2413 14.7173 27.422 13.7573C27.1158 13.3766 26.793 13.1407 26.4579 13.0538C26.3792 13.029 26.2965 13.0166 26.2179 13.0125C26.0938 13.0042 25.982 13.0166 25.8785 13.0456M31.3903 45.9875C29.9172 46.8275 28.1875 47.1669 26.1972 47.0013C24.2068 46.84 22.08 46.1034 19.8165 44.7958C17.5531 43.4882 15.4261 41.771 13.4358 39.6359C11.4454 37.5007 9.71579 35.1628 8.24268 32.6222C6.76958 30.0856 5.60684 27.4249 4.74615 24.6442C3.88546 21.8635 3.45926 19.178 3.45926 16.5794C3.45926 13.0745 4.2289 10.2897 5.76821 8.22487C6.4551 7.30211 7.25372 6.57379 8.15992 6.04414C8.43303 5.88276 8.71445 5.74211 9.00824 5.61797M31.3903 45.9875L39.1945 42.0979C39.3559 42.0193 39.5132 41.9365 39.6663 41.8496C41.1394 41.0096 42.3063 39.6979 43.1628 37.9103C44.0235 36.1227 44.4497 33.9297 44.4497 31.331C44.4497 27.7641 43.6594 24.04 42.0787 20.1545C40.498 16.269 38.3711 12.7558 35.698 9.61927C35.3173 9.14755 34.9159 8.89931 34.4938 8.87448C34.2994 8.86207 34.1339 8.89517 33.9973 8.97793L33.9849 8.98621L29.7268 11.1172M9.00824 5.61797L16.5227 1.85241L16.6428 1.79038M31.8951 27.2304C31.6592 26.4607 31.382 25.6828 31.0634 24.8925C30.7903 24.218 30.4965 23.5517 30.182 22.9062C30.1654 22.869 30.1447 22.8276 30.1241 22.7904M30.1241 22.7904C29.9999 22.5214 29.8634 22.2607 29.7268 22M30.1241 22.7904L29.7268 22.989M29.7268 22C28.7999 20.2166 27.7075 18.5407 26.4579 16.9683C26.3585 16.84 26.2592 16.7159 26.1558 16.5917C25.7751 16.12 25.502 15.5945 25.3365 15.0152C25.1751 14.4359 25.1751 13.96 25.3365 13.5835C25.4151 13.3931 25.5227 13.2483 25.6593 13.1531L25.8579 13.0538L25.8785 13.0456M29.7268 22V22.989M25.8785 13.0456L26.4579 12.7518L29.7268 11.1172M16.6428 1.79038L16.6841 1.76967M16.6428 1.79038C16.6635 1.77797 16.6841 1.76967 16.6841 1.76967" stroke="#27272A" stroke-opacity="0.25" stroke-linecap="round" stroke-linejoin="round"/>
      </svg>