<svg xmlns="http://www.w3.org/2000/svg" viewBox="0 0 48 48">
        <path d="M24.8673 43.8926C24.8673 44.5274 24.6815 44.9507 24.3099 45.1623C23.9331 45.374 23.4738 45.3223 22.9215 45.0023L3.46343 33.7662C2.91117 33.4513 2.44665 32.9662 2.07504 32.3262C1.70342 31.681 1.51764 31.0462 1.51764 30.4113C1.51764 29.7765 1.70342 29.3584 2.07504 29.1416L2.1886 29.0849C2.53957 28.9455 2.96794 29.0127 3.46343 29.3017L22.9215 40.5378C23.4738 40.8526 23.9331 41.3378 24.3099 41.9778C24.6815 42.6229 24.8673 43.2578 24.8673 43.8926Z" fill="white"/>
<path d="M34.07 17.1985C33.9513 16.9765 33.8274 16.7546 33.6984 16.5327C31.9384 13.503 29.8429 11.2114 27.4068 9.65782C27.2106 9.52879 27.0145 9.40497 26.8132 9.29142C24.3151 7.85142 22.1629 7.5417 20.3513 8.37266L19.928 8.58433C19.5822 8.78046 19.2674 9.01266 18.9835 9.28105C18.0958 10.1069 17.5229 11.263 17.2545 12.7443C17.141 13.3843 17.0842 14.0811 17.0842 14.8398C17.0842 15.5985 17.1461 16.4191 17.27 17.2191C17.3784 17.9314 17.5384 18.654 17.7551 19.3817C18.0648 20.4811 18.4984 21.5908 19.0455 22.7108C19.3087 23.263 19.608 23.8204 19.928 24.3778C21.6158 27.2888 23.6132 29.5185 25.9306 31.0669C26.2197 31.263 26.5139 31.4437 26.8132 31.6192C29.5022 33.1727 31.799 33.4101 33.6984 32.3263C35.5874 31.2476 36.5371 29.1727 36.5422 26.0914V26.0708C36.5422 23.1959 35.7164 20.2333 34.07 17.1985ZM31.6287 21.1159L31.5151 21.183L26.8132 23.9133C26.4261 24.1352 25.9719 24.0991 25.4506 23.7998C24.9293 23.5004 24.4803 23.0152 24.088 22.3443L21.9977 18.7365C21.8016 18.401 21.7035 18.081 21.7035 17.7869C21.7035 17.6114 21.7397 17.4669 21.8171 17.3534C21.8532 17.2759 21.9203 17.2192 21.9977 17.1727C22.0958 17.1159 22.2042 17.0901 22.3229 17.0953C22.4364 17.1005 22.5551 17.1365 22.679 17.2036C22.9371 17.3327 23.1642 17.5649 23.3603 17.9004L25.4506 21.5081L30.0597 18.8811L30.2661 18.7623C30.4468 18.6643 30.648 18.6746 30.8803 18.7933H30.8855C30.8855 18.7933 30.9268 18.814 30.9474 18.8243C31.2055 18.974 31.4326 19.2166 31.6287 19.5521C31.8248 19.8876 31.9229 20.2023 31.9229 20.5017C31.9229 20.8011 31.8248 21.0023 31.6287 21.1159Z" fill="white"/>
<path d="M35.1898 38.7314C35.1898 39.3663 35.004 39.7895 34.6324 40.0012L24.3099 45.1623C24.6815 44.9507 24.8673 44.5274 24.8673 43.8926C24.8673 43.2578 24.6815 42.6229 24.3099 41.9778C23.9331 41.3378 23.4738 40.8526 22.9215 40.5378L3.46343 29.3017C2.96794 29.0127 2.53957 28.9455 2.1886 29.0849L6.813 26.7728L18.8853 33.7405C19.4685 34.076 19.9382 34.1276 20.2943 33.885L25.8478 31.1082L33.244 35.3766C33.7962 35.6914 34.2556 36.1766 34.6324 36.8166C35.004 37.4617 35.1898 38.0966 35.1898 38.7314Z" fill="white"/>
<path d="M30.8803 18.7933L30.2041 19.1341L25.4506 21.5081L30.0597 18.8811L30.2661 18.7623C30.4468 18.6643 30.648 18.6746 30.8803 18.7933Z" fill="white"/>
<path d="M31.9229 20.5017C31.9229 20.8011 31.8248 21.0023 31.6287 21.1159L31.5151 21.183L26.8132 23.9133C26.4261 24.1352 25.9719 24.0991 25.4506 23.7998C24.9293 23.5004 24.4803 23.0152 24.088 22.3443L21.9977 18.7365C21.8016 18.401 21.7035 18.081 21.7035 17.7869C21.7035 17.6114 21.7397 17.4669 21.8171 17.3534L22.3229 17.0953C22.4364 17.1005 22.5551 17.1365 22.679 17.2036C22.9371 17.3327 23.1642 17.5649 23.3603 17.9004L25.4506 21.5081L30.2041 19.1341L30.8803 18.7933H30.8855C30.8855 18.7933 30.9268 18.814 30.9474 18.8243C31.2055 18.974 31.4326 19.2166 31.6287 19.5521C31.8248 19.8876 31.9229 20.2023 31.9229 20.5017Z" fill="white"/>
<path d="M17.27 17.2191C17.3784 17.9314 17.5384 18.654 17.7551 19.3817L15.3549 20.5844L13.9459 21.2863C14.3072 21.0592 14.493 20.6617 14.5033 20.0888V20.0476C14.5033 19.4127 14.3175 18.7779 13.9459 18.1328C13.5743 17.4928 13.1098 17.0076 12.5575 16.6927L11.8401 16.2798L10.9627 15.7688L3.46333 11.4385C2.96785 11.1495 2.53947 11.0824 2.1885 11.2218L12.3975 6.11725C12.7691 5.90564 13.2336 5.95722 13.7859 6.27722L18.9835 9.28105C18.0958 10.1069 17.5229 11.263 17.2545 12.7443C17.141 13.3843 17.0842 14.0811 17.0842 14.8398C17.0842 15.5985 17.1461 16.4191 17.27 17.2191Z" fill="white"/>
<path d="M14.5033 20.0476V20.0888C14.493 20.6617 14.3072 21.0592 13.9459 21.2863C13.5743 21.5186 13.1099 21.4772 12.5576 21.1572L6.81827 17.8437L3.46343 15.903C2.91117 15.5882 2.44665 15.1082 2.07504 14.463C1.70342 13.8179 1.51764 13.183 1.51764 12.5482C1.51764 11.9134 1.70342 11.4953 2.07504 11.2785L2.1885 11.2218C2.53947 11.0824 2.96785 11.1495 3.46333 11.4385L10.9627 15.7688L11.8401 16.2798L12.5575 16.6927C13.1098 17.0076 13.5743 17.4928 13.9459 18.1328C14.3175 18.7779 14.5033 19.4127 14.5033 20.0476Z" fill="white"/>
<path d="M25.9306 31.0669L20.2943 33.885C20.6402 33.6476 20.8207 33.245 20.8311 32.6721V32.6308C20.8311 31.9959 20.6401 31.3612 20.2685 30.716C19.8969 30.0708 19.4324 29.5908 18.8853 29.2759L11.8401 25.2088L10.9575 24.6979L3.46333 20.3727C2.96785 20.0837 2.53947 20.0166 2.1885 20.1559L6.81827 17.8437L12.5576 21.1572C13.1099 21.4772 13.5743 21.5186 13.9459 21.2863L15.3549 20.5844L19.0455 22.7108C19.3087 23.263 19.608 23.8204 19.928 24.3778C21.6158 27.2888 23.6132 29.5185 25.9306 31.0669Z" fill="white"/>
<path d="M20.8311 32.6308V32.6721C20.8207 33.245 20.6402 33.6476 20.2943 33.885C19.9382 34.1276 19.4685 34.076 18.8853 33.7405L6.813 26.7728L3.46343 24.8373C2.91117 24.5173 2.44665 24.0373 2.07504 23.3921C1.70342 22.7521 1.51764 22.1121 1.51764 21.4824C1.51764 20.8528 1.70342 20.4243 2.07504 20.2127L2.1885 20.1559C2.53947 20.0166 2.96785 20.0837 3.46333 20.3727L10.9575 24.6979L11.8401 25.2088L18.8853 29.2759C19.4324 29.5908 19.8969 30.0708 20.2685 30.716C20.6401 31.3612 20.8311 31.9959 20.8311 32.6308Z" fill="white"/>
<path d="M46.8649 20.9095C46.8649 24.0011 45.9151 26.0863 44.021 27.165L33.6984 32.3263C35.5874 31.2476 36.5371 29.1727 36.5422 26.0914V26.0708C36.5422 23.1959 35.7164 20.2333 34.07 17.1985C33.9513 16.9765 33.8274 16.7546 33.6984 16.5327C31.9384 13.503 29.8429 11.2114 27.4068 9.65782C27.2106 9.52879 27.0145 9.40497 26.8132 9.29142C24.3151 7.85142 22.1629 7.5417 20.3513 8.37266L30.2507 3.42305C32.15 2.33918 34.4416 2.5766 37.1358 4.13014C39.8248 5.68369 42.1216 8.09911 44.021 11.3714C45.9151 14.6436 46.8649 17.823 46.8649 20.9095Z" fill="white"/>
<path d="M24.3099 45.1623C24.6815 44.9507 24.8673 44.5274 24.8673 43.8926C24.8673 43.2578 24.6815 42.6229 24.3099 41.9778C23.9331 41.3378 23.4738 40.8526 22.9215 40.5378L3.46343 29.3017C2.96794 29.0127 2.53957 28.9455 2.1886 29.0849M24.3099 45.1623C23.9331 45.374 23.4738 45.3223 22.9215 45.0023L3.46343 33.7662C2.91117 33.4513 2.44665 32.9662 2.07504 32.3262C1.70342 31.681 1.51764 31.0462 1.51764 30.4113C1.51764 29.7765 1.70342 29.3584 2.07504 29.1416L2.1886 29.0849M24.3099 45.1623L34.6324 40.0012C35.004 39.7895 35.1898 39.3663 35.1898 38.7314C35.1898 38.0966 35.004 37.4617 34.6324 36.8166C34.2556 36.1766 33.7962 35.6914 33.244 35.3766L25.8478 31.1082L20.2943 33.885M2.1886 29.0849L6.813 26.7728M20.3513 8.37266C22.1629 7.5417 24.3151 7.85142 26.8132 9.29142C27.0145 9.40497 27.2106 9.52879 27.4068 9.65782C29.8429 11.2114 31.9384 13.503 33.6984 16.5327C33.8274 16.7546 33.9513 16.9765 34.07 17.1985C35.7164 20.2333 36.5422 23.1959 36.5422 26.0708V26.0914C36.5371 29.1727 35.5874 31.2476 33.6984 32.3263M20.3513 8.37266L19.928 8.58433C19.5822 8.78046 19.2674 9.01266 18.9835 9.28105M20.3513 8.37266L30.2507 3.42305C32.15 2.33918 34.4416 2.5766 37.1358 4.13014C39.8248 5.68369 42.1216 8.09911 44.021 11.3714C45.9151 14.6436 46.8649 17.823 46.8649 20.9095C46.8649 24.0011 45.9151 26.0863 44.021 27.165L33.6984 32.3263M18.9835 9.28105C18.0958 10.1069 17.5229 11.263 17.2545 12.7443C17.141 13.3843 17.0842 14.0811 17.0842 14.8398C17.0842 15.5985 17.1461 16.4191 17.27 17.2191C17.3784 17.9314 17.5384 18.654 17.7551 19.3817M18.9835 9.28105L13.7859 6.27722C13.2336 5.95722 12.7691 5.90564 12.3975 6.11725L2.1885 11.2218M17.7551 19.3817C18.0648 20.481 18.4984 21.5908 19.0455 22.7108M17.7551 19.3817L15.3549 20.5844M19.0455 22.7108C19.3087 23.263 19.608 23.8204 19.928 24.3778C21.6158 27.2888 23.6132 29.5185 25.9306 31.0669M19.0455 22.7108L15.3549 20.5844M25.9306 31.0669C26.2197 31.263 26.5139 31.4437 26.8132 31.6192C29.5022 33.1727 31.799 33.4101 33.6984 32.3263M25.9306 31.0669L20.2943 33.885M21.8171 17.3534C21.7397 17.4669 21.7035 17.6114 21.7035 17.7869C21.7035 18.0811 21.8016 18.401 21.9977 18.7365L24.088 22.3443C24.4803 23.0152 24.9293 23.5004 25.4506 23.7998C25.9719 24.0991 26.4261 24.1352 26.8132 23.9133L31.5151 21.183L31.6287 21.1159C31.8248 21.0023 31.9229 20.8011 31.9229 20.5017C31.9229 20.2023 31.8248 19.8876 31.6287 19.5521C31.4326 19.2166 31.2055 18.974 30.9474 18.8243C30.9268 18.814 30.8855 18.7933 30.8855 18.7933H30.8803M21.8171 17.3534C21.8532 17.2759 21.9203 17.2192 21.9977 17.1727C22.0958 17.1159 22.2042 17.0901 22.3229 17.0953M21.8171 17.3534L22.3229 17.0953M22.3229 17.0953C22.4364 17.1005 22.5551 17.1365 22.679 17.2036C22.9371 17.3327 23.1642 17.5649 23.3603 17.9004L25.4506 21.5081M25.4506 21.5081L30.0597 18.8811L30.2661 18.7623C30.4468 18.6643 30.648 18.6746 30.8803 18.7933M25.4506 21.5081L30.2041 19.1341L30.8803 18.7933M6.813 26.7728L18.8853 33.7405C19.4685 34.076 19.9382 34.1276 20.2943 33.885M6.813 26.7728L3.46343 24.8373C2.91117 24.5173 2.44665 24.0373 2.07504 23.3921C1.70342 22.7521 1.51764 22.1121 1.51764 21.4824C1.51764 20.8528 1.70342 20.4243 2.07504 20.2127L2.1885 20.1559M20.2943 33.885C20.6402 33.6476 20.8207 33.245 20.8311 32.6721V32.6308C20.8311 31.9959 20.6401 31.3612 20.2685 30.716C19.8969 30.0708 19.4324 29.5908 18.8853 29.2759L11.8401 25.2088L10.9575 24.6979L3.46333 20.3727C2.96785 20.0837 2.53947 20.0166 2.1885 20.1559M15.3549 20.5844L13.9459 21.2863M13.9459 21.2863C14.3072 21.0592 14.493 20.6617 14.5033 20.0888V20.0476C14.5033 19.4127 14.3175 18.7779 13.9459 18.1328C13.5743 17.4928 13.1098 17.0076 12.5575 16.6927L11.8401 16.2798L10.9627 15.7688L3.46333 11.4385C2.96785 11.1495 2.53947 11.0824 2.1885 11.2218M13.9459 21.2863C13.5743 21.5186 13.1099 21.4772 12.5576 21.1572L6.81827 17.8437M2.1885 11.2218L2.07504 11.2785C1.70342 11.4953 1.51764 11.9134 1.51764 12.5482C1.51764 13.183 1.70342 13.8179 2.07504 14.463C2.44665 15.1082 2.91117 15.5882 3.46343 15.903L6.81827 17.8437M6.81827 17.8437L2.1885 20.1559" stroke="#27272A" stroke-opacity="0.25" stroke-linecap="round" stroke-linejoin="round"/>
      </svg>