<svg xmlns="http://www.w3.org/2000/svg" viewBox="0 0 48 48">
        <path d="M45.2949 14.868C44.16 13.2287 42.4597 11.7521 40.198 10.4463C37.9363 9.14053 35.3817 8.16019 32.5383 7.50528C29.6949 6.84629 26.8068 6.5168 23.8739 6.51273C20.941 6.50867 18.0529 6.82595 15.2176 7.47273C12.3824 8.11951 9.83999 9.09172 7.59457 10.3894C5.34507 11.687 3.66098 13.1555 2.54234 14.7907C1.4237 16.43 0.870493 18.0938 0.878628 19.786C0.886764 21.1487 1.25693 22.4951 1.9932 23.8172C2.17218 24.1426 2.37557 24.468 2.5993 24.7894C3.73421 26.4328 5.43457 27.9053 7.69626 29.2111C9.83999 30.4477 12.2441 31.3955 14.9125 32.0463C15.059 32.087 15.2054 32.1236 15.3519 32.1561C15.482 32.1846 15.6081 32.2131 15.7383 32.2416C17.7519 32.685 19.7939 32.9656 21.8563 33.0836C22.5722 33.1243 23.2963 33.1487 24.0203 33.1487C24.9519 33.1487 25.8793 33.1202 26.8027 33.0511C28.7837 32.9168 30.7363 32.6239 32.6725 32.1846C32.7905 32.1561 32.9125 32.1277 33.0305 32.0992C35.7234 31.4605 38.1437 30.5168 40.2996 29.2721C42.5451 27.9744 44.2292 26.506 45.3478 24.8666C45.5471 24.5738 45.7302 24.2768 45.897 23.9799C46.6373 22.6497 47.0116 21.2951 47.0116 19.9243V19.8714C47.0034 18.1751 46.4299 16.5114 45.2949 14.868ZM21.2095 26.0829C20.7742 26.3351 20.2332 26.4572 19.5824 26.4572H16.2874H15.7383H14.3634C13.8752 26.449 13.4685 26.3555 13.139 26.1683C13.0576 26.1195 12.9885 26.0707 12.9274 26.0219C12.7444 25.8592 12.6508 25.6721 12.6468 25.4605C12.6468 25.1758 12.8095 24.9439 13.1308 24.7568C13.3952 24.6022 13.7166 24.5087 14.0949 24.4843C14.1803 24.4761 14.2658 24.4761 14.3552 24.4761H15.7383C15.4169 24.2809 15.1159 24.0775 14.8393 23.8619C14.221 23.3941 13.7085 22.8775 13.3017 22.3202C12.7159 21.5107 12.4312 20.6768 12.4556 19.8144C12.4474 18.9358 12.7281 18.0897 13.2976 17.2721C13.6963 16.6985 14.221 16.1738 14.8759 15.6938C15.1525 15.4904 15.4495 15.2992 15.7708 15.1121C16.202 14.8639 16.6576 14.6402 17.1335 14.445C17.6054 14.2497 18.1139 14.0748 18.659 13.9202C19.0902 13.7941 19.5335 13.7819 19.981 13.8836C20.4285 13.9894 20.7498 14.1724 20.941 14.4409C21.0102 14.5466 21.0468 14.6524 21.0468 14.7541C21.059 14.9046 21.002 15.0551 20.8841 15.2056C20.6847 15.4619 20.3634 15.6531 19.9322 15.7792C19.6068 15.8727 19.3017 15.9866 19.0169 16.1168C18.7322 16.2511 18.4515 16.3975 18.183 16.5521C17.4224 16.9914 16.8488 17.4877 16.4583 18.045C16.0678 18.5982 15.8725 19.1921 15.8766 19.8185C15.8807 20.445 16.1003 21.0511 16.5396 21.6327C16.7674 21.9338 17.0441 22.2185 17.3776 22.4829C17.6827 22.727 18.0325 22.9548 18.423 23.1663L18.4149 22.129C18.4149 21.8483 18.5776 21.6124 18.903 21.4253C19.2285 21.2382 19.6352 21.1446 20.1234 21.1446C20.6115 21.1446 21.0183 21.2382 21.3478 21.4294C21.6732 21.6165 21.84 21.8524 21.84 22.1372L21.8563 25.1473C21.8563 25.5256 21.6407 25.8389 21.2095 26.087V26.0829ZM35.0115 21.828C34.9058 22.0273 34.7796 22.2226 34.6373 22.4138C34.3973 22.7351 34.1207 23.0402 33.8034 23.3331C33.5715 23.5487 33.3193 23.7561 33.0427 23.9514C32.758 24.1589 32.4529 24.3582 32.1234 24.5494C32.0868 24.5697 32.0502 24.59 32.0135 24.6104C31.6108 24.8382 31.1878 25.0416 30.7403 25.2287C30.6671 25.2572 30.5939 25.2897 30.5207 25.3141C30.183 25.4524 29.8373 25.5744 29.4752 25.6843C29.3817 25.7127 29.2881 25.7412 29.1946 25.7697C28.7593 25.8917 28.32 25.9039 27.8725 25.8022C27.421 25.6965 27.0996 25.5134 26.9085 25.245C26.7458 24.9968 26.7702 24.7365 26.9857 24.4721C27.2013 24.2036 27.5268 24.0083 27.962 23.8822C28.2874 23.7887 28.5925 23.6789 28.8773 23.5446C29.162 23.4104 29.4386 23.268 29.7112 23.1094C30.4678 22.6741 31.0413 22.1738 31.4359 21.6205C31.501 21.527 31.558 21.4375 31.6108 21.3439C31.8793 20.8721 32.0135 20.3839 32.0135 19.8633V19.8429C32.0135 19.2165 31.7857 18.6104 31.3342 18.0205C30.8827 17.4307 30.2603 16.906 29.4712 16.4504V17.5324C29.4793 17.8172 29.3166 18.049 28.9912 18.2402C28.6657 18.4273 28.259 18.5209 27.7708 18.5168C27.2827 18.5168 26.8719 18.4233 26.5464 18.2361C26.2169 18.045 26.0542 17.809 26.0542 17.5283L26.038 14.7134V14.5141C26.0339 14.1399 26.2495 13.8266 26.6847 13.5744C27.1159 13.3263 27.661 13.2002 28.3118 13.2002L33.5268 13.2124C34.019 13.2124 34.4257 13.306 34.7512 13.4972C35.0807 13.6843 35.2434 13.9202 35.2434 14.205C35.2474 14.4856 35.0847 14.7216 34.7593 14.9087C34.4339 15.0958 34.0434 15.1975 33.5796 15.2097H32.1111C32.404 15.3765 32.6766 15.5514 32.9329 15.7385C33.6163 16.2185 34.1735 16.7514 34.6088 17.3331C35.2108 18.1304 35.5159 18.9724 35.52 19.8511C35.5241 20.5385 35.3532 21.2016 35.0115 21.828Z" fill="white"/>
<path d="M21.0468 14.75C21.059 14.9005 21.0021 15.051 20.8841 15.2015C20.6848 15.4578 20.3634 15.649 19.9322 15.7751C19.6068 15.8686 19.3017 15.9825 19.017 16.1127C18.7322 16.2469 18.4516 16.3934 18.1831 16.548C17.4224 16.9873 16.8488 17.4836 16.4583 18.0408C16.0678 18.5941 15.8726 19.188 15.8766 19.8144C15.8807 20.4408 16.1004 21.0469 16.5397 21.6286C16.7675 21.9297 17.0441 22.2144 17.3777 22.4788C17.6827 22.7229 18.0326 22.9507 18.4231 23.1622V26.4571L16.2874 26.4572H15.7383V24.4761C15.4169 24.2809 15.1159 24.0775 14.8393 23.8619C14.221 23.3941 13.7085 22.8775 13.3017 22.3202C12.7159 21.5107 12.4312 20.6768 12.4556 19.8144C12.4474 18.9358 12.7281 18.0897 13.2976 17.2721C13.6963 16.6985 14.221 16.1738 14.8759 15.6938C15.1525 15.4904 15.4495 15.2992 15.7708 15.1121C16.202 14.8639 16.6576 14.6402 17.1335 14.445C17.6054 14.2497 18.1139 14.0748 18.659 13.9202C19.0902 13.7941 19.5335 13.7819 19.981 13.8836C20.4285 13.9894 20.7498 14.1724 20.941 14.4409C21.0102 14.5466 21.0468 14.6524 21.0468 14.7541L21.0468 14.75Z" fill="white"/>
<path d="M15.7383 24.472V26.453H14.3634C13.8752 26.4449 13.4685 26.3513 13.139 26.1642C13.0576 26.1154 12.9884 26.0666 12.9274 26.0178C12.7444 25.855 12.6508 25.6679 12.6467 25.4564C12.6467 25.1717 12.8094 24.9398 13.1308 24.7527C13.3952 24.5981 13.7166 24.5045 14.0949 24.4801C14.1803 24.472 14.2658 24.472 14.3552 24.472H15.7383Z" fill="white"/>
<path d="M21.8563 25.1432C21.8563 25.5215 21.6407 25.8348 21.2095 26.0829C20.7742 26.3351 20.2332 26.4572 19.5824 26.4572L18.4231 26.4571V23.1622L18.4149 22.1249C18.4149 21.8442 18.5777 21.6083 18.9031 21.4211C19.2285 21.234 19.6353 21.1405 20.1234 21.1405C20.6116 21.1405 21.0183 21.234 21.3478 21.4252C21.6732 21.6123 21.84 21.8483 21.84 22.133L21.8563 25.1432Z" fill="white"/>
<path d="M35.52 19.8511C35.5241 20.5385 35.3532 21.2016 35.0115 21.828C34.9058 22.0273 34.7796 22.2226 34.6373 22.4138C34.3973 22.7351 34.1207 23.0402 33.8034 23.3331C33.5715 23.5487 33.3193 23.7561 33.0427 23.9514C32.7539 23.7399 32.4447 23.5364 32.1112 23.3452L32.1111 15.2097C32.404 15.3765 32.6766 15.5514 32.9329 15.7385C33.6163 16.2185 34.1735 16.7514 34.6088 17.3331C35.2108 18.1304 35.5159 18.9724 35.52 19.8511Z" fill="white"/>
<path d="M35.2434 14.205C35.2474 14.4856 35.0847 14.7216 34.7593 14.9087C34.4339 15.0958 34.0434 15.1975 33.5796 15.2097H32.1111L32.1112 23.3452C32.4447 23.5364 32.7539 23.7399 33.0427 23.9514C32.758 24.1589 32.4529 24.3582 32.1234 24.5494C32.0868 24.5697 32.0502 24.59 32.0135 24.6104V19.8429C32.0135 19.2165 31.7857 18.6104 31.3342 18.0205C30.8827 17.4307 30.2603 16.906 29.4712 16.4504V17.5324C29.4793 17.8172 29.3166 18.049 28.9912 18.2402C28.6657 18.4273 28.259 18.5209 27.7708 18.5168C27.2827 18.5168 26.8719 18.4233 26.5464 18.2361C26.2169 18.045 26.0542 17.809 26.0542 17.5283L26.038 14.7134V14.5141C26.0339 14.1399 26.2495 13.8266 26.6847 13.5744C27.1159 13.3263 27.661 13.2002 28.3118 13.2002L33.5268 13.2124C34.019 13.2124 34.4257 13.306 34.7512 13.4972C35.0807 13.6843 35.2434 13.9202 35.2434 14.205Z" fill="white"/>
<path d="M32.0135 19.8633V24.6104C31.6108 24.8382 31.1878 25.0416 30.7403 25.2287C30.6671 25.2572 30.5939 25.2897 30.5207 25.3141C30.183 25.4524 29.8373 25.5744 29.4752 25.6843C29.3817 25.7127 29.2881 25.7412 29.1946 25.7697C28.7593 25.8917 28.32 25.9039 27.8725 25.8022C27.421 25.6965 27.0996 25.5134 26.9085 25.245C26.7458 24.9968 26.7702 24.7365 26.9857 24.4721C27.2013 24.2036 27.5268 24.0083 27.962 23.8822C28.2874 23.7887 28.5925 23.6789 28.8773 23.5446C29.162 23.4104 29.4386 23.268 29.7112 23.1094C30.4678 22.6741 31.0413 22.1738 31.4359 21.6205C31.501 21.527 31.558 21.4375 31.6108 21.3439C31.8793 20.8721 32.0135 20.3839 32.0135 19.8633Z" fill="white"/>
<path d="M47.0116 19.9243V28.0069C47.0238 29.6991 46.4665 31.3669 45.3478 33.0021C44.2292 34.6414 42.5451 36.1099 40.2996 37.4075C38.0502 38.7052 35.5078 39.6774 32.6725 40.3201C29.8373 40.9669 26.9532 41.2882 24.0203 41.2842C21.0834 41.276 18.1952 40.9465 15.3519 40.2916C12.5085 39.6326 9.95795 38.6523 7.69626 37.3465C5.43456 36.0408 3.73422 34.5682 2.59931 32.9248C1.46032 31.2855 0.89084 29.6177 0.878637 27.9214L0.878628 19.786C0.886764 21.1487 1.25693 22.4951 1.9932 23.8172C2.17218 24.1426 2.37557 24.468 2.5993 24.7894C3.73421 26.4328 5.43457 27.9053 7.69626 29.2111C9.83999 30.4477 12.2441 31.3955 14.9125 32.0463C15.059 32.087 15.2054 32.1236 15.3519 32.1561C15.482 32.1846 15.6081 32.2131 15.7383 32.2416C17.7519 32.685 19.7939 32.9656 21.8563 33.0836C22.5722 33.1243 23.2963 33.1487 24.0203 33.1487C24.9519 33.1487 25.8793 33.1202 26.8027 33.0511C28.7837 32.9168 30.7363 32.6239 32.6725 32.1846C32.7905 32.1561 32.9125 32.1277 33.0305 32.0992C35.7234 31.4605 38.1437 30.5168 40.2996 29.2721C42.5451 27.9744 44.2292 26.506 45.3478 24.8666C45.5471 24.5738 45.7302 24.2768 45.897 23.9799C46.6373 22.6497 47.0116 21.2951 47.0116 19.9243Z" fill="white"/>
<path d="M0.878628 19.786C0.870493 18.0938 1.4237 16.43 2.54234 14.7907C3.66098 13.1555 5.34507 11.687 7.59457 10.3894C9.83999 9.09172 12.3824 8.11951 15.2176 7.47273C18.0529 6.82595 20.941 6.50867 23.8739 6.51273C26.8068 6.5168 29.6949 6.84629 32.5383 7.50528C35.3817 8.16019 37.9363 9.14053 40.198 10.4463C42.4597 11.7521 44.16 13.2287 45.2949 14.868C46.4299 16.5114 47.0034 18.1751 47.0116 19.8714V19.9243M0.878628 19.786C0.886764 21.1487 1.25693 22.4951 1.9932 23.8172C2.17218 24.1426 2.37557 24.468 2.5993 24.7894C3.73421 26.4327 5.43457 27.9053 7.69626 29.2111C9.83999 30.4477 12.2441 31.3955 14.9125 32.0463C15.059 32.087 15.2054 32.1236 15.3519 32.1561C15.482 32.1846 15.6081 32.2131 15.7383 32.2416C17.7519 32.685 19.7939 32.9656 21.8563 33.0836C22.5722 33.1243 23.2963 33.1487 24.0203 33.1487C24.9519 33.1487 25.8793 33.1202 26.8027 33.0511C28.7837 32.9168 30.7363 32.6239 32.6725 32.1846C32.7905 32.1561 32.9125 32.1277 33.0305 32.0992C35.7234 31.4605 38.1437 30.5168 40.2996 29.2721C42.5451 27.9744 44.2292 26.506 45.3478 24.8666C45.5471 24.5738 45.7302 24.2768 45.897 23.9799C46.6373 22.6497 47.0116 21.2951 47.0116 19.9243M0.878628 19.786L0.878637 27.9214C0.89084 29.6177 1.46032 31.2855 2.59931 32.9248C3.73422 34.5682 5.43456 36.0408 7.69626 37.3465C9.95795 38.6523 12.5085 39.6326 15.3519 40.2916C18.1952 40.9465 21.0834 41.276 24.0203 41.2842C26.9532 41.2882 29.8373 40.9669 32.6725 40.3201C35.5078 39.6774 38.0502 38.7052 40.2996 37.4075C42.5451 36.1099 44.2292 34.6414 45.3478 33.0021C46.4665 31.3669 47.0238 29.6991 47.0116 28.0069V19.9243M21.2095 26.0829C20.7742 26.3351 20.2332 26.4572 19.5824 26.4572M21.2095 26.0829V26.087C21.6407 25.8389 21.8563 25.5256 21.8563 25.1473L21.84 22.1372C21.84 21.8524 21.6732 21.6165 21.3478 21.4294C21.0183 21.2382 20.6115 21.1446 20.1234 21.1446C19.6352 21.1446 19.2285 21.2382 18.903 21.4253C18.5776 21.6124 18.4149 21.8483 18.4149 22.129L18.423 23.1663C18.0325 22.9548 17.6827 22.727 17.3776 22.4829C17.0441 22.2185 16.7674 21.9338 16.5396 21.6327C16.1003 21.0511 15.8807 20.445 15.8766 19.8185C15.8725 19.1921 16.0678 18.5982 16.4583 18.045C16.8488 17.4877 17.4224 16.9914 18.183 16.5521C18.4515 16.3975 18.7322 16.2511 19.0169 16.1168C19.3017 15.9866 19.6068 15.8727 19.9322 15.7792C20.3634 15.6531 20.6847 15.4619 20.8841 15.2056C21.002 15.0551 21.059 14.9046 21.0468 14.7541M21.2095 26.0829C21.6407 25.8348 21.8563 25.5215 21.8563 25.1432L21.84 22.133C21.84 21.8483 21.6732 21.6123 21.3478 21.4252C21.0183 21.234 20.6116 21.1405 20.1234 21.1405C19.6353 21.1405 19.2285 21.234 18.9031 21.4211C18.5777 21.6083 18.4149 21.8442 18.4149 22.1249L18.4231 23.1622M19.5824 26.4572H16.2874M19.5824 26.4572L18.4231 26.4571M16.2874 26.4572H15.7383M16.2874 26.4572L18.4231 26.4571M15.7383 26.4572H14.3634C13.8752 26.449 13.4685 26.3555 13.139 26.1683C13.0576 26.1195 12.9885 26.0707 12.9274 26.0219C12.7444 25.8592 12.6508 25.6721 12.6468 25.4605C12.6468 25.1758 12.8095 24.9439 13.1308 24.7568C13.3952 24.6022 13.7166 24.5087 14.0949 24.4843C14.1803 24.4761 14.2658 24.4761 14.3552 24.4761H15.7383M15.7383 26.4572V24.4761M15.7383 24.4761C15.4169 24.2809 15.1159 24.0775 14.8393 23.8619C14.221 23.3941 13.7085 22.8775 13.3017 22.3202C12.7159 21.5107 12.4312 20.6768 12.4556 19.8144C12.4474 18.9358 12.7281 18.0897 13.2976 17.2721C13.6963 16.6985 14.221 16.1738 14.8759 15.6938C15.1525 15.4904 15.4495 15.2992 15.7708 15.1121C16.202 14.8639 16.6576 14.6402 17.1335 14.445C17.6054 14.2497 18.1139 14.0748 18.659 13.9202C19.0902 13.7941 19.5335 13.7819 19.981 13.8836C20.4285 13.9894 20.7498 14.1724 20.941 14.4409C21.0102 14.5466 21.0468 14.6524 21.0468 14.7541M21.0468 14.7541L21.0468 14.75C21.059 14.9005 21.0021 15.051 20.8841 15.2015C20.6848 15.4578 20.3634 15.649 19.9322 15.7751C19.6068 15.8686 19.3017 15.9825 19.017 16.1127C18.7322 16.2469 18.4516 16.3934 18.1831 16.548C17.4224 16.9873 16.8488 17.4836 16.4583 18.0408C16.0678 18.5941 15.8726 19.188 15.8766 19.8144C15.8807 20.4408 16.1004 21.0469 16.5397 21.6286C16.7675 21.9297 17.0441 22.2144 17.3777 22.4788C17.6827 22.7229 18.0326 22.9507 18.4231 23.1622M33.0427 23.9514C33.3193 23.7561 33.5715 23.5487 33.8034 23.3331C34.1207 23.0402 34.3973 22.7351 34.6373 22.4138C34.7796 22.2226 34.9058 22.0273 35.0115 21.828C35.3532 21.2016 35.5241 20.5385 35.52 19.8511C35.5159 18.9724 35.2108 18.1304 34.6088 17.3331C34.1735 16.7514 33.6163 16.2185 32.9329 15.7385C32.6766 15.5514 32.404 15.3765 32.1111 15.2097M33.0427 23.9514C32.758 24.1589 32.4529 24.3582 32.1234 24.5494C32.0868 24.5697 32.0502 24.59 32.0135 24.6104M33.0427 23.9514C32.7539 23.7399 32.4447 23.5364 32.1112 23.3452L32.1111 15.2097M32.0135 24.6104C31.6108 24.8382 31.1878 25.0416 30.7403 25.2287C30.6671 25.2572 30.5939 25.2897 30.5207 25.3141C30.183 25.4524 29.8373 25.5744 29.4752 25.6843C29.3817 25.7127 29.2881 25.7412 29.1946 25.7697C28.7593 25.8917 28.32 25.9039 27.8725 25.8022C27.421 25.6965 27.0996 25.5134 26.9085 25.245C26.7458 24.9968 26.7702 24.7365 26.9857 24.4721C27.2013 24.2036 27.5268 24.0083 27.962 23.8822C28.2874 23.7887 28.5925 23.6789 28.8773 23.5446C29.162 23.4104 29.4386 23.268 29.7112 23.1094C30.4678 22.6741 31.0413 22.1738 31.4359 21.6205C31.501 21.527 31.558 21.4375 31.6108 21.3439C31.8793 20.8721 32.0135 20.3839 32.0135 19.8633M32.0135 24.6104V19.8429M32.0135 24.6104V19.8633M32.0135 19.8633V19.8429M32.0135 19.8429C32.0135 19.2165 31.7857 18.6104 31.3342 18.0205C30.8827 17.4307 30.2603 16.906 29.4712 16.4504V17.5324C29.4793 17.8172 29.3166 18.049 28.9912 18.2402C28.6657 18.4273 28.259 18.5209 27.7708 18.5168C27.2827 18.5168 26.8719 18.4233 26.5464 18.2361C26.2169 18.045 26.0542 17.809 26.0542 17.5283L26.038 14.7134V14.5141C26.0339 14.1399 26.2495 13.8266 26.6847 13.5744C27.1159 13.3263 27.661 13.2002 28.3118 13.2002L33.5268 13.2124C34.019 13.2124 34.4257 13.306 34.7512 13.4972C35.0807 13.6843 35.2434 13.9202 35.2434 14.205C35.2474 14.4856 35.0847 14.7216 34.7593 14.9087C34.4339 15.0958 34.0434 15.1975 33.5796 15.2097H32.1111M18.4231 23.1622V26.4571M15.7383 24.472V26.453H14.3634C13.8752 26.4449 13.4685 26.3513 13.139 26.1642C13.0576 26.1154 12.9884 26.0666 12.9274 26.0178C12.7444 25.855 12.6508 25.6679 12.6467 25.4564C12.6467 25.1717 12.8094 24.9398 13.1308 24.7527C13.3952 24.5981 13.7166 24.5045 14.0949 24.4801C14.1803 24.472 14.2658 24.472 14.3552 24.472H15.7383Z" stroke="#27272A" stroke-opacity="0.25" stroke-linecap="round" stroke-linejoin="round"/>
      </svg>