<svg xmlns="http://www.w3.org/2000/svg" viewBox="0 0 48 48">
        <path d="M31.2073 18.9678C31.1168 18.2793 30.8611 17.5711 30.4401 16.8471C30.027 16.1311 29.5431 15.5567 29.0001 15.1357C28.8349 15.0058 28.6657 14.8956 28.4926 14.7933L11.9326 5.23272C11.1732 4.79207 10.5241 4.72911 9.98111 5.036C9.44209 5.34289 9.17059 5.93305 9.17059 6.80649V32.1442C9.17059 33.0137 9.44209 33.9147 9.98111 34.8471C10.5241 35.7796 11.1732 36.4642 11.9326 36.9049L28.4926 46.4654C29.2519 46.9022 29.9011 46.969 30.4401 46.6622C30.9831 46.3513 31.2506 45.7612 31.2506 44.8917V19.554C31.2506 19.3612 31.2388 19.1645 31.2073 18.9678ZM17.0394 17.0596C17.0394 17.0596 17.0276 17.0596 17.0197 17.0635L17.0041 17.0714L16.9687 17.0871C16.831 17.1658 16.7601 17.3114 16.7601 17.5199V27.419C16.7601 27.7612 16.6657 27.9894 16.469 28.0996C16.2722 28.2137 16.0244 28.1822 15.7254 28.0091C15.4264 27.836 15.1824 27.5802 14.9857 27.2458C14.789 26.9074 14.6906 26.5691 14.6906 26.2228V16.3278C14.6906 15.4543 14.9621 14.8642 15.5011 14.5573C15.9418 14.3094 16.4532 14.3015 17.0394 14.5494C17.1732 14.6005 17.3109 14.6714 17.4526 14.754L19.3962 15.8753L20.5568 16.5442C20.8558 16.7173 21.1038 16.973 21.3005 17.3114C21.4933 17.6497 21.5916 17.9881 21.5916 18.3304C21.5916 18.6727 21.4933 18.9009 21.3005 19.0111C21.1038 19.1252 20.8558 19.0937 20.5568 18.9206L17.4526 17.1304C17.2991 17.0399 17.1614 17.0163 17.0394 17.0596ZM25.7306 36.9521C25.7306 37.4006 25.6008 37.7035 25.3372 37.8531C25.0697 38.0026 24.7431 37.9671 24.3536 37.7389L20.2106 35.3507C19.8211 35.1225 19.4946 34.7842 19.227 34.3278C18.9634 33.8714 18.8336 33.419 18.8336 32.9704V21.8832C18.8336 21.4346 18.9634 21.1357 19.227 20.9862C19.4946 20.8327 19.8211 20.872 20.2106 21.0963L24.3536 23.4885C24.4441 23.5396 24.5345 23.6025 24.6172 23.6655C24.8926 23.8819 25.1326 24.1612 25.3372 24.5114C25.6008 24.9678 25.7306 25.4202 25.7306 25.8687V36.9521Z" fill="white"/>
<path d="M25.7306 25.8687V36.9521C25.7306 37.4006 25.6008 37.7035 25.3372 37.8531C25.0697 38.0026 24.7431 37.9671 24.3536 37.7389L20.2106 35.3507C19.8211 35.1225 19.4946 34.7842 19.227 34.3278C18.9634 33.8714 18.8336 33.419 18.8336 32.9704V21.8832C18.8336 21.4346 18.9634 21.1357 19.227 20.9862C19.4946 20.8327 19.8211 20.872 20.2106 21.0963L24.3536 23.4885C24.4441 23.5396 24.5345 23.6025 24.6172 23.6655C24.8926 23.8819 25.1326 24.1612 25.3372 24.5114C25.6008 24.9678 25.7306 25.4202 25.7306 25.8687Z" fill="white"/>
<path d="M19.3962 15.8753L17.0399 17.0518L17.0197 17.0635L17.0041 17.0714L16.9687 17.0871C16.831 17.1658 16.7601 17.3114 16.7601 17.5199V27.419C16.7601 27.7612 16.6657 27.9894 16.469 28.0996C16.2722 28.2137 16.0244 28.1822 15.7254 28.0091C15.4264 27.836 15.1824 27.5802 14.9857 27.2458C14.789 26.9074 14.6906 26.5691 14.6906 26.2228V16.3278C14.6906 15.4543 14.9621 14.8642 15.5011 14.5573C15.9418 14.3094 16.4532 14.3015 17.0394 14.5494C17.1732 14.6005 17.3109 14.6714 17.4526 14.754L19.3962 15.8753Z" fill="white"/>
<path d="M21.5916 18.3304C21.5916 18.6727 21.4933 18.9009 21.3005 19.0111C21.1038 19.1252 20.8558 19.0937 20.5568 18.9206L17.4526 17.1304C17.2991 17.0399 17.1614 17.0163 17.0394 17.0596L17.0399 17.0518L19.3962 15.8753L20.5568 16.5442C20.8558 16.7173 21.1038 16.973 21.3005 17.3114C21.4933 17.6497 21.5916 17.9881 21.5916 18.3304Z" fill="white"/>
<path d="M39.1197 15.6196V40.9572C39.1197 41.8267 38.8521 42.4169 38.3092 42.7277L38.14 42.8103L30.4401 46.6622C30.9831 46.3513 31.2506 45.7612 31.2506 44.8917V19.554C31.2506 19.3612 31.2388 19.1645 31.2073 18.9678C31.1168 18.2793 30.8611 17.5711 30.4401 16.8471C30.027 16.1311 29.5431 15.5567 29.0001 15.1357C28.8349 15.0058 28.6657 14.8956 28.4926 14.7933L11.9326 5.23272C11.1732 4.79207 10.5241 4.72911 9.98111 5.036L17.8501 1.10156C18.3931 0.794676 19.0423 0.857627 19.8016 1.29828L36.3617 10.8589C37.121 11.2956 37.7701 11.9803 38.3092 12.9127C38.8521 13.8452 39.1197 14.7501 39.1197 15.6196Z" fill="white"/>
<path d="M9.98111 5.036C10.5241 4.72911 11.1732 4.79207 11.9326 5.23272L28.4926 14.7933C28.6657 14.8956 28.8349 15.0058 29.0001 15.1357C29.5431 15.5567 30.027 16.1311 30.4401 16.8471C30.8611 17.5711 31.1168 18.2793 31.2073 18.9678C31.2388 19.1645 31.2506 19.3612 31.2506 19.554V44.8917C31.2506 45.7612 30.9831 46.3513 30.4401 46.6622M9.98111 5.036C9.44209 5.34289 9.17059 5.93305 9.17059 6.80649V32.1442C9.17059 33.0137 9.44209 33.9147 9.98111 34.8471C10.5241 35.7796 11.1732 36.4642 11.9326 36.9049L28.4926 46.4654C29.2519 46.9022 29.9011 46.969 30.4401 46.6622M9.98111 5.036L17.8501 1.10156C18.3931 0.794676 19.0423 0.857627 19.8016 1.29828L36.3617 10.8589C37.121 11.2956 37.7701 11.9803 38.3092 12.9127C38.8521 13.8452 39.1197 14.7501 39.1197 15.6196V40.9572C39.1197 41.8267 38.8521 42.4169 38.3092 42.7277L38.14 42.8103L30.4401 46.6622M17.0394 17.0596C17.0394 17.0596 17.0276 17.0596 17.0197 17.0635M17.0394 17.0596C17.1614 17.0163 17.2991 17.0399 17.4526 17.1304L20.5568 18.9206C20.8558 19.0937 21.1038 19.1252 21.3005 19.0111C21.4933 18.9009 21.5916 18.6727 21.5916 18.3304C21.5916 17.9881 21.4933 17.6497 21.3005 17.3114C21.1038 16.973 20.8558 16.7173 20.5568 16.5442L19.3962 15.8753M17.0394 17.0596L17.0399 17.0518M17.0197 17.0635L17.0041 17.0714L16.9687 17.0871C16.831 17.1658 16.7601 17.3114 16.7601 17.5199V27.419C16.7601 27.7612 16.6657 27.9894 16.469 28.0996C16.2722 28.2137 16.0244 28.1822 15.7254 28.0091C15.4264 27.836 15.1824 27.5802 14.9857 27.2458C14.789 26.9074 14.6906 26.5691 14.6906 26.2228V16.3278C14.6906 15.4543 14.9621 14.8642 15.5011 14.5573C15.9418 14.3094 16.4532 14.3015 17.0394 14.5494C17.1732 14.6005 17.3109 14.6714 17.4526 14.754L19.3962 15.8753M17.0197 17.0635L17.0399 17.0518M19.3962 15.8753L17.0399 17.0518M25.7306 36.9521C25.7306 37.4006 25.6008 37.7035 25.3372 37.8531C25.0697 38.0026 24.7431 37.9671 24.3536 37.7389L20.2106 35.3507C19.8211 35.1225 19.4946 34.7842 19.227 34.3278C18.9634 33.8714 18.8336 33.419 18.8336 32.9704V21.8832C18.8336 21.4346 18.9634 21.1357 19.227 20.9862C19.4946 20.8327 19.8211 20.872 20.2106 21.0963L24.3536 23.4885C24.4441 23.5396 24.5345 23.6025 24.6172 23.6655C24.8926 23.8819 25.1326 24.1612 25.3372 24.5114C25.6008 24.9678 25.7306 25.4202 25.7306 25.8687V36.9521Z" stroke="#27272A" stroke-opacity="0.25" stroke-linecap="round" stroke-linejoin="round"/>
      </svg>