<svg xmlns="http://www.w3.org/2000/svg" viewBox="0 0 48 48">
        <path d="M5.1935 5.63444L4.77406 5.84201C4.91244 5.76417 5.0508 5.69066 5.1935 5.63444Z" fill="white"/>
<path d="M26.9966 11.1263L26.4777 12.9123L23.0788 14.6117C22.7113 14.8063 22.4431 15.1653 22.2702 15.6928L19.5848 23.295L22.4907 24.9728C22.7156 25.1026 22.9231 25.2626 23.1134 25.4485L21.3447 26.335L18.3913 24.6312C17.8075 24.2939 17.3447 23.762 17.0031 23.0442C16.6658 22.3263 16.5707 21.6734 16.7177 21.0853L18.348 15.4507C18.7588 14.0712 18.2313 12.5274 16.761 10.8193C15.295 9.1112 13.5912 7.69715 11.6496 6.57715C11.3296 6.3912 11.0183 6.22688 10.7113 6.08417C8.60098 5.06796 6.76325 4.92093 5.1935 5.63444L13.4226 1.51767C15.3037 0.449567 17.5955 0.691733 20.2982 2.25281C22.2399 3.37281 23.9437 4.78688 25.4096 6.49499C26.8799 8.20309 27.4074 9.74688 26.9966 11.1263Z" fill="white"/>
<path d="M24.1686 28.5707L20.9037 39.0788C20.8475 39.282 20.7091 39.3036 20.4886 39.1393C20.2681 38.9793 20.1729 38.7717 20.1988 38.5209L21.3447 26.335L23.1134 25.4485C23.4204 25.7555 23.6843 26.1361 23.9005 26.5988C24.2551 27.3426 24.3416 27.9999 24.1686 28.5707Z" fill="white"/>
<path d="M37.2108 32.4626C37.2108 33.9458 36.9772 35.2777 36.5059 36.4539C36.0389 37.6344 35.2216 38.7631 34.0627 39.8485C33.2584 40.5966 32.2638 41.3447 31.0832 42.0928C30.5557 42.4258 29.9892 42.7588 29.3881 43.0917C29.1459 43.2258 28.8994 43.3599 28.64 43.4983C26.8194 44.467 24.5881 45.5048 21.9632 46.6205C21.6389 46.7675 21.2713 46.8107 20.8605 46.7416C20.4497 46.6724 20.0389 46.521 19.6281 46.2832C19.2173 46.0453 18.8108 45.7253 18.4173 45.3275C18.0194 44.9297 17.6605 44.4713 17.3362 43.948C14.1319 38.8626 11.5329 34.6377 9.53508 31.2734C7.53724 27.9134 5.97184 25.0723 4.83888 22.7501C3.71023 20.428 2.94486 18.4604 2.54702 16.8474C2.1535 15.2388 1.95459 13.6561 1.95459 12.1036C1.95459 9.00309 2.89298 6.91444 4.77406 5.84201L5.1935 5.63444C6.76325 4.92093 8.60098 5.06796 10.7113 6.08417C11.0183 6.22688 11.3296 6.3912 11.6496 6.57715C13.5912 7.69715 15.295 9.1112 16.761 10.8193C18.2313 12.5274 18.7588 14.0712 18.348 15.4507L16.7177 21.0853C16.5707 21.6734 16.6658 22.3263 17.0031 23.0442C17.3447 23.762 17.8075 24.2939 18.3913 24.6312L21.3447 26.335L20.1988 38.5209C20.1729 38.7717 20.2681 38.9793 20.4886 39.1393C20.7091 39.3036 20.8475 39.282 20.9037 39.0788L24.1686 28.5707C24.3416 27.9999 24.2551 27.3426 23.9005 26.5988C23.6843 26.1361 23.4204 25.7555 23.1134 25.4485C22.9231 25.2626 22.7156 25.1026 22.4907 24.9728L19.5848 23.295L22.2702 15.6928C22.4431 15.1653 22.7113 14.8063 23.0788 14.6117L23.1827 14.5598C23.4897 14.4301 23.8616 14.4042 24.2983 14.4863C24.8172 14.5815 25.3492 14.7371 25.8897 14.949C26.4216 15.1566 26.9622 15.4161 27.5157 15.7361C28.0346 16.0388 28.5362 16.3674 29.0249 16.7306C31.0832 18.2528 32.8735 20.3242 34.3913 22.9447C36.2724 26.188 37.2108 29.362 37.2108 32.4626Z" fill="white"/>
<path d="M45.8594 28.1382C45.8594 29.6214 45.6259 30.9534 45.1546 32.1296C44.6876 33.3101 43.8702 34.4388 42.7113 35.5242C41.548 36.6053 39.9912 37.6863 38.0367 38.7674C36.7696 39.4723 35.2735 40.2161 33.561 40.9988H33.5567L28.64 43.4983C28.8994 43.3599 29.1459 43.2258 29.3881 43.0917C29.9892 42.7588 30.5557 42.4258 31.0832 42.0928C32.2638 41.3447 33.2584 40.5966 34.0627 39.8485C35.2216 38.7631 36.0389 37.6344 36.5059 36.4539C36.9772 35.2777 37.2108 33.9458 37.2108 32.4626C37.2108 29.362 36.2724 26.188 34.3913 22.9447C32.8735 20.3242 31.0832 18.2528 29.0249 16.7306C28.5362 16.3674 28.0346 16.0388 27.5157 15.7361C26.9622 15.4161 26.4216 15.1566 25.8897 14.949C25.3492 14.7371 24.8172 14.5815 24.2983 14.4863C23.8616 14.4042 23.4897 14.4301 23.1827 14.5598L26.4777 12.9123L31.7621 10.2744C32.0821 10.1101 32.4799 10.0755 32.9469 10.162C33.9761 10.3523 35.0486 10.7674 36.1643 11.4117C38.867 12.9728 41.1589 15.3771 43.0399 18.6204C44.9211 21.8636 45.8594 25.0376 45.8594 28.1382Z" fill="white"/>
<path d="M5.1935 5.63444L4.77406 5.84201M5.1935 5.63444C5.0508 5.69066 4.91244 5.76417 4.77406 5.84201M5.1935 5.63444C6.76325 4.92093 8.60098 5.06796 10.7113 6.08417C11.0183 6.22688 11.3296 6.3912 11.6496 6.57715C13.5912 7.69715 15.295 9.1112 16.761 10.8193C18.2313 12.5274 18.7588 14.0712 18.348 15.4507L16.7177 21.0853C16.5707 21.6734 16.6658 22.3263 17.0031 23.0442C17.3447 23.762 17.8075 24.2939 18.3913 24.6312L21.3447 26.335M5.1935 5.63444L13.4226 1.51767C15.3037 0.449567 17.5955 0.691733 20.2982 2.25281C22.2399 3.37281 23.9437 4.78688 25.4096 6.49499C26.8799 8.20309 27.4074 9.74688 26.9966 11.1263L26.4777 12.9123M4.77406 5.84201C2.89298 6.91444 1.95459 9.00309 1.95459 12.1036C1.95459 13.6561 2.1535 15.2388 2.54702 16.8474C2.94486 18.4604 3.71023 20.428 4.83888 22.7501C5.97184 25.0723 7.53724 27.9134 9.53508 31.2734C11.5329 34.6377 14.1319 38.8626 17.3362 43.948C17.6605 44.4713 18.0194 44.9297 18.4173 45.3275C18.8108 45.7253 19.2173 46.0453 19.6281 46.2832C20.0389 46.521 20.4497 46.6724 20.8605 46.7416C21.2713 46.8107 21.6389 46.7675 21.9632 46.6205C24.5881 45.5048 26.8194 44.467 28.64 43.4983M26.4777 12.9123L23.0788 14.6117M26.4777 12.9123L23.1827 14.5598M26.4777 12.9123L31.7621 10.2744C32.0821 10.1101 32.4799 10.0755 32.9469 10.162C33.9761 10.3523 35.0486 10.7674 36.1643 11.4117C38.867 12.9728 41.1589 15.3771 43.0399 18.6204C44.9211 21.8636 45.8594 25.0376 45.8594 28.1382C45.8594 29.6214 45.6259 30.9534 45.1546 32.1296C44.6876 33.3101 43.8702 34.4388 42.7113 35.5242C41.548 36.6053 39.9913 37.6863 38.0367 38.7674C36.7696 39.4723 35.2735 40.2161 33.561 40.9988H33.5567L28.64 43.4983M23.0788 14.6117C22.7113 14.8063 22.4431 15.1653 22.2702 15.6928L19.5848 23.295L22.4907 24.9728C22.7156 25.1026 22.9231 25.2626 23.1134 25.4485M23.0788 14.6117L23.1827 14.5598M23.1134 25.4485L21.3447 26.335M23.1134 25.4485C23.4204 25.7555 23.6843 26.1361 23.9005 26.5988C24.2551 27.3426 24.3416 27.9999 24.1686 28.5707L20.9037 39.0788C20.8475 39.282 20.7091 39.3036 20.4886 39.1393C20.2681 38.9793 20.1729 38.7717 20.1988 38.5209L21.3447 26.335M28.64 43.4983C28.8994 43.3599 29.1459 43.2258 29.3881 43.0917C29.9892 42.7588 30.5557 42.4258 31.0832 42.0928C32.2638 41.3447 33.2584 40.5966 34.0627 39.8485C35.2216 38.7631 36.0389 37.6344 36.5059 36.4539C36.9772 35.2777 37.2108 33.9458 37.2108 32.4626C37.2108 29.362 36.2724 26.188 34.3913 22.9447C32.8735 20.3242 31.0832 18.2528 29.0249 16.7306C28.5362 16.3674 28.0346 16.0388 27.5157 15.7361C26.9621 15.4161 26.4216 15.1566 25.8897 14.949C25.3492 14.7371 24.8172 14.5815 24.2983 14.4863C23.8616 14.4042 23.4897 14.4301 23.1827 14.5598" stroke="#27272A" stroke-opacity="0.25" stroke-linecap="round" stroke-linejoin="round"/>
      </svg>