<svg xmlns="http://www.w3.org/2000/svg" viewBox="0 0 48 48">
        <path d="M27.258 38.9249V45.0666C27.258 45.9095 26.9972 46.484 26.4718 46.7825C25.9502 47.0811 25.3191 47.0169 24.5821 46.5936L11.2026 38.8644C10.4655 38.4411 9.83437 37.7759 9.31279 36.8726C8.78744 35.9693 8.52664 35.0962 8.52664 34.2496V6.61368C8.52664 5.76707 8.78744 5.19636 9.31279 4.89778L9.47909 4.81463C9.96665 4.61431 10.5411 4.70502 11.2026 5.08675L18.7616 9.44833L19.2303 9.72045C19.6082 9.93967 19.9257 10.2723 20.1827 10.7145C20.4397 11.1567 20.5682 11.5951 20.5682 12.0297V16.637C20.5682 17.0716 20.4397 17.3627 20.1827 17.5063C19.9257 17.6537 19.6082 17.6159 19.2303 17.4005L18.7616 17.1283L11.2026 12.763V31.1882L24.5821 38.9136V37.379C24.5821 36.9444 24.7106 36.6534 24.9676 36.506L25.047 36.4682C25.2889 36.3699 25.5799 36.419 25.92 36.6156C26.298 36.8348 26.6192 37.1674 26.8724 37.6096C27.1295 38.0518 27.258 38.4903 27.258 38.9249Z" fill="white"/>
<path d="M32.0428 29.4005C32.0428 29.8389 31.9181 30.1261 31.6762 30.266L27.6661 32.5488L26.8573 33.0099C26.5889 33.1649 26.279 33.1384 25.92 32.9305C25.5647 32.7264 25.251 32.3901 24.9826 31.929L24.1738 30.5343L20.1675 23.6216C19.9219 23.1982 19.7971 22.7674 19.7971 22.3327C19.7971 21.8981 19.9219 21.6108 20.1675 21.471L20.2507 21.4294C20.485 21.3425 20.7647 21.3916 21.1048 21.5882C21.4828 21.8074 21.7965 22.1286 22.0384 22.5519L24.582 26.9362V17.4194C24.582 16.9847 24.7105 16.6937 24.9675 16.5463L25.0469 16.5085C25.2888 16.4064 25.5798 16.4594 25.92 16.6559C26.2979 16.8751 26.6192 17.2039 26.8724 17.6461C26.9442 17.7708 27.0085 17.8993 27.0614 18.0241C27.1937 18.3378 27.2579 18.6515 27.2579 18.9614V28.482L29.8015 27.0345L29.8847 26.9929C30.119 26.906 30.3987 26.9551 30.7389 27.1516C31.1168 27.3708 31.4305 27.6921 31.6762 28.1154C31.9181 28.5387 32.0428 28.9658 32.0428 29.4005Z" fill="white"/>
<path d="M27.6661 32.5488L26.8573 33.0099L27.7191 32.5791L27.6661 32.5488Z" fill="white"/>
<path d="M18.7616 17.1283L18.7616 27.4087C18.7616 27.4087 17.5446 28.0399 16.0857 28.7844C14.1015 29.7973 11.6636 31.0257 11.2026 31.1882V12.763L18.7616 17.1283Z" fill="white"/>
<path d="M34.817 35.1454V41.2871C34.817 42.1299 34.5562 42.7044 34.0309 43.003L26.4718 46.7825C26.9972 46.484 27.258 45.9095 27.258 45.0666V38.9249C27.258 38.4903 27.1295 38.0518 26.8724 37.6096C26.6192 37.1674 26.298 36.8348 25.92 36.6156C25.5799 36.419 25.2889 36.3699 25.047 36.4682L30.085 33.9473L32.5266 32.7265C32.7836 32.5829 33.1011 32.6169 33.4791 32.8361C33.857 33.0553 34.1783 33.3879 34.4315 33.8301C34.6885 34.2723 34.817 34.7107 34.817 35.1454Z" fill="white"/>
<path d="M30.085 33.9473L25.047 36.4682L24.9676 36.506C24.7106 36.6534 24.5821 36.9444 24.5821 37.379V38.9136L11.2026 31.1882C11.6636 31.0257 14.1015 29.7973 16.0857 28.7844C17.5446 28.0399 18.7616 27.4087 18.7616 27.4087L24.1738 30.5343L24.9826 31.929C25.251 32.3901 25.5647 32.7264 25.92 32.9305C26.279 33.1384 26.5889 33.1649 26.8573 33.0099L27.7191 32.5791L30.085 33.9473Z" fill="white"/>
<path d="M39.602 25.6209C39.602 26.0594 39.4772 26.3466 39.2354 26.4864L34.4165 29.2304L27.7191 32.5791L27.6661 32.5488L31.6762 30.266C31.9181 30.1261 32.0428 29.8389 32.0428 29.4005C32.0428 28.962 31.9181 28.5387 31.6762 28.1154C31.4305 27.6921 31.1168 27.3708 30.7389 27.1516C30.3987 26.9551 30.119 26.906 29.8847 26.9929L34.8171 24.5286L37.3607 23.2549C37.6064 23.1151 37.9163 23.1529 38.298 23.3721C38.676 23.5913 38.9897 23.9126 39.2354 24.3359C39.4772 24.7592 39.602 25.1863 39.602 25.6209Z" fill="white"/>
<path d="M28.1272 8.25026V12.8575C28.1272 13.2921 27.9988 13.5832 27.7418 13.7268L27.6624 13.7646L20.1827 17.5063C20.4397 17.3627 20.5682 17.0716 20.5682 16.637V12.0297C20.5682 11.5951 20.4397 11.1567 20.1827 10.7145C19.9257 10.2723 19.6082 9.93967 19.2303 9.72045L18.7616 9.44833L11.2026 5.08675C10.5411 4.70502 9.96665 4.61431 9.47909 4.81463L16.8719 1.1183C17.3934 0.819716 18.0246 0.880188 18.7616 1.30728L26.7893 5.94096C27.1673 6.16018 27.4848 6.49278 27.7418 6.93498C27.9988 7.37718 28.1272 7.81561 28.1272 8.25026Z" fill="white"/>
<path d="M34.817 15.1818L34.8171 24.5286L29.8847 26.9929L29.8015 27.0345L27.2579 28.482V18.9614C27.2579 18.6515 27.1937 18.3378 27.0614 18.0241C27.0085 17.8993 26.9442 17.7708 26.8724 17.6461C26.6192 17.2039 26.2979 16.8751 25.92 16.6559C25.5798 16.4594 25.2888 16.4064 25.0469 16.5085L32.5266 12.7667C32.7836 12.6193 33.1011 12.6571 33.4791 12.8763C33.857 13.0955 34.1783 13.4244 34.4315 13.8666C34.6885 14.3088 34.817 14.7472 34.817 15.1818Z" fill="white"/>
<path d="M24.5821 19.2639L24.582 26.9362L22.0384 22.5519C21.7965 22.1286 21.4828 21.8074 21.1048 21.5882C20.7647 21.3916 20.485 21.3425 20.2507 21.4294L24.5821 19.2639Z" fill="white"/>
<path d="M26.4718 46.7825C26.9972 46.484 27.258 45.9095 27.258 45.0666V38.9249C27.258 38.4903 27.1295 38.0518 26.8724 37.6096C26.6192 37.1674 26.298 36.8348 25.92 36.6156C25.5799 36.419 25.2889 36.3699 25.047 36.4682M26.4718 46.7825C25.9502 47.0811 25.3191 47.0169 24.5821 46.5936L11.2026 38.8644C10.4655 38.4411 9.83437 37.7759 9.31279 36.8726C8.78744 35.9693 8.52664 35.0962 8.52664 34.2496V6.61368C8.52664 5.76707 8.78744 5.19636 9.31279 4.89778L9.47909 4.81463M26.4718 46.7825L34.0309 43.003C34.5562 42.7044 34.817 42.1299 34.817 41.2871V35.1454C34.817 34.7107 34.6885 34.2723 34.4315 33.8301C34.1783 33.3879 33.857 33.0553 33.4791 32.8361C33.1011 32.6169 32.7836 32.5829 32.5266 32.7265L30.085 33.9473M9.47909 4.81463C9.96665 4.61431 10.5411 4.70502 11.2026 5.08675L18.7616 9.44833L19.2303 9.72045C19.6082 9.93967 19.9257 10.2723 20.1827 10.7145C20.4397 11.1567 20.5682 11.5951 20.5682 12.0297V16.637C20.5682 17.0716 20.4397 17.3627 20.1827 17.5063M9.47909 4.81463L16.8719 1.1183C17.3934 0.819716 18.0246 0.880188 18.7616 1.30728L26.7893 5.94096C27.1673 6.16018 27.4848 6.49278 27.7418 6.93498C27.9988 7.37719 28.1272 7.81561 28.1272 8.25026V12.8575C28.1272 13.2921 27.9988 13.5832 27.7418 13.7268L27.6624 13.7646L20.1827 17.5063M20.1827 17.5063C19.9257 17.6537 19.6082 17.6159 19.2303 17.4005L18.7616 17.1283M18.7616 17.1283L18.7616 27.4087M18.7616 17.1283L11.2026 12.763V31.1882M11.2026 31.1882L24.5821 38.9136V37.379C24.5821 36.9444 24.7106 36.6534 24.9676 36.506L25.047 36.4682M11.2026 31.1882C11.6636 31.0257 14.1015 29.7973 16.0857 28.7844C17.5446 28.0399 18.7616 27.4087 18.7616 27.4087M25.047 36.4682L30.085 33.9473M32.0428 29.4005C32.0428 29.8389 31.9181 30.1261 31.6762 30.266L27.6661 32.5488M32.0428 29.4005C32.0428 28.9658 31.9181 28.5387 31.6762 28.1154M32.0428 29.4005C32.0428 28.962 31.9181 28.5387 31.6762 28.1154M27.6661 32.5488L26.8573 33.0099M27.6661 32.5488L27.7191 32.5791M26.8573 33.0099C26.5889 33.1649 26.279 33.1384 25.92 32.9305C25.5647 32.7264 25.251 32.3901 24.9826 31.929L24.1738 30.5343M26.8573 33.0099L27.7191 32.5791M24.1738 30.5343L20.1675 23.6216C19.9219 23.1983 19.7971 22.7674 19.7971 22.3327C19.7971 21.8981 19.9219 21.6108 20.1675 21.471L20.2507 21.4294M24.1738 30.5343L18.7616 27.4087M20.2507 21.4294C20.485 21.3425 20.7647 21.3916 21.1048 21.5882C21.4828 21.8074 21.7965 22.1286 22.0384 22.5519L24.582 26.9362M20.2507 21.4294L24.5821 19.2639L24.582 26.9362M24.582 26.9362V17.4194C24.582 16.9847 24.7105 16.6937 24.9675 16.5463L25.0469 16.5085M25.0469 16.5085C25.2888 16.4064 25.5798 16.4594 25.92 16.6559C26.2979 16.8751 26.6192 17.2039 26.8724 17.6461C26.9442 17.7708 27.0085 17.8994 27.0614 18.0241C27.1937 18.3378 27.2579 18.6515 27.2579 18.9614V28.482L29.8015 27.0345L29.8847 26.9929M25.0469 16.5085L32.5266 12.7667C32.7836 12.6193 33.1011 12.6571 33.4791 12.8763C33.857 13.0955 34.1783 13.4244 34.4315 13.8666C34.6885 14.3088 34.817 14.7472 34.817 15.1818L34.8171 24.5286M29.8847 26.9929C30.119 26.906 30.3987 26.9551 30.7389 27.1516C31.1168 27.3708 31.4305 27.6921 31.6762 28.1154M29.8847 26.9929L34.8171 24.5286M27.7191 32.5791L30.085 33.9473M27.7191 32.5791L34.4165 29.2304L39.2354 26.4864C39.4772 26.3466 39.602 26.0594 39.602 25.6209C39.602 25.1863 39.4772 24.7592 39.2354 24.3359C38.9897 23.9126 38.676 23.5913 38.298 23.3721C37.9163 23.1529 37.6064 23.1151 37.3607 23.2549L34.8171 24.5286" stroke="#27272A" stroke-opacity="0.25" stroke-linecap="round" stroke-linejoin="round"/>
      </svg>