<svg xmlns="http://www.w3.org/2000/svg" viewBox="0 0 48 48">
        <path d="M45.3301 14.8944C44.1987 13.2615 42.5101 11.7958 40.2601 10.4972C38.0101 9.19437 35.4686 8.22151 32.6444 7.57008C29.8158 6.91436 26.9443 6.58865 24.0258 6.58008C21.1072 6.58008 18.2358 6.89295 15.4158 7.53581C12.5958 8.17867 10.0672 9.14722 7.83006 10.4372C5.59292 11.7272 3.92149 13.1887 2.80721 14.8172C1.69721 16.4458 1.14436 18.1001 1.15293 19.7844C1.1615 21.2244 1.57723 22.6429 2.40009 24.0358C2.54151 24.2801 2.69578 24.5201 2.86293 24.7601C3.99435 26.3929 5.68292 27.8587 7.93292 29.1572C10.1829 30.4601 12.7201 31.4329 15.5486 32.0887C17.4301 32.5215 19.333 32.8129 21.253 32.9587C21.4758 32.9758 21.6986 32.9929 21.9215 33.0058C22.6672 33.0529 23.4129 33.0744 24.1672 33.0744C24.4543 33.0744 24.7415 33.0744 25.0286 33.0658C27.6515 33.0144 30.2315 32.6972 32.7773 32.1187C35.5973 31.4758 38.1258 30.5072 40.3586 29.2172C42.5958 27.9272 44.2715 26.4658 45.3815 24.8372C45.5272 24.6229 45.6644 24.4087 45.793 24.1901C46.6244 22.7844 47.0401 21.3572 47.0401 19.9087V19.8701C47.0273 18.1858 46.4615 16.5272 45.3301 14.8944ZM25.2301 27.4815C25.0715 27.9187 24.6601 28.2015 24.0001 28.3344C23.3401 28.4672 22.7658 28.3901 22.2772 28.1072C22.2172 28.0729 22.1615 28.0387 22.1144 28.0044C22.0758 27.9744 22.0458 27.9487 22.0158 27.9229C21.9815 27.8887 21.9558 27.8587 21.9258 27.8287C21.9258 27.8287 21.8915 27.7901 21.8786 27.7687C21.8572 27.7429 21.8443 27.7172 21.8272 27.6872C21.7458 27.5287 21.7458 27.3658 21.8272 27.1944C21.8443 27.1258 21.8572 27.0615 21.8701 26.9972C21.8915 26.8815 21.9086 26.7658 21.9172 26.6501C21.9215 26.5858 21.9258 26.5258 21.9258 26.4658V26.3972C21.9258 26.3458 21.9258 26.2901 21.9172 26.2344C21.9172 26.1958 21.9129 26.1615 21.9086 26.1229C21.9129 26.0972 21.9087 26.0715 21.9044 26.0458C21.9001 26.0201 21.9001 25.9944 21.8958 25.9687C21.8872 25.9001 21.8743 25.8315 21.8615 25.7629C21.8315 25.6215 21.7929 25.4844 21.7458 25.3472C21.7286 25.2958 21.7072 25.2444 21.6858 25.1887C21.6687 25.1372 21.6472 25.0858 21.6215 25.0344C21.5743 24.9315 21.523 24.8287 21.4672 24.7258C21.4587 24.7129 21.4543 24.7001 21.4458 24.6872H21.4415C20.9915 23.8987 20.2586 23.2129 19.2472 22.6258C19.1743 22.5829 19.1058 22.5444 19.0286 22.5058C18.0515 21.9701 16.9072 21.5887 15.6129 21.3444C14.2201 21.0829 12.7929 21.0144 11.3358 21.1387C11.0101 21.1687 10.7143 21.1601 10.4443 21.1129C10.1701 21.0658 9.93006 20.9801 9.71149 20.8558C9.22292 20.5729 9.08577 20.2429 9.30006 19.8701C9.51435 19.4972 9.98577 19.2701 10.7143 19.1929C12.7158 18.9487 14.6744 19.0129 16.5944 19.3944C18.283 19.7244 19.7958 20.2387 21.1329 20.9329C21.3172 21.0272 21.4972 21.1258 21.6729 21.2287C23.1086 22.0558 24.1586 23.0201 24.8272 24.1215C24.8401 24.1472 24.8572 24.1687 24.8701 24.1944C25.5001 25.2744 25.6201 26.3715 25.2301 27.4815ZM25.4572 15.1815C25.3072 15.3401 25.1143 15.4815 24.8829 15.6144C24.2101 16.0044 23.4001 16.1972 22.4529 16.1972C21.5058 16.1972 20.6958 16.0001 20.0186 15.6058C19.8986 15.5372 19.7872 15.4644 19.6886 15.3872C19.2301 15.0487 19.0029 14.6501 18.9986 14.2001C18.9943 13.6558 19.3286 13.1887 20.0058 12.7987C20.6786 12.4087 21.4887 12.2158 22.4315 12.2201C23.3787 12.2201 24.1886 12.4172 24.8701 12.8072C25.5472 13.1972 25.8858 13.6687 25.8901 14.2129C25.8901 14.5729 25.7443 14.8987 25.4572 15.1815ZM36.2701 22.1887C35.5972 22.5787 34.7872 22.7715 33.8401 22.7715C32.8929 22.7672 32.0829 22.5701 31.4058 22.1801C30.7286 21.7901 30.3858 21.3229 30.3815 20.7744C30.3815 20.2301 30.7158 19.7629 31.3886 19.3729C32.0615 18.9829 32.8715 18.7901 33.8186 18.7901C34.7658 18.7901 35.5758 18.9915 36.253 19.3815C36.9301 19.7715 37.273 20.2429 37.273 20.7872C37.2772 21.3315 36.9429 21.7987 36.2701 22.1887Z" fill="white"/>
<path d="M37.273 20.7872C37.2772 21.3315 36.9429 21.7987 36.2701 22.1887C35.5972 22.5787 34.7872 22.7715 33.8401 22.7715C32.8929 22.7672 32.0829 22.5701 31.4058 22.1801C30.7286 21.7901 30.3858 21.3229 30.3815 20.7744C30.3815 20.2301 30.7158 19.7629 31.3886 19.3729C32.0615 18.9829 32.8715 18.7901 33.8186 18.7901C34.7658 18.7901 35.5758 18.9915 36.253 19.3815C36.9301 19.7715 37.273 20.2429 37.273 20.7872Z" fill="white"/>
<path d="M21.9258 26.4658L21.9258 27.8244C21.9258 27.8244 21.8915 27.7901 21.8786 27.7687C21.8572 27.7429 21.8443 27.7172 21.8272 27.6872C21.7458 27.5287 21.7458 27.3658 21.8272 27.1944C21.8443 27.1258 21.8572 27.0615 21.8701 26.9972C21.8915 26.8815 21.9086 26.7658 21.9172 26.6501C21.9215 26.5858 21.9258 26.5258 21.9258 26.4658Z" fill="white"/>
<path d="M25.2301 27.4815C25.0715 27.9187 24.6601 28.2015 24.0001 28.3344C23.3401 28.4672 22.7658 28.3901 22.2772 28.1072C22.2172 28.0729 22.1615 28.0387 22.1144 28.0044C22.0758 27.9744 22.0458 27.9487 22.0158 27.9229C21.9815 27.8887 21.9558 27.8587 21.9258 27.8287V26.3972C21.9258 26.3458 21.9258 26.2901 21.9172 26.2344C21.9215 26.1958 21.9172 26.1572 21.9086 26.1229C21.9129 26.0972 21.9087 26.0715 21.9044 26.0458C21.9001 26.0201 21.9001 25.9944 21.8958 25.9687C21.8872 25.9001 21.8743 25.8315 21.8615 25.7629C21.8315 25.6215 21.7929 25.4844 21.7458 25.3472C21.7286 25.2958 21.7072 25.2444 21.6858 25.1887C21.6687 25.1372 21.6472 25.0858 21.6215 25.0344C21.5786 24.9315 21.523 24.8287 21.4672 24.7258C21.4587 24.7129 21.4543 24.7001 21.4458 24.6872H21.4415C20.9915 23.8987 20.2586 23.2129 19.2472 22.6258C19.1743 22.5829 19.1058 22.5444 19.0286 22.5058C18.0515 21.9701 16.9072 21.5887 15.6129 21.3444C14.2201 21.0829 12.7929 21.0144 11.3358 21.1387C11.0101 21.1687 10.7143 21.1601 10.4443 21.1129C10.1701 21.0658 9.93006 20.9801 9.71149 20.8558C9.22292 20.5729 9.08577 20.2429 9.30006 19.8701C9.51435 19.4972 9.98577 19.2701 10.7143 19.1929C12.7158 18.9487 14.6744 19.0129 16.5944 19.3944C18.283 19.7244 19.7958 20.2387 21.1329 20.9329C21.3172 21.0272 21.4972 21.1258 21.6729 21.2287C23.1086 22.0558 24.1586 23.0201 24.8272 24.1215C24.8401 24.1472 24.8572 24.1687 24.8701 24.1944C25.5001 25.2744 25.6201 26.3715 25.2301 27.4815Z" fill="white"/>
<path d="M25.8901 14.2129C25.8901 14.5729 25.7443 14.8987 25.4572 15.1815C25.3072 15.3401 25.1143 15.4815 24.8829 15.6144C24.2101 16.0044 23.4001 16.1972 22.4529 16.1972C21.5058 16.1972 20.6958 16.0001 20.0186 15.6058C19.8986 15.5372 19.7872 15.4644 19.6886 15.3872C19.2301 15.0487 19.0029 14.6501 18.9986 14.2001C18.9943 13.6558 19.3286 13.1887 20.0058 12.7987C20.6786 12.4087 21.4887 12.2158 22.4315 12.2201C23.3787 12.2201 24.1886 12.4172 24.8701 12.8072C25.5472 13.1972 25.8858 13.6687 25.8901 14.2129Z" fill="white"/>
<path d="M47.0401 19.9087L47.0401 28.4415C47.0487 30.1258 46.4958 31.7801 45.3815 33.4087C44.2715 35.0373 42.5958 36.4987 40.3586 37.7887C38.1258 39.0787 35.5972 40.0473 32.7772 40.6901C29.9572 41.333 27.0858 41.6501 24.1672 41.6458C21.2486 41.6458 18.3772 41.3116 15.5486 40.6601C12.7201 40.0044 10.1829 39.0315 7.93292 37.7287C5.68292 36.4301 3.99436 34.9644 2.86293 33.3316C1.7315 31.703 1.16151 30.0444 1.15293 28.3558L1.15293 19.7844C1.1615 21.2244 1.57723 22.6429 2.40009 24.0358C2.54151 24.2801 2.69578 24.5201 2.86293 24.7601C3.99435 26.3929 5.68292 27.8587 7.93292 29.1572C10.1829 30.4601 12.7201 31.4329 15.5486 32.0887C17.4301 32.5215 19.333 32.8129 21.253 32.9587C21.4758 32.9758 21.6986 32.9929 21.9215 33.0058C22.6672 33.0529 23.4129 33.0744 24.1672 33.0744C24.4543 33.0744 24.7415 33.0744 25.0286 33.0658C27.6515 33.0144 30.2315 32.6972 32.7773 32.1187C35.5973 31.4758 38.1258 30.5072 40.3586 29.2172C42.5958 27.9272 44.2715 26.4658 45.3815 24.8372C45.5272 24.6229 45.6644 24.4087 45.793 24.1901C46.6244 22.7844 47.0401 21.3572 47.0401 19.9087Z" fill="white"/>
<path d="M1.15293 19.7844C1.14436 18.1001 1.69721 16.4458 2.80721 14.8172C3.92149 13.1887 5.59292 11.7272 7.83006 10.4372C10.0672 9.14722 12.5958 8.17867 15.4158 7.53581C18.2358 6.89295 21.1072 6.58008 24.0258 6.58008C26.9443 6.58865 29.8158 6.91436 32.6444 7.57008C35.4686 8.22151 38.0101 9.19437 40.2601 10.4972C42.5101 11.7958 44.1987 13.2615 45.3301 14.8944C46.4615 16.5272 47.0273 18.1858 47.0401 19.8701V19.9087M1.15293 19.7844C1.1615 21.2244 1.57723 22.6429 2.40009 24.0358C2.54151 24.2801 2.69578 24.5201 2.86293 24.7601C3.99435 26.3929 5.68292 27.8587 7.93292 29.1572C10.1829 30.4601 12.7201 31.4329 15.5486 32.0887C17.4301 32.5215 19.333 32.8129 21.253 32.9587C21.4758 32.9758 21.6986 32.9929 21.9215 33.0058C22.6672 33.0529 23.4129 33.0744 24.1672 33.0744C24.4543 33.0744 24.7415 33.0744 25.0286 33.0658C27.6515 33.0144 30.2315 32.6972 32.7773 32.1187C35.5973 31.4758 38.1258 30.5072 40.3586 29.2172C42.5958 27.9272 44.2715 26.4658 45.3815 24.8372C45.5272 24.6229 45.6644 24.4087 45.793 24.1901C46.6244 22.7844 47.0401 21.3572 47.0401 19.9087M1.15293 19.7844L1.15293 28.3558C1.16151 30.0444 1.7315 31.703 2.86293 33.3316C3.99436 34.9644 5.68292 36.4301 7.93292 37.7287C10.1829 39.0315 12.7201 40.0044 15.5486 40.6601C18.3772 41.3116 21.2486 41.6458 24.1672 41.6458C27.0858 41.6501 29.9572 41.333 32.7772 40.6901C35.5972 40.0473 38.1258 39.0787 40.3586 37.7887C42.5958 36.4987 44.2715 35.0373 45.3815 33.4087C46.4958 31.7801 47.0487 30.1258 47.0401 28.4415L47.0401 19.9087M21.9258 27.8287C21.9558 27.8587 21.9815 27.8887 22.0158 27.9229C22.0458 27.9487 22.0758 27.9744 22.1144 28.0044C22.1615 28.0387 22.2172 28.0729 22.2772 28.1072C22.7658 28.3901 23.3401 28.4672 24.0001 28.3344C24.6601 28.2015 25.0715 27.9187 25.2301 27.4815C25.6201 26.3715 25.5001 25.2744 24.8701 24.1944C24.8572 24.1687 24.8401 24.1472 24.8272 24.1215C24.1586 23.0201 23.1086 22.0558 21.6729 21.2287C21.4972 21.1258 21.3172 21.0272 21.1329 20.9329C19.7958 20.2387 18.283 19.7244 16.5944 19.3944C14.6744 19.0129 12.7158 18.9487 10.7143 19.1929C9.98578 19.2701 9.51435 19.4972 9.30006 19.8701C9.08577 20.2429 9.22292 20.5729 9.71149 20.8558C9.93006 20.9801 10.1701 21.0658 10.4443 21.1129C10.7143 21.1601 11.0101 21.1687 11.3358 21.1387C12.7929 21.0144 14.2201 21.0829 15.6129 21.3444C16.9072 21.5887 18.0515 21.9701 19.0286 22.5058C19.1058 22.5444 19.1743 22.5829 19.2472 22.6258C20.2586 23.2129 20.9915 23.8987 21.4415 24.6872H21.4458C21.4543 24.7001 21.4587 24.7129 21.4672 24.7258M21.9258 27.8287C21.9258 27.8287 21.8915 27.7901 21.8786 27.7687M21.9258 27.8287V26.3972M21.8786 27.7687C21.8572 27.7429 21.8443 27.7172 21.8272 27.6872C21.7458 27.5287 21.7458 27.3658 21.8272 27.1944C21.8443 27.1258 21.8572 27.0615 21.8701 26.9972C21.8915 26.8815 21.9086 26.7658 21.9172 26.6501C21.9215 26.5858 21.9258 26.5258 21.9258 26.4658M21.8786 27.7687C21.8915 27.7901 21.9258 27.8244 21.9258 27.8244L21.9258 26.4658M21.9258 26.4658V26.3972M21.9258 26.3972C21.9258 26.3458 21.9258 26.2901 21.9172 26.2344M21.9172 26.2344C21.9172 26.1958 21.9129 26.1615 21.9086 26.1229M21.9172 26.2344C21.9215 26.1958 21.9172 26.1572 21.9086 26.1229M21.9086 26.1229C21.9129 26.0972 21.9087 26.0715 21.9044 26.0458C21.9001 26.0201 21.9001 25.9944 21.8958 25.9687C21.8872 25.9001 21.8743 25.8315 21.8615 25.7629C21.8315 25.6215 21.7929 25.4844 21.7458 25.3472C21.7286 25.2958 21.7072 25.2444 21.6858 25.1887C21.6687 25.1372 21.6472 25.0858 21.6215 25.0344M21.6215 25.0344C21.5743 24.9315 21.523 24.8287 21.4672 24.7258M21.6215 25.0344C21.5786 24.9315 21.523 24.8287 21.4672 24.7258M25.4572 15.1815C25.3072 15.3401 25.1143 15.4815 24.8829 15.6144C24.2101 16.0044 23.4001 16.1972 22.4529 16.1972C21.5058 16.1972 20.6958 16.0001 20.0186 15.6058C19.8986 15.5372 19.7872 15.4644 19.6886 15.3872C19.2301 15.0487 19.0029 14.6501 18.9986 14.2001C18.9943 13.6558 19.3286 13.1887 20.0058 12.7987C20.6786 12.4087 21.4887 12.2158 22.4315 12.2201C23.3787 12.2201 24.1886 12.4172 24.8701 12.8072C25.5472 13.1972 25.8858 13.6687 25.8901 14.2129C25.8901 14.5729 25.7443 14.8987 25.4572 15.1815ZM36.2701 22.1887C35.5972 22.5787 34.7872 22.7715 33.8401 22.7715C32.8929 22.7672 32.0829 22.5701 31.4058 22.1801C30.7286 21.7901 30.3858 21.3229 30.3815 20.7744C30.3815 20.2301 30.7158 19.7629 31.3886 19.3729C32.0615 18.9829 32.8715 18.7901 33.8186 18.7901C34.7658 18.7901 35.5758 18.9915 36.253 19.3815C36.9301 19.7715 37.273 20.2429 37.273 20.7872C37.2773 21.3315 36.9429 21.7987 36.2701 22.1887Z" stroke="#27272A" stroke-opacity="0.25" stroke-linecap="round" stroke-linejoin="round"/>
      </svg>