<svg xmlns="http://www.w3.org/2000/svg" viewBox="0 0 48 48">
        <path d="M8.09209 7.06825L8.77093 6.72886C8.5382 6.82582 8.31512 6.94219 8.09209 7.06825Z" fill="white"/>
<path d="M43.1465 35.5193C43.2871 35.495 43.4181 35.4319 43.5345 35.3252L43.1465 35.5193Z" fill="white"/>
<path d="M34.1187 38.7579L32.0485 28.2028C31.6072 25.8949 30.8751 23.6404 29.852 21.4344C29.4205 20.5083 28.9357 19.5918 28.4023 18.6803C27.9854 17.9724 27.5345 17.2743 27.0545 16.5761C26.3708 15.5822 25.6581 14.6513 24.9163 13.7882C22.8945 11.4173 20.669 9.53133 18.2399 8.13012C16.8775 7.34466 15.583 6.78699 14.3611 6.45244C12.3005 5.89487 10.434 5.98704 8.77093 6.72886L8.09209 7.06825C5.30422 8.6537 3.91266 11.7325 3.91266 16.2998C3.91266 18.6416 4.32964 21.1143 5.16843 23.7131C6.00237 26.3119 7.17568 28.8379 8.68841 31.2912V37.3228C8.68841 37.8368 8.84356 38.3604 9.14901 38.8889C9.44962 39.4125 9.8278 39.8052 10.2787 40.067L21.4254 46.501C21.8763 46.7579 22.2496 46.8016 22.5551 46.627C22.8605 46.4573 23.0157 46.1082 23.0157 45.5894V43.7665L25.4545 45.1773L26.1963 45.604C27.0739 46.1082 27.8254 46.1859 28.446 45.8271C29.0714 45.4731 29.3818 44.7943 29.3818 43.7906V38.3071L32.5672 40.1446C32.6157 40.1737 32.6642 40.2028 32.7126 40.2222C33.1733 40.455 33.5515 40.4307 33.8375 40.1737C33.9685 40.0573 34.0605 39.907 34.1139 39.7276C34.1963 39.4707 34.1963 39.1458 34.1187 38.7579ZM19.3745 33.8318C19.1999 33.9337 19.0011 33.958 18.7781 33.9192C18.6133 33.8853 18.4339 33.8125 18.2399 33.701C17.789 33.4441 17.4108 33.0464 17.1054 32.5227C16.7999 31.9943 16.6496 31.4755 16.6496 30.9567C16.6496 30.4379 16.7999 30.0938 17.1054 29.9192C17.4108 29.7447 17.789 29.7883 18.2399 30.0501C18.2884 30.0792 18.3369 30.1082 18.3854 30.1422C18.7733 30.3992 19.103 30.7628 19.3745 31.2282C19.6799 31.7567 19.8302 32.2755 19.8302 32.7943C19.8302 33.3131 19.6799 33.6573 19.3745 33.8318ZM22.4581 24.3095C22.1914 24.707 21.6339 25.1919 20.7854 25.764C20.4169 26.0064 20.1454 26.2537 19.9708 26.5058C19.7963 26.7579 19.6703 27.0392 19.5927 27.3592C19.5151 27.7082 19.3454 27.9265 19.0933 28.0089C18.8702 28.0816 18.6375 28.0573 18.3854 27.9361C18.3514 27.9216 18.3126 27.9022 18.2787 27.8828C17.9345 27.6792 17.6484 27.3786 17.4254 26.9761C17.1975 26.5737 17.1102 26.2003 17.1636 25.8658C17.2217 25.4682 17.3139 25.1241 17.4496 24.8331C17.4981 24.7168 17.5563 24.61 17.6242 24.5082C17.8472 24.1688 18.2109 23.8392 18.7151 23.5192C19.3794 23.1119 19.8254 22.753 20.0485 22.4427C20.2763 22.1324 20.3878 21.73 20.3878 21.2452C20.3878 20.6634 20.1939 20.0816 19.8108 19.495C19.4278 18.9083 18.943 18.4476 18.3611 18.1082C17.9878 17.8949 17.629 17.7882 17.2848 17.7834C17.0714 17.7834 16.8678 17.827 16.6836 17.9095L16.606 17.9483C16.5236 17.9919 16.446 18.0403 16.3684 18.1034C16.1551 18.3118 15.9126 18.3943 15.6314 18.3409C15.3551 18.2827 15.069 18.0986 14.7781 17.7786C14.6375 17.6186 14.5114 17.4489 14.3999 17.2695C14.2884 17.0804 14.1963 16.8816 14.1187 16.6682C14.0023 16.3289 13.983 16.0573 14.0702 15.8537C14.0896 15.8052 14.1139 15.7567 14.143 15.7179C14.5939 15.1555 15.1951 14.8597 15.9514 14.8258C16.7078 14.787 17.5078 15.015 18.3611 15.5047C18.8169 15.7713 19.2484 16.0767 19.6508 16.4258C20.3733 17.0416 21.0084 17.7931 21.5611 18.6803C22.4242 20.0621 22.8557 21.3907 22.8557 22.6707C22.8557 23.3689 22.7248 23.9167 22.4581 24.3095Z" fill="white"/>
<path d="M19.8302 32.7943C19.8302 33.3131 19.6799 33.6573 19.3745 33.8318C19.1999 33.9337 19.0011 33.958 18.7781 33.9192C18.6133 33.8853 18.4339 33.8125 18.2399 33.701C17.789 33.4441 17.4108 33.0464 17.1054 32.5227C16.7999 31.9943 16.6496 31.4755 16.6496 30.9567C16.6496 30.4379 16.7999 30.0938 17.1054 29.9192C17.4108 29.7447 17.789 29.7883 18.2399 30.0501C18.2884 30.0792 18.3369 30.1082 18.3854 30.1422C18.7733 30.3992 19.103 30.7628 19.3745 31.2282C19.6799 31.7567 19.8302 32.2755 19.8302 32.7943Z" fill="white"/>
<path d="M22.8557 22.6707C22.8557 23.3689 22.7248 23.9167 22.4581 24.3095C22.1914 24.707 21.6339 25.1919 20.7854 25.764C20.4169 26.0064 20.1454 26.2537 19.9708 26.5058C19.7963 26.7579 19.6703 27.0392 19.5927 27.3592C19.5151 27.7082 19.3454 27.9265 19.0933 28.0089C18.8702 28.0816 18.6375 28.0573 18.3854 27.9361C18.3514 27.9216 18.3126 27.9022 18.2787 27.8828C17.9345 27.6792 17.6484 27.3786 17.4254 26.9761C17.1975 26.5737 17.1102 26.2003 17.1636 25.8658C17.2217 25.4682 17.3139 25.1241 17.4496 24.8331C17.4981 24.7168 17.5563 24.61 17.6242 24.5082C17.8472 24.1688 18.2109 23.8392 18.7151 23.5192C19.3794 23.1119 19.8254 22.753 20.0485 22.4427C20.2763 22.1324 20.3878 21.73 20.3878 21.2452C20.3878 20.6634 20.1939 20.0816 19.8108 19.495C19.4278 18.9083 18.943 18.4476 18.3611 18.1082C17.9878 17.8949 17.629 17.7882 17.2848 17.7834C17.0714 17.7834 16.8678 17.827 16.6836 17.9095L19.6508 16.4258C20.3733 17.0416 21.0084 17.7931 21.5611 18.6803C22.4242 20.0621 22.8557 21.3907 22.8557 22.6707Z" fill="white"/>
<path d="M19.6508 16.4258L16.6836 17.9095L16.606 17.9483C16.5236 17.9919 16.446 18.0403 16.3684 18.1034C16.1551 18.3118 15.9126 18.3943 15.6314 18.3409C15.3551 18.2827 15.069 18.0986 14.7781 17.7786C14.6375 17.6186 14.5114 17.4489 14.3999 17.2695C14.2884 17.0804 14.1963 16.8816 14.1187 16.6682C14.0023 16.3289 13.983 16.0573 14.0702 15.8537C14.0896 15.8052 14.1139 15.7567 14.143 15.7179C14.5939 15.1555 15.1951 14.8597 15.9514 14.8258C16.7078 14.787 17.5078 15.015 18.3611 15.5047C18.8169 15.7713 19.2484 16.0767 19.6508 16.4258Z" fill="white"/>
<path d="M39.0788 37.5556V38.9422C39.0788 39.9458 38.7685 40.6247 38.143 40.9786L37.9442 41.0756L28.446 45.8271C29.0714 45.4731 29.3818 44.7943 29.3818 43.7906V38.3071L32.5672 40.1446C32.6157 40.1737 32.6642 40.2028 32.7126 40.2222C33.1733 40.455 33.5515 40.4307 33.8375 40.1737L39.0788 37.5556Z" fill="white"/>
<path d="M43.5345 35.3252L43.1465 35.5193L39.0788 37.5556L33.8375 40.1737C33.9685 40.0573 34.0605 39.907 34.1139 39.7276C34.1963 39.4707 34.1963 39.1458 34.1187 38.7579L32.0485 28.2028C31.6072 25.8949 30.8751 23.6404 29.852 21.4344C29.4205 20.5083 28.9357 19.5918 28.4023 18.6803C27.9854 17.9724 27.5345 17.2743 27.0545 16.5761C26.3708 15.5822 25.6581 14.6513 24.9163 13.7882C22.8945 11.4173 20.669 9.53133 18.2399 8.13012C16.8775 7.34466 15.583 6.78699 14.3611 6.45244C12.3005 5.89487 10.434 5.98704 8.77093 6.72886L17.789 2.21971C20.5769 0.629403 23.9563 0.98343 27.9369 3.28161C31.2533 5.19678 34.1914 8.0137 36.7514 11.7276C39.3114 15.4416 40.9745 19.3204 41.7454 23.3543L43.8157 33.9095C43.9466 34.564 43.8545 35.0392 43.5345 35.3252Z" fill="white"/>
<path d="M25.4545 45.1773L22.5551 46.627C22.8605 46.4573 23.0157 46.1082 23.0157 45.5894V43.7665L25.4545 45.1773Z" fill="white"/>
<path d="M8.09209 7.06825L8.77093 6.72886M8.09209 7.06825C8.31512 6.94219 8.5382 6.82582 8.77093 6.72886M8.09209 7.06825C5.30422 8.6537 3.91266 11.7325 3.91266 16.2998C3.91266 18.6416 4.32964 21.1143 5.16843 23.7131C6.00237 26.3119 7.17568 28.8379 8.68841 31.2912V37.3228C8.68841 37.8368 8.84356 38.3604 9.14901 38.8889C9.44962 39.4125 9.8278 39.8052 10.2787 40.067L21.4254 46.501C21.8763 46.7579 22.2496 46.8016 22.5551 46.627M8.77093 6.72886C10.434 5.98704 12.3005 5.89487 14.3611 6.45244C15.583 6.78699 16.8775 7.34466 18.2399 8.13012C20.669 9.53133 22.8945 11.4173 24.9163 13.7882C25.6581 14.6513 26.3708 15.5822 27.0545 16.5761C27.5345 17.2743 27.9854 17.9724 28.4023 18.6803C28.9357 19.5918 29.4205 20.5083 29.852 21.4344C30.8751 23.6404 31.6072 25.8949 32.0485 28.2028L34.1187 38.7579C34.1963 39.1458 34.1963 39.4707 34.1139 39.7276C34.0605 39.907 33.9685 40.0573 33.8375 40.1737M8.77093 6.72886L17.789 2.21971C20.5769 0.629403 23.9563 0.98343 27.9369 3.28161C31.2533 5.19678 34.1914 8.0137 36.7514 11.7276C39.3114 15.4416 40.9745 19.3204 41.7454 23.3543L43.8157 33.9095C43.9466 34.564 43.8545 35.0392 43.5345 35.3252M43.1465 35.5193C43.2871 35.495 43.4181 35.4319 43.5345 35.3252M43.1465 35.5193L43.5345 35.3252M43.1465 35.5193L39.0788 37.5556M22.5551 46.627C22.8605 46.4573 23.0157 46.1082 23.0157 45.5894V43.7665L25.4545 45.1773M22.5551 46.627L25.4545 45.1773M25.4545 45.1773L26.1963 45.604C27.0739 46.1082 27.8254 46.1859 28.446 45.8271M28.446 45.8271C29.0714 45.4731 29.3818 44.7943 29.3818 43.7906V38.3071L32.5672 40.1446C32.6157 40.1737 32.6642 40.2028 32.7126 40.2222C33.1733 40.455 33.5515 40.4307 33.8375 40.1737M28.446 45.8271L37.9442 41.0756L38.143 40.9786C38.7685 40.6247 39.0788 39.9458 39.0788 38.9422V37.5556M33.8375 40.1737L39.0788 37.5556M16.6836 17.9095C16.8678 17.827 17.0714 17.7834 17.2848 17.7834C17.629 17.7882 17.9878 17.8949 18.3611 18.1082C18.943 18.4476 19.4278 18.9083 19.8108 19.495C20.1939 20.0816 20.3878 20.6634 20.3878 21.2452C20.3878 21.73 20.2763 22.1324 20.0485 22.4427C19.8254 22.7531 19.3794 23.1119 18.7151 23.5192C18.2109 23.8392 17.8472 24.1688 17.6242 24.5082C17.5563 24.61 17.4981 24.7168 17.4496 24.8331C17.3139 25.1241 17.2217 25.4682 17.1636 25.8658C17.1102 26.2003 17.1975 26.5737 17.4254 26.9761C17.6484 27.3786 17.9345 27.6792 18.2787 27.8828C18.3126 27.9022 18.3514 27.9216 18.3854 27.9361C18.6375 28.0573 18.8702 28.0816 19.0933 28.0089C19.3454 27.9265 19.5151 27.7082 19.5927 27.3592C19.6703 27.0392 19.7963 26.7579 19.9708 26.5058C20.1454 26.2537 20.4169 26.0064 20.7854 25.764C21.6339 25.1919 22.1914 24.707 22.4581 24.3095C22.7248 23.9167 22.8557 23.3689 22.8557 22.6707C22.8557 21.3907 22.4242 20.0621 21.5611 18.6803C21.0084 17.793 20.3733 17.0416 19.6508 16.4258M16.6836 17.9095L16.606 17.9483C16.5236 17.9919 16.446 18.0403 16.3684 18.1034C16.1551 18.3118 15.9126 18.3943 15.6314 18.3409C15.3551 18.2827 15.069 18.0986 14.7781 17.7786C14.6375 17.6186 14.5114 17.4489 14.3999 17.2695C14.2884 17.0804 14.1963 16.8816 14.1187 16.6682C14.0023 16.3289 13.983 16.0573 14.0702 15.8537C14.0896 15.8052 14.1139 15.7567 14.143 15.7179C14.5939 15.1555 15.1951 14.8597 15.9514 14.8258C16.7078 14.787 17.5078 15.015 18.3611 15.5047C18.8169 15.7713 19.2484 16.0767 19.6508 16.4258M16.6836 17.9095L19.6508 16.4258M19.3745 33.8318C19.1999 33.9337 19.0011 33.958 18.7781 33.9192C18.6133 33.8853 18.4339 33.8125 18.2399 33.701C17.789 33.4441 17.4108 33.0464 17.1054 32.5227C16.7999 31.9943 16.6496 31.4755 16.6496 30.9567C16.6496 30.4379 16.7999 30.0938 17.1054 29.9192C17.4108 29.7447 17.789 29.7883 18.2399 30.0501C18.2884 30.0792 18.3369 30.1082 18.3854 30.1422C18.7733 30.3992 19.103 30.7628 19.3745 31.2282C19.6799 31.7567 19.8302 32.2755 19.8302 32.7943C19.8302 33.3131 19.6799 33.6573 19.3745 33.8318Z" stroke="#27272A" stroke-opacity="0.25" stroke-linecap="round" stroke-linejoin="round"/>
      </svg>