<svg xmlns="http://www.w3.org/2000/svg" viewBox="0 0 48 48">
        <path d="M29.936 19.6561C29.38 19.3361 28.716 19.1761 27.94 19.1721C27.168 19.1721 26.504 19.3321 25.952 19.6481C25.4 19.9681 25.1241 20.3521 25.1281 20.8001C25.1281 21.2481 25.408 21.6321 25.964 21.9521C26.52 22.2721 27.184 22.4321 27.96 22.4361C28.736 22.4361 29.396 22.2761 29.948 21.9601C30.5 21.6401 30.776 21.2561 30.776 20.8081C30.772 20.3601 30.492 19.9761 29.936 19.6561Z" fill="white"/>
<path d="M47.128 22.3721C47.128 22.4201 47.124 22.4681 47.112 22.5121C47.064 22.7481 46.884 22.9601 46.568 23.1401C46.192 23.3561 45.748 23.4641 45.24 23.4641C44.732 23.4641 44.288 23.3521 43.908 23.1361L42.576 22.3641L41.252 23.1321C40.876 23.3481 40.436 23.4561 39.924 23.4521C39.416 23.4521 38.972 23.3441 38.596 23.1241C38.216 22.9081 38.028 22.6521 38.024 22.3561C38.024 22.0641 38.212 21.8081 38.584 21.5921L39.912 20.8241L38.5759 20.0561C38.1999 19.8401 38.012 19.5841 38.008 19.2881C38.008 18.9921 38.1919 18.7401 38.5679 18.5201C38.9439 18.3041 39.388 18.1961 39.896 18.2001C40.404 18.2001 40.848 18.3081 41.228 18.5281L42.56 19.2961L43.884 18.5321C44.26 18.3161 44.704 18.2081 45.212 18.2081C45.72 18.2081 46.164 18.3201 46.544 18.5361C46.92 18.7561 47.112 19.0121 47.112 19.3041C47.112 19.5961 46.928 19.8521 46.552 20.0721L45.228 20.8361L46.56 21.6041C46.876 21.7881 47.064 22.0001 47.112 22.2361C47.124 22.2801 47.128 22.3241 47.128 22.3721Z" fill="white"/>
<path d="M36.824 15.2561C36.376 14.7201 35.8559 14.2122 35.2559 13.7402C34.6519 13.2642 33.976 12.8121 33.22 12.3721C31.376 11.3081 29.296 10.5081 26.976 9.97612C24.66 9.44012 22.304 9.17211 19.912 9.16411C17.52 9.16011 15.1679 9.4241 12.8559 9.94809C10.5479 10.4761 8.47194 11.2682 6.63994 12.3242C4.80793 13.3842 3.43601 14.5802 2.52401 15.9162C1.61201 17.2482 1.15995 18.6081 1.16795 19.9881C1.17595 21.3321 1.61998 22.6561 2.49598 23.9601C2.51998 23.9961 2.54395 24.0321 2.56795 24.0681C3.49595 25.4041 4.88002 26.6081 6.72402 27.6721C7.70402 28.2361 8.74793 28.7282 9.85993 29.1402C10.8439 29.5122 11.8799 29.8201 12.9679 30.0721C15.1479 30.5721 17.36 30.8441 19.608 30.8721C19.748 30.8801 19.892 30.8801 20.032 30.8801C22.236 30.8841 24.4079 30.6641 26.5439 30.2121C26.7279 30.1761 26.908 30.1361 27.088 30.0961C28.388 29.8001 29.6159 29.4161 30.7639 28.9481C31.6559 28.5921 32.504 28.1802 33.304 27.7202C33.36 27.6882 33.4159 27.6562 33.4719 27.6202C33.8719 27.3882 34.248 27.1481 34.596 26.9081C34.636 26.8801 34.676 26.8562 34.712 26.8282C35.14 26.5322 35.532 26.2161 35.884 25.8841C36.052 25.7161 36.1479 25.5441 36.1679 25.3641V25.2161C36.1639 25.1841 36.1559 25.1521 36.1479 25.1161C36.1279 25.0401 36.0999 24.9681 36.0559 24.8961C35.9559 24.7201 35.7839 24.5602 35.5439 24.4242L34.596 23.8761L33.8439 23.4441C33.3319 23.1481 33.076 22.7841 33.076 22.3481C33.072 21.9121 33.324 21.5481 33.832 21.2561L34.2519 21.0162L34.596 20.8162L34.496 20.7601C33.784 20.3481 33.428 19.8561 33.424 19.2801C33.42 18.7041 33.772 18.2121 34.48 17.8041L36.3679 16.7162C36.6959 16.5242 36.908 16.2922 36.996 16.0242C37.02 15.9442 37.032 15.8641 37.032 15.7881C37.032 15.6041 36.964 15.4281 36.824 15.2561ZM16.62 14.2641C17.172 13.9441 17.836 13.7841 18.608 13.7881C19.384 13.7881 20.052 13.9481 20.604 14.2681C21.16 14.5921 21.4399 14.9762 21.4439 15.4202C21.4439 15.8682 21.172 16.2521 20.62 16.5721C20.068 16.8881 19.404 17.0481 18.628 17.0481C17.852 17.0481 17.188 16.8841 16.632 16.5641C16.076 16.2441 15.796 15.8601 15.796 15.4121C15.792 14.9641 16.068 14.5801 16.62 14.2641ZM23.092 25.3402C22.98 25.5842 22.728 25.7442 22.328 25.8202C20.604 26.0482 18.888 26.0241 17.18 25.7521C15.472 25.4801 13.976 24.9722 12.688 24.2282C11.42 23.5002 10.5439 22.6361 10.0639 21.6441C9.61194 20.7081 9.54793 19.7722 9.87193 18.8282C9.88793 18.7722 9.91201 18.7161 9.93201 18.6601C10.064 18.4321 10.3399 18.2842 10.7599 18.2242C11.0599 18.1802 11.336 18.1921 11.58 18.2761C11.676 18.3041 11.7679 18.3441 11.8559 18.3961L22.788 24.7081C23.1 24.8881 23.2 25.1002 23.092 25.3402ZM29.948 21.9601C29.396 22.2761 28.736 22.4361 27.96 22.4361C27.184 22.4321 26.52 22.2721 25.964 21.9521C25.408 21.6321 25.1281 21.2481 25.1281 20.8001C25.1241 20.3521 25.4 19.9681 25.952 19.6481C26.504 19.3321 27.168 19.1721 27.94 19.1721C28.716 19.1761 29.38 19.3361 29.936 19.6561C30.492 19.9761 30.772 20.3601 30.776 20.8081C30.776 21.2561 30.5 21.6401 29.948 21.9601Z" fill="white"/>
<path d="M21.4439 15.4202C21.4439 15.8682 21.172 16.2521 20.62 16.5721C20.068 16.8881 19.404 17.0481 18.628 17.0481C17.852 17.0481 17.188 16.8841 16.632 16.5641C16.076 16.2441 15.796 15.8601 15.796 15.4121C15.792 14.9641 16.068 14.5801 16.62 14.2641C17.172 13.9441 17.836 13.7841 18.608 13.7881C19.384 13.7881 20.052 13.9481 20.604 14.2681C21.16 14.5921 21.4399 14.9762 21.4439 15.4202Z" fill="white"/>
<path d="M23.092 25.3402C22.98 25.5842 22.728 25.7442 22.328 25.8202C20.604 26.0482 18.888 26.0241 17.18 25.7521C15.472 25.4801 13.976 24.9722 12.688 24.2282C11.42 23.5002 10.5439 22.6361 10.0639 21.6441C9.61194 20.7081 9.54793 19.7722 9.87193 18.8282C9.88793 18.7722 9.91201 18.7161 9.93201 18.6601C10.064 18.4321 10.3399 18.2842 10.7599 18.2242C11.0599 18.1802 11.336 18.1921 11.58 18.2761C11.676 18.3041 11.7679 18.3441 11.8559 18.3961L22.788 24.7081C23.1 24.8881 23.2 25.1002 23.092 25.3402Z" fill="white"/>
<path d="M47.112 19.3041V22.2361C47.064 22.0001 46.876 21.7881 46.56 21.6041L45.228 20.8361L46.552 20.0721C46.928 19.8521 47.112 19.6001 47.112 19.3041Z" fill="white"/>
<path d="M47.128 22.3721V30.3721C47.128 30.6681 46.944 30.9241 46.568 31.1401C46.192 31.3561 45.748 31.4641 45.24 31.4641C44.732 31.4641 44.288 31.3521 43.908 31.1361L42.576 30.3641V22.3641L43.908 23.1361C44.288 23.3521 44.732 23.4641 45.24 23.4641C45.748 23.4641 46.192 23.3561 46.568 23.1401C46.884 22.9601 47.064 22.7481 47.112 22.5121C47.124 22.4681 47.128 22.4201 47.128 22.3721Z" fill="white"/>
<path d="M42.576 22.3641V30.3641L41.252 31.1321C40.876 31.3481 40.436 31.4561 39.924 31.4521C39.416 31.4521 38.972 31.3441 38.596 31.1241C38.216 30.9081 38.028 30.6521 38.024 30.3561L38.024 22.3561C38.028 22.6521 38.216 22.9081 38.596 23.1241C38.972 23.3441 39.416 23.4521 39.924 23.4521C40.436 23.4561 40.876 23.3481 41.252 23.1321L42.576 22.3641Z" fill="white"/>
<path d="M39.912 20.8241L38.584 21.5921C38.212 21.8081 38.024 22.0641 38.024 22.3561V27.4161C38.012 27.3761 38.008 27.3321 38.008 27.2881V19.2881C38.012 19.5841 38.1999 19.8401 38.5759 20.0561L39.912 20.8241Z" fill="white"/>
<path d="M34.596 20.8162V23.8761L33.8439 23.4441C33.3319 23.1481 33.076 22.7841 33.076 22.3481C33.072 21.9121 33.324 21.5481 33.832 21.2561L34.2519 21.0162L34.596 20.8162Z" fill="white"/>
<path d="M37.032 15.7881L37.0321 23.7881C37.0321 23.8641 37.02 23.9441 36.996 24.0241C36.908 24.2921 36.696 24.5241 36.368 24.7161L36.0559 24.8961C35.9559 24.7201 35.7839 24.5602 35.5439 24.4242L34.596 23.8761V20.8162L34.496 20.7601C33.784 20.3481 33.428 19.8561 33.424 19.2801C33.42 18.7041 33.772 18.2121 34.48 17.8041L36.3679 16.7162C36.6959 16.5242 36.908 16.2922 36.996 16.0242C37.02 15.9442 37.032 15.8641 37.032 15.7881Z" fill="white"/>
<path d="M37.032 23.8361L37.0321 23.7881L37.032 23.8361Z" fill="white"/>
<path d="M37.032 15.7881V15.7481V15.7881Z" fill="white"/>
<path d="M36.1679 25.3641L36.1679 33.2041C36.1959 33.4401 36.1 33.6681 35.884 33.8841C35.532 34.2161 35.14 34.5321 34.712 34.8281C34.28 35.1281 33.812 35.4281 33.304 35.7201C31.472 36.7761 29.4 37.5681 27.088 38.0961C24.776 38.6241 22.424 38.8841 20.032 38.8801C17.64 38.8761 15.2839 38.6041 12.9679 38.0721C10.6479 37.5361 8.56802 36.7361 6.72402 35.6721C4.88002 34.6081 3.49594 33.4041 2.56794 32.0681C1.64394 30.7281 1.17594 29.3681 1.16794 27.9881L1.16795 19.9881C1.17595 21.3321 1.61998 22.6561 2.49598 23.9601C2.51998 23.9961 2.54395 24.0321 2.56795 24.0681C3.49595 25.4041 4.88002 26.6081 6.72402 27.6721C7.70402 28.2361 8.74793 28.7282 9.85993 29.1402C10.8439 29.5122 11.8799 29.8201 12.9679 30.0721C15.1479 30.5721 17.36 30.8441 19.608 30.8721C19.748 30.8801 19.892 30.8801 20.032 30.8801C22.236 30.8841 24.4079 30.6641 26.5439 30.2121C26.7279 30.1761 26.908 30.1361 27.088 30.0961C28.388 29.8001 29.6159 29.4161 30.7639 28.9481C31.6559 28.5921 32.504 28.1802 33.304 27.7202C33.36 27.6882 33.4159 27.6562 33.4719 27.6202C33.8719 27.3882 34.248 27.1481 34.596 26.9081C34.636 26.8801 34.676 26.8562 34.712 26.8282C35.14 26.5322 35.532 26.2161 35.884 25.8841C36.052 25.7161 36.1479 25.5441 36.1679 25.3641Z" fill="white"/>
<path d="M36.1679 33.2801V33.2041V33.2801Z" fill="white"/>
<path d="M47.128 22.3721C47.128 22.4201 47.124 22.4681 47.112 22.5121C47.064 22.7481 46.884 22.9601 46.568 23.1401C46.192 23.3561 45.748 23.4641 45.24 23.4641C44.732 23.4641 44.288 23.3521 43.908 23.1361L42.576 22.3641M47.128 22.3721C47.128 22.3241 47.124 22.2801 47.112 22.2361M47.128 22.3721V30.3721C47.128 30.6681 46.944 30.9241 46.568 31.1401C46.192 31.3561 45.748 31.4641 45.24 31.4641C44.732 31.4641 44.288 31.3521 43.908 31.1361L42.576 30.3641M42.576 22.3641L41.252 23.1321C40.876 23.3481 40.436 23.4561 39.924 23.4521C39.416 23.4521 38.972 23.3441 38.596 23.1241C38.216 22.9081 38.028 22.6521 38.024 22.3561M42.576 22.3641V30.3641M38.024 22.3561C38.024 22.0641 38.212 21.8081 38.584 21.5921L39.912 20.8241L38.5759 20.0561C38.1999 19.8401 38.012 19.5841 38.008 19.2881M38.024 22.3561L38.024 30.3561C38.028 30.6521 38.216 30.9081 38.596 31.1241C38.972 31.3441 39.416 31.4521 39.924 31.4521C40.436 31.4561 40.876 31.3481 41.252 31.1321L42.576 30.3641M38.024 22.3561V27.4161C38.012 27.3761 38.008 27.3321 38.008 27.2881V19.2881M38.008 19.2881C38.008 18.9921 38.1919 18.7401 38.5679 18.5201C38.9439 18.3041 39.388 18.1961 39.896 18.2001C40.404 18.2001 40.848 18.3081 41.228 18.5281L42.56 19.2961L43.884 18.5321C44.26 18.3161 44.704 18.2081 45.212 18.2081C45.72 18.2081 46.164 18.3201 46.544 18.5361C46.92 18.7561 47.112 19.0121 47.112 19.3041M47.112 19.3041C47.112 19.5961 46.928 19.8521 46.552 20.0721M47.112 19.3041V22.2361M47.112 19.3041C47.112 19.6001 46.928 19.8521 46.552 20.0721M46.552 20.0721L45.228 20.8361L46.56 21.6041C46.876 21.7881 47.064 22.0001 47.112 22.2361M1.16795 19.9881C1.15995 18.6081 1.61201 17.2482 2.52401 15.9162C3.43601 14.5802 4.80793 13.3842 6.63994 12.3242C8.47194 11.2682 10.5479 10.4761 12.8559 9.94809C15.1679 9.4241 17.52 9.16011 19.912 9.16411C22.304 9.17211 24.66 9.44012 26.976 9.97612C29.296 10.5081 31.376 11.3081 33.22 12.3721C33.976 12.8121 34.6519 13.2642 35.2559 13.7402C35.8559 14.2122 36.376 14.7201 36.824 15.2561C36.964 15.4281 37.032 15.6041 37.032 15.7881M1.16795 19.9881C1.17595 21.3321 1.61998 22.6561 2.49598 23.9601C2.51998 23.9961 2.54395 24.0321 2.56795 24.0681C3.49595 25.4041 4.88002 26.6081 6.72402 27.6721C7.70402 28.2361 8.74793 28.7282 9.85993 29.1402C10.8439 29.5122 11.8799 29.8201 12.9679 30.0721C15.1479 30.5721 17.36 30.8441 19.608 30.8721C19.748 30.8801 19.892 30.8801 20.032 30.8801C22.236 30.8841 24.4079 30.6641 26.5439 30.2121C26.7279 30.1761 26.908 30.1361 27.088 30.0961C28.388 29.8001 29.6159 29.4161 30.7639 28.9481C31.6559 28.5921 32.504 28.1802 33.304 27.7202C33.36 27.6882 33.4159 27.6562 33.4719 27.6202C33.8719 27.3882 34.248 27.1481 34.596 26.9081C34.636 26.8801 34.676 26.8562 34.712 26.8282C35.14 26.5322 35.532 26.2161 35.884 25.8841C36.052 25.7161 36.1479 25.5441 36.1679 25.3641M1.16795 19.9881L1.16794 27.9881C1.17594 29.3681 1.64394 30.7281 2.56794 32.0681C3.49594 33.4041 4.88002 34.6081 6.72402 35.6721C8.56802 36.7361 10.6479 37.5361 12.9679 38.0721C15.2839 38.6041 17.64 38.8761 20.032 38.8801C22.424 38.8841 24.776 38.6241 27.088 38.0961C29.4 37.5681 31.472 36.7761 33.304 35.7201C33.812 35.4281 34.28 35.1281 34.712 34.8281C35.14 34.5321 35.532 34.2161 35.884 33.8841C36.1 33.6681 36.1959 33.4401 36.1679 33.2041M36.1679 25.3641V25.2161C36.1639 25.1841 36.1559 25.1521 36.1479 25.1161C36.1279 25.0401 36.0999 24.9681 36.0559 24.8961M36.1679 25.3641L36.1679 33.2041M36.0559 24.8961C35.9559 24.7201 35.7839 24.5602 35.5439 24.4242L34.596 23.8761M36.0559 24.8961L36.368 24.7161C36.696 24.5241 36.908 24.2921 36.996 24.0241C37.02 23.9441 37.0321 23.8641 37.0321 23.7881M34.596 23.8761L33.8439 23.4441C33.3319 23.1481 33.076 22.7841 33.076 22.3481C33.072 21.9121 33.324 21.5481 33.832 21.2561L34.2519 21.0162L34.596 20.8162M34.596 23.8761V20.8162M34.596 20.8162L34.496 20.7601C33.784 20.3481 33.428 19.8561 33.424 19.2801C33.42 18.7041 33.772 18.2121 34.48 17.8041L36.3679 16.7162C36.6959 16.5242 36.908 16.2922 36.996 16.0242C37.02 15.9442 37.032 15.8641 37.032 15.7881M37.032 15.7881L37.0321 23.7881M37.032 15.7881V15.7481M37.0321 23.7881L37.032 23.8361M36.1679 33.2041V33.2801M29.936 19.6561C29.38 19.3361 28.716 19.1761 27.94 19.1721C27.168 19.1721 26.504 19.3321 25.952 19.6481C25.4 19.9681 25.1241 20.3521 25.1281 20.8001C25.1281 21.2481 25.408 21.6321 25.964 21.9521C26.52 22.2721 27.184 22.4321 27.96 22.4361C28.736 22.4361 29.396 22.2761 29.948 21.9601C30.5 21.6401 30.776 21.2561 30.776 20.8081C30.772 20.3601 30.492 19.9761 29.936 19.6561ZM16.62 14.2641C17.172 13.9441 17.836 13.7841 18.608 13.7881C19.384 13.7881 20.052 13.9481 20.604 14.2681C21.16 14.5921 21.4399 14.9762 21.4439 15.4202C21.4439 15.8682 21.172 16.2521 20.62 16.5721C20.068 16.8881 19.404 17.0481 18.628 17.0481C17.852 17.0481 17.188 16.8841 16.632 16.5641C16.076 16.2441 15.796 15.8601 15.796 15.4121C15.792 14.9641 16.068 14.5801 16.62 14.2641ZM23.092 25.3402C22.98 25.5842 22.728 25.7442 22.328 25.8202C20.604 26.0482 18.888 26.0241 17.18 25.7521C15.472 25.4801 13.976 24.9722 12.688 24.2282C11.42 23.5002 10.5439 22.6361 10.0639 21.6441C9.61194 20.7081 9.54793 19.7722 9.87193 18.8282C9.88793 18.7722 9.91201 18.7161 9.93201 18.6601C10.064 18.4321 10.3399 18.2842 10.7599 18.2242C11.0599 18.1802 11.336 18.1921 11.58 18.2761C11.676 18.3041 11.7679 18.3441 11.8559 18.3961L22.788 24.7081C23.1 24.8881 23.2 25.1002 23.092 25.3402Z" stroke="#27272A" stroke-opacity="0.25" stroke-linecap="round" stroke-linejoin="round"/>
      </svg>