<svg xmlns="http://www.w3.org/2000/svg" viewBox="0 0 48 48">
        <path d="M30.1051 46.9763C30.2122 46.9406 30.3114 46.893 30.4026 46.8295L30.1051 46.9763Z" fill="white"/>
<path d="M17.514 7.05693L14.5586 13.4001L5.19269 8.9333C4.74046 8.75082 4.38741 8.71115 4.12956 8.82222L11.9484 4.91479L12.0634 4.85528C12.3213 4.74421 12.6743 4.78388 13.1266 4.96636L17.514 7.05693Z" fill="white"/>
<path d="M38.7134 42.4302C38.6023 42.6404 38.4516 42.7991 38.2731 42.9022L38.1144 42.9816L30.4066 46.8255C30.5574 46.7224 30.6803 46.5796 30.7795 46.3971C30.9422 46.0996 30.9739 45.687 30.8787 45.1475L28.7524 33.453L29.1372 33.2943L35.8493 30.5135L35.9643 30.454L36.7894 30.0454L38.8126 41.1806C38.9078 41.7201 38.876 42.1326 38.7134 42.4302Z" fill="white"/>
<path d="M36.3808 28.4388C36.2539 27.9588 36.0595 27.5145 35.8016 27.1059C35.5438 26.6973 35.1907 26.3284 34.7385 25.9952L25.3725 19.6441L21.7547 7.69168C21.592 7.15615 21.3421 6.68011 21.0049 6.26358C20.6677 5.84706 20.3186 5.53763 19.9656 5.33135C19.6125 5.12904 19.2674 5.0378 18.9302 5.06557C18.835 5.0735 18.7478 5.09334 18.6684 5.12507C18.4582 5.20838 18.2955 5.37499 18.1805 5.62887L17.514 7.05693L14.5586 13.4001L5.19269 8.9333C4.74046 8.75082 4.38741 8.71115 4.12956 8.82222C3.87171 8.92933 3.6813 9.15152 3.55039 9.48474C3.42345 9.814 3.39964 10.2186 3.47898 10.6867C3.55832 11.1588 3.76064 11.6547 4.08197 12.1704L11.1788 23.3056L9.0565 32.5485C8.95732 32.973 8.98906 33.4252 9.1517 33.9092C9.31435 34.3892 9.53649 34.8414 9.82608 35.2659C10.1157 35.6943 10.4568 36.0355 10.8416 36.2973C11.2264 36.5552 11.5993 36.6583 11.9524 36.6067L19.9656 35.6904L27.9828 45.8576C28.3358 46.3217 28.7048 46.647 29.0896 46.8335C29.4783 47.0199 29.8155 47.0675 30.1051 46.9763L30.4026 46.8295H30.4066C30.5573 46.7224 30.6803 46.5796 30.7795 46.3971C30.9422 46.0996 30.9739 45.687 30.8787 45.1475L28.7524 33.453L29.1372 33.2943L35.8493 30.5135L35.9643 30.454C36.2182 30.2992 36.3808 30.0573 36.4522 29.7281C36.5355 29.3472 36.5117 28.9188 36.3808 28.4388ZM28.7365 27.5899L24.4562 29.3631L26.0509 38.2609L19.9656 30.4857V13.1978L22.7662 22.3495L27.8995 25.8404L29.8155 27.1416L28.7365 27.5899Z" fill="white"/>
<path d="M27.8995 25.8404L27.8995 26.5188L19.9656 30.4857V13.1978L22.7662 22.3495L27.8995 25.8404Z" fill="white"/>
<path d="M26.0509 38.2609L19.9656 30.4857L27.8995 26.5188L28.7365 27.5899L24.4562 29.3631L26.0509 38.2609Z" fill="white"/>
<path d="M44.3861 25.7611C44.3068 26.1379 44.1045 26.3997 43.7831 26.5465L36.7894 30.0454L35.9643 30.454C36.2182 30.2992 36.3808 30.0573 36.4522 29.7281C36.5355 29.3472 36.5117 28.9188 36.3808 28.4388C36.2539 27.9588 36.0595 27.5145 35.8016 27.1059C35.5438 26.6973 35.1907 26.3284 34.7385 25.9952L25.3725 19.6441L27.8995 18.3826L30.3273 17.1647L33.3065 15.6771L42.6724 22.0282C43.1246 22.3614 43.4777 22.7303 43.7355 23.1389C43.9934 23.5475 44.1878 23.9918 44.3147 24.4718C44.4456 24.9518 44.4694 25.3802 44.3861 25.7611Z" fill="white"/>
<path d="M33.3065 15.6771L30.3273 17.1647L27.8995 18.3826L25.3725 19.6441L21.7547 7.69168C21.592 7.15615 21.3421 6.68011 21.0049 6.26358C20.6677 5.84706 20.3186 5.53763 19.9656 5.33135C19.6125 5.12904 19.2674 5.0378 18.9302 5.06557C18.835 5.0735 18.7478 5.09334 18.6684 5.12507L26.519 1.1978C26.6221 1.14226 26.7372 1.11052 26.8641 1.09862C27.2013 1.07085 27.5464 1.16209 27.8995 1.36441C28.2525 1.57069 28.6016 1.88011 28.9388 2.29664C29.276 2.71317 29.5259 3.1892 29.6886 3.72474L33.3065 15.6771Z" fill="white"/>
<path d="M30.1051 46.9763C30.2122 46.9406 30.3114 46.893 30.4026 46.8295M30.1051 46.9763L30.4026 46.8295M30.1051 46.9763C29.8155 47.0675 29.4783 47.0199 29.0896 46.8335C28.7048 46.647 28.3358 46.3217 27.9828 45.8576L19.9656 35.6904L11.9524 36.6067C11.5993 36.6583 11.2264 36.5552 10.8416 36.2973C10.4568 36.0355 10.1157 35.6943 9.82608 35.2659C9.53649 34.8414 9.31435 34.3892 9.1517 33.9092C8.98906 33.4252 8.95732 32.973 9.0565 32.5485L11.1788 23.3056L4.08197 12.1704C3.76064 11.6547 3.55832 11.1588 3.47898 10.6867C3.39964 10.2186 3.42345 9.814 3.55039 9.48474C3.6813 9.15152 3.87171 8.92933 4.12956 8.82222M30.4026 46.8295H30.4066C30.5573 46.7224 30.6803 46.5796 30.7795 46.3971M17.514 7.05693L13.1266 4.96636C12.6743 4.78388 12.3213 4.74421 12.0634 4.85528L11.9484 4.91479L4.12956 8.82222M17.514 7.05693L18.1805 5.62887C18.2955 5.37499 18.4582 5.20838 18.6684 5.12507M17.514 7.05693L14.5586 13.4001L5.19269 8.9333C4.74046 8.75082 4.38741 8.71115 4.12956 8.82222M30.7795 46.3971C30.6803 46.5796 30.5574 46.7224 30.4066 46.8255L38.1144 42.9816L38.2731 42.9022C38.4516 42.7991 38.6023 42.6404 38.7134 42.4302C38.876 42.1326 38.9078 41.7201 38.8126 41.1806L36.7894 30.0454M30.7795 46.3971C30.9422 46.0996 30.9739 45.687 30.8787 45.1475L28.7524 33.453L29.1372 33.2943L35.8493 30.5135L35.9643 30.454M35.9643 30.454L36.7894 30.0454M35.9643 30.454C36.2182 30.2992 36.3808 30.0573 36.4522 29.7281C36.5355 29.3472 36.5117 28.9188 36.3808 28.4388C36.2539 27.9588 36.0595 27.5145 35.8016 27.1059C35.5438 26.6973 35.1907 26.3284 34.7385 25.9952L25.3725 19.6441M36.7894 30.0454L43.7831 26.5465C44.1045 26.3997 44.3068 26.1379 44.3861 25.7611C44.4694 25.3802 44.4456 24.9518 44.3147 24.4718C44.1878 23.9918 43.9934 23.5475 43.7355 23.1389C43.4777 22.7303 43.1246 22.3614 42.6724 22.0282L33.3065 15.6771M25.3725 19.6441L27.8995 18.3826L30.3273 17.1647L33.3065 15.6771M25.3725 19.6441L21.7547 7.69168C21.592 7.15615 21.3421 6.68011 21.0049 6.26358C20.6677 5.84706 20.3186 5.53763 19.9656 5.33135C19.6125 5.12904 19.2674 5.0378 18.9302 5.06557C18.835 5.0735 18.7478 5.09334 18.6684 5.12507M18.6684 5.12507L26.519 1.1978C26.6221 1.14226 26.7372 1.11052 26.8641 1.09862C27.2013 1.07085 27.5464 1.16209 27.8995 1.36441C28.2525 1.57069 28.6016 1.88011 28.9388 2.29664C29.276 2.71317 29.5259 3.1892 29.6886 3.72474L33.3065 15.6771M28.7365 27.5899L24.4562 29.3631L26.0509 38.2609L19.9656 30.4857M28.7365 27.5899L29.8155 27.1416L27.8995 25.8404M28.7365 27.5899L27.8995 26.5188M19.9656 30.4857V13.1978L22.7662 22.3495L27.8995 25.8404M19.9656 30.4857L27.8995 26.5188M27.8995 25.8404L27.8995 26.5188" stroke="#27272A" stroke-opacity="0.25" stroke-linecap="round" stroke-linejoin="round"/>
      </svg>