<svg xmlns="http://www.w3.org/2000/svg" viewBox="0 0 48 48">
        <path d="M45.2928 7.04142C44.1456 6.38382 42.7632 6.05265 41.1408 6.04785C39.5184 6.04785 38.1408 6.37421 37.0032 7.02701C35.8656 7.68461 35.2992 8.4814 35.3088 9.4174C35.3136 10.3534 35.8848 11.1551 37.0272 11.8127C38.1744 12.4751 39.5567 12.8062 41.1791 12.8062C42.8015 12.811 44.1792 12.4846 45.3168 11.827C46.4496 11.179 47.0112 10.3822 47.0112 9.44623V9.43662C47.0064 8.50062 46.4352 7.70382 45.2928 7.04142Z" fill="white"/>
<path d="M40.848 17.8031V17.8127C40.848 18.7439 40.2816 19.5406 39.1488 20.1886L28.824 26.155C28.2384 26.491 27.5473 26.659 26.7553 26.659C25.9585 26.6542 25.2673 26.4863 24.6817 26.1455L22.6032 24.9455L10.2096 32.1022C10.2096 32.1022 10.1953 32.107 10.1905 32.1118C9.60966 32.443 8.92327 32.6062 8.14087 32.6062C7.35847 32.6062 6.65282 32.4335 6.06242 32.0927L1.90568 29.6927C1.32008 29.3519 1.02244 28.9534 1.02244 28.4974C1.01764 28.0366 1.31047 27.6382 1.89607 27.3022L11.3232 21.859L14.2896 20.1455L12.2113 18.9455C11.6209 18.6047 11.3232 18.2063 11.3232 17.7503C11.3184 17.2895 11.6113 16.891 12.1969 16.555L22.5217 10.5886C23.6593 9.93582 25.0368 9.60942 26.664 9.60942C28.2864 9.61422 29.6689 9.94547 30.8113 10.6079L39.1248 15.4079C39.3216 15.5183 39.4992 15.6334 39.6576 15.7534C40.4448 16.3438 40.8432 17.0207 40.848 17.8031Z" fill="white"/>
<path d="M22.5984 24.9454V34.5454L10.2047 41.7022C9.61912 42.0382 8.92802 42.2062 8.13602 42.2062C7.34402 42.2062 6.64797 42.0334 6.05757 41.6926L1.90082 39.2926C1.31522 38.9518 1.01758 38.5533 1.01758 38.0973V28.4973C1.01758 28.9533 1.31522 29.3518 1.90082 29.6926L6.05757 32.0926C6.64797 32.4334 7.33922 32.6062 8.13602 32.6062C8.93282 32.6062 9.60482 32.443 10.1856 32.1118C10.1904 32.107 10.1999 32.107 10.2047 32.1022L22.5984 24.9454Z" fill="white"/>
<path d="M14.2896 20.1455L11.3232 21.859V17.7503C11.3232 18.2063 11.6209 18.6047 12.2113 18.9455L14.2896 20.1455Z" fill="white"/>
<path d="M40.8432 17.8127V27.4031C40.848 28.3391 40.2815 29.1358 39.1439 29.7886L28.8191 35.755C28.2335 36.091 27.5424 36.259 26.7504 36.259C25.9536 36.259 25.2624 36.0863 24.6768 35.7455L22.5984 34.5454V24.9454L24.6768 26.1455C25.2624 26.4863 25.9536 26.6542 26.7504 26.659C27.5424 26.659 28.2335 26.491 28.8191 26.155L39.1439 20.1886C40.2767 19.5406 40.8432 18.7439 40.8432 17.8127Z" fill="white"/>
<path d="M47.0112 9.44623L47.0112 19.0366C47.016 19.9774 46.4544 20.7742 45.3168 21.427C44.1792 22.0846 42.8015 22.411 41.1791 22.4062C41.0639 22.4062 40.9536 22.4062 40.8432 22.3966V17.803C40.8432 17.0206 40.44 16.3438 39.6528 15.7534C39.4944 15.6334 39.3167 15.5182 39.1199 15.4078L35.3088 13.2094L35.3088 9.4174C35.3136 10.3534 35.8848 11.1551 37.0272 11.8127C38.1744 12.4751 39.5567 12.8062 41.1791 12.8062C42.8015 12.811 44.1792 12.4846 45.3168 11.827C46.4496 11.179 47.0112 10.3822 47.0112 9.44623Z" fill="white"/>
<path d="M47.0112 9.44623V9.43662V9.44623Z" fill="white"/>
<path d="M35.3088 9.4174C35.2992 8.4814 35.8656 7.68461 37.0032 7.02701C38.1408 6.37421 39.5184 6.04785 41.1408 6.04785C42.7632 6.05265 44.1456 6.38382 45.2928 7.04142C46.4352 7.70382 47.0064 8.50062 47.0112 9.43662V9.44623M35.3088 9.4174C35.3136 10.3534 35.8848 11.1551 37.0272 11.8127C38.1744 12.4751 39.5567 12.8062 41.1791 12.8062C42.8015 12.811 44.1792 12.4846 45.3168 11.827C46.4496 11.179 47.0112 10.3822 47.0112 9.44623M35.3088 9.4174L35.3088 13.2094L39.1199 15.4078C39.3167 15.5182 39.4944 15.6334 39.6528 15.7534C40.44 16.3438 40.8432 17.0206 40.8432 17.803V22.3966C40.9536 22.4062 41.0639 22.4062 41.1791 22.4062C42.8015 22.411 44.1792 22.0846 45.3168 21.427C46.4544 20.7742 47.016 19.9774 47.0112 19.0366L47.0112 9.44623M11.3232 21.859L1.89607 27.3022C1.31047 27.6382 1.01764 28.0366 1.02244 28.4974C1.02244 28.9534 1.32008 29.3519 1.90568 29.6927L6.06242 32.0927C6.65282 32.4335 7.35847 32.6062 8.14087 32.6062C8.92327 32.6062 9.60966 32.443 10.1905 32.1118C10.1953 32.107 10.2096 32.1022 10.2096 32.1022L22.6032 24.9455L24.6817 26.1455C25.2673 26.4863 25.9585 26.6542 26.7553 26.659C27.5473 26.659 28.2384 26.491 28.824 26.155L39.1488 20.1886C40.2816 19.5406 40.848 18.7439 40.848 17.8127V17.8031C40.8432 17.0207 40.4448 16.3438 39.6576 15.7534C39.4992 15.6334 39.3216 15.5183 39.1248 15.4079L30.8113 10.6079C29.6689 9.94547 28.2864 9.61422 26.664 9.60942C25.0368 9.60942 23.6593 9.93582 22.5217 10.5886L12.1969 16.555C11.6113 16.891 11.3184 17.2895 11.3232 17.7503M11.3232 21.859L14.2896 20.1455L12.2113 18.9455C11.6209 18.6047 11.3232 18.2063 11.3232 17.7503M11.3232 21.859V17.7503M22.5984 24.9454V34.5454M22.5984 24.9454L24.6768 26.1455C25.2624 26.4863 25.9536 26.6542 26.7504 26.659C27.5424 26.659 28.2335 26.491 28.8191 26.155L39.1439 20.1886C40.2767 19.5406 40.8432 18.7439 40.8432 17.8127V27.4031C40.848 28.3391 40.2815 29.1358 39.1439 29.7886L28.8191 35.755C28.2335 36.091 27.5424 36.259 26.7504 36.259C25.9536 36.259 25.2624 36.0863 24.6768 35.7455L22.5984 34.5454M22.5984 24.9454L10.2047 32.1022C10.1999 32.107 10.1904 32.107 10.1856 32.1118C9.60482 32.443 8.93282 32.6062 8.13602 32.6062C7.33922 32.6062 6.64797 32.4334 6.05757 32.0926L1.90082 29.6926C1.31522 29.3518 1.01758 28.9533 1.01758 28.4973V38.0973C1.01758 38.5533 1.31522 38.9518 1.90082 39.2926L6.05757 41.6926C6.64797 42.0334 7.34402 42.2062 8.13602 42.2062C8.92802 42.2062 9.61912 42.0382 10.2047 41.7022L22.5984 34.5454" stroke="#27272A" stroke-opacity="0.25" stroke-linecap="round" stroke-linejoin="round"/>
      </svg>