<svg xmlns="http://www.w3.org/2000/svg" viewBox="0 0 48 48">
        <path d="M46.9171 22.4886V22.6036C46.8973 22.8694 46.7109 23.1034 46.3618 23.3018C46.1833 23.4049 45.9849 23.4882 45.7667 23.5398C45.5089 23.6112 45.2272 23.6469 44.9218 23.643H42.7439L37.1149 23.6311L21.0249 23.6033H19.101C18.5377 23.5953 18.0656 23.4882 17.6927 23.2701C17.534 23.1788 17.4071 23.0796 17.3198 22.9686C17.1889 22.8139 17.1254 22.6472 17.1254 22.4568L17.1175 20.9018L17.0977 17.6529L17.0858 15.5504C17.0858 15.2529 17.2841 14.991 17.6808 14.761C18.0775 14.5309 18.5337 14.4158 19.0494 14.4158C19.5651 14.4198 20.0253 14.5349 20.422 14.7649C20.7512 14.9553 20.9456 15.1656 21.0011 15.3996C21.017 15.4512 21.0249 15.5028 21.0249 15.5583L21.0408 18.6327L21.0567 21.3263L33.1638 21.3501L44.9773 21.3699C45.2629 21.3699 45.5247 21.4016 45.7667 21.4691C45.9651 21.5246 46.1476 21.6 46.3181 21.6952C46.695 21.9134 46.8933 22.1791 46.9171 22.4886Z" fill="white"/>
<path d="M45.7667 17.9266V21.4691C45.5247 21.4016 45.2629 21.3699 44.9773 21.3699L33.1638 21.3501L24.7539 16.4906V8.55667L42.3591 18.7239C42.7598 18.954 43.2318 19.073 43.7714 19.073C44.3109 19.073 44.779 18.958 45.1757 18.7279C45.5684 18.5058 45.7667 18.232 45.7667 17.9266Z" fill="white"/>
<path d="M46.9171 22.6036V30.4223C46.9449 30.7357 46.7585 31.0055 46.3618 31.2356C45.9651 31.4656 45.4811 31.5807 44.9218 31.5767L37.4084 31.5648V26.86C37.4084 26.5466 37.2061 26.2769 36.8054 26.0468C36.4087 25.8167 35.9367 25.6977 35.3972 25.6977C34.8577 25.6977 34.3896 25.8127 33.9929 26.0428L24.8768 31.307L21.3304 29.26L21.0567 29.1013L17.1056 26.8204L17.0858 23.4842V17.6607L17.0977 17.6529L17.1175 20.9018L17.1254 22.4568C17.1254 22.6472 17.1889 22.8139 17.3198 22.9686C17.4071 23.0796 17.534 23.1788 17.6927 23.2701C18.0656 23.4882 18.5377 23.5952 19.101 23.5992H21.0249L37.1149 23.6311L42.7439 23.6389H44.9218C45.2272 23.6468 45.5089 23.6112 45.7667 23.5398C45.9849 23.4882 46.1833 23.4049 46.3618 23.3018C46.7109 23.1034 46.8973 22.8694 46.9171 22.6036Z" fill="white"/>
<path d="M17.0858 23.8413V23.4842V23.8413Z" fill="white"/>
<path d="M45.7667 17.9186L45.7667 17.9266C45.7667 18.232 45.5684 18.5058 45.1757 18.7279C44.779 18.958 44.3109 19.073 43.7714 19.073C43.2318 19.073 42.7598 18.954 42.3591 18.7239L24.7539 8.55667L5.11358 19.8981L11.9843 23.8651L17.1056 26.8204L21.0567 29.1013L21.3304 29.26L24.8768 31.307L33.9929 26.0428C34.3896 25.8127 34.8577 25.6977 35.3972 25.6977C35.9367 25.6977 36.4087 25.8167 36.8054 26.0468C37.2061 26.2769 37.4084 26.5466 37.4084 26.86L37.4085 26.868C37.4085 27.1735 37.2101 27.4472 36.8174 27.6694L27.6973 32.9335C26.9278 33.3818 25.9916 33.6039 24.8888 33.5999C23.786 33.5999 22.8458 33.3738 22.0683 32.9256L2.30893 21.5166C1.53141 21.0684 1.14267 20.5249 1.1387 19.8902C1.13474 19.2515 1.51952 18.712 2.29307 18.2677L21.9294 6.93017C22.699 6.48191 23.6392 6.25976 24.738 6.26372C25.8409 6.26372 26.781 6.48984 27.5585 6.9381L45.1677 17.1054C45.5644 17.3355 45.7667 17.6052 45.7667 17.9186Z" fill="white"/>
<path d="M24.7539 8.55667V16.4906L21.0408 18.6327L21.0249 15.5583C21.0249 15.5028 21.017 15.4512 21.0011 15.3996C20.9456 15.1656 20.7512 14.9553 20.422 14.7649C20.0253 14.5349 19.5651 14.4198 19.0494 14.4158C18.5337 14.4158 18.0775 14.5309 17.6808 14.761C17.2841 14.991 17.0858 15.2529 17.0858 15.5504L17.0858 20.9177L11.9843 23.8651L5.11358 19.8981L24.7539 8.55667Z" fill="white"/>
<path d="M37.4085 26.868L37.4084 34.7939C37.4124 35.1034 37.214 35.3771 36.8173 35.6032L27.6973 40.8673C26.9278 41.3156 25.9916 41.5377 24.8887 41.5338C23.7859 41.5338 22.8458 41.3077 22.0683 40.8594L2.3089 29.4505C1.53138 29.0022 1.14264 28.4587 1.13867 27.824L1.1387 19.8902C1.14267 20.5249 1.53141 21.0684 2.30893 21.5166L22.0683 32.9256C22.8458 33.3738 23.786 33.5999 24.8888 33.5999C25.9916 33.6039 26.9278 33.3818 27.6973 32.9335L36.8174 27.6694C37.2101 27.4472 37.4085 27.1735 37.4085 26.868Z" fill="white"/>
<path d="M46.9171 22.6036V22.4886C46.8933 22.1791 46.695 21.9134 46.3181 21.6952C46.1476 21.6 45.9651 21.5246 45.7667 21.4691M46.9171 22.6036C46.8973 22.8694 46.7109 23.1034 46.3618 23.3018C46.1833 23.4049 45.9849 23.4882 45.7667 23.5398M46.9171 22.6036V30.4223C46.9449 30.7357 46.7585 31.0055 46.3618 31.2356C45.9651 31.4656 45.4811 31.5807 44.9218 31.5767L37.4084 31.5648V26.86M45.7667 23.5398C45.5089 23.6112 45.2272 23.6469 44.9218 23.643H42.7439L37.1149 23.6311M45.7667 23.5398C45.5089 23.6112 45.2272 23.6468 44.9218 23.6389H42.7439L37.1149 23.6311M37.1149 23.6311L21.0249 23.6033H19.101C18.5377 23.5953 18.0656 23.4882 17.6927 23.2701M37.1149 23.6311L21.0249 23.5992H19.101C18.5377 23.5952 18.0656 23.4882 17.6927 23.2701M17.6927 23.2701C17.534 23.1788 17.4071 23.0796 17.3198 22.9686C17.1889 22.8139 17.1254 22.6472 17.1254 22.4568L17.1175 20.9018L17.0977 17.6529M17.0977 17.6529L17.0858 15.5504M17.0977 17.6529L17.0858 17.6607V23.4842M17.0858 15.5504C17.0858 15.2529 17.2841 14.991 17.6808 14.761C18.0775 14.5309 18.5337 14.4158 19.0494 14.4158C19.5651 14.4198 20.0253 14.5349 20.422 14.7649C20.7512 14.9553 20.9456 15.1656 21.0011 15.3996C21.017 15.4512 21.0249 15.5028 21.0249 15.5583L21.0408 18.6327M17.0858 15.5504L17.0858 20.9177L11.9843 23.8651M21.0408 18.6327L21.0567 21.3263L33.1638 21.3501M21.0408 18.6327L24.7539 16.4906M33.1638 21.3501L24.7539 16.4906M33.1638 21.3501L44.9773 21.3699C45.2629 21.3699 45.5247 21.4016 45.7667 21.4691M45.7667 21.4691V17.9266M45.7667 17.9266C45.7667 18.232 45.5684 18.5058 45.1757 18.7279C44.779 18.958 44.3109 19.073 43.7714 19.073C43.2319 19.073 42.7598 18.954 42.3591 18.7239L24.7539 8.55667M45.7667 17.9266L45.7667 17.9186C45.7667 17.6052 45.5644 17.3355 45.1677 17.1054L27.5585 6.9381C26.781 6.48984 25.8409 6.26372 24.738 6.26372C23.6392 6.25976 22.699 6.48191 21.9294 6.93017L2.29307 18.2677C1.51952 18.712 1.13474 19.2515 1.1387 19.8902M24.7539 16.4906V8.55667M24.7539 8.55667L5.11358 19.8981L11.9843 23.8651M37.4084 26.86C37.4084 26.5466 37.2061 26.2769 36.8054 26.0468C36.4087 25.8167 35.9367 25.6977 35.3972 25.6977C34.8577 25.6977 34.3896 25.8127 33.9929 26.0428L24.8768 31.307L21.3304 29.26L21.0567 29.1013L17.1056 26.8204M37.4084 26.86L37.4085 26.868M17.1056 26.8204L17.0858 23.4842M17.1056 26.8204L11.9843 23.8651M17.0858 23.4842V23.8413M37.4085 26.868C37.4085 27.1735 37.2101 27.4472 36.8174 27.6694L27.6973 32.9335C26.9278 33.3818 25.9916 33.6039 24.8888 33.5999C23.786 33.5999 22.8458 33.3738 22.0683 32.9256L2.30893 21.5166C1.53141 21.0684 1.14267 20.5249 1.1387 19.8902M37.4085 26.868L37.4084 34.7939C37.4124 35.1034 37.214 35.3771 36.8173 35.6032L27.6973 40.8673C26.9278 41.3156 25.9916 41.5377 24.8887 41.5338C23.7859 41.5338 22.8458 41.3077 22.0683 40.8594L2.3089 29.4505C1.53138 29.0022 1.14264 28.4587 1.13867 27.824L1.1387 19.8902" stroke="#27272A" stroke-opacity="0.25" stroke-linecap="round" stroke-linejoin="round"/>
      </svg>