<svg xmlns="http://www.w3.org/2000/svg" viewBox="0 0 48 48">
        <path d="M45.3088 14.97C44.1724 13.3331 42.4821 11.8643 40.2256 10.5638C37.9692 9.25919 35.4256 8.28278 32.5948 7.63047C29.7599 6.97406 26.8799 6.64586 23.9548 6.64176C21.0297 6.63355 18.1538 6.95355 15.3271 7.59765C12.5005 8.24176 9.96915 9.20996 7.72504 10.5023C5.48504 11.7987 3.80713 13.2592 2.69123 14.892C1.57944 16.5248 1.02558 18.1864 1.03378 19.8725C1.04199 21.2469 1.41943 22.6007 2.1702 23.9382C2.34251 24.2459 2.53532 24.5536 2.74865 24.8613C3.88096 26.4982 5.5753 27.9669 7.82761 29.2674C10.084 30.5679 12.6276 31.5484 15.4625 32.2007C18.2933 32.8531 21.1733 33.1854 24.0984 33.1895C27.0235 33.1936 29.8994 32.8777 32.7261 32.2336C35.5528 31.5895 38.0882 30.6213 40.3282 29.3248C42.5682 28.0325 44.2462 26.5679 45.3621 24.9392C45.5549 24.6602 45.7272 24.3813 45.8872 24.0982C46.6421 22.7484 47.0195 21.3782 47.0195 19.9915V19.9546C47.0113 18.2684 46.4411 16.6069 45.3088 14.97ZM29.8953 23.3023C29.4646 23.5525 28.923 23.6756 28.2707 23.6756H25.9733L22.7323 23.6633H19.8235C19.2286 23.6592 18.6994 23.5238 18.2358 23.2572C17.7763 22.9905 17.5425 22.6869 17.5425 22.3423C17.5384 21.9977 17.7682 21.6941 18.2276 21.4274C18.6871 21.1648 19.2123 21.0336 19.8071 21.0336H22.7323L17.5179 18.0264C17.0543 17.7597 16.8245 17.4479 16.8204 17.0869C16.8204 16.73 17.0461 16.4141 17.5056 16.1515C17.9651 15.8848 18.5066 15.7536 19.1302 15.7536C19.7538 15.7577 20.2953 15.8889 20.7589 16.1556L25.9733 19.1669L25.9651 17.4807C25.961 17.1361 26.1907 16.8325 26.6502 16.5659C27.1097 16.2992 27.6348 16.1679 28.2297 16.172C28.8287 16.172 29.3579 16.3033 29.8174 16.57C30.281 16.8366 30.5107 17.1443 30.5148 17.4889L30.5394 22.3669C30.5435 22.7402 30.3261 23.052 29.8953 23.3023Z" fill="white"/>
<path d="M22.7323 21.0376V23.6633H19.8235C19.2286 23.6592 18.6994 23.5238 18.2358 23.2572C17.7763 22.9905 17.5425 22.6869 17.5425 22.3423C17.5384 21.9977 17.7682 21.6941 18.2276 21.4274C18.6871 21.1648 19.2123 21.0336 19.8071 21.0336H22.7323V21.0376Z" fill="white"/>
<path d="M25.9733 19.1669L25.9733 23.6715L22.7323 23.6633V21.0376L17.5179 18.0264C17.0543 17.7597 16.8245 17.4479 16.8204 17.0869C16.8204 16.73 17.0461 16.4141 17.5056 16.1515C17.9651 15.8848 18.5066 15.7536 19.1302 15.7536C19.7538 15.7577 20.2953 15.8889 20.7589 16.1556L25.9733 19.1669Z" fill="white"/>
<path d="M30.5394 22.3669C30.5435 22.7402 30.3261 23.052 29.8953 23.3023C29.4646 23.5525 28.923 23.6756 28.2707 23.6756H25.9733V19.1669L25.9651 17.4807C25.961 17.1361 26.1907 16.8325 26.6502 16.5659C27.1097 16.2992 27.6348 16.1679 28.2297 16.172C28.8287 16.172 29.3579 16.3033 29.8174 16.57C30.281 16.8366 30.5107 17.1443 30.5148 17.4889L30.5394 22.3669Z" fill="white"/>
<path d="M47.0195 19.9915L47.0195 28.1598C47.0277 29.85 46.478 31.5116 45.3621 33.1444C44.2462 34.7731 42.5682 36.2377 40.3282 37.53C38.0882 38.8264 35.5528 39.7946 32.7261 40.4387C29.8994 41.0828 27.0235 41.3987 24.0984 41.3946C21.1733 41.3946 18.2933 41.0582 15.4625 40.4059C12.6276 39.7536 10.0841 38.7731 7.82765 37.4726C5.57534 36.1721 3.88097 34.7033 2.74866 33.0664C1.61635 31.4295 1.042 29.768 1.03379 28.0777L1.03378 19.8725C1.04199 21.2469 1.41943 22.6007 2.1702 23.9382C2.34251 24.2459 2.53532 24.5536 2.74865 24.8613C3.88096 26.4982 5.5753 27.9669 7.82761 29.2674C10.084 30.5679 12.6276 31.5484 15.4625 32.2007C18.2933 32.8531 21.1733 33.1854 24.0984 33.1895C27.0235 33.1936 29.8994 32.8777 32.7261 32.2336C35.5528 31.5895 38.0882 30.6213 40.3282 29.3248C42.5682 28.0325 44.2462 26.5679 45.3621 24.9392C45.5549 24.6602 45.7272 24.3813 45.8872 24.0982C46.6421 22.7484 47.0195 21.3782 47.0195 19.9915Z" fill="white"/>
<path d="M1.03378 19.8725C1.02558 18.1864 1.57944 16.5248 2.69123 14.892C3.80713 13.2592 5.48504 11.7987 7.72504 10.5023C9.96915 9.20996 12.5005 8.24176 15.3271 7.59765C18.1538 6.95355 21.0297 6.63355 23.9548 6.64176C26.8799 6.64586 29.7599 6.97406 32.5948 7.63047C35.4256 8.28278 37.9692 9.25919 40.2256 10.5638C42.4821 11.8643 44.1724 13.3331 45.3088 14.97C46.4411 16.6069 47.0113 18.2684 47.0195 19.9546V19.9915M1.03378 19.8725C1.04199 21.2469 1.41943 22.6007 2.1702 23.9382C2.34251 24.2459 2.53532 24.5536 2.74865 24.8613C3.88096 26.4982 5.5753 27.9669 7.82761 29.2674C10.084 30.5679 12.6276 31.5484 15.4625 32.2007C18.2933 32.8531 21.1733 33.1854 24.0984 33.1895C27.0235 33.1936 29.8994 32.8777 32.7261 32.2336C35.5528 31.5895 38.0882 30.6213 40.3282 29.3248C42.5682 28.0325 44.2462 26.5679 45.3621 24.9392C45.5549 24.6602 45.7272 24.3813 45.8872 24.0982C46.6421 22.7484 47.0195 21.3782 47.0195 19.9915M1.03378 19.8725L1.03379 28.0777C1.042 29.768 1.61635 31.4295 2.74866 33.0664C3.88097 34.7033 5.57534 36.1721 7.82765 37.4726C10.0841 38.7731 12.6276 39.7536 15.4625 40.4059C18.2933 41.0582 21.1733 41.3946 24.0984 41.3946C27.0235 41.3987 29.8994 41.0828 32.7261 40.4387C35.5528 39.7946 38.0882 38.8264 40.3282 37.53C42.5682 36.2377 44.2462 34.7731 45.3621 33.1444C46.478 31.5116 47.0277 29.85 47.0195 28.1598L47.0195 19.9915M25.9733 23.6756H28.2707C28.923 23.6756 29.4646 23.5525 29.8953 23.3023C30.3261 23.052 30.5435 22.7402 30.5394 22.3669L30.5148 17.4889C30.5107 17.1443 30.281 16.8366 29.8174 16.57C29.3579 16.3033 28.8287 16.172 28.2297 16.172C27.6348 16.1679 27.1097 16.2992 26.6502 16.5659C26.1907 16.8325 25.961 17.1361 25.9651 17.4807L25.9733 19.1669M25.9733 23.6756L22.7323 23.6633M25.9733 23.6756V19.1669M22.7323 23.6633H19.8235C19.2286 23.6592 18.6994 23.5238 18.2358 23.2572C17.7763 22.9905 17.5425 22.6869 17.5425 22.3423C17.5384 21.9977 17.7682 21.6941 18.2276 21.4274C18.6871 21.1648 19.2123 21.0336 19.8071 21.0336H22.7323M22.7323 23.6633V21.0376M22.7323 23.6633L25.9733 23.6715L25.9733 19.1669M22.7323 21.0336L17.5179 18.0264M22.7323 21.0336V21.0376M17.5179 18.0264C17.0543 17.7597 16.8245 17.4479 16.8204 17.0869C16.8204 16.73 17.0461 16.4141 17.5056 16.1515C17.9651 15.8848 18.5066 15.7536 19.1302 15.7536C19.7538 15.7577 20.2953 15.8889 20.7589 16.1556L25.9733 19.1669M17.5179 18.0264L22.7323 21.0376" stroke="#27272A" stroke-opacity="0.25" stroke-linecap="round" stroke-linejoin="round"/>
      </svg>