<svg xmlns="http://www.w3.org/2000/svg" viewBox="0 0 48 48">
        <path d="M46.703 19.5924V28.7816C46.7123 30.4616 46.163 32.1093 45.0553 33.7293C43.9476 35.3539 42.2814 36.8078 40.0522 38.0909C37.8276 39.3786 35.3076 40.3432 32.4968 40.9801C29.6907 41.6216 26.8291 41.9401 23.926 41.9309C21.0183 41.9263 18.1568 41.5986 15.3414 40.9524C12.5261 40.3016 9.99683 39.3278 7.75376 38.0355C5.51529 36.7386 3.83066 35.2801 2.70451 33.6554C1.57835 32.0308 1.01069 30.3785 1.00146 28.6985V19.4677C1.01069 21.0185 1.49526 22.5416 2.45526 24.0463C2.53372 24.1709 2.61681 24.3001 2.70451 24.4247C3.83066 26.0493 5.51529 27.5078 7.75376 28.8047C9.99683 30.097 12.5261 31.0709 15.3414 31.7216C18.1568 32.3678 21.0183 32.6955 23.926 32.7001C26.8291 32.7093 29.6907 32.3909 32.4968 31.7493C35.3076 31.1124 37.8276 30.1478 40.0522 28.8601C42.2814 27.577 43.9476 26.1231 45.0553 24.4985C45.1245 24.4016 45.1891 24.3001 45.2491 24.2031C46.2184 22.6893 46.703 21.157 46.703 19.5924Z" fill="white"/>
<path d="M36.7336 12.0739L26.0536 18.2355C25.3198 18.1847 24.5675 18.157 23.7967 18.157C23.026 18.157 22.3336 18.1755 21.6275 18.2263L10.8921 12.0277C14.4875 9.95082 18.789 8.917 23.7967 8.92623C28.7998 8.93546 33.1152 9.98318 36.7336 12.0739Z" fill="white"/>
<path d="M45 14.5939C43.8738 12.9693 42.1939 11.5109 39.9508 10.2139C37.7124 8.92166 35.1831 7.94778 32.3677 7.29701C29.5477 6.65086 26.6862 6.32317 23.7831 6.31855C20.8754 6.30932 18.0185 6.62781 15.2077 7.26935C12.3969 7.90627 9.88154 8.87089 7.65231 10.1586C5.42769 11.4416 3.75693 12.8955 2.64924 14.5201C1.54155 16.1401 0.992226 17.7877 1.00146 19.4677C1.01069 21.0185 1.49526 22.5416 2.45526 24.0463C2.53372 24.1709 2.61681 24.3001 2.70451 24.4247C3.83066 26.0493 5.51529 27.5078 7.75376 28.8047C9.99683 30.097 12.5261 31.0709 15.3414 31.7216C18.1568 32.3678 21.0183 32.6955 23.926 32.7001C26.8291 32.7093 29.6907 32.3909 32.4968 31.7493C35.3076 31.1124 37.8276 30.1478 40.0522 28.8601C42.2814 27.577 43.9476 26.1231 45.0553 24.4985C45.1245 24.4016 45.1891 24.3001 45.2491 24.2031C46.2184 22.6893 46.703 21.157 46.703 19.5924V19.5509C46.6938 17.8709 46.1262 16.2186 45 14.5939ZM26.0536 18.2355L23.8524 19.5094L21.6275 18.2263L10.8921 12.0277C14.4875 9.95082 18.789 8.917 23.7967 8.92623C28.7998 8.93546 33.1152 9.98318 36.7336 12.0739L26.0536 18.2355Z" fill="white"/>
<path d="M46.703 19.5924V28.7816C46.7123 30.4616 46.163 32.1093 45.0553 33.7293C43.9476 35.3539 42.2814 36.8078 40.0522 38.0909C37.8276 39.3786 35.3076 40.3432 32.4968 40.9801C29.6907 41.6216 26.8291 41.9401 23.926 41.9309C21.0183 41.9263 18.1568 41.5986 15.3414 40.9524C12.5261 40.3016 9.99683 39.3278 7.75376 38.0355C5.51529 36.7386 3.83066 35.2801 2.70451 33.6554C1.57835 32.0308 1.01069 30.3785 1.00146 28.6985V19.4677M46.703 19.5924C46.703 21.157 46.2184 22.6893 45.2491 24.2031C45.1891 24.3001 45.1245 24.4016 45.0553 24.4985C43.9476 26.1231 42.2814 27.577 40.0522 28.8601C37.8276 30.1478 35.3076 31.1124 32.4968 31.7493C29.6907 32.3909 26.8291 32.7093 23.926 32.7001C21.0183 32.6955 18.1568 32.3678 15.3414 31.7216C12.5261 31.0709 9.99683 30.097 7.75376 28.8047C5.51529 27.5078 3.83066 26.0493 2.70451 24.4247C2.61681 24.3001 2.53372 24.1709 2.45526 24.0463C1.49526 22.5416 1.01069 21.0185 1.00146 19.4677M46.703 19.5924V19.5509C46.6938 17.8709 46.1262 16.2186 45 14.5939C43.8738 12.9693 42.1939 11.5109 39.9508 10.2139C37.7124 8.92166 35.1831 7.94778 32.3677 7.29701C29.5477 6.65086 26.6862 6.32317 23.7831 6.31855C20.8754 6.30932 18.0185 6.62781 15.2077 7.26935C12.3969 7.90627 9.88154 8.87089 7.65231 10.1586C5.42769 11.4416 3.75693 12.8955 2.64924 14.5201C1.54155 16.1401 0.992226 17.7877 1.00146 19.4677M26.0536 18.2355C25.3198 18.1847 24.5675 18.157 23.7967 18.157C23.026 18.157 22.3336 18.1755 21.6275 18.2263M26.0536 18.2355L23.8524 19.5094L21.6275 18.2263M26.0536 18.2355L36.7336 12.0739C33.1152 9.98318 28.7998 8.93546 23.7967 8.92623C18.789 8.917 14.4875 9.95082 10.8921 12.0277L21.6275 18.2263" stroke="#27272A" stroke-opacity="0.25" stroke-linecap="round" stroke-linejoin="round"/>
      </svg>