<svg xmlns="http://www.w3.org/2000/svg" viewBox="0 0 48 48">
        <path d="M39.2942 37.6298C39.2052 37.3588 39.0891 37.0956 38.9381 36.8401L37.1225 33.7201C37.0141 33.5381 36.9019 33.3717 36.778 33.2169C36.6967 33.1124 36.6116 33.0156 36.5225 32.9227C36.3019 32.6943 36.0735 32.5124 35.8374 32.3769L30.3368 29.2181L29.458 28.7149L21.7664 24.2943C21.0541 21.5924 19.8038 18.9485 18.0154 16.3666C17.098 15.0427 16.0993 13.8775 15.0232 12.871C14.0013 11.9188 12.9096 11.1059 11.7483 10.4401C10.9006 9.95234 10.0916 9.5846 9.31737 9.33685C7.62188 8.79105 6.1045 8.81427 4.76128 9.40653L4.23479 9.66976C2.17544 10.8504 1.14965 13.1304 1.15739 16.5098C1.16513 19.893 2.20642 23.3575 4.2735 26.9111C6.34447 30.4608 8.85672 33.0852 11.8064 34.7768C14.0748 36.0814 16.1226 36.515 17.9497 36.0775C19.7729 35.6401 21.0541 34.4169 21.7858 32.4078L22.4051 32.764L24.7122 36.7201C24.8903 37.0259 25.08 37.2814 25.289 37.4827C25.4941 37.6878 25.7148 37.8543 25.9509 37.9898C26.187 38.1253 26.4077 38.2104 26.6167 38.2452C26.8219 38.2801 27.0116 38.2452 27.1897 38.1446L29.4851 36.8285L32.5858 41.3962C32.7639 41.6672 32.9651 41.9072 33.1858 42.1201C33.4064 42.333 33.6348 42.4879 33.8709 42.5885C34.107 42.693 34.3199 42.7395 34.5135 42.7317C34.6335 42.724 34.7458 42.6969 34.8464 42.6504L34.9045 42.6195C34.9471 42.5962 34.9819 42.573 35.0206 42.542L38.9884 39.604C39.1355 39.4879 39.2478 39.3291 39.3213 39.1356C39.3949 38.942 39.4297 38.7098 39.4297 38.4388C39.4297 38.1678 39.3833 37.8969 39.2942 37.6298ZM16.2696 28.475C16.0683 28.7188 15.8245 28.9201 15.5458 29.0788C14.5161 29.6672 13.2658 29.5395 11.7909 28.6956C10.3161 27.8479 9.06188 26.5356 8.02447 24.7588C6.99092 22.982 6.47221 21.2517 6.46834 19.5601C6.46447 17.8685 6.97547 16.7304 8.00515 16.1382C8.37289 15.9291 8.77156 15.8052 9.20124 15.7781C9.96382 15.7356 10.8193 15.9833 11.7638 16.5253C13.2387 17.373 14.4929 18.6814 15.5225 20.4543H15.5264C15.6116 20.6014 15.689 20.7446 15.7664 20.8878C15.7703 20.8917 15.7703 20.8956 15.7741 20.8995C16.6451 22.5214 17.0825 24.1085 17.0864 25.6569C17.0903 26.8878 16.8154 27.8285 16.2696 28.475Z" fill="white"/>
<path d="M29.5083 20.4233L21.7664 24.2943C21.0541 21.5924 19.8038 18.9485 18.0154 16.3666C17.098 15.0427 16.0993 13.8775 15.0232 12.871C14.0013 11.9188 12.9096 11.1059 11.7483 10.4401C10.9006 9.95234 10.0916 9.5846 9.31737 9.33685C7.62188 8.79105 6.1045 8.81427 4.76128 9.40653L11.9767 5.7988C14.0361 4.61816 16.5406 4.87751 19.4903 6.56912C21.8787 7.94332 23.969 9.9175 25.7574 12.4956C27.5458 15.0775 28.7961 17.7214 29.5083 20.4233Z" fill="white"/>
<path d="M47.1716 34.5678C47.1716 34.8388 47.1368 35.071 47.0633 35.2646C46.9897 35.4581 46.8774 35.6169 46.7304 35.733L42.7626 38.671C42.7162 38.7059 42.6697 38.7369 42.6194 38.764L34.9045 42.6195C34.9471 42.5962 34.9819 42.573 35.0206 42.542L38.9884 39.604C39.1355 39.4879 39.2478 39.3291 39.3213 39.1356C39.3949 38.942 39.4297 38.7098 39.4297 38.4388C39.4297 38.1678 39.3833 37.8969 39.2942 37.6298C39.2052 37.3588 39.0891 37.0956 38.9381 36.8401L37.1225 33.7201C37.0141 33.5381 36.9019 33.3717 36.778 33.2169C36.6967 33.1124 36.6116 33.0156 36.5225 32.9227C36.3019 32.6943 36.0735 32.5124 35.8374 32.3769L30.3368 29.2181L29.458 28.7149L21.7664 24.2943L29.5083 20.4233L43.5794 28.5059C43.8155 28.6414 44.0439 28.8233 44.2645 29.0517C44.4852 29.2801 44.6865 29.5472 44.8645 29.8491L46.68 32.9691C46.831 33.2246 46.9471 33.4878 47.0362 33.7588C47.1252 34.0259 47.1716 34.2969 47.1716 34.5678Z" fill="white"/>
<path d="M17.0864 25.6569C17.0903 26.8878 16.8154 27.8285 16.2696 28.475C16.0683 28.7188 15.8245 28.9201 15.5458 29.0788C14.5161 29.6672 13.2658 29.5395 11.7909 28.6956C10.3161 27.8479 9.06188 26.5356 8.02447 24.7588C6.99092 22.982 6.47221 21.2517 6.46834 19.5601C6.46447 17.8685 6.97547 16.7304 8.00515 16.1382C8.37289 15.9291 8.77156 15.8052 9.20124 15.7781C9.96382 15.7356 10.8193 15.9833 11.7638 16.5253C13.2387 17.373 14.4929 18.6814 15.5225 20.4543H15.5264C15.6039 20.6014 15.6812 20.7446 15.7664 20.8878C15.7703 20.8917 15.7703 20.8956 15.7741 20.8995C16.6451 22.5214 17.0825 24.1085 17.0864 25.6569Z" fill="white"/>
<path d="M21.7664 24.2943C21.0541 21.5924 19.8038 18.9485 18.0154 16.3666C17.098 15.0427 16.0993 13.8775 15.0232 12.871C14.0013 11.9188 12.9096 11.1059 11.7483 10.4401C10.9006 9.95234 10.0916 9.5846 9.31737 9.33685C7.62188 8.79105 6.1045 8.81427 4.76128 9.40653M21.7664 24.2943L29.5083 20.4233M21.7664 24.2943L29.458 28.7149L30.3368 29.2181L35.8374 32.3769C36.0735 32.5124 36.3019 32.6943 36.5225 32.9227C36.6116 33.0156 36.6967 33.1124 36.778 33.2169C36.9019 33.3717 37.0141 33.5381 37.1225 33.7201L38.9381 36.8401C39.0891 37.0956 39.2052 37.3588 39.2942 37.6298C39.3833 37.8969 39.4297 38.1678 39.4297 38.4388C39.4297 38.7098 39.3949 38.942 39.3213 39.1356C39.2478 39.3291 39.1355 39.4879 38.9884 39.604L35.0206 42.542C34.9819 42.573 34.9471 42.5962 34.9045 42.6195M4.76128 9.40653L4.23479 9.66976C2.17544 10.8504 1.14965 13.1304 1.15739 16.5098C1.16513 19.893 2.20642 23.3575 4.2735 26.9111C6.34447 30.4608 8.85672 33.0852 11.8064 34.7768C14.0748 36.0814 16.1226 36.515 17.9497 36.0775C19.7729 35.6401 21.0541 34.4169 21.7858 32.4078L22.4051 32.764L24.7122 36.7201C24.8903 37.0259 25.08 37.2814 25.289 37.4827C25.4941 37.6878 25.7148 37.8543 25.9509 37.9898C26.187 38.1253 26.4077 38.2104 26.6167 38.2452C26.8219 38.2801 27.0116 38.2452 27.1897 38.1446L29.4851 36.8285L32.5858 41.3962C32.7639 41.6672 32.9651 41.9072 33.1858 42.1201C33.4064 42.333 33.6348 42.4879 33.8709 42.5885C34.107 42.693 34.3199 42.7395 34.5135 42.7317C34.6335 42.724 34.7458 42.6969 34.8464 42.6504L34.9045 42.6195M4.76128 9.40653L11.9767 5.7988C14.0361 4.61816 16.5406 4.87751 19.4903 6.56912C21.8787 7.94332 23.969 9.9175 25.7574 12.4956C27.5458 15.0775 28.7961 17.7214 29.5083 20.4233M34.9045 42.6195L42.6194 38.764C42.6697 38.7369 42.7162 38.7059 42.7626 38.671L46.7304 35.733C46.8774 35.6169 46.9897 35.4581 47.0633 35.2646C47.1368 35.071 47.1716 34.8388 47.1716 34.5678C47.1716 34.2969 47.1252 34.0259 47.0362 33.7588C46.9471 33.4878 46.831 33.2246 46.68 32.9691L44.8645 29.8491C44.6865 29.5472 44.4852 29.2801 44.2645 29.0517C44.0439 28.8233 43.8155 28.6414 43.5794 28.5059L29.5083 20.4233M15.5264 20.4543H15.5225C14.4929 18.6814 13.2387 17.373 11.7638 16.5253C10.8193 15.9833 9.96382 15.7356 9.20124 15.7781C8.77156 15.8052 8.37289 15.9291 8.00515 16.1382C6.97547 16.7304 6.46447 17.8685 6.46834 19.5601C6.47221 21.2517 6.99092 22.982 8.02447 24.7588C9.06188 26.5356 10.3161 27.8479 11.7909 28.6956C13.2658 29.5395 14.5161 29.6672 15.5458 29.0788C15.8245 28.9201 16.0683 28.7188 16.2696 28.475C16.8154 27.8285 17.0903 26.8878 17.0864 25.6569C17.0825 24.1085 16.6451 22.5214 15.7741 20.8995C15.7703 20.8956 15.7703 20.8917 15.7664 20.8878M15.5264 20.4543C15.6116 20.6014 15.689 20.7446 15.7664 20.8878M15.5264 20.4543C15.6039 20.6014 15.6812 20.7446 15.7664 20.8878" stroke="#27272A" stroke-opacity="0.25" stroke-linecap="round" stroke-linejoin="round"/>
      </svg>