<svg xmlns="http://www.w3.org/2000/svg" viewBox="0 0 48 48">
        <path d="M42.3205 8.95989C39.2374 7.17835 35.5497 6.28755 31.2481 6.27832C26.9512 6.27832 23.2681 7.15073 20.2081 8.91842C17.8497 10.28 16.4005 11.8999 15.8558 13.7783C15.722 14.2445 15.6481 14.706 15.6389 15.163V15.5368C15.7035 16.7876 16.2296 18.0015 17.2219 19.1784L16.5805 19.5522H15.6389L11.7897 19.5429C11.4205 19.5429 11.0928 19.5798 10.802 19.6583C10.5066 19.7368 10.2389 19.8477 9.9943 19.9907C9.74969 20.1338 9.56046 20.2861 9.422 20.4569C9.28353 20.6231 9.21892 20.8122 9.21892 21.0245L9.23276 23.7938L3.47737 24.1814C3.14045 24.1999 2.81736 24.2507 2.51274 24.3384C2.20351 24.4261 1.94507 24.5507 1.72815 24.7076C1.51584 24.8692 1.36351 25.0353 1.2712 25.2153C1.2112 25.326 1.17891 25.446 1.16968 25.566V25.6169C1.16968 25.6676 1.17428 25.7229 1.18351 25.7737L1.81122 30.9061C1.83891 31.0999 1.9266 31.2845 2.06506 31.4507C2.20352 31.6214 2.39737 31.7783 2.64199 31.9168C2.89122 32.0599 3.15891 32.1615 3.44968 32.2261C3.74506 32.2861 4.04507 32.3184 4.34968 32.3184L8.12969 32.3276C8.4943 32.3276 8.84046 32.2907 9.16353 32.2076C9.18661 32.203 9.20969 32.1984 9.22815 32.1892C9.52353 32.1153 9.78661 32.0092 10.0128 31.88L23.4989 24.0891L24.6158 23.4476C27.4451 24.2322 30.4958 24.4999 33.7635 24.2507C35.5681 24.1122 37.2528 23.7938 38.8174 23.2907C40.0866 22.8892 41.2774 22.3677 42.3897 21.7261C43.3358 21.1815 44.1343 20.5999 44.7851 19.9861C46.2342 18.6199 46.9588 17.0829 46.9588 15.3845V15.3522C46.945 12.8692 45.3989 10.7368 42.3205 8.95989ZM38.8174 16.6353C38.4666 17.3369 37.8066 17.9645 36.842 18.523C35.3143 19.4091 33.4728 19.8476 31.322 19.843C29.1712 19.8384 27.3296 19.3906 25.7881 18.5045C24.805 17.9368 24.1312 17.2953 23.7758 16.5799C23.5728 16.1783 23.4712 15.7537 23.4666 15.306C23.462 14.0645 24.2235 13.003 25.7512 12.1215C27.2835 11.2353 29.1251 10.7968 31.2712 10.8014C33.422 10.806 35.2682 11.2492 36.8097 12.1399C38.3466 13.0307 39.122 14.0969 39.1266 15.3338C39.1312 15.7907 39.0297 16.2245 38.8174 16.6353Z" fill="white"/>
<path d="M39.1266 15.3338C39.1312 15.7907 39.0297 16.2245 38.8174 16.6353C38.4666 17.3369 37.8066 17.9645 36.842 18.523C35.3143 19.4091 33.4728 19.8476 31.322 19.843C29.1712 19.8384 27.3296 19.3906 25.7881 18.5045C24.805 17.9368 24.1312 17.2953 23.7758 16.5799C23.5728 16.1783 23.4712 15.7537 23.4666 15.306C23.462 14.0645 24.2235 13.003 25.7512 12.1215C27.2835 11.2353 29.1251 10.7968 31.2712 10.8014C33.422 10.806 35.2682 11.2492 36.8097 12.1399C38.3466 13.0307 39.122 14.0969 39.1266 15.3338Z" fill="white"/>
<path d="M24.6158 23.4476V32.6784L10.0128 41.1107C9.76815 41.2492 9.48661 41.3599 9.16353 41.4384C8.84046 41.5215 8.4943 41.5584 8.12969 41.5584L4.34968 41.5492C4.04507 41.5492 3.74506 41.5169 3.44968 41.4569C3.15891 41.3923 2.89122 41.2907 2.64199 41.1476C2.39737 41.0091 2.20352 40.8522 2.06506 40.6814C1.9266 40.5153 1.83891 40.3307 1.81122 40.1369L1.18351 35.0045C1.17428 34.9583 1.16968 34.903 1.16968 34.8569V25.6169C1.16968 25.6676 1.17428 25.7229 1.18351 25.7737L1.81122 30.9061C1.83891 31.0999 1.9266 31.2845 2.06506 31.4507C2.20352 31.6214 2.39737 31.7783 2.64199 31.9168C2.89122 32.0599 3.15891 32.1615 3.44968 32.2261C3.74506 32.2861 4.04507 32.3184 4.34968 32.3184L8.12969 32.3276C8.4943 32.3276 8.84046 32.2907 9.16353 32.2076C9.18661 32.203 9.20969 32.1984 9.22815 32.1892C9.52353 32.1153 9.78661 32.0092 10.0128 31.88L23.4989 24.0891L24.6158 23.4476Z" fill="white"/>
<path d="M46.9588 15.3845V24.583C46.9727 27.0615 45.4496 29.1892 42.3896 30.9569C39.9065 32.3877 37.0357 33.2276 33.7634 33.4815C30.4957 33.7307 27.4451 33.463 24.6158 32.6784V23.4476C27.4451 24.2322 30.4958 24.4999 33.7635 24.2507C35.5681 24.1122 37.2528 23.7938 38.8174 23.2907C40.0866 22.8892 41.2774 22.3677 42.3897 21.7261C43.3358 21.1815 44.1343 20.5999 44.7851 19.9861C46.2342 18.6199 46.9588 17.0829 46.9588 15.3845Z" fill="white"/>
<path d="M17.2219 19.1784L16.5805 19.5522H15.6389V15.5368C15.7035 16.7876 16.2296 18.0015 17.2219 19.1784Z" fill="white"/>
<path d="M15.6389 15.163L15.6387 14.9922L15.6389 15.163Z" fill="white"/>
<path d="M15.6389 15.163C15.6481 14.706 15.722 14.2445 15.8558 13.7783C16.4005 11.8999 17.8497 10.28 20.2081 8.91842C23.2681 7.15073 26.9512 6.27832 31.2481 6.27832C35.5497 6.28755 39.2374 7.17835 42.3205 8.95989C45.3989 10.7368 46.945 12.8692 46.9588 15.3522V15.3845M15.6389 15.163V15.5368M15.6389 15.163L15.6387 14.9922M15.6389 15.5368C15.7035 16.7876 16.2296 18.0015 17.2219 19.1784L16.5805 19.5522H15.6389M15.6389 15.5368V19.5522M15.6389 19.5522L11.7897 19.5429C11.4205 19.5429 11.0928 19.5798 10.802 19.6583C10.5066 19.7368 10.2389 19.8477 9.9943 19.9907C9.74969 20.1338 9.56046 20.2861 9.422 20.4569C9.28353 20.6231 9.21892 20.8122 9.21892 21.0245L9.23276 23.7938L3.47737 24.1814C3.14045 24.1999 2.81736 24.2507 2.51274 24.3384C2.20351 24.4261 1.94507 24.5507 1.72815 24.7076C1.51584 24.8692 1.36351 25.0353 1.2712 25.2153C1.2112 25.326 1.17891 25.446 1.16968 25.566V25.6169M1.16968 25.6169C1.16968 25.6676 1.17428 25.7229 1.18351 25.7737L1.81122 30.9061C1.83891 31.0999 1.9266 31.2845 2.06506 31.4507C2.20352 31.6214 2.39737 31.7783 2.64199 31.9168C2.89122 32.0599 3.15891 32.1615 3.44968 32.2261C3.74506 32.2861 4.04507 32.3184 4.34968 32.3184L8.12969 32.3276C8.4943 32.3276 8.84046 32.2907 9.16353 32.2076C9.18661 32.203 9.20969 32.1984 9.22815 32.1892C9.52353 32.1153 9.78661 32.0092 10.0128 31.88L23.4989 24.0891L24.6158 23.4476M1.16968 25.6169V34.8569C1.16968 34.903 1.17428 34.9583 1.18351 35.0045L1.81122 40.1369C1.83891 40.3307 1.9266 40.5153 2.06506 40.6814C2.20352 40.8522 2.39737 41.0091 2.64199 41.1476C2.89122 41.2907 3.15891 41.3923 3.44968 41.4569C3.74506 41.5169 4.04507 41.5492 4.34968 41.5492L8.12969 41.5584C8.4943 41.5584 8.84046 41.5215 9.16353 41.4384C9.48661 41.3599 9.76815 41.2492 10.0128 41.1107L24.6158 32.6784M24.6158 23.4476C27.4451 24.2322 30.4958 24.4999 33.7635 24.2507C35.5681 24.1122 37.2528 23.7938 38.8174 23.2907C40.0866 22.8892 41.2774 22.3677 42.3897 21.7261C43.3358 21.1815 44.1343 20.5999 44.7851 19.9861C46.2342 18.6199 46.9588 17.0829 46.9588 15.3845M24.6158 23.4476V32.6784M46.9588 15.3845V24.583C46.9727 27.0615 45.4496 29.1892 42.3896 30.9569C39.9065 32.3877 37.0357 33.2276 33.7634 33.4815C30.4957 33.7307 27.4451 33.463 24.6158 32.6784M38.8174 16.6353C38.4666 17.3369 37.8066 17.9645 36.842 18.523C35.3143 19.4091 33.4728 19.8476 31.322 19.843C29.1712 19.8384 27.3296 19.3906 25.7881 18.5045C24.805 17.9368 24.1312 17.2953 23.7758 16.5799C23.5728 16.1783 23.4712 15.7537 23.4666 15.306C23.462 14.0645 24.2235 13.003 25.7512 12.1215C27.2835 11.2353 29.1251 10.7968 31.2712 10.8014C33.422 10.806 35.2682 11.2492 36.8097 12.1399C38.3466 13.0307 39.122 14.0969 39.1266 15.3338C39.1312 15.7907 39.0297 16.2245 38.8174 16.6353Z" stroke="#27272A" stroke-opacity="0.25" stroke-linecap="round" stroke-linejoin="round"/>
      </svg>