<svg xmlns="http://www.w3.org/2000/svg" viewBox="0 0 48 48">
        <path d="M27.7885 25.4405L27.8142 25.4277V25.3634C27.8014 25.3891 27.7928 25.4148 27.7885 25.4405Z" fill="white"/>
<path d="M27.7885 25.4405L27.8142 25.4277V25.3634C27.8014 25.3891 27.7928 25.4148 27.7885 25.4405Z" fill="white"/>
<path d="M13.0068 7.77051V10.8048L4.43533 15.0905V12.0562C4.43533 11.5334 4.28532 11.0105 3.98532 10.4919C3.68532 9.97764 3.30822 9.58764 2.84965 9.32193C2.43393 9.08193 2.08681 9.02193 1.79967 9.13764L10.2811 4.89478C10.5811 4.72335 10.9625 4.77051 11.4211 5.03622C11.8797 5.30193 12.2568 5.69193 12.5568 6.20621C12.8568 6.72478 13.0068 7.24765 13.0068 7.77051Z" fill="white"/>
<path d="M11.8412 16.3333V27.2576C11.8412 27.7847 11.6911 28.1319 11.3911 28.3033C11.0911 28.4747 10.7097 28.4276 10.2512 28.1619C9.7926 27.8962 9.4155 27.5062 9.1155 26.9876C8.8155 26.4733 8.6655 25.9505 8.6655 25.4233V21.1762L4.43546 18.7333V22.9805C4.43546 23.5076 4.28542 23.8547 3.98542 24.0262C3.68542 24.1976 3.30832 24.1505 2.84975 23.8847C2.39118 23.6233 2.00979 23.2333 1.70979 22.7147C1.40979 22.1962 1.25977 21.6776 1.25977 21.1505V10.2262C1.25977 9.69903 1.40979 9.35188 1.70979 9.18045L1.79967 9.13764C2.08681 9.02193 2.43393 9.08193 2.84965 9.32193C3.30822 9.58764 3.68532 9.97764 3.98532 10.4919C4.28532 11.0105 4.43533 11.5334 4.43533 12.0562V15.0905L8.6655 17.5333V14.499C8.6655 13.9762 8.8155 13.6247 9.1155 13.4533L9.2055 13.4105C9.3855 13.3376 9.5955 13.3376 9.83122 13.4105C9.95979 13.449 10.1012 13.509 10.2512 13.5947C10.7097 13.8605 11.0911 14.2505 11.3911 14.769C11.6911 15.2833 11.8412 15.8062 11.8412 16.3333Z" fill="white"/>
<path d="M20.4126 12.0477V15.7849L17.2369 17.3749L16.6241 17.6791L16.5211 17.7305C16.2211 17.902 16.0712 18.2491 16.0712 18.7763V25.9634L11.3911 28.3033C11.6911 28.1319 11.8412 27.7847 11.8412 27.2576V16.3333C11.8412 15.8062 11.6911 15.2833 11.3911 14.769C11.0911 14.2505 10.7097 13.8605 10.2512 13.5947C10.1012 13.509 9.95979 13.449 9.83122 13.4105C9.5955 13.3376 9.3855 13.3376 9.2055 13.4105L13.6583 11.182L17.6869 9.16773C17.9869 9.00058 18.364 9.04773 18.8226 9.30915C19.2812 9.57487 19.6626 9.96487 19.9626 10.4834C20.2626 10.9977 20.4126 11.5205 20.4126 12.0477Z" fill="white"/>
<path d="M27.8138 16.3205L27.8142 25.3634C27.8014 25.3891 27.7928 25.4148 27.7885 25.4405L19.2424 29.7134V20.6062C19.2424 20.0834 19.0924 19.5605 18.7924 19.0419C18.4924 18.5276 18.1153 18.1376 17.6567 17.8719C17.5067 17.7862 17.3653 17.7219 17.2367 17.6834C17.0053 17.6105 16.8041 17.6105 16.6241 17.6791L17.2369 17.3749L20.4126 15.7849L25.0923 13.4448C25.3923 13.2734 25.7696 13.3205 26.2281 13.5862C26.6867 13.8519 27.0638 14.2419 27.3638 14.7562C27.6638 15.2748 27.8138 15.7976 27.8138 16.3205Z" fill="white"/>
<path d="M33.0981 30.4291C33.0981 30.4291 33.0981 30.4549 33.0939 30.4634L31.5638 31.2305L30.8781 31.5734V29.1477L33.0981 30.4291Z" fill="white"/>
<path d="M46.8553 33.9905V37.6333C46.8553 38.319 46.6539 38.7776 46.2467 39.009L46.1224 39.069L37.6752 43.2947C38.0824 43.0633 38.2838 42.6047 38.2838 41.919V38.2762C38.2838 37.5905 38.0824 36.8962 37.6752 36.1976C37.2681 35.4947 36.7667 34.9719 36.1667 34.629L35.3823 34.1747L31.7395 32.0705L31.491 31.929L30.8781 31.5734L31.5638 31.2305L33.0939 30.4634L33.1323 30.4462L33.9938 30.9433L35.1124 31.5905C35.1124 31.9119 35.2152 32.259 35.4295 32.6233C35.6395 32.9876 35.8881 33.249 36.1667 33.4119L36.5139 33.6133L37.1095 33.9605L37.2252 34.0247C37.5081 34.1876 37.7567 34.209 37.9667 34.089L45.051 30.549C45.5139 30.879 45.9124 31.3376 46.2467 31.9119C46.6539 32.6105 46.8553 33.3047 46.8553 33.9905Z" fill="white"/>
<path d="M46.8553 27.922V29.1348C46.8553 29.4605 46.7481 29.6834 46.5381 29.8034L46.4696 29.8376L45.051 30.549L37.9667 34.089C38.1767 33.969 38.284 33.7462 38.284 33.4205V32.2077C38.284 31.522 38.0826 30.8277 37.6755 30.1248C37.6026 30.0005 37.5297 29.8848 37.4526 29.7734C37.1697 29.362 36.8483 29.0277 36.484 28.7705C36.3812 28.6934 36.2783 28.6248 36.1669 28.5605L29.8197 24.8963C29.284 24.5834 28.8212 24.502 28.4397 24.6605L36.8868 20.4348C37.2897 20.2034 37.7954 20.2634 38.3911 20.6105L44.7381 24.2748C45.3381 24.6177 45.8396 25.1405 46.2467 25.8391C46.6539 26.542 46.8553 27.2363 46.8553 27.922Z" fill="white"/>
<path d="M35.1124 36.4463V38.8719L30.8781 36.4291L33.1323 35.3019L35.1124 36.4463Z" fill="white"/>
<path d="M30.8781 29.1477V31.5734L31.491 31.929L31.7395 32.0705L35.3823 34.1747L36.1667 34.629C36.7667 34.9719 37.2681 35.4947 37.6752 36.1976C38.0824 36.8962 38.2838 37.5905 38.2838 38.2762V41.919C38.2838 42.6047 38.0824 43.0633 37.6752 43.2947C37.2681 43.5262 36.7669 43.4705 36.1669 43.1233L29.8197 39.459C29.224 39.1119 28.7183 38.5933 28.3154 37.8905C27.9083 37.1919 27.7069 36.4976 27.7069 35.8119V34.599C27.7069 34.2733 27.8097 34.0505 28.024 33.9305L28.0926 33.8962C28.2854 33.8147 28.5126 33.849 28.7655 33.9947L29.8197 34.6033C30.1026 34.7662 30.3511 35.0319 30.5611 35.3962C30.7754 35.7605 30.8781 36.1076 30.8781 36.4291L35.1124 38.8719V36.4463L33.1323 35.3019L29.8197 33.3905C29.7126 33.3305 29.6097 33.2619 29.5112 33.189C29.4383 33.1376 29.3697 33.0819 29.3012 33.0219C28.924 32.709 28.594 32.3062 28.3154 31.8219C27.9083 31.1233 27.7069 30.429 27.7069 29.7433V26.1005C27.7069 25.8519 27.7328 25.6291 27.7885 25.4405L27.8142 25.4277V25.3634C27.9085 25.072 28.0754 24.8576 28.3154 24.7205L28.4397 24.6605C28.8212 24.502 29.284 24.5834 29.8197 24.8963L36.1669 28.5605C36.2783 28.6248 36.3812 28.6934 36.484 28.7705C36.8483 29.0277 37.1697 29.362 37.4526 29.7734C37.5297 29.8848 37.6026 30.0005 37.6755 30.1248C38.0826 30.8277 38.284 31.522 38.284 32.2077V33.4205C38.284 33.7462 38.1767 33.969 37.9667 34.089C37.7567 34.209 37.5081 34.1876 37.2252 34.0247L37.1095 33.9605L36.5139 33.6133L36.1667 33.4119C35.8881 33.249 35.6395 32.9876 35.4295 32.6233C35.2152 32.259 35.1124 31.9119 35.1124 31.5905L33.9938 30.9433L33.1323 30.4462L33.0981 30.4291L30.8781 29.1477Z" fill="white"/>
<path d="M33.1323 35.3019L30.8781 36.4291C30.8781 36.1076 30.7754 35.7605 30.5611 35.3962C30.3511 35.0319 30.1026 34.7662 29.8197 34.6033L28.7655 33.9947C28.5126 33.849 28.2854 33.8147 28.0926 33.8962L29.5112 33.189C29.6097 33.2619 29.7126 33.3305 29.8197 33.3905L33.1323 35.3019Z" fill="white"/>
<path d="M24.5312 34.5862C24.5312 34.0591 24.3812 33.5362 24.0812 33.0219C23.7855 32.5034 23.4041 32.1134 22.9455 31.8476L19.2424 29.7134L27.7885 25.4405C27.7328 25.6291 27.7069 25.8519 27.7069 26.1005V29.7433C27.7069 30.429 27.9083 31.1233 28.3154 31.8219C28.594 32.3062 28.924 32.709 29.3012 33.0219L24.0812 35.6319C24.3812 35.4605 24.5312 35.1134 24.5312 34.5862Z" fill="white"/>
<path d="M24.5312 34.5862C24.5312 35.1134 24.3812 35.4605 24.0812 35.6319C23.7855 35.8034 23.4043 35.7562 22.9457 35.4905L17.6571 32.4348C17.1986 32.1734 16.8213 31.7834 16.5213 31.2648C16.2213 30.7462 16.0714 30.2276 16.0714 29.7005L16.0712 18.7763C16.0712 18.2491 16.2211 17.902 16.5211 17.7305L16.6241 17.6791C16.8041 17.6105 17.0053 17.6105 17.2367 17.6834C17.3653 17.7219 17.5067 17.7862 17.6567 17.8719C18.1153 18.1376 18.4924 18.5276 18.7924 19.0419C19.0924 19.5605 19.2424 20.0834 19.2424 20.6062V29.7134L22.9455 31.8476C23.4041 32.1134 23.7855 32.5034 24.0812 33.0219C24.3812 33.5362 24.5312 34.0591 24.5312 34.5862Z" fill="white"/>
<path d="M13.6583 11.182L9.2055 13.4105L9.1155 13.4533C8.8155 13.6247 8.6655 13.9762 8.6655 14.499V17.5333L4.43533 15.0905L13.0068 10.8048L13.6583 11.182Z" fill="white"/>
<path d="M8.6655 21.1762L8.66529 21.6863L3.98542 24.0262C4.28542 23.8547 4.43546 23.5076 4.43546 22.9805V18.7333L8.6655 21.1762Z" fill="white"/>
<path d="M27.7885 25.4405L27.8142 25.4277V25.3634M27.7885 25.4405C27.7928 25.4148 27.8014 25.3891 27.8142 25.3634M27.7885 25.4405C27.7328 25.6291 27.7069 25.8519 27.7069 26.1005V29.7433C27.7069 30.429 27.9083 31.1233 28.3154 31.8219C28.594 32.3062 28.924 32.709 29.3012 33.0219M27.7885 25.4405L19.2424 29.7134M27.8142 25.3634L27.8138 16.3205C27.8138 15.7976 27.6638 15.2748 27.3638 14.7562C27.0638 14.2419 26.6867 13.8519 26.2281 13.5862C25.7696 13.3205 25.3923 13.2734 25.0923 13.4448L20.4126 15.7849M27.8142 25.3634C27.9085 25.072 28.0754 24.8576 28.3154 24.7205L28.4397 24.6605M13.0068 10.8048V7.77051C13.0068 7.24765 12.8568 6.72478 12.5568 6.20621C12.2568 5.69193 11.8797 5.30193 11.4211 5.03622C10.9625 4.77051 10.5811 4.72335 10.2811 4.89478L1.79967 9.13764M13.0068 10.8048L13.6583 11.182M13.0068 10.8048L4.43533 15.0905M4.43533 15.0905V12.0562C4.43533 11.5334 4.28532 11.0105 3.98532 10.4919C3.68532 9.97764 3.30822 9.58764 2.84965 9.32193C2.43393 9.08193 2.08681 9.02193 1.79967 9.13764M4.43533 15.0905L8.6655 17.5333V14.499C8.6655 13.9762 8.8155 13.6247 9.1155 13.4533L9.2055 13.4105M1.79967 9.13764L1.70979 9.18045C1.40979 9.35188 1.25977 9.69903 1.25977 10.2262V21.1505C1.25977 21.6776 1.40979 22.1962 1.70979 22.7147C2.00979 23.2333 2.39118 23.6233 2.84975 23.8847C3.30832 24.1505 3.68542 24.1976 3.98542 24.0262M11.3911 28.3033C11.6911 28.1319 11.8412 27.7847 11.8412 27.2576V16.3333C11.8412 15.8062 11.6911 15.2833 11.3911 14.769C11.0911 14.2505 10.7097 13.8605 10.2512 13.5947C10.1012 13.509 9.95979 13.449 9.83122 13.4105C9.5955 13.3376 9.3855 13.3376 9.2055 13.4105M11.3911 28.3033C11.0911 28.4747 10.7097 28.4276 10.2512 28.1619C9.7926 27.8962 9.4155 27.5062 9.1155 26.9876C8.8155 26.4733 8.6655 25.9505 8.6655 25.4233V21.1762M11.3911 28.3033L16.0712 25.9634V18.7763M8.6655 21.1762L4.43546 18.7333V22.9805C4.43546 23.5076 4.28542 23.8547 3.98542 24.0262M8.6655 21.1762L8.66529 21.6863L3.98542 24.0262M9.2055 13.4105L13.6583 11.182M20.4126 15.7849V12.0477C20.4126 11.5205 20.2626 10.9977 19.9626 10.4834C19.6626 9.96487 19.2812 9.57487 18.8226 9.30915C18.364 9.04773 17.9869 9.00058 17.6869 9.16773L13.6583 11.182M20.4126 15.7849L17.2369 17.3749L16.6241 17.6791M16.6241 17.6791L16.5211 17.7305C16.2211 17.902 16.0712 18.2491 16.0712 18.7763M16.6241 17.6791C16.8041 17.6105 17.0053 17.6105 17.2367 17.6834C17.3653 17.7219 17.5067 17.7862 17.6567 17.8719C18.1153 18.1376 18.4924 18.5276 18.7924 19.0419C19.0924 19.5605 19.2424 20.0834 19.2424 20.6062V29.7134M16.0712 18.7763L16.0714 29.7005C16.0714 30.2276 16.2213 30.7462 16.5213 31.2648C16.8213 31.7834 17.1986 32.1734 17.6571 32.4348L22.9457 35.4905C23.4043 35.7562 23.7855 35.8034 24.0812 35.6319M19.2424 29.7134L22.9455 31.8476C23.4041 32.1134 23.7855 32.5034 24.0812 33.0219C24.3812 33.5362 24.5312 34.0591 24.5312 34.5862C24.5312 35.1134 24.3812 35.4605 24.0812 35.6319M33.0981 30.4291C33.0981 30.4291 33.0981 30.4549 33.0939 30.4634M33.0981 30.4291L30.8781 29.1477V31.5734M33.0981 30.4291L33.1323 30.4462M33.0939 30.4634L31.5638 31.2305L30.8781 31.5734M33.0939 30.4634L33.1323 30.4462M30.8781 31.5734L31.491 31.929L31.7395 32.0705L35.3823 34.1747L36.1667 34.629C36.7667 34.9719 37.2681 35.4947 37.6752 36.1976C38.0824 36.8962 38.2838 37.5905 38.2838 38.2762V41.919C38.2838 42.6047 38.0824 43.0633 37.6752 43.2947M37.6752 43.2947L46.1224 39.069L46.2467 39.009C46.6539 38.7776 46.8553 38.319 46.8553 37.6333V33.9905C46.8553 33.3047 46.6539 32.6105 46.2467 31.9119C45.9124 31.3376 45.5139 30.879 45.051 30.549M37.6752 43.2947C37.2681 43.5262 36.7669 43.4705 36.1669 43.1233L29.8197 39.459C29.224 39.1119 28.7183 38.5933 28.3154 37.8905C27.9083 37.1919 27.7069 36.4976 27.7069 35.8119V34.599C27.7069 34.2733 27.8097 34.0505 28.024 33.9305L28.0926 33.8962M33.1323 30.4462L33.9938 30.9433L35.1124 31.5905C35.1124 31.9119 35.2152 32.259 35.4295 32.6233C35.6395 32.9876 35.8881 33.249 36.1667 33.4119L36.5139 33.6133L37.1095 33.9605L37.2252 34.0247C37.5081 34.1876 37.7567 34.209 37.9667 34.089M37.9667 34.089C38.1767 33.969 38.284 33.7462 38.284 33.4205V32.2077C38.284 31.522 38.0826 30.8277 37.6755 30.1248C37.6026 30.0005 37.5297 29.8848 37.4526 29.7734C37.1697 29.362 36.8483 29.0277 36.484 28.7705C36.3812 28.6934 36.2783 28.6248 36.1669 28.5605L29.8197 24.8963C29.284 24.5834 28.8212 24.502 28.4397 24.6605M37.9667 34.089L45.051 30.549M45.051 30.549L46.4696 29.8376L46.5381 29.8034C46.7481 29.6834 46.8553 29.4605 46.8553 29.1348V27.922C46.8553 27.2363 46.6539 26.542 46.2467 25.8391C45.8396 25.1405 45.3381 24.6177 44.7381 24.2748L38.3911 20.6105C37.7954 20.2634 37.2897 20.2034 36.8868 20.4348L28.4397 24.6605M30.8781 36.4291L35.1124 38.8719V36.4463L33.1323 35.3019M30.8781 36.4291L33.1323 35.3019M30.8781 36.4291C30.8781 36.1076 30.7754 35.7605 30.5611 35.3962C30.3511 35.0319 30.1026 34.7662 29.8197 34.6033L28.7655 33.9947C28.5126 33.849 28.2854 33.8147 28.0926 33.8962M33.1323 35.3019L29.8197 33.3905C29.7126 33.3305 29.6097 33.2619 29.5112 33.189M28.0926 33.8962L29.5112 33.189M29.5112 33.189C29.4383 33.1376 29.3697 33.0819 29.3012 33.0219M29.3012 33.0219L24.0812 35.6319" stroke="#27272A" stroke-opacity="0.25" stroke-linecap="round" stroke-linejoin="round"/>
      </svg>