<svg xmlns="http://www.w3.org/2000/svg" viewBox="0 0 48 48">
        <path d="M19.8997 13.1878V22.7553C19.8997 23.0034 19.8672 23.2149 19.794 23.3858C19.7207 23.5932 19.5946 23.7437 19.4197 23.8454C19.0983 24.0244 18.7038 23.9797 18.2319 23.7072C17.756 23.4346 17.3614 23.0237 17.0441 22.4705C16.7227 21.9214 16.5641 21.3723 16.5641 20.8312V15.6651C14.9777 16.377 13.7492 17.5729 12.8746 19.2529C11.996 20.9289 11.5607 22.9831 11.5607 25.4075C11.5607 28.3078 12.1627 31.375 13.3749 34.6089C14.5831 37.8428 16.2712 40.8489 18.4394 43.6312C18.8299 44.1438 19.0983 44.6929 19.2529 45.2746C19.4034 45.8563 19.3709 46.3241 19.1471 46.6739C19.0658 46.8041 18.9722 46.9058 18.8624 46.979H18.8502C18.6671 47.1011 18.4475 47.1417 18.1872 47.1011C17.7723 47.036 17.3695 46.7634 16.979 46.2834C14.2576 42.8299 12.114 39.0794 10.5601 35.04C9.00211 31.0007 8.22516 27.1485 8.22516 23.4794C8.22516 20.579 8.72548 18.118 9.72616 16.0963C10.7268 14.0746 12.1424 12.6021 13.977 11.6868L9.8929 9.32751C9.42103 9.05497 9.02242 8.64005 8.70513 8.0909C8.38378 7.53768 8.22516 6.99259 8.22516 6.45158C8.22516 5.91056 8.38378 5.54446 8.70513 5.36141L8.80276 5.31259C9.10377 5.19463 9.46985 5.25564 9.8929 5.49971L18.2319 10.3119C18.3905 10.4014 18.537 10.5112 18.6794 10.6333C18.9601 10.8773 19.2041 11.1824 19.4197 11.5485C19.7369 12.1017 19.8997 12.6468 19.8997 13.1878Z" fill="white"/>
<path d="M31.5701 39.0633C31.5701 39.6043 31.4115 39.9663 31.0901 40.1494C30.7728 40.3324 30.3741 40.2876 29.9023 40.0151L28.2345 39.051V40.9668C28.2345 41.5078 28.0759 41.8699 27.7546 42.0529C27.661 42.1058 27.5592 42.1424 27.4534 42.1546C27.1972 42.1872 26.9002 42.1058 26.5667 41.9146C26.0948 41.6421 25.7003 41.2312 25.3789 40.678C25.0616 40.129 24.899 39.5839 24.899 39.0389V37.127L24.7973 37.07L23.2311 36.1629C22.7593 35.8904 22.3647 35.4795 22.0433 34.9263C21.726 34.3772 21.5633 33.828 21.5633 33.287C21.5633 32.746 21.726 32.3839 22.0433 32.2009L22.1613 32.1439C22.4624 32.03 22.8162 32.0951 23.2311 32.3351L24.899 33.2992V31.3873C24.899 31.1148 24.9396 30.891 25.0209 30.712C25.0982 30.529 25.2203 30.3907 25.3789 30.3012L25.4766 30.2524C25.6393 30.1873 25.8183 30.1751 26.0135 30.2158C26.1844 30.2484 26.3714 30.3216 26.5667 30.4355C27.0385 30.708 27.4373 31.1189 27.7546 31.6721C28.0759 32.2212 28.2345 32.7703 28.2345 33.3114V35.2233L29.9023 36.1873C30.3741 36.4599 30.7728 36.8707 31.0901 37.4239C31.4115 37.9731 31.5701 38.5222 31.5701 39.0633Z" fill="white"/>
<path d="M36.2562 37.5663C36.1749 37.7534 36.0529 37.8917 35.8902 37.9852L27.7546 42.0529C28.0759 41.8699 28.2345 41.5078 28.2345 40.9668V39.051L29.9023 40.0151C30.3741 40.2876 30.7728 40.3324 31.0901 40.1494L35.2515 38.0666H35.2555L36.2562 37.5663Z" fill="white"/>
<path d="M27.4534 42.1546C27.4249 42.3214 27.368 42.4719 27.2826 42.6062C27.1891 42.7526 27.0752 42.8665 26.9491 42.9356L26.823 42.9967L18.8624 46.979C18.9722 46.9058 19.0658 46.8041 19.1471 46.6739C19.3709 46.3241 19.4034 45.8563 19.2529 45.2746C19.0983 44.6929 18.8299 44.1438 18.4394 43.6312C16.2712 40.8489 14.5831 37.8428 13.3749 34.6089C12.1627 31.375 11.5607 28.3078 11.5607 25.4075C11.5607 22.9831 11.996 20.9289 12.8746 19.2529C13.7492 17.5729 14.9777 16.377 16.5641 15.6651V20.8312C16.5641 21.3723 16.7227 21.9214 17.0441 22.4705C17.3614 23.0237 17.756 23.4346 18.2319 23.7072C18.7038 23.9797 19.0983 24.0244 19.4197 23.8454L19.8224 23.6462C20.0502 25.851 20.6155 28.1493 21.5105 30.5412C21.7138 31.0822 21.9295 31.6151 22.1613 32.1439L22.0433 32.2009C21.726 32.3839 21.5633 32.746 21.5633 33.287C21.5633 33.828 21.726 34.3772 22.0433 34.9263C22.3647 35.4795 22.7593 35.8904 23.2311 36.1629L24.7973 37.07C24.8298 37.1188 24.8664 37.1717 24.899 37.2246V39.0389C24.899 39.5839 25.0616 40.129 25.3789 40.678C25.7003 41.2312 26.0948 41.6421 26.5667 41.9146C26.9002 42.1058 27.1972 42.1872 27.4534 42.1546Z" fill="white"/>
<path d="M39.7058 34.9954C39.7058 35.5364 39.5472 35.8985 39.2258 36.0815L36.2562 37.5663L35.2555 38.0666H35.2515L31.0901 40.1494C31.4115 39.9663 31.5701 39.6043 31.5701 39.0633C31.5701 38.5222 31.4115 37.9731 31.0901 37.4239C30.7728 36.8707 30.3741 36.4599 29.9023 36.1873L28.2345 35.2233L36.3702 31.1554L38.038 32.1195C38.5098 32.392 38.9085 32.8028 39.2258 33.3561C39.5472 33.9052 39.7058 34.4544 39.7058 34.9954Z" fill="white"/>
<path d="M25.0209 30.712C24.9396 30.891 24.899 31.1148 24.899 31.3873V33.2992L23.2311 32.3351C22.8162 32.0951 22.4624 32.03 22.1613 32.1439L25.0209 30.712Z" fill="white"/>
<path d="M36.3701 29.2435L36.3702 31.1554L28.2345 35.2233V33.3114C28.2345 32.7703 28.0759 32.2212 27.7546 31.6721C27.4373 31.1189 27.0385 30.708 26.5667 30.4355C26.3714 30.3216 26.1844 30.2484 26.0135 30.2158C25.8183 30.1751 25.6393 30.1873 25.4766 30.2524L33.5145 26.2334C33.8359 26.0503 34.2304 26.095 34.7023 26.3676C35.1741 26.6401 35.5729 27.051 35.8902 27.6042C36.2115 28.1534 36.3701 28.7025 36.3701 29.2435Z" fill="white"/>
<path d="M28.0353 9.12009V18.6875C28.0353 19.2326 27.8725 19.5947 27.5552 19.7777L19.8224 23.6462L19.4197 23.8454C19.5946 23.7437 19.7207 23.5932 19.794 23.3858C19.8672 23.2149 19.8997 23.0034 19.8997 22.7553V13.1878C19.8997 12.6468 19.7369 12.1017 19.4197 11.5485C19.2041 11.1824 18.9601 10.8773 18.6794 10.6333C18.537 10.5112 18.3905 10.4014 18.2319 10.3119L9.8929 5.49971C9.46985 5.25564 9.10377 5.19463 8.80276 5.31259L16.8407 1.29366C17.158 1.11468 17.5566 1.15941 18.0285 1.43195L26.3675 6.2442C26.8394 6.51674 27.2339 6.93162 27.5552 7.48077C27.8725 8.03399 28.0353 8.57907 28.0353 9.12009Z" fill="white"/>
<path d="M19.4197 23.8454C19.5946 23.7437 19.7207 23.5932 19.794 23.3858C19.8672 23.2149 19.8997 23.0034 19.8997 22.7553V13.1878C19.8997 12.6468 19.7369 12.1017 19.4197 11.5485C19.2041 11.1824 18.9601 10.8773 18.6794 10.6333C18.537 10.5112 18.3905 10.4014 18.2319 10.3119L9.8929 5.49971C9.46985 5.25564 9.10377 5.19463 8.80276 5.31259M19.4197 23.8454C19.0983 24.0244 18.7038 23.9797 18.2319 23.7072C17.756 23.4346 17.3614 23.0237 17.0441 22.4705C16.7227 21.9214 16.5641 21.3723 16.5641 20.8312V15.6651C14.9777 16.377 13.7492 17.5729 12.8746 19.2529C11.996 20.9289 11.5607 22.9831 11.5607 25.4075C11.5607 28.3078 12.1627 31.375 13.3749 34.6089C14.5831 37.8428 16.2712 40.8489 18.4394 43.6312C18.8299 44.1438 19.0983 44.6929 19.2529 45.2746C19.4034 45.8563 19.3709 46.3241 19.1471 46.6739C19.0658 46.8041 18.9722 46.9058 18.8624 46.979M19.4197 23.8454L19.8224 23.6462M18.8624 46.979H18.8502C18.6671 47.1011 18.4475 47.1417 18.1872 47.1011C17.7723 47.036 17.3695 46.7634 16.979 46.2834C14.2576 42.8299 12.114 39.0794 10.5601 35.04C9.00211 31.0007 8.22516 27.1485 8.22516 23.4794C8.22516 20.579 8.72548 18.118 9.72616 16.0963C10.7268 14.0746 12.1424 12.6021 13.977 11.6868L9.8929 9.32751C9.42103 9.05497 9.02242 8.64005 8.70513 8.0909C8.38378 7.53768 8.22516 6.99259 8.22516 6.45158C8.22516 5.91056 8.38378 5.54446 8.70513 5.36141L8.80276 5.31259M18.8624 46.979L26.823 42.9967L26.9491 42.9356C27.0752 42.8665 27.1891 42.7526 27.2826 42.6062C27.368 42.4719 27.4249 42.3214 27.4534 42.1546M8.80276 5.31259L16.8407 1.29366C17.158 1.11468 17.5566 1.15941 18.0285 1.43195L26.3675 6.2442C26.8394 6.51674 27.2339 6.93162 27.5552 7.48077C27.8725 8.03399 28.0353 8.57907 28.0353 9.12009V18.6875C28.0353 19.2326 27.8725 19.5947 27.5552 19.7777L19.8224 23.6462M31.0901 40.1494C31.4115 39.9663 31.5701 39.6043 31.5701 39.0633C31.5701 38.5222 31.4115 37.9731 31.0901 37.4239C30.7728 36.8707 30.3741 36.4599 29.9023 36.1873L28.2345 35.2233M31.0901 40.1494C30.7728 40.3324 30.3741 40.2876 29.9023 40.0151L28.2345 39.051V40.9668C28.2345 41.5078 28.0759 41.8699 27.7546 42.0529M31.0901 40.1494L35.2515 38.0666H35.2555L36.2562 37.5663M27.7546 42.0529C27.661 42.1058 27.5592 42.1424 27.4534 42.1546M27.7546 42.0529L35.8902 37.9852C36.0529 37.8917 36.1749 37.7534 36.2562 37.5663M27.4534 42.1546C27.1972 42.1872 26.9002 42.1058 26.5667 41.9146C26.0948 41.6421 25.7003 41.2312 25.3789 40.678C25.0616 40.129 24.899 39.5839 24.899 39.0389M24.899 39.0389V37.127L24.7973 37.07M24.899 39.0389V37.2246C24.8664 37.1717 24.8298 37.1188 24.7973 37.07M24.7973 37.07L23.2311 36.1629C22.7593 35.8904 22.3647 35.4795 22.0433 34.9263C21.726 34.3772 21.5633 33.828 21.5633 33.287C21.5633 32.746 21.726 32.3839 22.0433 32.2009L22.1613 32.1439M22.1613 32.1439C22.4624 32.03 22.8162 32.0951 23.2311 32.3351L24.899 33.2992V31.3873C24.899 31.1148 24.9396 30.891 25.0209 30.712M22.1613 32.1439C21.9295 31.6151 21.7138 31.0822 21.5105 30.5412C20.6155 28.1493 20.0502 25.851 19.8224 23.6462M22.1613 32.1439L25.0209 30.712M25.0209 30.712C25.0982 30.529 25.2203 30.3907 25.3789 30.3012L25.4766 30.2524M25.4766 30.2524C25.6393 30.1873 25.8183 30.1751 26.0135 30.2158C26.1844 30.2483 26.3714 30.3216 26.5667 30.4355C27.0385 30.708 27.4373 31.1189 27.7546 31.6721C28.0759 32.2212 28.2345 32.7703 28.2345 33.3114V35.2233M25.4766 30.2524L33.5145 26.2334C33.8359 26.0503 34.2304 26.095 34.7023 26.3676C35.1741 26.6401 35.5729 27.051 35.8902 27.6042C36.2115 28.1534 36.3701 28.7025 36.3701 29.2435L36.3702 31.1554M28.2345 35.2233L36.3702 31.1554M36.2562 37.5663L39.2258 36.0815C39.5472 35.8985 39.7058 35.5364 39.7058 34.9954C39.7058 34.4544 39.5472 33.9052 39.2258 33.3561C38.9085 32.8028 38.5098 32.392 38.038 32.1195L36.3702 31.1554" stroke="#27272A" stroke-opacity="0.25" stroke-linecap="round" stroke-linejoin="round"/>
      </svg>