<svg xmlns="http://www.w3.org/2000/svg" viewBox="0 0 48 48">
        <path d="M29.5144 38.8072L29.0846 35.9942C27.5106 36.597 25.8585 36.9988 24.1227 37.1942C22.3925 37.3951 20.5674 37.3672 18.653 37.1161L20.3664 42.6863C20.5953 43.4788 21.0139 44.1095 21.6111 44.5895C22.2139 45.0695 22.7274 45.1868 23.1571 44.9412L28.5711 41.8547C28.9674 41.6258 29.2576 41.2407 29.4251 40.6993C29.5981 40.1579 29.626 39.5272 29.5144 38.8072Z" fill="white"/>
<path d="M14.4837 10.8667C13.1664 11.877 11.9888 13.0881 10.9451 14.4835C9.90133 15.8844 9.00273 17.4528 8.2604 19.1942L4.2697 14.9188C3.69482 14.3216 3.35993 13.6519 3.25947 12.904C3.159 12.1561 3.32087 11.6649 3.75064 11.4193L9.159 8.3328L9.36552 8.23233C9.71714 8.0928 10.1246 8.06489 10.5767 8.16536C11.1237 8.28256 11.6818 8.5728 12.2511 9.03605L14.4837 10.8667Z" fill="white"/>
<path d="M13.4957 34.0407C13.4957 35.6872 12.999 36.7923 11.9944 37.3616C10.6213 38.1486 8.99714 38.143 7.1218 37.3561C5.24644 36.5691 3.36552 35.7821 1.479 34.984C1.73575 32.9635 1.9981 30.9598 2.27159 28.9616C2.54508 26.9691 3.34878 25.5905 4.69389 24.8202L5.01204 24.664C5.95528 24.2844 7.0604 24.4519 8.34412 25.1775C9.77854 25.9923 10.9953 27.2593 11.9944 28.9895C12.999 30.7142 13.4957 32.3998 13.4957 34.0407Z" fill="white"/>
<path d="M25.6464 5.28536L14.4837 10.8667L12.2511 9.03605C11.6818 8.5728 11.1237 8.28256 10.5767 8.16536C10.1246 8.06489 9.71714 8.0928 9.36552 8.23233L20.3218 2.7514C20.7237 2.52256 21.1981 2.46676 21.7395 2.58397C22.2864 2.70117 22.8446 2.99141 23.4139 3.45466L25.6464 5.28536Z" fill="white"/>
<path d="M25.6464 5.28536C24.3292 6.29559 23.1516 7.50675 22.1078 8.9021C21.399 9.85094 20.7627 10.8779 20.1878 11.983L18.7088 12.7254L18.653 12.7533C18.653 12.7533 18.6362 12.7533 18.6306 12.7644C18.2567 12.9263 17.8939 13.1105 17.5367 13.317C16.1581 14.0984 14.9525 15.1086 13.9088 16.3421C13.8976 16.3588 13.8864 16.37 13.8697 16.3868L8.2604 19.1942C9.00273 17.4528 9.90133 15.8844 10.9451 14.4835C11.9888 13.0881 13.1664 11.877 14.4837 10.8667L25.6464 5.28536Z" fill="white"/>
<path d="M35.3971 17.8156C35.3971 17.5533 35.3358 17.2574 35.2241 16.9281C35.1069 16.5988 34.9674 16.2863 34.7944 15.9905C34.6213 15.6947 34.4204 15.41 34.1916 15.1477C33.9627 14.8854 33.7339 14.6844 33.5051 14.5561C33.2595 14.3998 33.0195 14.2547 32.7795 14.1151C30.0111 12.4854 27.3711 11.6426 24.8539 11.5812C24.7088 11.5756 24.5637 11.5756 24.4241 11.5756C22.8781 11.5756 21.4269 11.7877 20.0762 12.2063C19.6074 12.357 19.1497 12.5244 18.7088 12.7254L18.653 12.7533C18.653 12.7533 18.6362 12.7533 18.6306 12.7644C18.2567 12.9263 17.8939 13.1105 17.5367 13.317C16.1581 14.0984 14.9525 15.1086 13.9088 16.3421C13.8976 16.3588 13.8864 16.37 13.8697 16.3868C12.8371 17.6147 11.9441 19.01 11.1795 20.584C11.0455 20.9077 10.9785 21.2705 10.973 21.6835C10.9674 21.7114 10.9674 21.7393 10.9674 21.7672C10.9674 22.2081 11.1069 22.677 11.3971 23.1737L15.773 30.7198L16.7609 32.4277C17.0455 32.9244 17.386 33.2816 17.7711 33.5049C18.1506 33.7281 18.5302 33.8621 18.8985 33.9123H18.9097C20.6846 34.0519 22.3702 33.9849 23.972 33.7114C24.9153 33.5495 25.8139 33.304 26.6734 32.9635H26.679C27.2818 32.7291 27.8678 32.45 28.4371 32.1263C28.5823 32.0426 28.7274 31.9588 28.8669 31.8695C30.3013 30.9821 31.5348 29.8212 32.573 28.3868C32.9525 27.8677 33.3041 27.3151 33.6334 26.7235C34.7553 24.6975 35.3525 22.2361 35.4139 19.3505C35.4251 18.8537 35.4195 18.3402 35.3971 17.8156ZM27.4548 25.7412C27.4102 25.7635 27.3655 25.7858 27.3209 25.8081C26.6902 26.104 25.9255 25.9923 25.0269 25.4733C24.5413 25.1942 24.0948 24.8426 23.6874 24.4128C23.2911 23.9942 22.9283 23.503 22.599 22.9393C22.3757 22.5542 22.1916 22.1691 22.0464 21.7895C21.7562 21.0472 21.6111 20.3105 21.6111 19.5849C21.6111 18.5523 21.9013 17.8379 22.4818 17.4528C22.5209 17.4193 22.5599 17.397 22.599 17.3747C23.2576 16.9951 24.0669 17.0844 25.0269 17.6426C25.9869 18.1951 26.7962 19.0379 27.4548 20.1765C28.1134 21.3095 28.4371 22.4258 28.4371 23.5254C28.4371 24.6249 28.1134 25.3672 27.4548 25.7412Z" fill="white"/>
<path d="M28.4371 23.5254C28.4371 24.6305 28.1134 25.3672 27.4548 25.7412C27.4102 25.7635 27.3655 25.7858 27.3209 25.8081C26.6902 26.104 25.9255 25.9923 25.0269 25.4733C24.5413 25.1942 24.0948 24.8426 23.6874 24.4128C23.2911 23.9942 22.9283 23.503 22.599 22.9393C22.3757 22.5542 22.1916 22.1691 22.0464 21.7895C21.7562 21.0472 21.6111 20.3105 21.6111 19.5849C21.6111 18.5523 21.9013 17.8379 22.4818 17.4528C22.5209 17.4193 22.5599 17.397 22.599 17.3747C23.2576 16.9951 24.0669 17.0844 25.0269 17.6426C25.9869 18.1951 26.7962 19.0379 27.4548 20.1765C28.1134 21.3095 28.4371 22.4258 28.4371 23.5254Z" fill="white"/>
<path d="M44.7962 21.1421C43.479 23.5198 41.7488 25.3226 39.5999 26.5449C39.0753 26.8463 38.5283 27.1086 37.9702 27.3319L28.8669 31.8695C30.3013 30.9821 31.5348 29.8212 32.573 28.3868C32.9525 27.8677 33.3041 27.3151 33.6334 26.7235C34.7553 24.6975 35.3525 22.2361 35.4139 19.3505C35.4251 18.8537 35.4195 18.3402 35.3971 17.8156C35.3971 17.5533 35.3358 17.2574 35.2241 16.9281C35.1069 16.5988 34.9674 16.2863 34.7944 15.9905C34.6213 15.6947 34.4204 15.41 34.1916 15.1477C33.9627 14.8854 33.7339 14.6844 33.5051 14.5561C33.2595 14.3998 33.0195 14.2547 32.7795 14.1151C30.0111 12.4854 27.3711 11.6426 24.8539 11.5812C24.7088 11.5756 24.5637 11.5756 24.4241 11.5756C22.8781 11.5756 21.4269 11.7877 20.0762 12.2063C19.6074 12.357 19.1497 12.5244 18.7088 12.7254L20.1878 11.9886L29.8158 7.17187C31.6799 6.32908 33.7451 5.94396 36.0167 5.99977C38.7516 6.06675 41.6371 7.06024 44.6678 8.97466C44.8967 9.10303 45.1255 9.30396 45.3544 9.56629C45.5832 9.82861 45.7841 10.1133 45.9571 10.4091C46.1302 10.7049 46.2697 11.0174 46.3869 11.3468C46.4985 11.6761 46.5599 11.9719 46.5599 12.2342C46.6995 15.7951 46.1134 18.7644 44.7962 21.1421Z" fill="white"/>
<path d="M13.4957 34.0407C13.4957 32.3998 12.999 30.7142 11.9944 28.9895C10.9953 27.2593 9.77854 25.9923 8.34412 25.1775C7.0604 24.4519 5.95528 24.2844 5.01204 24.664L10.973 21.6835C10.973 21.6835 10.9674 21.7393 10.9674 21.7672C10.9674 22.2081 11.1069 22.677 11.3971 23.1737L15.773 30.7198L16.7609 32.4277C17.0455 32.9244 17.386 33.2816 17.7711 33.5049C18.1506 33.7281 18.5302 33.8621 18.8985 33.9123L11.9944 37.3616C12.999 36.7923 13.4957 35.6872 13.4957 34.0407Z" fill="white"/>
<path d="M40.2474 30.4128L30.9097 35.0844L29.0846 35.9942C27.5106 36.597 25.8585 36.9988 24.1227 37.1942C22.3925 37.3951 20.5674 37.3672 18.653 37.1161L29.8158 31.5347C31.7302 31.7858 33.5553 31.8137 35.2855 31.6128C37.0213 31.4174 38.6734 31.0156 40.2474 30.4128Z" fill="white"/>
<path d="M40.5878 35.1179C40.4204 35.6593 40.1302 36.0444 39.7339 36.2733L34.3199 39.3598L23.1571 44.9412L28.5711 41.8547C28.9674 41.6258 29.2576 41.2407 29.4251 40.6993C29.5981 40.1579 29.626 39.5272 29.5144 38.8072L29.0846 35.9942L30.9097 35.0844L40.2474 30.4128L40.6771 33.2258C40.7888 33.9458 40.7609 34.5765 40.5878 35.1179Z" fill="white"/>
<path d="M29.0846 35.9942L29.5144 38.8072C29.626 39.5272 29.5981 40.1579 29.4251 40.6993C29.2576 41.2407 28.9674 41.6258 28.5711 41.8547L23.1571 44.9412M29.0846 35.9942C27.5106 36.597 25.8585 36.9988 24.1227 37.1942C22.3925 37.3951 20.5674 37.3672 18.653 37.1161M29.0846 35.9942L30.9097 35.0844L40.2474 30.4128M18.653 37.1161L20.3664 42.6863C20.5953 43.4788 21.0139 44.1095 21.6111 44.5895C22.2139 45.0695 22.7274 45.1868 23.1571 44.9412M18.653 37.1161L29.8158 31.5347C31.7302 31.7858 33.5553 31.8137 35.2855 31.6128C37.0213 31.4174 38.6734 31.0156 40.2474 30.4128M23.1571 44.9412L34.3199 39.3598L39.7339 36.2733C40.1302 36.0444 40.4204 35.6593 40.5878 35.1179C40.7609 34.5765 40.7888 33.9458 40.6771 33.2258L40.2474 30.4128M14.4837 10.8667C13.1664 11.877 11.9888 13.0881 10.9451 14.4835C9.90133 15.8844 9.00273 17.4528 8.2604 19.1942M14.4837 10.8667L12.2511 9.03605C11.6818 8.5728 11.1237 8.28256 10.5767 8.16536C10.1246 8.06489 9.71714 8.0928 9.36552 8.23233M14.4837 10.8667L25.6464 5.28536M8.2604 19.1942L4.2697 14.9188C3.69482 14.3216 3.35993 13.6519 3.25947 12.904C3.159 12.1561 3.32087 11.6649 3.75064 11.4193L9.159 8.3328L9.36552 8.23233M8.2604 19.1942L13.8697 16.3868M9.36552 8.23233L20.3218 2.7514C20.7237 2.52256 21.1981 2.46676 21.7395 2.58397C22.2864 2.70117 22.8446 2.99141 23.4139 3.45466L25.6464 5.28536M11.9944 37.3616C12.999 36.7923 13.4957 35.6872 13.4957 34.0407C13.4957 32.3998 12.999 30.7142 11.9944 28.9895C10.9953 27.2593 9.77854 25.9923 8.34412 25.1775C7.0604 24.4519 5.95528 24.2844 5.01204 24.664M11.9944 37.3616C10.6213 38.1486 8.99714 38.143 7.1218 37.3561C5.24644 36.5691 3.36552 35.7821 1.479 34.984C1.73575 32.9635 1.9981 30.9598 2.27159 28.9616C2.54508 26.9691 3.34878 25.5905 4.69389 24.8202L5.01204 24.664M11.9944 37.3616L18.8985 33.9123M5.01204 24.664L10.973 21.6835M25.6464 5.28536C24.3292 6.29559 23.1516 7.50675 22.1078 8.9021C21.399 9.85094 20.7627 10.8779 20.1878 11.983L18.7088 12.7254M18.7088 12.7254L18.653 12.7533C18.653 12.7533 18.6362 12.7533 18.6306 12.7644C18.2567 12.9263 17.8939 13.1105 17.5367 13.317C16.1581 14.0984 14.9525 15.1086 13.9088 16.3421C13.8976 16.3588 13.8864 16.37 13.8697 16.3868M18.7088 12.7254C19.1497 12.5244 19.6074 12.357 20.0762 12.2063C21.4269 11.7877 22.8781 11.5756 24.4241 11.5756C24.5637 11.5756 24.7088 11.5756 24.8539 11.5812C27.3711 11.6426 30.0111 12.4854 32.7795 14.1151C33.0195 14.2547 33.2595 14.3998 33.5051 14.5561C33.7339 14.6844 33.9627 14.8854 34.1916 15.1477C34.4204 15.41 34.6213 15.6947 34.7944 15.9905C34.9674 16.2863 35.1069 16.5988 35.2241 16.9281C35.3357 17.2574 35.3971 17.5533 35.3971 17.8156C35.4195 18.3402 35.4251 18.8537 35.4139 19.3505C35.3525 22.2361 34.7553 24.6975 33.6334 26.7235C33.3041 27.3151 32.9525 27.8677 32.573 28.3868C31.5348 29.8212 30.3013 30.9821 28.8669 31.8695M18.7088 12.7254L20.1878 11.9886L29.8158 7.17187C31.6799 6.32908 33.7451 5.94396 36.0167 5.99977C38.7516 6.06675 41.6371 7.06024 44.6678 8.97466C44.8967 9.10303 45.1255 9.30396 45.3544 9.56629C45.5832 9.82861 45.7841 10.1133 45.9571 10.4091C46.1302 10.7049 46.2697 11.0174 46.3869 11.3468C46.4985 11.6761 46.5599 11.9719 46.5599 12.2342C46.6995 15.7951 46.1134 18.7644 44.7962 21.1421C43.479 23.5198 41.7488 25.3226 39.5999 26.5449C39.0753 26.8463 38.5283 27.1086 37.9702 27.3319L28.8669 31.8695M13.8697 16.3868C12.8371 17.6147 11.9441 19.01 11.1795 20.584C11.0455 20.9077 10.9785 21.2705 10.973 21.6835M10.973 21.6835C10.9674 21.7114 10.9674 21.7393 10.9674 21.7672M10.973 21.6835C10.973 21.6835 10.9674 21.7393 10.9674 21.7672M10.9674 21.7672C10.9674 22.2081 11.1069 22.677 11.3971 23.1737L15.773 30.7198L16.7609 32.4277C17.0455 32.9244 17.386 33.2816 17.7711 33.5049C18.1506 33.7281 18.5302 33.8621 18.8985 33.9123M18.8985 33.9123H18.9097C20.6846 34.0519 22.3702 33.9849 23.972 33.7114C24.9153 33.5495 25.8139 33.304 26.6734 32.9635H26.679C27.2818 32.7291 27.8678 32.45 28.4371 32.1263C28.5823 32.0426 28.7274 31.9588 28.8669 31.8695M27.4548 25.7412C27.4102 25.7635 27.3655 25.7858 27.3209 25.8081C26.6902 26.104 25.9255 25.9923 25.0269 25.4733C24.5413 25.1942 24.0948 24.8426 23.6874 24.4128C23.2911 23.9942 22.9283 23.503 22.599 22.9393C22.3757 22.5542 22.1916 22.1691 22.0464 21.7895C21.7562 21.0472 21.6111 20.3105 21.6111 19.5849C21.6111 18.5523 21.9013 17.8379 22.4818 17.4528C22.5209 17.4193 22.5599 17.397 22.599 17.3747C23.2576 16.9951 24.0669 17.0844 25.0269 17.6426C25.9869 18.1951 26.7962 19.0379 27.4548 20.1765C28.1134 21.3095 28.4371 22.4258 28.4371 23.5254M27.4548 25.7412C28.1134 25.3672 28.4371 24.6249 28.4371 23.5254M27.4548 25.7412C28.1134 25.3672 28.4371 24.6305 28.4371 23.5254" stroke="#27272A" stroke-opacity="0.25" stroke-linecap="round" stroke-linejoin="round"/>
      </svg>