<svg xmlns="http://www.w3.org/2000/svg" viewBox="0 0 48 48">
        <path d="M25.9395 12.8506V22.4623C25.9395 22.9852 25.7912 23.3403 25.4946 23.5277C25.4829 23.5355 25.4712 23.5433 25.4595 23.5511C25.1356 23.7345 24.7414 23.6916 24.2653 23.4145C23.7892 23.1413 23.3912 22.7277 23.0712 22.1735C22.7512 21.6194 22.5912 21.073 22.5912 20.5267V15.3364C22.5131 15.3716 22.4351 15.4106 22.357 15.4496C20.878 16.1716 19.719 17.3345 18.8839 18.9384C18.0058 20.6281 17.5648 22.6886 17.5648 25.1237C17.5648 28.0389 18.1736 31.1179 19.3873 34.3686C20.6009 37.6155 22.2985 40.6359 24.4761 43.4301C24.8663 43.9452 25.1356 44.4954 25.2917 45.0808C25.4439 45.6661 25.4087 46.1344 25.1863 46.4857C25.0926 46.634 24.9834 46.7432 24.8507 46.8213L24.7726 46.8603C24.6126 46.9305 24.4292 46.9461 24.2224 46.9149C23.8048 46.8486 23.399 46.5754 23.0087 46.0915C20.2731 42.6222 18.1229 38.8603 16.558 34.8018C14.997 30.7433 14.2126 26.872 14.2126 23.1881C14.2126 20.273 14.716 17.7989 15.7229 15.7696C16.7258 13.7364 18.1502 12.2613 19.9922 11.3403L15.8907 8.97156C15.4146 8.69448 15.0165 8.28082 14.6965 7.72668C14.3765 7.17253 14.2126 6.62619 14.2126 6.07985C14.2126 5.53351 14.3765 5.17058 14.6965 4.98717L14.7941 4.94034C15.0985 4.81936 15.4614 4.8779 15.8907 5.12375L24.2653 9.96278C24.3707 10.0213 24.4682 10.0877 24.5658 10.1618C24.9092 10.4233 25.2058 10.7706 25.4595 11.2038C25.7795 11.7579 25.9395 12.3042 25.9395 12.8506Z" fill="white"/>
<path d="M33.7443 8.9481V18.5598C33.7443 19.1023 33.5843 19.4652 33.2643 19.6486L33.1667 19.6955L25.4945 23.5355L25.4946 23.5277C25.7912 23.3403 25.9395 22.9852 25.9395 22.4623V12.8506C25.9395 12.3042 25.7795 11.7579 25.4595 11.2038C25.2058 10.7706 24.9092 10.4233 24.5658 10.1618C24.4682 10.0877 24.3707 10.0213 24.2653 9.96278L15.8907 5.12375C15.4614 4.8779 15.0985 4.81936 14.7941 4.94034L22.5013 1.08471C22.8213 0.905195 23.2194 0.948122 23.6955 1.22129L32.0701 6.06034C32.5462 6.33351 32.9404 6.74713 33.2643 7.30127C33.5843 7.85542 33.7443 8.40176 33.7443 8.9481Z" fill="white"/>
<path d="M25.4946 23.5277L25.4945 23.5355L25.4595 23.5511C25.4595 23.5511 25.4829 23.5355 25.4946 23.5277Z" fill="white"/>
<path d="M32.9911 42.5832C32.8857 42.751 32.7609 42.8681 32.6087 42.9422L32.5579 42.9657L24.8507 46.8213C24.9834 46.7432 25.0926 46.634 25.1863 46.4857C25.4087 46.1344 25.4439 45.6661 25.2917 45.0808C25.1356 44.4954 24.8663 43.9452 24.4761 43.4301C22.2985 40.6359 20.6009 37.6155 19.3873 34.3686C18.1736 31.1179 17.5648 28.0389 17.5648 25.1237C17.5648 22.6886 18.0058 20.6281 18.8839 18.9384C19.719 17.3345 20.878 16.1716 22.357 15.4496C22.4351 15.4106 22.5131 15.3716 22.5912 15.3364V20.5267C22.5912 21.073 22.7512 21.6194 23.0712 22.1735C23.3912 22.7277 23.7892 23.1413 24.2653 23.4145C24.7414 23.6916 25.1356 23.7345 25.4595 23.5511L25.4945 23.5355C25.7287 25.752 26.2945 28.0622 27.1921 30.4662C28.4057 33.713 30.1033 36.7335 32.2809 39.5276C32.6711 40.0427 32.9404 40.593 33.0965 41.1783C33.2487 41.7637 33.2135 42.232 32.9911 42.5832Z" fill="white"/>
<path d="M25.4946 23.5277C25.7912 23.3403 25.9395 22.9852 25.9395 22.4623V12.8506C25.9395 12.3042 25.7795 11.7579 25.4595 11.2038C25.2058 10.7706 24.9092 10.4233 24.5658 10.1618C24.4682 10.0877 24.3707 10.0213 24.2653 9.96278L15.8907 5.12375C15.4614 4.8779 15.0985 4.81936 14.7941 4.94034M25.4946 23.5277C25.4829 23.5355 25.4712 23.5433 25.4595 23.5511M25.4946 23.5277L25.4945 23.5355M25.4946 23.5277C25.4829 23.5355 25.4595 23.5511 25.4595 23.5511M25.4595 23.5511C25.1356 23.7345 24.7414 23.6916 24.2653 23.4145C23.7892 23.1413 23.3912 22.7277 23.0712 22.1735C22.7512 21.6194 22.5912 21.073 22.5912 20.5267V15.3364C22.5131 15.3716 22.4351 15.4106 22.357 15.4496C20.878 16.1716 19.719 17.3345 18.8839 18.9384C18.0058 20.6281 17.5648 22.6886 17.5648 25.1237C17.5648 28.0389 18.1736 31.1179 19.3873 34.3686C20.6009 37.6155 22.2985 40.6359 24.4761 43.4301C24.8663 43.9452 25.1356 44.4954 25.2917 45.0808C25.4439 45.6661 25.4087 46.1344 25.1863 46.4857C25.0926 46.634 24.9834 46.7432 24.8507 46.8213M25.4595 23.5511L25.4945 23.5355M24.8507 46.8213L24.7726 46.8603C24.6126 46.9305 24.4292 46.9461 24.2224 46.9149C23.8048 46.8486 23.399 46.5754 23.0087 46.0915C20.2731 42.6222 18.1229 38.8603 16.558 34.8018C14.997 30.7433 14.2126 26.872 14.2126 23.1881C14.2126 20.273 14.716 17.7989 15.7229 15.7696C16.7258 13.7364 18.1502 12.2613 19.9922 11.3403L15.8907 8.97156C15.4146 8.69448 15.0165 8.28082 14.6965 7.72668C14.3765 7.17253 14.2126 6.62619 14.2126 6.07985C14.2126 5.53351 14.3765 5.17058 14.6965 4.98717L14.7941 4.94034M24.8507 46.8213L32.5579 42.9657L32.6087 42.9422C32.7609 42.8681 32.8857 42.751 32.9911 42.5832C33.2135 42.232 33.2487 41.7637 33.0965 41.1783C32.9404 40.593 32.6711 40.0427 32.2809 39.5276C30.1033 36.7335 28.4057 33.713 27.1921 30.4662C26.2945 28.0622 25.7287 25.752 25.4945 23.5355M14.7941 4.94034L22.5013 1.08471C22.8213 0.905195 23.2194 0.948122 23.6955 1.22129L32.0701 6.06034C32.5462 6.33351 32.9404 6.74713 33.2643 7.30127C33.5843 7.85542 33.7443 8.40176 33.7443 8.9481V18.5598C33.7443 19.1023 33.5843 19.4652 33.2643 19.6486L33.1667 19.6955L25.4945 23.5355" stroke="#27272A" stroke-opacity="0.25" stroke-linecap="round" stroke-linejoin="round"/>
      </svg>