<svg xmlns="http://www.w3.org/2000/svg" viewBox="0 0 48 48">
        <path d="M46.7852 19.699V29.1612C46.7947 30.8911 46.2293 32.5877 45.0887 34.2558C43.9481 35.924 42.2324 37.4163 39.9417 38.7422C38.7013 39.4599 37.3469 40.0871 35.8831 40.6289C34.4193 41.1707 32.8416 41.6032 31.1544 41.9358C30.4083 42.0784 29.7097 42.0594 29.0586 41.8741C28.4075 41.6887 28.0796 41.4036 28.0796 41.0234V31.5184C28.0796 31.8986 28.4075 32.1838 29.0586 32.3691C29.3437 32.4499 29.6383 32.5022 29.9425 32.5164C30.3322 32.5402 30.7314 32.5117 31.1496 32.4309C32.8368 32.0982 34.4146 31.6658 35.8783 31.124C37.3421 30.5822 38.6966 29.9549 39.937 29.2373C40.6879 28.8048 41.3723 28.3533 41.9996 27.8781C43.2875 26.9181 44.314 25.8725 45.0839 24.7509C45.1505 24.6511 45.217 24.5513 45.2835 24.4515C46.2815 22.8927 46.7805 21.3101 46.7805 19.699H46.7852Z" fill="white"/>
<path d="M27.5759 15.7877H27.4619C27.8706 15.8305 28.2841 15.8828 28.6928 15.9399C28.3649 15.8401 27.9894 15.7877 27.5759 15.7877Z" fill="white"/>
<path d="M46.7852 19.6562L46.7852 19.699C46.7852 21.3101 46.2863 22.8926 45.2882 24.4514C45.2217 24.5512 45.1552 24.6511 45.0887 24.7509C44.3188 25.8724 43.2923 26.918 42.0043 27.878C41.377 28.3532 40.6926 28.8047 39.9417 29.2372C38.7013 29.9548 37.3469 30.5821 35.8831 31.1239C34.4193 31.6657 32.8416 32.0982 31.1544 32.4309C30.7362 32.5116 30.337 32.5401 29.9473 32.5163C29.6431 32.5021 29.3485 32.4499 29.0634 32.3691C28.4123 32.1837 28.0843 31.8986 28.0843 31.5184C28.0796 31.1334 28.2649 30.777 28.6356 30.4491C28.9682 30.1592 29.4007 29.9453 29.933 29.798C29.9378 29.798 29.9473 29.798 29.952 29.798C30.0185 29.779 30.0803 29.7647 30.1468 29.7505C31.392 29.4796 32.5564 29.1373 33.6304 28.7239C34.7092 28.3104 35.7025 27.8447 36.615 27.3172C38.1548 26.4285 39.3714 25.4685 40.2601 24.4324C41.1916 23.3679 41.7715 22.2225 42.0139 20.9963C42.0994 20.5591 42.1375 20.1124 42.1375 19.6562C42.1232 16.6811 40.2507 14.1196 36.5295 11.9714C32.8083 9.82333 28.3742 8.74452 23.2226 8.73501C18.0756 8.72551 13.651 9.79006 9.95355 11.9239C9.04107 12.4514 8.23325 13.017 7.52988 13.6348C6.83127 14.2479 6.24676 14.899 5.77626 15.5833C5.50062 15.9683 5.09661 16.2724 4.55958 16.5053C4.0178 16.7382 3.39048 16.8522 2.6681 16.8475C2.00751 16.8475 1.51798 16.6574 1.21382 16.2724C1.05224 16.0681 0.97144 15.859 0.97144 15.6356C0.97144 15.4408 1.03793 15.2364 1.16625 15.0225C1.76981 14.0673 2.52069 13.1691 3.41416 12.3326C4.30763 11.4914 5.37706 10.7168 6.61745 9.99917C8.90815 8.678 11.4981 7.68474 14.3924 7.02889C17.2819 6.3683 20.219 6.0451 23.2083 6.04986C26.1976 6.05461 29.1442 6.39203 32.0384 7.06213C34.9375 7.72748 37.537 8.73022 39.842 10.0609C42.1469 11.3916 43.8815 12.8934 45.0364 14.5663C46.196 16.2392 46.7805 17.9358 46.79 19.661L46.7852 19.6562Z" fill="white"/>
<path d="M42.1328 19.6515C42.1328 20.1077 42.0948 20.5545 42.0092 20.9917C41.7669 22.2178 41.187 23.3632 40.2555 24.4278C39.3478 23.368 38.1027 22.3842 36.5248 21.4717C34.5288 20.3168 32.3283 19.4757 29.9188 18.9434L29.9093 17.1327C29.9093 16.7525 29.686 16.4294 29.2393 16.1727C29.0729 16.0777 28.8924 16.0016 28.6975 15.9446C28.6975 15.9446 28.6975 15.9399 28.6928 15.9399C28.3649 15.8401 27.9894 15.7877 27.5759 15.7877H27.4619L18.955 15.7687H15.6187C15.0057 15.764 14.4685 15.8923 13.998 16.1442C13.6654 16.3248 13.4516 16.5386 13.3613 16.781C13.3185 16.8808 13.2994 16.9901 13.2994 17.1042V19.8606C12.1256 20.2931 11.0087 20.8158 9.94894 21.4242C9.03646 21.9517 8.22859 22.5172 7.52522 23.1351C6.82661 23.7481 6.2421 24.3993 5.77161 25.0836C5.49596 25.4686 5.09196 25.7727 4.55494 26.0056C4.01316 26.2384 3.38584 26.3525 2.66346 26.3477C2.00287 26.3477 1.51334 26.1576 1.20918 25.7727C1.08086 25.6111 1.00007 25.4448 0.976311 25.2689V25.0408L0.966797 15.6309C0.966797 15.8543 1.04759 16.0634 1.20918 16.2677C1.51334 16.6527 2.00287 16.8428 2.66346 16.8428C3.38584 16.8428 4.01316 16.7335 4.55494 16.5006C5.09196 16.2677 5.49596 15.9636 5.77161 15.5787C6.2421 14.8943 6.82661 14.2432 7.52522 13.6301C8.22859 13.0123 9.03646 12.4467 9.94894 11.9192C13.6464 9.78535 18.071 8.72082 23.2179 8.73033C28.3696 8.73983 32.8036 9.81862 36.5248 11.9667C40.246 14.1149 42.1185 16.6764 42.1328 19.6515Z" fill="white"/>
<path d="M0.966797 15.6309V15.5501V15.6309Z" fill="white"/>
<path d="M29.9476 24.0379C29.9476 24.3896 29.7147 24.7032 29.2442 24.9741C28.9306 25.1547 28.5789 25.2783 28.1987 25.3353C28.0181 25.3638 27.828 25.3781 27.6284 25.3781C27.329 25.3781 27.0534 25.3496 26.7967 25.2926C26.4878 25.2261 26.2122 25.1167 25.9651 24.9647C25.5231 24.6938 25.2996 24.3801 25.2949 24.0284L25.2331 20.4118L10.0395 29.1801C9.57378 29.451 9.01774 29.5888 8.38091 29.5888C7.74407 29.5841 7.19279 29.4462 6.71754 29.1754C6.24704 28.9045 6.00942 28.5813 6.00942 28.2154C6.00467 27.8494 6.23754 27.531 6.70803 27.2601L13.2996 23.4534L21.9016 18.487L19.1737 18.4728L15.6332 18.449C15.0201 18.449 14.483 18.3112 14.0077 18.0403C13.5372 17.7694 13.2994 17.4558 13.2994 17.1042C13.2994 16.9901 13.3185 16.8808 13.3613 16.781C13.4516 16.5386 13.6654 16.3248 13.998 16.1442C14.4685 15.8923 15.0059 15.7638 15.6189 15.7638H18.9552L27.4619 15.7877C27.8706 15.8305 28.2841 15.8828 28.6928 15.9399C28.6975 15.9399 28.6975 15.9446 28.6975 15.9446C28.8924 16.0016 29.0729 16.0777 29.2393 16.1727C29.686 16.4294 29.9093 16.7525 29.9093 17.1327L29.9188 18.9434L29.9476 24.0379Z" fill="white"/>
<path d="M21.9016 18.487L13.2996 23.4534L13.2994 17.1042C13.2994 17.4558 13.5372 17.7694 14.0077 18.0403C14.483 18.3112 15.0201 18.449 15.6332 18.449L19.1737 18.4728L21.9016 18.487Z" fill="white"/>
<path d="M29.9476 24.0379L29.9472 29.7931C29.9472 29.7931 29.9329 29.7931 29.9281 29.7931C29.3958 29.9405 28.9634 30.1543 28.6307 30.4442C28.26 30.7721 28.0747 31.1286 28.0794 31.5135V34.8546C27.9369 34.8688 27.7848 34.8783 27.628 34.8783C26.9627 34.8783 26.4114 34.7405 25.9646 34.4649C25.5227 34.194 25.2992 33.8803 25.2944 33.5286L25.2328 29.9119V20.407L25.2944 24.0236C25.2992 24.3753 25.5227 24.689 25.9646 24.9599C26.2118 25.112 26.4874 25.2213 26.7963 25.2878C27.053 25.3449 27.3286 25.3734 27.628 25.3734C27.8276 25.3734 28.0177 25.3591 28.1983 25.3306C28.5784 25.2735 28.9301 25.15 29.2438 24.9694C29.7143 24.6985 29.9472 24.3848 29.9472 24.0331L29.9476 24.0379Z" fill="white"/>
<path d="M25.2331 20.4118L25.2331 29.9168L10.0394 38.6852C9.57368 38.9561 9.01764 39.0939 8.38081 39.0939C7.74398 39.0892 7.19269 38.9513 6.71744 38.6805C6.24695 38.4096 6.00933 38.0863 6.00933 37.7204L6.00942 28.2154C6.00942 28.5813 6.24704 28.9045 6.71754 29.1754C7.19279 29.4462 7.74407 29.5841 8.38091 29.5888C9.01774 29.5888 9.57378 29.451 10.0395 29.1801L25.2331 20.4118Z" fill="white"/>
<path d="M46.7852 19.699V29.1612C46.7947 30.8911 46.2293 32.5877 45.0887 34.2558C43.9481 35.924 42.2324 37.4163 39.9417 38.7422C38.7013 39.4599 37.3469 40.0871 35.8831 40.6289C34.4193 41.1707 32.8416 41.6032 31.1544 41.9358C30.4083 42.0784 29.7097 42.0594 29.0586 41.8741C28.4075 41.6887 28.0796 41.4036 28.0796 41.0234V31.5184C28.0796 31.8986 28.4075 32.1838 29.0586 32.3691C29.3437 32.4499 29.6383 32.5022 29.9425 32.5164C30.3322 32.5402 30.7314 32.5117 31.1496 32.4309C32.8368 32.0982 34.4146 31.6658 35.8783 31.124C37.3421 30.5822 38.6966 29.9549 39.937 29.2373C40.6879 28.8048 41.3723 28.3533 41.9996 27.8781C43.2875 26.9181 44.314 25.8725 45.0839 24.7509C45.1505 24.6511 45.217 24.5513 45.2835 24.4515C46.2815 22.8927 46.7805 21.3101 46.7805 19.699H46.7852ZM46.7852 19.699L46.7852 19.6562L46.79 19.661C46.7805 17.9358 46.196 16.2392 45.0364 14.5663C43.8815 12.8934 42.1469 11.3916 39.842 10.0609C37.537 8.73022 34.9375 7.72748 32.0384 7.06213C29.1442 6.39203 26.1976 6.05461 23.2083 6.04986C20.219 6.0451 17.2819 6.3683 14.3924 7.02889C11.4981 7.68474 8.90815 8.678 6.61745 9.99917C5.37706 10.7168 4.30763 11.4914 3.41416 12.3326C2.52069 13.1691 1.76981 14.0673 1.16625 15.0225C1.03793 15.2364 0.97144 15.4408 0.97144 15.6356C0.97144 15.859 1.05224 16.0681 1.21382 16.2724C1.51798 16.6574 2.00751 16.8475 2.6681 16.8475C3.39048 16.8522 4.0178 16.7382 4.55958 16.5053C5.09661 16.2724 5.50062 15.9683 5.77626 15.5833C6.24676 14.899 6.83127 14.2479 7.52988 13.6348C8.23325 13.017 9.04107 12.4514 9.95355 11.9239C13.651 9.79006 18.0756 8.72551 23.2226 8.73501C28.3742 8.74452 32.8083 9.82333 36.5295 11.9714C40.2507 14.1196 42.1232 16.6811 42.1375 19.6562C42.1375 20.1124 42.0994 20.5591 42.0139 20.9963C41.7715 22.2225 41.1916 23.3679 40.2601 24.4324C39.3714 25.4685 38.1548 26.4285 36.615 27.3172C35.7025 27.8447 34.7092 28.3104 33.6304 28.7239C32.5564 29.1373 31.392 29.4796 30.1468 29.7505C30.0803 29.7647 30.0185 29.779 29.952 29.798C29.9473 29.798 29.9378 29.798 29.933 29.798C29.4007 29.9453 28.9682 30.1592 28.6356 30.4491C28.2649 30.777 28.0796 31.1334 28.0843 31.5184C28.0843 31.8986 28.4123 32.1837 29.0634 32.3691C29.3485 32.4499 29.6431 32.5021 29.9473 32.5163C30.337 32.5401 30.7362 32.5116 31.1544 32.4309C32.8416 32.0982 34.4193 31.6657 35.8831 31.1239C37.3469 30.5821 38.7013 29.9548 39.9417 29.2372C40.6926 28.8047 41.377 28.3532 42.0043 27.878C43.2923 26.918 44.3188 25.8724 45.0887 24.7509C45.1552 24.6511 45.2217 24.5512 45.2882 24.4514C46.2863 22.8926 46.7852 21.3101 46.7852 19.699ZM27.4619 15.7877H27.5759C27.9894 15.7877 28.3649 15.8401 28.6928 15.9399M27.4619 15.7877C27.8706 15.8305 28.2841 15.8828 28.6928 15.9399M27.4619 15.7877L18.955 15.7687H15.6187C15.0057 15.764 14.4685 15.8923 13.998 16.1442M27.4619 15.7877L18.9552 15.7638H15.6189C15.0059 15.7638 14.4685 15.8923 13.998 16.1442M28.6928 15.9399C28.6975 15.9399 28.6975 15.9446 28.6975 15.9446C28.8924 16.0016 29.0729 16.0777 29.2393 16.1727C29.686 16.4294 29.9093 16.7525 29.9093 17.1327L29.9188 18.9434M29.9188 18.9434C32.3283 19.4757 34.5288 20.3168 36.5248 21.4717C38.1027 22.3842 39.3478 23.368 40.2555 24.4278C41.187 23.3632 41.7669 22.2178 42.0092 20.9917C42.0948 20.5545 42.1328 20.1077 42.1328 19.6515C42.1185 16.6764 40.246 14.1149 36.5248 11.9667C32.8036 9.81862 28.3696 8.73983 23.2179 8.73033C18.071 8.72082 13.6464 9.78535 9.94894 11.9192C9.03646 12.4467 8.22859 13.0123 7.52522 13.6301C6.82661 14.2432 6.2421 14.8943 5.77161 15.5787C5.49596 15.9636 5.09196 16.2677 4.55494 16.5006C4.01316 16.7335 3.38584 16.8428 2.66346 16.8428C2.00287 16.8428 1.51334 16.6527 1.20918 16.2677C1.04759 16.0634 0.966797 15.8543 0.966797 15.6309M29.9188 18.9434L29.9476 24.0379M13.998 16.1442C13.6654 16.3248 13.4516 16.5386 13.3613 16.781C13.3185 16.8808 13.2994 16.9901 13.2994 17.1042M13.2994 17.1042V19.8606C12.1256 20.2931 11.0087 20.8158 9.94894 21.4242C9.03646 21.9517 8.22859 22.5172 7.52522 23.1351C6.82661 23.7481 6.2421 24.3993 5.77161 25.0836C5.49596 25.4686 5.09196 25.7727 4.55494 26.0056C4.01316 26.2384 3.38584 26.3525 2.66346 26.3477C2.00287 26.3477 1.51334 26.1576 1.20918 25.7727C1.08086 25.6111 1.00007 25.4448 0.976311 25.2689V25.0408L0.966797 15.6309M13.2994 17.1042C13.2994 17.4558 13.5372 17.7694 14.0077 18.0403C14.483 18.3112 15.0201 18.449 15.6332 18.449L19.1737 18.4728L21.9016 18.487L13.2996 23.4534M13.2994 17.1042L13.2996 23.4534M0.966797 15.6309V15.5501M29.9476 24.0379C29.9476 24.3896 29.7147 24.7032 29.2442 24.9741C28.9306 25.1547 28.5789 25.2783 28.1987 25.3353C28.0181 25.3638 27.828 25.3781 27.6284 25.3781C27.329 25.3781 27.0534 25.3496 26.7967 25.2926C26.4878 25.2261 26.2122 25.1167 25.9651 24.9647C25.5231 24.6938 25.2996 24.3801 25.2949 24.0284L25.2331 20.4118M29.9476 24.0379L29.9472 29.7931C29.9472 29.7931 29.9329 29.7931 29.9281 29.7931C29.3958 29.9405 28.9634 30.1543 28.6307 30.4442C28.26 30.7721 28.0747 31.1286 28.0794 31.5135V34.8546C27.9369 34.8688 27.7848 34.8783 27.628 34.8783C26.9627 34.8783 26.4114 34.7405 25.9646 34.4649C25.5227 34.194 25.2992 33.8803 25.2944 33.5286L25.2328 29.9119V20.407L25.2944 24.0236C25.2992 24.3753 25.5227 24.689 25.9646 24.9599C26.2118 25.112 26.4874 25.2213 26.7963 25.2878C27.053 25.3449 27.3286 25.3734 27.628 25.3734C27.8276 25.3734 28.0177 25.3591 28.1983 25.3306C28.5784 25.2735 28.9301 25.15 29.2438 24.9694C29.7143 24.6985 29.9472 24.3848 29.9472 24.0331L29.9476 24.0379ZM25.2331 20.4118L25.2331 29.9168L10.0394 38.6852C9.57368 38.9561 9.01764 39.0939 8.38081 39.0939C7.74398 39.0892 7.19269 38.9513 6.71744 38.6805C6.24695 38.4096 6.00933 38.0863 6.00933 37.7204L6.00942 28.2154M25.2331 20.4118L10.0395 29.1801C9.57378 29.451 9.01774 29.5888 8.38091 29.5888C7.74407 29.5841 7.19279 29.4462 6.71754 29.1754C6.24704 28.9045 6.00942 28.5813 6.00942 28.2154M6.00942 28.2154C6.00467 27.8494 6.23754 27.531 6.70803 27.2601L13.2996 23.4534" stroke="#27272A" stroke-opacity="0.25" stroke-linecap="round" stroke-linejoin="round"/>
      </svg>