<svg xmlns="http://www.w3.org/2000/svg" viewBox="0 0 48 48">
        <path d="M8.32964 6.28802L8.94977 5.97793C8.73313 6.06289 8.53353 6.17333 8.32964 6.28802Z" fill="white"/>
<path d="M34.8315 27.5142C34.0287 24.9146 32.954 22.4211 31.6074 20.0296C31.5267 19.8767 31.4375 19.728 31.3526 19.5793C30.4478 18.0119 29.4411 16.5252 28.3366 15.1149C27.657 14.2484 26.9392 13.4116 26.1873 12.6045C24.2078 10.4806 22.0924 8.76873 19.8411 7.47316C19.2761 7.14608 18.7239 6.85723 18.1759 6.60236C16.6085 5.87599 15.1133 5.43846 13.6903 5.29829C13.6223 5.28979 13.5586 5.2813 13.4949 5.27705C11.8 5.14112 10.3006 5.36625 8.98375 5.96094L8.94977 5.97793L8.32964 6.28802C6.86415 7.12059 5.70442 8.42891 4.85061 10.2045C3.9968 11.9843 3.57202 14.1634 3.57202 16.7461C3.57202 19.3287 3.9968 22.0048 4.85061 24.7701C5.70442 27.5355 6.86411 30.1818 8.3296 32.705C9.79508 35.2324 11.5154 37.5559 13.4949 39.6798C15.4744 41.8037 17.5897 43.5155 19.8411 44.8153C22.0924 46.1109 24.2078 46.8458 26.1873 47.0072C27.9119 47.1474 29.4411 46.9095 30.7706 46.2978L31.2549 46.0514L31.3526 46.0005C32.6311 45.2698 33.6761 44.1824 34.4874 42.7382C34.6106 42.5258 34.7211 42.305 34.8315 42.0798C35.337 41.0264 35.6938 39.8286 35.8977 38.4947C36.0422 37.5772 36.1144 36.5917 36.1144 35.5382C36.1144 32.9556 35.6853 30.2795 34.8315 27.5142ZM32.1044 38.4225C31.6329 39.6713 30.9321 40.6739 30.0018 41.4342C29.7172 41.6721 29.4071 41.8845 29.0757 42.0714C26.5526 43.507 23.4772 43.1757 19.8411 41.0774C16.2092 38.9832 13.1296 35.7592 10.6064 31.4052C8.08743 27.0555 6.82584 22.7949 6.82584 18.6278C6.82584 14.4608 8.08743 11.653 10.6064 10.213C11.1373 9.91138 11.698 9.68625 12.28 9.54183C13.4481 9.24873 14.714 9.27417 16.0775 9.614C17.2584 9.90709 18.5115 10.4381 19.8411 11.2069V26.1422L29.0757 20.8792C29.1607 21.0278 29.2499 21.1808 29.3306 21.3294C30.4265 23.2877 31.2803 25.2969 31.8835 27.3528C32.5334 29.5659 32.8606 31.6643 32.8606 33.6565C32.8606 35.517 32.6099 37.1057 32.1044 38.4225Z" fill="white"/>
<path d="M29.3264 21.3294L28.3324 21.8944L19.8368 26.1422L29.0715 20.8792C29.1565 21.0278 29.2457 21.1808 29.3264 21.3294Z" fill="white"/>
<path d="M32.1044 38.4225C31.6329 39.6713 30.9321 40.6739 30.0018 41.4342C29.7172 41.6721 29.4071 41.8845 29.0757 42.0714C26.5526 43.507 23.4772 43.1757 19.8411 41.0774C16.2092 38.9832 13.1296 35.7592 10.6064 31.4052C8.08743 27.0555 6.82584 22.7949 6.82584 18.6278C6.82584 14.4608 8.08743 11.653 10.6064 10.213C11.1373 9.91138 11.698 9.68625 12.28 9.54183C13.4481 9.24873 14.714 9.27417 16.0775 9.614C15.572 10.9308 15.3215 12.5196 15.3215 14.3801C15.3215 18.5472 16.5831 22.8077 19.102 27.1574C21.6252 31.5114 24.7049 34.7355 28.3367 36.8297C29.6663 37.5985 30.9235 38.1294 32.1044 38.4225Z" fill="white"/>
<path d="M44.61 31.2905C44.61 33.8732 44.181 36.0523 43.3272 37.8321C42.4734 39.6077 41.3137 40.916 39.8482 41.7528C39.5508 41.9228 39.2408 42.0714 38.9222 42.1989L38.8967 42.2116L31.3526 46.0005C32.6311 45.2698 33.6761 44.1824 34.4874 42.7382C34.6106 42.5258 34.7211 42.305 34.8315 42.0798C35.337 41.0264 35.6938 39.8286 35.8977 38.4947C36.0422 37.5772 36.1144 36.5917 36.1144 35.5382C36.1144 32.9556 35.6853 30.2795 34.8315 27.5142C34.0287 24.9146 32.954 22.4211 31.6074 20.0296C31.5267 19.8767 31.4375 19.728 31.3526 19.5793C30.4478 18.0119 29.4411 16.5252 28.3366 15.1149C27.657 14.2484 26.9392 13.4116 26.1873 12.6045C24.2078 10.4806 22.0924 8.76873 19.8411 7.47316C19.2761 7.14608 18.7239 6.85723 18.1759 6.60236C16.6085 5.87599 15.1133 5.43846 13.6903 5.29829C13.6223 5.28979 13.5586 5.2813 13.4949 5.27705C11.8 5.14112 10.3006 5.36625 8.98375 5.96094L17.1098 1.88737C18.5116 1.161 20.1385 0.876401 21.9905 1.02932C23.97 1.19074 26.0854 1.9256 28.3367 3.22543C30.588 4.52099 32.7034 6.23284 34.6829 8.35674C36.6624 10.4806 38.3869 12.8042 39.8482 15.3316C41.3137 17.859 42.4734 20.5012 43.3272 23.2665C44.181 26.0318 44.61 28.7079 44.61 31.2905Z" fill="white"/>
<path d="M8.32964 6.28802L8.94977 5.97793M8.32964 6.28802C8.53353 6.17333 8.73313 6.06289 8.94977 5.97793M8.32964 6.28802C6.86415 7.12059 5.70442 8.42891 4.85061 10.2045C3.9968 11.9843 3.57202 14.1634 3.57202 16.7461C3.57202 19.3287 3.9968 22.0048 4.85061 24.7701C5.70442 27.5355 6.86411 30.1818 8.3296 32.705C9.79508 35.2324 11.5154 37.5559 13.4949 39.6798C15.4744 41.8037 17.5897 43.5155 19.8411 44.8153C22.0924 46.1109 24.2078 46.8458 26.1873 47.0072C27.9119 47.1474 29.4411 46.9095 30.7706 46.2978L31.2549 46.0514L31.3526 46.0005M8.94977 5.97793L8.98375 5.96094M8.98375 5.96094C10.3006 5.36625 11.8 5.14112 13.4949 5.27705C13.5586 5.2813 13.6223 5.28979 13.6903 5.29829C15.1133 5.43846 16.6085 5.87599 18.1759 6.60236C18.7239 6.85723 19.2761 7.14608 19.8411 7.47316C22.0924 8.76873 24.2078 10.4806 26.1873 12.6045C26.9392 13.4116 27.657 14.2484 28.3366 15.1149C29.4411 16.5252 30.4478 18.0119 31.3526 19.5793C31.4375 19.728 31.5267 19.8767 31.6074 20.0296C32.954 22.4211 34.0287 24.9146 34.8315 27.5142C35.6853 30.2795 36.1144 32.9556 36.1144 35.5382C36.1144 36.5917 36.0422 37.5772 35.8977 38.4947C35.6938 39.8286 35.337 41.0264 34.8315 42.0798C34.7211 42.305 34.6106 42.5258 34.4874 42.7382C33.6761 44.1824 32.6311 45.2698 31.3526 46.0005M8.98375 5.96094L17.1098 1.88737C18.5116 1.161 20.1385 0.876401 21.9905 1.02932C23.97 1.19074 26.0854 1.9256 28.3367 3.22543C30.588 4.52099 32.7034 6.23284 34.6829 8.35674C36.6624 10.4806 38.3869 12.8042 39.8482 15.3316C41.3137 17.859 42.4734 20.5012 43.3272 23.2665C44.181 26.0318 44.61 28.7079 44.61 31.2905C44.61 33.8732 44.181 36.0523 43.3272 37.8321C42.4734 39.6077 41.3137 40.916 39.8482 41.7528C39.5508 41.9228 39.2408 42.0714 38.9222 42.1989L38.8967 42.2116L31.3526 46.0005M32.1044 38.4225C31.6329 39.6713 30.9321 40.6739 30.0018 41.4342C29.7172 41.6721 29.4071 41.8845 29.0757 42.0714C26.5526 43.507 23.4772 43.1757 19.8411 41.0774C16.2092 38.9832 13.1296 35.7592 10.6064 31.4052C8.08743 27.0555 6.82584 22.7949 6.82584 18.6278C6.82584 14.4608 8.08743 11.653 10.6064 10.213C11.1373 9.91138 11.698 9.68625 12.28 9.54183C13.4481 9.24873 14.714 9.27417 16.0775 9.614M32.1044 38.4225C32.6099 37.1057 32.8606 35.517 32.8606 33.6565C32.8606 31.6643 32.5334 29.5659 31.8835 27.3528C31.2803 25.2969 30.4265 23.2877 29.3306 21.3294C29.2499 21.1808 29.1607 21.0278 29.0757 20.8792L19.8411 26.1422V11.2069C18.5115 10.4381 17.2584 9.90709 16.0775 9.614M32.1044 38.4225C30.9235 38.1294 29.6663 37.5985 28.3367 36.8297C24.7049 34.7355 21.6252 31.5114 19.102 27.1574C16.5831 22.8077 15.3215 18.5472 15.3215 14.3801C15.3215 12.5196 15.572 10.9308 16.0775 9.614M29.3264 21.3294L28.3324 21.8944L19.8368 26.1422L29.0715 20.8792C29.1565 21.0278 29.2457 21.1808 29.3264 21.3294Z" stroke="#27272A" stroke-opacity="0.25" stroke-linecap="round" stroke-linejoin="round"/>
      </svg>