<svg xmlns="http://www.w3.org/2000/svg" viewBox="0 0 48 48">
        <path d="M47.1427 25.4441V25.4519C47.1427 25.9512 46.8446 26.3731 46.2524 26.7138C45.6601 27.0583 44.9246 27.2286 44.0575 27.2248L4.13225 27.1899C3.2613 27.1861 2.53743 27.0157 1.95679 26.679C1.37614 26.3461 1.08194 25.9241 1.07807 25.4248L1.02002 14.6364C1.02002 14.1331 1.32582 13.7151 1.93743 13.3822C2.55292 13.0493 3.29227 12.8828 4.16326 12.8828C5.03035 12.8867 5.76584 13.0609 6.36584 13.4054C6.96584 13.7538 7.2639 14.1757 7.26777 14.6789V22.3822L7.2639 23.617H7.26777L44.0924 23.6828C44.9595 23.6828 45.6872 23.8531 46.2678 24.1899C46.8485 24.5228 47.1427 24.9409 47.1427 25.4441Z" fill="white"/>
<path d="M47.1427 25.4519V33.186C47.1427 33.6893 46.8485 34.1112 46.2524 34.4557C45.6601 34.8002 44.9246 34.9706 44.0575 34.9667L4.13225 34.928C3.2613 34.928 2.53743 34.7577 1.95679 34.4209C1.37614 34.088 1.08194 33.666 1.07807 33.1667L1.02002 22.3783V14.6364L1.07807 25.4248C1.07807 25.9241 1.37614 26.3461 1.95679 26.679C2.53743 27.0157 3.2613 27.186 4.13225 27.186H7.2639L44.0575 27.2248C44.9246 27.2286 45.6601 27.0583 46.2524 26.7138C46.8446 26.3731 47.1427 25.9512 47.1427 25.4519Z" fill="white"/>
<path d="M47.1427 25.4519V25.4441C47.1427 24.9409 46.8485 24.5228 46.2678 24.1899C45.6872 23.8531 44.9595 23.6828 44.0924 23.6828L7.26777 23.617H7.2639L7.26777 22.3822V14.6789C7.2639 14.1757 6.96584 13.7538 6.36584 13.4054C5.76584 13.0609 5.03035 12.8867 4.16326 12.8828C3.29227 12.8828 2.55292 13.0493 1.93743 13.3822C1.32582 13.7151 1.02002 14.1331 1.02002 14.6364M47.1427 25.4519C47.1427 25.9512 46.8446 26.3731 46.2524 26.7138C45.6601 27.0583 44.9246 27.2286 44.0575 27.2248M47.1427 25.4519V33.186C47.1427 33.6893 46.8485 34.1112 46.2524 34.4557C45.6601 34.8002 44.9246 34.9706 44.0575 34.9667L4.13225 34.928C3.2613 34.928 2.53743 34.7577 1.95679 34.4209C1.37614 34.088 1.08194 33.666 1.07807 33.1667L1.02002 22.3783V14.6364M44.0575 27.2248L7.2639 27.186H4.13225C3.2613 27.186 2.53743 27.0157 1.95679 26.679M44.0575 27.2248L4.13225 27.1899C3.2613 27.1861 2.53743 27.0157 1.95679 26.679M1.95679 26.679C1.37614 26.346 1.08194 25.9241 1.07807 25.4248M1.95679 26.679C1.37614 26.346 1.07807 25.9241 1.07807 25.4248M1.07807 25.4248L1.02002 14.6364" stroke="#27272A" stroke-opacity="0.25" stroke-linecap="round" stroke-linejoin="round"/>
      </svg>