<svg xmlns="http://www.w3.org/2000/svg" viewBox="0 0 48 48">
        <path d="M33.3664 21.6573C32.7895 20.6621 32.0981 19.9355 31.2878 19.4687L7.75906 5.88336C7.03245 5.46501 6.4027 5.36372 5.86105 5.58391L5.68054 5.67198C5.10806 6.00225 4.81738 6.63198 4.81738 7.55675V27.8092C4.81738 28.7384 5.10806 29.6984 5.68054 30.6936C6.25742 31.6845 6.94879 32.4155 7.75906 32.8823L31.2878 46.4675C32.0981 46.9343 32.7895 47.0048 33.3664 46.6745C33.9433 46.3486 34.2295 45.7189 34.2295 44.7897V24.5417C34.2295 23.6125 33.9433 22.6525 33.3664 21.6573ZM23.9381 33.785C23.9381 34.2606 23.7972 34.5821 23.5154 34.745C23.2336 34.9035 22.8813 34.8639 22.4673 34.6217L12.1715 28.6812C11.7532 28.4389 11.4053 28.0734 11.1235 27.589C10.8416 27.1046 10.7007 26.6202 10.7007 26.1446V21.0804C10.7007 20.6004 10.8416 20.2834 11.1235 20.1204C11.4053 19.9619 11.7532 20.0016 12.1715 20.2438L13.6247 21.0804L22.4673 26.1843C22.8813 26.4265 23.2336 26.7876 23.5154 27.2764C23.7972 27.7608 23.9381 28.2452 23.9381 28.7208V33.785ZM28.3506 31.6889C28.3506 32.0588 28.2449 32.301 28.0379 32.4199C27.8265 32.5344 27.5624 32.5035 27.2453 32.3186C26.9282 32.138 26.664 31.865 26.457 31.5039C26.2457 31.1472 26.1444 30.7817 26.1444 30.4162V26.6202C26.1444 26.3957 26.0695 26.1579 25.9198 25.9024C25.7745 25.647 25.6027 25.4665 25.409 25.352L16.2141 20.0456C15.897 19.8606 15.6328 19.592 15.4258 19.2309C15.2189 18.8698 15.1132 18.5087 15.1132 18.1432C15.1132 17.7777 15.2189 17.5355 15.4258 17.4166C15.6328 17.2977 15.897 17.3285 16.2141 17.5134L25.409 22.8199C26.2148 23.2867 26.9106 24.0177 27.4831 25.0129C28.06 26.0037 28.3506 26.9682 28.3506 27.8929V31.6889Z" fill="white"/>
<path d="M23.9381 28.7208V33.785C23.9381 34.2606 23.7972 34.5821 23.5154 34.745C23.2336 34.9035 22.8813 34.8639 22.4673 34.6217L12.1715 28.6812C11.7532 28.4389 11.4053 28.0734 11.1235 27.589C10.8416 27.1046 10.7007 26.6202 10.7007 26.1446V21.0804C10.7007 20.6004 10.8416 20.2834 11.1235 20.1204C11.4053 19.9619 11.7532 20.0016 12.1715 20.2438L13.6247 21.0804L22.4673 26.1843C22.8813 26.4265 23.2336 26.7876 23.5154 27.2764C23.7972 27.7608 23.9381 28.2452 23.9381 28.7208Z" fill="white"/>
<path d="M28.3506 27.8929V31.6889C28.3506 32.0588 28.2449 32.301 28.0379 32.4199C27.8265 32.5344 27.5624 32.5035 27.2453 32.3186C26.9282 32.138 26.664 31.865 26.457 31.5039C26.2457 31.1472 26.1444 30.7817 26.1444 30.4162V26.6202C26.1444 26.3957 26.0695 26.1579 25.9198 25.9024C25.7745 25.647 25.6027 25.4665 25.409 25.352L16.2141 20.0456C15.897 19.8606 15.6328 19.592 15.4258 19.2309C15.2189 18.8698 15.1132 18.5087 15.1132 18.1432C15.1132 17.7777 15.2189 17.5355 15.4258 17.4166C15.6328 17.2977 15.897 17.3285 16.2141 17.5134L25.409 22.8199C26.2148 23.2867 26.9106 24.0177 27.4831 25.0129C28.06 26.0037 28.3506 26.9682 28.3506 27.8929Z" fill="white"/>
<path d="M43.0369 20.138V40.3862C43.0369 41.3153 42.7507 41.9451 42.1738 42.2709L41.9932 42.359L33.3664 46.6745C33.9433 46.3486 34.2295 45.7189 34.2295 44.7897V24.5417C34.2295 23.6125 33.9433 22.6525 33.3664 21.6573C32.7895 20.6621 32.0981 19.9355 31.2878 19.4687L7.75906 5.88336C7.03245 5.46501 6.4027 5.36372 5.86105 5.58391L14.488 1.26834C15.0648 0.942469 15.7562 1.01292 16.5664 1.47971L40.0952 15.0651C40.9055 15.5318 41.5969 16.2584 42.1738 17.2537C42.7507 18.2489 43.0369 19.2089 43.0369 20.138Z" fill="white"/>
<path d="M5.86105 5.58391C6.4027 5.36372 7.03245 5.46501 7.75906 5.88336L31.2878 19.4687C32.0981 19.9355 32.7895 20.6621 33.3664 21.6573C33.9433 22.6525 34.2295 23.6125 34.2295 24.5417V44.7897C34.2295 45.7189 33.9433 46.3486 33.3664 46.6745M5.86105 5.58391L5.68054 5.67198C5.10806 6.00225 4.81738 6.63198 4.81738 7.55675V27.8092C4.81738 28.7384 5.10806 29.6984 5.68054 30.6936C6.25742 31.6845 6.94879 32.4155 7.75906 32.8823L31.2878 46.4675C32.0981 46.9343 32.7895 47.0048 33.3664 46.6745M5.86105 5.58391L14.488 1.26834C15.0648 0.942469 15.7562 1.01292 16.5664 1.47971L40.0952 15.0651C40.9055 15.5318 41.5969 16.2584 42.1738 17.2537C42.7507 18.2489 43.0369 19.2089 43.0369 20.138V40.3862C43.0369 41.3153 42.7507 41.9451 42.1738 42.2709L41.9932 42.359L33.3664 46.6745M23.9381 33.785C23.9381 34.2606 23.7972 34.5821 23.5154 34.745C23.2336 34.9035 22.8813 34.8639 22.4673 34.6217L12.1715 28.6812C11.7532 28.439 11.4053 28.0734 11.1235 27.589C10.8416 27.1046 10.7007 26.6202 10.7007 26.1446V21.0804C10.7007 20.6004 10.8416 20.2834 11.1235 20.1204C11.4053 19.9619 11.7532 20.0016 12.1715 20.2438L13.6247 21.0804L22.4673 26.1843C22.8813 26.4265 23.2336 26.7876 23.5154 27.2764C23.7972 27.7608 23.9381 28.2452 23.9381 28.7208V33.785ZM28.3506 31.6889C28.3506 32.0588 28.2449 32.301 28.0379 32.4199C27.8265 32.5344 27.5624 32.5035 27.2453 32.3186C26.9282 32.138 26.664 31.865 26.457 31.5039C26.2457 31.1472 26.1444 30.7817 26.1444 30.4162V26.6202C26.1444 26.3957 26.0695 26.1579 25.9198 25.9024C25.7745 25.647 25.6027 25.4665 25.409 25.352L16.2141 20.0456C15.897 19.8606 15.6328 19.592 15.4258 19.2309C15.2189 18.8698 15.1132 18.5087 15.1132 18.1432C15.1132 17.7777 15.2189 17.5355 15.4258 17.4166C15.6328 17.2977 15.897 17.3285 16.2141 17.5134L25.409 22.8199C26.2148 23.2867 26.9106 24.0177 27.4831 25.0129C28.06 26.0037 28.3506 26.9682 28.3506 27.8929V31.6889Z" stroke="#27272A" stroke-opacity="0.25" stroke-linecap="round" stroke-linejoin="round"/>
      </svg>