<svg xmlns="http://www.w3.org/2000/svg" viewBox="0 0 48 48">
        <path d="M20.7037 36.9074C20.7037 37.4886 20.5312 37.8784 20.1862 38.0734C19.845 38.2684 19.4174 38.2234 18.9112 37.9272L4.5862 29.6586C4.0762 29.3661 3.65245 28.9236 3.30745 28.3311C2.9662 27.7386 2.7937 27.1499 2.7937 26.5686C2.7937 25.9874 2.9662 25.5974 3.30745 25.4024L3.41245 25.3499C3.7387 25.2186 4.1287 25.2861 4.5862 25.5486L18.9112 33.8174C19.4174 34.1136 19.845 34.5561 20.1862 35.1449C20.5312 35.7374 20.7037 36.3261 20.7037 36.9074Z" fill="white"/>
<path d="M11.7487 21.4648C11.7487 21.5248 11.7487 21.581 11.7412 21.6335C11.7112 22.121 11.5425 22.4548 11.235 22.6311C10.9687 22.781 10.6612 22.7885 10.3012 22.6498C10.1887 22.6085 10.0762 22.5523 9.95618 22.4848L9.57743 22.2673L4.5862 19.3835C4.0762 19.091 3.65245 18.6486 3.30745 18.056C2.9662 17.4635 2.7937 16.8748 2.7937 16.2935C2.7937 15.7123 2.9662 15.3223 3.30745 15.1273L3.41245 15.0748C3.7387 14.9435 4.1287 15.0111 4.5862 15.2736L9.95618 18.3748C10.4662 18.6673 10.89 19.1098 11.235 19.7023C11.5762 20.2948 11.7487 20.8798 11.7487 21.4648Z" fill="white"/>
<path d="M29.655 27.6936C29.655 28.3498 29.5762 28.9236 29.4225 29.4148C29.1787 30.2061 28.7362 30.7873 28.0912 31.1548C27.9524 31.2336 27.8062 31.3011 27.6599 31.3536C26.6999 31.7023 25.5787 31.4998 24.2849 30.7573C22.7924 29.8948 21.5249 28.5636 20.4787 26.7598C20.4449 26.7036 20.4112 26.6436 20.3812 26.5873C19.3987 24.8473 18.9112 23.1448 18.9112 21.4911C18.9112 19.8373 19.4324 18.6223 20.4787 18.0261C21.2099 17.6098 22.05 17.5498 22.9987 17.8498C23.4075 17.9736 23.8349 18.1686 24.2849 18.4273C25.2599 18.9898 26.1374 19.7511 26.9212 20.7148C27.1762 21.4723 27.5287 22.2373 27.9787 23.0098C28.3387 23.6323 28.7287 24.1986 29.1412 24.7048C29.4825 25.7173 29.655 26.7111 29.655 27.6936Z" fill="white"/>
<path d="M37.3574 44.2609L31.7174 34.5336C32.2237 34.0049 32.6024 33.3261 32.8574 32.4936C32.9324 32.2499 32.9962 31.9949 33.0449 31.7361C33.1762 31.1174 33.2362 30.4611 33.2362 29.7599C33.2362 29.0586 33.1799 28.3124 33.0674 27.5811C32.7374 25.4286 31.9237 23.2274 30.6187 20.9811C29.4562 18.9749 28.1324 17.3174 26.6437 16.0161C25.9012 15.3636 25.1137 14.7974 24.2849 14.3174C23.8462 14.0624 23.4187 13.8486 23.0024 13.6724C21.2737 12.9374 19.7474 12.8549 18.4162 13.4286L18.4012 13.4361L17.9474 13.6649C17.5987 13.8636 17.2874 14.0999 17.0137 14.3699C16.2149 15.1424 15.7012 16.2186 15.4762 17.5911C15.3787 18.1499 15.3299 18.7611 15.3299 19.4211C15.3299 19.7999 15.3449 20.1786 15.3787 20.5611C15.4724 21.7311 15.7124 22.9161 16.1024 24.1161C16.5299 25.4586 17.1449 26.8236 17.9474 28.2036C18.2999 28.8111 18.6637 29.3849 19.0462 29.9249C20.5574 32.0774 22.3049 33.7236 24.2849 34.8674C24.6712 35.0924 25.0574 35.2836 25.4437 35.4449C25.9162 35.6474 26.3887 35.8049 26.8574 35.9136C27.7087 36.1161 28.4924 36.1311 29.2087 35.9624L34.8487 45.6934C35.1787 46.2597 35.5949 46.6872 36.1049 46.9797C36.6112 47.2722 37.0274 47.3284 37.3574 47.1409C37.6837 46.9534 37.8487 46.5672 37.8487 45.9859C37.8487 45.4047 37.6837 44.8272 37.3574 44.2609ZM29.4225 29.4148C29.1787 30.2061 28.7362 30.7873 28.0912 31.1548C27.9524 31.2336 27.8062 31.3011 27.6599 31.3536C26.6999 31.7023 25.5787 31.4998 24.2849 30.7573C22.7924 29.8948 21.5249 28.5636 20.4787 26.7598C20.4449 26.7036 20.4112 26.6436 20.3812 26.5873C19.3987 24.8473 18.9112 23.1448 18.9112 21.4911C18.9112 19.8373 19.4324 18.6223 20.4787 18.0261C21.2099 17.6098 22.05 17.5498 22.9987 17.8498C23.4075 17.9736 23.8349 18.1686 24.2849 18.4273C25.2599 18.9898 26.1374 19.7511 26.9212 20.7148C27.3374 21.2286 27.7274 21.7949 28.0912 22.4211C28.5374 23.1899 28.8862 23.9511 29.1412 24.7048C29.4825 25.7173 29.655 26.7111 29.655 27.6936C29.655 28.3498 29.5762 28.9236 29.4225 29.4148Z" fill="white"/>
<path d="M15.4762 17.5911C15.3787 18.1499 15.3299 18.7611 15.3299 19.4211C15.3299 19.7999 15.3449 20.1786 15.3787 20.5611L12.4649 22.0161L11.235 22.6311C11.5425 22.4548 11.7112 22.121 11.7412 21.6335C11.7487 21.581 11.7487 21.5248 11.7487 21.4648C11.7487 20.8798 11.5762 20.2948 11.235 19.7023C10.89 19.1098 10.4662 18.6673 9.95618 18.3748L4.5862 15.2736C4.1287 15.0111 3.7387 14.9435 3.41245 15.0748L9.5774 11.9923L9.95615 12.2098C10.0761 12.2773 10.1886 12.3335 10.3011 12.3748C10.6611 12.5135 10.9687 12.506 11.2349 12.356L12.4649 11.741L17.0137 14.3699C16.2149 15.1424 15.7012 16.2186 15.4762 17.5911Z" fill="white"/>
<path d="M11.7487 11.1898C11.7487 11.2498 11.7487 11.3061 11.7412 11.3586C11.7112 11.8461 11.5424 12.1798 11.2349 12.356C10.9687 12.506 10.6611 12.5135 10.3011 12.3748C10.1886 12.3335 10.0761 12.2773 9.95615 12.2098L9.5774 11.9923L4.5862 9.10859C4.0762 8.81609 3.65245 8.37359 3.30745 7.78109C2.9662 7.18859 2.7937 6.59984 2.7937 6.01859C2.7937 5.43734 2.9662 5.04734 3.30745 4.85234L3.41245 4.79984C3.7387 4.66859 4.1287 4.73609 4.5862 4.99859L9.95618 8.09984C10.4662 8.39234 10.89 8.83484 11.235 9.42734C11.5762 10.0198 11.7487 10.6048 11.7487 11.1898Z" fill="white"/>
<path d="M40.7362 26.0098C40.7362 27.0036 40.6125 27.9148 40.3575 28.7436C40.1025 29.5761 39.7237 30.2548 39.2174 30.7836L36.1837 32.3023H36.1799L31.7174 34.5336C32.2237 34.0049 32.6024 33.3261 32.8574 32.4936C32.9324 32.2499 32.9962 31.9949 33.0449 31.7361C33.1762 31.1174 33.2362 30.4611 33.2362 29.7599C33.2362 29.0586 33.1799 28.3124 33.0674 27.5811C32.7374 25.4286 31.9237 23.2274 30.6187 20.9811C29.4562 18.9749 28.1324 17.3174 26.6437 16.0161C25.9012 15.3636 25.1137 14.7974 24.2849 14.3174C23.8462 14.0624 23.4187 13.8486 23.0024 13.6724C21.2737 12.9374 19.7474 12.8549 18.4162 13.4286L19.2899 12.9936L25.6499 9.80609C27.3562 8.93609 29.3999 9.19109 31.7849 10.5673C34.2599 11.9961 36.3712 14.2161 38.1187 17.2311C39.8662 20.2423 40.7362 23.1673 40.7362 26.0098Z" fill="white"/>
<path d="M45.3487 42.2359C45.3487 42.8172 45.1837 43.2034 44.8575 43.3909L37.3574 47.1409C37.6837 46.9534 37.8487 46.5672 37.8487 45.9859C37.8487 45.4047 37.6837 44.8272 37.3574 44.2609L31.7174 34.5336L36.1799 32.3023H36.1837L39.2174 30.7836L44.8575 40.5109C45.1837 41.0772 45.3487 41.6547 45.3487 42.2359Z" fill="white"/>
<path d="M20.7037 36.9074C20.7037 36.3261 20.5312 35.7374 20.1862 35.1449C19.845 34.5561 19.4174 34.1136 18.9112 33.8174L4.5862 25.5486C4.1287 25.2861 3.7387 25.2186 3.41245 25.3499L9.57743 22.2673L9.95618 22.4848C10.0762 22.5523 10.1887 22.6085 10.3012 22.6498C10.6612 22.7885 10.9687 22.781 11.235 22.6311L12.4649 22.0161L16.1024 24.1161C16.5299 25.4586 17.1449 26.8236 17.9474 28.2036C18.2999 28.8111 18.6637 29.3849 19.0462 29.9249C20.5574 32.0774 22.3049 33.7236 24.2849 34.8674C24.6712 35.0924 25.0574 35.2836 25.4437 35.4449L20.1862 38.0734C20.5312 37.8784 20.7037 37.4886 20.7037 36.9074Z" fill="white"/>
<path d="M19.2487 7.43984C19.2487 8.02109 19.0762 8.41109 18.7349 8.60609L12.4649 11.741L11.2349 12.356C11.5424 12.1798 11.7112 11.8461 11.7412 11.3586C11.7487 11.3061 11.7487 11.2498 11.7487 11.1898C11.7487 10.6048 11.5762 10.0198 11.235 9.42734C10.89 8.83484 10.4662 8.39234 9.95618 8.09984L4.5862 4.99859C4.1287 4.73609 3.7387 4.66859 3.41245 4.79984L10.8074 1.10235C11.1524 0.907352 11.5761 0.956102 12.0861 1.2486L17.4561 4.34984C17.9661 4.64234 18.3899 5.08484 18.7349 5.67734C19.0762 6.26984 19.2487 6.85484 19.2487 7.43984Z" fill="white"/>
<path d="M18.4162 13.4286L18.4012 13.4361L17.9474 13.6649C17.5987 13.8636 17.2874 14.0999 17.0137 14.3699" fill="white"/>
<path d="M20.1862 38.0734C20.5312 37.8784 20.7037 37.4886 20.7037 36.9074C20.7037 36.3261 20.5312 35.7374 20.1862 35.1449C19.845 34.5561 19.4174 34.1136 18.9112 33.8174L4.5862 25.5486C4.1287 25.2861 3.7387 25.2186 3.41245 25.3499M20.1862 38.0734C19.845 38.2684 19.4174 38.2234 18.9112 37.9272L4.5862 29.6586C4.0762 29.3661 3.65245 28.9236 3.30745 28.3311C2.9662 27.7386 2.7937 27.1499 2.7937 26.5686C2.7937 25.9874 2.9662 25.5974 3.30745 25.4024L3.41245 25.3499M20.1862 38.0734L25.4437 35.4449M3.41245 25.3499L9.57743 22.2673M11.235 22.6311C11.5425 22.4548 11.7112 22.121 11.7412 21.6335C11.7487 21.581 11.7487 21.5248 11.7487 21.4648C11.7487 20.8798 11.5762 20.2948 11.235 19.7023C10.89 19.1098 10.4662 18.6673 9.95618 18.3748L4.5862 15.2736C4.1287 15.0111 3.7387 14.9435 3.41245 15.0748M11.235 22.6311C10.9687 22.7811 10.6612 22.7885 10.3012 22.6498C10.1887 22.6085 10.0762 22.5523 9.95618 22.4848L9.57743 22.2673M11.235 22.6311L12.4649 22.0161M9.57743 22.2673L4.5862 19.3835C4.0762 19.091 3.65245 18.6485 3.30745 18.056C2.9662 17.4635 2.7937 16.8748 2.7937 16.2935C2.7937 15.7123 2.9662 15.3223 3.30745 15.1273L3.41245 15.0748M3.41245 15.0748L9.5774 11.9923M26.9212 20.7148C26.1374 19.7511 25.2599 18.9898 24.2849 18.4273C23.8349 18.1686 23.4075 17.9736 22.9987 17.8498C22.05 17.5498 21.2099 17.6098 20.4787 18.0261C19.4324 18.6223 18.9112 19.8373 18.9112 21.4911C18.9112 23.1448 19.3987 24.8473 20.3812 26.5873C20.4112 26.6436 20.4449 26.7036 20.4787 26.7598C21.5249 28.5636 22.7924 29.8948 24.2849 30.7573C25.5787 31.4998 26.6999 31.7023 27.6599 31.3536C27.8062 31.3011 27.9524 31.2336 28.0912 31.1548C28.7362 30.7873 29.1787 30.2061 29.4225 29.4148C29.5762 28.9236 29.655 28.3498 29.655 27.6936C29.655 26.7111 29.4825 25.7173 29.1412 24.7048M26.9212 20.7148C27.1762 21.4723 27.5287 22.2373 27.9787 23.0098C28.3387 23.6323 28.7287 24.1986 29.1412 24.7048M26.9212 20.7148C27.3374 21.2286 27.7274 21.7949 28.0912 22.4211C28.5374 23.1899 28.8862 23.9511 29.1412 24.7048M31.7174 34.5336L37.3574 44.2609C37.6837 44.8272 37.8487 45.4047 37.8487 45.9859C37.8487 46.5672 37.6837 46.9534 37.3574 47.1409M31.7174 34.5336C32.2237 34.0049 32.6024 33.3261 32.8574 32.4936C32.9324 32.2499 32.9962 31.9949 33.0449 31.7361C33.1762 31.1174 33.2362 30.4611 33.2362 29.7599C33.2362 29.0586 33.1799 28.3124 33.0674 27.5811C32.7374 25.4286 31.9237 23.2274 30.6187 20.9811C29.4562 18.9749 28.1324 17.3174 26.6437 16.0161C25.9012 15.3636 25.1137 14.7974 24.2849 14.3174C23.8462 14.0624 23.4187 13.8486 23.0024 13.6724C21.2737 12.9374 19.7474 12.8549 18.4162 13.4286M31.7174 34.5336L36.1799 32.3023H36.1837L39.2174 30.7836M18.4162 13.4286L18.4012 13.4361L17.9474 13.6649C17.5987 13.8636 17.2874 14.0999 17.0137 14.3699M18.4162 13.4286L19.2899 12.9936L25.6499 9.80609C27.3562 8.93609 29.3999 9.19109 31.7849 10.5673C34.2599 11.9961 36.3712 14.2161 38.1187 17.2311C39.8662 20.2423 40.7362 23.1673 40.7362 26.0098C40.7362 27.0036 40.6125 27.9148 40.3575 28.7436C40.1025 29.5761 39.7237 30.2548 39.2174 30.7836M17.0137 14.3699C16.2149 15.1424 15.7012 16.2186 15.4762 17.5911C15.3787 18.1499 15.3299 18.7611 15.3299 19.4211C15.3299 19.7999 15.3449 20.1786 15.3787 20.5611M17.0137 14.3699L12.4649 11.741M15.3787 20.5611C15.4724 21.7311 15.7124 22.9161 16.1024 24.1161M15.3787 20.5611L12.4649 22.0161M16.1024 24.1161C16.5299 25.4586 17.1449 26.8236 17.9474 28.2036C18.2999 28.8111 18.6637 29.3849 19.0462 29.9249C20.5574 32.0774 22.3049 33.7236 24.2849 34.8674C24.6712 35.0924 25.0574 35.2836 25.4437 35.4449M16.1024 24.1161L12.4649 22.0161M25.4437 35.4449C25.9162 35.6474 26.3887 35.8049 26.8574 35.9136C27.7087 36.1161 28.4924 36.1311 29.2087 35.9624L34.8487 45.6934C35.1787 46.2597 35.5949 46.6872 36.1049 46.9797C36.6112 47.2722 37.0274 47.3284 37.3574 47.1409M37.3574 47.1409L44.8575 43.3909C45.1837 43.2034 45.3487 42.8172 45.3487 42.2359C45.3487 41.6547 45.1837 41.0772 44.8575 40.5109L39.2174 30.7836M9.5774 11.9923L9.95615 12.2098C10.0761 12.2773 10.1886 12.3335 10.3011 12.3748C10.6611 12.5135 10.9687 12.506 11.2349 12.356M9.5774 11.9923L4.5862 9.10859C4.0762 8.81609 3.65245 8.37359 3.30745 7.78109C2.9662 7.18859 2.7937 6.59984 2.7937 6.01859C2.7937 5.43734 2.9662 5.04734 3.30745 4.85234L3.41245 4.79984M11.2349 12.356L12.4649 11.741M11.2349 12.356C11.5424 12.1798 11.7112 11.8461 11.7412 11.3586C11.7487 11.3061 11.7487 11.2498 11.7487 11.1898C11.7487 10.6048 11.5762 10.0198 11.235 9.42734C10.89 8.83484 10.4662 8.39234 9.95618 8.09984L4.5862 4.99859C4.1287 4.73609 3.7387 4.66859 3.41245 4.79984M12.4649 11.741L18.7349 8.60609C19.0762 8.41109 19.2487 8.02109 19.2487 7.43984C19.2487 6.85484 19.0762 6.26984 18.7349 5.67734C18.3899 5.08484 17.9661 4.64234 17.4561 4.34984L12.0861 1.2486C11.5761 0.956102 11.1524 0.907352 10.8074 1.10235L3.41245 4.79984" stroke="#27272A" stroke-opacity="0.25" stroke-linecap="round" stroke-linejoin="round"/>
      </svg>