<svg xmlns="http://www.w3.org/2000/svg" viewBox="0 0 48 48">
        <path d="M46.9875 18.9297V26.9888C46.9916 27.606 46.6164 28.1303 45.8702 28.5619L37.7102 33.2692C37.327 33.491 36.8712 33.6039 36.3509 33.6039C35.8265 33.5999 35.3707 33.491 34.9835 33.2651L34.5479 33.015V29.9132C34.5438 29.5582 34.4753 29.2194 34.3462 28.8967C34.0316 28.0981 33.3337 27.3881 32.2648 26.767L30.8974 25.9764C30.5102 25.7545 30.0544 25.6416 29.53 25.6416C29.3284 25.6416 29.1347 25.6577 28.9532 25.69C28.6668 25.7424 28.4047 25.8352 28.1667 25.9723C27.8077 26.1781 27.6141 26.4241 27.5979 26.7065C27.5939 26.7226 27.5939 26.7387 27.5939 26.7589V28.9976L27.3438 28.8523C27.2591 28.6587 27.0857 28.4893 26.8154 28.332L26.0087 27.8681V23.6087C26.0047 23.3061 25.811 23.0439 25.4238 22.8181L24.0564 22.0275C23.1166 21.487 22.0517 21.1118 20.8658 20.9061V18.615C21.9589 18.7481 23.0037 18.97 24.004 19.2725C25.0084 19.575 25.9321 19.9703 26.7751 20.4584L34.9835 25.1979C35.3707 25.4238 35.8265 25.5327 36.3509 25.5367C36.8712 25.5367 37.327 25.4238 37.7102 25.2019L45.8702 20.4947C46.6124 20.0671 46.9875 19.5428 46.9875 18.9297Z" fill="white"/>
<path d="M30.6797 29.9132C30.6797 30.1794 30.6111 30.4254 30.474 30.6594C30.2925 30.9659 29.9859 31.2402 29.5624 31.4863C29.0017 31.813 28.3402 32.0147 27.594 32.0953L27.5939 26.7589C27.5939 27.0614 27.7876 27.3236 28.1789 27.5495L29.5463 28.336C29.9093 28.5458 30.1876 28.7797 30.3731 29.0339C30.5748 29.3041 30.6757 29.5986 30.6797 29.9132Z" fill="white"/>
<path d="M34.5479 29.9132L34.5479 29.9615C34.5479 30.8409 34.1486 31.6274 33.354 32.3252C33.0555 32.5874 32.7046 32.8335 32.2972 33.0674C31.7365 33.3901 31.1315 33.6563 30.478 33.858C29.6552 34.1121 28.7597 34.2694 27.7957 34.33C27.7271 34.334 27.6626 34.338 27.594 34.3421C27.5294 34.3421 27.4649 34.3421 27.4004 34.3501C27.2189 34.3542 27.0373 34.3582 26.8518 34.3582C24.714 34.3542 22.8908 33.9185 21.3863 33.0473L20.0189 32.2567C19.6316 32.0348 19.438 31.7726 19.434 31.4701C19.434 31.3289 19.4743 31.1999 19.559 31.0789C19.6518 30.9336 19.801 30.8046 20.0108 30.6836C20.394 30.4617 20.8498 30.3488 21.3742 30.3528C21.8945 30.3528 22.3503 30.4658 22.7375 30.6876L24.1049 31.4782C24.6252 31.7767 25.2182 31.9743 25.8837 32.0631C26.1863 32.1115 26.5049 32.1316 26.8397 32.1316C27.0333 32.1316 27.2189 32.1276 27.4004 32.1074C27.4649 32.1074 27.5294 32.1034 27.594 32.0953C28.3402 32.0147 29.0017 31.813 29.5624 31.4863C29.9859 31.2402 30.2925 30.9659 30.474 30.6594C30.6111 30.4254 30.6797 30.1794 30.6797 29.9132C30.6757 29.5986 30.5748 29.3041 30.3731 29.0339C30.1876 28.7797 29.9093 28.5458 29.5463 28.336L28.1789 27.5495C27.7876 27.3236 27.5939 27.0614 27.5939 26.7589C27.5939 26.7387 27.5939 26.7226 27.5979 26.7065C27.6141 26.4241 27.8077 26.1781 28.1667 25.9723C28.4047 25.8352 28.6668 25.7424 28.9532 25.69C29.1347 25.6577 29.3284 25.6416 29.53 25.6416C30.0544 25.6416 30.5102 25.7545 30.8974 25.9764L32.2648 26.767C33.3337 27.3881 34.0316 28.0981 34.3462 28.8967C34.4753 29.2194 34.5438 29.5582 34.5479 29.9132Z" fill="white"/>
<path d="M26.0087 23.6087C26.0087 23.9071 25.8152 24.1694 25.4321 24.3953C25.0448 24.6172 24.5931 24.7261 24.0687 24.7261C23.5443 24.7261 23.0926 24.6131 22.7053 24.3873L21.3339 23.5967C21.1847 23.512 21.0273 23.4313 20.866 23.3668C20.6361 23.2659 20.3941 23.1852 20.1399 23.1247C19.6721 23.0037 19.1598 22.9473 18.6031 22.9432C17.5342 22.9432 16.6267 23.157 15.8805 23.5886C15.4932 23.8105 15.2028 24.0646 15.0173 24.3389C14.8478 24.593 14.7631 24.8673 14.7631 25.1617C14.7672 25.7789 15.1463 26.3032 15.8966 26.7389L17.264 27.5294C17.6512 27.7513 17.8489 28.0135 17.8489 28.316V28.3241C17.8489 28.5015 17.7803 28.6669 17.6431 28.8162C17.5504 28.917 17.4294 29.0138 17.272 29.1026C16.8889 29.3244 16.4331 29.4373 15.9127 29.4373C15.5658 29.4333 15.2512 29.3849 14.9648 29.2841C14.8156 29.2357 14.6784 29.1752 14.5453 29.0985L13.1779 28.3079C12.6495 28.0054 12.2139 27.6787 11.871 27.3278C11.629 27.0817 11.4354 26.8276 11.2862 26.5614C11.0401 26.1217 10.9151 25.6538 10.911 25.1536C10.907 24.3429 11.2257 23.6168 11.871 22.9674C12.2018 22.6246 12.6294 22.3059 13.1457 22.0074C14.6381 21.1442 16.4573 20.7167 18.591 20.7207C19.3816 20.7207 20.1278 20.7812 20.8297 20.9022C20.8418 20.9063 20.8537 20.9061 20.8658 20.9061C22.0517 21.1118 23.1166 21.487 24.0564 22.0275L25.4238 22.8181C25.811 23.0439 26.0047 23.3061 26.0087 23.6087Z" fill="white"/>
<path d="M45.8541 17.3445L26.6986 6.28436C25.9443 5.84873 25.0326 5.63092 23.9678 5.63092C22.8989 5.62688 21.9913 5.84066 21.241 6.27226L2.20643 17.2639C1.46022 17.6955 1.08511 18.2198 1.08914 18.837C1.09318 19.4541 1.47233 19.9785 2.22258 20.4141L5.6431 22.3906C5.98596 22.5882 6.40142 22.6689 6.87739 22.6366C6.93789 22.6286 6.99839 22.6245 7.0589 22.6165C7.61554 22.5479 8.04306 22.3623 8.33751 22.0598C8.55936 21.8218 8.80949 21.5879 9.08781 21.358C9.14831 21.3055 9.20878 21.2531 9.26928 21.2047C9.6202 20.9223 9.9994 20.6642 10.4068 20.4302C10.6569 20.285 10.8949 20.156 11.1207 20.0349C11.3466 19.918 11.5967 19.8091 11.871 19.7042L11.7661 19.6437C11.3789 19.4218 11.1852 19.1556 11.1812 18.8571C11.1812 18.5546 11.3749 18.2924 11.7581 18.0706L14.4767 16.4975C14.8639 16.2756 15.3157 16.1667 15.8401 16.1667C16.3644 16.1667 16.8162 16.2797 17.2074 16.5055L17.3486 16.5862L20.8658 18.615C21.9589 18.7481 23.0037 18.97 24.004 19.2725C25.0084 19.575 25.9321 19.9703 26.7751 20.4584L34.9835 25.1979C35.3707 25.4238 35.8265 25.5327 36.3509 25.5367C36.8712 25.5367 37.327 25.4238 37.7102 25.2019L45.8702 20.4947C46.6124 20.0671 46.9875 19.5428 46.9875 18.9297V18.9217C46.9835 18.3045 46.6043 17.7761 45.8541 17.3445ZM25.3876 16.5176C25.0044 16.7395 24.5486 16.8524 24.0283 16.8524C23.5039 16.8524 23.0481 16.7395 22.6609 16.5136L20.0713 15.0171L19.9261 14.9324C19.5389 14.7106 19.3413 14.4484 19.3413 14.1459C19.3413 13.8434 19.5308 13.5812 19.9181 13.3593L22.6367 11.7902C23.0199 11.5684 23.4757 11.4555 23.996 11.4555C24.5204 11.4595 24.9762 11.5684 25.3634 11.7943L28.0982 13.3755C28.4894 13.5973 28.6831 13.8595 28.6831 14.162C28.6871 14.4645 28.4935 14.7267 28.1103 14.9486L27.9207 15.0575L25.3876 16.5176ZM36.3187 19.6881L36.1292 19.797L33.6 21.2571C33.2128 21.479 32.761 21.5919 32.2367 21.5919C31.7123 21.5919 31.2565 21.479 30.8693 21.2531L28.1345 19.6719C27.7473 19.4501 27.5536 19.1879 27.5496 18.8854C27.5496 18.5828 27.7392 18.3207 28.1264 18.0988L30.6596 16.6386L30.8451 16.5297C31.2283 16.3079 31.6841 16.1949 32.2084 16.1949C32.7288 16.199 33.1846 16.3079 33.5718 16.5338L36.3107 18.1149C36.6979 18.3368 36.8915 18.599 36.8915 18.9015C36.8955 19.204 36.7019 19.4662 36.3187 19.6881Z" fill="white"/>
<path d="M28.6831 14.162C28.6871 14.4645 28.4935 14.7267 28.1103 14.9486L27.9207 15.0575L25.3876 16.5176C25.0044 16.7395 24.5486 16.8524 24.0283 16.8524C23.5039 16.8524 23.0481 16.7395 22.6609 16.5136L20.0713 15.0171L19.9261 14.9324C19.5389 14.7106 19.3413 14.4484 19.3413 14.1459C19.3413 13.8434 19.5308 13.5812 19.9181 13.3593L22.6367 11.7902C23.0199 11.5684 23.4757 11.4555 23.996 11.4555C24.5204 11.4595 24.9762 11.5684 25.3634 11.7943L28.0982 13.3755C28.4894 13.5973 28.6831 13.8595 28.6831 14.162Z" fill="white"/>
<path d="M36.8915 18.9015C36.8955 19.204 36.7019 19.4662 36.3187 19.6881L36.1292 19.797L33.6 21.2571C33.2128 21.479 32.761 21.5919 32.2367 21.5919C31.7123 21.5919 31.2565 21.479 30.8693 21.2531L28.1345 19.6719C27.7473 19.4501 27.5536 19.1879 27.5496 18.8854C27.5496 18.5828 27.7392 18.3207 28.1264 18.0988L30.6596 16.6386L30.8451 16.5297C31.2283 16.3079 31.6841 16.1949 32.2084 16.1949C32.7288 16.199 33.1846 16.3079 33.5718 16.5338L36.3107 18.1149C36.6979 18.3368 36.8915 18.599 36.8915 18.9015Z" fill="white"/>
<path d="M11.871 22.9674C11.2257 23.6168 10.907 24.3429 10.911 25.1536L10.919 28.2152C10.7536 28.2999 10.5842 28.3926 10.4068 28.4975C9.99936 28.7315 9.6202 28.9896 9.26928 29.272C8.91835 29.5543 8.60777 29.8367 8.33752 30.1271C8.04306 30.4296 7.6155 30.6152 7.05886 30.6837C6.50222 30.7563 6.03029 30.6797 5.64306 30.4578L2.22255 28.4814C1.4723 28.0457 1.09314 27.5214 1.08911 26.9042L1.08914 18.837C1.09318 19.4541 1.47233 19.9785 2.22258 20.4141L5.6431 22.3906C5.98596 22.5882 6.40142 22.6689 6.87739 22.6366C6.93789 22.6286 6.99839 22.6245 7.0589 22.6165C7.61554 22.5479 8.04306 22.3623 8.33751 22.0598C8.55936 21.8218 8.80949 21.5879 9.08781 21.358C9.14831 21.3055 9.20878 21.2531 9.26928 21.2047C9.6202 20.9223 9.9994 20.6642 10.4068 20.4302C10.6569 20.285 10.8949 20.156 11.1207 20.0349C11.3466 19.918 11.5967 19.8091 11.871 19.7042L11.871 22.9674Z" fill="white"/>
<path d="M20.8658 18.615L20.8659 20.878L20.8297 20.9022C20.1278 20.7812 19.3816 20.7207 18.591 20.7207C16.4573 20.7167 14.6381 21.1442 13.1457 22.0074C12.6294 22.3059 12.2018 22.6246 11.871 22.9674L11.871 19.7042L11.7661 19.6437C11.3789 19.4218 11.1852 19.1556 11.1812 18.8571C11.1812 18.5546 11.3749 18.2924 11.7581 18.0706L14.4767 16.4975C14.8639 16.2756 15.3157 16.1667 15.8401 16.1667C16.3644 16.1667 16.8162 16.2797 17.2074 16.5055L17.3486 16.5862L20.8658 18.615Z" fill="white"/>
<path d="M26.0087 23.6087V27.8681L21.3459 25.1737C21.1966 25.085 21.0353 25.0164 20.8659 24.9639C20.5956 24.8792 20.3012 24.8389 19.9785 24.8349C19.4542 24.8349 19.0023 24.9478 18.6151 25.1697C18.5506 25.206 18.4941 25.2423 18.4417 25.2866C18.1714 25.4802 18.0383 25.7021 18.0423 25.9562V31.0345C17.9778 31.0345 17.9133 31.0426 17.8487 31.0507L17.8489 28.316C17.8489 28.0135 17.6512 27.7513 17.264 27.5294L15.8966 26.7389C15.1463 26.3032 14.7672 25.7789 14.7631 25.1617C14.7631 24.8673 14.8478 24.593 15.0173 24.3389C15.2028 24.0646 15.4932 23.8105 15.8805 23.5886C16.6267 23.157 17.5342 22.9432 18.6031 22.9432C19.1598 22.9473 19.6721 23.0037 20.1399 23.1247C20.3941 23.1852 20.6361 23.2659 20.866 23.3668C21.0273 23.4313 21.1847 23.512 21.3339 23.5967L22.7053 24.3873C23.0926 24.6131 23.5484 24.7261 24.0687 24.7261C24.589 24.7261 25.0448 24.6172 25.4321 24.3953C25.8152 24.1694 26.0087 23.9071 26.0087 23.6087Z" fill="white"/>
<path d="M27.4004 29.1228V29.1308C27.4004 29.4293 27.2068 29.6915 26.8276 29.9093C26.5815 30.0505 26.3113 30.1433 26.0088 30.1957C25.8353 30.2239 25.6538 30.2401 25.4642 30.2401C24.9399 30.2401 24.4841 30.1271 24.0968 29.9012L18.6232 26.7429C18.236 26.5211 18.0423 26.2547 18.0423 25.9562C18.0383 25.7021 18.1714 25.4802 18.4417 25.2866C18.4941 25.2423 18.5506 25.206 18.6151 25.1697C19.0023 24.9478 19.4542 24.8349 19.9785 24.8349C20.3012 24.8389 20.5956 24.8792 20.8659 24.9639C21.0353 25.0164 21.1966 25.085 21.3459 25.1737L26.0087 27.8681L26.8154 28.332C27.0857 28.4893 27.2591 28.6587 27.3438 28.8523C27.3801 28.9371 27.4004 29.03 27.4004 29.1228Z" fill="white"/>
<path d="M17.8489 28.3241L17.8488 36.3831C17.8488 36.6856 17.6592 36.9478 17.272 37.1697C16.8888 37.3915 16.433 37.5044 15.9127 37.5044C15.3883 37.5004 14.9325 37.3875 14.5453 37.1656L13.1779 36.375C11.6734 35.5078 10.915 34.455 10.911 33.2208C10.911 33.1118 10.915 33.007 10.9271 32.9021L10.919 28.2152L10.911 25.1536C10.9151 25.6538 11.0401 26.1217 11.2862 26.5614C11.4354 26.8276 11.629 27.0817 11.871 27.3278C12.2139 27.6787 12.6495 28.0054 13.1779 28.3079L14.5453 29.0985C14.6784 29.1752 14.8156 29.2357 14.9648 29.2841C15.2512 29.3849 15.5658 29.4333 15.9127 29.4373C16.4331 29.4373 16.8889 29.3244 17.272 29.1026C17.4294 29.0138 17.5504 28.917 17.6431 28.8162C17.7803 28.6669 17.8489 28.5015 17.8489 28.3241Z" fill="white"/>
<path d="M34.5479 29.9615V37.9806C34.5681 39.2068 33.8179 40.2596 32.2972 41.1349C30.8047 41.9981 28.9856 42.4296 26.8518 42.4256C24.714 42.4216 22.8908 41.986 21.3863 41.1147L20.0189 40.3241C19.6316 40.1023 19.438 39.8401 19.434 39.5376V31.4701C19.434 31.7726 19.6316 32.0348 20.0189 32.2567L21.3863 33.0473C22.8908 33.9185 24.714 34.3542 26.8518 34.3582C27.0373 34.3582 27.2189 34.3542 27.4004 34.3501C27.4649 34.3461 27.5294 34.3461 27.594 34.3421C27.6626 34.338 27.7271 34.334 27.7957 34.33C28.7597 34.2694 29.6552 34.1121 30.478 33.858C31.1315 33.6563 31.7365 33.3901 32.2972 33.0674C32.7046 32.8335 33.0555 32.5874 33.354 32.3252C34.1486 31.6274 34.5479 30.8409 34.5479 29.9615Z" fill="white"/>
<path d="M27.4004 29.1308V32.1074C27.2189 32.1276 27.0333 32.1316 26.8397 32.1316C26.5049 32.1316 26.1863 32.1115 25.8837 32.0631C25.2182 31.9743 24.6252 31.7767 24.1049 31.4782L22.7375 30.6876C22.3503 30.4658 21.8945 30.3528 21.3742 30.3528C20.8498 30.3488 20.394 30.4617 20.0108 30.6836C19.801 30.8046 19.6518 30.9336 19.559 31.0789C19.4743 31.1999 19.434 31.3289 19.434 31.4701L19.4341 35.278L18.6234 34.8101C18.2361 34.5882 18.0425 34.322 18.0425 34.0235L18.0423 25.9562C18.0423 26.2547 18.236 26.5211 18.6232 26.7429L24.0968 29.9012C24.4841 30.1271 24.9399 30.2401 25.4642 30.2401C25.6538 30.2401 25.8353 30.2239 26.0088 30.1957C26.3113 30.1433 26.5815 30.0505 26.8276 29.9093C27.2068 29.6915 27.4004 29.4293 27.4004 29.1308Z" fill="white"/>
<path d="M46.9875 18.9297V26.9888C46.9916 27.606 46.6164 28.1303 45.8702 28.5619L37.7102 33.2692C37.327 33.491 36.8712 33.6039 36.3509 33.6039C35.8265 33.5999 35.3707 33.491 34.9835 33.2651L34.5479 33.015V29.9132M46.9875 18.9297C46.9875 19.5428 46.6124 20.0671 45.8702 20.4947L37.7102 25.2019C37.327 25.4238 36.8712 25.5367 36.3509 25.5367C35.8265 25.5327 35.3707 25.4238 34.9835 25.1979L26.7751 20.4584C25.9321 19.9703 25.0084 19.575 24.004 19.2725C23.0037 18.97 21.9589 18.7481 20.8658 18.615M46.9875 18.9297V18.9217C46.9835 18.3045 46.6043 17.7761 45.8541 17.3445L26.6986 6.28436C25.9443 5.84873 25.0326 5.63092 23.9678 5.63092C22.8989 5.62688 21.9913 5.84066 21.241 6.27226L2.20643 17.2639C1.46022 17.6955 1.08511 18.2198 1.08914 18.837M34.5479 29.9132C34.5438 29.5582 34.4753 29.2194 34.3462 28.8967C34.0316 28.0981 33.3337 27.3881 32.2648 26.767L30.8974 25.9764C30.5102 25.7545 30.0544 25.6416 29.53 25.6416C29.3284 25.6416 29.1347 25.6577 28.9532 25.69C28.6668 25.7424 28.4047 25.8352 28.1667 25.9723C27.8077 26.1781 27.6141 26.4241 27.5979 26.7065C27.5939 26.7226 27.5939 26.7387 27.5939 26.7589M34.5479 29.9132L34.5479 29.9615M27.5939 26.7589V28.9976L27.3438 28.8523M27.5939 26.7589L27.594 32.0953M27.5939 26.7589C27.5939 27.0614 27.7876 27.3236 28.1789 27.5495L29.5463 28.336C29.9093 28.5458 30.1876 28.7797 30.3731 29.0339C30.5748 29.3041 30.6757 29.5986 30.6797 29.9132C30.6797 30.1794 30.6111 30.4254 30.474 30.6594C30.2925 30.9659 29.9859 31.2402 29.5624 31.4863C29.0017 31.813 28.3402 32.0147 27.594 32.0953M27.3438 28.8523C27.2591 28.6587 27.0857 28.4893 26.8154 28.332L26.0087 27.8681M27.3438 28.8523C27.3801 28.9371 27.4004 29.03 27.4004 29.1228V29.1308M26.0087 27.8681V23.6087M26.0087 27.8681L21.3459 25.1737C21.1966 25.085 21.0353 25.0164 20.8659 24.9639C20.5956 24.8792 20.3012 24.8389 19.9785 24.8349C19.4542 24.8349 19.0023 24.9478 18.6151 25.1697C18.5506 25.206 18.4941 25.2423 18.4417 25.2866C18.1714 25.4802 18.0383 25.7021 18.0423 25.9562M26.0087 23.6087C26.0047 23.3061 25.811 23.0439 25.4238 22.8181L24.0564 22.0275C23.1166 21.487 22.0517 21.1118 20.8658 20.9061M26.0087 23.6087C26.0087 23.9071 25.8152 24.1694 25.4321 24.3953M20.8658 20.9061V18.615M20.8658 20.9061C20.8537 20.9061 20.8418 20.9063 20.8297 20.9022M20.8658 18.615L17.3486 16.5862L17.2074 16.5055C16.8162 16.2797 16.3644 16.1667 15.8401 16.1667C15.3157 16.1667 14.8639 16.2756 14.4767 16.4975L11.7581 18.0706C11.3749 18.2924 11.1812 18.5546 11.1812 18.8571C11.1852 19.1556 11.3789 19.4218 11.7661 19.6437L11.871 19.7042M20.8658 18.615L20.8659 20.878L20.8297 20.9022M27.594 32.0953C27.5294 32.1034 27.4649 32.1074 27.4004 32.1074M34.5479 29.9615C34.5479 30.8409 34.1486 31.6274 33.354 32.3252C33.0555 32.5874 32.7046 32.8335 32.2972 33.0674C31.7365 33.3901 31.1315 33.6563 30.478 33.858C29.6552 34.1121 28.7597 34.2694 27.7957 34.33C27.7271 34.334 27.6626 34.338 27.594 34.3421M34.5479 29.9615V37.9806C34.5681 39.2068 33.8179 40.2596 32.2972 41.1349C30.8047 41.9981 28.9856 42.4297 26.8518 42.4256C24.714 42.4216 22.8908 41.986 21.3863 41.1147L20.0189 40.3241C19.6316 40.1023 19.438 39.8401 19.434 39.5376V31.4701M27.594 34.3421C27.5294 34.3421 27.4649 34.3421 27.4004 34.3501M27.594 34.3421C27.5294 34.3461 27.4649 34.3461 27.4004 34.3501M27.4004 34.3501C27.2189 34.3542 27.0373 34.3582 26.8518 34.3582C24.714 34.3542 22.8908 33.9185 21.3863 33.0473L20.0189 32.2567M20.0189 32.2567C19.6316 32.0348 19.438 31.7726 19.434 31.4701M20.0189 32.2567C19.6316 32.0348 19.434 31.7726 19.434 31.4701M19.434 31.4701C19.434 31.3289 19.4743 31.1999 19.559 31.0789C19.6518 30.9336 19.801 30.8046 20.0108 30.6836C20.394 30.4617 20.8498 30.3488 21.3742 30.3528C21.8945 30.3528 22.3503 30.4658 22.7375 30.6876L24.1049 31.4782C24.6252 31.7767 25.2182 31.9743 25.8837 32.0631C26.1863 32.1115 26.5049 32.1316 26.8397 32.1316C27.0333 32.1316 27.2189 32.1276 27.4004 32.1074M19.434 31.4701L19.4341 35.278L18.6234 34.8101C18.2361 34.5882 18.0425 34.322 18.0425 34.0235L18.0423 25.9562M27.4004 32.1074V29.1308M25.4321 24.3953C25.0448 24.6172 24.5931 24.7261 24.0687 24.7261M25.4321 24.3953C25.0448 24.6172 24.589 24.7261 24.0687 24.7261M24.0687 24.7261C23.5443 24.7261 23.0926 24.6131 22.7053 24.3873M24.0687 24.7261C23.5484 24.7261 23.0926 24.6131 22.7053 24.3873M22.7053 24.3873L21.3339 23.5967C21.1847 23.512 21.0273 23.4313 20.866 23.3668C20.6361 23.2659 20.3941 23.1852 20.1399 23.1247C19.6721 23.0037 19.1598 22.9473 18.6031 22.9432C17.5342 22.9432 16.6267 23.157 15.8805 23.5886C15.4932 23.8105 15.2028 24.0646 15.0173 24.3389C14.8478 24.593 14.7631 24.8673 14.7631 25.1617C14.7672 25.7789 15.1463 26.3032 15.8966 26.7389L17.264 27.5294C17.6512 27.7513 17.8489 28.0135 17.8489 28.316M17.8489 28.316V28.3241M17.8489 28.316L17.8487 31.0507C17.9133 31.0426 17.9778 31.0345 18.0423 31.0345V25.9562M17.8489 28.3241C17.8489 28.5015 17.7803 28.6669 17.6431 28.8162C17.5504 28.917 17.4294 29.0138 17.272 29.1026C16.8889 29.3244 16.4331 29.4373 15.9127 29.4373C15.5658 29.4333 15.2512 29.3849 14.9648 29.2841C14.8156 29.2357 14.6784 29.1752 14.5453 29.0985L13.1779 28.3079C12.6495 28.0054 12.2139 27.6787 11.871 27.3278C11.629 27.0817 11.4354 26.8276 11.2862 26.5614C11.0401 26.1217 10.9151 25.6538 10.911 25.1536M17.8489 28.3241L17.8488 36.3831C17.8488 36.6856 17.6592 36.9478 17.272 37.1697C16.8888 37.3915 16.433 37.5044 15.9127 37.5044C15.3883 37.5004 14.9325 37.3875 14.5453 37.1656L13.1779 36.375C11.6734 35.5078 10.915 34.455 10.911 33.2208C10.911 33.1118 10.915 33.007 10.9271 32.9021L10.919 28.2152M10.911 25.1536C10.907 24.3429 11.2257 23.6168 11.871 22.9674M10.911 25.1536L10.919 28.2152M11.871 22.9674C12.2018 22.6246 12.6294 22.3059 13.1457 22.0074C14.6381 21.1442 16.4573 20.7167 18.591 20.7207C19.3816 20.7207 20.1278 20.7812 20.8297 20.9022M11.871 22.9674L11.871 19.7042M1.08914 18.837C1.09318 19.4541 1.47233 19.9785 2.22258 20.4141L5.6431 22.3906C5.98596 22.5882 6.40142 22.6689 6.87739 22.6366C6.93789 22.6286 6.9984 22.6245 7.0589 22.6165C7.61554 22.5479 8.04306 22.3623 8.33751 22.0598C8.55936 21.8218 8.80949 21.5879 9.08781 21.358C9.14831 21.3055 9.20878 21.2531 9.26928 21.2047C9.6202 20.9223 9.9994 20.6642 10.4068 20.4302C10.6569 20.285 10.8949 20.156 11.1207 20.0349C11.3466 19.918 11.5967 19.8091 11.871 19.7042M1.08914 18.837L1.08911 26.9042C1.09314 27.5214 1.4723 28.0457 2.22255 28.4814L5.64306 30.4578C6.03029 30.6797 6.50222 30.7563 7.05886 30.6837C7.6155 30.6152 8.04306 30.4296 8.33752 30.1271C8.60777 29.8367 8.91836 29.5543 9.26928 29.272C9.6202 28.9896 9.99936 28.7315 10.4068 28.4975C10.5842 28.3926 10.7536 28.2999 10.919 28.2152M18.0423 25.9562C18.0423 26.2547 18.236 26.5211 18.6232 26.7429L24.0968 29.9012C24.4841 30.1271 24.9399 30.2401 25.4642 30.2401C25.6538 30.2401 25.8353 30.2239 26.0088 30.1957C26.3113 30.1433 26.5815 30.0505 26.8276 29.9093C27.2068 29.6915 27.4004 29.4293 27.4004 29.1308M25.3876 16.5176C25.0044 16.7395 24.5486 16.8524 24.0283 16.8524C23.5039 16.8524 23.0481 16.7395 22.6609 16.5136L20.0713 15.0171L19.9261 14.9324C19.5389 14.7106 19.3413 14.4484 19.3413 14.1459C19.3413 13.8434 19.5308 13.5812 19.9181 13.3593L22.6367 11.7902C23.0199 11.5684 23.4757 11.4555 23.996 11.4555C24.5204 11.4595 24.9762 11.5684 25.3634 11.7943L28.0982 13.3755C28.4894 13.5973 28.6831 13.8595 28.6831 14.162C28.6871 14.4645 28.4935 14.7267 28.1103 14.9486L27.9207 15.0575L25.3876 16.5176ZM36.3187 19.6881L36.1292 19.797L33.6 21.2571C33.2128 21.479 32.761 21.5919 32.2367 21.5919C31.7123 21.5919 31.2565 21.479 30.8693 21.2531L28.1345 19.6719C27.7473 19.4501 27.5536 19.1879 27.5496 18.8854C27.5496 18.5828 27.7392 18.3207 28.1264 18.0988L30.6596 16.6386L30.8451 16.5297C31.2283 16.3079 31.6841 16.1949 32.2084 16.1949C32.7288 16.199 33.1846 16.3079 33.5718 16.5338L36.3107 18.1149C36.6979 18.3368 36.8915 18.599 36.8915 18.9015C36.8955 19.204 36.7019 19.4662 36.3187 19.6881Z" stroke="#27272A" stroke-opacity="0.25" stroke-linecap="round" stroke-linejoin="round"/>
      </svg>