<svg xmlns="http://www.w3.org/2000/svg" viewBox="0 0 48 48">
        <path d="M32.0791 19.0981C31.5177 18.1299 30.8384 17.4181 30.0533 16.9625L9.97058 5.36924C9.26278 4.96246 8.64862 4.86483 8.11981 5.07636L7.94075 5.16585C7.37939 5.48314 7.09879 6.09738 7.09879 7.0045V30.0486C7.09879 30.9516 7.37939 31.8912 7.94075 32.8594C8.50617 33.8275 9.18142 34.5394 9.97058 34.995L30.0533 46.5923C30.8384 47.0479 31.5177 47.113 32.0791 46.7957C32.6404 46.4743 32.9212 45.8601 32.9212 44.957V21.9089C32.9212 21.0059 32.6404 20.0662 32.0791 19.0981ZM15.2954 31.0126C15.0188 31.1713 14.6771 31.1306 14.2703 30.8987C13.8676 30.6628 13.5258 30.3089 13.2492 29.833C12.9767 29.3611 12.8384 28.8892 12.8384 28.4214C12.8384 27.9537 12.9767 27.6445 13.2492 27.4859C13.5258 27.3313 13.8676 27.372 14.2703 27.6038C14.6771 27.8398 15.0188 28.1936 15.2954 28.6696C15.5679 29.1414 15.7062 29.6133 15.7062 30.077C15.7062 30.5407 15.5679 30.8581 15.2954 31.0126ZM21.031 34.3279C20.7585 34.4825 20.4168 34.4459 20.01 34.2099C19.6032 33.974 19.2615 33.6201 18.989 33.1482C18.7124 32.6723 18.574 32.2004 18.574 31.7367C18.574 31.5414 18.5984 31.3746 18.6432 31.2363C18.7123 31.037 18.8263 30.8906 18.989 30.8011C19.2615 30.6425 19.6032 30.6831 20.01 30.9191C20.4168 31.1509 20.7585 31.5048 21.031 31.9808C21.1937 32.2614 21.3075 32.538 21.3767 32.8146C21.4214 33.0058 21.4459 33.2011 21.4459 33.3923C21.4459 33.8601 21.3076 34.1692 21.031 34.3279ZM26.7706 37.639C26.494 37.7977 26.1563 37.757 25.7496 37.5211C25.3428 37.2892 25.0011 36.9353 24.7245 36.4594C24.4519 35.9835 24.3136 35.5156 24.3136 35.0478C24.3136 34.8567 24.3381 34.6899 24.3829 34.5516C24.452 34.3523 24.5658 34.2059 24.7245 34.1123C25.0011 33.9577 25.3428 33.9943 25.7496 34.2302C26.1563 34.4662 26.494 34.8201 26.7706 35.292C26.9292 35.5726 27.0432 35.8492 27.1123 36.1258C27.1571 36.3211 27.1814 36.5123 27.1814 36.7035C27.1814 37.1713 27.0431 37.4845 26.7706 37.639Z" fill="white"/>
<path d="M15.7062 30.077C15.7062 30.5448 15.5679 30.8581 15.2954 31.0126C15.0188 31.1713 14.6771 31.1306 14.2703 30.8987C13.8676 30.6628 13.5258 30.3089 13.2492 29.833C12.9767 29.3611 12.8384 28.8892 12.8384 28.4214C12.8384 27.9537 12.9767 27.6445 13.2492 27.4859C13.5258 27.3313 13.8676 27.372 14.2703 27.6038C14.6771 27.8398 15.0188 28.1936 15.2954 28.6696C15.5679 29.1414 15.7062 29.6133 15.7062 30.077Z" fill="white"/>
<path d="M27.1814 36.7035C27.1814 37.1713 27.0431 37.4845 26.7706 37.639C26.494 37.7977 26.1563 37.757 25.7496 37.5211C25.3428 37.2892 25.0011 36.9353 24.7245 36.4594C24.4519 35.9835 24.3136 35.5156 24.3136 35.0478C24.3136 34.8567 24.3381 34.6899 24.3829 34.5516C24.452 34.3523 24.5658 34.2059 24.7245 34.1123C25.0011 33.9577 25.3428 33.9943 25.7496 34.2302C26.1563 34.4662 26.494 34.8201 26.7706 35.292C26.9292 35.5726 27.0432 35.8492 27.1123 36.1258C27.1571 36.3211 27.1814 36.5123 27.1814 36.7035Z" fill="white"/>
<path d="M21.4459 33.3923C21.4459 33.8601 21.3076 34.1692 21.031 34.3279C20.7585 34.4825 20.4168 34.4459 20.01 34.2099C19.6032 33.974 19.2615 33.6201 18.989 33.1482C18.7124 32.6723 18.574 32.2004 18.574 31.7367C18.574 31.5414 18.5984 31.3746 18.6432 31.2363C18.7123 31.037 18.8263 30.8906 18.989 30.8011C19.2615 30.6425 19.6032 30.6831 20.01 30.9191C20.4168 31.1509 20.7585 31.5048 21.031 31.9808C21.1937 32.2614 21.3075 32.538 21.3767 32.8146C21.4214 33.0058 21.4459 33.2011 21.4459 33.3923Z" fill="white"/>
<path d="M41.0566 17.8411V40.8892C41.0566 41.7923 40.7759 42.4065 40.2146 42.7279L32.0791 46.7957C32.6404 46.4743 32.9212 45.8601 32.9212 44.957V21.9089C32.9212 21.0059 32.6404 20.0662 32.0791 19.0981C31.5177 18.1299 30.8384 17.4181 30.0533 16.9625L9.97058 5.36924C9.26278 4.96246 8.64862 4.86483 8.11981 5.07636L16.0763 1.09804C16.6417 0.776679 17.3169 0.845832 18.1061 1.30142L38.1888 12.8946C38.9739 13.3502 39.6532 14.0621 40.2146 15.0302C40.7759 15.9984 41.0566 16.9381 41.0566 17.8411Z" fill="white"/>
<path d="M8.11981 5.07636C8.64862 4.86483 9.26278 4.96246 9.97058 5.36924L30.0533 16.9625C30.8384 17.4181 31.5177 18.1299 32.0791 19.0981C32.6404 20.0662 32.9212 21.0059 32.9212 21.9089V44.957C32.9212 45.8601 32.6404 46.4743 32.0791 46.7957M8.11981 5.07636L7.94075 5.16585C7.37939 5.48314 7.09879 6.09738 7.09879 7.0045V30.0486C7.09879 30.9516 7.37939 31.8912 7.94075 32.8594C8.50617 33.8275 9.18142 34.5394 9.97058 34.995L30.0533 46.5923C30.8384 47.0479 31.5177 47.113 32.0791 46.7957M8.11981 5.07636L16.0763 1.09804C16.6417 0.776679 17.3169 0.845832 18.1061 1.30142L38.1888 12.8946C38.9739 13.3502 39.6532 14.0621 40.2146 15.0302C40.7759 15.9984 41.0566 16.9381 41.0566 17.8411V40.8892C41.0566 41.7923 40.7759 42.4065 40.2146 42.7279L32.0791 46.7957M15.2954 31.0126C15.0188 31.1713 14.6771 31.1306 14.2703 30.8987C13.8676 30.6628 13.5258 30.3089 13.2492 29.833C12.9767 29.3611 12.8384 28.8892 12.8384 28.4214C12.8384 27.9537 12.9767 27.6445 13.2492 27.4859C13.5258 27.3313 13.8676 27.372 14.2703 27.6038C14.6771 27.8398 15.0188 28.1937 15.2954 28.6696C15.5679 29.1414 15.7062 29.6133 15.7062 30.077M15.2954 31.0126C15.5679 30.8581 15.7062 30.5407 15.7062 30.077M15.2954 31.0126C15.5679 30.8581 15.7062 30.5448 15.7062 30.077M21.031 34.3279C20.7585 34.4825 20.4168 34.4459 20.01 34.2099C19.6032 33.974 19.2615 33.6201 18.989 33.1482C18.7124 32.6723 18.574 32.2004 18.574 31.7367C18.574 31.5414 18.5984 31.3746 18.6432 31.2363C18.7123 31.037 18.8263 30.8906 18.989 30.8011C19.2615 30.6425 19.6032 30.6831 20.01 30.9191C20.4168 31.1509 20.7585 31.5048 21.031 31.9808C21.1937 32.2614 21.3075 32.538 21.3767 32.8146C21.4214 33.0058 21.4459 33.2011 21.4459 33.3923C21.4459 33.8601 21.3076 34.1692 21.031 34.3279ZM26.7706 37.639C26.494 37.7977 26.1563 37.757 25.7496 37.5211C25.3428 37.2892 25.0011 36.9353 24.7245 36.4594C24.4519 35.9835 24.3136 35.5156 24.3136 35.0478C24.3136 34.8567 24.3381 34.6899 24.3829 34.5516C24.452 34.3523 24.5658 34.2059 24.7245 34.1123C25.0011 33.9577 25.3428 33.9943 25.7496 34.2302C26.1563 34.4662 26.494 34.8201 26.7706 35.292C26.9292 35.5726 27.0432 35.8492 27.1123 36.1258C27.1571 36.3211 27.1814 36.5123 27.1814 36.7035C27.1814 37.1713 27.0431 37.4845 26.7706 37.639Z" stroke="#27272A" stroke-opacity="0.25" stroke-linecap="round" stroke-linejoin="round"/>
      </svg>