<svg xmlns="http://www.w3.org/2000/svg" viewBox="0 0 48 48">
        <path d="M30.603 41.8733C30.603 42.563 30.4013 43.0269 29.9939 43.2568C29.5865 43.4907 29.0823 43.4302 28.4813 43.0833L3.00502 28.3768C2.40401 28.0299 1.89981 27.5055 1.49241 26.8037C1.08905 26.1018 0.883331 25.404 0.883331 24.7143C0.883331 24.0245 1.08905 23.5647 1.49241 23.3307L1.61745 23.2702C2.00065 23.117 2.46451 23.1936 3.00502 23.5042L28.4813 38.2107C29.0823 38.5576 29.5865 39.082 29.9939 39.7839C30.4013 40.4857 30.603 41.1835 30.603 41.8733Z" fill="white"/>
<path d="M39.0937 27.2877C39.0937 27.9774 38.892 28.4413 38.4846 28.6712C38.0772 28.9052 37.573 28.8447 36.972 28.4978L11.4957 13.7912C11.3142 13.6863 11.1408 13.5653 10.9754 13.4201C10.5962 13.1095 10.2695 12.7062 9.98714 12.2181C9.57975 11.5162 9.37399 10.8225 9.37399 10.1287C9.37399 9.4349 9.57975 8.9791 9.98714 8.74919L10.1122 8.68868C10.4913 8.53137 10.9552 8.60801 11.4957 8.9186L36.972 23.6292C37.573 23.9761 38.0772 24.5005 38.4846 25.2023C38.5814 25.3677 38.6661 25.5331 38.7387 25.6984C38.9767 26.2309 39.0937 26.7593 39.0937 27.2877Z" fill="white"/>
<path d="M34.8503 34.5804C34.8503 35.2702 34.6446 35.7341 34.2372 35.964C33.8298 36.1979 33.3256 36.1374 32.7246 35.7905L7.25231 21.084C7.06676 20.9791 6.89332 20.8541 6.72794 20.7129C6.35281 20.3983 6.02206 19.9989 5.73971 19.5109C5.33231 18.809 5.13063 18.1112 5.13063 17.4215C5.13063 16.7317 5.33231 16.2719 5.73971 16.0379L5.86475 15.9774C6.24794 15.8241 6.71181 15.9008 7.25231 16.2114L32.7246 30.9179C33.3256 31.2689 33.8298 31.7932 34.2372 32.4951C34.334 32.6604 34.4187 32.8258 34.4873 32.9872C34.7293 33.5236 34.8503 34.052 34.8503 34.5804Z" fill="white"/>
<path d="M42.9176 30.5468C42.9176 31.2366 42.7119 31.7005 42.3045 31.9304L42.1795 31.9909L37.0727 34.5482L34.2372 35.964C34.6446 35.7341 34.8503 35.2702 34.8503 34.5804C34.8503 34.052 34.7293 33.5236 34.4873 32.9872C34.4187 32.8258 34.334 32.6604 34.2372 32.4951C33.8298 31.7932 33.3256 31.2689 32.7246 30.9179L7.25231 16.2114C6.71181 15.9008 6.24794 15.8241 5.86475 15.9774L10.9754 13.4201C11.1408 13.5653 11.3142 13.6863 11.4957 13.7912L36.972 28.4978C37.573 28.8447 38.0772 28.9052 38.4846 28.6712L41.3163 27.2554C41.6914 27.5741 42.0222 27.9734 42.3045 28.4615C42.7119 29.1633 42.9176 29.8571 42.9176 30.5468Z" fill="white"/>
<path d="M47.161 23.2541C47.161 23.9438 46.9593 24.4077 46.5519 24.6376L46.4269 24.6981L41.3163 27.2554L38.4846 28.6712C38.892 28.4413 39.0937 27.9774 39.0937 27.2877C39.0937 26.7593 38.9767 26.2309 38.7387 25.6984C38.6661 25.5331 38.5814 25.3677 38.4846 25.2023C38.0772 24.5005 37.573 23.9761 36.972 23.6292L11.4957 8.9186C10.9552 8.60801 10.4913 8.53137 10.1122 8.68868L18.0544 4.71556C18.4577 4.48161 18.9619 4.53808 19.5629 4.88498L45.0393 19.5956C45.6403 19.9425 46.1445 20.4668 46.5519 21.1687C46.9593 21.8705 47.161 22.5643 47.161 23.2541Z" fill="white"/>
<path d="M38.6702 37.8396C38.6702 38.5293 38.4684 38.9932 38.0611 39.2231L37.936 39.2836L29.9939 43.2568C30.4013 43.0269 30.603 42.563 30.603 41.8733C30.603 41.1835 30.4013 40.4857 29.9939 39.7839C29.5865 39.082 29.0823 38.5576 28.4813 38.2107L3.00502 23.5042C2.46451 23.1936 2.00065 23.117 1.61745 23.2702L6.72794 20.7129C6.89332 20.8541 7.06676 20.9791 7.25231 21.084L32.7246 35.7905C33.3256 36.1374 33.8298 36.1979 34.2372 35.964L37.0727 34.5482C37.4479 34.8628 37.7787 35.2621 38.0611 35.7502C38.4684 36.452 38.6702 37.1498 38.6702 37.8396Z" fill="white"/>
<path d="M29.9939 43.2568C30.4013 43.0269 30.603 42.563 30.603 41.8733C30.603 41.1835 30.4013 40.4857 29.9939 39.7839C29.5865 39.082 29.0823 38.5576 28.4813 38.2107L3.00502 23.5042C2.46451 23.1936 2.00065 23.117 1.61745 23.2702M29.9939 43.2568C29.5865 43.4907 29.0823 43.4302 28.4813 43.0833L3.00502 28.3768C2.40401 28.0299 1.89981 27.5055 1.49241 26.8037C1.08905 26.1018 0.883331 25.404 0.883331 24.7143C0.883331 24.0245 1.08905 23.5647 1.49241 23.3307L1.61745 23.2702M29.9939 43.2568L37.936 39.2836L38.0611 39.2231C38.4684 38.9932 38.6702 38.5293 38.6702 37.8396C38.6702 37.1498 38.4684 36.452 38.0611 35.7502C37.7787 35.2621 37.4479 34.8628 37.0727 34.5482M1.61745 23.2702L6.72794 20.7129M38.4846 28.6712C38.892 28.4413 39.0937 27.9774 39.0937 27.2877C39.0937 26.7593 38.9767 26.2309 38.7387 25.6984C38.6661 25.5331 38.5814 25.3677 38.4846 25.2023C38.0772 24.5005 37.573 23.9761 36.972 23.6292L11.4957 8.9186C10.9552 8.60801 10.4913 8.53137 10.1122 8.68868M38.4846 28.6712C38.0772 28.9052 37.573 28.8446 36.972 28.4978L11.4957 13.7912C11.3142 13.6863 11.1408 13.5653 10.9754 13.4201M38.4846 28.6712L41.3163 27.2554M10.9754 13.4201C10.5962 13.1095 10.2695 12.7062 9.98714 12.2181C9.57975 11.5162 9.37399 10.8225 9.37399 10.1287C9.37399 9.4349 9.57975 8.9791 9.98714 8.74919L10.1122 8.68868M10.9754 13.4201L5.86475 15.9774M10.1122 8.68868L18.0544 4.71556C18.4577 4.48161 18.9619 4.53808 19.5629 4.88498L45.0393 19.5956C45.6403 19.9425 46.1445 20.4668 46.5519 21.1687C46.9593 21.8705 47.161 22.5643 47.161 23.2541C47.161 23.9438 46.9593 24.4077 46.5519 24.6376L46.4269 24.6981L41.3163 27.2554M34.2372 35.964C34.6446 35.7341 34.8503 35.2702 34.8503 34.5804C34.8503 34.052 34.7293 33.5236 34.4873 32.9872C34.4187 32.8258 34.334 32.6604 34.2372 32.4951C33.8298 31.7932 33.3256 31.2689 32.7246 30.9179L7.25231 16.2114C6.71181 15.9008 6.24794 15.8241 5.86475 15.9774M34.2372 35.964C33.8298 36.1979 33.3256 36.1374 32.7246 35.7905L7.25231 21.084C7.06676 20.9791 6.89332 20.8541 6.72794 20.7129M34.2372 35.964L37.0727 34.5482M6.72794 20.7129C6.35281 20.3983 6.02206 19.9989 5.73971 19.5109C5.33231 18.809 5.13063 18.1112 5.13063 17.4215C5.13063 16.7317 5.33231 16.2719 5.73971 16.0379L5.86475 15.9774M37.0727 34.5482L42.1795 31.9909L42.3045 31.9304C42.7119 31.7005 42.9176 31.2366 42.9176 30.5468C42.9176 29.8571 42.7119 29.1633 42.3045 28.4615C42.0222 27.9734 41.6914 27.5741 41.3163 27.2554" stroke="#27272A" stroke-opacity="0.25" stroke-linecap="round" stroke-linejoin="round"/>
      </svg>