<svg xmlns="http://www.w3.org/2000/svg" viewBox="0 0 48 48">
        <path d="M33.1498 43.6459C33.1498 45.1759 32.674 46.213 31.7269 46.753C30.7754 47.293 29.6354 47.1816 28.3026 46.4102C26.9697 45.6387 25.8297 44.4387 24.8826 42.8016C23.9311 41.1644 23.4555 39.5787 23.4555 38.0487C23.4555 36.5187 23.9311 35.4859 24.8826 34.9459L25.084 34.8473C25.9883 34.4187 27.064 34.5687 28.3026 35.2887C29.6354 36.0559 30.7754 37.2602 31.7269 38.8973C32.674 40.5344 33.1498 42.1159 33.1498 43.6459Z" fill="white"/>
<path d="M33.1498 24.1802C33.1498 25.7102 32.674 26.7473 31.7269 27.2873C30.7754 27.8273 29.6354 27.7116 28.3026 26.9444C27.154 26.2802 26.1511 25.3073 25.3026 24.0302C24.4583 22.753 23.8926 21.4287 23.6098 20.0616L21.124 18.6259L18.6983 17.2287L17.0826 16.2944L16.0026 15.673C15.784 16.5173 15.364 17.1173 14.7469 17.4644C14.1298 17.8159 13.4011 17.8759 12.5526 17.6402V26.3659C13.6026 27.2959 14.4683 28.4487 15.1583 29.8159C15.844 31.1873 16.1869 32.533 16.1869 33.853C16.1869 35.383 15.7112 36.4159 14.7641 36.9602C13.8127 37.5002 12.6727 37.3844 11.3398 36.6173C10.0069 35.8459 8.86693 34.6416 7.9155 33.0044C6.96836 31.3673 6.49261 29.7859 6.49261 28.2559C6.49261 26.9359 6.83543 25.9844 7.52115 25.4102C7.70972 25.2516 7.90692 25.1273 8.12121 25.0373L8.14266 25.0287C8.70837 24.7844 9.37261 24.763 10.1269 24.9687V16.243C9.07689 15.313 8.21115 14.1602 7.52115 12.793C6.83543 11.4216 6.49261 10.0887 6.49261 8.79016C6.49261 7.26016 6.96836 6.22301 7.9155 5.68301L8.11692 5.58444C9.02549 5.16016 10.1012 5.31016 11.3398 6.02587C12.4712 6.6773 13.4612 7.64587 14.3098 8.92301C15.1583 10.2002 15.724 11.5244 16.0026 12.8916L18.6983 14.4473L23.6098 17.2802C23.8926 16.2387 24.4583 15.5702 25.3026 15.2702C26.1511 14.9744 27.154 15.1544 28.3026 15.8187C29.6354 16.5902 30.7754 17.7944 31.7269 19.4316C32.674 21.0687 33.1498 22.6502 33.1498 24.1802Z" fill="white"/>
<path d="M24.574 8.60587L16.0026 12.8916C15.724 11.5244 15.1583 10.2002 14.3098 8.92301C13.4612 7.64587 12.4712 6.6773 11.3398 6.02587C10.1012 5.31016 9.02549 5.16016 8.11692 5.58444L16.4869 1.39731C17.4384 0.857307 18.5784 0.973017 19.9112 1.74016C21.0427 2.39159 22.0326 3.36016 22.8812 4.6373C23.7298 5.91444 24.2955 7.23873 24.574 8.60587Z" fill="white"/>
<path d="M31.1314 12.3902L28.5342 13.6716L25.3026 15.2702C24.4583 15.5702 23.8926 16.2387 23.6098 17.2802L18.6983 14.4473L16.0026 12.8916L24.574 8.60587L31.1314 12.3902Z" fill="white"/>
<path d="M33.1498 11.3916L33.1327 11.4002L33.1498 11.3916Z" fill="white"/>
<path d="M41.7211 19.8944C41.7211 21.4244 41.2453 22.4616 40.2982 23.0016L40.0968 23.1002L31.7269 27.2873C32.674 26.7473 33.1498 25.7102 33.1498 24.1802C33.1498 22.6502 32.674 21.0687 31.7269 19.4316C30.7754 17.7944 29.6354 16.5902 28.3026 15.8187C27.154 15.1544 26.1511 14.9744 25.3026 15.2702L28.5342 13.6716L31.1314 12.3902L33.1327 11.4002C33.347 11.2202 33.5953 11.083 33.8739 10.9844C34.7225 10.6887 35.7253 10.8687 36.8739 11.533C38.2068 12.3044 39.3468 13.5087 40.2982 15.1459C41.2453 16.783 41.7211 18.3644 41.7211 19.8944Z" fill="white"/>
<path d="M17.0826 16.2944L14.7469 17.4644C15.364 17.1173 15.784 16.5173 16.0026 15.673L17.0826 16.2944Z" fill="white"/>
<path d="M24.7582 29.5673C24.7582 31.0973 24.2825 32.1302 23.3354 32.6744L23.134 32.773L14.7641 36.9602C15.7112 36.4159 16.1869 35.383 16.1869 33.853C16.1869 32.533 15.844 31.1873 15.1583 29.8159C14.4683 28.4487 13.6026 27.2959 12.5526 26.3659L21.1239 22.0802C22.1739 23.0102 23.0396 24.163 23.7296 25.5302C24.4153 26.9016 24.7582 28.2473 24.7582 29.5673Z" fill="white"/>
<path d="M41.7212 39.3602C41.7212 40.8902 41.2454 41.9273 40.2983 42.4673L40.0969 42.5659L31.7269 46.753C32.674 46.213 33.1498 45.1759 33.1498 43.6459C33.1498 42.1159 32.674 40.5344 31.7269 38.8973C30.7754 37.2602 29.6354 36.0559 28.3026 35.2887C27.064 34.5687 25.9883 34.4187 25.084 34.8473L33.454 30.6602C34.4011 30.1159 35.5411 30.2316 36.874 31.003C38.2069 31.7702 39.3469 32.9744 40.2983 34.6116C41.2454 36.2487 41.7212 37.8302 41.7212 39.3602Z" fill="white"/>
<path d="M21.124 18.6259L21.1239 22.0802L12.5526 26.3659V17.6402C13.4011 17.8759 14.1298 17.8159 14.7469 17.4644L17.0826 16.2944L18.6983 17.2287L21.124 18.6259Z" fill="white"/>
<path d="M10.1271 24.0344L10.1269 24.9687C9.37261 24.763 8.70837 24.7844 8.14266 25.0287L10.1271 24.0344Z" fill="white"/>
<path d="M31.7269 46.753C32.674 46.213 33.1498 45.1759 33.1498 43.6459C33.1498 42.1159 32.674 40.5344 31.7269 38.8973C30.7754 37.2602 29.6354 36.0559 28.3026 35.2887C27.064 34.5687 25.9883 34.4187 25.084 34.8473M31.7269 46.753C30.7754 47.293 29.6354 47.1816 28.3026 46.4102C26.9697 45.6387 25.8297 44.4387 24.8826 42.8016C23.9311 41.1644 23.4555 39.5787 23.4555 38.0487C23.4555 36.5187 23.9311 35.4859 24.8826 34.9459L25.084 34.8473M31.7269 46.753L40.0969 42.5659L40.2983 42.4673C41.2454 41.9273 41.7212 40.8902 41.7212 39.3602C41.7212 37.8302 41.2454 36.2487 40.2983 34.6116C39.3469 32.9744 38.2069 31.7702 36.874 31.003C35.5411 30.2316 34.4011 30.1159 33.454 30.6602L25.084 34.8473M31.7269 27.2873C32.674 26.7473 33.1498 25.7102 33.1498 24.1802C33.1498 22.6502 32.674 21.0687 31.7269 19.4316C30.7754 17.7944 29.6354 16.5902 28.3026 15.8187C27.154 15.1544 26.1511 14.9744 25.3026 15.2702M31.7269 27.2873C30.7754 27.8273 29.6354 27.7116 28.3026 26.9444C27.154 26.2802 26.1511 25.3073 25.3026 24.0302C24.4583 22.753 23.8926 21.4287 23.6098 20.0616L21.124 18.6259M31.7269 27.2873L40.0968 23.1002L40.2982 23.0016C41.2453 22.4616 41.7211 21.4244 41.7211 19.8944C41.7211 18.3644 41.2453 16.783 40.2982 15.1459C39.3468 13.5087 38.2068 12.3044 36.8739 11.533C35.7253 10.8687 34.7225 10.6887 33.8739 10.9844C33.5953 11.083 33.347 11.2202 33.1327 11.4002M21.124 18.6259L18.6983 17.2287L17.0826 16.2944M21.124 18.6259L21.1239 22.0802M17.0826 16.2944L16.0026 15.673C15.784 16.5173 15.364 17.1173 14.7469 17.4644M17.0826 16.2944L14.7469 17.4644M14.7469 17.4644C14.1298 17.8159 13.4011 17.8759 12.5526 17.6402V26.3659M12.5526 26.3659C13.6026 27.2959 14.4683 28.4487 15.1583 29.8159C15.844 31.1873 16.1869 32.533 16.1869 33.853C16.1869 35.383 15.7112 36.4159 14.7641 36.9602M12.5526 26.3659L21.1239 22.0802M14.7641 36.9602C13.8127 37.5002 12.6727 37.3844 11.3398 36.6173C10.0069 35.8459 8.86693 34.6416 7.9155 33.0044C6.96836 31.3673 6.49261 29.7859 6.49261 28.2559C6.49261 26.9359 6.83543 25.9844 7.52115 25.4102C7.70972 25.2516 7.90692 25.1273 8.12121 25.0373L8.14266 25.0287M14.7641 36.9602L23.134 32.773L23.3354 32.6744C24.2825 32.1302 24.7582 31.0973 24.7582 29.5673C24.7582 28.2473 24.4153 26.9016 23.7296 25.5302C23.0396 24.163 22.1739 23.0102 21.1239 22.0802M8.14266 25.0287C8.70837 24.7844 9.37261 24.763 10.1269 24.9687M8.14266 25.0287L10.1271 24.0344L10.1269 24.9687M10.1269 24.9687V16.243C9.07689 15.313 8.21115 14.1602 7.52115 12.793C6.83543 11.4216 6.49261 10.0887 6.49261 8.79016C6.49261 7.26016 6.96836 6.22301 7.9155 5.68301L8.11692 5.58444M8.11692 5.58444C9.02549 5.16016 10.1012 5.31016 11.3398 6.02587C12.4712 6.6773 13.4612 7.64587 14.3098 8.92301C15.1583 10.2002 15.724 11.5244 16.0026 12.8916M8.11692 5.58444L16.4869 1.39731C17.4384 0.857307 18.5784 0.973017 19.9112 1.74016C21.0427 2.39159 22.0326 3.36016 22.8812 4.6373C23.7298 5.91444 24.2955 7.23873 24.574 8.60587M16.0026 12.8916L18.6983 14.4473L23.6098 17.2802C23.8926 16.2387 24.4583 15.5702 25.3026 15.2702M16.0026 12.8916L24.574 8.60587M25.3026 15.2702L28.5342 13.6716L31.1314 12.3902M24.574 8.60587L31.1314 12.3902M31.1314 12.3902L33.1327 11.4002M33.1498 11.3916L33.1327 11.4002" stroke="#27272A" stroke-opacity="0.25" stroke-linecap="round" stroke-linejoin="round"/>
      </svg>