<svg xmlns="http://www.w3.org/2000/svg" viewBox="0 0 48 48">
        <path d="M27.1402 41.4119L21.5431 39.7825C21.64 39.7914 21.7413 39.8134 21.847 39.8486L27.1402 41.4119ZM27.1402 41.4119L23.789 38.5275L22.0583 37.0391L21.847 36.8585C21.7369 36.766 21.6356 36.6692 21.5387 36.5679L22.076 37.0347L23.7978 38.5231L27.1402 41.4119ZM21.0499 35.8765C21.0499 35.8765 21.0499 35.8853 21.0587 35.8897H21.0675L21.0499 35.8765Z" fill="white"/>
<path d="M43.6806 41.4692C43.6806 42.0108 43.5352 42.3631 43.249 42.526L43.183 42.5569L34.4549 46.9209C34.7323 46.7536 34.8732 46.4057 34.8732 45.8728C34.8732 45.0934 34.5738 44.3624 33.9793 43.6754L22.9877 31.0236C22.4461 30.4027 21.9176 30.1209 21.4024 30.1825C21.2791 30.1958 21.169 30.231 21.0765 30.2838L24.5069 28.5664L30.4299 35.3921L30.4431 35.4053L32.024 37.224L34.6663 35.9029L38.2861 34.093L42.7866 39.2717C43.3811 39.9587 43.6806 40.6897 43.6806 41.4692Z" fill="white"/>
<path d="M20.6316 31.3452V34.3353C20.6316 34.7712 20.7373 35.2204 20.953 35.6872C20.9839 35.7532 21.0147 35.8148 21.0499 35.8765C21.0499 35.8809 21.0499 35.8853 21.0587 35.8897L17.3773 37.7305V26.3822C17.3773 24.9819 17.8925 24.22 18.9186 24.1011C19.9534 23.9822 21.0103 24.5459 22.0936 25.7921L24.5069 28.5664L21.0765 30.2838C20.7815 30.4468 20.6316 30.8035 20.6316 31.3452Z" fill="white"/>
<path d="M31.0639 9.90369L22.2566 14.3074C22.2566 12.9995 21.8647 11.6696 21.0764 10.3132C20.2926 8.9569 19.3281 7.94406 18.1876 7.28791C17.1615 6.69782 16.2808 6.55246 15.541 6.85631L21.028 4.10845L24.1062 2.57156C24.89 2.12238 25.8544 2.22808 26.9949 2.88422C28.1355 3.54037 29.0999 4.55323 29.8838 5.90956C30.672 7.26589 31.0639 8.5958 31.0639 9.90369Z" fill="white"/>
<path d="M21.028 4.10845L15.541 6.85631L15.2987 6.97521C14.5104 7.41998 14.1185 8.30071 14.1185 9.6086L7.60548 5.84787C6.71592 5.33264 5.94529 5.25778 5.30676 5.61888L14.1141 1.21522C14.7526 0.85412 15.5233 0.928978 16.4128 1.44421L21.028 4.10845Z" fill="white"/>
<path d="M32.0238 23.6827L32.024 37.224L30.4431 35.4053L30.4299 35.3921L24.5069 28.5664L22.0936 25.7921C21.0103 24.5459 19.9534 23.9822 18.9186 24.1011C17.8925 24.22 17.3773 24.9819 17.3773 26.3822V37.7305C16.2896 37.3518 15.422 37.4354 14.7703 37.9814C14.1185 38.5187 13.7926 39.5888 13.7926 41.1741L7.60548 37.6027C6.71592 37.0875 5.94529 36.2772 5.30676 35.1807C4.67263 34.0754 4.3512 33.0141 4.3512 31.9881V24.8937C5.65468 25.6424 6.79518 25.8229 7.76837 25.4398C8.75039 25.0523 9.23484 24.1275 9.23484 22.6655C9.23484 22.595 9.23484 22.5246 9.23044 22.4541C9.1864 21.0581 8.70195 19.6402 7.76837 18.2046C6.79518 16.6897 5.65468 15.5536 4.3512 14.8049V7.70622C4.3512 6.67576 4.67263 5.98438 5.30676 5.61888C5.94529 5.25778 6.71592 5.33264 7.60548 5.84787L14.1185 9.6086C14.1185 8.30071 14.5104 7.41998 15.2987 6.97521L15.541 6.85631C16.2808 6.55246 17.1615 6.69782 18.1876 7.28791C19.3281 7.94406 20.2926 8.9569 21.0764 10.3132C21.8647 11.6696 22.2566 12.9995 22.2566 14.3074L28.7695 18.0681C29.6635 18.5833 30.4297 19.3936 31.0682 20.4901C31.4734 21.1859 31.7464 21.864 31.8961 22.5334C31.9798 22.9209 32.0238 23.304 32.0238 23.6827Z" fill="white"/>
<path d="M40.8313 19.2791V32.8203L34.6663 35.9029L32.024 37.224L32.0238 23.6827C32.0238 23.304 31.9798 22.9209 31.8961 22.5334C31.7464 21.864 31.4734 21.1859 31.0682 20.4901C30.4297 19.3936 29.6635 18.5833 28.7695 18.0681L22.2566 14.3074L31.0639 9.90369L37.577 13.6644C38.4709 14.1796 39.2371 14.9899 39.8757 16.0864C40.5142 17.1873 40.8313 18.2486 40.8313 19.2791Z" fill="white"/>
<path d="M27.1402 41.4119L21.847 39.8486C21.7413 39.8134 21.64 39.7914 21.5431 39.7825C21.411 39.7737 21.2923 39.7869 21.1866 39.831L23.789 38.5275L27.1402 41.4119Z" fill="white"/>
<path d="M23.7978 38.5231L23.789 38.5275L23.7978 38.5231Z" fill="white"/>
<path d="M22.0583 37.0391L13.7926 41.1741C13.7926 39.5888 14.1185 38.5187 14.7703 37.9814C15.422 37.4354 16.2896 37.3518 17.3773 37.7305L21.0587 35.8897C21.1908 36.1407 21.3493 36.3653 21.5387 36.5679C21.6356 36.6692 21.7369 36.766 21.847 36.8585L22.0583 37.0391Z" fill="white"/>
<path d="M22.076 37.0347L22.0583 37.0391L22.076 37.0347Z" fill="white"/>
<path d="M34.8732 45.8728C34.8732 46.4057 34.7323 46.7536 34.4549 46.9209L34.3929 46.9517C34.2784 47.009 34.1419 47.0354 33.9877 47.0354L22.9874 46.9958C22.4458 46.9958 21.9173 46.6655 21.4021 46.0093C20.8913 45.3576 20.6314 44.6706 20.6314 43.9529V40.9672C20.6314 40.5268 20.7371 40.2053 20.9529 39.9852C21.019 39.9191 21.0894 39.8707 21.1731 39.8354H21.1863C21.292 39.787 21.411 39.7737 21.5431 39.7825L27.1402 41.4119L23.7978 38.5231L22.076 37.0347L21.5387 36.5679C21.3493 36.3653 21.1908 36.1407 21.0587 35.8897H21.0675L21.0499 35.8765C21.0147 35.8148 20.9839 35.7532 20.953 35.6872C20.7373 35.2204 20.6316 34.7712 20.6316 34.3353V31.3452C20.6316 30.8035 20.7815 30.4468 21.0765 30.2838C21.169 30.231 21.2791 30.1958 21.4024 30.1825C21.9176 30.1209 22.4461 30.4027 22.9877 31.0236L33.9793 43.6754C34.5738 44.3624 34.8732 45.0934 34.8732 45.8728Z" fill="white"/>
<path d="M9.23484 22.6655C9.23484 24.1275 8.75039 25.0523 7.76837 25.4398C6.79518 25.8229 5.65468 25.6424 4.3512 24.8937L9.23044 22.4541C9.23484 22.5246 9.23484 22.595 9.23484 22.6655Z" fill="white"/>
<path d="M27.1402 41.4119L21.5431 39.7825M27.1402 41.4119L21.847 39.8486C21.7413 39.8134 21.64 39.7914 21.5431 39.7825M27.1402 41.4119L23.789 38.5275M27.1402 41.4119L23.7978 38.5231M21.5431 39.7825C21.411 39.7737 21.2923 39.7869 21.1866 39.831L23.789 38.5275M21.5431 39.7825C21.411 39.7737 21.292 39.787 21.1863 39.8354H21.1731C21.0894 39.8707 21.019 39.9191 20.9529 39.9852C20.7371 40.2053 20.6314 40.5268 20.6314 40.9672V43.9529C20.6314 44.6706 20.8913 45.3576 21.4021 46.0093C21.9173 46.6655 22.4458 46.9958 22.9874 46.9958L33.9877 47.0354C34.1419 47.0354 34.2784 47.009 34.3929 46.9517L34.4549 46.9209M23.789 38.5275L22.0583 37.0391M23.789 38.5275L23.7978 38.5231M22.0583 37.0391L21.847 36.8585C21.7369 36.766 21.6356 36.6692 21.5387 36.5679M22.0583 37.0391L13.7926 41.1741M22.0583 37.0391L22.076 37.0347M21.5387 36.5679L22.076 37.0347M21.5387 36.5679C21.3493 36.3653 21.1908 36.1407 21.0587 35.8897M22.076 37.0347L23.7978 38.5231M21.0499 35.8765C21.0499 35.8765 21.0499 35.8853 21.0587 35.8897M21.0499 35.8765L21.0675 35.8897H21.0587M21.0499 35.8765C21.0147 35.8148 20.9839 35.7532 20.953 35.6872C20.7373 35.2204 20.6316 34.7712 20.6316 34.3353V31.3452C20.6316 30.8035 20.7815 30.4468 21.0765 30.2838M21.0499 35.8765C21.0499 35.8809 21.0499 35.8853 21.0587 35.8897M21.0587 35.8897L17.3773 37.7305M34.4549 46.9209L43.183 42.5569L43.249 42.526C43.5352 42.3631 43.6806 42.0108 43.6806 41.4692C43.6806 40.6897 43.3811 39.9587 42.7866 39.2717L38.2861 34.093L34.6663 35.9029M34.4549 46.9209C34.7323 46.7536 34.8732 46.4057 34.8732 45.8728C34.8732 45.0934 34.5738 44.3624 33.9793 43.6754L22.9877 31.0236C22.4461 30.4027 21.9176 30.1209 21.4024 30.1825C21.2791 30.1958 21.169 30.231 21.0765 30.2838M21.0765 30.2838L24.5069 28.5664M24.5069 28.5664L22.0936 25.7921C21.0103 24.5459 19.9534 23.9822 18.9186 24.1011C17.8925 24.22 17.3773 24.9819 17.3773 26.3822V37.7305M24.5069 28.5664L30.4299 35.3921L30.4431 35.4053L32.024 37.224M32.024 37.224L32.0238 23.6827C32.0238 23.304 31.9798 22.9209 31.8961 22.5334C31.7464 21.864 31.4734 21.1859 31.0682 20.4901C30.4297 19.3936 29.6635 18.5833 28.7695 18.0681L22.2566 14.3074M32.024 37.224L34.6663 35.9029M34.6663 35.9029L40.8313 32.8203V19.2791C40.8313 18.2486 40.5142 17.1873 39.8757 16.0864C39.2371 14.9899 38.4709 14.1796 37.577 13.6644L31.0639 9.90369M17.3773 37.7305C16.2896 37.3518 15.422 37.4354 14.7703 37.9814C14.1185 38.5187 13.7926 39.5888 13.7926 41.1741M31.0639 9.90369L22.2566 14.3074M31.0639 9.90369C31.0639 8.5958 30.672 7.26589 29.8838 5.90956C29.0999 4.55323 28.1355 3.54037 26.9949 2.88422C25.8544 2.22808 24.89 2.12238 24.1062 2.57156L21.028 4.10845M22.2566 14.3074C22.2566 12.9995 21.8647 11.6696 21.0764 10.3132C20.2926 8.9569 19.3281 7.94406 18.1876 7.28791C17.1615 6.69782 16.2808 6.55246 15.541 6.85631M15.541 6.85631L21.028 4.10845M15.541 6.85631L15.2987 6.97521C14.5104 7.41998 14.1185 8.30071 14.1185 9.6086L7.60548 5.84787C6.71592 5.33264 5.94529 5.25778 5.30676 5.61888M21.028 4.10845L16.4128 1.44421C15.5233 0.928978 14.7526 0.85412 14.1141 1.21522L5.30676 5.61888M5.30676 5.61888C4.67263 5.98438 4.3512 6.67576 4.3512 7.70622V14.8049C5.65468 15.5536 6.79518 16.6897 7.76837 18.2046C8.70195 19.6402 9.1864 21.0581 9.23044 22.4541M13.7926 41.1741L7.60548 37.6027C6.71592 37.0875 5.94529 36.2772 5.30676 35.1807C4.67263 34.0754 4.3512 33.0141 4.3512 31.9881V24.8937M4.3512 24.8937C5.65468 25.6424 6.79518 25.8229 7.76837 25.4398C8.75039 25.0523 9.23484 24.1275 9.23484 22.6655C9.23484 22.595 9.23484 22.5246 9.23044 22.4541M4.3512 24.8937L9.23044 22.4541" stroke="#27272A" stroke-opacity="0.25" stroke-linecap="round" stroke-linejoin="round"/>
      </svg>