<svg xmlns="http://www.w3.org/2000/svg" viewBox="0 0 48 48">
        <path d="M45.0206 14.8541C43.8919 13.2238 42.2054 11.7579 39.9611 10.4649C37.7124 9.1676 35.1785 8.19463 32.359 7.54165C29.5352 6.88868 26.6681 6.56003 23.7535 6.55571C20.8389 6.55138 17.9763 6.86706 15.1611 7.51139C12.346 8.15139 9.82059 9.11571 7.58924 10.4044C5.35789 11.693 3.68868 13.1503 2.57733 14.7763C1.46598 16.4022 0.916867 18.0541 0.925516 19.7363C0.934164 21.1849 1.35792 22.6119 2.19251 24.0217C2.32657 24.2509 2.4736 24.4757 2.62927 24.7049C3.75792 26.3309 5.44438 27.7968 7.69303 29.0941C9.05087 29.8768 10.5124 30.5427 12.0822 31.0919C13.107 31.4509 14.1796 31.7579 15.2952 32.013C16.2423 32.2336 17.1979 32.4152 18.1579 32.5579C20.0519 32.8519 21.9633 32.9946 23.8963 32.999C26.8109 32.999 29.6736 32.6876 32.4887 32.0476C35.3039 31.4033 37.8293 30.439 40.0606 29.1503C42.292 27.8617 43.9655 26.4044 45.0725 24.7784C45.2065 24.5795 45.3363 24.3806 45.4574 24.1817C46.3049 22.7633 46.7287 21.319 46.7287 19.8573V19.8184C46.7157 18.1363 46.1492 16.48 45.0206 14.8541ZM19.7406 12.7611C20.4152 12.3763 21.2238 12.1817 22.1665 12.1817C23.1092 12.186 23.9223 12.3806 24.5969 12.7698C25.2715 13.1633 25.613 13.6303 25.6174 14.1752C25.6174 14.5687 25.4444 14.9233 25.0941 15.2346C24.9601 15.3557 24.8 15.4681 24.6141 15.5763C23.9395 15.9611 23.1309 16.1557 22.1882 16.1557C21.2455 16.1514 20.4324 15.9568 19.7578 15.5676C19.68 15.52 19.6065 15.4768 19.5373 15.4292C19.0054 15.066 18.7417 14.6422 18.7374 14.1622C18.7331 13.6173 19.0704 13.1503 19.7406 12.7611ZM27.239 26.2444C27.0141 26.6249 26.5212 26.8627 25.7644 26.9536C23.7969 27.1827 21.8638 27.1049 19.9611 26.72C18.0541 26.3352 16.385 25.7298 14.9536 24.8995C13.492 24.0563 12.4325 23.0833 11.7795 21.9763C11.1265 20.8692 11.0141 19.7406 11.4378 18.586C11.5719 18.1665 11.9612 17.8941 12.6055 17.773C13.2542 17.6476 13.8206 17.7254 14.3093 18.0109C14.5255 18.1319 14.6725 18.2746 14.7547 18.4303C14.8369 18.586 14.8498 18.759 14.7979 18.9449C14.586 19.7838 14.7071 20.6054 15.1568 21.4098C15.6065 22.2141 16.346 22.9103 17.3708 23.5027C18.4 24.0995 19.6109 24.5233 20.999 24.7827C22.3914 25.0422 23.8141 25.1114 25.2714 24.9903C25.5654 24.9427 25.8509 24.9427 26.119 24.9903C26.3914 25.0379 26.6336 25.1244 26.8498 25.2498C27.3385 25.5309 27.4682 25.8638 27.239 26.2444ZM35.9784 22.1363C35.3038 22.5254 34.4952 22.7157 33.5525 22.7157C32.6098 22.7157 31.7968 22.5168 31.1222 22.1276C30.4433 21.7384 30.106 21.2671 30.1017 20.7222C30.0974 20.1773 30.4346 19.7103 31.1049 19.3254C31.7795 18.9363 32.5882 18.7417 33.5309 18.746C34.4736 18.746 35.2865 18.9406 35.9611 19.3341C36.64 19.7233 36.9773 20.1903 36.9817 20.7352C36.9817 21.28 36.6487 21.7471 35.9784 22.1363Z" fill="white"/>
<path d="M27.239 26.2444C27.0141 26.6249 26.5212 26.8627 25.7644 26.9536C23.7969 27.1827 21.8638 27.1049 19.9611 26.72C18.0541 26.3352 16.385 25.7298 14.9536 24.8995C13.492 24.0563 12.4325 23.0833 11.7795 21.9763C11.1265 20.8692 11.0141 19.7406 11.4378 18.586C11.5719 18.1665 11.9612 17.8941 12.6055 17.773C13.2542 17.6476 13.8206 17.7254 14.3093 18.0109C14.5255 18.1319 14.6725 18.2746 14.7547 18.4303C14.8369 18.586 14.8498 18.759 14.7979 18.9449C14.586 19.7838 14.7071 20.6054 15.1568 21.4098C15.6065 22.2141 16.346 22.9103 17.3708 23.5027C18.4 24.0995 19.6109 24.5233 20.999 24.7827C22.3914 25.0422 23.8141 25.1114 25.2714 24.9903C25.5654 24.9427 25.8509 24.9427 26.119 24.9903C26.3914 25.0379 26.6336 25.1244 26.8498 25.2498C27.3385 25.5309 27.4682 25.8638 27.239 26.2444Z" fill="white"/>
<path d="M36.9817 20.7352C36.9817 21.28 36.6487 21.7471 35.9784 22.1363C35.3038 22.5254 34.4952 22.7157 33.5525 22.7157C32.6098 22.7157 31.7968 22.5168 31.1222 22.1276C30.4433 21.7384 30.106 21.2671 30.1017 20.7222C30.0974 20.1773 30.4346 19.7103 31.1049 19.3254C31.7795 18.9363 32.5882 18.7417 33.5309 18.746C34.4736 18.746 35.2865 18.9406 35.9611 19.3341C36.64 19.7233 36.9773 20.1903 36.9817 20.7352Z" fill="white"/>
<path d="M25.6174 14.1752C25.6174 14.5687 25.4444 14.9233 25.0941 15.2346C24.9601 15.3557 24.8 15.4681 24.6141 15.5763C23.9395 15.9611 23.1309 16.1557 22.1882 16.1557C21.2455 16.1514 20.4324 15.9568 19.7578 15.5676C19.68 15.52 19.6065 15.4768 19.5373 15.4292C19.0054 15.066 18.7417 14.6422 18.7374 14.1622C18.7331 13.6173 19.0704 13.1503 19.7406 12.7611C20.4152 12.3763 21.2238 12.1817 22.1665 12.1817C23.1092 12.186 23.9223 12.3806 24.5969 12.7698C25.2715 13.1633 25.613 13.6303 25.6174 14.1752Z" fill="white"/>
<path d="M46.7287 19.8573V28.4671C46.7374 30.1492 46.1838 31.8054 45.0725 33.4271C43.9655 35.053 42.292 36.5103 40.0606 37.799C37.8293 39.0876 35.3039 40.0519 32.4887 40.6963C29.6736 41.3363 26.8109 41.6519 23.8963 41.6476C20.986 41.6433 18.1147 41.3146 15.2952 40.6617C12.4714 40.013 9.93735 39.04 7.69303 37.7427C5.44438 36.4454 3.75793 34.9795 2.62928 33.3536C1.50495 31.7233 0.934169 30.0671 0.92552 28.3849L0.925516 19.7363C0.934164 21.1849 1.35792 22.6119 2.19251 24.0217C2.32657 24.2509 2.4736 24.4757 2.62927 24.7049C3.75792 26.3309 5.44438 27.7968 7.69303 29.0941C9.05087 29.8768 10.5124 30.5427 12.0822 31.0919C13.107 31.4509 14.1796 31.7579 15.2952 32.013C16.2423 32.2336 17.1979 32.4152 18.1579 32.5579C20.0519 32.8519 21.9633 32.9946 23.8963 32.999C26.8109 32.999 29.6736 32.6876 32.4887 32.0476C35.3039 31.4033 37.8293 30.439 40.0606 29.1503C42.292 27.8617 43.9655 26.4044 45.0725 24.7784C45.2065 24.5795 45.3363 24.3806 45.4574 24.1817C46.3049 22.7633 46.7287 21.319 46.7287 19.8573Z" fill="white"/>
<path d="M0.925516 19.7363C0.916867 18.0541 1.46598 16.4022 2.57733 14.7763C3.68868 13.1503 5.35789 11.693 7.58924 10.4044C9.82059 9.11571 12.346 8.15139 15.1611 7.51139C17.9763 6.86706 20.8389 6.55138 23.7535 6.55571C26.6681 6.56003 29.5352 6.88868 32.359 7.54165C35.1785 8.19463 37.7124 9.1676 39.9611 10.4649C42.2054 11.7579 43.8919 13.2238 45.0206 14.8541C46.1492 16.48 46.7157 18.1363 46.7287 19.8184V19.8573M0.925516 19.7363C0.934164 21.1849 1.35792 22.6119 2.19251 24.0217C2.32657 24.2509 2.4736 24.4757 2.62927 24.7049C3.75792 26.3309 5.44438 27.7968 7.69303 29.0941C9.05087 29.8768 10.5124 30.5427 12.0822 31.0919C13.107 31.4509 14.1796 31.7579 15.2952 32.013C16.2423 32.2336 17.1979 32.4152 18.1579 32.5579C20.0519 32.8519 21.9633 32.9946 23.8963 32.999C26.8109 32.999 29.6736 32.6876 32.4887 32.0476C35.3039 31.4033 37.8293 30.439 40.0606 29.1503C42.292 27.8617 43.9655 26.4044 45.0725 24.7784C45.2065 24.5795 45.3363 24.3806 45.4574 24.1817C46.3049 22.7633 46.7287 21.319 46.7287 19.8573M0.925516 19.7363L0.92552 28.3849C0.934169 30.0671 1.50495 31.7233 2.62928 33.3536C3.75793 34.9795 5.44438 36.4454 7.69303 37.7427C9.93735 39.04 12.4714 40.013 15.2952 40.6617C18.1147 41.3146 20.986 41.6433 23.8963 41.6476C26.8109 41.6519 29.6736 41.3363 32.4887 40.6963C35.3039 40.0519 37.8293 39.0876 40.0606 37.799C42.292 36.5103 43.9655 35.053 45.0725 33.4271C46.1838 31.8054 46.7374 30.1492 46.7287 28.4671V19.8573M19.7406 12.7611C20.4152 12.3763 21.2238 12.1817 22.1665 12.1817C23.1092 12.186 23.9223 12.3806 24.5969 12.7698C25.2714 13.1633 25.613 13.6303 25.6174 14.1752C25.6174 14.5687 25.4444 14.9233 25.0941 15.2346C24.9601 15.3557 24.8 15.4681 24.6141 15.5763C23.9395 15.9611 23.1309 16.1557 22.1882 16.1557C21.2455 16.1514 20.4324 15.9568 19.7578 15.5676C19.68 15.52 19.6065 15.4768 19.5373 15.4292C19.0054 15.066 18.7417 14.6422 18.7374 14.1622C18.7331 13.6173 19.0704 13.1503 19.7406 12.7611ZM27.239 26.2444C27.0141 26.6249 26.5212 26.8627 25.7644 26.9536C23.7969 27.1827 21.8638 27.1049 19.9611 26.72C18.0541 26.3352 16.385 25.7298 14.9536 24.8995C13.492 24.0563 12.4325 23.0833 11.7795 21.9763C11.1265 20.8692 11.0141 19.7406 11.4378 18.586C11.5719 18.1665 11.9612 17.8941 12.6055 17.773C13.2542 17.6476 13.8206 17.7254 14.3093 18.0109C14.5255 18.1319 14.6725 18.2746 14.7547 18.4303C14.8369 18.586 14.8498 18.759 14.7979 18.9449C14.586 19.7838 14.7071 20.6054 15.1568 21.4098C15.6065 22.2141 16.346 22.9103 17.3708 23.5027C18.4 24.0995 19.6109 24.5233 20.999 24.7827C22.3914 25.0422 23.8141 25.1114 25.2714 24.9903C25.5654 24.9427 25.8509 24.9427 26.119 24.9903C26.3914 25.0379 26.6336 25.1244 26.8498 25.2498C27.3385 25.5309 27.4682 25.8638 27.239 26.2444ZM35.9784 22.1363C35.3038 22.5254 34.4952 22.7157 33.5525 22.7157C32.6098 22.7157 31.7968 22.5168 31.1222 22.1276C30.4433 21.7384 30.106 21.2671 30.1017 20.7222C30.0974 20.1773 30.4346 19.7103 31.1049 19.3254C31.7795 18.9363 32.5882 18.7417 33.5309 18.746C34.4736 18.746 35.2865 18.9406 35.9611 19.3341C36.64 19.7233 36.9773 20.1903 36.9817 20.7352C36.9817 21.28 36.6487 21.7471 35.9784 22.1363Z" stroke="#27272A" stroke-opacity="0.25" stroke-linecap="round" stroke-linejoin="round"/>
      </svg>