<svg xmlns="http://www.w3.org/2000/svg" viewBox="0 0 48 48">
        <path d="M47.155 20.1322V28.1632C47.163 29.8573 46.6104 31.5232 45.4891 33.1649C44.3718 34.8025 42.6857 36.2707 40.435 37.5696C38.1882 38.8684 35.643 39.8405 32.8073 40.4859C29.9677 41.1312 27.0796 41.4539 24.1472 41.4459C21.2107 41.4459 18.3186 41.1111 15.4749 40.4536C12.6312 39.7961 10.0779 38.8159 7.81103 37.5091C5.54817 36.2022 3.85001 34.7299 2.71254 33.0842C1.57506 31.4425 1.0023 29.7766 0.990199 28.0785V20.0112C0.998266 21.3625 1.36531 22.6936 2.08733 24.0045C2.26884 24.3433 2.47859 24.6781 2.71254 25.017C3.85001 26.6627 5.54817 28.1349 7.81103 29.4418C10.0618 30.7407 12.5949 31.7168 15.4144 32.3702C15.4346 32.3783 15.4547 32.3823 15.4749 32.3864C16.5841 32.6445 17.7014 32.8502 18.8268 33.0035C20.5814 33.2536 22.3562 33.3746 24.1472 33.3786C25.9139 33.3827 27.6685 33.2697 29.403 33.0317C30.5283 32.8825 31.6457 32.6808 32.7549 32.4307C32.771 32.4267 32.7912 32.4227 32.8073 32.4186C35.643 31.7733 38.1882 30.8012 40.435 29.5023C42.6857 28.2035 44.3718 26.7353 45.4891 25.0976C45.6988 24.7911 45.8884 24.4845 46.0619 24.1739C46.792 22.8428 47.155 21.4956 47.155 20.1322Z" fill="white"/>
<path d="M45.4367 15.0902C44.2992 13.4485 42.597 11.9722 40.3341 10.6654C38.0712 9.35847 35.5179 8.3783 32.6702 7.72082C29.8265 7.06334 26.9384 6.73259 24.002 6.72855C21.0655 6.72452 18.1774 7.04318 15.3418 7.68855C12.5021 8.33393 9.96094 9.31007 7.71019 10.6089C5.45943 11.9037 3.77742 13.3759 2.65607 15.0136C1.53876 16.6512 0.982132 18.3171 0.990199 20.0112C0.998266 21.3625 1.36531 22.6936 2.08733 24.0045C2.26884 24.3433 2.47859 24.6781 2.71254 25.017C3.85001 26.6627 5.54817 28.1349 7.81103 29.4418C10.0618 30.7407 12.5949 31.7168 15.4144 32.3702C15.4346 32.3783 15.4547 32.3823 15.4749 32.3864C16.5841 32.6445 17.7014 32.8502 18.8268 33.0035C20.5814 33.2536 22.3562 33.3746 24.1472 33.3786C25.9139 33.3827 27.6685 33.2697 29.403 33.0317C30.5283 32.8825 31.6457 32.6808 32.7549 32.4307C32.771 32.4267 32.7912 32.4227 32.8073 32.4186C35.643 31.7733 38.1882 30.8012 40.435 29.5023C42.6857 28.2035 44.3718 26.7353 45.4891 25.0976C45.6988 24.7911 45.8884 24.4845 46.0619 24.1739C46.792 22.8428 47.155 21.4956 47.155 20.1322V20.0959C47.1469 18.4018 46.5701 16.7319 45.4367 15.0902ZM32.8719 24.1699C32.771 24.3958 32.5653 24.5975 32.2547 24.779C31.7949 25.0452 31.2504 25.1743 30.6251 25.1743C29.9999 25.1743 29.4554 25.0412 28.9915 24.7709L27.7976 24.0812L27.3337 23.8149L24.0826 21.9393L24.0625 21.9514L20.8114 23.827L20.3515 24.0933L19.206 24.7548C18.7462 25.021 18.2016 25.1541 17.5764 25.1501C16.9512 25.1501 16.4067 25.017 15.9428 24.7467C15.5677 24.5329 15.3458 24.2869 15.2732 24.0126C15.253 23.944 15.245 23.8754 15.245 23.8069C15.245 23.4438 15.4709 23.1292 15.9307 22.863L20.8114 20.0475L15.9025 17.2159C15.4386 16.9457 15.2046 16.6311 15.2046 16.2721C15.2006 16.0825 15.2651 15.905 15.3942 15.7437C15.5072 15.5944 15.6725 15.4573 15.8904 15.3322C16.3542 15.066 16.8947 14.9329 17.5199 14.9329C17.9677 14.9329 18.3751 15.0055 18.7421 15.1427C18.8873 15.1951 19.0245 15.2596 19.1535 15.3363L24.0625 18.1719L28.9431 15.3524C29.0641 15.2798 29.1932 15.2193 29.3263 15.1709C29.6974 15.0257 30.1088 14.9571 30.5687 14.9571C31.1939 14.9571 31.7384 15.0943 32.2023 15.3605C32.4362 15.4976 32.6137 15.6428 32.7307 15.8042C32.8436 15.9575 32.9001 16.1269 32.9001 16.3043C32.9041 16.6633 32.6742 16.978 32.2144 17.2442L27.3337 20.0596L32.2426 22.8953C32.7065 23.1615 32.9404 23.4761 32.9445 23.8351C32.9445 23.9521 32.9203 24.065 32.8719 24.1699Z" fill="white"/>
<path d="M32.9445 23.8351C32.9445 23.9521 32.9203 24.065 32.8719 24.1699C32.771 24.3958 32.5653 24.5975 32.2547 24.779C31.7949 25.0452 31.2504 25.1743 30.6251 25.1743C29.9999 25.1743 29.4554 25.0412 28.9915 24.7709L27.7976 24.0812L27.3337 23.8149V20.0596L32.2426 22.8953C32.7065 23.1615 32.9404 23.4761 32.9445 23.8351Z" fill="white"/>
<path d="M32.9001 16.3043C32.9041 16.6633 32.6742 16.978 32.2144 17.2442L27.3337 20.0596V23.8149L24.0826 21.9393L24.0625 21.9514V18.1719L28.9431 15.3524C29.0641 15.2798 29.1932 15.2193 29.3263 15.1709C29.6974 15.0257 30.1088 14.9571 30.5687 14.9571C31.1939 14.9571 31.7384 15.0943 32.2023 15.3605C32.4362 15.4976 32.6137 15.6428 32.7307 15.8042C32.8436 15.9575 32.9001 16.1269 32.9001 16.3043Z" fill="white"/>
<path d="M24.0625 18.1719V21.9514L20.8114 23.827V20.0475L15.9025 17.2159C15.4386 16.9457 15.2046 16.6311 15.2046 16.2721C15.2006 16.0825 15.2651 15.905 15.3942 15.7437C15.5072 15.5944 15.6725 15.4573 15.8904 15.3322C16.3542 15.066 16.8947 14.9329 17.5199 14.9329C17.9677 14.9329 18.3751 15.0055 18.7421 15.1427C18.8873 15.1951 19.0245 15.2596 19.1535 15.3363L24.0625 18.1719Z" fill="white"/>
<path d="M20.8114 20.0475V23.827L20.3515 24.0933L19.206 24.7548C18.7462 25.021 18.2016 25.1541 17.5764 25.1501C16.9512 25.1501 16.4067 25.017 15.9428 24.7467C15.5677 24.5329 15.3458 24.2869 15.2732 24.0126C15.253 23.944 15.245 23.8754 15.245 23.8069C15.245 23.4438 15.4709 23.1292 15.9307 22.863L20.8114 20.0475Z" fill="white"/>
<path d="M47.155 20.1322V28.1632C47.163 29.8573 46.6104 31.5232 45.4891 33.1649C44.3718 34.8025 42.6857 36.2707 40.435 37.5696C38.1882 38.8684 35.643 39.8405 32.8073 40.4859C29.9677 41.1312 27.0796 41.4539 24.1472 41.4459C21.2107 41.4459 18.3186 41.1111 15.4749 40.4536C12.6312 39.7961 10.0779 38.8159 7.81103 37.5091C5.54817 36.2022 3.85001 34.7299 2.71254 33.0842C1.57506 31.4425 1.0023 29.7766 0.990199 28.0785V20.0112M47.155 20.1322C47.155 21.4956 46.792 22.8428 46.0619 24.1739C45.8884 24.4845 45.6988 24.7911 45.4891 25.0976C44.3718 26.7353 42.6857 28.2035 40.435 29.5023C38.1882 30.8012 35.643 31.7733 32.8073 32.4186C32.7912 32.4227 32.771 32.4267 32.7549 32.4307C31.6457 32.6808 30.5283 32.8825 29.403 33.0317C27.6685 33.2697 25.9139 33.3827 24.1472 33.3786C22.3562 33.3746 20.5814 33.2536 18.8268 33.0035C17.7014 32.8502 16.5841 32.6445 15.4749 32.3864C15.4547 32.3823 15.4346 32.3783 15.4144 32.3702C12.5949 31.7168 10.0618 30.7406 7.81103 29.4418C5.54817 28.1349 3.85001 26.6627 2.71254 25.017C2.47859 24.6781 2.26884 24.3433 2.08733 24.0045C1.36531 22.6936 0.998266 21.3625 0.990199 20.0112M47.155 20.1322V20.0959C47.1469 18.4018 46.5701 16.7319 45.4367 15.0902C44.2992 13.4485 42.597 11.9722 40.3341 10.6654C38.0712 9.35847 35.5179 8.3783 32.6702 7.72082C29.8265 7.06334 26.9384 6.73259 24.002 6.72855C21.0655 6.72452 18.1774 7.04318 15.3418 7.68855C12.5021 8.33393 9.96094 9.31007 7.71019 10.6089C5.45943 11.9037 3.77742 13.3759 2.65607 15.0136C1.53876 16.6512 0.982132 18.3171 0.990199 20.0112M27.3337 23.8149L27.7976 24.0812L28.9915 24.7709C29.4554 25.0412 29.9999 25.1743 30.6251 25.1743C31.2504 25.1743 31.7949 25.0452 32.2547 24.779C32.5653 24.5975 32.771 24.3958 32.8719 24.1699C32.9203 24.065 32.9445 23.9521 32.9445 23.8351C32.9404 23.4761 32.7065 23.1615 32.2426 22.8953L27.3337 20.0596M27.3337 23.8149L24.0826 21.9393L24.0625 21.9514M27.3337 23.8149V20.0596M24.0625 21.9514L20.8114 23.827M24.0625 21.9514V18.1719M20.8114 23.827L20.3515 24.0933L19.206 24.7548C18.7462 25.021 18.2016 25.1541 17.5764 25.1501C16.9512 25.1501 16.4067 25.017 15.9428 24.7467C15.5677 24.5329 15.3458 24.2869 15.2732 24.0126C15.253 23.944 15.245 23.8754 15.245 23.8069C15.245 23.4438 15.4709 23.1292 15.9307 22.863L20.8114 20.0475M20.8114 23.827V20.0475M20.8114 20.0475L15.9025 17.2159C15.4386 16.9457 15.2046 16.6311 15.2046 16.2721C15.2006 16.0825 15.2651 15.905 15.3942 15.7437C15.5072 15.5944 15.6725 15.4573 15.8904 15.3322C16.3542 15.066 16.8947 14.9329 17.5199 14.9329C17.9677 14.9329 18.3751 15.0055 18.7421 15.1427C18.8873 15.1951 19.0245 15.2596 19.1535 15.3363L24.0625 18.1719M24.0625 18.1719L28.9431 15.3524C29.0641 15.2798 29.1932 15.2193 29.3263 15.1709C29.6974 15.0257 30.1088 14.9571 30.5687 14.9571C31.1939 14.9571 31.7384 15.0943 32.2023 15.3605C32.4362 15.4976 32.6137 15.6428 32.7307 15.8042C32.8436 15.9575 32.9001 16.1269 32.9001 16.3043C32.9041 16.6633 32.6742 16.978 32.2144 17.2442L27.3337 20.0596" stroke="#27272A" stroke-opacity="0.25" stroke-linecap="round" stroke-linejoin="round"/>
      </svg>