<svg xmlns="http://www.w3.org/2000/svg" viewBox="0 0 48 48">
        <path d="M10.9964 27.6483L10.8961 27.7051L11.1623 27.5698C11.1055 27.5916 11.0488 27.6178 10.9964 27.6483Z" fill="white"/>
<path d="M30.4888 37.0345V43.1392C30.4888 44.8191 29.9695 45.9581 28.9266 46.5515C27.8837 47.145 26.6314 47.0184 25.1652 46.1762L19.6103 42.9691C19.0779 42.6592 18.5674 42.2534 18.083 41.7429C17.5943 41.228 17.1623 40.6476 16.7826 39.9974L10.931 29.8607C10.6866 29.4418 10.5557 29.0185 10.547 28.5909C10.5339 28.1632 10.6517 27.8709 10.8961 27.7051L11.1623 27.5698H11.1797C11.4895 27.4389 11.843 27.4345 12.2444 27.548C12.7201 27.6832 13.1914 27.9625 13.6583 28.3814L15.8532 30.3756V17.8956C15.8532 17.4592 15.9797 17.1712 16.2372 17.0272L16.3157 16.988C16.5557 16.892 16.8437 16.94 17.1841 17.1363C17.5594 17.3545 17.8779 17.6818 18.131 18.1225C18.3884 18.5632 18.515 18.9996 18.515 19.4316V30.1181L19.8459 30.8861V26.3043C19.8459 26.1516 19.8634 26.0207 19.8939 25.9029C19.9506 25.6891 20.0597 25.532 20.2255 25.4403L20.3041 25.4011C20.5484 25.3007 20.8364 25.3531 21.1768 25.5494C21.5521 25.7632 21.8663 26.0949 22.1237 26.5356C22.3768 26.972 22.5077 27.4083 22.5077 27.8447V32.4221L23.8386 33.1901V30.14C23.8386 29.7036 23.9652 29.4156 24.2183 29.2716L24.2968 29.2323C24.5412 29.132 24.8292 29.1843 25.1652 29.3807C25.5448 29.5989 25.859 29.9261 26.1164 30.3669C26.1557 30.4323 26.1906 30.5021 26.2212 30.5676C26.4044 30.9385 26.4961 31.3051 26.4961 31.676V34.7261L27.827 35.4985C27.827 35.0621 27.9579 34.7741 28.211 34.6301L28.2895 34.5909C28.5295 34.4949 28.8219 34.5429 29.1579 34.7392C29.5375 34.9574 29.8517 35.2847 30.1092 35.7254C30.3623 36.1661 30.4888 36.6025 30.4888 37.0345Z" fill="white"/>
<path d="M17.2625 2.81483V4.76101L8.53521 9.12465V7.17847C8.53521 6.84683 8.43921 6.51956 8.25158 6.19665C8.06394 5.86938 7.82394 5.62501 7.53594 5.45919C7.24794 5.28901 7.00794 5.26283 6.82031 5.36756L15.5476 1.00392C15.7352 0.89919 15.9752 0.925372 16.2632 1.09555C16.5512 1.26137 16.7912 1.50574 16.9789 1.83301C17.1665 2.15592 17.2625 2.48319 17.2625 2.81483Z" fill="white"/>
<path d="M23.8386 31.7588L23.8386 33.1901L22.5077 32.4221L23.3979 31.977L23.8386 31.7588Z" fill="white"/>
<path d="M35.2231 27.3123V30.3625L26.4961 34.7261V31.676C26.4961 31.3051 26.4044 30.9385 26.2212 30.5676C26.1906 30.5021 26.1557 30.4323 26.1164 30.3669C25.859 29.9261 25.5448 29.5989 25.1652 29.3807C24.8292 29.1843 24.5412 29.132 24.2968 29.2323L30.8682 25.9465C30.9686 26.1254 31.082 26.2912 31.2042 26.4527C31.213 26.4658 31.2217 26.4789 31.2348 26.4876C31.5053 26.8323 31.802 27.0985 32.1206 27.2861C32.2995 27.3865 32.4479 27.4127 32.5657 27.3603L34.9351 26.1778C35.1271 26.5574 35.2231 26.9327 35.2231 27.3123Z" fill="white"/>
<path d="M35.9301 30.7727L28.2895 34.5909L28.211 34.6301C27.9579 34.7741 27.827 35.0621 27.827 35.4985L26.4961 34.7261L35.2231 30.3625L35.9301 30.7727Z" fill="white"/>
<path d="M39.216 32.6709V38.7756C39.216 40.4556 38.6967 41.5945 37.6538 42.188L28.9266 46.5515C29.9695 45.9581 30.4888 44.8191 30.4888 43.1392V37.0345C30.4888 36.6025 30.3623 36.1661 30.1092 35.7254C29.8517 35.2847 29.5375 34.9574 29.1579 34.7392C28.8219 34.5429 28.5295 34.4949 28.2895 34.5909L35.9301 30.7727L36.9382 30.2665C37.1913 30.1225 37.5099 30.1574 37.8851 30.3756C38.2648 30.5938 38.5789 30.9211 38.8364 31.3618C39.0895 31.8025 39.216 32.2389 39.216 32.6709Z" fill="white"/>
<path d="M30.8682 25.9465L24.2968 29.2323L24.2183 29.2716C23.9652 29.4156 23.8386 29.7036 23.8386 30.14L23.8386 31.7588L23.3979 31.977L22.5077 32.4221V27.8447C22.5077 27.4083 22.3768 26.972 22.1237 26.5356C21.8663 26.0949 21.5521 25.7632 21.1768 25.5494C20.8364 25.3531 20.5484 25.3007 20.3041 25.4011L22.6297 24.2403L27.242 21.932L28.4071 21.3472C28.4726 21.4432 28.5337 21.5392 28.5948 21.6352C29.3585 22.8003 29.9999 24.0091 30.5235 25.2571C30.6239 25.4971 30.7373 25.7283 30.8682 25.9465Z" fill="white"/>
<path d="M19.8459 29.4548L19.8459 30.8861L18.515 30.1181L19.8459 29.4548Z" fill="white"/>
<path d="M27.2422 19.7458L27.242 21.932L22.6297 24.2403L20.3041 25.4011L20.2255 25.4403C20.0597 25.532 19.9506 25.6891 19.8939 25.9029C19.8634 26.0207 19.8459 26.1516 19.8459 26.3043L19.8459 29.4548L18.515 30.1181V19.4316C18.515 18.9996 18.3884 18.5632 18.131 18.1225C17.8779 17.6818 17.5594 17.3545 17.1841 17.1363C16.8437 16.94 16.5557 16.892 16.3157 16.988L21.5215 14.3829C22.6037 15.1247 23.6204 15.9451 24.5804 16.8527C25.152 17.3807 25.7019 17.948 26.2299 18.5414C26.5833 18.9385 26.9193 19.34 27.2422 19.7458Z" fill="white"/>
<path d="M15.8531 25.2265L11.1797 27.5654L15.8531 25.2265Z" fill="white"/>
<path d="M13.1913 15.2119C13.1913 14.8803 13.0953 14.553 12.9077 14.2257C12.72 13.9028 12.48 13.6585 12.192 13.4883L9.33387 11.8388C10.7957 11.2061 12.4277 11.0185 14.2211 11.2628C15.744 11.4723 17.3237 12.0003 18.96 12.8425L12.9077 15.8708C13.0953 15.7617 13.1913 15.5436 13.1913 15.2119Z" fill="white"/>
<path d="M32.7185 27.2294C32.6749 27.2905 32.6224 27.3341 32.5657 27.3603C32.4479 27.4127 32.2995 27.3865 32.1206 27.2861C31.802 27.0985 31.5053 26.8323 31.2348 26.4876C31.2217 26.4789 31.213 26.4658 31.2042 26.4527C31.082 26.2912 30.9686 26.1254 30.8682 25.9465C30.7373 25.7283 30.6239 25.4971 30.5235 25.2571C29.9999 24.0091 29.3585 22.8003 28.5948 21.6352C28.5337 21.5392 28.4726 21.4432 28.4071 21.3472C28.045 20.8061 27.6568 20.2738 27.2422 19.7458C26.9193 19.34 26.5833 18.9385 26.2299 18.5414C25.7019 17.948 25.152 17.3807 24.5804 16.8527C23.6204 15.9451 22.6037 15.1247 21.5215 14.3829C20.9804 14.012 20.4218 13.6585 19.8458 13.3268C19.549 13.1566 19.2524 12.9952 18.96 12.8425C17.3237 12.0003 15.744 11.4723 14.2211 11.2628C12.4277 11.0185 10.7957 11.2061 9.33387 11.8388L12.192 13.4883C12.48 13.6585 12.72 13.9028 12.9077 14.2257C13.0953 14.553 13.1913 14.8803 13.1913 15.2119C13.1913 15.5436 13.0953 15.7617 12.9077 15.8708C12.72 15.9756 12.48 15.9494 12.192 15.7792L7.86762 13.2832C7.49234 13.065 7.17379 12.7377 6.9207 12.297C6.66325 11.8563 6.53671 11.4199 6.53671 10.9879V6.02647C6.53671 5.69483 6.63267 5.47665 6.82031 5.36756C7.00794 5.26283 7.24794 5.28901 7.53594 5.45919C7.82394 5.62501 8.06394 5.86938 8.25158 6.19665C8.43921 6.51956 8.53521 6.84683 8.53521 7.17847V9.12465C10.1323 8.54429 11.8953 8.41774 13.824 8.74501C15.7527 9.06792 17.76 9.83156 19.8458 11.0359C20.2603 11.2759 20.6705 11.5246 21.072 11.7908C21.8661 12.3014 22.6342 12.8556 23.3804 13.4534C23.7862 13.7763 24.1876 14.1123 24.5804 14.4657C25.5054 15.2861 26.3956 16.1806 27.2422 17.145C27.4429 17.3676 27.6349 17.5901 27.8269 17.8214C29.8604 20.2519 31.3614 22.713 32.3345 25.2134C32.413 25.4185 32.4916 25.6279 32.5658 25.833C32.6313 26.0206 32.6924 26.2039 32.7534 26.3916C32.8625 26.7581 32.8538 27.0417 32.7185 27.2294Z" fill="white"/>
<path d="M41.4458 22.8658C41.4109 22.9181 41.3717 22.9531 41.3237 22.9836H41.3193L34.9351 26.1778L32.5657 27.3603C32.6224 27.3341 32.6749 27.2905 32.7185 27.2294C32.8538 27.0417 32.8625 26.7581 32.7534 26.3916C32.6924 26.2039 32.6313 26.0206 32.5658 25.833C32.4916 25.6279 32.413 25.4185 32.3345 25.2134C31.3614 22.713 29.8604 20.2519 27.8269 17.8214C27.6349 17.5901 27.4429 17.3676 27.2422 17.145C26.3956 16.1806 25.5054 15.2861 24.5804 14.4657C24.1876 14.1123 23.7862 13.7763 23.3804 13.4534C22.6342 12.8556 21.8661 12.3014 21.072 11.7908C20.6705 11.5246 20.2603 11.2759 19.8458 11.0359C17.76 9.83156 15.7527 9.06792 13.824 8.74501C11.8953 8.41774 10.1323 8.54429 8.53521 9.12465L17.2625 4.76101C18.8596 4.18064 20.6226 4.05413 22.5513 4.38142C24.48 4.70433 26.4873 5.46797 28.5731 6.67233C31.5447 8.38724 34.2066 10.652 36.5542 13.4578C38.9062 16.268 40.5469 19.1218 41.4808 22.028C41.5899 22.3945 41.5811 22.6781 41.4458 22.8658Z" fill="white"/>
<path d="M10.8961 27.7051L10.9964 27.6483C11.0488 27.6178 11.1055 27.5916 11.1623 27.5698M10.8961 27.7051L11.1623 27.5698M10.8961 27.7051C10.6517 27.8709 10.5339 28.1632 10.547 28.5909C10.5557 29.0185 10.6866 29.4418 10.931 29.8607L16.7826 39.9974C17.1623 40.6476 17.5943 41.228 18.083 41.7429C18.5674 42.2534 19.0779 42.6592 19.6103 42.9691L25.1652 46.1762C26.6314 47.0184 27.8837 47.145 28.9266 46.5515M11.1623 27.5698H11.1797C11.4895 27.4389 11.843 27.4345 12.2444 27.548C12.7201 27.6832 13.1914 27.9625 13.6583 28.3814L15.8532 30.3756V17.8956C15.8532 17.4592 15.9797 17.1712 16.2372 17.0272L16.3157 16.988M28.9266 46.5515C29.9695 45.9581 30.4888 44.8191 30.4888 43.1392V37.0345C30.4888 36.6025 30.3623 36.1661 30.1092 35.7254C29.8517 35.2847 29.5375 34.9574 29.1579 34.7392C28.8219 34.5429 28.5295 34.4949 28.2895 34.5909M28.9266 46.5515L37.6538 42.188C38.6967 41.5945 39.216 40.4556 39.216 38.7756V32.6709C39.216 32.2389 39.0895 31.8025 38.8364 31.3618C38.5789 30.9211 38.2648 30.5938 37.8851 30.3756C37.5099 30.1574 37.1913 30.1225 36.9382 30.2665L35.9301 30.7727M16.3157 16.988C16.5557 16.892 16.8437 16.94 17.1841 17.1363C17.5594 17.3545 17.8779 17.6818 18.131 18.1225C18.3884 18.5632 18.515 18.9996 18.515 19.4316V30.1181M16.3157 16.988L21.5215 14.3829M18.515 30.1181L19.8459 30.8861M18.515 30.1181L19.8459 29.4548M19.8459 30.8861V26.3043M19.8459 30.8861L19.8459 29.4548M19.8459 26.3043C19.8459 26.1516 19.8634 26.0207 19.8939 25.9029C19.9506 25.6891 20.0597 25.532 20.2255 25.4403L20.3041 25.4011M19.8459 26.3043L19.8459 29.4548M20.3041 25.4011C20.5484 25.3007 20.8364 25.3531 21.1768 25.5494C21.5521 25.7632 21.8663 26.0949 22.1237 26.5356C22.3768 26.972 22.5077 27.4083 22.5077 27.8447V32.4221M20.3041 25.4011L22.6297 24.2403L27.242 21.932M22.5077 32.4221L23.8386 33.1901M22.5077 32.4221L23.3979 31.977L23.8386 31.7588M23.8386 33.1901V30.14M23.8386 33.1901L23.8386 31.7588M23.8386 30.14C23.8386 29.7036 23.9652 29.4156 24.2183 29.2716L24.2968 29.2323M23.8386 30.14L23.8386 31.7588M24.2968 29.2323C24.5412 29.132 24.8292 29.1843 25.1652 29.3807C25.5448 29.5989 25.859 29.9261 26.1164 30.3669C26.1557 30.4323 26.1906 30.5021 26.2212 30.5676C26.4044 30.9385 26.4961 31.3051 26.4961 31.676V34.7261M24.2968 29.2323L30.8682 25.9465M26.4961 34.7261L27.827 35.4985C27.827 35.0621 27.9579 34.7741 28.211 34.6301L28.2895 34.5909M26.4961 34.7261L35.2231 30.3625M28.2895 34.5909L35.9301 30.7727M17.2625 4.76101V2.81483C17.2625 2.48319 17.1665 2.15592 16.9789 1.83301C16.7912 1.50574 16.5512 1.26137 16.2632 1.09555C15.9752 0.925372 15.7352 0.89919 15.5476 1.00392L6.82031 5.36756M17.2625 4.76101L8.53521 9.12465M17.2625 4.76101C18.8596 4.18064 20.6226 4.05413 22.5513 4.38142C24.48 4.70433 26.4873 5.46796 28.5731 6.67233C31.5447 8.38724 34.2066 10.652 36.5542 13.4578C38.9062 16.268 40.5469 19.1218 41.4808 22.028C41.5899 22.3945 41.5811 22.6781 41.4458 22.8658C41.4109 22.9181 41.3717 22.9531 41.3237 22.9836H41.3193L34.9351 26.1778M8.53521 9.12465V7.17847C8.53521 6.84683 8.43921 6.51956 8.25158 6.19665C8.06394 5.86938 7.82394 5.62501 7.53594 5.45919C7.24794 5.28901 7.00794 5.26283 6.82031 5.36756M8.53521 9.12465C10.1323 8.54429 11.8953 8.41774 13.824 8.74501C15.7527 9.06792 17.76 9.83156 19.8458 11.0359C20.2603 11.2759 20.6705 11.5246 21.072 11.7908C21.8661 12.3014 22.6342 12.8556 23.3804 13.4534C23.7862 13.7763 24.1876 14.1123 24.5804 14.4657C25.5054 15.2861 26.3956 16.1806 27.2422 17.145C27.4429 17.3676 27.6349 17.5901 27.8269 17.8214C29.8604 20.2519 31.3614 22.713 32.3345 25.2134C32.413 25.4185 32.4916 25.6279 32.5658 25.833C32.6313 26.0206 32.6924 26.2039 32.7534 26.3916C32.8625 26.7581 32.8538 27.0417 32.7185 27.2294C32.6749 27.2905 32.6224 27.3341 32.5657 27.3603M6.82031 5.36756C6.63267 5.47665 6.53671 5.69483 6.53671 6.02647V10.9879C6.53671 11.4199 6.66325 11.8563 6.9207 12.297C7.17379 12.7377 7.49234 13.065 7.86762 13.2832L12.192 15.7792C12.48 15.9494 12.72 15.9756 12.9077 15.8708M35.2231 30.3625V27.3123C35.2231 26.9327 35.1271 26.5574 34.9351 26.1778M35.2231 30.3625L35.9301 30.7727M30.8682 25.9465C30.9686 26.1254 31.082 26.2912 31.2042 26.4527C31.213 26.4658 31.2217 26.4789 31.2348 26.4876C31.5053 26.8323 31.802 27.0985 32.1206 27.2861C32.2995 27.3865 32.4479 27.4127 32.5657 27.3603M30.8682 25.9465C30.7373 25.7283 30.6239 25.4971 30.5235 25.2571C29.9999 24.0091 29.3585 22.8003 28.5948 21.6352C28.5337 21.5392 28.4726 21.4432 28.4071 21.3472M32.5657 27.3603L34.9351 26.1778M27.242 21.932L28.4071 21.3472M27.242 21.932L27.2422 19.7458M28.4071 21.3472C28.045 20.8061 27.6568 20.2738 27.2422 19.7458M27.2422 19.7458C26.9193 19.34 26.5833 18.9385 26.2299 18.5414C25.7019 17.948 25.152 17.3807 24.5804 16.8527C23.6204 15.9451 22.6037 15.1247 21.5215 14.3829M21.5215 14.3829C20.9804 14.012 20.4218 13.6585 19.8458 13.3268C19.549 13.1566 19.2524 12.9952 18.96 12.8425M15.8531 25.2265L11.1797 27.5654M18.96 12.8425C17.3237 12.0003 15.744 11.4723 14.2211 11.2628C12.4277 11.0185 10.7957 11.2061 9.33387 11.8388L12.192 13.4883C12.48 13.6585 12.72 13.9028 12.9077 14.2257C13.0953 14.553 13.1913 14.8803 13.1913 15.2119C13.1913 15.5436 13.0953 15.7617 12.9077 15.8708M18.96 12.8425L12.9077 15.8708" stroke="#27272A" stroke-opacity="0.25" stroke-linecap="round" stroke-linejoin="round"/>
      </svg>