<svg xmlns="http://www.w3.org/2000/svg" viewBox="0 0 48 48">
        <path d="M9.94486 23.1346L11.7017 24.1458V22.1187L9.94486 23.1346Z" fill="white"/>
<path d="M41.3033 9.32177C37.5518 7.15944 33.0641 6.06895 27.84 6.05963C22.6159 6.05031 18.1421 7.12216 14.4139 9.27517C12.1025 10.608 10.5134 12.1645 9.6419 13.9354C8.77044 15.7109 8.64462 17.4725 9.27374 19.2247L2.71225 23.0134C1.69633 23.6006 1.18837 24.3136 1.19303 25.1524C1.19769 25.9913 1.71034 26.7043 2.73558 27.2961C2.60509 27.5711 2.53976 27.846 2.53044 28.121V28.2701C2.5351 28.5404 2.60042 28.806 2.72158 29.0763C2.98721 29.6728 3.52311 30.2041 4.32933 30.6701C4.5437 30.7959 4.76733 30.9078 5.00034 31.0103C5.63879 31.2899 6.33316 31.4857 7.09277 31.5975C7.42831 31.6441 7.75927 31.6814 8.09481 31.6954C8.79383 31.7326 9.4882 31.7 10.1779 31.5928C10.3923 31.7187 10.6206 31.8305 10.8583 31.9284C11.6318 32.2546 12.5079 32.4317 13.4912 32.4736C13.6217 32.4783 13.7569 32.4829 13.892 32.4829C15.3414 32.4829 16.5763 32.194 17.5922 31.6068L18.4869 31.0895L24.1585 27.8181C27.1876 28.1769 30.226 28.1163 33.2644 27.6317C33.2831 27.627 33.3064 27.627 33.3251 27.6224C36.3449 27.133 39.0291 26.2103 41.3872 24.8495C43.0136 23.9082 44.2858 22.8876 45.1992 21.7831C46.3689 20.3711 46.9561 18.8239 46.9561 17.1416V17.095C46.9421 14.0798 45.0547 11.4888 41.3033 9.32177ZM13.8734 29.4585L8.88233 26.5785L8.09481 26.1218L6.43107 25.1618L8.09481 24.2018L15.5371 28.4985L13.8734 29.4585ZM17.3872 27.4266L11.7017 24.1458L9.94486 23.1346L11.7017 22.1187L19.1441 26.4154L17.3872 27.4266ZM33.106 19.7466C32.7379 19.961 32.2765 20.0682 31.7173 20.0682L26.6051 20.0589H25.5052L22.7138 21.6666L20.5142 22.9389L17.7227 21.3264L22.7138 18.4464L22.6998 15.7575V14.8581C22.6951 14.5365 22.8768 14.2709 23.2497 14.0565C23.6178 13.8422 24.0793 13.735 24.6385 13.735C25.1931 13.7396 25.6591 13.8468 26.0319 14.0612C26.4 14.2756 26.5911 14.5412 26.5911 14.8627V15.4033L26.6051 17.808L31.708 17.8173C32.2625 17.8173 32.7285 17.9291 33.1014 18.1435C33.4695 18.3579 33.6559 18.6235 33.6605 18.9451C33.6605 19.2666 33.4788 19.5369 33.106 19.7466Z" fill="white"/>
<path d="M19.1441 26.4154L17.3872 27.4266L11.7017 24.1458V22.1187L19.1441 26.4154Z" fill="white"/>
<path d="M33.6605 18.9451C33.6605 19.2666 33.4788 19.5369 33.106 19.7466C32.7379 19.961 32.2765 20.0682 31.7173 20.0682L26.6051 20.0589V17.808L31.708 17.8173C32.2625 17.8173 32.7285 17.9291 33.1014 18.1435C33.4695 18.3579 33.6559 18.6235 33.6605 18.9451Z" fill="white"/>
<path d="M26.6051 17.808V20.0589H25.5052L22.7138 21.6666V18.4464L22.6998 15.7575V14.8581C22.6951 14.5365 22.8768 14.2709 23.2497 14.0565C23.6178 13.8422 24.0793 13.735 24.6385 13.735C25.1931 13.7396 25.6591 13.8468 26.0319 14.0612C26.4 14.2756 26.5911 14.5412 26.5911 14.8627V15.4033L26.6051 17.808Z" fill="white"/>
<path d="M22.7138 18.4464V21.6666L20.5142 22.9389L17.7227 21.3264L22.7138 18.4464Z" fill="white"/>
<path d="M46.9561 17.1416V26.4154C46.9747 29.4305 45.1153 32.0169 41.3872 34.1699C39.0151 35.54 36.3075 36.4674 33.2644 36.9521C30.2259 37.4367 27.1876 37.4973 24.1584 37.1385L24.1585 27.8181C27.1876 28.1769 30.226 28.1163 33.2644 27.6317C33.2831 27.627 33.3064 27.627 33.3251 27.6224C36.3449 27.133 39.0291 26.2103 41.3872 24.8495C43.0136 23.9082 44.2858 22.8876 45.1992 21.7831C46.3689 20.3711 46.9561 18.8239 46.9561 17.1416Z" fill="white"/>
<path d="M8.09481 24.2018V26.1218L6.43107 25.1618L8.09481 24.2018Z" fill="white"/>
<path d="M15.5371 28.4985L13.8734 29.4585L8.88233 26.5785L8.09481 26.1218V24.2018L15.5371 28.4985Z" fill="white"/>
<path d="M2.73558 27.2961C2.60509 27.5711 2.53976 27.846 2.53044 28.121C2.52578 28.1723 2.52578 28.2235 2.53044 28.2701L2.53041 36.4907C1.64031 35.9268 1.19765 35.2558 1.19299 34.4728L1.19303 25.1524C1.19769 25.9913 1.71034 26.7043 2.73558 27.2961Z" fill="white"/>
<path d="M2.53041 37.6604V37.5905V37.6604Z" fill="white"/>
<path d="M2.53044 28.121L2.53041 28.0697L2.53044 28.121Z" fill="white"/>
<path d="M10.1779 31.5928L10.1779 40.9132C9.15728 41.0717 8.12733 41.0717 7.09277 40.9132C6.05821 40.7594 5.13549 40.4519 4.32929 39.9858C3.52308 39.5198 2.98718 38.9886 2.72155 38.3921C2.60039 38.1218 2.53507 37.8561 2.53041 37.5859V28.2655C2.53507 28.5358 2.60039 28.8014 2.72155 29.0717C2.98718 29.6682 3.52308 30.1994 4.32929 30.6655C4.54366 30.7913 4.76733 30.9031 5.00034 31.0057C5.63879 31.2853 6.33316 31.481 7.09277 31.5928C7.42831 31.6394 7.75923 31.6767 8.09476 31.6907C8.79379 31.728 9.48816 31.6954 10.1779 31.5882L10.1779 31.5928Z" fill="white"/>
<path d="M24.1585 27.8181L24.1584 37.1385L17.5922 40.9272C16.5763 41.5144 15.3414 41.8033 13.892 41.8033C12.4381 41.7987 11.1984 41.5051 10.1779 40.9132L10.1779 31.5928C10.3923 31.7187 10.6206 31.8305 10.8583 31.9284C11.6318 32.2546 12.5079 32.4317 13.4912 32.4736C13.6217 32.4783 13.7569 32.4829 13.892 32.4829C15.3414 32.4829 16.5763 32.194 17.5922 31.6068L18.4869 31.0895L24.1585 27.8181Z" fill="white"/>
<path d="M11.7017 24.1458L9.94486 23.1346L11.7017 22.1187M11.7017 24.1458V22.1187M11.7017 24.1458L17.3872 27.4266L19.1441 26.4154L11.7017 22.1187M1.19303 25.1524C1.18837 24.3136 1.69633 23.6006 2.71225 23.0134L9.27374 19.2247C8.64462 17.4724 8.77044 15.7109 9.6419 13.9354C10.5134 12.1645 12.1025 10.608 14.4139 9.27517C18.1421 7.12216 22.6159 6.05031 27.84 6.05963C33.0641 6.06895 37.5518 7.15944 41.3033 9.32177C45.0547 11.4888 46.9421 14.0798 46.9561 17.095V17.1416M1.19303 25.1524C1.19769 25.9913 1.71034 26.7043 2.73558 27.2961C2.60509 27.5711 2.53976 27.846 2.53044 28.121M1.19303 25.1524L1.19299 34.4728C1.19765 35.2558 1.64031 35.9268 2.53041 36.4907L2.53044 28.2701M2.53044 28.121V28.2701M2.53044 28.121C2.52578 28.1723 2.52578 28.2235 2.53044 28.2701M2.53044 28.121L2.53041 28.0697M2.53044 28.2701C2.5351 28.5404 2.60042 28.806 2.72158 29.0763C2.98721 29.6728 3.52311 30.2041 4.32933 30.6701C4.5437 30.7959 4.76733 30.9078 5.00034 31.0103C5.63879 31.2899 6.33316 31.4857 7.09277 31.5975C7.42831 31.6441 7.75927 31.6814 8.09481 31.6954C8.79383 31.7326 9.4882 31.7 10.1779 31.5928M10.1779 31.5928C10.3923 31.7187 10.6206 31.8305 10.8583 31.9284C11.6318 32.2546 12.5079 32.4317 13.4912 32.4736C13.6217 32.4783 13.7569 32.4829 13.892 32.4829C15.3414 32.4829 16.5763 32.194 17.5922 31.6068L18.4869 31.0895L24.1585 27.8181M10.1779 31.5928L10.1779 40.9132M10.1779 31.5928L10.1779 31.5882C9.48816 31.6954 8.79379 31.728 8.09476 31.6907C7.75923 31.6767 7.42831 31.6394 7.09277 31.5928C6.33316 31.481 5.63879 31.2853 5.00034 31.0057C4.76733 30.9031 4.54366 30.7913 4.32929 30.6655C3.52308 30.1994 2.98718 29.6682 2.72155 29.0717C2.60039 28.8014 2.53507 28.5358 2.53041 28.2655V37.5859C2.53507 37.8561 2.60039 38.1218 2.72155 38.3921C2.98718 38.9886 3.52308 39.5198 4.32929 39.9858C5.13549 40.4519 6.05821 40.7594 7.09277 40.9132C8.12733 41.0717 9.15728 41.0717 10.1779 40.9132M24.1585 27.8181C27.1876 28.1769 30.226 28.1163 33.2644 27.6317C33.2831 27.627 33.3064 27.627 33.3251 27.6224C36.3449 27.133 39.0291 26.2103 41.3872 24.8495C43.0136 23.9082 44.2858 22.8876 45.1992 21.7831C46.3689 20.3711 46.9561 18.8239 46.9561 17.1416M24.1585 27.8181L24.1584 37.1385M46.9561 17.1416V26.4154C46.9747 29.4305 45.1153 32.0169 41.3872 34.1699C39.0151 35.54 36.3075 36.4674 33.2644 36.9521C30.2259 37.4367 27.1876 37.4973 24.1584 37.1385M8.09481 26.1218L8.88233 26.5785L13.8734 29.4585L15.5371 28.4985L8.09481 24.2018M8.09481 26.1218L6.43107 25.1618L8.09481 24.2018M8.09481 26.1218V24.2018M26.6051 20.0589L31.7173 20.0682C32.2765 20.0682 32.7379 19.961 33.106 19.7466C33.4788 19.5369 33.6605 19.2666 33.6605 18.9451C33.6559 18.6235 33.4695 18.3579 33.1014 18.1435C32.7285 17.9291 32.2625 17.8173 31.708 17.8173L26.6051 17.808M26.6051 20.0589H25.5052L22.7138 21.6666M26.6051 20.0589V17.808M22.7138 21.6666L20.5142 22.9389L17.7227 21.3264L22.7138 18.4464M22.7138 21.6666V18.4464M22.7138 18.4464L22.6998 15.7575V14.8581C22.6951 14.5365 22.8768 14.2709 23.2497 14.0565C23.6178 13.8422 24.0793 13.735 24.6385 13.735C25.1931 13.7396 25.6591 13.8468 26.0319 14.0612C26.4 14.2756 26.5911 14.5412 26.5911 14.8627V15.4033L26.6051 17.808M24.1584 37.1385L17.5922 40.9272C16.5763 41.5144 15.3414 41.8033 13.892 41.8033C12.4381 41.7987 11.1984 41.5051 10.1779 40.9132M2.53041 37.6604V37.5905" stroke="#27272A" stroke-opacity="0.25" stroke-linecap="round" stroke-linejoin="round"/>
      </svg>