<svg xmlns="http://www.w3.org/2000/svg" viewBox="0 0 48 48">
        <path d="M34.3725 27.5336C33.5314 24.809 32.3839 22.1988 30.9439 19.7073C30.2628 18.5325 29.5268 17.4033 28.7314 16.3199C27.84 15.1039 26.88 13.9382 25.8468 12.8319C23.8948 10.7382 21.8103 9.05133 19.5886 7.76676C19.1131 7.49247 18.6468 7.24561 18.1851 7.02161C16.7497 6.33133 15.3691 5.88333 14.0526 5.68676C13.8103 5.65018 13.568 5.62276 13.3303 5.60447C11.9268 5.49018 10.6559 5.62733 9.51766 6.02504C9.06966 6.1759 8.64456 6.3679 8.2377 6.60104C6.79314 7.4239 5.65028 8.71304 4.80914 10.4639C3.968 12.2193 3.54285 14.3679 3.54285 16.9188C3.54285 19.4696 3.968 22.0982 4.80914 24.8273C5.65028 27.5519 6.79314 30.1622 8.2377 32.6536C9.68228 35.145 11.3783 37.4353 13.3303 39.529C15.2823 41.6228 17.3714 43.3096 19.5886 44.5942C21.8103 45.8742 23.8948 46.5965 25.8468 46.7565C27.5611 46.8982 29.0834 46.6559 30.4046 46.0342L30.8434 45.8148C30.8754 45.7965 30.9119 45.7782 30.9439 45.7599C32.3291 44.969 33.44 43.7485 34.272 42.1028C34.304 42.0342 34.3405 41.9656 34.3725 41.897C35.2137 40.1416 35.6343 37.9931 35.6343 35.4422C35.6343 32.8914 35.2137 30.2628 34.3725 27.5336ZM19.5886 26.1805L6.752 18.7702C6.752 14.6559 7.99546 11.8948 10.4823 10.4731C11.2229 10.0479 12.0183 9.7828 12.8594 9.67309C13.9703 9.52223 15.168 9.64561 16.4526 10.0433C17.4446 10.345 18.4914 10.8159 19.5886 11.4513V26.1805Z" fill="white"/>
<path d="M16.4526 10.0433C16.0777 11.2273 15.8946 12.6124 15.8946 14.1987L6.752 18.7702C6.752 14.6559 7.99546 11.8948 10.4823 10.4731C11.2229 10.0479 12.0183 9.7828 12.8594 9.67309C13.9703 9.52223 15.168 9.64561 16.4526 10.0433Z" fill="white"/>
<path d="M19.5883 16.329L19.5886 26.1805L6.752 18.7702L15.8946 14.1987L19.5883 16.329Z" fill="white"/>
<path d="M44.7768 30.8708C44.7768 33.4216 44.3562 35.5702 43.5151 37.3256C42.674 39.0765 41.5265 40.3656 40.0865 41.1885C39.8122 41.3439 39.5242 41.4856 39.2317 41.5999L39.1449 41.641L30.8434 45.8148C30.8754 45.7965 30.9119 45.7782 30.9439 45.7599C32.3291 44.969 33.44 43.7485 34.272 42.1028C34.304 42.0342 34.3405 41.9656 34.3725 41.897C35.2137 40.1416 35.6343 37.9931 35.6343 35.4422C35.6343 32.8914 35.2137 30.2628 34.3725 27.5336C33.5314 24.809 32.3839 22.1988 30.9439 19.7073C30.2628 18.5325 29.5268 17.4033 28.7314 16.3199C27.84 15.1039 26.88 13.9382 25.8468 12.8319C23.8948 10.7382 21.8103 9.05133 19.5886 7.76676C19.1131 7.49247 18.6468 7.24561 18.1851 7.02161C16.7497 6.33133 15.3691 5.88333 14.0526 5.68676C13.8103 5.65018 13.568 5.62276 13.3303 5.60447C11.9268 5.49018 10.6559 5.62733 9.51766 6.02504L17.3803 2.02959C18.8249 1.20673 20.5209 0.873051 22.4729 1.03305C24.4249 1.19305 26.514 1.91533 28.7311 3.19533C30.9529 4.4799 33.0374 6.16676 34.9894 8.26047C36.9414 10.3542 38.642 12.6445 40.0865 15.1359C41.5265 17.6273 42.674 20.2376 43.5151 22.9622C44.3562 25.6913 44.7768 28.3245 44.7768 30.8708Z" fill="white"/>
<path d="M30.4046 46.0342L30.3545 46.0617L30.4046 46.0342Z" fill="white"/>
<path d="M9.51766 6.02504C10.6559 5.62733 11.9268 5.49018 13.3303 5.60447C13.568 5.62276 13.8103 5.65018 14.0526 5.68676C15.3691 5.88333 16.7497 6.33133 18.1851 7.02161C18.6468 7.24561 19.1131 7.49247 19.5886 7.76676C21.8103 9.05133 23.8948 10.7382 25.8468 12.8319C26.88 13.9382 27.84 15.1039 28.7314 16.3199C29.5268 17.4033 30.2628 18.5325 30.9439 19.7073C32.3839 22.1988 33.5314 24.809 34.3725 27.5336C35.2137 30.2628 35.6343 32.8914 35.6343 35.4422C35.6343 37.9931 35.2137 40.1416 34.3725 41.897C34.3405 41.9656 34.304 42.0342 34.272 42.1028C33.44 43.7485 32.3291 44.969 30.9439 45.7599C30.9119 45.7782 30.8754 45.7965 30.8434 45.8148M9.51766 6.02504C9.06966 6.1759 8.64456 6.3679 8.2377 6.60104C6.79314 7.4239 5.65028 8.71304 4.80914 10.4639C3.968 12.2193 3.54285 14.3679 3.54285 16.9188C3.54285 19.4696 3.968 22.0982 4.80914 24.8273C5.65028 27.5519 6.79314 30.1622 8.2377 32.6536C9.68228 35.145 11.3783 37.4353 13.3303 39.529C15.2823 41.6228 17.3714 43.3096 19.5886 44.5942C21.8103 45.8742 23.8948 46.5965 25.8468 46.7565C27.5611 46.8982 29.0834 46.6559 30.4046 46.0342M9.51766 6.02504L17.3803 2.02959C18.8249 1.20673 20.5209 0.873051 22.4729 1.03305C24.4249 1.19305 26.514 1.91533 28.7311 3.19533C30.9529 4.4799 33.0374 6.16676 34.9894 8.26047C36.9414 10.3542 38.642 12.6445 40.0865 15.1359C41.5265 17.6273 42.674 20.2376 43.5151 22.9622C44.3562 25.6913 44.7768 28.3245 44.7768 30.8708C44.7768 33.4216 44.3562 35.5702 43.5151 37.3256C42.674 39.0765 41.5265 40.3656 40.0865 41.1885C39.8122 41.3439 39.5242 41.4856 39.2317 41.5999L39.1449 41.641L30.8434 45.8148M30.4046 46.0342L30.8434 45.8148M30.4046 46.0342L30.3545 46.0617M19.5886 26.1805V11.4513C18.4914 10.8159 17.4446 10.345 16.4526 10.0433M19.5886 26.1805L19.5883 16.329L15.8946 14.1987M19.5886 26.1805L6.752 18.7702M6.752 18.7702C6.752 14.6559 7.99546 11.8948 10.4823 10.4731C11.2229 10.0479 12.0183 9.7828 12.8594 9.67309C13.9703 9.52223 15.168 9.64561 16.4526 10.0433M6.752 18.7702L15.8946 14.1987M16.4526 10.0433C16.0777 11.2273 15.8946 12.6124 15.8946 14.1987" stroke="#27272A" stroke-opacity="0.25" stroke-linecap="round" stroke-linejoin="round"/>
      </svg>