<svg xmlns="http://www.w3.org/2000/svg" viewBox="0 0 48 48">
        <path d="M32.282 38.0957C32.0839 37.7567 31.8782 37.4329 31.6648 37.1243C30.7582 35.8253 29.7143 34.831 28.5258 34.1453L26.2515 32.831V25.8672L28.5258 27.1815C29.9924 28.0272 31.2458 28.1567 32.282 27.5624C33.3182 26.9719 33.8363 25.8367 33.8363 24.1529C33.8363 22.572 33.3791 20.9491 32.4648 19.2767C32.4077 19.1662 32.3467 19.0596 32.282 18.9491C31.7905 18.0996 31.2496 17.3567 30.6591 16.7205C30.0077 16.0158 29.2953 15.4405 28.5258 14.9948C27.7563 14.5491 27.0439 14.3053 26.3925 14.2596C25.9011 14.2177 25.4401 14.2939 25.0172 14.4881L24.7734 14.61C23.7372 15.2043 23.2191 16.3396 23.2191 18.0234V20.6329L17.1505 17.132V14.5186C17.1505 13.2958 16.8763 12.0462 16.3315 10.77C16.1258 10.2862 15.882 9.80243 15.5963 9.311C15.3943 8.96814 15.1886 8.64052 14.9715 8.33195C14.0686 7.0329 13.0248 6.04243 11.8401 5.36052C10.4877 4.57957 9.31435 4.40814 8.32769 4.85386L8.08387 4.97576C7.04768 5.57005 6.5296 6.70528 6.5296 8.38909C6.5296 10.0729 7.04768 11.8062 8.08387 13.5929C9.12006 15.3834 10.3734 16.7015 11.8401 17.5472L14.1143 18.8615V25.8215L11.8401 24.511C10.5067 23.7377 9.34863 23.5624 8.36958 23.9853L8.08387 24.1262C7.04768 24.7167 6.5296 25.8558 6.5296 27.5358C6.5296 29.2158 7.04768 30.9529 8.08387 32.7434C9.12006 34.53 10.3734 35.8481 11.8401 36.6939C13.3067 37.5434 14.5563 37.6691 15.5963 37.0786C16.6324 36.4881 17.1505 35.3491 17.1505 33.6691V31.0558L21.6001 33.6272L22.0191 33.8672L23.2191 34.5605V37.17C23.2191 38.8538 23.7372 40.591 24.7734 42.3776C25.8096 44.1643 27.0591 45.4824 28.5258 46.3281C29.9924 47.1776 31.2458 47.3033 32.282 46.7129C33.3182 46.1224 33.8363 44.9833 33.8363 43.3033C33.8363 42.0805 33.562 40.8271 33.0134 39.5471C32.8077 39.0672 32.5639 38.5833 32.282 38.0957ZM26.2515 19.7758C26.2515 19.0481 26.4724 18.5605 26.9143 18.3091C27.002 18.2596 27.0934 18.2215 27.1848 18.1948C27.5696 18.0881 28.0191 18.1834 28.5258 18.4767C29.0363 18.77 29.482 19.1929 29.8667 19.7453C29.962 19.8786 30.0534 20.0196 30.141 20.1681C30.1829 20.2405 30.221 20.3091 30.2591 20.3815C30.621 21.071 30.8039 21.7453 30.8039 22.4005C30.8039 23.1281 30.5829 23.6158 30.141 23.8672C29.6953 24.1186 29.1582 24.0653 28.5258 23.6996L26.2515 22.3853V19.7758ZM14.1143 31.9167C14.1143 32.6405 13.8934 33.1281 13.4515 33.3834C13.0096 33.6348 12.4724 33.5777 11.8401 33.2119C11.2077 32.85 10.6705 32.2824 10.2286 31.5205C9.78673 30.7586 9.56578 30.012 9.56578 29.2881C9.56578 28.5643 9.78673 28.0729 10.2286 27.8215C10.6705 27.57 11.2077 27.6272 11.8401 27.9891L14.1143 29.3034V31.9167ZM14.1143 15.3796L11.8401 14.0653C11.2077 13.6996 10.6705 13.1358 10.2286 12.3739C9.78673 11.6081 9.56578 10.8653 9.56578 10.1415C9.56578 9.41767 9.78673 8.92624 10.2286 8.67481C10.6705 8.41957 11.2077 8.47671 11.8401 8.84243C12.4724 9.20814 13.0096 9.77195 13.4515 10.5339C13.8934 11.2996 14.1143 12.0424 14.1143 12.7662V15.3796ZM23.2191 31.0786L18.122 28.1339L17.1505 27.5739V20.61L23.2191 24.1148V31.0786ZM30.141 43.0176C29.6953 43.2691 29.1582 43.2119 28.5258 42.8462C27.8934 42.4843 27.3563 41.9205 26.9143 41.1548C26.4724 40.3929 26.2515 39.6462 26.2515 38.9224V36.3129L28.5258 37.6272C29.1582 37.9891 29.6953 38.5529 30.141 39.3186C30.5829 40.0805 30.8039 40.8233 30.8039 41.551C30.8039 42.2786 30.5829 42.7662 30.141 43.0176Z" fill="white"/>
<path d="M14.1143 29.3034V31.9167C14.1143 32.6405 13.8934 33.1281 13.4515 33.3834C13.0096 33.6348 12.4724 33.5777 11.8401 33.2119C11.2077 32.85 10.6705 32.2824 10.2286 31.5205C9.78673 30.7586 9.56578 30.012 9.56578 29.2881C9.56578 28.5643 9.78673 28.0729 10.2286 27.8215C10.6705 27.57 11.2077 27.6272 11.8401 27.9891L14.1143 29.3034Z" fill="white"/>
<path d="M30.8039 41.551C30.8039 42.2748 30.5829 42.7662 30.141 43.0176C29.6953 43.2691 29.1582 43.2119 28.5258 42.8462C27.8934 42.4843 27.3563 41.9205 26.9143 41.1548C26.4724 40.3929 26.2515 39.6462 26.2515 38.9224V36.3129L28.5258 37.6272C29.1582 37.9891 29.6953 38.5529 30.141 39.3186C30.5829 40.0805 30.8039 40.8233 30.8039 41.551Z" fill="white"/>
<path d="M14.1143 12.7662V15.3796L11.8401 14.0653C11.2077 13.6996 10.6705 13.1358 10.2286 12.3739C9.78673 11.6081 9.56578 10.8653 9.56578 10.1415C9.56578 9.41767 9.78673 8.92624 10.2286 8.67481C10.6705 8.41957 11.2077 8.47671 11.8401 8.84243C12.4724 9.20814 13.0096 9.77195 13.4515 10.5339C13.8934 11.2996 14.1143 12.0424 14.1143 12.7662Z" fill="white"/>
<path d="M30.8039 22.4005C30.8039 23.1281 30.5829 23.6158 30.141 23.8672C29.6953 24.1186 29.1582 24.0653 28.5258 23.6996L26.2515 22.3853L30.2591 20.3815C30.621 21.071 30.8039 21.7453 30.8039 22.4005Z" fill="white"/>
<path d="M33.8706 26.77V29.0214L26.2515 32.831V25.8672L28.5258 27.1815C29.9924 28.0272 31.2458 28.1567 32.282 27.5624L33.8706 26.77Z" fill="white"/>
<path d="M23.2193 24.5414L23.2191 31.0786L18.122 28.1339L17.1505 27.5739L23.2193 24.5414Z" fill="white"/>
<path d="M23.2191 24.1148L23.2193 24.5414L17.1505 27.5739V20.61L23.2191 24.1148Z" fill="white"/>
<path d="M24.7697 10.7091V13.3224L17.1505 17.132V14.5186C17.1505 13.2958 16.8763 12.0462 16.3315 10.77C16.1258 10.2862 15.882 9.80243 15.5963 9.311C15.3943 8.96814 15.1886 8.64052 14.9715 8.33195C14.0686 7.0329 13.0248 6.04243 11.8401 5.36052C10.4877 4.57957 9.31435 4.40814 8.32769 4.85386L15.703 1.16619C16.7392 0.575711 17.9926 0.705235 19.4592 1.55095C20.9259 2.39666 22.1754 3.71476 23.2154 5.50144C24.2516 7.29191 24.7697 9.02525 24.7697 10.7091Z" fill="white"/>
<path d="M30.2591 20.3815L26.2515 22.3853V19.7758C26.2515 19.0481 26.4724 18.5605 26.9143 18.3091C27.002 18.2596 27.0934 18.2215 27.1848 18.1948C27.5696 18.0881 28.0191 18.1834 28.5258 18.4767C29.0363 18.77 29.482 19.1929 29.8667 19.7453C29.962 19.8786 30.0534 20.0196 30.141 20.1681C30.1829 20.2405 30.221 20.3091 30.2591 20.3815Z" fill="white"/>
<path d="M41.4554 20.3433C41.4554 22.0272 40.9373 23.1624 39.9011 23.7529L39.6154 23.8938L33.8706 26.77L32.282 27.5624C33.3182 26.9719 33.8363 25.8367 33.8363 24.1529C33.8363 22.572 33.3791 20.9491 32.4648 19.2767C32.4077 19.1662 32.3467 19.0596 32.282 18.9491C31.7905 18.0996 31.2496 17.3567 30.6591 16.7205C30.0077 16.0158 29.2953 15.4405 28.5258 14.9948C27.7563 14.5491 27.0439 14.3053 26.3925 14.2596C25.9011 14.2177 25.4401 14.2939 25.0172 14.4881L25.9659 14.0119L32.3926 10.8005C33.4288 10.21 34.6783 10.3395 36.1449 11.1852C37.6116 12.031 38.8649 13.3491 39.9011 15.1395C40.9373 16.9262 41.4554 18.6595 41.4554 20.3433Z" fill="white"/>
<path d="M22.0191 33.8672L15.5963 37.0786C16.6324 36.4881 17.1505 35.3491 17.1505 33.6691V31.0558L21.6001 33.6272L22.0191 33.8672Z" fill="white"/>
<path d="M25.9659 14.0119L25.0172 14.4881L24.7734 14.61C23.7372 15.2043 23.2191 16.3396 23.2191 18.0234V20.6329L17.1505 17.132L24.7697 13.3224L25.9659 14.0119Z" fill="white"/>
<path d="M14.1144 21.1128L14.1143 25.8215L11.8401 24.511C10.5067 23.7377 9.34863 23.5624 8.36958 23.9853L14.1144 21.1128Z" fill="white"/>
<path d="M41.4553 39.4938C41.4553 41.1738 40.9372 42.3129 39.9011 42.9033L32.282 46.7129C33.3182 46.1224 33.8363 44.9833 33.8363 43.3033C33.8363 42.0805 33.562 40.8271 33.0134 39.5471C32.8077 39.0672 32.5639 38.5833 32.282 38.0957C32.0839 37.7567 31.8782 37.4329 31.6648 37.1243C30.7582 35.8253 29.7143 34.831 28.5258 34.1453L26.2515 32.831L33.8706 29.0214L36.1449 30.3358C37.6115 31.1815 38.8649 32.4996 39.9011 34.2862C40.9372 36.0729 41.4553 37.81 41.4553 39.4938Z" fill="white"/>
<path d="M26.2515 32.831L28.5258 34.1453C29.7143 34.831 30.7582 35.8253 31.6648 37.1243C31.8782 37.4329 32.0839 37.7567 32.282 38.0957C32.5639 38.5833 32.8077 39.0671 33.0134 39.5471C33.562 40.8271 33.8363 42.0805 33.8363 43.3033C33.8363 44.9833 33.3182 46.1224 32.282 46.7129M26.2515 32.831V25.8672L28.5258 27.1815C29.9924 28.0272 31.2458 28.1567 32.282 27.5624M26.2515 32.831L33.8706 29.0214M32.282 27.5624C33.3182 26.9719 33.8363 25.8367 33.8363 24.1529C33.8363 22.572 33.3791 20.9491 32.4648 19.2767C32.4077 19.1662 32.3467 19.0596 32.282 18.9491C31.7905 18.0996 31.2496 17.3567 30.6591 16.7205C30.0077 16.0158 29.2953 15.4405 28.5258 14.9948C27.7563 14.5491 27.0439 14.3053 26.3925 14.2596C25.9011 14.2177 25.4401 14.2939 25.0172 14.4881M32.282 27.5624L33.8706 26.77M25.0172 14.4881L24.7734 14.61C23.7372 15.2043 23.2191 16.3396 23.2191 18.0234V20.6329L17.1505 17.132M25.0172 14.4881L25.9659 14.0119M17.1505 17.132V14.5186C17.1505 13.2958 16.8763 12.0462 16.3315 10.77C16.1258 10.2862 15.882 9.80243 15.5963 9.311C15.3943 8.96814 15.1886 8.64052 14.9715 8.33195C14.0686 7.0329 13.0248 6.04243 11.8401 5.36052C10.4877 4.57957 9.31435 4.40814 8.32769 4.85386M17.1505 17.132L24.7697 13.3224M8.32769 4.85386L8.08387 4.97576C7.04768 5.57005 6.5296 6.70528 6.5296 8.38909C6.5296 10.0729 7.04768 11.8062 8.08387 13.5929C9.12006 15.3834 10.3734 16.7015 11.8401 17.5472L14.1143 18.8615V25.8215M8.32769 4.85386L15.703 1.16619C16.7392 0.575711 17.9926 0.705235 19.4592 1.55095C20.9259 2.39666 22.1754 3.71476 23.2154 5.50144C24.2516 7.29191 24.7697 9.02525 24.7697 10.7091V13.3224M14.1143 25.8215L11.8401 24.511C10.5067 23.7377 9.34863 23.5624 8.36958 23.9853M14.1143 25.8215L14.1144 21.1128L8.36958 23.9853M8.36958 23.9853L8.08387 24.1262C7.04768 24.7167 6.5296 25.8558 6.5296 27.5358C6.5296 29.2158 7.04768 30.9529 8.08387 32.7434C9.12006 34.53 10.3734 35.8481 11.8401 36.6939C13.3067 37.5434 14.5563 37.6691 15.5963 37.0786M15.5963 37.0786C16.6324 36.4881 17.1505 35.3491 17.1505 33.6691V31.0558L21.6001 33.6272L22.0191 33.8672M15.5963 37.0786L22.0191 33.8672M22.0191 33.8672L23.2191 34.5605V37.17C23.2191 38.8538 23.7372 40.591 24.7734 42.3776C25.8096 44.1643 27.0591 45.4824 28.5258 46.3281C29.9924 47.1776 31.2458 47.3033 32.282 46.7129M32.282 46.7129L39.9011 42.9033C40.9372 42.3129 41.4553 41.1738 41.4553 39.4938C41.4553 37.81 40.9372 36.0729 39.9011 34.2862C38.8649 32.4996 37.6115 31.1815 36.1449 30.3358L33.8706 29.0214M30.2591 20.3815C30.221 20.3091 30.1829 20.2405 30.141 20.1681C30.0534 20.0196 29.962 19.8786 29.8667 19.7453C29.482 19.1929 29.0363 18.77 28.5258 18.4767C28.0191 18.1834 27.5696 18.0881 27.1848 18.1948C27.0934 18.2215 27.002 18.2596 26.9143 18.3091C26.4724 18.5605 26.2515 19.0481 26.2515 19.7758V22.3853M30.2591 20.3815C30.621 21.071 30.8039 21.7453 30.8039 22.4005C30.8039 23.1281 30.5829 23.6158 30.141 23.8672C29.6953 24.1186 29.1582 24.0653 28.5258 23.6996L26.2515 22.3853M30.2591 20.3815L26.2515 22.3853M23.2191 31.0786V24.1148M23.2191 31.0786L23.2193 24.5414M23.2191 31.0786L18.122 28.1339L17.1505 27.5739M17.1505 27.5739V20.61L23.2191 24.1148M17.1505 27.5739L23.2193 24.5414M23.2191 24.1148L23.2193 24.5414M30.141 43.0176C29.6953 43.2691 29.1582 43.2119 28.5258 42.8462C27.8934 42.4843 27.3563 41.9205 26.9143 41.1548C26.4724 40.3929 26.2515 39.6462 26.2515 38.9224V36.3129L28.5258 37.6272C29.1582 37.9891 29.6953 38.5529 30.141 39.3186C30.5829 40.0805 30.8039 40.8233 30.8039 41.551M30.141 43.0176C30.5829 42.7662 30.8039 42.2786 30.8039 41.551M30.141 43.0176C30.5829 42.7662 30.8039 42.2748 30.8039 41.551M33.8706 26.77V29.0214M33.8706 26.77L39.6154 23.8938L39.9011 23.7529C40.9373 23.1624 41.4554 22.0272 41.4554 20.3433C41.4554 18.6595 40.9373 16.9262 39.9011 15.1395C38.8649 13.3491 37.6116 12.031 36.1449 11.1852C34.6783 10.3395 33.4288 10.21 32.3926 10.8005L25.9659 14.0119M24.7697 13.3224L25.9659 14.0119M14.1143 31.9167C14.1143 32.6405 13.8934 33.1281 13.4515 33.3834C13.0096 33.6348 12.4724 33.5777 11.8401 33.2119C11.2077 32.85 10.6705 32.2824 10.2286 31.5205C9.78673 30.7586 9.56578 30.012 9.56578 29.2881C9.56578 28.5643 9.78673 28.0729 10.2286 27.8215C10.6705 27.57 11.2077 27.6272 11.8401 27.9891L14.1143 29.3034V31.9167ZM14.1143 15.3796L11.8401 14.0653C11.2077 13.6996 10.6705 13.1358 10.2286 12.3739C9.78673 11.6081 9.56578 10.8653 9.56578 10.1415C9.56578 9.41767 9.78673 8.92624 10.2286 8.67481C10.6705 8.41957 11.2077 8.47671 11.8401 8.84243C12.4724 9.20814 13.0096 9.77195 13.4515 10.5339C13.8934 11.2996 14.1143 12.0424 14.1143 12.7662V15.3796Z" stroke="#27272A" stroke-opacity="0.25" stroke-linecap="round" stroke-linejoin="round"/>
      </svg>