<svg xmlns="http://www.w3.org/2000/svg" viewBox="0 0 48 48">
        <path d="M19.5106 31.0607C19.2894 29.6725 18.8282 28.2607 18.127 26.8254C17.9294 26.4113 17.7035 25.9972 17.4635 25.5784C17.3459 25.3807 17.2282 25.1831 17.1106 24.9948C16.24 23.5972 15.2611 22.4207 14.1835 21.4654C13.5388 20.8913 12.8564 20.3971 12.1364 19.983C10.2258 18.8771 8.57412 18.6325 7.18119 19.2489L6.81412 19.4325C5.34589 20.2701 4.61646 21.8843 4.61646 24.2702C4.61646 26.6561 5.34589 29.1172 6.81412 31.6489C8.28236 34.1807 10.0564 36.0489 12.1364 37.2489C14.2211 38.4489 15.9953 38.6325 17.4635 37.7948C18.9271 36.9619 19.6611 35.3478 19.6611 32.9572C19.6611 32.3313 19.6094 31.7007 19.5106 31.0607ZM13.2235 29.2819L15.2988 32.8584C15.4494 33.1172 15.5247 33.3666 15.5247 33.6113C15.5247 33.856 15.4494 34.0254 15.2988 34.1101C15.1482 34.1948 14.9741 34.1807 14.7717 34.0631C14.5694 33.9501 14.3953 33.7619 14.2447 33.5031L12.1364 29.8231L9.9953 31.0466C9.84471 31.1313 9.66589 31.1172 9.46824 30.9995C9.26589 30.8866 9.09177 30.6984 8.94118 30.4395C8.79059 30.1807 8.71525 29.936 8.71525 29.7054C8.71525 29.4748 8.79059 29.3148 8.94118 29.2301L11.0871 28.0066L8.94118 24.3078C8.79059 24.0489 8.71525 23.8042 8.71525 23.5737C8.71525 23.3431 8.79059 23.183 8.94118 23.0983C9.09177 23.0136 9.26589 23.0278 9.46824 23.1454C9.66589 23.2584 9.84471 23.4466 9.9953 23.7054L12.1364 27.4042L14.2824 26.1854C14.4094 26.1101 14.5553 26.1101 14.7247 26.1854H14.7294C14.7529 26.1995 14.7812 26.2137 14.8094 26.2278C15.0118 26.3454 15.1859 26.5337 15.3365 26.7925C15.4871 27.0513 15.5624 27.296 15.5624 27.5266C15.5624 27.7572 15.4871 27.9125 15.3365 28.0019L13.1905 29.2254L13.2235 29.2819Z" fill="white"/>
<path d="M15.5247 33.6113C15.5247 33.856 15.4494 34.0254 15.2988 34.1101C15.1482 34.1948 14.9741 34.1807 14.7717 34.0631C14.5694 33.9501 14.3953 33.7619 14.2447 33.5031L12.1364 29.8231L13.2235 29.2819L15.2988 32.8584C15.4494 33.1172 15.5247 33.3666 15.5247 33.6113Z" fill="white"/>
<path d="M14.7247 26.1854L11.0871 28.0066L8.94118 24.3078C8.79059 24.0489 8.71525 23.8042 8.71525 23.5737C8.71525 23.3431 8.79059 23.183 8.94118 23.0983C9.09177 23.0136 9.26589 23.0278 9.46824 23.1454C9.66589 23.2584 9.84471 23.4466 9.9953 23.7054L12.1364 27.4042L14.2824 26.1854C14.4094 26.1101 14.5553 26.1101 14.7247 26.1854Z" fill="white"/>
<path d="M15.5624 27.5266C15.5624 27.7572 15.4871 27.9125 15.3365 28.0019L13.1905 29.2254L13.2235 29.2819L12.1364 29.8231L9.9953 31.0466C9.84471 31.1313 9.66589 31.1172 9.46824 30.9995C9.26589 30.8866 9.09177 30.6984 8.94118 30.4395C8.79059 30.1807 8.71525 29.936 8.71525 29.7054C8.71525 29.4748 8.79059 29.3148 8.94118 29.2301L11.0871 28.0066L14.7247 26.1854H14.7294C14.7529 26.1995 14.7812 26.2137 14.8094 26.2278C15.0118 26.3454 15.1859 26.5337 15.3365 26.7925C15.4871 27.0513 15.5624 27.296 15.5624 27.5266Z" fill="white"/>
<path d="M34.0895 45.7572C34.1036 46.2372 33.9577 46.5666 33.6565 46.736C33.3835 46.896 33.0306 46.8489 32.6071 46.6042C32.1789 46.3595 31.8259 45.9972 31.553 45.5219L24.913 34.0725L22.9742 30.7266C22.673 30.176 22.353 29.6113 22.0142 29.0278C21.6753 28.4442 21.3412 27.8842 21.0165 27.3525C21.5718 27.2725 22.0659 27.0748 22.4895 26.7548C22.8001 26.5384 23.073 26.256 23.313 25.9125C23.3318 25.8842 23.3506 25.8607 23.3647 25.8325C23.7553 25.2442 24.0095 24.5242 24.113 23.6584C24.16 23.3337 24.1789 22.9807 24.1789 22.6137C24.1789 22.2466 24.16 21.8513 24.113 21.4701C23.9248 19.6725 23.2895 17.8419 22.2024 15.9689C22.113 15.8137 22.0189 15.6584 21.9248 15.5078C20.993 14.0019 19.9201 12.7737 18.7201 11.8278C18.3012 11.4937 17.8636 11.1972 17.4071 10.9337C15.5248 9.84659 13.9248 9.68189 12.6071 10.4301C11.2942 11.1831 10.6353 12.6372 10.6353 14.7925C10.6353 14.9666 10.64 15.136 10.6541 15.3007C10.6635 15.4654 10.6824 15.6442 10.7107 15.8325C10.2589 15.6301 9.76005 15.456 9.22358 15.3195C8.6824 15.1784 8.20237 15.1031 7.77414 15.0889C7.72237 14.7407 7.68473 14.4019 7.6612 14.0725C7.63767 13.7384 7.62358 13.4042 7.62358 13.056C7.62358 9.92189 8.56946 7.81365 10.4659 6.7313L10.9271 6.50071C12.6495 5.73836 14.6965 6.00189 17.073 7.2913C17.1812 7.35248 17.2942 7.41365 17.4071 7.47954C18.3483 8.02542 19.2377 8.67012 20.0753 9.41365C21.68 10.8254 23.1059 12.6042 24.3483 14.7454C25.5059 16.7454 26.3106 18.7266 26.7577 20.6748C27.0448 21.9125 27.1859 23.136 27.1859 24.3501C27.1859 25.5642 27.0165 26.6654 26.6777 27.5784C26.3389 28.4913 25.873 29.2348 25.2706 29.8042L33.6565 44.3219C33.9341 44.7972 34.0801 45.2772 34.0895 45.7572Z" fill="white"/>
<path d="M36.5977 19.6443C36.5977 20.8819 36.4283 21.9596 36.0895 22.8725C35.7506 23.7855 35.2848 24.5289 34.6824 25.0984L25.2706 29.8042C25.873 29.2348 26.3389 28.4913 26.6777 27.5784C27.0165 26.6654 27.1859 25.5878 27.1859 24.3501C27.1859 23.1125 27.0448 21.9125 26.7577 20.6748C26.3106 18.7266 25.5059 16.7454 24.3483 14.7454C23.1059 12.6042 21.68 10.8254 20.0753 9.41365C19.2377 8.67012 18.3483 8.02542 17.4071 7.47954C17.2942 7.41365 17.1812 7.35248 17.073 7.2913C14.6965 6.00189 12.6495 5.73836 10.9271 6.50071L19.8777 2.02548C21.7695 0.947832 24.0848 1.19723 26.8189 2.7737C29.553 4.35488 31.8636 6.77365 33.76 10.0395C35.6518 13.3054 36.5977 16.5102 36.5977 19.6443Z" fill="white"/>
<path d="M43.5012 41.0513C43.5153 41.5313 43.3694 41.8608 43.0682 42.0302L33.6565 46.736C33.9577 46.5666 34.1036 46.2372 34.0895 45.7572C34.0801 45.2772 33.9341 44.7972 33.6565 44.3219L25.2706 29.8042L34.6824 25.0984L43.0682 39.6161C43.3459 40.0913 43.4918 40.5713 43.5012 41.0513Z" fill="white"/>
<path d="M18.7201 11.8278L10.7107 15.8325C10.6824 15.6442 10.6635 15.4654 10.6541 15.3007C10.64 15.136 10.6353 14.9666 10.6353 14.7925C10.6353 12.6372 11.2942 11.1831 12.6071 10.4301C13.9248 9.68189 15.5248 9.84659 17.4071 10.9337C17.8636 11.1972 18.3012 11.4937 18.7201 11.8278Z" fill="white"/>
<path d="M19.6611 32.9572C19.6611 32.3313 19.6094 31.7007 19.5106 31.0607C19.2894 29.6725 18.8282 28.2607 18.127 26.8254C17.9294 26.4113 17.7035 25.9972 17.4635 25.5784C17.3459 25.3807 17.2282 25.1831 17.1106 24.9948C16.24 23.5972 15.2611 22.4207 14.1835 21.4654C13.5388 20.8913 12.8564 20.3971 12.1364 19.983C10.2258 18.8771 8.57412 18.6325 7.18119 19.2489L16.2259 14.7267C17.6942 13.8891 19.4683 14.0726 21.5483 15.2773C21.6753 15.3526 21.8024 15.4278 21.9248 15.5078C22.0189 15.6584 22.113 15.8137 22.2024 15.9689C23.2895 17.8419 23.9248 19.6725 24.113 21.4701C24.16 21.8513 24.1789 22.2325 24.1789 22.6137C24.1789 22.9948 24.16 23.3337 24.113 23.6584C24.0095 24.5242 23.7553 25.2442 23.3647 25.8325C23.3506 25.8607 23.3318 25.8842 23.313 25.9125C23.073 26.256 22.8001 26.5384 22.4895 26.7548C22.0659 27.0748 21.5718 27.2725 21.0165 27.3525C21.3412 27.8842 21.6753 28.4442 22.0142 29.0278C22.353 29.6113 22.673 30.176 22.9742 30.7266L24.913 34.0725L17.4635 37.7948C18.9271 36.9619 19.6611 35.3478 19.6611 32.9572Z" fill="white"/>
<path d="M7.18119 19.2489C8.57412 18.6325 10.2258 18.8771 12.1364 19.983C12.8564 20.3971 13.5388 20.8913 14.1835 21.4654C15.2611 22.4207 16.24 23.5972 17.1106 24.9948C17.2282 25.1831 17.3459 25.3807 17.4635 25.5784C17.7035 25.9972 17.9294 26.4113 18.127 26.8254C18.8282 28.2607 19.2894 29.6725 19.5106 31.0607C19.6094 31.7007 19.6611 32.3313 19.6611 32.9572C19.6611 35.3478 18.9271 36.9619 17.4635 37.7948M7.18119 19.2489L6.81412 19.4325C5.34589 20.2701 4.61646 21.8843 4.61646 24.2702C4.61646 26.6561 5.34589 29.1172 6.81412 31.6489C8.28236 34.1807 10.0564 36.0489 12.1364 37.2489C14.2211 38.4489 15.9953 38.6325 17.4635 37.7948M7.18119 19.2489L16.2259 14.7267C17.6942 13.8891 19.4683 14.0726 21.5483 15.2773C21.6753 15.3526 21.8024 15.4278 21.9248 15.5078M17.4635 37.7948L24.913 34.0725M13.2235 29.2819L15.2988 32.8584C15.4494 33.1172 15.5247 33.3666 15.5247 33.6113C15.5247 33.856 15.4494 34.0254 15.2988 34.1101C15.1482 34.1948 14.9741 34.1807 14.7717 34.0631C14.5694 33.9501 14.3953 33.7619 14.2447 33.5031L12.1364 29.8231M13.2235 29.2819L13.1905 29.2254L15.3365 28.0019C15.4871 27.9125 15.5624 27.7572 15.5624 27.5266C15.5624 27.296 15.4871 27.0513 15.3365 26.7925C15.1859 26.5337 15.0118 26.3454 14.8094 26.2278C14.7812 26.2137 14.7529 26.1995 14.7294 26.1854H14.7247M13.2235 29.2819L12.1364 29.8231M12.1364 29.8231L9.9953 31.0466C9.84471 31.1313 9.66589 31.1172 9.46824 30.9995C9.26589 30.8866 9.09177 30.6984 8.94118 30.4395C8.79059 30.1807 8.71525 29.936 8.71525 29.7054C8.71525 29.4748 8.79059 29.3148 8.94118 29.2301L11.0871 28.0066M11.0871 28.0066L8.94118 24.3078C8.79059 24.0489 8.71525 23.8042 8.71525 23.5737C8.71525 23.3431 8.79059 23.183 8.94118 23.0983C9.09177 23.0136 9.26589 23.0278 9.46824 23.1454C9.66589 23.2584 9.84471 23.4466 9.9953 23.7054L12.1364 27.4042L14.2824 26.1854C14.4094 26.1101 14.5553 26.1101 14.7247 26.1854M11.0871 28.0066L14.7247 26.1854M33.6565 46.736C33.9577 46.5666 34.1036 46.2372 34.0895 45.7572C34.0801 45.2772 33.9341 44.7972 33.6565 44.3219L25.2706 29.8042M33.6565 46.736C33.3835 46.896 33.0306 46.8489 32.6071 46.6042C32.1789 46.3595 31.8259 45.9972 31.553 45.5219L24.913 34.0725M33.6565 46.736L43.0682 42.0302C43.3694 41.8608 43.5153 41.5313 43.5012 41.0513C43.4918 40.5713 43.3459 40.0913 43.0682 39.6161L34.6824 25.0984M24.913 34.0725L22.9742 30.7266C22.673 30.176 22.353 29.6113 22.0142 29.0278C21.6753 28.4442 21.3412 27.8842 21.0165 27.3525C21.5718 27.2725 22.0659 27.0748 22.4895 26.7548C22.8001 26.5384 23.073 26.256 23.313 25.9125C23.3318 25.8842 23.3506 25.8607 23.3647 25.8325C23.7553 25.2442 24.0095 24.5242 24.113 23.6584M24.113 23.6584C24.1601 23.3337 24.1789 22.9807 24.1789 22.6137M24.113 23.6584C24.1601 23.3337 24.1789 22.9948 24.1789 22.6137M24.1789 22.6137C24.1789 22.2466 24.1601 21.8513 24.113 21.4701M24.1789 22.6137C24.1789 22.2325 24.1601 21.8513 24.113 21.4701M24.113 21.4701C23.9248 19.6725 23.2895 17.8419 22.2024 15.9689C22.113 15.8137 22.0189 15.6584 21.9248 15.5078M21.9248 15.5078C20.993 14.0019 19.9201 12.7737 18.7201 11.8278M18.7201 11.8278C18.3012 11.4937 17.8636 11.1972 17.4071 10.9337C15.5248 9.8466 13.9248 9.68189 12.6071 10.4301C11.2942 11.1831 10.6353 12.6372 10.6353 14.7925C10.6353 14.9666 10.64 15.136 10.6541 15.3007C10.6635 15.4654 10.6824 15.6442 10.7107 15.8325M18.7201 11.8278L10.7107 15.8325M10.7107 15.8325C10.2589 15.6301 9.76005 15.456 9.22358 15.3195C8.6824 15.1784 8.20237 15.1031 7.77414 15.0889C7.72237 14.7407 7.68473 14.4019 7.6612 14.0725C7.63767 13.7384 7.62358 13.4042 7.62358 13.056C7.62358 9.92189 8.56946 7.81365 10.4659 6.7313L10.9271 6.50071M10.9271 6.50071C12.6495 5.73836 14.6965 6.00189 17.073 7.2913C17.1812 7.35248 17.2942 7.41365 17.4071 7.47954C18.3483 8.02542 19.2377 8.67012 20.0753 9.41365C21.6801 10.8254 23.1059 12.6042 24.3483 14.7454C25.5059 16.7454 26.3106 18.7266 26.7577 20.6748M10.9271 6.50071L19.8777 2.02548C21.7695 0.947832 24.0848 1.19723 26.8189 2.7737C29.553 4.35488 31.8636 6.77365 33.76 10.0395C35.6518 13.3054 36.5977 16.5102 36.5977 19.6443C36.5977 20.8819 36.4283 21.9596 36.0895 22.8725C35.7506 23.7855 35.2848 24.5289 34.6824 25.0984M26.7577 20.6748C27.0448 21.9125 27.1859 23.136 27.1859 24.3501M26.7577 20.6748C27.0448 21.9125 27.1859 23.1125 27.1859 24.3501M27.1859 24.3501C27.1859 25.5642 27.0165 26.6654 26.6777 27.5784M27.1859 24.3501C27.1859 25.5878 27.0165 26.6654 26.6777 27.5784M26.6777 27.5784C26.3389 28.4913 25.873 29.2348 25.2706 29.8042M25.2706 29.8042L34.6824 25.0984" stroke="#27272A" stroke-opacity="0.25" stroke-linecap="round" stroke-linejoin="round"/>
      </svg>