<svg xmlns="http://www.w3.org/2000/svg" viewBox="0 0 48 48">
        <path d="M35.9548 26.8093C33.9364 23.3234 31.4814 20.7463 28.5935 19.0781L11.2741 9.07679C10.5227 8.64401 9.79873 8.30565 9.10234 8.06565C7.34759 7.44794 5.78169 7.44401 4.40857 8.05778L3.91284 8.30565C1.89055 9.45843 0.879395 11.6932 0.879395 15.006C0.879395 18.3188 1.89055 21.7142 3.91284 25.2001C5.93119 28.686 8.38628 31.263 11.2741 32.9312L28.5935 42.9324C31.4814 44.5967 33.9364 44.8563 35.9548 43.7036C37.2886 42.9442 38.1856 41.7089 38.6341 40.0093C38.8702 39.1319 38.9882 38.1325 38.9882 37.0073C38.9882 33.6945 37.9771 30.2952 35.9548 26.8093ZM15.8499 26.5181C15.6177 26.8683 15.3187 27.1437 14.9528 27.3522C13.9456 27.9306 12.7181 27.8007 11.2741 26.9666C9.83021 26.1325 8.60267 24.846 7.59152 23.103C6.58037 21.3601 6.07677 19.6604 6.07677 18.004C6.07677 16.3476 6.58037 15.2302 7.59152 14.6558C8.04005 14.4001 8.53185 14.282 9.06693 14.3056C9.73578 14.3332 10.4715 14.5771 11.2741 15.0414C12.7181 15.8755 13.9456 17.162 14.9528 18.905C15.964 20.6479 16.4715 22.3476 16.4715 24.004C16.4715 25.0624 16.263 25.9004 15.8499 26.5181Z" fill="white"/>
<path d="M16.4715 24.004C16.4715 25.0624 16.263 25.9004 15.8499 26.5181C15.6177 26.8683 15.3187 27.1437 14.9528 27.3522C13.9456 27.9306 12.7181 27.8007 11.2741 26.9666C9.83021 26.1325 8.60267 24.846 7.59152 23.103C6.58037 21.3601 6.07677 19.6604 6.07677 18.004C6.07677 16.3476 6.58037 15.2302 7.59152 14.6558C8.04005 14.4001 8.53185 14.282 9.06693 14.3056C9.73578 14.3332 10.4715 14.5771 11.2741 15.0414C12.7181 15.8755 13.9456 17.162 14.9528 18.905C15.964 20.6479 16.4715 22.3476 16.4715 24.004Z" fill="white"/>
<path d="M46.8571 33.0729C46.8571 36.3817 45.8459 38.6165 43.8236 39.7693L35.9548 43.7036C37.2886 42.9442 38.1856 41.7089 38.6341 40.0093C38.8702 39.1319 38.9882 38.1325 38.9882 37.0073C38.9882 33.6945 37.9771 30.2952 35.9548 26.8093C33.9364 23.3234 31.4814 20.7463 28.5935 19.0781L11.2741 9.07679C10.5227 8.64401 9.79873 8.30565 9.10234 8.06565C7.34759 7.44794 5.78169 7.44401 4.40857 8.05778L11.7817 4.37122C13.8 3.21843 16.2551 3.4781 19.143 5.14236L36.4623 15.1437C39.3502 16.8119 41.8053 19.3889 43.8236 22.8748C45.8459 26.3607 46.8571 29.7601 46.8571 33.0729Z" fill="white"/>
<path d="M4.40857 8.05778C5.78169 7.44401 7.34759 7.44794 9.10234 8.06565C9.79873 8.30565 10.5227 8.64401 11.2741 9.07679L28.5935 19.0781C31.4814 20.7463 33.9364 23.3234 35.9548 26.8093C37.9771 30.2952 38.9882 33.6945 38.9882 37.0073C38.9882 38.1325 38.8702 39.1319 38.6341 40.0093C38.1856 41.7089 37.2886 42.9442 35.9548 43.7036M4.40857 8.05778L3.91284 8.30565C1.89055 9.45843 0.879395 11.6932 0.879395 15.006C0.879395 18.3188 1.89055 21.7142 3.91284 25.2001C5.93119 28.686 8.38628 31.263 11.2741 32.9312L28.5935 42.9324C31.4814 44.5967 33.9364 44.8564 35.9548 43.7036M4.40857 8.05778L11.7817 4.37122C13.8 3.21843 16.2551 3.4781 19.143 5.14236L36.4623 15.1437C39.3502 16.8119 41.8053 19.3889 43.8236 22.8748C45.8459 26.3607 46.8571 29.7601 46.8571 33.0729C46.8571 36.3817 45.8459 38.6165 43.8236 39.7693L35.9548 43.7036M15.8499 26.5181C15.6177 26.8683 15.3187 27.1437 14.9528 27.3522C13.9456 27.9306 12.7181 27.8007 11.2741 26.9666C9.83021 26.1325 8.60267 24.846 7.59152 23.103C6.58037 21.3601 6.07677 19.6604 6.07677 18.004C6.07677 16.3476 6.58037 15.2302 7.59152 14.6558C8.04005 14.4001 8.53185 14.282 9.06693 14.3056C9.73578 14.3332 10.4715 14.5771 11.2741 15.0414C12.7181 15.8755 13.9456 17.162 14.9528 18.905C15.964 20.6479 16.4715 22.3476 16.4715 24.004C16.4715 25.0624 16.263 25.9004 15.8499 26.5181Z" stroke="#27272A" stroke-opacity="0.25" stroke-linecap="round" stroke-linejoin="round"/>
      </svg>