<svg xmlns="http://www.w3.org/2000/svg" viewBox="0 0 48 48">
        <path d="M44.1215 15.9997C42.0825 14.8247 39.6287 14.2333 36.7641 14.2295C33.8995 14.2218 31.4534 14.8055 29.4259 15.9767C27.3984 17.1441 26.3923 18.5572 26.4 20.2123C26.4077 21.6791 27.2102 22.954 28.8115 24.0446C29.0189 24.1867 29.2377 24.3249 29.472 24.4593C31.511 25.6382 33.9648 26.2295 36.8294 26.2334C37.3401 26.2334 37.8355 26.218 38.3194 26.1796C39.4329 26.0951 40.4774 25.9147 41.4489 25.6305C42.4281 25.3502 43.3343 24.97 44.1676 24.4861C44.3865 24.3594 44.5939 24.2327 44.7859 24.0983C46.3948 23.0116 47.1935 21.7405 47.1935 20.2698V20.2507C47.1859 18.5956 46.1606 17.1786 44.1215 15.9997ZM33.8726 22.7697C33.6768 22.8849 33.4311 22.9387 33.1392 22.9387C32.8474 22.9387 32.5977 22.881 32.4019 22.7697C32.2752 22.6929 32.1869 22.6084 32.1446 22.5124C32.1177 22.4587 32.1062 22.4011 32.1062 22.3435C32.1062 22.1745 32.2022 22.0324 32.3981 21.9211C32.5939 21.8059 32.8358 21.7521 33.1315 21.7521C33.4272 21.7521 33.6691 21.8097 33.8649 21.9211C33.9571 21.9748 34.0262 22.0324 34.0723 22.0977C34.1337 22.1745 34.1606 22.2551 34.1645 22.3473C34.1645 22.5163 34.0685 22.6583 33.8726 22.7697ZM41.1955 18.5418L36.8025 21.0801C36.6067 21.1914 36.361 21.2491 36.0691 21.2491C35.7735 21.2491 35.5277 21.1915 35.3318 21.0763C35.136 20.9611 35.0361 20.8228 35.0361 20.65C35.0361 20.4772 35.1321 20.3389 35.328 20.2276L39.7209 17.6894C39.9167 17.578 40.1625 17.5204 40.4543 17.5204C40.75 17.5243 40.9958 17.578 41.1916 17.6932C41.3875 17.8084 41.4873 17.9467 41.4873 18.1195C41.4873 18.2923 41.3913 18.4305 41.1955 18.5418Z" fill="white"/>
<path d="M41.4873 18.1195C41.4873 18.2884 41.3913 18.4305 41.1955 18.5418L36.8025 21.0801C36.6067 21.1914 36.361 21.2491 36.0691 21.2491C35.7735 21.2491 35.5277 21.1915 35.3318 21.0763C35.136 20.9611 35.0361 20.8228 35.0361 20.65C35.0361 20.4772 35.1321 20.3389 35.328 20.2276L39.7209 17.6894C39.9167 17.578 40.1625 17.5204 40.4543 17.5204C40.75 17.5243 40.9958 17.578 41.1916 17.6932C41.3875 17.8084 41.4873 17.9467 41.4873 18.1195Z" fill="white"/>
<path d="M34.1645 22.3473C34.1645 22.5163 34.0685 22.6583 33.8726 22.7697C33.6768 22.8849 33.4311 22.9387 33.1392 22.9387C32.8474 22.9387 32.5977 22.881 32.4019 22.7697C32.2752 22.6929 32.1869 22.6084 32.1446 22.5124C32.1177 22.4587 32.1062 22.4011 32.1062 22.3435C32.1062 22.1745 32.2022 22.0324 32.3981 21.9211C32.5939 21.8059 32.8358 21.7521 33.1315 21.7521C33.4272 21.7521 33.6691 21.8097 33.8649 21.9211C33.9571 21.9748 34.0262 22.0324 34.0723 22.0977C34.1337 22.1745 34.1606 22.2551 34.1645 22.3473Z" fill="white"/>
<path d="M23.6964 16.5374V16.5451C23.6964 16.8676 23.489 17.1479 23.0781 17.386C22.6864 17.6087 22.2026 17.7278 21.6266 17.7316C21.0544 17.7393 20.5552 17.6203 20.1366 17.3784L13.2477 13.4001C12.8291 13.1582 12.6179 12.8779 12.6179 12.5515C12.6179 12.2251 12.8215 11.9448 13.2362 11.7028C13.6547 11.4648 14.1424 11.3457 14.7069 11.3457C15.2714 11.3457 15.7591 11.4686 16.1776 11.7105L23.0666 15.6887C23.4851 15.9307 23.6964 16.211 23.6964 16.5374Z" fill="white"/>
<path d="M47.1935 20.2698V27.9308C47.2012 29.5858 46.1951 30.9951 44.1676 32.1663C42.1401 33.3375 39.694 33.9173 36.8294 33.9135C33.9647 33.9097 31.511 33.3183 29.4719 32.1394C27.4329 30.9605 26.4076 29.5474 26.3999 27.8924L26.4 20.2123C26.4077 21.6791 27.2102 22.954 28.8115 24.0446C29.0189 24.1867 29.2377 24.3249 29.472 24.4593C31.511 25.6382 33.9648 26.2295 36.8294 26.2334C37.3401 26.2334 37.8355 26.218 38.3194 26.1796C39.4329 26.0951 40.4774 25.9147 41.4489 25.6305C42.4281 25.3502 43.3343 24.97 44.1676 24.4861C44.3865 24.3594 44.5939 24.2327 44.7859 24.0983C46.3948 23.0116 47.1935 21.7405 47.1935 20.2698Z" fill="white"/>
<path d="M22.6289 22.6853V30.3653C22.6289 30.6917 22.4254 30.9758 22.0107 31.2139C21.619 31.4405 21.1428 31.5595 20.5783 31.5711C20.3134 31.5787 20.0638 31.5557 19.8295 31.5019V27.8347C19.8257 27.5122 19.6183 27.228 19.1998 26.9861L6.75819 19.8053V15.9346C6.75819 16.261 6.96939 16.5413 7.38795 16.7832L12.618 19.8053L12.7179 19.8591L19.0693 23.5301C19.5109 23.7835 20.0139 23.9064 20.5783 23.8911C21.1428 23.8795 21.619 23.7605 22.0107 23.5339C22.2603 23.3918 22.4331 23.2344 22.5291 23.0577C22.5944 22.9425 22.6289 22.8158 22.6289 22.6853Z" fill="white"/>
<path d="M22.6289 22.6853C22.6289 22.8158 22.5944 22.9425 22.5291 23.0577C22.4331 23.2344 22.2603 23.3918 22.0107 23.5339C21.619 23.7605 21.1428 23.8795 20.5783 23.8911C20.0139 23.9064 19.5109 23.7835 19.0693 23.5301L12.7179 19.8591L12.618 19.8053L7.38795 16.7832C6.96939 16.5413 6.75819 16.261 6.75819 15.9346C6.75819 15.6082 6.96171 15.3278 7.37643 15.0859C7.79499 14.8478 8.2827 14.7287 8.84718 14.7287C9.41166 14.7287 9.89931 14.8516 10.3179 15.0935L12.618 16.4222L21.9992 21.8366C22.4177 22.0785 22.6289 22.3627 22.6289 22.6853Z" fill="white"/>
<path d="M19.8295 27.8347C19.8295 27.9653 19.7951 28.092 19.7298 28.2072C19.63 28.3838 19.4572 28.5413 19.2076 28.6833C18.7929 28.9214 18.3051 29.0405 17.7407 29.0405C17.1762 29.0405 16.6885 28.9176 16.27 28.6795L6.85814 23.2421L6.7583 23.1883L1.52821 20.1662C1.10965 19.9243 0.902277 19.644 0.898438 19.3176C0.898438 18.9912 1.10195 18.7109 1.51667 18.469C1.93523 18.2309 2.42294 18.1118 2.98742 18.1118C3.5519 18.1118 4.03958 18.2347 4.45814 18.4767L6.75819 19.8053L19.1998 26.9861C19.6183 27.228 19.8257 27.5122 19.8295 27.8347Z" fill="white"/>
<path d="M19.8297 28.2649V35.5148C19.8297 35.8412 19.6223 36.1253 19.2076 36.3634C18.7929 36.6015 18.3051 36.7205 17.7407 36.7205C17.1762 36.7205 16.6885 36.5976 16.27 36.3595L1.52821 27.8463C1.10965 27.6043 0.902277 27.324 0.898438 26.9976V19.3176C0.898438 19.644 1.10965 19.9243 1.52821 20.1662L6.7583 23.1883L6.85814 23.2421L16.27 28.6795C16.6885 28.9176 17.1762 29.0405 17.7407 29.0405C18.3051 29.0405 18.7929 28.9214 19.2076 28.6833C19.4572 28.5413 19.63 28.3838 19.7298 28.2072L19.8297 28.2649Z" fill="white"/>
<path d="M23.6964 16.5451V24.2174C23.7002 24.5438 23.4928 24.8241 23.0781 25.0661C22.9399 25.1429 22.7901 25.212 22.6288 25.2619L22.6289 22.6853C22.6289 22.3627 22.4177 22.0785 21.9992 21.8366L12.618 16.4222L12.6179 12.5515C12.6179 12.8779 12.8291 13.1582 13.2477 13.4001L20.1366 17.3784C20.5552 17.6203 21.0544 17.7393 21.6266 17.7316C22.2026 17.7278 22.6864 17.6087 23.0781 17.386C23.489 17.1479 23.6964 16.8676 23.6964 16.5451Z" fill="white"/>
<path d="M26.4 20.2123C26.3923 18.5572 27.3984 17.1441 29.4259 15.9767C31.4534 14.8055 33.8995 14.2218 36.7641 14.2295C39.6287 14.2333 42.0825 14.8247 44.1215 15.9997C46.1606 17.1786 47.1859 18.5956 47.1935 20.2507V20.2698M26.4 20.2123C26.4077 21.6791 27.2102 22.954 28.8115 24.0446C29.0189 24.1867 29.2377 24.3249 29.472 24.4593C31.511 25.6382 33.9648 26.2295 36.8294 26.2334C37.3401 26.2334 37.8355 26.218 38.3194 26.1796C39.4329 26.0951 40.4774 25.9147 41.4489 25.6305C42.4281 25.3502 43.3343 24.97 44.1676 24.4861C44.3865 24.3594 44.5939 24.2327 44.7859 24.0983C46.3948 23.0116 47.1935 21.7405 47.1935 20.2698M26.4 20.2123L26.3999 27.8924C26.4076 29.5474 27.4329 30.9605 29.4719 32.1394C31.511 33.3183 33.9647 33.9097 36.8294 33.9135C39.694 33.9173 42.1401 33.3375 44.1676 32.1663C46.1951 30.9951 47.2012 29.5858 47.1935 27.9308V20.2698M41.1955 18.5418L36.8025 21.0801C36.6067 21.1914 36.361 21.2491 36.0691 21.2491C35.7735 21.2491 35.5277 21.1915 35.3318 21.0763C35.136 20.9611 35.0361 20.8228 35.0361 20.65C35.0361 20.4772 35.1321 20.3389 35.328 20.2276L39.7209 17.6894C39.9167 17.578 40.1625 17.5204 40.4543 17.5204C40.75 17.5243 40.9958 17.578 41.1916 17.6932C41.3875 17.8084 41.4873 17.9467 41.4873 18.1195M41.1955 18.5418C41.3913 18.4305 41.4873 18.2923 41.4873 18.1195M41.1955 18.5418C41.3913 18.4305 41.4873 18.2884 41.4873 18.1195M23.6964 16.5451V16.5374C23.6964 16.211 23.4851 15.9307 23.0666 15.6887L16.1776 11.7105C15.7591 11.4686 15.2714 11.3457 14.7069 11.3457C14.1424 11.3457 13.6547 11.4648 13.2362 11.7028C12.8215 11.9448 12.6179 12.2251 12.6179 12.5515M23.6964 16.5451C23.6964 16.8676 23.489 17.1479 23.0781 17.386C22.6864 17.6087 22.2026 17.7278 21.6266 17.7316C21.0544 17.7393 20.5552 17.6203 20.1366 17.3784L13.2477 13.4001C12.8291 13.1582 12.6179 12.8779 12.6179 12.5515M23.6964 16.5451V24.2174C23.7002 24.5438 23.4928 24.8241 23.0781 25.0661C22.9399 25.1429 22.7901 25.212 22.6288 25.2619L22.6289 22.6853M12.6179 12.5515L12.618 16.4222M22.6289 22.6853V30.3653C22.6289 30.6917 22.4254 30.9758 22.0107 31.2139C21.619 31.4405 21.1428 31.5595 20.5783 31.5711C20.3134 31.5787 20.0638 31.5557 19.8295 31.5019V27.8347M22.6289 22.6853C22.6289 22.8158 22.5944 22.9425 22.5291 23.0577C22.4331 23.2344 22.2603 23.3918 22.0107 23.5339C21.619 23.7605 21.1428 23.8795 20.5783 23.8911C20.0139 23.9064 19.5109 23.7835 19.0693 23.5301L12.7179 19.8591L12.618 19.8053L7.38795 16.7832C6.96939 16.5413 6.75819 16.261 6.75819 15.9346M22.6289 22.6853C22.6289 22.3627 22.4177 22.0785 21.9992 21.8366L12.618 16.4222M19.8295 27.8347C19.8257 27.5122 19.6183 27.228 19.1998 26.9861L6.75819 19.8053M19.8295 27.8347C19.8295 27.9653 19.7951 28.092 19.7298 28.2072M6.75819 19.8053V15.9346M6.75819 19.8053L4.45814 18.4767C4.03958 18.2347 3.5519 18.1118 2.98742 18.1118C2.42294 18.1118 1.93523 18.2309 1.51667 18.469C1.10195 18.7109 0.898438 18.9912 0.898438 19.3176M6.75819 15.9346C6.75819 15.6082 6.96171 15.3278 7.37643 15.0859C7.79499 14.8478 8.2827 14.7287 8.84718 14.7287C9.41166 14.7287 9.89931 14.8516 10.3179 15.0935L12.618 16.4222M19.7298 28.2072C19.63 28.3838 19.4572 28.5413 19.2076 28.6833C18.7929 28.9214 18.3051 29.0405 17.7407 29.0405C17.1762 29.0405 16.6885 28.9176 16.27 28.6795L6.85814 23.2421L6.7583 23.1883L1.52821 20.1662M19.7298 28.2072L19.8297 28.2649V35.5148C19.8297 35.8412 19.6223 36.1253 19.2076 36.3634C18.7929 36.6015 18.3051 36.7205 17.7407 36.7205C17.1762 36.7205 16.6885 36.5976 16.27 36.3595L1.52821 27.8463C1.10965 27.6043 0.902277 27.324 0.898438 26.9976V19.3176M1.52821 20.1662C1.10965 19.9243 0.902277 19.644 0.898438 19.3176M1.52821 20.1662C1.10965 19.9243 0.898438 19.644 0.898438 19.3176M33.8726 22.7697C33.6768 22.8849 33.4311 22.9387 33.1392 22.9387C32.8474 22.9387 32.5977 22.881 32.4019 22.7697C32.2752 22.6929 32.1869 22.6084 32.1446 22.5124C32.1177 22.4587 32.1062 22.4011 32.1062 22.3435C32.1062 22.1745 32.2022 22.0324 32.3981 21.9211C32.5939 21.8059 32.8358 21.7521 33.1315 21.7521C33.4272 21.7521 33.6691 21.8097 33.8649 21.9211C33.9571 21.9748 34.0262 22.0324 34.0723 22.0977C34.1337 22.1745 34.1606 22.2551 34.1645 22.3473C34.1645 22.5163 34.0685 22.6583 33.8726 22.7697Z" stroke="#27272A" stroke-opacity="0.25" stroke-linecap="round" stroke-linejoin="round"/>
      </svg>