<svg xmlns="http://www.w3.org/2000/svg" viewBox="0 0 48 48">
        <path d="M18.3208 24.7045V45.3086L3.35999 16.0645L18.3208 24.7045Z" fill="white"/>
<path d="M28.8539 7.68024L27.8625 8.17369V8.17818L22.3716 10.9191V10.9236L19.8819 12.1662L19.3614 11.8657L22.8247 10.1341L28.3334 7.37967L28.8539 7.68024Z" fill="white"/>
<path d="M26.1847 23.5741L26.4358 24.2964L24.48 25.2743L24.2288 24.5565L20.4336 13.7453L20.2273 13.1531L19.8819 12.1662L22.3716 10.9236V10.9191L27.8625 8.17818V8.17369L28.8539 7.68024L29.8048 10.3853L22.8337 13.8709L26.1847 23.5741Z" fill="white"/>
<path d="M21.0931 23.3184L18.8995 24.4175L18.3208 24.7045L3.35999 16.0645L6.1323 14.6784L11.9013 18.0114L17.3428 15.2929L15.674 18.1146L14.7633 19.6623L21.0931 23.3184Z" fill="white"/>
<path d="M16.4142 10.1655L16.0778 10.7531L14.7858 12.9961L11.9013 18.0114L6.1323 14.6784L2.92487 12.8257L6.52261 6.64397C6.72 6.34341 6.96228 6.1236 7.24042 5.98005L7.28972 5.95318C7.44673 5.87692 7.62172 5.82308 7.80565 5.79168C8.33948 5.70196 8.94051 5.85 9.60444 6.23131L16.4142 10.1655Z" fill="white"/>
<path d="M24.48 25.2743L23.695 24.8212L21.0931 23.3184L14.7633 19.6623L15.674 18.1146L17.3428 15.2929L17.3428 15.2885L17.7017 14.6784L19.0161 12.4533L19.3614 11.8657L19.8819 12.1662L20.2273 13.1531L20.4336 13.7453L24.2288 24.5565L24.48 25.2743Z" fill="white"/>
<path d="M35.8878 34.8474L20.9227 46.8114V26.2074L35.8878 34.8474Z" fill="white"/>
<path d="M44.8598 30.3614L29.8946 42.3255L20.9227 46.8114L35.8878 34.8474L44.8598 30.3614Z" fill="white"/>
<path d="M25.3862 5.67953L22.8247 10.1341L19.3614 11.8657L19.0161 12.4533L17.7017 14.6784L17.3428 15.2885L17.3428 15.2929L11.9013 18.0114L14.7858 12.9961L16.0778 10.7531L16.4142 10.1655L25.3862 5.67953Z" fill="white"/>
<path d="M36.323 32.1109L27.3421 26.9251L27.2928 26.7815L26.4358 24.2964L26.1847 23.5741L22.8337 13.8709L24.0807 14.5886L29.6434 17.8007C30.3073 18.1864 30.9085 18.7292 31.4423 19.438C31.523 19.5457 31.5993 19.6534 31.6711 19.761C31.9985 20.2321 32.2766 20.73 32.5099 21.2593C32.5862 21.4253 32.6534 21.5958 32.7207 21.7707L36.323 32.1109Z" fill="white"/>
<path d="M45.2949 27.6249L42.5226 29.0111L36.323 32.1109L32.7207 21.7707C32.6534 21.5958 32.5862 21.4253 32.5099 21.2593C32.2766 20.73 31.9985 20.2321 31.6711 19.761C31.5993 19.6534 31.523 19.5457 31.4423 19.438C30.9085 18.7292 30.3073 18.1864 29.6434 17.8007L24.0807 14.5886L22.8337 13.8709L29.8048 10.3853L31.8056 9.38495L38.6154 13.3147C39.2793 13.7005 39.8804 14.2432 40.4142 14.952C40.9481 15.6608 41.3742 16.4369 41.6927 17.2848L45.2949 27.6249Z" fill="white"/>
<path d="M44.8598 30.3614L35.8878 34.8474L20.9227 26.2074L23.695 24.8212L24.48 25.2743L26.4358 24.2964L27.2928 26.7815L27.3421 26.9251L36.323 32.1109L42.5226 29.0111L44.8598 30.3614Z" fill="white"/>
<path d="M23.695 24.8212L20.9227 26.2074L20.9227 44.0077L18.3208 45.3086V24.7045L18.8995 24.4175L21.0931 23.3184L23.695 24.8212Z" fill="white"/>
<path d="M16.3873 1.40885L16.3066 1.44921L16.3873 1.40885Z" fill="white"/>
<path d="M25.3862 5.67953L16.4142 10.1655L9.60444 6.23131C8.94051 5.85 8.33948 5.70196 7.80565 5.79168C7.62172 5.82308 7.44673 5.87692 7.28972 5.95318L16.3066 1.44921C16.4501 1.38192 16.6071 1.33261 16.7776 1.3057C17.3114 1.21598 17.9125 1.36401 18.5764 1.74531L25.3862 5.67953Z" fill="white"/>
<path d="M7.24042 5.98005L7.28972 5.95318L7.24042 5.98005Z" fill="white"/>
<path d="M18.3208 24.7045V45.3086M18.3208 24.7045L3.35999 16.0645M18.3208 24.7045L18.8995 24.4175L21.0931 23.3184M18.3208 45.3086L3.35999 16.0645M18.3208 45.3086L20.9227 44.0077L20.9227 26.2074M3.35999 16.0645L6.1323 14.6784M28.8539 7.68024L27.8625 8.17369V8.17818L22.3716 10.9191V10.9236L19.8819 12.1662M28.8539 7.68024L28.3334 7.37967L22.8247 10.1341M28.8539 7.68024L29.8048 10.3853M19.8819 12.1662L19.3614 11.8657M19.8819 12.1662L20.2273 13.1531L20.4336 13.7453L24.2288 24.5565L24.48 25.2743M19.3614 11.8657L22.8247 10.1341M19.3614 11.8657L19.0161 12.4533L17.7017 14.6784L17.3428 15.2885L17.3428 15.2929M22.8247 10.1341L25.3862 5.67953M26.4358 24.2964L26.1847 23.5741L22.8337 13.8709M26.4358 24.2964L24.48 25.2743M26.4358 24.2964L27.2928 26.7815L27.3421 26.9251L36.323 32.1109M24.48 25.2743L23.695 24.8212M29.8048 10.3853L31.8056 9.38495L38.6154 13.3147C39.2793 13.7005 39.8804 14.2432 40.4142 14.952C40.9481 15.6608 41.3742 16.4369 41.6927 17.2848L45.2949 27.6249L42.5226 29.0111M29.8048 10.3853L22.8337 13.8709M22.8337 13.8709L24.0807 14.5886L29.6434 17.8007C30.3073 18.1864 30.9085 18.7292 31.4423 19.438C31.523 19.5457 31.5993 19.6534 31.6711 19.761C31.9985 20.2321 32.2766 20.73 32.5099 21.2593C32.5862 21.4253 32.6534 21.5958 32.7207 21.7707L36.323 32.1109M21.0931 23.3184L23.695 24.8212M21.0931 23.3184L14.7633 19.6623L15.674 18.1146L17.3428 15.2929M6.1323 14.6784L11.9013 18.0114M6.1323 14.6784L2.92487 12.8257L6.52261 6.64397C6.72 6.34341 6.96228 6.1236 7.24042 5.98005L7.28972 5.95318M11.9013 18.0114L17.3428 15.2929M11.9013 18.0114L14.7858 12.9961L16.0778 10.7531L16.4142 10.1655M16.4142 10.1655L25.3862 5.67953M16.4142 10.1655L9.60444 6.23131C8.94051 5.85 8.33948 5.70196 7.80565 5.79168C7.62172 5.82308 7.44673 5.87692 7.28972 5.95318M7.28972 5.95318L16.3066 1.44921M23.695 24.8212L20.9227 26.2074M35.8878 34.8474L44.8598 30.3614M35.8878 34.8474L20.9227 46.8114M35.8878 34.8474L20.9227 26.2074M20.9227 46.8114V26.2074M20.9227 46.8114L29.8946 42.3255L44.8598 30.3614M44.8598 30.3614L42.5226 29.0111M25.3862 5.67953L18.5764 1.74531C17.9125 1.36401 17.3114 1.21598 16.7776 1.3057C16.6071 1.33261 16.4501 1.38192 16.3066 1.44921M36.323 32.1109L42.5226 29.0111M16.3873 1.40885L16.3066 1.44921" stroke="#27272A" stroke-opacity="0.25" stroke-linecap="round" stroke-linejoin="round"/>
      </svg>