<svg xmlns="http://www.w3.org/2000/svg" viewBox="0 0 48 48">
        <path d="M30.75 21.0827C30.36 19.9898 29.8799 18.8884 29.3099 17.7827C29.0528 17.2813 28.7786 16.7798 28.4871 16.2741C26.0786 12.117 23.1471 9.04413 19.6971 7.05127C18.5657 6.39984 17.4899 5.92413 16.4742 5.6327C14.5628 5.08842 12.8528 5.17841 11.3314 5.90699L11.13 6.00556C11.0528 6.04413 10.98 6.0827 10.9071 6.12556C8.49854 7.49699 7.29428 10.167 7.29428 14.1227C7.29428 16.5784 7.80001 19.1456 8.81144 21.8241C9.82716 24.5027 11.1728 26.9627 12.8571 29.2127V36.1813C12.8571 37.2613 13.1915 38.3798 13.86 39.5327C14.5286 40.6898 15.3343 41.5384 16.2771 42.0827C16.62 42.9658 17.0914 43.7882 17.6871 44.5425C18.2871 45.2968 18.9557 45.8886 19.6971 46.3172C20.4386 46.7458 21.1114 46.9258 21.7071 46.8615C22.3071 46.8015 22.7786 46.5229 23.1214 46.0343C23.2071 46.0815 23.2886 46.1282 23.3743 46.1711C24.2057 46.5911 24.9257 46.6258 25.5386 46.2743C26.0915 45.9572 26.4172 45.4043 26.5072 44.6115C26.5329 44.4443 26.5414 44.2682 26.5414 44.0839V37.1156C27.1457 37.0041 27.7115 36.8156 28.23 36.5541L28.3243 36.507C28.5086 36.4127 28.6843 36.3056 28.8557 36.1856C29.2972 35.8898 29.6957 35.5341 30.0599 35.1141C30.2442 34.9041 30.42 34.6813 30.5829 34.4413C30.7415 34.2098 30.8914 33.9613 31.0199 33.7041C31.2642 33.2413 31.4657 32.7356 31.6243 32.187C31.9457 31.1027 32.1042 29.8556 32.1042 28.4456C32.1042 26.0284 31.6543 23.5727 30.75 21.0827ZM23.1214 42.1084L16.2771 38.157V36.3913L17.9143 37.3384L23.1214 40.3427V42.1084ZM23.1214 38.3756L16.2771 34.4284V32.5598L18.0128 33.5627L23.1214 36.5113V38.3756ZM23.8457 24.417L21.4286 25.797L20.9828 26.0498V31.3513L18.4157 29.8684V24.567L15.5486 19.6256C15.2914 19.1841 15.1628 18.7641 15.1628 18.3741C15.1628 17.9841 15.2914 17.7098 15.5486 17.5641C15.8057 17.4184 16.1057 17.4441 16.4485 17.6413C16.7914 17.8384 17.0914 18.1598 17.3443 18.6013L19.6971 22.6598L19.8428 22.5784L22.05 21.3184C22.2 21.2327 22.3629 21.207 22.5386 21.237H22.5429C22.6715 21.2584 22.8043 21.3141 22.95 21.3956C23.1857 21.5327 23.4 21.7256 23.5928 21.9784C23.6828 22.0898 23.7642 22.2184 23.8457 22.3556C24.1028 22.797 24.2314 23.217 24.2314 23.607C24.2314 23.997 24.1028 24.2713 23.8457 24.417Z" fill="white"/>
<path d="M23.1214 40.3427V42.1084L16.2771 38.157L17.9143 37.3384L23.1214 40.3427Z" fill="white"/>
<path d="M17.9143 37.3384L16.2771 38.157V36.3913L17.9143 37.3384Z" fill="white"/>
<path d="M18.0128 33.5627L16.2771 34.4284V32.5598L18.0128 33.5627Z" fill="white"/>
<path d="M23.1214 36.5113V38.3756L16.2771 34.4284L18.0128 33.5627L23.1214 36.5113Z" fill="white"/>
<path d="M22.5386 21.237L19.8472 22.5827C19.8472 22.5827 19.8428 22.5827 19.8428 22.5784L22.05 21.3184C22.2 21.2327 22.3629 21.207 22.5386 21.237Z" fill="white"/>
<path d="M20.9828 28.587V31.3513L18.4157 29.8684L20.9828 28.587Z" fill="white"/>
<path d="M23.5928 21.9784L20.46 23.547L18.4157 24.567L15.5486 19.6256C15.2914 19.1841 15.1628 18.7641 15.1628 18.3741C15.1628 17.9841 15.2914 17.7098 15.5486 17.5641C15.8057 17.4184 16.1057 17.4441 16.4485 17.6413C16.7914 17.8384 17.0914 18.1598 17.3443 18.6013L19.6971 22.6598L19.8472 22.5827L22.5386 21.237H22.5429C22.6715 21.2584 22.8043 21.3141 22.95 21.3956C23.1857 21.5327 23.4 21.7256 23.5928 21.9784Z" fill="white"/>
<path d="M24.2314 23.607C24.2314 24.0013 24.1028 24.2713 23.8457 24.417L21.4286 25.797L20.9828 26.0498V28.587L18.4157 29.8684V24.567L20.46 23.547L23.5928 21.9784C23.6828 22.0898 23.7642 22.2184 23.8457 22.3556C24.1028 22.797 24.2314 23.217 24.2314 23.607Z" fill="white"/>
<path d="M40.6757 24.1598C40.6757 26.6798 40.1657 28.6769 39.1543 30.1555C38.5286 31.0727 37.7743 31.7584 36.8915 32.2256L35.1128 33.1127L30.5486 35.397L28.9071 36.2156L28.3243 36.507C28.5086 36.4127 28.6843 36.3056 28.8557 36.1856C29.2972 35.8898 29.6957 35.5341 30.0599 35.1141C30.2442 34.9041 30.42 34.6813 30.5829 34.4413C30.7415 34.2098 30.8914 33.9613 31.0199 33.7041C31.2642 33.2413 31.4657 32.7356 31.6243 32.187C31.9457 31.1027 32.1042 29.8556 32.1042 28.4456C32.1042 26.0284 31.6543 23.5727 30.75 21.0827C30.36 19.9898 29.8799 18.8884 29.3099 17.7827C29.0528 17.2813 28.7786 16.7798 28.4871 16.2741C26.0786 12.117 23.1471 9.04413 19.6971 7.05127C18.5657 6.39984 17.4899 5.92413 16.4742 5.6327C14.5628 5.08842 12.8528 5.17841 11.3314 5.90699L19.4786 1.83982C21.8914 0.464108 24.8186 0.772692 28.2686 2.76555C31.7186 4.75841 34.65 7.83127 37.0586 11.9884C39.4671 16.1456 40.6757 20.1998 40.6757 24.1598Z" fill="white"/>
<path d="M35.1128 33.1127V39.7984C35.1128 40.8784 34.7786 41.607 34.11 41.9884L25.5386 46.2743C26.0915 45.9572 26.4172 45.4043 26.5072 44.6115C26.5329 44.4443 26.5414 44.2682 26.5414 44.0839V37.1156C27.1457 37.0041 27.7115 36.8156 28.23 36.5541L28.3243 36.507L28.9071 36.2156L30.5486 35.397L35.1128 33.1127Z" fill="white"/>
<path d="M23.3743 46.1711L22.5986 46.5568L23.3743 46.1711Z" fill="white"/>
<path d="M11.3314 5.90699C12.8528 5.17841 14.5628 5.08842 16.4742 5.6327C17.4899 5.92413 18.5657 6.39984 19.6971 7.05127C23.1471 9.04413 26.0786 12.117 28.4871 16.2741C28.7786 16.7798 29.0528 17.2813 29.3099 17.7827C29.8799 18.8884 30.36 19.9898 30.75 21.0827C31.6543 23.5727 32.1042 26.0284 32.1042 28.4456C32.1042 29.8556 31.9457 31.1027 31.6243 32.187C31.4657 32.7356 31.2642 33.2413 31.0199 33.7041C30.8914 33.9613 30.7415 34.2098 30.5829 34.4413C30.42 34.6813 30.2442 34.9041 30.0599 35.1141C29.6957 35.5341 29.2972 35.8898 28.8557 36.1856C28.6843 36.3056 28.5086 36.4127 28.3243 36.507M11.3314 5.90699L11.13 6.00556C11.0528 6.04413 10.98 6.0827 10.9071 6.12556C8.49854 7.49699 7.29428 10.167 7.29428 14.1227C7.29428 16.5784 7.80001 19.1456 8.81144 21.8241C9.82716 24.5027 11.1728 26.9627 12.8571 29.2127V36.1813C12.8571 37.2613 13.1915 38.3798 13.86 39.5327C14.5286 40.6898 15.3343 41.5384 16.2771 42.0827C16.62 42.9658 17.0914 43.7882 17.6871 44.5425C18.2871 45.2968 18.9557 45.8886 19.6971 46.3172C20.4386 46.7458 21.1114 46.9258 21.7071 46.8615C22.3071 46.8015 22.7786 46.5229 23.1214 46.0343C23.2071 46.0815 23.2886 46.1282 23.3743 46.1711M11.3314 5.90699L19.4786 1.83982C21.8914 0.464108 24.8186 0.772692 28.2686 2.76555C31.7186 4.75841 34.65 7.83127 37.0586 11.9884C39.4671 16.1456 40.6757 20.1998 40.6757 24.1598C40.6757 26.6798 40.1657 28.6769 39.1543 30.1555C38.5286 31.0727 37.7743 31.7584 36.8915 32.2256L35.1128 33.1127M23.3743 46.1711C24.2057 46.5911 24.9257 46.6258 25.5386 46.2743M23.3743 46.1711L22.5986 46.5568M25.5386 46.2743C26.0915 45.9572 26.4172 45.4043 26.5072 44.6115C26.5329 44.4443 26.5414 44.2682 26.5414 44.0839V37.1156C27.1457 37.0041 27.7115 36.8156 28.23 36.5541L28.3243 36.507M25.5386 46.2743L34.11 41.9884C34.7786 41.607 35.1128 40.8784 35.1128 39.7984V33.1127M28.3243 36.507L28.9071 36.2156L30.5486 35.397L35.1128 33.1127M16.2771 38.157L23.1214 42.1084V40.3427L17.9143 37.3384M16.2771 38.157V36.3913L17.9143 37.3384M16.2771 38.157L17.9143 37.3384M16.2771 34.4284V32.5598L18.0128 33.5627M16.2771 34.4284L18.0128 33.5627M16.2771 34.4284L23.1214 38.3756V36.5113L18.0128 33.5627M23.8457 24.417L21.4286 25.797L20.9828 26.0498M23.8457 24.417C24.1028 24.2713 24.2314 23.997 24.2314 23.607M23.8457 24.417C24.1028 24.2713 24.2314 24.0013 24.2314 23.607M20.9828 26.0498V31.3513M20.9828 26.0498V28.587M20.9828 31.3513L18.4157 29.8684M20.9828 31.3513V28.587M18.4157 29.8684V24.567M18.4157 29.8684L20.9828 28.587M18.4157 24.567L15.5486 19.6256C15.2914 19.1841 15.1628 18.7641 15.1628 18.3741C15.1628 17.9841 15.2914 17.7098 15.5486 17.5641C15.8057 17.4184 16.1057 17.4441 16.4485 17.6413C16.7914 17.8384 17.0914 18.1598 17.3443 18.6013L19.6971 22.6598M18.4157 24.567L20.46 23.547L23.5928 21.9784M19.6971 22.6598L19.8428 22.5784M19.6971 22.6598L19.8472 22.5827M19.8428 22.5784L22.05 21.3184C22.2 21.2327 22.3629 21.207 22.5386 21.237M19.8428 22.5784C19.8428 22.5827 19.8472 22.5827 19.8472 22.5827M22.5386 21.237H22.5429C22.6715 21.2584 22.8043 21.3141 22.95 21.3956C23.1857 21.5327 23.4 21.7256 23.5928 21.9784M22.5386 21.237L19.8472 22.5827M23.5928 21.9784C23.6828 22.0898 23.7642 22.2184 23.8457 22.3556C24.1028 22.797 24.2314 23.217 24.2314 23.607" stroke="#27272A" stroke-opacity="0.25" stroke-linecap="round" stroke-linejoin="round"/>
      </svg>