<svg xmlns="http://www.w3.org/2000/svg" viewBox="0 0 48 48">
        <path d="M36.8831 22.824C36.8831 23.3424 36.7295 23.6928 36.4223 23.8656C36.1199 24.0384 35.736 23.9951 35.2848 23.7359L33.6863 22.8096V24.648C33.6863 25.1664 33.5328 25.5168 33.2256 25.6896C32.9184 25.8624 32.5391 25.8192 32.0831 25.56C31.6319 25.296 31.2528 24.9024 30.9456 24.3744C30.6384 23.8464 30.4848 23.3184 30.4848 22.8V20.9663L28.8863 20.04C28.4303 19.7808 28.0512 19.3824 27.744 18.8544C27.4416 18.3264 27.2879 17.8032 27.2879 17.28C27.2879 16.7568 27.4416 16.416 27.744 16.2384C28.0512 16.0656 28.4303 16.1088 28.8863 16.368L30.4848 17.2944V15.4559C30.4848 15.1967 30.5232 14.9855 30.6 14.8127C30.6768 14.6351 30.792 14.5008 30.9456 14.4144L31.0367 14.3711C31.1951 14.3039 31.368 14.2943 31.5552 14.3327C31.7184 14.3663 31.8959 14.4384 32.0831 14.544C32.5391 14.808 32.9184 15.2016 33.2256 15.7296C33.5328 16.2624 33.6863 16.7856 33.6863 17.304V19.1423L34.8576 19.8144L35.2848 20.064C35.736 20.328 36.1199 20.7216 36.4223 21.2496C36.7295 21.7776 36.8831 22.3008 36.8831 22.824Z" fill="white"/>
<path d="M30.6 14.8127C30.5232 14.9855 30.4848 15.1967 30.4848 15.4559V17.2944L28.8863 16.368C28.4303 16.1088 28.0512 16.0656 27.744 16.2384L30.6 14.8127Z" fill="white"/>
<path d="M43.2864 12.504V14.3423L33.6863 19.1423V17.304C33.6863 16.7856 33.5328 16.2624 33.2256 15.7296C32.9184 15.2016 32.5391 14.808 32.0831 14.544C31.8959 14.4384 31.7184 14.3663 31.5552 14.3327C31.368 14.2943 31.1951 14.3039 31.0367 14.3711L33.7056 13.0319L40.5456 9.61444C40.8528 9.44164 41.2319 9.48484 41.6831 9.74404C42.1391 10.008 42.5184 10.4016 42.8256 10.9296C43.1328 11.4624 43.2864 11.9856 43.2864 12.504Z" fill="white"/>
<path d="M33.6048 33.5712C33.576 33.168 33.528 32.7552 33.4656 32.3424C33.432 32.0496 33.3839 31.7568 33.3263 31.4592C33.2207 30.9408 33.0047 30.4512 32.6831 29.9904C32.3663 29.5296 32.0063 29.184 31.6031 28.9536L29.5679 27.7776C28.9535 27.4224 28.4208 26.856 27.9648 26.0736C27.8592 25.8864 27.7631 25.704 27.6815 25.5216C27.4175 24.9408 27.2879 24.3792 27.2879 23.8464V22.7904L27.1679 22.7185C26.3135 22.2289 25.5888 21.4608 24.9888 20.4288C24.3888 19.392 24.0863 18.3888 24.0863 17.4096V14.7936C24.0863 14.3328 23.9712 13.848 23.7456 13.3344C23.52 12.8208 23.2223 12.3792 22.8479 12.0096C22.7711 11.9328 22.6943 11.8608 22.6175 11.7936C22.6175 11.7936 22.6159 11.7905 22.6127 11.784C22.5167 11.688 22.4208 11.5968 22.32 11.5056C21.6672 10.8912 20.9999 10.3296 20.3279 9.82079C19.4735 9.17759 18.5951 8.59204 17.6879 8.06884C15.8735 7.02244 14.1456 6.35034 12.5088 6.05274C12.1536 5.99034 11.7983 5.94244 11.4479 5.91364C9.78235 5.77444 8.2991 5.99524 7.0031 6.58564L6.3696 6.90239C4.92961 7.72319 3.79195 9.00959 2.95195 10.7568C2.11195 12.504 1.68961 14.6496 1.68961 17.1888C1.68961 19.728 2.11195 22.3584 2.95195 25.0752C3.79195 27.792 4.92961 30.3936 6.3696 32.88C7.8096 35.3616 9.50395 37.6464 11.4479 39.7344C13.3967 41.8224 15.4751 43.5024 17.6879 44.784C19.9007 46.0608 21.9791 46.7808 23.9279 46.9392C25.4351 47.064 26.7888 46.8912 27.9936 46.4256H28.0031C28.3487 46.2864 28.6847 46.128 29.0063 45.9456C29.0927 45.8976 29.1792 45.8448 29.2656 45.792H29.2752C30.5856 44.9616 31.6368 43.7328 32.424 42.0912C32.4384 42.0624 32.4527 42.0288 32.4671 42C33.2783 40.272 33.6863 38.1552 33.6863 35.6592C33.6863 34.9584 33.6576 34.2624 33.6048 33.5712ZM10.3871 15.672C10.7135 15.4896 11.088 15.4608 11.5104 15.5904C11.6976 15.648 11.8895 15.7344 12.0911 15.8496C12.7535 16.2336 13.32 16.8288 13.7904 17.6352C14.256 18.4416 14.4863 19.224 14.4863 19.9872C14.4863 20.7504 14.256 21.2688 13.7904 21.5376C13.56 21.6672 13.3055 21.72 13.0271 21.696C12.7391 21.6672 12.4319 21.552 12.0911 21.3552C11.4239 20.9712 10.8575 20.376 10.3871 19.5744C9.92155 18.768 9.69115 17.9808 9.69115 17.2176C9.69115 16.4544 9.92155 15.936 10.3871 15.672ZM25.1279 36.0433C24.6767 36.6097 24.1488 37.032 23.5344 37.3152C23.064 37.5312 22.536 37.6608 21.9648 37.7088C20.6592 37.8096 19.2335 37.4161 17.6879 36.5233C16.1663 35.6449 14.7504 34.3968 13.4304 32.7792C12.1104 31.1568 11.0495 29.3856 10.2479 27.456C10.0895 26.9952 10.1039 26.6352 10.2911 26.376C10.4735 26.1168 10.7567 26.0928 11.1311 26.3088L24.2448 33.8833C24.6192 34.0993 24.8976 34.4448 25.0848 34.92C25.272 35.3952 25.2863 35.7697 25.1279 36.0433ZM24.9888 27.9985C24.5184 28.2673 23.952 28.2048 23.2848 27.8208C22.9104 27.6048 22.5695 27.3216 22.2623 26.9712C22.0175 26.7024 21.792 26.3904 21.5856 26.04C21.5136 25.9152 21.4464 25.7904 21.3888 25.6656C21.0528 24.9888 20.8896 24.3265 20.8896 23.6833C20.8896 22.9201 21.12 22.4016 21.5856 22.1376C21.6288 22.1136 21.672 22.0944 21.7152 22.0752C22.1568 21.8832 22.68 21.9648 23.2848 22.3152C23.8944 22.6656 24.4176 23.1888 24.8592 23.8944C24.9072 23.9616 24.9456 24.0288 24.9888 24.1008C25.4544 24.9024 25.6848 25.6895 25.6848 26.4527C25.6848 27.2159 25.4544 27.7345 24.9888 27.9985Z" fill="white"/>
<path d="M25.1279 36.0433C24.6767 36.6097 24.1488 37.032 23.5344 37.3152C23.064 37.5312 22.536 37.6608 21.9648 37.7088C20.6592 37.8096 19.2335 37.4161 17.6879 36.5233C16.1663 35.6449 14.7504 34.3968 13.4304 32.7792C12.1104 31.1568 11.0495 29.3856 10.2479 27.456C10.0895 26.9952 10.1039 26.6352 10.2911 26.376C10.4735 26.1168 10.7567 26.0928 11.1311 26.3088L24.2448 33.8833C24.6192 34.0993 24.8976 34.4448 25.0848 34.92C25.272 35.3952 25.2863 35.7697 25.1279 36.0433Z" fill="white"/>
<path d="M25.6848 26.4527C25.6848 27.2207 25.4544 27.7345 24.9888 27.9985C24.5184 28.2673 23.952 28.2048 23.2848 27.8208C22.9104 27.6048 22.5695 27.3216 22.2623 26.9712C22.0175 26.7024 21.792 26.3904 21.5856 26.04C21.5136 25.9152 21.4464 25.7904 21.3888 25.6656C21.0528 24.9888 20.8896 24.3265 20.8896 23.6833C20.8896 22.9201 21.12 22.4016 21.5856 22.1376C21.6288 22.1136 21.672 22.0944 21.7152 22.0752C22.1568 21.8832 22.68 21.9648 23.2848 22.3152C23.8944 22.6656 24.4176 23.1888 24.8592 23.8944C24.9072 23.9616 24.9456 24.0288 24.9888 24.1008C25.4544 24.9024 25.6848 25.6895 25.6848 26.4527Z" fill="white"/>
<path d="M14.4863 19.9872C14.4863 20.7552 14.256 21.2688 13.7904 21.5376C13.56 21.6672 13.3055 21.72 13.0271 21.696C12.7391 21.6672 12.4319 21.552 12.0911 21.3552C11.4239 20.9712 10.8575 20.376 10.3871 19.5744C9.92155 18.768 9.69115 17.9808 9.69115 17.2176C9.69115 16.4544 9.92155 15.936 10.3871 15.672C10.7135 15.4896 11.088 15.4608 11.5104 15.5904C11.6976 15.648 11.8895 15.7344 12.0911 15.8496C12.7535 16.2336 13.32 16.8288 13.7904 17.6352C14.256 18.4416 14.4863 19.224 14.4863 19.9872Z" fill="white"/>
<path d="M33.7056 13.0319L31.0367 14.3711L30.9456 14.4144C30.792 14.5008 30.6768 14.6353 30.6 14.8081L27.744 16.2384C27.4416 16.416 27.2879 16.7616 27.2879 17.28C27.2879 17.7984 27.4416 18.3264 27.744 18.8544C28.0512 19.3824 28.4303 19.7808 28.8863 20.04L30.4848 20.9663L30.4848 21.192L27.2879 22.7904L27.1679 22.7185C26.3135 22.2289 25.5888 21.4608 24.9888 20.4288C24.3888 19.392 24.0863 18.3888 24.0863 17.4096V14.7936C24.0863 14.3328 23.9712 13.848 23.7456 13.3344C23.52 12.8208 23.2223 12.3792 22.8479 12.0096C22.7711 11.9328 22.6943 11.8608 22.6175 11.7936C22.6175 11.7936 22.6159 11.7905 22.6127 11.784C22.5167 11.6832 22.4208 11.592 22.32 11.5056C21.6672 10.8912 20.9999 10.3296 20.3279 9.82079C19.4735 9.17759 18.5951 8.59204 17.6879 8.06884C15.8735 7.02244 14.1456 6.35034 12.5088 6.05274C12.1536 5.99034 11.7983 5.94244 11.4479 5.91364C9.78235 5.77444 8.2991 5.99524 7.0031 6.58564L15.9696 2.10239C17.4096 1.28159 19.1039 0.950474 21.0479 1.11367C22.9967 1.27207 25.0751 1.99207 27.2879 3.26887C28.1951 3.79207 29.0735 4.37763 29.9279 5.02084C30.7823 5.66884 31.6223 6.39844 32.4479 7.20964C32.8223 7.57924 33.12 8.02084 33.3456 8.53444C33.5712 9.04804 33.6863 9.53289 33.6863 9.99369V12.6096C33.6863 12.7488 33.6912 12.8879 33.7056 13.0319Z" fill="white"/>
<path d="M43.176 20.4912C43.0992 20.6688 42.984 20.8032 42.8256 20.8896L42.7344 20.9328L38.9423 22.8337L33.2256 25.6896C33.5328 25.5168 33.6863 25.1664 33.6863 24.648V22.8096L35.2848 23.7359C35.736 23.9951 36.1199 24.0384 36.4223 23.8656L38.76 22.6992L42.2112 20.9712L43.176 20.4912Z" fill="white"/>
<path d="M46.4831 18.024C46.4831 18.5424 46.3295 18.8928 46.0223 19.0656L45.9311 19.1089L43.176 20.4864L42.2112 20.9712L38.76 22.6992L36.4223 23.8656C36.7295 23.6928 36.8831 23.3424 36.8831 22.824C36.8831 22.3056 36.7295 21.7776 36.4223 21.2496C36.1199 20.7216 35.736 20.328 35.2848 20.064L34.8576 19.8144L33.6863 19.1423L43.2864 14.3423L44.8848 15.264C45.336 15.528 45.7199 15.9216 46.0223 16.4496C46.3295 16.9776 46.4831 17.5008 46.4831 18.024Z" fill="white"/>
<path d="M43.2864 30.8592C43.2864 33.3984 42.864 35.544 42.024 37.2912C41.184 39.0432 40.0463 40.3248 38.6063 41.1456C38.4623 41.2272 38.3136 41.304 38.1648 41.376L38.1456 41.3856C38.0736 41.4192 38.0016 41.4528 37.9296 41.4816L29.2752 45.7872C30.5856 44.9616 31.6368 43.7328 32.424 42.0912C32.4384 42.0624 32.4527 42.0288 32.4671 42C33.2783 40.272 33.6863 38.1552 33.6863 35.6592C33.6863 34.9584 33.6576 34.2624 33.6048 33.5712C33.576 33.168 33.528 32.7552 33.4656 32.3424C33.432 32.0496 33.3839 31.7568 33.3263 31.4592C33.2207 30.9408 33.0047 30.4512 32.6831 29.9904C32.3663 29.5296 32.0063 29.184 31.6031 28.9536L29.5679 27.7776C28.9535 27.4224 28.4208 26.856 27.9648 26.0736C27.8592 25.8864 27.7631 25.704 27.6815 25.5216C27.4175 24.9408 27.2879 24.3792 27.2879 23.8464V22.7904L30.4848 21.192L30.4848 22.8C30.4848 23.3184 30.6384 23.8464 30.9456 24.3744C31.2528 24.9024 31.6319 25.296 32.0831 25.56C32.5391 25.8192 32.9184 25.8624 33.2256 25.6896L38.9423 22.8337C39.0143 22.8865 39.0911 22.9344 39.1679 22.9776L41.2031 24.1537C41.6063 24.3841 41.9663 24.7296 42.2831 25.1904C42.6047 25.6512 42.8208 26.1408 42.9263 26.6592C43.0607 27.3792 43.152 28.0848 43.2048 28.7712C43.2576 29.4624 43.2864 30.1584 43.2864 30.8592Z" fill="white"/>
<path d="M29.2752 45.7872L29.2656 45.792L28.0031 46.4208L27.9936 46.4256" fill="white"/>
<path d="M36.8831 22.824C36.8831 23.3424 36.7295 23.6928 36.4223 23.8656M36.8831 22.824C36.8831 22.3008 36.7295 21.7776 36.4223 21.2496M36.8831 22.824C36.8831 22.3056 36.7295 21.7776 36.4223 21.2496M36.4223 23.8656C36.1199 24.0384 35.736 23.9951 35.2848 23.7359L33.6863 22.8096V24.648C33.6863 25.1664 33.5328 25.5168 33.2256 25.6896M36.4223 23.8656L38.76 22.6992L42.2112 20.9712M33.2256 25.6896C32.9184 25.8624 32.5391 25.8192 32.0831 25.56C31.6319 25.296 31.2528 24.9024 30.9456 24.3744C30.6384 23.8464 30.4848 23.3184 30.4848 22.8M33.2256 25.6896L38.9423 22.8337M30.4848 22.8V20.9663M30.4848 22.8L30.4848 21.192M30.4848 20.9663L28.8863 20.04C28.4303 19.7808 28.0512 19.3824 27.744 18.8544M30.4848 20.9663L30.4848 21.192M27.744 18.8544C27.4416 18.3264 27.2879 17.8032 27.2879 17.28M27.744 18.8544C27.4416 18.3264 27.2879 17.7984 27.2879 17.28M27.2879 17.28C27.2879 16.7568 27.4416 16.416 27.744 16.2384M27.2879 17.28C27.2879 16.7616 27.4416 16.416 27.744 16.2384M27.744 16.2384C28.0512 16.0656 28.4303 16.1088 28.8863 16.368L30.4848 17.2944V15.4559C30.4848 15.1967 30.5232 14.9855 30.6 14.8127M27.744 16.2384L30.6 14.8127M27.744 16.2384L30.6 14.8081C30.6768 14.6353 30.792 14.5008 30.9456 14.4144M30.6 14.8127C30.6768 14.6351 30.792 14.5008 30.9456 14.4144M30.9456 14.4144L31.0367 14.3711M31.0367 14.3711C31.1951 14.3039 31.368 14.2943 31.5552 14.3327C31.7184 14.3663 31.8959 14.4384 32.0831 14.544C32.5391 14.808 32.9184 15.2016 33.2256 15.7296C33.5328 16.2624 33.6863 16.7856 33.6863 17.304V19.1423M31.0367 14.3711L33.7056 13.0319M33.6863 19.1423L34.8576 19.8144L35.2848 20.064C35.736 20.328 36.1199 20.7216 36.4223 21.2496M33.6863 19.1423L43.2864 14.3423M43.2864 14.3423V12.504C43.2864 11.9856 43.1328 11.4624 42.8256 10.9296C42.5184 10.4016 42.1391 10.008 41.6831 9.74404C41.2319 9.48484 40.8528 9.44164 40.5456 9.61444L33.7056 13.0319M43.2864 14.3423L44.8848 15.264C45.336 15.528 45.7199 15.9216 46.0223 16.4496C46.3295 16.9776 46.4831 17.5008 46.4831 18.024C46.4831 18.5424 46.3295 18.8928 46.0223 19.0656L45.9311 19.1089L43.176 20.4864L42.2112 20.9712M33.7056 13.0319C33.6912 12.8879 33.6863 12.7488 33.6863 12.6096V9.99369C33.6863 9.53289 33.5712 9.04804 33.3456 8.53444C33.12 8.02084 32.8223 7.57924 32.4479 7.20964C31.6223 6.39844 30.7823 5.66884 29.9279 5.02084C29.0735 4.37763 28.1951 3.79207 27.2879 3.26887C25.0751 1.99207 22.9967 1.27207 21.0479 1.11367C19.1039 0.950474 17.4096 1.28159 15.9696 2.10239L7.0031 6.58564M27.2879 22.7904V23.8464C27.2879 24.3792 27.4175 24.9408 27.6815 25.5216C27.7631 25.704 27.8592 25.8864 27.9648 26.0736C28.4208 26.856 28.9535 27.4224 29.5679 27.7776L31.6031 28.9536C32.0063 29.184 32.3663 29.5296 32.6831 29.9904C33.0047 30.4512 33.2207 30.9408 33.3263 31.4592C33.3839 31.7568 33.432 32.0496 33.4656 32.3424C33.528 32.7552 33.576 33.168 33.6048 33.5712C33.6576 34.2624 33.6863 34.9584 33.6863 35.6592C33.6863 38.1552 33.2783 40.272 32.4671 42C32.4527 42.0288 32.4384 42.0624 32.424 42.0912M27.2879 22.7904L27.1679 22.7185C26.3135 22.2289 25.5888 21.4608 24.9888 20.4288C24.3888 19.392 24.0863 18.3888 24.0863 17.4096V14.7936C24.0863 14.3328 23.9712 13.848 23.7456 13.3344C23.52 12.8208 23.2223 12.3792 22.8479 12.0096C22.7711 11.9328 22.6943 11.8608 22.6175 11.7936C22.6175 11.7936 22.6159 11.7905 22.6127 11.784M27.2879 22.7904L30.4848 21.192M22.6127 11.784C22.5167 11.688 22.4208 11.5968 22.32 11.5056M22.6127 11.784C22.5167 11.6832 22.4208 11.592 22.32 11.5056M22.32 11.5056C21.6672 10.8912 20.9999 10.3296 20.3279 9.82079C19.4735 9.17759 18.5951 8.59204 17.6879 8.06884C15.8735 7.02244 14.1456 6.35034 12.5088 6.05274C12.1536 5.99034 11.7983 5.94244 11.4479 5.91364C9.78235 5.77444 8.2991 5.99524 7.0031 6.58564M7.0031 6.58564L6.3696 6.90239C4.92961 7.72319 3.79195 9.00959 2.95195 10.7568C2.11195 12.504 1.68961 14.6496 1.68961 17.1888C1.68961 19.728 2.11195 22.3584 2.95195 25.0752C3.79195 27.792 4.92961 30.3936 6.3696 32.88C7.8096 35.3616 9.50395 37.6464 11.4479 39.7344C13.3967 41.8224 15.4751 43.5024 17.6879 44.784C19.9007 46.0608 21.9791 46.7808 23.9279 46.9392C25.4351 47.064 26.7888 46.8912 27.9936 46.4256M27.9936 46.4256H28.0031C28.3487 46.2864 28.6847 46.128 29.0063 45.9456C29.0927 45.8976 29.1792 45.8448 29.2656 45.792M27.9936 46.4256L28.0031 46.4208L29.2656 45.792M29.2656 45.792H29.2752C30.5856 44.9616 31.6368 43.7328 32.424 42.0912M29.2656 45.792L29.2752 45.7872M32.424 42.0912C31.6368 43.7328 30.5856 44.9616 29.2752 45.7872M14.4863 19.9872C14.4863 19.224 14.256 18.4416 13.7904 17.6352C13.32 16.8288 12.7535 16.2336 12.0911 15.8496C11.8895 15.7344 11.6976 15.648 11.5104 15.5904C11.088 15.4608 10.7135 15.4896 10.3871 15.672C9.92155 15.936 9.69115 16.4544 9.69115 17.2176C9.69115 17.9808 9.92155 18.768 10.3871 19.5744C10.8575 20.376 11.4239 20.9712 12.0911 21.3552C12.4319 21.552 12.7391 21.6672 13.0271 21.696C13.3055 21.72 13.56 21.6672 13.7904 21.5376M14.4863 19.9872C14.4863 20.7504 14.256 21.2688 13.7904 21.5376M14.4863 19.9872C14.4863 20.7552 14.256 21.2688 13.7904 21.5376M24.9888 27.9985C24.5184 28.2673 23.952 28.2048 23.2848 27.8208C22.9104 27.6048 22.5695 27.3216 22.2623 26.9712C22.0175 26.7024 21.792 26.3904 21.5856 26.04C21.5136 25.9152 21.4464 25.7904 21.3888 25.6656C21.0528 24.9888 20.8896 24.3265 20.8896 23.6833C20.8896 22.9201 21.12 22.4016 21.5856 22.1376C21.6288 22.1136 21.672 22.0944 21.7152 22.0752C22.1568 21.8832 22.68 21.9648 23.2848 22.3152C23.8944 22.6656 24.4176 23.1888 24.8592 23.8944C24.9072 23.9616 24.9456 24.0288 24.9888 24.1008C25.4544 24.9024 25.6848 25.6895 25.6848 26.4527M24.9888 27.9985C25.4544 27.7345 25.6848 27.2159 25.6848 26.4527M24.9888 27.9985C25.4544 27.7345 25.6848 27.2207 25.6848 26.4527M38.9423 22.8337L42.7344 20.9328L42.8256 20.8896C42.984 20.8032 43.0992 20.6688 43.176 20.4912L42.2112 20.9712M38.9423 22.8337C39.0143 22.8865 39.0911 22.9344 39.1679 22.9776L41.2031 24.1537C41.6063 24.3841 41.9663 24.7296 42.2831 25.1904C42.6047 25.6512 42.8207 26.1408 42.9263 26.6592C43.0607 27.3792 43.152 28.0848 43.2048 28.7712C43.2576 29.4624 43.2864 30.1584 43.2864 30.8592C43.2864 33.3984 42.864 35.544 42.024 37.2912C41.184 39.0432 40.0463 40.3248 38.6063 41.1456C38.4623 41.2272 38.3136 41.304 38.1648 41.376L38.1456 41.3856C38.0736 41.4192 38.0016 41.4528 37.9296 41.4816L29.2752 45.7872M25.1279 36.0433C24.6767 36.6097 24.1488 37.032 23.5344 37.3152C23.064 37.5312 22.536 37.6608 21.9648 37.7088C20.6592 37.8096 19.2335 37.4161 17.6879 36.5233C16.1663 35.6449 14.7504 34.3968 13.4304 32.7792C12.1104 31.1568 11.0495 29.3856 10.2479 27.456C10.0895 26.9952 10.1039 26.6352 10.2911 26.376C10.4735 26.1168 10.7567 26.0928 11.1311 26.3088L24.2448 33.8833C24.6192 34.0993 24.8976 34.4448 25.0848 34.92C25.272 35.3952 25.2863 35.7697 25.1279 36.0433Z" stroke="#27272A" stroke-opacity="0.25" stroke-linecap="round" stroke-linejoin="round"/>
      </svg>