<svg xmlns="http://www.w3.org/2000/svg" viewBox="0 0 48 48">
        <path d="M32.441 13.6582V13.9782C32.4847 13.8812 32.4847 13.76 32.441 13.6582Z" fill="white"/>
<path d="M26.0605 15.0934L23.5781 16.5285V10.24C23.6654 11.7431 24.3296 13.1879 25.5757 14.5794C25.726 14.7491 25.886 14.9237 26.0605 15.0934Z" fill="white"/>
<path d="M40.989 30.8073V40.5042C40.9938 40.9212 40.7175 41.2946 40.1599 41.6146C39.6023 41.9346 38.9624 42.0945 38.2351 42.0945C37.5078 42.0945 36.8727 41.9297 36.3102 41.6097C35.7527 41.2848 35.4666 40.9115 35.4666 40.4945L35.4278 33.0909V26.1625L35.4424 26.1722L35.4666 30.7976C35.4666 31.2145 35.7527 31.5879 36.3102 31.9127C36.8727 32.2327 37.5127 32.3976 38.2351 32.3976C38.9575 32.3976 39.6023 32.2376 40.1599 31.9176C40.5332 31.7043 40.7805 31.4667 40.8969 31.2049C40.9599 31.0788 40.989 30.943 40.989 30.8073Z" fill="white"/>
<path d="M46.9624 13.1103V13.12C46.9624 14.0073 46.4242 14.7685 45.3479 15.3891C44.2667 16.0097 42.9527 16.3248 41.406 16.32C39.8594 16.3151 38.5454 16 37.4545 15.3746C36.3684 14.7443 35.8205 13.9831 35.8157 13.0909C35.8108 12.1988 36.349 11.4424 37.4302 10.817C38.5114 10.1915 39.8254 9.88124 41.3721 9.88609C42.9139 9.88609 44.2327 10.2012 45.3236 10.8315C46.4096 11.457 46.9575 12.2182 46.9624 13.1103Z" fill="white"/>
<path d="M40.989 30.8073C40.989 30.943 40.9599 31.0788 40.8969 31.2049C40.7805 31.4667 40.5332 31.7043 40.1599 31.9176C39.6023 32.2376 38.9624 32.3976 38.2351 32.3976C37.5078 32.3976 36.8727 32.2327 36.3102 31.9127C35.7527 31.5879 35.4666 31.2145 35.4666 30.7976L35.4424 26.1722L35.4278 23.394L13.8909 35.8303C13.3333 36.1503 12.6788 36.3103 11.9224 36.3103C11.166 36.3055 10.5066 36.1455 9.94423 35.8206C9.3818 35.4958 9.10059 35.1176 9.10059 34.6812C9.10059 34.6424 9.10054 34.6085 9.11024 34.5745C9.14418 34.1818 9.42544 33.8376 9.93453 33.5418L15.806 30.1527L19.7673 27.8642L15.806 25.5806L5.97327 31.2582C5.41569 31.5782 4.7612 31.7382 4.00484 31.7382C3.24847 31.7382 2.58904 31.5733 2.02662 31.2485C1.46904 30.9285 1.18783 30.5454 1.18298 30.1091C1.18298 29.6727 1.45933 29.2946 2.01691 28.9746L23.5781 16.5285L26.0605 15.0934C25.886 14.9237 25.726 14.7491 25.5757 14.5794C24.3296 13.1879 23.6654 11.7431 23.5781 10.24C23.549 9.74064 23.583 9.2364 23.68 8.72246C24.1163 6.47276 25.5418 4.46057 27.966 2.67633C28.3587 2.37572 28.9067 2.2497 29.6145 2.29819C30.3224 2.34667 30.9382 2.52121 31.4667 2.82666C31.9951 3.13211 32.32 3.48121 32.4363 3.86909C32.4606 3.90303 32.4751 3.96123 32.4751 4.00487V4.22303C32.4315 4.4703 32.2618 4.72726 31.9708 4.93574C29.9733 6.50665 29.0327 8.23271 29.1394 10.1139C29.1782 10.7733 29.3624 11.4037 29.6921 12.0049C30.177 12.9018 30.9818 13.7357 32.1115 14.5115C32.3927 14.7006 32.6933 14.8897 33.0133 15.0739L35.8157 16.6885L37.9636 17.9297C38.8654 18.4533 39.5636 19.0303 40.0533 19.6606C40.1018 19.7236 40.1503 19.7818 40.1939 19.8448C40.6885 20.5479 40.9406 21.2994 40.9454 22.0945L40.9648 26.0025L40.989 30.8073Z" fill="white"/>
<path d="M19.7673 27.8691L15.806 30.1527V25.5806L19.7673 27.8691Z" fill="white"/>
<path d="M15.806 25.5806V30.1527L9.93453 33.5418C9.42544 33.8376 9.14418 34.1818 9.11024 34.5745C9.10054 34.6085 9.10059 34.6424 9.10059 34.6812V39.1515L5.97327 40.9552C5.41569 41.2752 4.7612 41.4352 4.00484 41.4352C3.24847 41.4352 2.58904 41.2703 2.02662 40.9455C1.46904 40.6255 1.18783 40.2425 1.18298 39.8061V30.1091C1.18783 30.5454 1.46904 30.9285 2.02662 31.2485C2.58904 31.5733 3.24847 31.7382 4.00484 31.7382C4.7612 31.7382 5.41569 31.5782 5.97327 31.2582L15.806 25.5806Z" fill="white"/>
<path d="M46.9625 13.1151V22.8024C46.9673 23.6945 46.4292 24.4558 45.348 25.0812C44.2667 25.7019 42.9528 26.017 41.4061 26.0121C41.2558 26.0121 41.1103 26.0073 40.9648 26.0025L40.9454 22.0945C40.9406 21.2994 40.6885 20.5479 40.1939 19.8448C40.1503 19.7818 40.1018 19.7236 40.0533 19.6606C39.5636 19.0303 38.8654 18.4533 37.9636 17.9297L35.8157 16.6885L35.8158 13.0861C35.8206 13.9782 36.3685 14.7394 37.4546 15.3697C38.5455 15.9952 39.8594 16.3103 41.4061 16.3151C42.9528 16.32 44.2667 16.0049 45.348 15.3843C46.4243 14.7637 46.9625 14.0024 46.9625 13.1151Z" fill="white"/>
<path d="M35.4278 23.394L35.4278 33.0909L13.8909 45.5273C13.3333 45.8473 12.6788 46.0073 11.9224 46.0073C11.166 46.0025 10.5066 45.8425 9.94423 45.5176C9.3818 45.1928 9.10059 44.8145 9.10059 44.3782V34.6812C9.10059 35.1176 9.3818 35.4958 9.94423 35.8206C10.5066 36.1455 11.166 36.3055 11.9224 36.3103C12.6788 36.3103 13.3333 36.1503 13.8909 35.8303L35.4278 23.394Z" fill="white"/>
<path d="M23.5781 10.24V9.58544V10.24Z" fill="white"/>
<path d="M32.4751 4.22303L32.441 13.5951V14.0267C32.3926 14.1963 32.2812 14.3612 32.1115 14.5115C30.9818 13.7357 30.177 12.9018 29.6921 12.0049C29.3624 11.4037 29.1782 10.7733 29.1394 10.1139C29.0327 8.23271 29.9733 6.50665 31.9708 4.93574C32.2618 4.72726 32.4315 4.4703 32.4751 4.22303Z" fill="white"/>
<path d="M32.4411 14.2255L32.441 14.0267L32.4411 14.2255Z" fill="white"/>
<path d="M23.5781 16.5285V10.24M23.5781 16.5285L2.01691 28.9746C1.45933 29.2946 1.18298 29.6727 1.18298 30.1091M23.5781 16.5285L26.0605 15.0934C25.886 14.9237 25.726 14.7491 25.5757 14.5794C24.3296 13.1879 23.6654 11.7431 23.5781 10.24M23.5781 10.24C23.549 9.74064 23.583 9.2364 23.68 8.72246C24.1163 6.47276 25.5418 4.46057 27.966 2.67633C28.3587 2.37572 28.9066 2.2497 29.6145 2.29819C30.3224 2.34667 30.9382 2.52121 31.4667 2.82666C31.9951 3.13211 32.32 3.48121 32.4363 3.86909C32.4606 3.90303 32.4751 3.96123 32.4751 4.00487V4.22303M23.5781 10.24V9.58544M40.989 30.8073V40.5042C40.9938 40.9212 40.7175 41.2946 40.1599 41.6146C39.6023 41.9346 38.9624 42.0945 38.2351 42.0945C37.5078 42.0945 36.8727 41.9297 36.3102 41.6097C35.7527 41.2848 35.4666 40.9115 35.4666 40.4945L35.4278 33.0909M40.989 30.8073C40.989 30.943 40.9599 31.0788 40.8969 31.2049C40.7805 31.4667 40.5332 31.7043 40.1599 31.9176M40.989 30.8073L40.9648 26.0025M35.4278 33.0909V26.1625L35.4424 26.1722M35.4278 33.0909L35.4278 23.394M35.4278 33.0909L13.8909 45.5273C13.3333 45.8473 12.6788 46.0073 11.9224 46.0073C11.166 46.0025 10.5066 45.8425 9.94423 45.5176C9.3818 45.1928 9.10059 44.8145 9.10059 44.3782V34.6812M35.4424 26.1722L35.4666 30.7976C35.4666 31.2145 35.7527 31.5879 36.3102 31.9127M35.4424 26.1722L35.4278 23.394M36.3102 31.9127C36.8727 32.2327 37.5127 32.3976 38.2351 32.3976M36.3102 31.9127C36.8727 32.2327 37.5078 32.3976 38.2351 32.3976M38.2351 32.3976C38.9575 32.3976 39.6023 32.2376 40.1599 31.9176M38.2351 32.3976C38.9624 32.3976 39.6023 32.2376 40.1599 31.9176M35.4278 23.394L13.8909 35.8303C13.3333 36.1503 12.6788 36.3103 11.9224 36.3103C11.166 36.3055 10.5066 36.1455 9.94423 35.8206C9.3818 35.4958 9.10059 35.1176 9.10059 34.6812M9.10059 34.6812C9.10059 34.6424 9.10054 34.6085 9.11024 34.5745C9.14418 34.1818 9.42544 33.8376 9.93453 33.5418L15.806 30.1527M9.10059 34.6812V39.1515L5.97327 40.9552C5.41569 41.2752 4.7612 41.4352 4.00484 41.4352C3.24847 41.4352 2.58904 41.2703 2.02662 40.9455C1.46904 40.6255 1.18783 40.2425 1.18298 39.8061V30.1091M15.806 30.1527L19.7673 27.8642L15.806 25.5806M15.806 30.1527L19.7673 27.8691L15.806 25.5806M15.806 30.1527V25.5806M15.806 25.5806L5.97327 31.2582C5.41569 31.5782 4.7612 31.7382 4.00484 31.7382C3.24847 31.7382 2.58904 31.5733 2.02662 31.2485C1.46904 30.9285 1.18783 30.5454 1.18298 30.1091M32.4751 4.22303C32.4315 4.4703 32.2618 4.72726 31.9708 4.93574C29.9733 6.50665 29.0327 8.23271 29.1394 10.1139C29.1782 10.7733 29.3624 11.4037 29.6921 12.0049C30.177 12.9018 30.9818 13.7357 32.1115 14.5115M32.4751 4.22303L32.441 13.5951V14.0267M32.1115 14.5115C32.3927 14.7006 32.6933 14.8897 33.0133 15.0739L35.8157 16.6885M32.1115 14.5115C32.2812 14.3612 32.3926 14.1963 32.441 14.0267M35.8157 16.6885L37.9636 17.9297C38.8654 18.4533 39.5636 19.0303 40.0533 19.6606C40.1018 19.7236 40.1503 19.7818 40.1939 19.8448C40.6885 20.5479 40.9406 21.2994 40.9454 22.0945L40.9648 26.0025M35.8157 16.6885L35.8158 13.0861C35.8206 13.9782 36.3685 14.7394 37.4546 15.3697C38.5455 15.9952 39.8594 16.3103 41.4061 16.3151C42.9528 16.32 44.2667 16.0049 45.348 15.3843C46.4243 14.7637 46.9625 14.0024 46.9625 13.1151V22.8024C46.9673 23.6945 46.4292 24.4558 45.348 25.0812C44.2667 25.7019 42.9528 26.017 41.4061 26.0121C41.2558 26.0121 41.1103 26.0073 40.9648 26.0025M32.441 14.0267L32.4411 14.2255M32.441 13.6582V13.9782C32.4847 13.8812 32.4847 13.76 32.441 13.6582ZM46.9624 13.1103V13.12C46.9624 14.0073 46.4242 14.7685 45.3479 15.3891C44.2667 16.0097 42.9527 16.3248 41.406 16.32C39.8594 16.3151 38.5454 16 37.4545 15.3746C36.3684 14.7443 35.8205 13.9831 35.8157 13.0909C35.8108 12.1988 36.349 11.4424 37.4302 10.817C38.5114 10.1915 39.8254 9.88124 41.3721 9.88609C42.9139 9.88609 44.2327 10.2012 45.3236 10.8315C46.4096 11.457 46.9575 12.2182 46.9624 13.1103Z" stroke="#27272A" stroke-opacity="0.25" stroke-linecap="round" stroke-linejoin="round"/>
      </svg>