<svg xmlns="http://www.w3.org/2000/svg" viewBox="0 0 48 48">
        <path d="M24.2034 3.99106V4.75174L19.619 7.04191L19.5295 7.08665C19.2407 7.25343 19.0943 7.57886 19.0943 8.07106V20.4331L16.0678 21.9463V8.05886C16.0678 7.57072 15.9255 7.07445 15.6367 6.57411C15.4862 6.31784 15.3194 6.09411 15.1323 5.90292C14.9574 5.72394 14.7661 5.57343 14.5587 5.4514C14.1722 5.22767 13.8428 5.17475 13.5702 5.28458L17.9919 3.07173L21.6163 1.26154C21.9051 1.09476 22.2631 1.13545 22.6943 1.38359C23.1214 1.63172 23.4794 2.00596 23.7723 2.5063C24.0611 3.00664 24.2034 3.50292 24.2034 3.99106Z" fill="white"/>
<path d="M19.0943 20.4331V23.6914L16.0678 21.9463L19.0943 20.4331Z" fill="white"/>
<path d="M25.1431 23.9273V27.1856L22.1207 25.4365L25.1431 23.9273Z" fill="white"/>
<path d="M28.1776 31.6887C28.1776 31.7782 28.1695 31.8717 28.1695 31.9694V35.0039C28.1695 35.0731 28.1695 35.1382 28.1573 35.1992C28.1248 35.5856 27.9825 35.8501 27.7343 35.9884C27.4455 36.1552 27.0834 36.1144 26.6563 35.8663L24.0081 34.3368C23.0522 33.7877 22.2468 33.6941 21.5878 34.0683C21.3601 34.1985 21.173 34.3694 21.0265 34.585C20.7459 34.9917 20.6075 35.5572 20.6075 36.2772V38.4494C20.6075 38.8236 20.4977 39.0717 20.2862 39.1937C20.0706 39.3158 19.8021 39.2832 19.4726 39.0961C19.1431 38.9049 18.8746 38.6283 18.659 38.2582C18.4434 37.888 18.3377 37.5138 18.3377 37.1395V34.9673C18.3377 33.625 18.6346 32.6121 19.2244 31.9206C19.44 31.6684 19.6923 31.465 19.9811 31.2982C21.0794 30.6717 22.4217 30.8182 24.0081 31.7375L25.8998 32.8277L26.4733 32.5429L28.1776 31.6887Z" fill="white"/>
<path d="M40.8407 27.9178V33.5558C40.8407 37.6642 39.592 40.4304 37.0984 41.8499L36.4923 42.1509L28.9628 45.9177C30.293 45.1611 31.2692 44.0221 31.8834 42.4967C32.4326 41.1625 32.7051 39.5395 32.7051 37.6236V31.9856C32.7051 31.6073 32.5994 31.2331 32.3838 30.867C32.1723 30.4968 31.8997 30.2161 31.5702 30.029C31.558 30.0209 31.5458 30.0168 31.5336 30.0087C31.4644 29.968 31.3953 29.9314 31.3261 29.8989C30.4759 29.4636 29.752 29.4189 29.1499 29.7565L34.0353 27.3158L37.2855 25.6887C37.9445 25.3185 38.7499 25.408 39.7058 25.9612C40.0353 26.1483 40.3078 26.429 40.5194 26.7992C40.735 27.1653 40.8407 27.5395 40.8407 27.9178Z" fill="white"/>
<path d="M32.7051 31.9856V37.6236C32.7051 39.5395 32.4326 41.1625 31.8834 42.4967C31.2692 44.0221 30.293 45.1611 28.9628 45.9177C26.4692 47.3414 23.4305 47.0201 19.8509 44.9537C16.2712 42.8872 13.2326 39.7022 10.739 35.3984C8.24143 31.0947 6.9967 26.8886 6.9967 22.7801V6.29339C6.9967 5.80119 7.139 5.47166 7.42781 5.30895L7.51729 5.26424C7.7939 5.15441 8.12347 5.20725 8.50584 5.43098C8.93703 5.67911 9.29495 6.05335 9.58377 6.54962C9.87665 7.04996 10.019 7.54623 10.019 8.03844V18.452L13.0455 20.1971V6.31369C13.0455 5.82149 13.1878 5.49606 13.4807 5.32928L13.5702 5.28458C13.8428 5.17475 14.1722 5.22767 14.5587 5.4514C14.7661 5.57343 14.9574 5.72394 15.1323 5.90292C15.3194 6.09411 15.4862 6.31784 15.6367 6.57411C15.9255 7.07445 16.0678 7.57072 16.0678 8.05886V21.9463L19.0943 23.6914V8.07106C19.0943 7.57886 19.2407 7.25343 19.5295 7.08665L19.619 7.04191C19.8915 6.93208 20.2211 6.98492 20.6076 7.20865C20.815 7.33068 21.0062 7.48119 21.1811 7.66017C21.3682 7.85136 21.535 8.07505 21.6855 8.33132C21.9743 8.83166 22.1207 9.32793 22.1207 9.81606L22.1207 25.4365L25.1431 27.1856L25.1431 15.0351C25.1431 14.5429 25.2895 14.2134 25.5784 14.0506L25.6679 14.0059C25.9404 13.8961 26.2739 13.949 26.6563 14.1727C26.8637 14.2947 27.055 14.4453 27.2299 14.6242C27.417 14.8154 27.5838 15.0391 27.7343 15.2954C28.0231 15.7957 28.1695 16.292 28.1695 16.7801V26.7625C27.4373 26.9456 26.876 27.3889 26.4855 28.0886C26.095 28.7883 25.8998 29.6466 25.8998 30.6595L25.8998 32.8277L24.0081 31.7375C22.4217 30.8182 21.0794 30.6717 19.9811 31.2982C19.6923 31.465 19.44 31.6684 19.2244 31.9206C18.6346 32.6121 18.3377 33.625 18.3377 34.9673V37.1395C18.3377 37.5138 18.4434 37.888 18.659 38.2582C18.8746 38.6283 19.1431 38.9049 19.4726 39.0961C19.8021 39.2832 20.0706 39.3158 20.2862 39.1937C20.4977 39.0717 20.6075 38.8236 20.6075 38.4494V36.2772C20.6075 35.5572 20.7459 34.9917 21.0265 34.585C21.173 34.3694 21.3601 34.1985 21.5878 34.0683C22.2468 33.6941 23.0522 33.7877 24.0081 34.3368L26.6563 35.8663C27.0834 36.1144 27.4455 36.1552 27.7343 35.9884C27.9825 35.8501 28.1248 35.5856 28.1573 35.1992C28.1654 35.1382 28.1695 35.0731 28.1695 35.0039V31.9694C28.1695 31.8717 28.1736 31.7782 28.1776 31.6887C28.2305 30.7409 28.552 30.0982 29.1499 29.7565C29.752 29.4189 30.4759 29.4636 31.3261 29.8989C31.3953 29.9314 31.4644 29.968 31.5336 30.0087C31.5458 30.0168 31.558 30.0209 31.5702 30.029C31.8997 30.2161 32.1723 30.4968 32.3838 30.867C32.5994 31.2331 32.7051 31.6073 32.7051 31.9856Z" fill="white"/>
<path d="M30.2563 5.74823V11.7116L25.6679 14.0059L25.5784 14.0506C25.2895 14.2134 25.1431 14.5429 25.1431 15.0351L25.1431 23.9273L22.1207 25.4365L22.1207 9.81606C22.1207 9.32793 21.9743 8.83166 21.6855 8.33132C21.535 8.07505 21.3682 7.85136 21.1811 7.66017C21.0062 7.48119 20.815 7.33068 20.6076 7.20865C20.2211 6.98492 19.8915 6.93208 19.619 7.04191L24.2034 4.75174L27.6651 3.01875C27.9539 2.85197 28.312 2.89267 28.7431 3.14081C29.1703 3.38894 29.5282 3.76313 29.8211 4.26348C30.1099 4.76382 30.2563 5.26009 30.2563 5.74823Z" fill="white"/>
<path d="M17.9919 3.07173L13.5702 5.28458L13.4807 5.32928C13.1878 5.49606 13.0455 5.82149 13.0455 6.31369V16.9388L10.019 18.452V8.03844C10.019 7.54623 9.87665 7.04996 9.58377 6.54962C9.29495 6.05335 8.93703 5.67911 8.50584 5.43098C8.12347 5.20725 7.7939 5.15441 7.51729 5.26424L15.5634 1.24119C15.8563 1.07441 16.2143 1.11506 16.6414 1.3632C17.0726 1.61133 17.4306 1.98557 17.7194 2.48184C17.8333 2.6771 17.9268 2.87648 17.9919 3.07173Z" fill="white"/>
<path d="M13.0455 16.9388V20.1971L10.019 18.452L13.0455 16.9388Z" fill="white"/>
<path d="M36.3051 12.7123V22.6947L28.1695 26.7625V16.7801C28.1695 16.292 28.0231 15.7957 27.7343 15.2954C27.5838 15.0391 27.417 14.8154 27.2299 14.6242C27.055 14.4453 26.8637 14.2947 26.6563 14.1727C26.2739 13.949 25.9404 13.8961 25.6679 14.0059L30.2563 11.7116L33.7139 9.98288C34.0028 9.8161 34.3648 9.85678 34.7919 10.1049C35.219 10.3531 35.5811 10.7273 35.8699 11.2276C36.1587 11.7279 36.3051 12.2242 36.3051 12.7123Z" fill="white"/>
<path d="M35.2881 23.2031C35.0278 23.4187 34.8041 23.6913 34.6211 24.0208C34.2306 24.7204 34.0353 25.5787 34.0353 26.5916L34.0353 27.3158L29.1499 29.7565C28.552 30.0982 28.2305 30.7409 28.1776 31.6887L26.4733 32.5429L25.8998 32.8277L25.8998 30.6595C25.8998 29.6466 26.095 28.7883 26.4855 28.0886C26.876 27.3889 27.4373 26.9456 28.1695 26.7625L35.2881 23.2031Z" fill="white"/>
<path d="M24.2034 4.75174V3.99106C24.2034 3.50292 24.0611 3.00664 23.7723 2.5063C23.4794 2.00596 23.1214 1.63172 22.6943 1.38359C22.2631 1.13545 21.9051 1.09476 21.6163 1.26154L17.9919 3.07173M24.2034 4.75174L27.6651 3.01875C27.9539 2.85197 28.312 2.89267 28.7431 3.14081C29.1703 3.38894 29.5282 3.76313 29.8211 4.26348C30.1099 4.76382 30.2563 5.26009 30.2563 5.74823V11.7116M24.2034 4.75174L19.619 7.04191M19.619 7.04191L19.5295 7.08665C19.2407 7.25343 19.0943 7.57886 19.0943 8.07106M19.619 7.04191C19.8915 6.93208 20.2211 6.98492 20.6076 7.20865C20.815 7.33068 21.0062 7.48119 21.1811 7.66017C21.3682 7.85136 21.535 8.07505 21.6855 8.33132C21.9743 8.83166 22.1207 9.32793 22.1207 9.81606L22.1207 25.4365M19.0943 8.07106V20.4331M19.0943 8.07106V23.6914M19.0943 20.4331L16.0678 21.9463M19.0943 20.4331V23.6914M16.0678 21.9463V8.05886C16.0678 7.57072 15.9255 7.07445 15.6367 6.57411C15.4862 6.31784 15.3194 6.09411 15.1323 5.90292C14.9574 5.72394 14.7661 5.57343 14.5587 5.4514C14.1722 5.22767 13.8428 5.17475 13.5702 5.28458M16.0678 21.9463L19.0943 23.6914M13.5702 5.28458L13.4807 5.32928C13.1878 5.49606 13.0455 5.82149 13.0455 6.31369M13.5702 5.28458L17.9919 3.07173M17.9919 3.07173C17.9268 2.87648 17.8333 2.6771 17.7194 2.48184C17.4306 1.98557 17.0726 1.61133 16.6414 1.3632C16.2143 1.11506 15.8563 1.07441 15.5634 1.24119L7.51729 5.26424M25.1431 23.9273V27.1856M25.1431 23.9273L22.1207 25.4365M25.1431 23.9273L25.1431 15.0351M25.1431 27.1856L22.1207 25.4365M25.1431 27.1856L25.1431 15.0351M28.1776 31.6887C28.1776 31.7782 28.1695 31.8717 28.1695 31.9694M28.1776 31.6887L26.4733 32.5429L25.8998 32.8277M28.1776 31.6887C28.1736 31.7782 28.1695 31.8717 28.1695 31.9694M28.1776 31.6887C28.2305 30.7409 28.552 30.0982 29.1499 29.7565M28.1695 31.9694V35.0039M28.1695 35.0039C28.1695 35.0731 28.1695 35.1382 28.1573 35.1992M28.1695 35.0039C28.1695 35.0731 28.1654 35.1382 28.1573 35.1992M28.1573 35.1992C28.1248 35.5856 27.9825 35.8501 27.7343 35.9884C27.4455 36.1552 27.0834 36.1144 26.6563 35.8663L24.0081 34.3368C23.0522 33.7877 22.2468 33.6941 21.5878 34.0683C21.3601 34.1985 21.173 34.3694 21.0265 34.585C20.7459 34.9917 20.6075 35.5572 20.6075 36.2772V38.4494C20.6075 38.8236 20.4977 39.0717 20.2862 39.1937C20.0706 39.3158 19.8021 39.2832 19.4726 39.0961C19.1431 38.9049 18.8746 38.6283 18.659 38.2582C18.4434 37.888 18.3377 37.5138 18.3377 37.1395V34.9673C18.3377 33.625 18.6346 32.6121 19.2244 31.9206C19.44 31.6684 19.6923 31.465 19.9811 31.2982C21.0794 30.6717 22.4217 30.8182 24.0081 31.7375L25.8998 32.8277M25.8998 32.8277L25.8998 30.6595C25.8998 29.6466 26.095 28.7883 26.4855 28.0886C26.876 27.3889 27.4373 26.9456 28.1695 26.7625M28.9628 45.9177L36.4923 42.1509L37.0984 41.8499C39.592 40.4304 40.8407 37.6642 40.8407 33.5558V27.9178C40.8407 27.5395 40.735 27.1653 40.5194 26.7992C40.3078 26.429 40.0353 26.1483 39.7058 25.9612C38.7499 25.408 37.9445 25.3185 37.2855 25.6887L34.0353 27.3158M28.9628 45.9177C30.293 45.1611 31.2692 44.0221 31.8834 42.4967C32.4326 41.1625 32.7051 39.5395 32.7051 37.6236V31.9856C32.7051 31.6073 32.5994 31.2331 32.3838 30.867C32.1723 30.4968 31.8997 30.2161 31.5702 30.029C31.558 30.0209 31.5458 30.0168 31.5336 30.0087C31.4644 29.968 31.3953 29.9314 31.3261 29.8989C30.4759 29.4636 29.752 29.4189 29.1499 29.7565M28.9628 45.9177C26.4692 47.3414 23.4305 47.0201 19.8509 44.9537C16.2712 42.8872 13.2326 39.7022 10.739 35.3984C8.24143 31.0947 6.9967 26.8886 6.9967 22.7801V6.29339C6.9967 5.80119 7.139 5.47166 7.42781 5.30895L7.51729 5.26424M29.1499 29.7565L34.0353 27.3158M34.0353 27.3158L34.0353 26.5916C34.0353 25.5787 34.2306 24.7204 34.6211 24.0208C34.8041 23.6913 35.0278 23.4187 35.2881 23.2031L28.1695 26.7625M7.51729 5.26424C7.7939 5.15441 8.12347 5.20725 8.50584 5.43098C8.93703 5.67911 9.29495 6.05335 9.58377 6.54962C9.87665 7.04996 10.019 7.54623 10.019 8.03844V18.452M10.019 18.452L13.0455 20.1971M10.019 18.452L13.0455 16.9388M13.0455 20.1971V6.31369M13.0455 20.1971V16.9388M13.0455 6.31369V16.9388M25.1431 15.0351C25.1431 14.5429 25.2895 14.2134 25.5784 14.0506L25.6679 14.0059M25.6679 14.0059C25.9404 13.8961 26.2739 13.949 26.6563 14.1727C26.8637 14.2947 27.055 14.4453 27.2299 14.6242C27.417 14.8154 27.5838 15.0391 27.7343 15.2954C28.0231 15.7957 28.1695 16.292 28.1695 16.7801V26.7625M25.6679 14.0059L30.2563 11.7116M28.1695 26.7625L36.3051 22.6947V12.7123C36.3051 12.2242 36.1587 11.7279 35.8699 11.2276C35.5811 10.7272 35.219 10.3531 34.7919 10.1049C34.3648 9.85678 34.0028 9.8161 33.7139 9.98288L30.2563 11.7116" stroke="#27272A" stroke-opacity="0.25" stroke-linecap="round" stroke-linejoin="round"/>
      </svg>