<svg xmlns="http://www.w3.org/2000/svg" viewBox="0 0 48 48">
        <path d="M15.0906 30.2858L12.278 34.6185L8.51367 32.4458C7.88209 32.0795 7.29685 31.5574 6.76212 30.8879C6.23159 30.2143 5.80632 29.4732 5.48632 28.6606L4.49269 26.1006C4.1769 25.3216 4.01685 24.5848 4.01685 23.8901C4.01685 23.1953 4.1769 22.6437 4.49269 22.2311L6.48426 19.3595L12.278 22.7069L15.0906 30.2858Z" fill="white"/>
<path d="M15.0906 16.3869L12.4927 20.3869L12.278 20.7195L8.32841 18.4374L6.48426 17.3722L4.49269 12.2016C4.1769 11.4269 4.01685 10.6901 4.01685 9.9911C4.01685 9.29216 4.1769 8.74479 4.49269 8.33216L5.48632 6.92163C5.69684 6.6311 5.9495 6.42058 6.25266 6.29847L6.27373 6.29005C6.42531 6.22689 6.58949 6.18479 6.76212 6.16795C7.29685 6.11321 7.88209 6.269 8.51367 6.63531L12.278 8.80795L14.6737 15.2627L14.7284 15.4058L15.0906 16.3869Z" fill="white"/>
<path d="M25.5159 15.4564L22.5728 19.7132L18.7285 17.4943L18.6232 17.4311L16.7791 16.3658L16.7117 16.1932L16.5138 15.6753L13.8359 8.7111L14.5643 7.66689H14.5685L15.7811 5.91531C15.9748 5.64584 16.2065 5.44795 16.4802 5.32163L16.5053 5.309C16.6738 5.23321 16.8591 5.18268 17.057 5.16163C17.5706 5.1111 18.1264 5.25005 18.7285 5.58268C18.7538 5.59952 18.7833 5.61216 18.8086 5.629L20.5391 6.62689C20.998 6.89216 21.4317 7.23742 21.8359 7.66268C21.9917 7.82689 22.1433 7.99953 22.2907 8.18479C22.8254 8.85847 23.2506 9.59952 23.5706 10.4122L25.0401 14.2227L25.078 14.3195L25.5159 15.4564Z" fill="white"/>
<path d="M26.8548 28.6858L26.5643 28.829L25.5159 29.3553L25.078 28.2185L25.0401 28.1216L22.5728 21.7006L24.8548 20.5595L24.1306 21.6079L26.8548 28.6858Z" fill="white"/>
<path d="M33.937 11.2458L31.1159 15.3258L30.8843 15.4395L27.0738 17.3469L26.9517 17.5237L22.5728 19.7132L25.5159 15.4564L26.5643 14.9301L33.937 11.2458Z" fill="white"/>
<path d="M43.7559 23.8648C43.7559 24.5595 43.5959 25.1111 43.2801 25.5237L41.2885 28.3953L33.0275 32.5258L32.9896 32.429L34.8591 29.7343C35.1749 29.3216 35.3349 28.7701 35.3349 28.0753C35.3349 27.8395 35.318 27.5995 35.2759 27.3511C35.2759 27.2879 35.259 27.2248 35.2464 27.1616C35.1706 26.7448 35.0401 26.3111 34.8591 25.8648L33.8654 23.3048C33.5454 22.4922 33.1202 21.7511 32.5896 21.0774C32.4591 20.9174 32.3285 20.7616 32.198 20.6185C31.7685 20.1637 31.318 19.7974 30.8338 19.5195L29.0233 18.4753L27.1833 17.4101L27.0738 17.3469L30.8843 15.4395L31.1159 15.3258L35.4949 13.1364L39.2548 15.309C39.8906 15.6753 40.4759 16.1974 41.0107 16.8669C41.5412 17.5406 41.9665 18.2816 42.2865 19.0943L43.2801 21.6543C43.5959 22.4332 43.7559 23.1701 43.7559 23.8648Z" fill="white"/>
<path d="M35.3349 28.0753C35.3349 28.7701 35.1749 29.3216 34.8591 29.7343L32.9896 32.429L32.8676 32.6058L31.0613 31.5616L30.8676 31.4522L29.0234 30.3869L28.9182 30.3237L27.0739 29.2585L27.0066 29.0858L26.8548 28.6858L24.1306 21.6079L24.8548 20.5595L26.9517 17.5237L27.0738 17.3469L27.1833 17.4101L29.0233 18.4753L30.8338 19.5195C31.318 19.7974 31.7685 20.1637 32.198 20.6185C32.3285 20.7616 32.4591 20.9174 32.5896 21.0774C33.1202 21.7511 33.5454 22.4922 33.8654 23.3048L34.8591 25.8648C35.0401 26.3111 35.1706 26.7448 35.2464 27.1616C35.259 27.2248 35.2717 27.2879 35.2759 27.3511C35.318 27.5995 35.3349 27.8395 35.3349 28.0753Z" fill="white"/>
<path d="M35.335 41.9743C35.335 42.669 35.1749 43.2206 34.8591 43.6332L33.8655 45.0437C33.6677 45.3174 33.436 45.5195 33.1581 45.6458C32.9855 45.7258 32.796 45.7764 32.5897 45.7974C32.055 45.8522 31.4697 45.6964 30.8339 45.3301L28.3623 43.8985H28.3581L27.0739 43.1574L26.8549 42.5848L25.8318 39.9237H25.8276L24.1307 35.5069L24.8465 34.4669H24.8507L27.0739 31.2501L27.1834 31.3132L29.0234 32.3785L32.8676 34.5974L34.8591 39.7679C35.1749 40.5427 35.335 41.2795 35.335 41.9785V41.9743Z" fill="white"/>
<path d="M41.2885 30.3827L32.8675 34.5932L29.0233 32.3743L27.1833 31.309L27.0738 31.2458L28.9182 30.3237L29.0234 30.3869L30.8676 31.4522L31.0613 31.5616L32.8676 32.6058L39.4444 29.3174L41.2885 30.3827Z" fill="white"/>
<path d="M26.9518 31.4227L24.8507 34.4585L24.8465 34.4627L23.4192 35.1785L22.5729 35.5995L16.7792 32.2522L18.6234 31.3301L18.7286 31.3932L22.5729 33.6122L26.9518 31.4227Z" fill="white"/>
<path d="M25.5159 29.3553L22.7075 33.4143L22.5729 33.6122L18.7286 31.3932L18.6234 31.3301L16.7791 30.2648L16.5138 29.5743L13.8359 22.6101L14.5517 21.57L14.5559 21.5658L16.657 18.5301L16.7791 18.3532L16.8886 18.4164L18.7285 19.4816L21.7012 21.1953L22.5728 21.7006L25.0401 28.1216L25.078 28.2185L25.5159 29.3553Z" fill="white"/>
<path d="M26.9517 17.5237L24.8548 20.5595L22.5728 21.7006L21.7012 21.1953L18.7285 19.4816L16.8886 18.4164L16.7791 18.3532L18.6232 17.4311L18.7285 17.4943L22.5728 19.7132L26.9517 17.5237Z" fill="white"/>
<path d="M16.5138 29.5743L15.0906 30.2858L12.278 22.7069L14.5517 21.57L13.8359 22.6101L16.5138 29.5743Z" fill="white"/>
<path d="M16.5138 15.6753L16.139 15.8606L15.0906 16.3869L14.7284 15.4058L14.6737 15.2627L12.278 8.80795L13.0737 8.40795L14.5643 7.66689L13.8359 8.7111L16.5138 15.6753Z" fill="white"/>
<path d="M19.4149 3.85636L16.5053 5.309L16.4802 5.32163C16.2065 5.44795 15.9748 5.64584 15.7811 5.91531L14.5685 7.66268H14.5643L13.0737 8.40795L12.278 8.80795L8.51367 6.63531C7.88209 6.269 7.29685 6.11321 6.76212 6.16795C6.58949 6.18479 6.42531 6.22689 6.27373 6.29005L14.6065 2.1132C14.7833 2.0332 14.9727 1.97846 15.1833 1.95741C15.718 1.90267 16.3032 2.05847 16.9348 2.42479L19.4149 3.85636Z" fill="white"/>
<path d="M33.937 11.2458L26.5643 14.9301L25.5159 15.4564L25.078 14.3195L25.0401 14.2227L23.5706 10.4122C23.2506 9.59952 22.8254 8.85847 22.2907 8.18479C22.1433 7.99953 21.9917 7.82689 21.8359 7.66268C21.4317 7.23742 20.998 6.89216 20.5391 6.62689L18.8086 5.629C18.7833 5.61216 18.7538 5.59952 18.7285 5.58268C18.1264 5.25005 17.5706 5.1111 17.057 5.16163C16.8591 5.18268 16.6738 5.23321 16.5053 5.309L19.4149 3.85636L24.7622 1.18268L24.9181 1.10268C25.0907 1.02268 25.2759 0.972156 25.478 0.951104C26.0127 0.896367 26.598 1.05215 27.2296 1.41847L28.9601 2.41636C29.5959 2.78267 30.1812 3.30478 30.7117 3.97426C31.2465 4.64795 31.6716 5.389 31.9916 6.20163L33.937 11.2458Z" fill="white"/>
<path d="M16.657 18.5301L14.5559 21.5658L14.5517 21.57L12.278 22.7069L6.48426 19.3595L8.32841 18.4374L12.278 20.7195L12.5264 20.5932L16.657 18.5301Z" fill="white"/>
<path d="M18.6234 31.3301L16.7792 32.2522L16.6569 32.429L12.278 34.6185L15.0906 30.2858L16.5138 29.5743L16.7791 30.2648L18.6234 31.3301Z" fill="white"/>
<path d="M25.5159 43.2543L23.5706 46.0501C23.3769 46.3195 23.1454 46.5174 22.8759 46.6437C22.6991 46.7279 22.5012 46.7785 22.2907 46.8037C21.7602 46.8585 21.1749 46.7027 20.5391 46.3364L18.897 45.389C18.2907 45.0395 17.7307 44.5385 17.2086 43.8943C16.6907 43.2458 16.2738 42.5343 15.9538 41.7553L13.8359 36.509L16.6569 32.429L16.7792 32.2522L22.5729 35.5995L25.5159 43.2543Z" fill="white"/>
<path d="M26.8549 42.5848L25.5159 43.2543L22.5729 35.5995L23.4192 35.1785L24.8465 34.4627L24.1306 35.5027L25.8275 39.9195H25.8317L26.8548 42.5806L26.8549 42.5848Z" fill="white"/>
<path d="M28.3581 43.8985L22.8759 46.6437C23.1454 46.5174 23.3769 46.3195 23.5706 46.0501L25.5159 43.2543L26.8549 42.5848L27.0739 43.1574L28.3581 43.8985Z" fill="white"/>
<path d="M43.7559 37.7637C43.7559 38.4585 43.5958 39.0101 43.28 39.4227L42.2864 40.8332C42.0885 41.1069 41.8526 41.309 41.5747 41.4353L41.5453 41.4479L33.1581 45.6458C33.436 45.5195 33.6677 45.3174 33.8655 45.0437L34.8591 43.6332C35.1749 43.2206 35.335 42.669 35.335 41.9743C35.335 41.2795 35.1747 40.5385 34.8589 39.7637L32.8675 34.5932L41.2885 30.3827L43.28 35.5532C43.5958 36.3279 43.7559 37.0648 43.7559 37.7637Z" fill="white"/>
<path d="M28.9182 30.3237L27.0738 31.2458L26.9518 31.4227L22.5729 33.6122L22.7075 33.4143L25.5159 29.3553L26.5643 28.829L26.8548 28.6858L27.0066 29.0858L27.0739 29.2585L28.9182 30.3237Z" fill="white"/>
<path d="M18.6232 17.4311L16.7791 18.3532L16.657 18.5301L12.5264 20.5932L12.278 20.7195L12.4927 20.3869L15.0906 16.3869L16.139 15.8606L16.5138 15.6753L16.7117 16.1932L16.7791 16.3658L18.6232 17.4311Z" fill="white"/>
<path d="M15.0906 30.2858L12.278 34.6185M15.0906 30.2858L12.278 22.7069M15.0906 30.2858L16.5138 29.5743M12.278 34.6185L8.51367 32.4458C7.88209 32.0795 7.29685 31.5574 6.76212 30.8879C6.23159 30.2143 5.80632 29.4732 5.48632 28.6606L4.49269 26.1006C4.1769 25.3216 4.01685 24.5848 4.01685 23.8901C4.01685 23.1953 4.1769 22.6437 4.49269 22.2311L6.48426 19.3595M12.278 34.6185L16.6569 32.429M6.48426 19.3595L12.278 22.7069M6.48426 19.3595L8.32841 18.4374M12.278 22.7069L14.5517 21.57M15.0906 16.3869L12.4927 20.3869L12.278 20.7195M15.0906 16.3869L14.7284 15.4058L14.6737 15.2627L12.278 8.80795M15.0906 16.3869L16.139 15.8606L16.5138 15.6753M12.278 20.7195L8.32841 18.4374M12.278 20.7195L12.5264 20.5932L16.657 18.5301M8.32841 18.4374L6.48426 17.3722L4.49269 12.2016C4.1769 11.4269 4.01685 10.6901 4.01685 9.9911C4.01685 9.29216 4.1769 8.74479 4.49269 8.33216L5.48632 6.92163C5.69684 6.6311 5.9495 6.42058 6.25266 6.29847L6.27373 6.29005M6.27373 6.29005C6.42531 6.22689 6.58949 6.18479 6.76212 6.16795C7.29685 6.11321 7.88209 6.269 8.51367 6.63531L12.278 8.80795M6.27373 6.29005L14.6065 2.1132C14.7833 2.0332 14.9727 1.97846 15.1833 1.95741C15.718 1.90267 16.3032 2.05847 16.9348 2.42479L19.4149 3.85636M12.278 8.80795L13.0737 8.40795M25.5159 15.4564L25.078 14.3195L25.0401 14.2227L23.5706 10.4122C23.2506 9.59952 22.8254 8.85847 22.2907 8.18479C22.1433 7.99953 21.9917 7.82689 21.8359 7.66268C21.4317 7.23742 20.998 6.89216 20.5391 6.62689L18.8086 5.629C18.7833 5.61216 18.7538 5.59952 18.7285 5.58268C18.1264 5.25005 17.5706 5.1111 17.057 5.16163C16.8591 5.18268 16.6738 5.23321 16.5053 5.309M25.5159 15.4564L26.5643 14.9301L33.937 11.2458M25.5159 15.4564L22.5728 19.7132M22.5728 19.7132L18.7285 17.4943L18.6232 17.4311M22.5728 19.7132L26.9517 17.5237M18.6232 17.4311L16.7791 16.3658L16.7117 16.1932L16.5138 15.6753M18.6232 17.4311L16.7791 18.3532M16.5138 15.6753L13.8359 8.7111L14.5643 7.66689M14.5643 7.66689H14.5685L15.7811 5.91531M14.5643 7.66689L13.0737 8.40795M15.7811 5.91531C15.9748 5.64584 16.2065 5.44795 16.4802 5.32163L16.5053 5.309M15.7811 5.91531L14.5685 7.66268H14.5643L13.0737 8.40795M16.5053 5.309L19.4149 3.85636M26.8548 28.6858L26.5643 28.829L25.5159 29.3553M26.8548 28.6858L27.0066 29.0858L27.0739 29.2585L28.9182 30.3237M26.8548 28.6858L24.1306 21.6079L24.8548 20.5595M25.5159 29.3553L25.078 28.2185L25.0401 28.1216L22.5728 21.7006M25.5159 29.3553L22.7075 33.4143L22.5729 33.6122M22.5728 21.7006L21.7012 21.1953L18.7285 19.4816L16.8886 18.4164L16.7791 18.3532M22.5728 21.7006L24.8548 20.5595M24.8548 20.5595L26.9517 17.5237M33.937 11.2458L31.1159 15.3258M33.937 11.2458L31.9916 6.20163C31.6716 5.389 31.2465 4.64795 30.7117 3.97426C30.1812 3.30478 29.5959 2.78267 28.9601 2.41636L27.2296 1.41847C26.598 1.05215 26.0127 0.896367 25.478 0.951104C25.2759 0.972156 25.0907 1.02268 24.9181 1.10268L24.7622 1.18268L19.4149 3.85636M31.1159 15.3258L30.8843 15.4395L27.0738 17.3469M31.1159 15.3258L35.4949 13.1364L39.2548 15.309C39.8906 15.6753 40.4759 16.1974 41.0107 16.8669C41.5412 17.5406 41.9665 18.2816 42.2865 19.0943L43.2801 21.6543C43.5959 22.4332 43.7559 23.1701 43.7559 23.8648C43.7559 24.5595 43.5959 25.1111 43.2801 25.5237L41.2885 28.3953L33.0275 32.5258L32.9896 32.429M27.0738 17.3469L26.9517 17.5237M27.0738 17.3469L27.1833 17.4101L29.0233 18.4753L30.8338 19.5195C31.318 19.7974 31.7685 20.1637 32.198 20.6185C32.3285 20.7616 32.4591 20.9174 32.5896 21.0774C33.1202 21.7511 33.5454 22.4922 33.8654 23.3048L34.8591 25.8648C35.0401 26.3111 35.1706 26.7448 35.2464 27.1616M32.9896 32.429L34.8591 29.7343C35.1748 29.3216 35.3349 28.7701 35.3349 28.0753C35.3349 27.8395 35.318 27.5995 35.2759 27.3511M32.9896 32.429L32.8676 32.6058M35.2759 27.3511C35.2759 27.2879 35.259 27.2248 35.2464 27.1616M35.2759 27.3511C35.2717 27.2879 35.259 27.2248 35.2464 27.1616M32.8676 32.6058L31.0613 31.5616L30.8676 31.4522L29.0234 30.3869L28.9182 30.3237M32.8676 32.6058L39.4444 29.3174L41.2885 30.3827M28.9182 30.3237L27.0738 31.2458M35.335 41.9743C35.335 42.669 35.1749 43.2206 34.8591 43.6332L33.8655 45.0437C33.6677 45.3174 33.436 45.5195 33.1581 45.6458M35.335 41.9743V41.9785C35.335 41.2795 35.1749 40.5427 34.8591 39.7679L32.8676 34.5974L29.0234 32.3785L27.1834 31.3132L27.0739 31.2501L24.8507 34.4669H24.8465L24.1307 35.5069L25.8276 39.9237H25.8318L26.8549 42.5848M35.335 41.9743C35.335 41.2795 35.1747 40.5385 34.8589 39.7637L32.8675 34.5932M33.1581 45.6458C32.9855 45.7258 32.796 45.7764 32.5897 45.7974C32.055 45.8522 31.4697 45.6964 30.8339 45.3301L28.3623 43.8985H28.3581M33.1581 45.6458L41.5453 41.4479L41.5747 41.4353C41.8526 41.309 42.0885 41.1069 42.2864 40.8332L43.28 39.4227C43.5958 39.0101 43.7559 38.4585 43.7559 37.7637C43.7559 37.0648 43.5958 36.3279 43.28 35.5532L41.2885 30.3827M28.3581 43.8985L27.0739 43.1574L26.8549 42.5848M28.3581 43.8985L22.8759 46.6437M26.8549 42.5848L25.5159 43.2543M26.8549 42.5848L26.8548 42.5806L25.8317 39.9195H25.8275L24.1306 35.5027L24.8465 34.4627M41.2885 30.3827L32.8675 34.5932M32.8675 34.5932L29.0233 32.3743L27.1833 31.309L27.0738 31.2458M27.0738 31.2458L26.9518 31.4227M26.9518 31.4227L24.8507 34.4585L24.8465 34.4627M26.9518 31.4227L22.5729 33.6122M24.8465 34.4627L23.4192 35.1785L22.5729 35.5995M22.5729 35.5995L25.5159 43.2543M22.5729 35.5995L16.7792 32.2522M16.7792 32.2522L18.6234 31.3301M16.7792 32.2522L16.6569 32.429M18.6234 31.3301L18.7286 31.3932L22.5729 33.6122M18.6234 31.3301L16.7791 30.2648L16.5138 29.5743M16.5138 29.5743L13.8359 22.6101L14.5517 21.57M14.5517 21.57L14.5559 21.5658L16.657 18.5301M16.657 18.5301L16.7791 18.3532M16.6569 32.429L13.8359 36.509L15.9538 41.7553C16.2738 42.5343 16.6907 43.2458 17.2086 43.8943C17.7307 44.5385 18.2907 45.0395 18.897 45.389L20.5391 46.3364C21.1749 46.7027 21.7602 46.8585 22.2907 46.8037C22.5012 46.7785 22.6991 46.7279 22.8759 46.6437M25.5159 43.2543L23.5706 46.0501C23.3769 46.3195 23.1454 46.5174 22.8759 46.6437" stroke="#27272A" stroke-opacity="0.25" stroke-linecap="round" stroke-linejoin="round"/>
      </svg>