<svg xmlns="http://www.w3.org/2000/svg" viewBox="0 0 48 48">
        <path d="M17.5532 30.3923V36.2928C17.5532 37.1045 17.2995 37.6509 16.7961 37.9397C16.2927 38.2245 15.6878 38.166 14.9814 37.7562L9.84194 34.7904C9.1317 34.3806 8.52686 33.7445 8.02344 32.8743C7.52003 32.0079 7.2702 31.165 7.2702 30.3572V24.4567C7.2702 23.645 7.52003 23.0948 8.02344 22.8099L8.18341 22.7318C8.6517 22.5367 9.20585 22.6265 9.84194 22.9894L14.9814 25.9592C15.0126 25.9787 15.0439 25.9943 15.0751 26.0177C15.7424 26.4236 16.3161 27.044 16.7961 27.8714C17.2995 28.7416 17.5532 29.5806 17.5532 30.3923Z" fill="white"/>
<path d="M40.7805 35.3953V41.2957C40.7805 42.1075 40.5308 42.6538 40.0274 42.9426L39.8673 43.0206L32.2225 46.845C32.7259 46.5562 32.9756 46.0099 32.9756 45.1982V39.2977C32.9756 38.486 32.7259 37.647 32.2225 36.7767C31.7425 35.9494 31.1687 35.3289 30.4975 34.9231C30.4663 34.8997 30.4351 34.884 30.4039 34.8645L25.3581 31.9494L25.2644 31.8948C24.6322 31.5318 24.0781 31.4421 23.6098 31.6372L25.3581 30.7631L29.7287 28.5738L30.4039 28.964C30.4468 28.9875 30.4859 29.0109 30.5288 29.0304C31.1844 29.3777 31.7503 29.4167 32.2225 29.1475L33.7483 28.3865L38.2087 30.9621C38.919 31.3679 39.5239 32.0079 40.0274 32.8743C40.5308 33.7445 40.7805 34.5836 40.7805 35.3953Z" fill="white"/>
<path d="M32.9756 39.2977V45.1982C32.9756 46.0099 32.7259 46.5562 32.2225 46.845C31.7191 47.1299 31.1139 47.0714 30.4037 46.6616L25.2642 43.6958C24.5579 43.286 23.953 42.6499 23.4496 41.7797C22.9462 40.9133 22.6925 40.0704 22.6925 39.2587V33.3621C22.6925 32.5504 22.9462 32.0001 23.4496 31.7153L23.6098 31.6372C24.0781 31.4421 24.6322 31.5318 25.2644 31.8948L25.3581 31.9494L30.4039 34.8645C30.4351 34.884 30.4663 34.8997 30.4975 34.9231C31.1687 35.3289 31.7425 35.9494 32.2225 36.7767C32.7259 37.647 32.9756 38.486 32.9756 39.2977Z" fill="white"/>
<path d="M25.3579 8.79234V13.0616L23.6097 13.9358L23.4497 14.0138C22.9463 14.3026 22.6926 14.8489 22.6926 15.6606V17.2957L18.3218 19.4772L16.796 20.2421C17.2058 20.0079 17.4477 19.6021 17.5218 19.0206C17.5453 18.8879 17.5531 18.7436 17.5531 18.5914V12.6948C17.5531 11.8831 17.2994 11.044 16.796 10.1738C16.316 9.34648 15.7423 8.72599 15.075 8.32014C15.0438 8.29673 15.0125 8.28112 14.9813 8.2616L9.84185 5.29185C9.20575 4.92502 8.65161 4.83917 8.18331 5.03039L15.8282 1.20598C16.3316 0.921105 16.9365 0.979642 17.6467 1.3894L22.7862 4.35917C23.4925 4.76502 24.0975 5.40502 24.6009 6.27136C25.1043 7.1416 25.3579 7.98063 25.3579 8.79234Z" fill="white"/>
<path d="M32.9758 21.6001V27.4967C32.9758 27.6489 32.968 27.7933 32.9446 27.926C32.8743 28.5075 32.6322 28.9133 32.2225 29.1475C31.7503 29.4167 31.1844 29.3777 30.5288 29.0304C30.4859 29.0109 30.4468 28.9875 30.4039 28.964L29.7287 28.5738L25.3309 26.0333L25.2646 25.9943C24.5583 25.5884 23.9534 24.9484 23.45 24.0821C23.0402 23.3758 22.7982 22.6889 22.7202 22.0177C22.7007 21.8655 22.6928 21.7133 22.6928 21.5611L22.6926 15.6606C22.6926 14.8489 22.9463 14.3026 23.4497 14.0138L23.6097 13.9358C24.078 13.7445 24.6324 13.8304 25.2646 14.1972L25.3582 14.2518L30.4041 17.1631C30.4353 17.1826 30.4665 17.2021 30.4977 17.2216C31.1689 17.6314 31.7427 18.2518 32.2227 19.0792C32.7261 19.9494 32.9758 20.7884 32.9758 21.6001Z" fill="white"/>
<path d="M40.7805 17.6977V23.5943C40.7805 24.406 40.5308 24.9562 40.0274 25.245L39.8673 25.3231L33.7483 28.3865L32.2225 29.1475C32.6322 28.9133 32.8743 28.5075 32.9446 27.926C32.968 27.7933 32.9758 27.6489 32.9758 27.4967V21.6001C32.9758 20.7884 32.7261 19.9494 32.2227 19.0792C31.7427 18.2518 31.1689 17.6314 30.4977 17.2216C30.4665 17.2021 30.4353 17.1826 30.4041 17.1631L25.3582 14.2518L25.2646 14.1972C24.6324 13.8304 24.078 13.7445 23.6097 13.9358L25.3579 13.0616L31.2547 10.1114C31.7581 9.82648 32.3629 9.88502 33.0693 10.2948L38.2087 13.2606C38.919 13.6704 39.5239 14.3104 40.0274 15.1767C40.5308 16.047 40.7805 16.886 40.7805 17.6977Z" fill="white"/>
<path d="M17.5531 12.6948V18.5914C17.5531 18.7436 17.5453 18.8879 17.5218 19.0206C17.4477 19.6021 17.2058 20.0079 16.796 20.2421C16.3238 20.5114 15.762 20.4723 15.1063 20.1289C15.0673 20.1055 15.0244 20.0821 14.9814 20.0586L14.3063 19.6684L9.84194 17.0889C9.1317 16.683 8.52686 16.043 8.02344 15.1767C7.52003 14.3064 7.2702 13.4674 7.2702 12.6557V6.75522C7.2702 5.94742 7.52003 5.39718 8.02344 5.10839L8.18331 5.03039C8.65161 4.83917 9.20575 4.92502 9.84185 5.29185L14.9813 8.2616C15.0125 8.28112 15.0438 8.29673 15.075 8.32014C15.7423 8.72599 16.316 9.34648 16.796 10.1738C17.2994 11.044 17.5531 11.8831 17.5531 12.6948Z" fill="white"/>
<path d="M25.3579 26.4899L25.3581 30.7631L23.6098 31.6372L23.4496 31.7153C22.9462 32.0001 22.6925 32.5504 22.6925 33.3621L22.6926 34.9933L16.7961 37.9397C17.2995 37.6509 17.5532 37.1045 17.5532 36.2928V30.3923C17.5532 29.5806 17.2995 28.7416 16.7961 27.8714C16.3161 27.044 15.7424 26.4236 15.0751 26.0177C15.0439 25.9943 15.0126 25.9787 14.9814 25.9592L9.84194 22.9894C9.20585 22.6265 8.6517 22.5367 8.18341 22.7318L14.3063 19.6684L14.9814 20.0586C15.0244 20.0821 15.0673 20.1055 15.1063 20.1289C15.762 20.4723 16.3238 20.5114 16.796 20.2421L18.3218 19.4772L22.7202 22.0177C22.7982 22.6889 23.0402 23.3758 23.45 24.0821C23.9534 24.9484 24.5583 25.5884 25.2646 25.9943L25.3309 26.0333C25.3504 26.1855 25.3579 26.3377 25.3579 26.4899Z" fill="white"/>
<path d="M16.7961 37.9397C17.2995 37.6509 17.5532 37.1045 17.5532 36.2928V30.3923C17.5532 29.5806 17.2995 28.7416 16.7961 27.8714C16.3161 27.044 15.7424 26.4236 15.0751 26.0177C15.0439 25.9943 15.0126 25.9787 14.9814 25.9592L9.84194 22.9894C9.20585 22.6265 8.6517 22.5367 8.18341 22.7318M16.7961 37.9397C16.2927 38.2245 15.6878 38.166 14.9814 37.7562L9.84194 34.7904C9.1317 34.3806 8.52686 33.7445 8.02344 32.8743C7.52003 32.0079 7.2702 31.165 7.2702 30.3572V24.4567C7.2702 23.645 7.52003 23.0948 8.02344 22.8099L8.18341 22.7318M16.7961 37.9397L22.6926 34.9933L22.6925 33.3621M8.18341 22.7318L14.3063 19.6684M32.2225 46.845L39.8673 43.0206L40.0274 42.9426C40.5308 42.6538 40.7805 42.1075 40.7805 41.2957V35.3953C40.7805 34.5836 40.5308 33.7445 40.0274 32.8743C39.5239 32.0079 38.919 31.3679 38.2087 30.9621L33.7483 28.3865M32.2225 46.845C32.7259 46.5562 32.9756 46.0099 32.9756 45.1982V39.2977C32.9756 38.486 32.7259 37.647 32.2225 36.7767C31.7425 35.9494 31.1687 35.3289 30.4975 34.9231C30.4663 34.8997 30.4351 34.884 30.4039 34.8645L25.3581 31.9494L25.2644 31.8948C24.6322 31.5318 24.0781 31.4421 23.6098 31.6372M32.2225 46.845C31.7191 47.1299 31.1139 47.0714 30.4037 46.6616L25.2642 43.6958C24.5579 43.286 23.953 42.6499 23.4496 41.7797C22.9462 40.9133 22.6925 40.0704 22.6925 39.2587V33.3621M23.6098 31.6372L25.3581 30.7631M23.6098 31.6372L23.4496 31.7153C22.9462 32.0001 22.6925 32.5504 22.6925 33.3621M25.3581 30.7631L29.7287 28.5738M25.3581 30.7631L25.3579 26.4899C25.3579 26.3377 25.3504 26.1855 25.3309 26.0333M29.7287 28.5738L30.4039 28.964C30.4468 28.9875 30.4859 29.0109 30.5288 29.0304C31.1844 29.3777 31.7503 29.4167 32.2225 29.1475M29.7287 28.5738L25.3309 26.0333M32.2225 29.1475L33.7483 28.3865M32.2225 29.1475C32.6322 28.9133 32.8743 28.5075 32.9446 27.926C32.968 27.7933 32.9758 27.6489 32.9758 27.4967V21.6001C32.9758 20.7884 32.7261 19.9494 32.2227 19.0792C31.7427 18.2518 31.1689 17.6314 30.4977 17.2216C30.4665 17.2021 30.4353 17.1826 30.4041 17.1631L25.3582 14.2518L25.2646 14.1972C24.6324 13.8304 24.078 13.7445 23.6097 13.9358M33.7483 28.3865L39.8673 25.3231L40.0274 25.245C40.5308 24.9562 40.7805 24.406 40.7805 23.5943V17.6977C40.7805 16.886 40.5308 16.047 40.0274 15.1767C39.5239 14.3104 38.919 13.6704 38.2087 13.2606L33.0693 10.2948C32.3629 9.88502 31.7581 9.82648 31.2547 10.1114L25.3579 13.0616M25.3579 13.0616V8.79234C25.3579 7.98063 25.1043 7.1416 24.6009 6.27136C24.0975 5.40502 23.4925 4.76502 22.7862 4.35917L17.6467 1.3894C16.9365 0.979642 16.3316 0.921105 15.8282 1.20598L8.18331 5.03039M25.3579 13.0616L23.6097 13.9358M23.6097 13.9358L23.4497 14.0138C22.9463 14.3026 22.6926 14.8489 22.6926 15.6606M22.6926 15.6606V17.2957L18.3218 19.4772M22.6926 15.6606L22.6928 21.5611C22.6928 21.7133 22.7007 21.8655 22.7202 22.0177M18.3218 19.4772L16.796 20.2421M18.3218 19.4772L22.7202 22.0177M16.796 20.2421C17.2058 20.0079 17.4477 19.6021 17.5218 19.0206C17.5453 18.8879 17.5531 18.7436 17.5531 18.5914V12.6948C17.5531 11.8831 17.2994 11.044 16.796 10.1738C16.316 9.34648 15.7423 8.72599 15.075 8.32014C15.0438 8.29673 15.0125 8.28112 14.9813 8.2616L9.84185 5.29185C9.20575 4.92502 8.65161 4.83917 8.18331 5.03039M16.796 20.2421C16.3238 20.5114 15.762 20.4723 15.1063 20.1289C15.0673 20.1055 15.0244 20.0821 14.9814 20.0586L14.3063 19.6684M8.18331 5.03039L8.02344 5.10839C7.52003 5.39718 7.2702 5.94742 7.2702 6.75522V12.6557C7.2702 13.4674 7.52003 14.3064 8.02344 15.1767C8.52686 16.043 9.1317 16.683 9.84194 17.0889L14.3063 19.6684M25.3309 26.0333L25.2646 25.9943C24.5582 25.5884 23.9534 24.9484 23.45 24.0821C23.0402 23.3758 22.7982 22.6889 22.7202 22.0177" stroke="#27272A" stroke-opacity="0.25" stroke-linecap="round" stroke-linejoin="round"/>
      </svg>