<svg xmlns="http://www.w3.org/2000/svg" viewBox="0 0 48 48">
        <path d="M45.379 14.7837C44.2491 13.1525 42.5585 11.687 40.3073 10.3872C38.056 9.08738 35.5158 8.11039 32.691 7.45623C29.862 6.80632 26.9862 6.47499 24.068 6.47075C21.1455 6.4665 18.2783 6.78508 15.4535 7.4265C12.633 8.06791 10.1056 9.03641 7.86698 10.3277C5.6284 11.6191 3.95472 13.0803 2.8418 14.7072C1.72888 16.3383 1.17666 17.995 1.18516 19.6814C1.19365 21.1044 1.60144 22.5061 2.40852 23.8909C2.55719 24.1458 2.71862 24.4049 2.89703 24.6598C3.61915 25.7047 4.5749 26.6817 5.75579 27.5865C6.42269 28.1005 7.1576 28.589 7.96893 29.0562C10.2203 30.356 12.7604 31.333 15.5894 31.9872C18.4184 32.6371 21.29 32.9684 24.2125 32.9727C27.1307 32.9769 30.0022 32.6583 32.8227 32.0169C35.6433 31.3755 38.1749 30.407 40.4093 29.1157C40.8935 28.8353 41.3565 28.5465 41.7898 28.2491C43.3486 27.1787 44.5634 26.0106 45.4342 24.7362C45.5914 24.5068 45.7358 24.2775 45.8675 24.0481C46.6831 22.6506 47.0909 21.236 47.0909 19.8003V19.7621C47.0824 18.0757 46.5132 16.4191 45.379 14.7837ZM42.5203 20.3525C42.4142 21.5419 41.9597 22.693 41.1526 23.8017C40.2139 25.0973 38.88 26.2399 37.1554 27.2382C36.5225 27.6035 35.8684 27.9391 35.1887 28.2364C32.0071 29.6552 28.3413 30.3603 24.1954 30.3518C19.1661 30.3433 14.8376 29.2899 11.2015 27.1914C9.46836 26.189 8.14309 25.093 7.23406 23.9079C6.35477 22.7653 5.86198 21.5376 5.75154 20.2251C5.7388 20.0467 5.7303 19.8683 5.7303 19.6899C5.71331 16.7844 7.51012 14.2909 11.1207 12.2052C14.7314 10.1196 19.0514 9.08313 24.0807 9.09163C29.1101 9.10013 33.4387 10.1536 37.0748 12.252L27.5215 17.7656L24.1402 19.7196L41.6921 19.7536H42.55C42.55 19.9532 42.5415 20.1529 42.5203 20.3525Z" fill="white"/>
<path d="M37.0748 12.252L27.5215 17.7656C26.4128 17.6509 25.266 17.5872 24.0808 17.5872C19.0514 17.5787 14.7314 18.6152 11.1208 20.7008C9.42596 21.6821 8.13034 22.7483 7.23406 23.9079C6.35477 22.7653 5.86198 21.5376 5.75154 20.2251C5.7388 20.0467 5.7303 19.8683 5.7303 19.6899C5.71331 16.7844 7.51012 14.2909 11.1207 12.2052C14.7314 10.1196 19.0514 9.08313 24.0807 9.09163C29.1101 9.10013 33.4387 10.1536 37.0748 12.252Z" fill="white"/>
<path d="M42.55 19.7536C42.55 19.9532 42.5415 20.1529 42.5203 20.3525C42.4142 21.5419 41.9597 22.693 41.1526 23.8017C40.2139 25.0973 38.88 26.2399 37.1554 27.2382C36.5225 27.6035 35.8684 27.9391 35.1887 28.2364L24.1401 28.2151L24.1402 19.7196L41.6921 19.7536H42.55Z" fill="white"/>
<path d="M47.0909 19.8003L47.0909 28.2576C47.0994 29.944 46.5472 31.6006 45.4342 33.2318C44.3213 34.8587 42.6477 36.3199 40.4092 37.6113C38.1748 38.9026 35.6431 39.8711 32.8226 40.5125C30.0021 41.1539 27.1306 41.4725 24.2123 41.4683C21.2899 41.464 18.4184 41.1327 15.5893 40.4828C12.7603 39.8286 10.2201 38.8516 7.9688 37.5518C5.71747 36.252 4.02684 34.7865 2.89693 33.1553C1.76702 31.5199 1.19355 29.8633 1.18506 28.1769L1.18516 19.6814C1.19365 21.1044 1.60144 22.5061 2.40852 23.8909C2.55719 24.1458 2.71862 24.4049 2.89703 24.6598C3.61915 25.7047 4.5749 26.6817 5.75579 27.5865C6.42269 28.1005 7.1576 28.589 7.96893 29.0562C10.2203 30.356 12.7604 31.333 15.5894 31.9872C18.4184 32.6371 21.29 32.9684 24.2125 32.9727C27.1307 32.9769 30.0022 32.6583 32.8227 32.0169C35.6433 31.3755 38.1749 30.407 40.4093 29.1157C40.8935 28.8353 41.3565 28.5465 41.7898 28.2491C43.3486 27.1787 44.5634 26.0106 45.4342 24.7362C45.5914 24.5068 45.7358 24.2775 45.8675 24.0481C46.6831 22.6506 47.0909 21.236 47.0909 19.8003Z" fill="white"/>
<path d="M1.18516 19.6814C1.17666 17.995 1.72888 16.3383 2.8418 14.7072C3.95472 13.0803 5.6284 11.6191 7.86698 10.3277C10.1056 9.03641 12.633 8.06791 15.4535 7.4265C18.2783 6.78508 21.1455 6.4665 24.068 6.47075C26.9862 6.47499 29.862 6.80632 32.691 7.45623C35.5158 8.11039 38.056 9.08738 40.3073 10.3872C42.5585 11.687 44.2491 13.1525 45.379 14.7837C46.5132 16.4191 47.0824 18.0757 47.0909 19.7621V19.8003M1.18516 19.6814C1.19365 21.1044 1.60144 22.5061 2.40852 23.8909C2.55719 24.1458 2.71862 24.4049 2.89703 24.6598C3.61915 25.7047 4.5749 26.6817 5.75579 27.5865C6.42269 28.1005 7.1576 28.589 7.96893 29.0562C10.2203 30.356 12.7604 31.333 15.5894 31.9872C18.4184 32.6371 21.29 32.9684 24.2125 32.9727C27.1307 32.9769 30.0022 32.6583 32.8227 32.0169C35.6433 31.3755 38.1749 30.407 40.4093 29.1157C40.8935 28.8353 41.3565 28.5465 41.7898 28.2491C43.3486 27.1787 44.5634 26.0106 45.4342 24.7362C45.5914 24.5068 45.7358 24.2775 45.8675 24.0481C46.6831 22.6506 47.0909 21.236 47.0909 19.8003M1.18516 19.6814L1.18506 28.1769C1.19355 29.8633 1.76702 31.5199 2.89693 33.1553C4.02684 34.7865 5.71747 36.252 7.9688 37.5518C10.2201 38.8516 12.7603 39.8286 15.5893 40.4828C18.4184 41.1327 21.2899 41.464 24.2123 41.4683C27.1306 41.4725 30.0021 41.1539 32.8226 40.5125C35.6431 39.8711 38.1748 38.9026 40.4092 37.6113C42.6477 36.3199 44.3213 34.8587 45.4342 33.2318C46.5472 31.6006 47.0994 29.944 47.0909 28.2576L47.0909 19.8003M35.1887 28.2364C35.8684 27.9391 36.5225 27.6035 37.1554 27.2382C38.88 26.2399 40.2139 25.0973 41.1526 23.8017C41.9597 22.693 42.4142 21.5419 42.5203 20.3525C42.5415 20.1529 42.55 19.9532 42.55 19.7536H41.6921L24.1402 19.7196M35.1887 28.2364C32.0071 29.6552 28.3413 30.3603 24.1954 30.3518C19.1661 30.3433 14.8376 29.2899 11.2015 27.1914C9.46835 26.189 8.14309 25.093 7.23406 23.9079M35.1887 28.2364L24.1401 28.2151L24.1402 19.7196M7.23406 23.9079C6.35477 22.7653 5.86198 21.5376 5.75154 20.2251C5.7388 20.0467 5.7303 19.8683 5.7303 19.6899C5.71331 16.7844 7.51012 14.2909 11.1207 12.2052C14.7314 10.1196 19.0514 9.08313 24.0807 9.09163C29.1101 9.10013 33.4387 10.1536 37.0748 12.252L27.5215 17.7656M7.23406 23.9079C8.13034 22.7483 9.42596 21.6821 11.1208 20.7008C14.7314 18.6152 19.0514 17.5787 24.0808 17.5872C25.266 17.5872 26.4128 17.6509 27.5215 17.7656M27.5215 17.7656L24.1402 19.7196" stroke="#27272A" stroke-opacity="0.25" stroke-linecap="round" stroke-linejoin="round"/>
      </svg>