<svg xmlns="http://www.w3.org/2000/svg" viewBox="0 0 48 48">
        <path d="M46.8492 28.3097C46.8575 29.9856 46.3071 31.6367 45.1981 33.2587C44.0933 34.8808 42.4257 36.3332 40.1996 37.6201C37.9693 38.907 35.4535 39.867 32.6438 40.5084C29.8342 41.1456 26.9789 41.4642 24.07 41.4601C21.1651 41.456 18.3017 41.1249 15.4879 40.4753C12.67 39.8256 10.1418 38.8532 7.90314 37.5621C5.66038 36.267 3.98029 34.8063 2.85477 33.1801C1.72925 31.558 1.15827 29.9029 1.14999 28.227V19.9511C1.15827 21.3332 1.54726 22.7029 2.31692 24.0518C2.4783 24.3373 2.65615 24.6187 2.85477 24.9042C3.98029 26.5305 5.66038 27.9911 7.90314 29.2863C10.088 30.5442 12.5458 31.5001 15.281 32.1456C15.3513 32.1663 15.4175 32.1829 15.4879 32.1994C16.7375 32.4891 17.9955 32.7125 19.2659 32.8698C20.8507 33.0767 22.4562 33.1801 24.07 33.1842C26.9789 33.1884 29.8342 32.8698 32.6438 32.2325C35.4535 31.5911 37.9693 30.6311 40.1996 29.3442C42.4257 28.0573 44.0933 26.6049 45.1981 24.9829C45.3719 24.7263 45.5375 24.4698 45.6823 24.2091C46.3237 23.0877 46.7002 21.9539 46.8119 20.8077L46.8492 28.3097Z" fill="white"/>
<path d="M45.1448 15.0767C44.0192 13.4505 42.3388 11.9939 40.0962 10.6987C37.8576 9.40356 35.3294 8.43112 32.5115 7.78147C29.6977 7.13181 26.8343 6.80492 23.9294 6.80078C21.0205 6.80078 18.1653 7.11115 15.3556 7.75253C12.546 8.38977 10.0301 9.3539 7.79977 10.6408C5.57357 11.9236 3.90594 13.3801 2.80112 15.0022C1.69215 16.6242 1.14172 18.2711 1.14999 19.9511C1.15827 21.3332 1.54726 22.7029 2.31692 24.0518C2.4783 24.3373 2.65615 24.6187 2.85477 24.9042C3.98029 26.5305 5.66038 27.9911 7.90314 29.2863C10.088 30.5442 12.5458 31.5001 15.281 32.1456C15.3513 32.1663 15.4175 32.1829 15.4879 32.1994C16.7375 32.4891 17.9955 32.7125 19.2659 32.8698C20.8507 33.0767 22.4562 33.1801 24.07 33.1842C26.9789 33.1884 29.8342 32.8698 32.6438 32.2325C35.4535 31.5911 37.9693 30.6311 40.1996 29.3442C42.4257 28.0573 44.0933 26.6049 45.1981 24.9829C45.3719 24.7263 45.5375 24.4698 45.6823 24.2091C46.3237 23.0877 46.7002 21.9539 46.8119 20.8077L46.8124 20.787C46.8413 20.5387 46.8492 20.2863 46.8492 20.0339C46.8409 18.3539 46.2703 16.7029 45.1448 15.0767ZM32.0563 17.2077L19.1791 24.6436C18.7239 24.9084 18.1859 25.0408 17.5693 25.0367C16.9487 25.0367 16.4108 24.9042 15.9515 24.6394C15.4921 24.3745 15.2605 24.0642 15.2605 23.7042C15.2605 23.3483 15.4839 23.038 15.9432 22.7732L28.7335 15.387L28.8204 15.3373C29.2756 15.0767 29.8135 14.9442 30.4301 14.9442C31.0508 14.9442 31.5887 15.0808 32.048 15.3456C32.4328 15.5691 32.6605 15.8256 32.7184 16.1111C32.7349 16.1649 32.7391 16.2187 32.7391 16.2767C32.7391 16.6367 32.5156 16.947 32.0563 17.2077Z" fill="white"/>
<path d="M32.7391 16.2767C32.7391 16.6367 32.5156 16.947 32.0563 17.2077L19.1791 24.6436C18.7239 24.9084 18.1859 25.0408 17.5693 25.0367C16.9487 25.0367 16.4108 24.9042 15.9515 24.6394C15.4921 24.3745 15.2605 24.0642 15.2605 23.7042C15.2605 23.3483 15.4839 23.038 15.9432 22.7732L28.7335 15.387L28.8204 15.3373C29.2756 15.0767 29.8135 14.9442 30.4301 14.9442C31.0508 14.9442 31.5887 15.0808 32.048 15.3456C32.4328 15.5691 32.6605 15.8256 32.7184 16.1111C32.7349 16.1649 32.7391 16.2187 32.7391 16.2767Z" fill="white"/>
<path d="M1.14999 19.9511V28.227C1.15827 29.9029 1.72925 31.558 2.85477 33.1801C3.98029 34.8063 5.66038 36.267 7.90314 37.5621C10.1418 38.8532 12.67 39.8256 15.4879 40.4753C18.3017 41.1249 21.1651 41.456 24.07 41.4601C26.9789 41.4642 29.8342 41.1456 32.6438 40.5084C35.4535 39.867 37.9693 38.907 40.1996 37.6201C42.4257 36.3332 44.0933 34.8808 45.1981 33.2587C46.3071 31.6367 46.8575 29.9856 46.8492 28.3097L46.8119 20.8077M1.14999 19.9511C1.15827 21.3332 1.54726 22.7029 2.31692 24.0518C2.4783 24.3373 2.65615 24.6187 2.85477 24.9042C3.98029 26.5305 5.66038 27.9911 7.90314 29.2863C10.088 30.5442 12.5458 31.5001 15.281 32.1456C15.3513 32.1663 15.4175 32.1829 15.4879 32.1994C16.7375 32.4891 17.9955 32.7125 19.2659 32.8698C20.8507 33.0767 22.4562 33.1801 24.07 33.1842C26.9789 33.1884 29.8342 32.8698 32.6438 32.2325C35.4535 31.5911 37.9693 30.6311 40.1996 29.3442C42.4257 28.0573 44.0933 26.6049 45.1981 24.9829C45.3719 24.7263 45.5375 24.4698 45.6823 24.2091C46.3237 23.0877 46.7002 21.9539 46.8119 20.8077M1.14999 19.9511C1.14172 18.2711 1.69215 16.6242 2.80112 15.0022C3.90594 13.3801 5.57357 11.9236 7.79977 10.6408C10.0301 9.3539 12.546 8.38977 15.3556 7.75253C18.1653 7.11115 21.0205 6.80078 23.9294 6.80078C26.8343 6.80492 29.6977 7.13181 32.5115 7.78147C35.3294 8.43112 37.8576 9.40356 40.0962 10.6987C42.3388 11.9939 44.0193 13.4505 45.1448 15.0767C46.2703 16.7029 46.8409 18.3539 46.8492 20.0339C46.8492 20.2863 46.8413 20.5387 46.8124 20.787L46.8119 20.8077M32.0563 17.2077L19.1791 24.6436C18.7239 24.9084 18.1859 25.0408 17.5693 25.0367C16.9487 25.0367 16.4108 24.9042 15.9515 24.6394C15.4921 24.3746 15.2605 24.0642 15.2605 23.7042C15.2605 23.3483 15.4839 23.038 15.9432 22.7732L28.7335 15.387L28.8204 15.3373C29.2756 15.0767 29.8135 14.9442 30.4301 14.9442C31.0508 14.9442 31.5887 15.0808 32.048 15.3456C32.4328 15.5691 32.6605 15.8256 32.7184 16.1111C32.7349 16.1649 32.7391 16.2187 32.7391 16.2767C32.7391 16.6367 32.5156 16.947 32.0563 17.2077Z" stroke="#27272A" stroke-opacity="0.25" stroke-linecap="round" stroke-linejoin="round"/>
      </svg>