<svg xmlns="http://www.w3.org/2000/svg" viewBox="0 0 48 48">
        <path d="M22.0991 20.9609C21.6527 20.7065 21.1294 20.5768 20.5246 20.572C19.9246 20.572 19.4014 20.7017 18.955 20.9561C18.5134 21.2105 18.2926 21.5128 18.2926 21.8632C18.2974 22.2088 18.5182 22.5113 18.9646 22.7705C19.411 23.0297 19.9391 23.1593 20.5391 23.1593C21.1391 23.1593 21.6622 23.0297 22.1086 22.7753C22.5502 22.5209 22.771 22.2184 22.771 21.868C22.771 21.5176 22.5455 21.2201 22.0991 20.9609Z" fill="white"/>
<path d="M46.7374 16.8135C46.123 14.2407 44.1742 12.0088 40.891 10.1128C36.9502 7.83756 32.2318 6.69521 26.7358 6.68561C21.235 6.67601 16.5311 7.79922 12.6143 10.06C10.6031 11.2216 9.10544 12.5656 8.12144 14.0872C7.13264 15.6136 6.71029 17.2024 6.84949 18.8489L1.67986 21.8296C1.23826 22.0888 1.01746 22.3912 1.01746 22.7368C1.02226 23.0872 1.24307 23.3896 1.68947 23.644L12.7198 30.0135C13.1662 30.2727 13.6943 30.4024 14.2943 30.4024C14.8943 30.4024 15.4222 30.2775 15.8638 30.0183L17.4286 29.116L19.507 30.316L20.5822 30.9352C21.2062 31.2952 21.9311 31.5304 22.7519 31.6312C23.0639 31.6696 23.3854 31.6888 23.7262 31.6888C24.9598 31.6888 26.0063 31.444 26.8655 30.9448L31.5646 28.2328L32.8655 28.9864L34.7134 30.052C35.2414 30.3592 35.8607 30.484 36.5807 30.4312C37.3007 30.3784 37.8431 30.172 38.2079 29.812L44.1838 23.9944C44.4958 23.692 44.7839 23.3896 45.0383 23.0824C46.3007 21.5992 46.9343 20.044 46.9343 18.412C46.9343 17.884 46.867 17.3511 46.7374 16.8135ZM22.1086 22.7753C21.6622 23.0297 21.1439 23.1593 20.5391 23.1593C19.9343 23.1593 19.411 23.0297 18.9646 22.7705C18.5182 22.5113 18.2974 22.2088 18.2926 21.8632C18.2926 21.5128 18.5134 21.2105 18.955 20.9561C19.4014 20.7017 19.9246 20.572 20.5246 20.572C21.1294 20.5768 21.6527 20.7065 22.0991 20.9609C22.5455 21.2201 22.771 21.5224 22.771 21.868C22.771 22.2136 22.5502 22.5209 22.1086 22.7753ZM36.3743 17.7112C36.1247 18.0472 35.7598 18.3495 35.2798 18.6279C34.7326 18.9399 34.1326 19.1656 33.4798 19.2952C33.4174 19.3048 33.3503 19.3193 33.2831 19.3289C32.5487 19.4489 31.3054 19.5257 29.5534 19.5689C28.795 19.5833 28.1807 19.6263 27.7055 19.7031C27.2351 19.7751 26.8031 19.8808 26.4143 20.0152C25.9967 20.1688 25.5647 20.2264 25.1183 20.1976C24.6719 20.164 24.3071 20.068 24.0191 19.9C23.6735 19.7032 23.5102 19.4729 23.5246 19.2089C23.5342 18.9449 23.7214 18.7336 24.0862 18.5848C24.691 18.3304 25.3055 18.148 25.9295 18.0424C26.5583 17.9368 27.3838 17.8792 28.4062 17.8648C29.7406 17.8552 30.7102 17.8024 31.3102 17.7112C31.9102 17.6248 32.4191 17.4568 32.8367 17.2168C33.0095 17.116 33.1439 17.0104 33.2495 16.9C33.3743 16.7656 33.451 16.6264 33.4798 16.4728V16.1848C33.4126 15.7864 33.091 15.4168 32.515 15.0856C32.1454 14.8744 31.7038 14.716 31.195 14.62C30.6814 14.5192 30.1391 14.4856 29.5631 14.5144C29.0687 14.5576 28.6366 14.5287 28.267 14.4183C27.9022 14.3127 27.6382 14.14 27.4798 13.8952C27.3214 13.6552 27.3118 13.4104 27.4558 13.1608C27.5998 12.9112 27.8782 12.7576 28.2958 12.6952C29.4478 12.5464 30.5999 12.5704 31.7567 12.772C32.9087 12.9688 33.9022 13.3096 34.7422 13.7992C36.0046 14.524 36.6814 15.3544 36.7822 16.2856C36.835 16.8088 36.7007 17.284 36.3743 17.7112Z" fill="white"/>
<path d="M33.4798 16.4728V19.2952C33.4174 19.3048 33.3503 19.3193 33.2831 19.3289C32.5487 19.4489 31.3054 19.5257 29.5534 19.5689C28.795 19.5833 28.1807 19.6263 27.7055 19.7031C27.2351 19.7751 26.8031 19.8808 26.4143 20.0152C25.9967 20.1688 25.5647 20.2264 25.1183 20.1976C24.6719 20.164 24.3071 20.068 24.0191 19.9C23.6735 19.7032 23.5102 19.4729 23.5246 19.2089C23.5342 18.9449 23.7214 18.7336 24.0862 18.5848C24.691 18.3304 25.3055 18.148 25.9295 18.0424C26.5583 17.9368 27.3838 17.8792 28.4062 17.8648C29.7406 17.8552 30.7102 17.8024 31.3102 17.7112C31.9102 17.6248 32.4191 17.4568 32.8367 17.2168C33.0095 17.116 33.1439 17.0104 33.2495 16.9C33.3743 16.7656 33.451 16.6264 33.4798 16.4728Z" fill="white"/>
<path d="M36.3743 17.7112C36.1247 18.0472 35.7598 18.3495 35.2798 18.6279C34.7326 18.9399 34.1326 19.1656 33.4798 19.2952V16.1848C33.4126 15.7864 33.091 15.4168 32.515 15.0856C32.1454 14.8744 31.7038 14.716 31.195 14.62C30.6814 14.5192 30.1391 14.4856 29.5631 14.5144C29.0687 14.5576 28.6366 14.5287 28.267 14.4183C27.9022 14.3127 27.6382 14.14 27.4798 13.8952C27.3214 13.6552 27.3118 13.4104 27.4558 13.1608C27.5998 12.9112 27.8782 12.7576 28.2958 12.6952C29.4478 12.5464 30.5999 12.5704 31.7567 12.772C32.9087 12.9688 33.9022 13.3096 34.7422 13.7992C36.0046 14.524 36.6814 15.3544 36.7822 16.2856C36.835 16.8088 36.7007 17.284 36.3743 17.7112Z" fill="white"/>
<path d="M31.5646 28.2328V37.8328L26.8654 40.5449C26.0062 41.0441 24.9598 41.2937 23.7262 41.2889C22.4974 41.2889 21.4462 41.0345 20.5822 40.5353L17.4286 38.7161V29.116L19.507 30.316L20.5822 30.9352C21.2062 31.2952 21.9311 31.5304 22.7519 31.6312C23.0639 31.6696 23.3854 31.6888 23.7262 31.6888C24.9598 31.6888 26.0063 31.444 26.8655 30.9448L31.5646 28.2328Z" fill="white"/>
<path d="M46.9343 18.412L46.9343 28.0553C46.9199 30.0089 45.9983 31.8569 44.1839 33.5945L38.2079 39.412C37.8431 39.772 37.3007 39.9784 36.5807 40.0312C35.8607 40.084 35.2415 39.9592 34.7135 39.652L31.5646 37.8328V28.2328L32.8655 28.9864L34.7134 30.052C35.2414 30.3592 35.8607 30.484 36.5807 30.4312C37.3007 30.3784 37.8431 30.172 38.2079 29.812L44.1838 23.9944C44.4958 23.692 44.7839 23.3896 45.0383 23.0824C46.3007 21.5992 46.9343 20.044 46.9343 18.412Z" fill="white"/>
<path d="M46.9343 18.412L46.9343 18.1624L46.9343 18.412Z" fill="white"/>
<path d="M17.4286 29.116V38.7161L15.8638 39.6184C15.4222 39.8776 14.8991 40.0024 14.2943 40.0024C13.6895 40.0024 13.1662 39.8728 12.7198 39.6136L1.68947 33.2441C1.24307 32.9897 1.02226 32.6872 1.01746 32.3368V22.7368C1.02226 23.0872 1.24307 23.3896 1.68947 23.644L12.7198 30.0135C13.1662 30.2727 13.6943 30.4024 14.2943 30.4024C14.8943 30.4024 15.4222 30.2775 15.8638 30.0183L17.4286 29.116Z" fill="white"/>
<path d="M22.0991 20.9609C21.6527 20.7065 21.1294 20.5768 20.5246 20.572C19.9246 20.572 19.4014 20.7017 18.955 20.9561C18.5134 21.2105 18.2926 21.5128 18.2926 21.8632C18.2974 22.2088 18.5182 22.5113 18.9646 22.7705M22.0991 20.9609C22.5455 21.2201 22.771 21.5176 22.771 21.868M22.0991 20.9609C22.5455 21.2201 22.771 21.5224 22.771 21.868M18.9646 22.7705C19.411 23.0297 19.9391 23.1593 20.5391 23.1593M18.9646 22.7705C19.411 23.0297 19.9343 23.1593 20.5391 23.1593M20.5391 23.1593C21.1391 23.1593 21.6622 23.0297 22.1086 22.7753M20.5391 23.1593C21.1439 23.1593 21.6622 23.0297 22.1086 22.7753M22.1086 22.7753C22.5502 22.5209 22.771 22.2184 22.771 21.868M22.1086 22.7753C22.5502 22.5209 22.771 22.2136 22.771 21.868M1.01746 22.7368C1.01746 22.3912 1.23826 22.0888 1.67986 21.8296L6.84949 18.8489C6.71029 17.2024 7.13264 15.6136 8.12144 14.0872C9.10544 12.5656 10.6031 11.2216 12.6143 10.06C16.5311 7.79922 21.235 6.67601 26.7358 6.68561C32.2318 6.69521 36.9502 7.83756 40.891 10.1128C44.1742 12.0088 46.123 14.2407 46.7374 16.8135C46.867 17.3511 46.9343 17.884 46.9343 18.412M1.01746 22.7368C1.02226 23.0872 1.24307 23.3896 1.68947 23.644L12.7198 30.0135C13.1662 30.2727 13.6943 30.4024 14.2943 30.4024C14.8943 30.4024 15.4222 30.2775 15.8638 30.0183L17.4286 29.116M1.01746 22.7368V32.3368C1.02226 32.6872 1.24307 32.9897 1.68947 33.2441L12.7198 39.6136C13.1662 39.8728 13.6895 40.0024 14.2943 40.0024C14.8991 40.0024 15.4222 39.8776 15.8638 39.6184L17.4286 38.7161M17.4286 29.116L19.507 30.316L20.5822 30.9352C21.2062 31.2952 21.9311 31.5304 22.7519 31.6312C23.0639 31.6696 23.3854 31.6888 23.7262 31.6888C24.9598 31.6888 26.0063 31.444 26.8655 30.9448L31.5646 28.2328M17.4286 29.116V38.7161M31.5646 28.2328L32.8655 28.9864L34.7134 30.052C35.2414 30.3592 35.8607 30.484 36.5807 30.4312C37.3007 30.3784 37.8431 30.172 38.2079 29.812L44.1838 23.9944C44.4958 23.692 44.7839 23.3896 45.0383 23.0824C46.3007 21.5992 46.9343 20.044 46.9343 18.412M31.5646 28.2328V37.8328M46.9343 18.412L46.9343 28.0553C46.9199 30.0089 45.9983 31.8569 44.1839 33.5945L38.2079 39.412C37.8431 39.772 37.3007 39.9784 36.5807 40.0312C35.8607 40.084 35.2415 39.9592 34.7135 39.652L31.5646 37.8328M46.9343 18.412L46.9343 18.1624M33.4798 19.2952C34.1326 19.1656 34.7326 18.9399 35.2798 18.6279C35.7598 18.3495 36.1247 18.0472 36.3743 17.7112C36.7007 17.284 36.835 16.8088 36.7822 16.2856C36.6814 15.3544 36.0046 14.524 34.7422 13.7992C33.9022 13.3096 32.9087 12.9688 31.7567 12.772C30.5999 12.5704 29.4478 12.5464 28.2958 12.6952C27.8782 12.7576 27.5998 12.9112 27.4558 13.1608C27.3118 13.4104 27.3214 13.6552 27.4798 13.8952C27.6382 14.14 27.9022 14.3127 28.267 14.4183C28.6366 14.5287 29.0687 14.5576 29.5631 14.5144C30.1391 14.4856 30.6814 14.5192 31.195 14.62C31.7038 14.716 32.1454 14.8744 32.515 15.0856C33.091 15.4168 33.4126 15.7864 33.4798 16.1848M33.4798 19.2952C33.4174 19.3048 33.3503 19.3193 33.2831 19.3289C32.5487 19.4489 31.3054 19.5257 29.5534 19.5689C28.795 19.5833 28.1807 19.6263 27.7055 19.7031C27.2351 19.7751 26.8031 19.8808 26.4143 20.0152C25.9967 20.1688 25.5647 20.2264 25.1183 20.1976C24.6719 20.164 24.3071 20.068 24.0191 19.9C23.6735 19.7032 23.5102 19.4729 23.5246 19.2089C23.5342 18.9449 23.7214 18.7336 24.0862 18.5848C24.691 18.3304 25.3055 18.148 25.9295 18.0424C26.5583 17.9368 27.3838 17.8792 28.4062 17.8648C29.7406 17.8552 30.7102 17.8024 31.3102 17.7112C31.9102 17.6248 32.4191 17.4568 32.8367 17.2168C33.0095 17.116 33.1439 17.0104 33.2495 16.9C33.3743 16.7656 33.451 16.6264 33.4798 16.4728M33.4798 19.2952V16.4728M33.4798 19.2952V16.1848M33.4798 16.4728V16.1848M31.5646 37.8328L26.8654 40.5449C26.0062 41.0441 24.9598 41.2937 23.7262 41.2889C22.4974 41.2889 21.4462 41.0345 20.5822 40.5353L17.4286 38.7161" stroke="#27272A" stroke-opacity="0.25" stroke-linecap="round" stroke-linejoin="round"/>
      </svg>