<svg xmlns="http://www.w3.org/2000/svg" viewBox="0 0 48 48">
        <path d="M46.0288 18.4487L26.7503 7.31823C25.9948 6.88151 25.0781 6.66119 24.0001 6.66119C22.926 6.65725 22.0132 6.87364 21.2617 7.31037L2.10501 18.37C1.3496 18.8028 0.975833 19.33 0.979768 19.9517C0.983702 20.5733 1.36535 21.1005 2.12076 21.5372L21.3994 32.6677C22.1548 33.1045 23.0716 33.3248 24.1457 33.3287C24.5312 33.3287 24.8932 33.3012 25.2355 33.2461C25.8532 33.1477 26.404 32.9589 26.888 32.6795L46.0446 21.6199C46.796 21.1831 47.1698 20.6559 47.1698 20.0343C47.1698 19.4127 46.7842 18.8854 46.0288 18.4487ZM14.4709 20.77C14.0814 20.9943 13.625 21.1045 13.0978 21.1045C12.5745 21.1005 12.1142 20.9904 11.7247 20.7622C11.7011 20.7504 11.6814 20.7346 11.6617 20.7228C11.3116 20.5064 11.1385 20.2586 11.1385 19.9713C11.1345 19.6684 11.3273 19.4009 11.7169 19.1805L22.6624 12.8579C23.0519 12.6336 23.5083 12.5235 24.0355 12.5235C24.5588 12.5235 25.0191 12.6376 25.4086 12.8658C25.7981 13.09 25.9948 13.3536 25.9948 13.6566C25.9988 13.9595 25.806 14.2231 25.4165 14.4474L25.1175 14.6205L14.4709 20.77ZM24.0748 19.995C23.6853 19.7668 23.4886 19.5031 23.4847 19.2002C23.4847 18.8972 23.6775 18.6336 24.067 18.4094L28.1706 16.0369C28.1706 16.0369 28.1903 16.0251 28.1981 16.0212C28.5798 15.8127 29.0283 15.7025 29.5398 15.7025C30.067 15.7064 30.5273 15.8166 30.9168 16.0448C31.3063 16.2691 31.503 16.5327 31.503 16.8356C31.503 17.1386 31.3181 17.3943 30.9522 17.6146C30.9444 17.6146 30.9365 17.6264 30.9247 17.6304L26.8211 19.9989C26.4316 20.2231 25.9752 20.3333 25.448 20.3333C24.9207 20.3333 24.4644 20.2192 24.0748 19.995ZM36.4604 20.7936C36.4604 20.7936 36.4447 20.8054 36.4329 20.8094L28.2217 25.5464C27.8362 25.7707 27.3758 25.8848 26.8525 25.8809C26.3253 25.8809 25.865 25.7668 25.4755 25.5425C25.4519 25.5307 25.4283 25.515 25.4086 25.5031C25.0624 25.2868 24.8893 25.035 24.8893 24.7517C24.8893 24.4448 25.0821 24.1812 25.4676 23.9569L33.6788 19.2199C33.6788 19.2199 33.6985 19.2081 33.7063 19.2041C34.084 18.9917 34.5325 18.8815 35.048 18.8854C35.5752 18.8854 36.0316 18.9995 36.425 19.2238C36.8145 19.4481 37.0073 19.7117 37.0112 20.0186C37.0112 20.3136 36.8263 20.5733 36.4604 20.7936Z" fill="white"/>
<path d="M25.9948 13.6566C25.9988 13.9595 25.806 14.2231 25.4165 14.4474L25.1175 14.6205L14.4709 20.77C14.0814 20.9943 13.625 21.1045 13.0978 21.1045C12.5745 21.1005 12.1142 20.9904 11.7247 20.7622C11.7011 20.7504 11.6814 20.7346 11.6617 20.7228C11.3116 20.5064 11.1385 20.2586 11.1385 19.9713C11.1345 19.6684 11.3273 19.4009 11.7169 19.1805L22.6624 12.8579C23.0519 12.6336 23.5083 12.5235 24.0355 12.5235C24.5588 12.5235 25.0191 12.6376 25.4086 12.8658C25.7981 13.09 25.9948 13.3536 25.9948 13.6566Z" fill="white"/>
<path d="M37.0112 20.0186C37.0112 20.3136 36.8263 20.5733 36.4604 20.7936C36.4525 20.7976 36.4447 20.8054 36.4329 20.8094L28.2217 25.5464C27.8362 25.7707 27.3758 25.8848 26.8525 25.8809C26.3253 25.8809 25.865 25.7668 25.4755 25.5425C25.4519 25.5307 25.4283 25.515 25.4086 25.5031C25.0624 25.2868 24.8893 25.035 24.8893 24.7517C24.8893 24.4448 25.0821 24.1812 25.4676 23.9569L33.6788 19.2199C33.6788 19.2199 33.6985 19.2081 33.7063 19.2041C34.084 18.9917 34.5325 18.8815 35.048 18.8854C35.5752 18.8854 36.0316 18.9995 36.425 19.2238C36.8145 19.4481 37.0073 19.7117 37.0112 20.0186Z" fill="white"/>
<path d="M31.503 16.8356C31.503 17.1346 31.3181 17.3943 30.9522 17.6146C30.9444 17.6146 30.9365 17.6264 30.9247 17.6304L26.8211 19.9989C26.4316 20.2231 25.9752 20.3333 25.448 20.3333C24.9207 20.3333 24.4644 20.2192 24.0748 19.995C23.6853 19.7668 23.4886 19.5031 23.4847 19.2002C23.4847 18.8972 23.6775 18.6336 24.067 18.4094L28.1706 16.0369C28.1706 16.0369 28.1903 16.0251 28.1981 16.0212C28.5798 15.8127 29.0283 15.7025 29.5398 15.7025C30.067 15.7064 30.5273 15.8166 30.9168 16.0448C31.3063 16.2691 31.503 16.5327 31.503 16.8356Z" fill="white"/>
<path d="M47.1698 20.0343V27.9032C47.1698 28.5249 46.796 29.0521 46.0446 29.4888L26.888 40.5485C26.1365 40.9813 25.2197 41.1976 24.1456 41.1976C23.0715 41.1937 22.1548 40.9734 21.3994 40.5367L2.12073 29.4062C1.36532 28.9695 0.983671 28.4422 0.979736 27.8206L0.979768 19.9517C0.983702 20.5733 1.36535 21.1005 2.12076 21.5372L21.3994 32.6677C22.1548 33.1045 23.0716 33.3248 24.1457 33.3287C24.5312 33.3287 24.8932 33.3012 25.2355 33.2461C25.8532 33.1477 26.404 32.9589 26.888 32.6795L46.0446 21.6199C46.796 21.1831 47.1698 20.6559 47.1698 20.0343Z" fill="white"/>
<path d="M0.979768 19.9517C0.975833 19.33 1.3496 18.8028 2.10501 18.37L21.2617 7.31037C22.0132 6.87364 22.926 6.65725 24.0001 6.66119C25.0781 6.66119 25.9948 6.88151 26.7503 7.31823L46.0288 18.4487C46.7842 18.8854 47.1698 19.4127 47.1698 20.0343M0.979768 19.9517C0.983702 20.5733 1.36535 21.1005 2.12076 21.5372L21.3994 32.6677C22.1548 33.1045 23.0716 33.3248 24.1457 33.3287C24.5312 33.3287 24.8932 33.3012 25.2355 33.2461C25.8532 33.1477 26.404 32.9589 26.888 32.6795L46.0446 21.6199C46.796 21.1831 47.1698 20.6559 47.1698 20.0343M0.979768 19.9517L0.979736 27.8206C0.983671 28.4422 1.36532 28.9695 2.12073 29.4062L21.3994 40.5367C22.1548 40.9734 23.0715 41.1937 24.1456 41.1976C25.2197 41.1976 26.1365 40.9813 26.888 40.5485L46.0446 29.4888C46.796 29.0521 47.1698 28.5249 47.1698 27.9032V20.0343M31.503 16.8356C31.503 16.5327 31.3063 16.2691 30.9168 16.0448C30.5273 15.8166 30.067 15.7064 29.5398 15.7025C29.0283 15.7025 28.5798 15.8127 28.1981 16.0212C28.1903 16.0251 28.1706 16.0369 28.1706 16.0369L24.067 18.4094C23.6775 18.6336 23.4847 18.8972 23.4847 19.2002C23.4886 19.5031 23.6853 19.7668 24.0748 19.995C24.4644 20.2192 24.9207 20.3333 25.448 20.3333C25.9752 20.3333 26.4316 20.2231 26.8211 19.9989L30.9247 17.6304C30.9365 17.6264 30.9444 17.6146 30.9522 17.6146M31.503 16.8356C31.503 17.1386 31.3181 17.3943 30.9522 17.6146M31.503 16.8356C31.503 17.1346 31.3181 17.3943 30.9522 17.6146M36.4604 20.7936C36.4604 20.7936 36.4447 20.8054 36.4329 20.8094M36.4604 20.7936C36.8263 20.5733 37.0112 20.3136 37.0112 20.0186C37.0073 19.7117 36.8145 19.4481 36.425 19.2238C36.0316 18.9995 35.5752 18.8854 35.048 18.8854C34.5325 18.8815 34.084 18.9917 33.7063 19.2041C33.6985 19.2081 33.6788 19.2199 33.6788 19.2199L25.4676 23.9569C25.0821 24.1812 24.8893 24.4448 24.8893 24.7517C24.8893 25.035 25.0624 25.2868 25.4086 25.5031C25.4283 25.515 25.4519 25.5307 25.4755 25.5425C25.865 25.7668 26.3253 25.8809 26.8525 25.8809C27.3758 25.8848 27.8362 25.7707 28.2217 25.5464L36.4329 20.8094M36.4604 20.7936C36.4525 20.7976 36.4447 20.8054 36.4329 20.8094M14.4709 20.77C14.0814 20.9943 13.625 21.1045 13.0978 21.1045C12.5745 21.1005 12.1142 20.9904 11.7247 20.7622C11.7011 20.7504 11.6814 20.7346 11.6617 20.7228C11.3116 20.5064 11.1385 20.2586 11.1385 19.9713C11.1345 19.6684 11.3273 19.4009 11.7169 19.1805L22.6624 12.8579C23.0519 12.6336 23.5083 12.5235 24.0355 12.5235C24.5588 12.5235 25.0191 12.6376 25.4086 12.8658C25.7981 13.09 25.9948 13.3536 25.9948 13.6566C25.9988 13.9595 25.806 14.2231 25.4165 14.4474L25.1175 14.6205L14.4709 20.77Z" stroke="#27272A" stroke-opacity="0.25" stroke-linecap="round" stroke-linejoin="round"/>
      </svg>