<svg xmlns="http://www.w3.org/2000/svg" viewBox="0 0 48 48">
        <path d="M46.73 22.6491V23.7917C46.7682 23.4222 46.7682 23.0399 46.73 22.6491ZM43.9179 26.9394C44.16 27.1645 44.3682 27.3981 44.5508 27.6402C44.5891 27.6063 44.6231 27.5765 44.6613 27.5383C44.4319 27.3344 44.1813 27.1348 43.9179 26.9394Z" fill="white"/>
<path d="M46.73 22.6491V23.7917C46.5855 25.1765 45.8974 26.4254 44.6613 27.5383C44.4319 27.3344 44.1813 27.1348 43.9179 26.9394C43.9179 26.9394 43.9162 26.938 43.9137 26.9352C43.6715 26.71 43.3997 26.4933 43.0981 26.2852C42.4949 25.8689 41.8491 25.4611 41.1525 25.0576C38.5911 23.5794 35.2141 22.8148 31.0215 22.7638C30.9408 22.7638 30.8559 22.7595 30.7709 22.7595C26.6803 22.7468 23.1249 23.6133 20.1005 25.3592C18.6605 26.1875 17.5178 27.2155 16.6682 28.4388C15.8187 29.6579 15.5001 30.8686 15.7167 32.0664C14.6378 32.0325 13.2403 31.9772 11.5242 31.905C9.8123 31.8328 8.32133 31.7776 7.05974 31.7394L4.31142 31.6544C3.6785 31.6374 3.13054 31.493 2.66328 31.2254C2.19602 30.9535 1.9454 30.6349 1.91141 30.2739L1.47818 25.2998C1.4357 24.8283 1.39321 24.3652 1.35923 23.9192C1.21056 22.1054 1.12986 20.4912 1.10862 19.064C1.08314 17.2841 1.2403 15.7167 1.58012 14.3532C1.9157 12.9939 2.48065 11.813 3.27074 10.8148C4.06507 9.82078 5.14827 8.92449 6.52456 8.13017C9.34084 6.50327 12.6371 5.69616 16.4091 5.71315C20.1812 5.7259 23.486 6.55425 26.3192 8.18965C27.8867 9.0944 29.0591 10.1437 29.8322 11.333C30.6053 12.5224 30.9026 13.7585 30.7285 15.0456C32.9543 14.9437 35.0952 15.1178 37.1596 15.5638C39.2198 16.0098 41.0335 16.6852 42.6011 17.59C45.1625 19.0725 46.5431 20.7546 46.73 22.6491Z" fill="white"/>
<path d="M43.9179 26.9394C44.16 27.1645 44.3682 27.3981 44.5508 27.6402C44.5891 27.6063 44.6231 27.5765 44.6613 27.5383C44.4319 27.3344 44.1813 27.1348 43.9179 26.9394Z" fill="white"/>
<path d="M41.1481 32.3723C41.1268 32.7036 40.9399 33.001 40.5916 33.2516C40.5236 33.3025 40.4472 33.3535 40.3665 33.4002C39.8695 33.6848 39.2791 33.8378 38.5867 33.8505L25.8263 33.8038C25.1339 33.8208 24.535 33.6806 24.021 33.3833C23.5367 33.1029 23.2904 32.7844 23.2904 32.4106C23.2904 32.3893 23.2947 32.3638 23.2947 32.3425L23.2351 29.3988C23.2309 28.9825 23.4773 28.6342 23.97 28.3454C24.467 28.0608 25.0745 27.9206 25.7966 27.9206C26.4847 27.9376 27.0794 28.0906 27.5806 28.3794C28.0776 28.6683 28.341 29.008 28.375 29.4073V30.8686L38.5697 30.8856C39.262 30.9025 39.8567 31.0555 40.3537 31.3444C40.8507 31.629 41.1183 31.973 41.1481 32.3723Z" fill="white"/>
<path d="M44.5508 36.1358V27.6402C44.5891 27.6063 44.6231 27.5765 44.6613 27.5383C45.8974 26.4254 46.5855 25.1765 46.73 23.7917V31.1447C46.9211 33.0349 46.1947 34.7001 44.5508 36.1358Z" fill="white"/>
<path d="M15.7169 40.562V39.1093V40.562Z" fill="white"/>
<path d="M15.7169 39.1093C15.6277 39.5978 15.6319 40.082 15.7169 40.562C14.6379 40.528 13.2401 40.4728 11.524 40.4006C9.81213 40.3284 8.32116 40.2732 7.05957 40.2349L4.31125 40.15C3.67832 40.133 3.13036 39.9886 2.6631 39.721C2.19585 39.4491 1.94522 39.1305 1.91124 38.7695L1.478 33.7953C1.25712 31.4166 1.13393 29.3394 1.10845 27.5595L1.10862 19.064C1.12986 20.4912 1.21056 22.1054 1.35923 23.9192C1.39321 24.3652 1.4357 24.8283 1.47818 25.2998L1.91141 30.2739C1.9454 30.6349 2.19602 30.9535 2.66328 31.2254C3.13054 31.493 3.6785 31.6374 4.31142 31.6544L7.05974 31.7394C8.32133 31.7776 9.8123 31.8328 11.5242 31.905C13.2403 31.9772 14.6378 32.0325 15.7167 32.0664L15.7169 39.1093Z" fill="white"/>
<path d="M44.5508 27.6402V36.1358C44.1855 35.6516 43.7013 35.1971 43.0981 34.7808C42.4949 34.3645 41.8491 33.9567 41.1524 33.5532H41.1482V32.3765C41.1185 31.9772 40.8508 31.6332 40.3539 31.3486C39.8569 31.0597 39.2622 30.9068 38.5698 30.8898L28.3794 30.8728V29.4116C28.3412 29.0123 28.0778 28.6724 27.5808 28.3836C27.0796 28.0947 26.4849 27.9418 25.7967 27.9248C25.0746 27.9248 24.4672 28.065 23.9702 28.3496C23.4774 28.6385 23.2311 28.9868 23.2353 29.403V32.436C22.1351 32.8141 21.0902 33.2898 20.1004 33.859C18.6604 34.6873 17.5177 35.7152 16.6682 36.9386C16.1627 37.6692 15.8441 38.3914 15.7167 39.1135V32.0707C15.5 30.8728 15.8186 29.6621 16.6682 28.443C17.5177 27.2197 18.6604 26.1917 20.1004 25.3634C23.1249 23.6175 26.6803 22.751 30.7709 22.7637C30.8558 22.7637 30.9408 22.768 31.0215 22.768C35.2141 22.819 38.591 23.5836 41.1524 25.0618C41.8491 25.4654 42.4949 25.8732 43.0981 26.2894C43.3997 26.4976 43.6715 26.7142 43.9137 26.9394C43.9137 26.9394 43.9149 26.9408 43.9179 26.9436C44.16 27.1687 44.3682 27.4023 44.5508 27.6445L44.5508 27.6402Z" fill="white"/>
<path d="M41.1481 32.3723L41.148 40.8679C41.1225 41.2672 40.8592 41.6112 40.3664 41.8958C39.8694 42.1804 39.279 42.3333 38.5866 42.3461L25.8262 42.2994C25.1339 42.3163 24.5349 42.1762 24.0209 41.8788C23.507 41.5815 23.2648 41.2374 23.2946 40.8381L23.2351 37.8944L23.2351 29.3988L23.2947 32.3425C23.2947 32.3425 23.2904 32.3893 23.2904 32.4106C23.2904 32.7844 23.5367 33.1029 24.021 33.3833C24.535 33.6806 25.1339 33.8208 25.8263 33.8038L38.5867 33.8505C39.2791 33.8378 39.8695 33.6848 40.3665 33.4002C40.4472 33.3535 40.5236 33.3025 40.5916 33.2516C40.9399 33.001 41.1268 32.7036 41.1481 32.3723Z" fill="white"/>
<path d="M46.73 22.6491V23.7917M46.73 22.6491C46.7682 23.0399 46.7682 23.4222 46.73 23.7917M46.73 22.6491C46.5431 20.7546 45.1625 19.0725 42.6011 17.59C41.0335 16.6852 39.2198 16.0098 37.1596 15.5638C35.0952 15.1178 32.9543 14.9437 30.7285 15.0456C30.9026 13.7585 30.6053 12.5224 29.8322 11.333C29.0591 10.1437 27.8867 9.0944 26.3192 8.18965C23.486 6.55425 20.1812 5.7259 16.4091 5.71315C12.6371 5.69616 9.34084 6.50327 6.52456 8.13017C5.14827 8.92449 4.06507 9.82078 3.27074 10.8148C2.48065 11.813 1.9157 12.9939 1.58012 14.3532C1.2403 15.7167 1.08314 17.2841 1.10862 19.064M46.73 23.7917C46.5855 25.1765 45.8974 26.4254 44.6613 27.5383M46.73 23.7917V31.1447C46.9211 33.0349 46.1947 34.7001 44.5508 36.1358M43.9179 26.9394C44.16 27.1645 44.3682 27.3981 44.5508 27.6402M43.9179 26.9394C44.1813 27.1348 44.4319 27.3344 44.6613 27.5383M43.9179 26.9394C43.9179 26.9394 43.9162 26.938 43.9137 26.9352C43.6715 26.71 43.3997 26.4933 43.0981 26.2852C42.4949 25.8689 41.8491 25.4611 41.1525 25.0576C38.5911 23.5794 35.2141 22.8148 31.0215 22.7638C30.9408 22.7638 30.8559 22.7595 30.7709 22.7595C26.6803 22.7468 23.1249 23.6133 20.1005 25.3592C18.6605 26.1875 17.5178 27.2155 16.6682 28.4388C15.8187 29.6579 15.5001 30.8686 15.7167 32.0664M44.5508 27.6402C44.5891 27.6063 44.6231 27.5765 44.6613 27.5383M44.5508 27.6402V36.1358M44.5508 27.6402L44.5508 27.6445C44.3682 27.4023 44.16 27.1687 43.9179 26.9436C43.9149 26.9408 43.9137 26.9394 43.9137 26.9394C43.6715 26.7142 43.3997 26.4976 43.0981 26.2894C42.4949 25.8732 41.8491 25.4654 41.1524 25.0618C38.591 23.5836 35.2141 22.819 31.0215 22.768C30.9408 22.768 30.8558 22.7637 30.7709 22.7637C26.6803 22.751 23.1249 23.6175 20.1004 25.3634C18.6604 26.1917 17.5177 27.2197 16.6682 28.443C15.8186 29.6622 15.5 30.8728 15.7167 32.0707V39.1135C15.8441 38.3914 16.1627 37.6692 16.6682 36.9386C17.5177 35.7152 18.6604 34.6873 20.1004 33.859C21.0902 33.2898 22.1351 32.8141 23.2353 32.436V29.403C23.2311 28.9868 23.4774 28.6385 23.9702 28.3496C24.4672 28.065 25.0746 27.9248 25.7967 27.9248C26.4849 27.9418 27.0796 28.0947 27.5808 28.3836C28.0778 28.6724 28.3412 29.0123 28.3794 29.4116V30.8728L38.5698 30.8898C39.2622 30.9068 39.8569 31.0597 40.3539 31.3486C40.8508 31.6332 41.1185 31.9772 41.1482 32.3765V33.5532H41.1524C41.8491 33.9567 42.4949 34.3645 43.0981 34.7808C43.7013 35.1971 44.1855 35.6516 44.5508 36.1358M15.7167 32.0664C14.6378 32.0325 13.2403 31.9772 11.5242 31.905C9.8123 31.8328 8.32133 31.7776 7.05974 31.7394L4.31142 31.6544C3.6785 31.6374 3.13054 31.493 2.66328 31.2254C2.19602 30.9535 1.9454 30.6349 1.91141 30.2739L1.47818 25.2998C1.4357 24.8283 1.39321 24.3652 1.35923 23.9192C1.21056 22.1054 1.12986 20.4912 1.10862 19.064M15.7167 32.0664L15.7169 39.1093M1.10862 19.064L1.10845 27.5595C1.13393 29.3394 1.25712 31.4166 1.478 33.7953L1.91124 38.7695C1.94522 39.1305 2.19585 39.4491 2.6631 39.721C3.13036 39.9886 3.67832 40.133 4.31125 40.15L7.05957 40.2349C8.32116 40.2732 9.81213 40.3284 11.524 40.4006C13.2401 40.4728 14.6379 40.528 15.7169 40.562M41.1481 32.3723C41.1268 32.7036 40.9399 33.001 40.5916 33.2516C40.5236 33.3025 40.4472 33.3535 40.3665 33.4002C39.8695 33.6848 39.2791 33.8378 38.5867 33.8505L25.8263 33.8038C25.1339 33.8208 24.535 33.6806 24.021 33.3833C23.5367 33.1029 23.2904 32.7844 23.2904 32.4106M41.1481 32.3723C41.1183 31.973 40.8507 31.629 40.3537 31.3444C39.8567 31.0555 39.262 30.9025 38.5697 30.8856L28.375 30.8686V29.4073C28.341 29.008 28.0776 28.6683 27.5806 28.3794C27.0794 28.0906 26.4847 27.9376 25.7966 27.9206C25.0745 27.9206 24.467 28.0608 23.97 28.3454C23.4773 28.6342 23.2309 28.9825 23.2351 29.3988M41.1481 32.3723L41.148 40.8679C41.1225 41.2672 40.8592 41.6112 40.3664 41.8958C39.8694 42.1804 39.279 42.3333 38.5866 42.3461L25.8262 42.2994C25.1339 42.3163 24.5349 42.1762 24.0209 41.8788C23.507 41.5815 23.2648 41.2374 23.2946 40.8381L23.2351 37.8944L23.2351 29.3988M23.2904 32.4106C23.2904 32.3893 23.2947 32.3638 23.2947 32.3425M23.2904 32.4106C23.2904 32.3893 23.2947 32.3425 23.2947 32.3425M23.2947 32.3425L23.2351 29.3988M15.7169 40.562V39.1093M15.7169 40.562C15.6319 40.082 15.6277 39.5978 15.7169 39.1093" stroke="#27272A" stroke-opacity="0.25" stroke-linecap="round" stroke-linejoin="round"/>
      </svg>