<svg viewBox="0 0 24 24" fill="none" xmlns="http://www.w3.org/2000/svg">
<g clip-path="url(#FlagSOMALILANDIcon__clip0_3811_32073)">
<path d="M23.2536 16.1739C23.736 14.8739 24 13.4678 24 12C24 10.5322 23.736 9.12609 23.2536 7.82611L12 6.78263L0.746391 7.82611C0.264047 9.12609 0 10.5322 0 12C0 13.4678 0.264047 14.8739 0.746391 16.1739L12 17.2174L23.2536 16.1739Z" fill="#F0F0F0"/>
<path d="M12 24C17.1595 24 21.5581 20.7435 23.2536 16.1739H0.746391C2.44195 20.7435 6.84037 24 12 24Z" fill="#D80027"/>
<path d="M12 0C6.84037 0 2.44195 3.2565 0.746391 7.82611H23.2536C21.5581 3.2565 17.1595 0 12 0Z" fill="#496E2D"/>
<path d="M12 9.39131L12.6475 11.3841H14.7429L13.0477 12.6158L13.6953 14.6087L12 13.3771L10.3047 14.6087L10.9523 12.6158L9.25706 11.3841H11.3525L12 9.39131Z" fill="black"/>
<path d="M15.5652 2.34783V4.78256C15.5652 5.16623 15.2532 5.47823 14.8696 5.47823V6.52172C15.8286 6.52172 16.6087 5.74158 16.6087 4.78256V2.34783H15.5652Z" fill="#F0F0F0"/>
<path d="M8.08697 4.78256C8.08697 5.16623 7.77492 5.47823 7.3913 5.47823V6.52172C8.35031 6.52172 9.13045 5.74158 9.13045 4.78256V2.34783H8.08697V4.78256Z" fill="#F0F0F0"/>
<path d="M13.9998 2.34783H15.0433V4.78256H13.9998V2.34783Z" fill="#F0F0F0"/>
<path d="M12.4348 3.73908C12.4348 3.83498 12.3567 3.91303 12.2609 3.91303C12.165 3.91303 12.0869 3.83498 12.0869 3.73908V2.34783H11.0434V3.73908C11.0434 3.83498 10.9654 3.91303 10.8695 3.91303C10.7736 3.91303 10.6956 3.83498 10.6956 3.73908V2.34783H9.65213V3.73908C9.65213 4.41042 10.1982 4.95652 10.8695 4.95652C11.128 4.95652 11.3678 4.87528 11.5651 4.73733C11.7625 4.87528 12.0023 4.95652 12.2608 4.95652C12.3129 4.95652 12.3641 4.95286 12.4144 4.94644C12.3405 5.25108 12.0661 5.47823 11.7391 5.47823V6.52172C12.6981 6.52172 13.4782 5.74158 13.4782 4.78256V2.34783H12.4347L12.4348 3.73908Z" fill="#F0F0F0"/>
<path d="M9.65217 5.47828H11.2174V6.52177H9.65217V5.47828Z" fill="#F0F0F0"/>
</g>
<defs>
<clipPath id="FlagSOMALILANDIcon__clip0_3811_32073">
<rect fill="white"/>
</clipPath>
</defs>
</svg>