<svg viewBox="0 0 24 24" fill="none" xmlns="http://www.w3.org/2000/svg">
<g clip-path="url(#FlagVUIcon__clip0_3811_31917)">
<path d="M24 12C24 11.4695 23.9651 10.9471 23.8984 10.4348H10.4347C7.98306 7.98331 3.51452 3.51506 3.5147 3.51468C-1.17157 8.20095 -1.17157 15.7989 3.5147 20.4853L10.4348 13.5652H23.8984C23.9651 13.0528 24 12.5305 24 12Z" fill="black"/>
<path d="M23.8984 10.4348C23.9038 10.4759 23.9086 10.5172 23.9135 10.5584C23.2013 4.6108 18.1394 0 12 0C8.68623 0 5.68628 1.34301 3.5147 3.51468L10.4347 10.4348H23.8984Z" fill="#D80027"/>
<path d="M23.8984 13.5652H10.4348L3.5147 20.4853C5.68628 22.6569 8.68623 24 12 24C18.1394 24 23.2013 19.3892 23.9135 13.4415C23.9086 13.4827 23.9037 13.5241 23.8984 13.5652Z" fill="#6DA544"/>
<path d="M23.9885 11.4739H9.9938L2.80521 4.28638C2.57285 4.53144 2.32099 4.87363 2.16522 5.11733L9.03985 11.9956L2.15946 18.8761C2.29568 19.1184 2.59244 19.4771 2.8008 19.7105L9.99394 12.5174H23.9902C23.9977 12.3443 24 12.1705 24 11.9957C24 11.7614 23.9935 11.5886 23.9885 11.4739Z" fill="#FFDA44"/>
<path d="M2.91503 14.558V13.5529C3.91806 13.5529 4.73401 12.7369 4.73401 11.7339C4.73401 11.0243 4.15666 10.447 3.44706 10.447C2.96364 10.447 2.57032 10.8402 2.57032 11.3238C2.57032 11.6329 2.8218 11.8844 3.13099 11.8844C3.30574 11.8844 3.44791 11.7422 3.44791 11.5674H4.453C4.453 12.2965 3.85994 12.8895 3.13103 12.8895C2.26764 12.8896 1.56532 12.1871 1.56532 11.3239C1.56532 10.2862 2.40953 9.44201 3.44711 9.44201C4.71095 9.44201 5.7392 10.4703 5.7392 11.7341C5.73915 13.2911 4.47226 14.558 2.91503 14.558Z" fill="#FFDA44"/>
</g>
<defs>
<clipPath id="FlagVUIcon__clip0_3811_31917">
<rect fill="white"/>
</clipPath>
</defs>
</svg>