<svg viewBox="0 0 24 24" fill="none" xmlns="http://www.w3.org/2000/svg">
<g clip-path="url(#FlagSARDINIAIcon__clip0_3811_32121)">
<path d="M12 24C18.6274 24 24 18.6274 24 12C24 5.37258 18.6274 0 12 0C5.37258 0 0 5.37258 0 12C0 18.6274 5.37258 24 12 24Z" fill="#F0F0F0"/>
<path d="M23.8984 10.4348H13.5653L13.5653 0.101578C13.0529 0.034875 12.5305 0 12 0C11.4695 0 10.9471 0.034875 10.4348 0.101578V10.4347L0.101578 10.4347C0.034875 10.9471 0 11.4695 0 12C0 12.5305 0.034875 13.0529 0.101578 13.5652H10.4347L10.4347 23.8984C10.9471 23.9651 11.4695 24 12 24C12.5305 24 13.0529 23.9652 13.5652 23.8984V13.5653L23.8984 13.5653C23.9651 13.0529 24 12.5305 24 12C24 11.4695 23.9651 10.9471 23.8984 10.4348Z" fill="#D80027"/>
<path d="M17.7391 4.17389C16.7667 4.17389 15.9496 4.839 15.7179 5.73909L17.7391 6.26081L19.7603 5.73909C19.5287 4.83905 18.7116 4.17389 17.7391 4.17389Z" fill="black"/>
<path d="M15.6522 8.86955L18.2609 9.39127V8.28206C18.9942 8.09325 19.5714 7.51589 19.7602 6.78258L17.7391 6.26081L15.1305 6.26086L15.6522 7.82606V8.86955Z" fill="black"/>
<path d="M19.7603 5.73909L15.1305 5.73914V7.82611L15.6522 7.82606V6.78263L19.7602 6.78258C19.8031 6.61584 19.8261 6.44105 19.8261 6.26091C19.8261 6.08072 19.8033 5.90583 19.7603 5.73909Z" fill="#ACABB1"/>
<path d="M6.78263 4.17389C5.81016 4.17389 4.99308 4.839 4.76142 5.73909L6.78263 6.26081L8.80383 5.73909C8.57217 4.83905 7.75509 4.17389 6.78263 4.17389Z" fill="black"/>
<path d="M4.69566 8.86955L7.30434 9.39127V8.28206C8.0377 8.09325 8.61492 7.51589 8.80369 6.78258L6.78263 6.26081L4.17389 6.26086L4.69561 7.82606L4.69566 8.86955Z" fill="black"/>
<path d="M8.80383 5.73909L4.17389 5.73914V7.82611L4.69561 7.82606V6.78263L8.80369 6.78258C8.84663 6.61584 8.86955 6.44105 8.86955 6.26091C8.86955 6.08072 8.84677 5.90583 8.80383 5.73909Z" fill="#ACABB1"/>
<path d="M17.7391 14.6087C16.7667 14.6087 15.9496 15.2738 15.7179 16.1739L17.7391 16.6956L19.7603 16.1739C19.5287 15.2738 18.7116 14.6087 17.7391 14.6087Z" fill="black"/>
<path d="M15.6522 19.3043L18.2609 19.8261V18.7169C18.9942 18.528 19.5714 17.9507 19.7602 17.2174L17.7391 16.6956L15.1305 16.6957L15.6522 18.2609V19.3043Z" fill="black"/>
<path d="M19.7603 16.1739H15.1305V18.2609L15.6522 18.2609V17.2174L19.7602 17.2174C19.8031 17.0506 19.8261 16.8758 19.8261 16.6957C19.8261 16.5155 19.8033 16.3407 19.7603 16.1739Z" fill="#ACABB1"/>
<path d="M6.78263 14.6087C5.81016 14.6087 4.99308 15.2738 4.76142 16.1739L6.78263 16.6956L8.80383 16.1739C8.57217 15.2738 7.75509 14.6087 6.78263 14.6087Z" fill="black"/>
<path d="M4.69566 19.3043L7.30434 19.8261V18.7169C8.0377 18.528 8.61492 17.9507 8.80369 17.2174L6.78263 16.6956L4.17389 16.6957L4.69561 18.2609L4.69566 19.3043Z" fill="black"/>
<path d="M8.80383 16.1739H4.17389V18.2609L4.69561 18.2609V17.2174L8.80369 17.2174C8.84663 17.0506 8.86955 16.8758 8.86955 16.6957C8.86955 16.5155 8.84677 16.3407 8.80383 16.1739Z" fill="#ACABB1"/>
</g>
<defs>
<clipPath id="FlagSARDINIAIcon__clip0_3811_32121">
<rect fill="white"/>
</clipPath>
</defs>
</svg>