<svg viewBox="0 0 24 24" fill="none" xmlns="http://www.w3.org/2000/svg">
<g clip-path="url(#FlagZWIcon__clip0_3811_32219)">
<path d="M12 24C18.6274 24 24 18.6274 24 12C24 5.37258 18.6274 0 12 0C5.37258 0 0 5.37258 0 12C0 18.6274 5.37258 24 12 24Z" fill="#F0F0F0"/>
<path d="M22.8514 6.87202C22.2418 5.58417 21.4097 4.42247 20.4047 3.43598L12 2.60869L3.59531 3.43603C3.5685 3.46233 3.54234 3.48923 3.51581 3.51581L6.87206 6.87206L12 7.02867L22.8514 6.87202Z" fill="#FFDA44"/>
<path d="M3.51567 20.4843C3.55983 20.5285 3.60389 20.5727 3.6487 20.6162L12 21.3913L20.3512 20.6162C21.3666 19.6318 22.2088 18.47 22.827 17.1802L7.3043 16.6957C5.96869 18.0313 4.42819 19.5717 3.51567 20.4843Z" fill="#FFDA44"/>
<path d="M23.8807 10.308L9.91303 9.91303L12 12C11.3819 12.6181 10.4591 13.5409 9.91303 14.087L23.8733 13.7441C23.9563 13.1746 24 12.5925 24 12C24 11.4256 23.9588 10.8609 23.8807 10.308Z" fill="black"/>
<path d="M12 0C8.72681 0 5.76028 1.31109 3.59531 3.43603L20.4047 3.43598C18.2397 1.31105 15.2732 0 12 0Z" fill="#6DA544"/>
<path d="M10.308 10.308H23.8807C23.7094 9.09497 23.3571 7.94025 22.8514 6.87202L6.87206 6.87206L10.308 10.308Z" fill="#D80027"/>
<path d="M6.81984 17.1802H22.827C23.3386 16.1127 23.6966 14.9579 23.8733 13.7441H10.2559C8.92523 15.0748 7.79752 16.2025 6.81984 17.1802Z" fill="#D80027"/>
<path d="M12 24C15.2463 24 18.191 22.7104 20.3512 20.6162H3.6487C5.80889 22.7104 8.75367 24 12 24Z" fill="#6DA544"/>
<path d="M4.28508 2.80941C4.01831 3.03356 3.76092 3.26855 3.51469 3.51469L12 12L3.51469 20.4853C3.76087 20.7315 4.01831 20.9664 4.28508 21.1906L13.4757 12L4.28508 2.80941Z" fill="black"/>
<path d="M4.82461 8.86955L5.60156 11.2609H8.11617L6.08189 12.739L6.85889 15.1305L4.82461 13.6524L2.79028 15.1305L3.56737 12.739L1.53314 11.2609H4.04761L4.82461 8.86955Z" fill="#D80027"/>
<path d="M6.96183 12.1957L4.93692 11.4783C4.93692 11.4783 4.7873 10.0747 4.77825 10.0271C4.70953 9.66511 4.39139 9.39131 4.00936 9.39131C3.57717 9.39131 3.22673 9.7417 3.22673 10.1739C3.22673 10.2456 3.23719 10.3147 3.25523 10.3807L2.68748 10.9522H3.69698C3.69698 12 2.91511 12 2.91511 13.0435L3.34884 14.087H5.95753L6.39234 13.0435C6.43589 12.9434 6.46214 12.8401 6.47306 12.7369C6.84787 12.5853 6.96183 12.1957 6.96183 12.1957Z" fill="#FFDA44"/>
</g>
<defs>
<clipPath id="FlagZWIcon__clip0_3811_32219">
<rect fill="white"/>
</clipPath>
</defs>
</svg>