<svg viewBox="0 0 24 24" fill="none" xmlns="http://www.w3.org/2000/svg">
<g clip-path="url(#FlagTURKEYIcon__clip0_3811_31961)">
<path d="M12 24C18.6274 24 24 18.6274 24 12C24 5.37258 18.6274 0 12 0C5.37258 0 0 5.37258 0 12C0 18.6274 5.37258 24 12 24Z" fill="#D80027"/>
<path d="M11.5087 9.80559L12.4933 11.1624L14.0878 10.6454L13.1017 12.001L14.0861 13.3577L12.4921 12.8387L11.506 14.1944L11.5071 12.5181L9.91303 11.9991L11.5076 11.482L11.5087 9.80559Z" fill="#F0F0F0"/>
<path d="M8.82159 15.3913C6.94866 15.3913 5.43028 13.8729 5.43028 12C5.43028 10.1271 6.94866 8.60869 8.82159 8.60869C9.40556 8.60869 9.95503 8.75639 10.4347 9.01631C9.68217 8.28028 8.65294 7.82606 7.51725 7.82606C5.21203 7.82606 3.34336 9.69478 3.34336 12C3.34336 14.3051 5.21208 16.1738 7.51725 16.1738C8.65303 16.1738 9.68222 15.7196 10.4347 14.9836C9.95503 15.2436 9.40556 15.3913 8.82159 15.3913Z" fill="#F0F0F0"/>
</g>
<defs>
<clipPath id="FlagTURKEYIcon__clip0_3811_31961">
<rect fill="white"/>
</clipPath>
</defs>
</svg>