<svg viewBox="0 0 24 24" fill="none" xmlns="http://www.w3.org/2000/svg">
<g clip-path="url(#FlagAXIcon__clip0_3811_32419)">
<path d="M23.5866 15.1305C23.8556 14.1323 24 13.0831 24 12C24 10.9169 23.8556 9.8677 23.5866 8.86955L10.9565 0.0456562C8.61178 0.247688 6.46008 1.12378 4.69566 2.47945L0.413391 8.86955C0.144375 9.8677 0 10.9169 0 12C0 13.0768 0.142641 14.1202 0.408656 15.1131L4.69561 21.5205C6.46003 22.8762 8.61173 23.7524 10.9565 23.9543L23.5866 15.1305Z" fill="#FFDA44"/>
<path d="M0.413391 15.1305C1.1077 17.7067 2.63789 19.9395 4.69561 21.5205L4.69566 15.1305H0.413391Z" fill="#0052B4"/>
<path d="M10.9565 23.9543C11.3004 23.984 11.6483 24 12 24C17.5443 24 22.2096 20.2396 23.5866 15.1305H10.9565L10.9565 23.9543Z" fill="#0052B4"/>
<path d="M23.5866 8.86955C22.2096 3.76036 17.5443 0 12 0C11.6483 0 11.3005 0.0160312 10.9565 0.0456562L10.9565 8.86955H23.5866Z" fill="#0052B4"/>
<path d="M4.69566 2.47945C2.63794 4.06055 1.1077 6.29334 0.413391 8.86955H4.69566V2.47945Z" fill="#0052B4"/>
<path d="M23.8984 10.4348H9.39136L9.39131 0.285234C8.28234 0.531141 7.23098 0.929719 6.26086 1.45908V10.4347H0.101578C0.0347813 10.9471 0 11.4695 0 12C0 12.5305 0.0347813 13.0529 0.101578 13.5652H6.26081L6.26086 22.5409C7.23098 23.0702 8.28234 23.4689 9.39131 23.7147V13.5653L23.8984 13.5653C23.9651 13.0529 24 12.5305 24 12C24 11.4695 23.9651 10.9471 23.8984 10.4348Z" fill="#D80027"/>
</g>
<defs>
<clipPath id="FlagAXIcon__clip0_3811_32419">
<rect fill="white"/>
</clipPath>
</defs>
</svg>