<svg viewBox="0 0 24 24" fill="none" xmlns="http://www.w3.org/2000/svg">
<g clip-path="url(#FlagMLIcon__clip0_3811_32361)">
<path d="M16.1739 0.746391C14.8739 0.264047 13.4678 0 12 0C10.5322 0 9.12609 0.264047 7.82611 0.746391L6.78263 12L7.82611 23.2536C9.12609 23.736 10.5322 24 12 24C13.4678 24 14.8739 23.736 16.1739 23.2536L17.2174 12L16.1739 0.746391Z" fill="#FFDA44"/>
<path d="M24 12C24 6.84047 20.7435 2.44186 16.1739 0.746391V23.2536C20.7435 21.558 24 17.1596 24 12Z" fill="#D80027"/>
<path d="M0 12C0 17.1596 3.2565 21.558 7.82611 23.2536V0.746391C3.2565 2.44186 0 6.84047 0 12Z" fill="#6DA544"/>
</g>
<defs>
<clipPath id="FlagMLIcon__clip0_3811_32361">
<rect fill="white"/>
</clipPath>
</defs>
</svg>