<svg viewBox="0 0 24 24" fill="none" xmlns="http://www.w3.org/2000/svg">
<g clip-path="url(#FlagCWIcon__clip0_3811_32181)">
<path d="M12 24C18.6274 24 24 18.6274 24 12C24 5.37258 18.6274 0 12 0C5.37258 0 0 5.37258 0 12C0 18.6274 5.37258 24 12 24Z" fill="#FFDA44"/>
<path d="M12 24C15.9375 24 19.432 22.1035 21.6201 19.1743H2.37989C4.56802 22.1035 8.0625 24 12 24Z" fill="#0052B4"/>
<path d="M24 12C24 5.37258 18.6274 0 12 0C5.37258 0 0 5.37258 0 12C0 13.419 0.246984 14.7803 0.699188 16.0439H23.3008C23.753 14.7803 24 13.419 24 12Z" fill="#0052B4"/>
<path d="M8.21353 7.69603L8.86102 9.68878H10.9565L9.26128 10.9206L9.90877 12.9134L8.21353 11.6817L6.5183 12.9134L7.16587 10.9206L5.47064 9.68878H7.56605L8.21353 7.69603Z" fill="#F0F0F0"/>
<path d="M4.61503 5.60906L5.00353 6.80475H6.26086L5.24372 7.54378L5.63222 8.73952L4.61503 8.00048L3.59789 8.73952L3.98644 7.54378L2.96934 6.80475H4.22662L4.61503 5.60906Z" fill="#F0F0F0"/>
</g>
<defs>
<clipPath id="FlagCWIcon__clip0_3811_32181">
<rect fill="white"/>
</clipPath>
</defs>
</svg>