<svg viewBox="0 0 24 24" fill="none" xmlns="http://www.w3.org/2000/svg">
<g clip-path="url(#FlagFOIcon__clip0_3811_32103)">
<path d="M12 24C18.6274 24 24 18.6274 24 12C24 5.37258 18.6274 0 12 0C5.37258 0 0 5.37258 0 12C0 18.6274 5.37258 24 12 24Z" fill="#F0F0F0"/>
<path d="M23.4783 12L23.8982 10.4348C23.8285 9.90131 23.7239 9.37875 23.5867 8.86959H10.9565V0.0456562C10.424 0.0915 9.90159 0.172547 9.39131 0.285703L7.30434 1.5652L6.26086 1.45987C5.71172 1.7595 5.18855 2.10075 4.69566 2.47945V8.86955H0.413391C0.276188 9.3787 0.171562 9.90127 0.101812 10.4347L0.521719 12L0.101766 13.5652C0.171516 14.0987 0.276141 14.6213 0.413344 15.1304H4.69561V21.5205C5.1885 21.8993 5.71172 22.2405 6.26081 22.5401L7.82602 22.4347L9.39122 23.7143C9.90155 23.8274 10.424 23.9084 10.9564 23.9543V15.1305H23.5865C23.7237 14.6213 23.8283 14.0987 23.8981 13.5653L23.4783 12Z" fill="#0052B4"/>
<path d="M23.8982 10.4348H9.39136L9.39131 0.285703C8.28234 0.531609 7.23099 0.930515 6.26086 1.45987L6.26086 10.4347H0.101812C0.0351094 10.9471 0 11.4695 0 12C0 12.5305 0.0350625 13.0529 0.101766 13.5652H6.26081L6.26081 22.5401C7.23094 23.0694 8.28225 23.4684 9.39122 23.7143L9.39131 13.5653L23.8981 13.5653C23.9648 13.0529 24 12.5305 24 12C24 11.4695 23.9649 10.9471 23.8982 10.4348Z" fill="#D80027"/>
</g>
<defs>
<clipPath id="FlagFOIcon__clip0_3811_32103">
<rect fill="white"/>
</clipPath>
</defs>
</svg>