<svg viewBox="0 0 24 24" fill="none" xmlns="http://www.w3.org/2000/svg">
<g clip-path="url(#FlagMRIcon__clip0_3811_32353)">
<path d="M12 24C18.6274 24 24 18.6274 24 12C24 5.37258 18.6274 0 12 0C5.37258 0 0 5.37258 0 12C0 18.6274 5.37258 24 12 24Z" fill="#496E2D"/>
<path d="M12 13.8633C10.0019 13.8633 8.33269 12.459 7.92314 10.5838C7.86023 10.8721 7.82611 11.171 7.82611 11.4782C7.82611 13.7835 9.69478 15.6521 12 15.6521C14.3052 15.6521 16.1739 13.7835 16.1739 11.4782C16.1739 11.171 16.1398 10.8721 16.0769 10.5838C15.6673 12.4591 13.9981 13.8633 12 13.8633Z" fill="#FFDA44"/>
<path d="M12 8.34783L12.3885 9.54356H13.6458L12.6286 10.2825L13.0171 11.4783L12 10.7393L10.9828 11.4783L11.3714 10.2825L10.3542 9.54356H11.6115L12 8.34783Z" fill="#FFDA44"/>
</g>
<defs>
<clipPath id="FlagMRIcon__clip0_3811_32353">
<rect fill="white"/>
</clipPath>
</defs>
</svg>