<svg viewBox="0 0 24 24" fill="none" xmlns="http://www.w3.org/2000/svg">
<g clip-path="url(#FlagTTIcon__clip0_3811_31985)">
<path d="M6.49762 1.33248C5.42334 1.88696 4.41492 2.61376 3.51436 3.51432C2.61375 4.41493 1.88695 5.42335 1.33251 6.49763L9.04846 14.9515L17.5023 22.6674C18.5767 22.113 19.5851 21.3862 20.4856 20.4856C21.3862 19.585 22.113 18.5766 22.6675 17.5023L14.9515 9.04843L6.49762 1.33248Z" fill="#F0F0F0"/>
<path d="M20.4856 20.4856C20.989 19.9823 21.438 19.4451 21.8332 18.8817L5.11832 2.16676C4.55493 2.56196 4.01775 3.01093 3.51436 3.51432C3.01096 4.01771 2.56204 4.55485 2.16679 5.11829L18.8817 21.8332C19.4451 21.438 19.9822 20.989 20.4856 20.4856Z" fill="black"/>
<path d="M3.51431 20.4857C7.30026 24.2716 12.9861 24.9984 17.5023 22.6674L1.33251 6.49763C-0.998347 11.0139 -0.271457 16.6997 3.51431 20.4857Z" fill="#D80027"/>
<path d="M20.4856 3.51437C16.6997 -0.271537 11.0138 -0.998287 6.49762 1.33248L22.6675 17.5023C24.9984 12.9861 24.2716 7.30027 20.4856 3.51437Z" fill="#D80027"/>
</g>
<defs>
<clipPath id="FlagTTIcon__clip0_3811_31985">
<rect fill="white"/>
</clipPath>
</defs>
</svg>