<svg viewBox="0 0 24 24" fill="none" xmlns="http://www.w3.org/2000/svg">
<g clip-path="url(#FlagRWIcon__clip0_3811_32155)">
<path d="M0 12C0 14.0789 0.528891 16.0342 1.45908 17.7391L12 18.7826L22.5409 17.7391C23.4711 16.0342 24 14.0789 24 12L12 10.9565L0 12Z" fill="#FFDA44"/>
<path d="M22.5409 6.26086C20.5057 2.53073 16.5485 0 12 0C7.45148 0 3.49434 2.53073 1.45908 6.26086C0.528891 7.96575 0 9.92109 0 12H24C24 9.92109 23.4711 7.96575 22.5409 6.26086Z" fill="#338AF3"/>
<path d="M12 24C16.5485 24 20.5057 21.4693 22.5409 17.7391H1.45908C3.49434 21.4693 7.45148 24 12 24Z" fill="#496E2D"/>
<path d="M13.5652 7.02286L15.0308 7.71225L14.2504 9.13162L15.8418 8.82722L16.0434 10.4348L17.1518 9.25242L18.2603 10.4348L18.462 8.82722L20.0534 9.13153L19.273 7.7122L20.7385 7.02286L19.2729 6.33356L20.0534 4.91419L18.462 5.21859L18.2603 3.61102L17.1518 4.79339L16.0434 3.61102L15.8418 5.21859L14.2503 4.91419L15.0308 6.33361L13.5652 7.02286Z" fill="#FFDA44"/>
</g>
<defs>
<clipPath id="FlagRWIcon__clip0_3811_32155">
<rect fill="white"/>
</clipPath>
</defs>
</svg>