<svg viewBox="0 0 24 24" fill="none" xmlns="http://www.w3.org/2000/svg">
<g clip-path="url(#FlagMQIcon__clip0_3811_32355)">
<path d="M12 24C18.6274 24 24 18.6274 24 12C24 5.37258 18.6274 0 12 0C5.37258 0 0 5.37258 0 12C0 18.6274 5.37258 24 12 24Z" fill="#F0F0F0"/>
<path d="M23.8972 10.4347C23.5661 7.90416 22.4294 5.45887 20.4853 3.51473C18.5411 1.57059 16.0958 0.433828 13.5652 0.102797L13.5653 10.4347H23.8972Z" fill="#0052B4"/>
<path d="M10.4347 0.102797C7.90416 0.433828 5.45883 1.57055 3.51469 3.51469C1.57059 5.45887 0.433828 7.9042 0.102797 10.4348L10.4348 10.4348L10.4347 0.102797Z" fill="#0052B4"/>
<path d="M0.102797 13.5652C0.433828 16.0958 1.57059 18.5412 3.51469 20.4853C5.45883 22.4294 7.90411 23.5661 10.4348 23.8973L10.4347 13.5653L0.102797 13.5652Z" fill="#0052B4"/>
<path d="M13.5652 23.8972C16.0958 23.5661 18.5411 22.4294 20.4853 20.4853C22.4294 18.5411 23.5661 16.0958 23.8972 13.5652H13.5652V23.8972Z" fill="#0052B4"/>
<path d="M16.0964 7.61428C16.0964 7.45472 16.2261 7.32502 16.3857 7.32502H17.0055C17.9854 7.32502 18.7826 6.52786 18.7826 5.54803C18.7826 4.5682 17.9855 3.771 17.0055 3.771H16.4169C16.2247 3.62667 15.967 3.53766 15.6826 3.53766C15.0895 3.53766 14.6087 3.92227 14.6087 4.39673C14.6087 4.86661 15.0803 5.2478 15.6655 5.2552L15.6652 5.25863H17.0055C17.1652 5.25863 17.2949 5.38838 17.2949 5.54794C17.2949 5.7075 17.1652 5.8372 17.0055 5.8372H16.3857C15.4058 5.8372 14.6087 6.63436 14.6087 7.61419C14.6087 8.59402 15.4057 9.39122 16.3857 9.39122H18.7826V7.9035H16.3857C16.2261 7.90355 16.0964 7.77384 16.0964 7.61428Z" fill="#F0F0F0"/>
<path d="M6.70509 7.61428C6.70509 7.45472 6.8348 7.32502 6.99441 7.32502H7.61428C8.59416 7.32502 9.39136 6.52786 9.39136 5.54803C9.39136 4.5682 8.5942 3.771 7.61428 3.771H7.02563C6.83348 3.62667 6.57572 3.53766 6.29138 3.53766C5.69827 3.53766 5.21747 3.92227 5.21747 4.39673C5.21747 4.86661 5.68908 5.2478 6.27427 5.2552L6.27398 5.25863H7.61433C7.77394 5.25863 7.90364 5.38838 7.90364 5.54794C7.90364 5.7075 7.77394 5.8372 7.61433 5.8372H6.99445C6.01458 5.8372 5.21747 6.63436 5.21747 7.61419C5.21747 8.59402 6.01453 9.39122 6.99445 9.39122H9.39131V7.9035H6.99441C6.8348 7.90355 6.70509 7.77384 6.70509 7.61428Z" fill="#F0F0F0"/>
<path d="M16.0964 18.6853C16.0964 18.5257 16.2261 18.396 16.3857 18.396H17.0055C17.9854 18.396 18.7826 17.5989 18.7826 16.6191C18.7826 15.6392 17.9855 14.842 17.0055 14.842H16.4169C16.2248 14.6977 15.967 14.6087 15.6826 14.6087C15.0895 14.6087 14.6087 14.9933 14.6087 15.4678C14.6087 15.9376 15.0803 16.3188 15.6655 16.3262L15.6652 16.3297H17.0055C17.1651 16.3297 17.2948 16.4594 17.2948 16.619C17.2948 16.7785 17.1651 16.9082 17.0055 16.9082H16.3856C15.4058 16.9082 14.6086 17.7054 14.6086 18.6852C14.6086 19.665 15.4057 20.4622 16.3856 20.4622H18.7826V18.9746H16.3857C16.2261 18.9746 16.0964 18.8448 16.0964 18.6853Z" fill="#F0F0F0"/>
<path d="M6.70509 18.6853C6.70509 18.5257 6.8348 18.396 6.99441 18.396H7.61428C8.59416 18.396 9.39136 17.5989 9.39136 16.6191C9.39136 15.6392 8.5942 14.842 7.61428 14.842H7.02563C6.83348 14.6977 6.57572 14.6087 6.29138 14.6087C5.69822 14.6087 5.21742 14.9933 5.21742 15.4678C5.21742 15.9376 5.68903 16.3188 6.27422 16.3262L6.27394 16.3297H7.61428C7.77389 16.3297 7.90359 16.4594 7.90359 16.619C7.90359 16.7785 7.77389 16.9082 7.61428 16.9082H6.99441C6.01453 16.9082 5.21742 17.7054 5.21742 18.6852C5.21742 19.665 6.01448 20.4622 6.99441 20.4622H9.39131V18.9746H6.99441C6.8348 18.9746 6.70509 18.8448 6.70509 18.6853Z" fill="#F0F0F0"/>
</g>
<defs>
<clipPath id="FlagMQIcon__clip0_3811_32355">
<rect fill="white"/>
</clipPath>
</defs>
</svg>