<svg viewBox="0 0 24 24" fill="none" xmlns="http://www.w3.org/2000/svg">
<g clip-path="url(#FlagNATOIcon__clip0_3811_32305)">
<path d="M12 24C18.6274 24 24 18.6274 24 12C24 5.37258 18.6274 0 12 0C5.37258 0 0 5.37258 0 12C0 18.6274 5.37258 24 12 24Z" fill="#0052B4"/>
<path d="M17.1499 12.8372L19.3043 12L17.1499 11.1629L15.9666 10.7031L14.044 9.95602L13.2969 8.03344C14.5567 8.44636 15.5536 9.4433 15.9666 10.7031L17.1499 11.1629C16.7923 8.95523 15.0447 7.20759 12.8371 6.85003L12 4.69566L11.1628 6.85008C8.95519 7.20773 7.20769 8.95523 6.85008 11.1629L4.69566 12L6.85012 12.8372C7.20773 15.0448 8.95523 16.7923 11.1629 17.1499L12 19.3043L12.8372 17.1499C15.0448 16.7923 16.7923 15.0448 17.1499 12.8372ZM13.2379 10.7622L12 12H16.4234L13.2378 13.2379L12 12V16.4234L10.7621 13.2378L12 12H7.57664L10.7621 10.7622L12 12V7.57664L13.2379 10.7622ZM10.703 8.03348L9.95592 9.95606L8.03344 10.7031C8.44636 9.44325 9.44325 8.44645 10.703 8.03348ZM8.03348 13.297L9.95592 14.044L10.703 15.9665C9.44325 15.5535 8.44645 14.5567 8.03348 13.297ZM13.297 15.9665L14.044 14.044L15.9665 13.297C15.5535 14.5567 14.5567 15.5535 13.297 15.9665Z" fill="#F0F0F0"/>
<path d="M16.4234 12H12L13.2378 13.2379L16.4234 12Z" fill="#0052B4"/>
<path d="M7.57664 12H12L10.7621 10.7622L7.57664 12Z" fill="#0052B4"/>
<path d="M12 16.4234V12L10.7621 13.2378L12 16.4234Z" fill="#0052B4"/>
<path d="M12 12L13.2379 10.7622L12 7.57664V12Z" fill="#0052B4"/>
<path d="M11.4783 1.5652H12.5218V3.65217H11.4783V1.5652Z" fill="#F0F0F0"/>
<path d="M1.5652 11.4783H3.65217V12.5218H1.5652V11.4783Z" fill="#F0F0F0"/>
<path d="M11.4783 20.3478H12.5218V22.4348H11.4783V20.3478Z" fill="#F0F0F0"/>
<path d="M20.3478 11.4783H22.4348V12.5218H20.3478V11.4783Z" fill="#F0F0F0"/>
</g>
<defs>
<clipPath id="FlagNATOIcon__clip0_3811_32305">
<rect fill="white"/>
</clipPath>
</defs>
</svg>