<svg viewBox="0 0 24 24" fill="none" xmlns="http://www.w3.org/2000/svg">
<g clip-path="url(#FlagCUIcon__clip0_3811_32183)">
<path d="M4.6875e-05 2.08692L0 21.913L4.6875e-05 12V2.08692Z" fill="#FF9811"/>
<path d="M12 23.9999C18.6273 23.9999 23.9999 18.6273 23.9999 12C23.9999 5.37256 18.6273 0 12 0C5.37256 0 4.6875e-05 5.37261 4.6875e-05 12C4.6875e-05 18.6274 5.37256 23.9999 12 23.9999Z" fill="#F0F0F0"/>
<path d="M12 0C8.07408 0 4.58883 1.8855 2.39953 4.80005H21.6005C19.4113 1.88545 15.9258 0 12 0Z" fill="#0052B4"/>
<path d="M12 23.9999C15.9258 23.9999 19.4113 22.1145 21.6006 19.1999H2.39953C4.58878 22.1145 8.07408 23.9999 12 23.9999Z" fill="#0052B4"/>
<path d="M4.6875e-05 12C4.6875e-05 12.822 0.0829219 13.6245 0.240375 14.4H23.7598C23.9172 13.6245 23.9999 12.8219 23.9999 12C23.9999 11.178 23.9172 10.3755 23.7598 9.6H0.240375C0.0829219 10.3755 4.6875e-05 11.178 4.6875e-05 12Z" fill="#0052B4"/>
<path d="M3.51473 3.51473C-1.1715 8.20097 -1.1715 15.799 3.51473 20.4853C5.45128 18.5488 7.31372 16.6863 12 12L3.51473 3.51473Z" fill="#D80027"/>
<path d="M4.85677 8.86959L5.63367 11.2609H8.14833L6.11409 12.739L6.891 15.1304L4.85677 13.6524L2.82244 15.1304L3.59953 12.739L1.56525 11.2609H4.07972L4.85677 8.86959Z" fill="#F0F0F0"/>
</g>
<defs>
<clipPath id="FlagCUIcon__clip0_3811_32183">
<rect fill="white"/>
</clipPath>
</defs>
</svg>