<svg viewBox="0 0 24 24" fill="none" xmlns="http://www.w3.org/2000/svg">
<g clip-path="url(#FlagJOIcon__clip0_3811_31965)">
<path d="M12 24C18.6274 24 24 18.6274 24 12C24 5.37258 18.6274 0 12 0C5.37258 0 0 5.37258 0 12C0 18.6274 5.37258 24 12 24Z" fill="#F0F0F0"/>
<path d="M7.30434 7.82611H23.2536C21.5581 3.2565 17.1595 0 12 0C8.68622 0 5.68655 1.34339 3.51511 3.51511L7.30434 7.82611Z" fill="black"/>
<path d="M7.30434 16.1739H23.2536C21.5581 20.7435 17.1595 24 12 24C8.68622 24 5.68655 22.6566 3.51511 20.4849L7.30434 16.1739Z" fill="#6DA544"/>
<path d="M3.51511 3.51511C-1.17117 8.20139 -1.17117 15.7986 3.51511 20.4849C5.45166 18.5483 7.31372 16.6863 12 12L3.51511 3.51511Z" fill="#D80027"/>
<path d="M4.76273 9.39131L5.42128 10.7685L6.90858 10.4247L6.24248 11.7982L7.4385 12.7467L5.94942 13.0823L5.95355 14.6087L4.76273 13.6537L3.57187 14.6087L3.57605 13.0823L2.08697 12.7467L3.28294 11.7982L2.61694 10.4247L4.10414 10.7685L4.76273 9.39131Z" fill="#F0F0F0"/>
</g>
<defs>
<clipPath id="FlagJOIcon__clip0_3811_31965">
<rect fill="white"/>
</clipPath>
</defs>
</svg>