<svg viewBox="0 0 24 24" fill="none" xmlns="http://www.w3.org/2000/svg">
<g clip-path="url(#FlagHRIcon__clip0_3811_32205)">
<path d="M24 12C24 10.5322 23.736 9.12605 23.2536 7.82611L12 7.30434L0.746391 7.82606C0.264047 9.12605 0 10.5322 0 12C0 13.4678 0.264047 14.874 0.746391 16.1739L12 16.6957L23.2536 16.1739C23.736 14.874 24 13.4678 24 12Z" fill="#F0F0F0"/>
<path d="M12 24C17.1596 24 21.5581 20.7435 23.2536 16.1739L0.746391 16.1739C2.44191 20.7435 6.84042 24 12 24Z" fill="#0052B4"/>
<path d="M0.746391 7.82606L23.2536 7.82611C21.558 3.2565 17.1596 0 12 0C6.84042 0 2.44191 3.25645 0.746391 7.82606Z" fill="#D80027"/>
<path d="M15.1305 8.34787H13.0435L13.3913 5.73914L14.7826 4.69566L16.1739 5.73914V7.82611L15.1305 8.34787Z" fill="#338AF3"/>
<path d="M8.86955 8.34787H10.9565L10.6087 5.73914L9.21736 4.69566L7.82611 5.73914V7.82611L8.86955 8.34787Z" fill="#338AF3"/>
<path d="M13.3913 8.34787H10.6087V5.73914L12 4.69566L13.3913 5.73914V8.34787Z" fill="#0052B4"/>
<path d="M7.82611 7.82611V13.5652C7.82611 14.9318 8.4862 16.1471 9.50433 16.9089L10.2348 16.7262L11.1565 17.6535C11.4291 17.7096 11.7112 17.7392 12 17.7392C12.2874 17.7392 12.568 17.71 12.8392 17.6544L13.8914 16.7783L14.4957 16.9072C15.5134 16.1454 16.1739 14.9314 16.1739 13.5652L16.1739 7.82611H7.82611Z" fill="#F0F0F0"/>
<path d="M7.82611 7.82611H9.49566V9.49566H7.82611V7.82611Z" fill="#D80027"/>
<path d="M11.1652 7.82611H12.8348V9.49566H11.1652V7.82611Z" fill="#D80027"/>
<path d="M14.5043 7.82611H16.1739V9.49566H14.5043V7.82611Z" fill="#D80027"/>
<path d="M9.49566 9.49566H11.1652V11.1652H9.49566V9.49566Z" fill="#D80027"/>
<path d="M12.8348 9.49566H14.5043V11.1652H12.8348L12.8348 9.49566Z" fill="#D80027"/>
<path d="M7.82611 11.1647L9.49566 11.1652V12.8342H7.82611V11.1647Z" fill="#D80027"/>
<path d="M9.49566 12.8342L11.1652 12.8343V14.5038H9.49566V12.8342Z" fill="#D80027"/>
<path d="M11.1652 11.1652H12.8348L12.8348 12.8342L11.1652 12.8343V11.1652Z" fill="#D80027"/>
<path d="M14.5043 11.1652L16.1739 11.1647V12.8342H14.5043V11.1652Z" fill="#D80027"/>
<path d="M12.8348 12.8342H14.5043V14.5038H12.8348L12.8348 12.8342Z" fill="#D80027"/>
<path d="M11.1652 14.5038H12.8348L12.8348 16.1734H11.1652V14.5038Z" fill="#D80027"/>
<path d="M9.49566 14.5038L7.93383 14.504C8.07708 15.1246 8.3587 15.6925 8.74486 16.1735H9.49566V14.5038Z" fill="#D80027"/>
<path d="M14.5043 16.1736H15.2551C15.6413 15.6925 15.9229 15.1246 16.0661 14.504L14.5043 14.5038V16.1736Z" fill="#D80027"/>
<path d="M9.49566 16.1735V16.902C9.98124 17.2674 10.5487 17.5294 11.1652 17.6551V16.1734L9.49566 16.1735Z" fill="#D80027"/>
<path d="M12.8348 16.1734L12.8348 17.6551C13.4513 17.5295 14.0188 17.2674 14.5043 16.902V16.1736L12.8348 16.1734Z" fill="#D80027"/>
</g>
<defs>
<clipPath id="FlagHRIcon__clip0_3811_32205">
<rect fill="white"/>
</clipPath>
</defs>
</svg>