<svg viewBox="0 0 24 24" fill="none" xmlns="http://www.w3.org/2000/svg">
<g clip-path="url(#FlagCLIcon__clip0_3811_32223)">
<path d="M12 24C18.6274 24 24 18.6274 24 12C24 5.37258 18.6274 0 12 0C5.37258 0 0 5.37258 0 12C0 18.6274 5.37258 24 12 24Z" fill="#F0F0F0"/>
<path d="M24 12C24 18.6274 18.6274 24 12 24C5.37258 24 0 18.6274 0 12C0 5.37262 12 12 12 12C12 12 21.0825 12 24 12Z" fill="#D80027"/>
<path d="M0 12C0 5.37258 5.37258 0 12 0V12C12 12 4.17389 12 0 12Z" fill="#0052B4"/>
<path d="M7.14323 4.17389L7.92028 6.56536H10.4348L8.40052 8.04333L9.17752 10.4348L7.14323 8.95678L5.10895 10.4348L5.88595 8.04333L3.85167 6.56536H6.36619L7.14323 4.17389Z" fill="#F0F0F0"/>
</g>
<defs>
<clipPath id="FlagCLIcon__clip0_3811_32223">
<rect fill="white"/>
</clipPath>
</defs>
</svg>