<svg viewBox="0 0 24 24" fill="none" xmlns="http://www.w3.org/2000/svg">
<g clip-path="url(#FlagUZIcon__clip0_3811_31919)">
<path d="M0.566625 8.34783C0.199031 9.49945 -4.68667e-05 10.7263 8.2764e-09 11.9999C-4.68667e-05 13.2735 0.199078 14.5004 0.566672 15.652L12 16.1738L23.4333 15.6521C23.8009 14.5005 24 13.2735 24 12C24 10.7264 23.8009 9.49945 23.4333 8.34778L12 7.82606L0.566625 8.34783Z" fill="#F0F0F0"/>
<path d="M23.4333 8.34778L12 7.82606L0.566625 8.34783C0.457687 8.68927 0.363844 9.03741 0.285234 9.39131H23.7145C23.636 9.03736 23.5423 8.68913 23.4333 8.34778Z" fill="#D80027"/>
<path d="M0.285375 14.6086C0.363891 14.9625 0.457734 15.3106 0.566672 15.652L0.56775 15.6521L12 16.1738L23.4333 15.6521C23.5423 15.3107 23.636 14.9625 23.7145 14.6086H0.285375Z" fill="#D80027"/>
<path d="M12 23.9999C17.3538 23.9999 21.8881 20.4936 23.4333 15.6521L0.566672 15.652C2.11191 20.4934 6.64622 23.9999 12 23.9999Z" fill="#6DA544"/>
<path d="M12 4.69981e-10C6.64617 4.68755e-05 2.11195 3.50644 0.566625 8.34783L23.4333 8.34778C21.8882 3.5063 17.3538 -4.68745e-05 12 4.69981e-10Z" fill="#338AF3"/>
<path d="M5.48372 4.95652C5.48372 3.83259 6.27361 2.89369 7.32844 2.66334C7.16634 2.62791 6.99811 2.60873 6.82533 2.60873C5.52867 2.60873 4.4775 3.65986 4.4775 4.95656C4.4775 6.25327 5.52858 7.30439 6.82533 7.30439C6.99811 7.30439 7.1663 7.28517 7.32844 7.24978C6.27366 7.01934 5.48372 6.08044 5.48372 4.95652Z" fill="#F0F0F0"/>
<path d="M8.71613 6.02372L8.87503 6.51286H9.38934L8.97328 6.8152L9.13219 7.30434L8.71613 7.00205L8.29997 7.30434L8.45892 6.8152L8.04281 6.51286H8.55713L8.71613 6.02372Z" fill="#F0F0F0"/>
<path d="M10.3577 6.02372L10.5166 6.51286H11.031L10.6148 6.8152L10.7738 7.30434L10.3577 7.00205L9.94158 7.30434L10.1005 6.8152L9.68447 6.51286H10.1987L10.3577 6.02372Z" fill="#F0F0F0"/>
<path d="M11.9993 6.02372L12.1582 6.51286H12.6726L12.2565 6.8152L12.4154 7.30434L11.9993 7.00205L11.5831 7.30434L11.7421 6.8152L11.326 6.51286H11.8403L11.9993 6.02372Z" fill="#F0F0F0"/>
<path d="M13.6409 6.02372L13.7999 6.51286H14.3141L13.8981 6.8152L14.057 7.30434L13.6409 7.00205L13.2248 7.30434L13.3837 6.8152L12.9676 6.51286H13.4819L13.6409 6.02372Z" fill="#F0F0F0"/>
<path d="M15.2825 6.02372L15.4414 6.51286H15.9557L15.5397 6.8152L15.6986 7.30434L15.2825 7.00205L14.8664 7.30434L15.0253 6.8152L14.6093 6.51286H15.1235L15.2825 6.02372Z" fill="#F0F0F0"/>
<path d="M10.3577 4.3162L10.5166 4.8053H11.031L10.6148 5.10769L10.7738 5.59678L10.3577 5.29448L9.94158 5.59678L10.1005 5.10769L9.68447 4.8053H10.1987L10.3577 4.3162Z" fill="#F0F0F0"/>
<path d="M11.9993 4.3162L12.1582 4.8053H12.6726L12.2565 5.10769L12.4154 5.59678L11.9993 5.29448L11.5831 5.59678L11.7421 5.10769L11.326 4.8053H11.8403L11.9993 4.3162Z" fill="#F0F0F0"/>
<path d="M13.6409 4.3162L13.7999 4.8053H14.3141L13.8981 5.10769L14.057 5.59678L13.6409 5.29448L13.2248 5.59678L13.3837 5.10769L12.9676 4.8053H13.4819L13.6409 4.3162Z" fill="#F0F0F0"/>
<path d="M15.2825 4.3162L15.4414 4.8053H15.9557L15.5397 5.10769L15.6986 5.59678L15.2825 5.29448L14.8664 5.59678L15.0253 5.10769L14.6093 4.8053H15.1235L15.2825 4.3162Z" fill="#F0F0F0"/>
<path d="M11.9993 2.60864L12.1582 3.09783H12.6726L12.2565 3.40013L12.4154 3.88931L11.9993 3.58702L11.5831 3.88931L11.7421 3.40013L11.326 3.09783H11.8403L11.9993 2.60864Z" fill="#F0F0F0"/>
<path d="M13.6409 2.60864L13.7999 3.09783H14.3141L13.8981 3.40013L14.057 3.88931L13.6409 3.58702L13.2248 3.88931L13.3837 3.40013L12.9676 3.09783H13.4819L13.6409 2.60864Z" fill="#F0F0F0"/>
<path d="M15.2825 2.60864L15.4414 3.09783H15.9557L15.5397 3.40013L15.6986 3.88931L15.2825 3.58702L14.8664 3.88931L15.0253 3.40013L14.6093 3.09783H15.1235L15.2825 2.60864Z" fill="#F0F0F0"/>
</g>
<defs>
<clipPath id="FlagUZIcon__clip0_3811_31919">
<rect fill="white"/>
</clipPath>
</defs>
</svg>