<svg viewBox="0 0 24 24" fill="none" xmlns="http://www.w3.org/2000/svg">
<g clip-path="url(#FlagPRIcon__clip0_3811_32189)">
<path d="M12 24C18.6274 24 24 18.6274 24 12C24 5.37258 18.6274 0 12 0C5.37257 0 -7.27177e-06 5.37258 -7.27177e-06 12C-7.27177e-06 18.6274 5.37257 24 12 24Z" fill="#F0F0F0"/>
<path d="M12 0C8.07412 0 4.58873 1.88545 2.39948 4.8H21.6005C19.4113 1.88545 15.9259 0 12 0Z" fill="#D80027"/>
<path d="M12 24C15.9259 24 19.4113 22.1145 21.6005 19.2H2.39948C4.58873 22.1145 8.07412 24 12 24Z" fill="#D80027"/>
<path d="M-7.27177e-06 12C-7.27177e-06 12.822 0.0828677 13.6245 0.240321 14.4H23.7598C23.9172 13.6245 24 12.822 24 12C24 11.178 23.9171 10.3755 23.7597 9.6H0.240321C0.0828677 10.3755 -7.27177e-06 11.178 -7.27177e-06 12Z" fill="#D80027"/>
<path d="M3.51468 3.51469C-1.1716 8.20097 -1.1716 15.799 3.51468 20.4853C5.45123 18.5488 7.31371 16.6863 12 12L3.51468 3.51469Z" fill="#0052B4"/>
<path d="M4.85671 8.86955L5.63366 11.2609H8.14832L6.11404 12.739L6.89095 15.1305L4.85671 13.6524L2.82238 15.1305L3.59948 12.739L1.5652 11.2609H4.07966L4.85671 8.86955Z" fill="#F0F0F0"/>
</g>
<defs>
<clipPath id="FlagPRIcon__clip0_3811_32189">
<rect fill="white"/>
</clipPath>
</defs>
</svg>