<svg viewBox="0 0 24 24" fill="none" xmlns="http://www.w3.org/2000/svg">
<g clip-path="url(#FlagSMIcon__clip0_3811_32145)">
<path d="M24 12C24 18.6274 18.6274 24 12 24C5.37262 24 0 18.6274 0 12C0.521719 12 12 10.4348 12 10.4348L24 12Z" fill="#338AF3"/>
<path d="M0 12C0 5.37262 5.37262 0 12 0C18.6274 0 24 5.37262 24 12" fill="#F0F0F0"/>
<path d="M16.7633 8.28019L12 13.0435L7.23675 8.28019C6.62077 9.19458 6.26091 10.2952 6.26091 11.4782V13.0434C6.26091 15.5567 7.88489 17.6976 10.1385 18.4725C9.8377 19.062 9.88842 19.7977 10.3292 20.3478C10.9146 19.8786 11.5206 19.3929 12.0347 18.981C12.5489 19.393 13.155 19.8787 13.7403 20.3478C14.1862 19.7913 14.2333 19.0446 13.9206 18.4516C16.1434 17.6599 17.7391 15.5347 17.7391 13.0434V11.4783C17.7391 10.2952 17.3792 9.19462 16.7633 8.28019Z" fill="#6DA544"/>
<path d="M12 17.2174C9.69848 17.2174 7.82611 15.345 7.82611 13.0435V11.4783C7.82611 9.17677 9.69853 7.30439 12 7.30439C14.3015 7.30439 16.1739 9.17681 16.1739 11.4783V13.0435C16.1739 15.345 14.3015 17.2174 12 17.2174Z" fill="#FFDA44"/>
<path d="M14.6087 13.0435V11.4783C14.6087 10.0398 13.4384 8.86959 12 8.86959C10.5616 8.86959 9.39131 10.0399 9.39131 11.4783V13.0435L12 13.5652L14.6087 13.0435Z" fill="#338AF3"/>
<path d="M9.39131 13.0435C9.39131 14.4819 10.5616 15.6522 12 15.6522C13.4384 15.6522 14.6087 14.4819 14.6087 13.0435H9.39131Z" fill="#6DA544"/>
<path d="M15.1305 7.30434C15.1305 6.43992 14.4297 5.73914 13.5652 5.73914C13.1642 5.73914 12.7987 5.89008 12.5218 6.138V5.21738H13.0435V4.17389H12.5218V3.65217H11.4783V4.17389H10.9566V5.21738H11.4783V6.138C11.2013 5.89008 10.8358 5.73914 10.4348 5.73914C9.57037 5.73914 8.86959 6.43992 8.86959 7.30434C8.86959 7.7678 9.0712 8.18405 9.39131 8.47069V9.39131H14.6087V8.47069C14.9288 8.18405 15.1305 7.7678 15.1305 7.30434Z" fill="#FFDA44"/>
</g>
<defs>
<clipPath id="FlagSMIcon__clip0_3811_32145">
<rect fill="white"/>
</clipPath>
</defs>
</svg>