<svg viewBox="0 0 24 24" fill="none" xmlns="http://www.w3.org/2000/svg">
<g clip-path="url(#FlagKPIcon__clip0_3811_32265)">
<path d="M12 24C18.6274 24 24 18.6274 24 12C24 5.37258 18.6274 0 12 0C5.37258 0 0 5.37258 0 12C0 18.6274 5.37258 24 12 24Z" fill="#F0F0F0"/>
<path d="M12 0C8.36292 0 5.10403 1.61831 2.90339 4.17389H21.0966C18.896 1.61831 15.6371 0 12 0Z" fill="#0052B4"/>
<path d="M21.0966 19.8261H2.90339C5.10403 22.3817 8.36292 24 12 24C15.6371 24 18.896 22.3817 21.0966 19.8261Z" fill="#0052B4"/>
<path d="M22.2387 5.73914H1.76128C0.644297 7.56187 0 9.70561 0 12C0 14.2944 0.644297 16.4382 1.76128 18.2609H22.2387C23.3557 16.4382 24 14.2944 24 12C24 9.70561 23.3557 7.56187 22.2387 5.73914Z" fill="#D80027"/>
<path d="M7.38262 16.6174C9.93273 16.6174 12 14.5501 12 12C12 9.44989 9.93273 7.38263 7.38262 7.38263C4.83252 7.38263 2.76525 9.44989 2.76525 12C2.76525 14.5501 4.83252 16.6174 7.38262 16.6174Z" fill="#F0F0F0"/>
<path d="M7.38262 7.38263L8.41861 10.5711H11.7766L9.05897 12.5418L10.1031 15.7398L7.38263 13.7597L4.66631 15.7361L5.70628 12.5418L2.99105 10.5711H6.34659L7.38262 7.38263Z" fill="#D80027"/>
</g>
<defs>
<clipPath id="FlagKPIcon__clip0_3811_32265">
<rect fill="white"/>
</clipPath>
</defs>
</svg>