<svg viewBox="0 0 24 24" fill="none" xmlns="http://www.w3.org/2000/svg">
<g clip-path="url(#FlagBONAIREIcon__clip0_3811_32303)">
<path d="M12 24C18.6274 24 24 18.6274 24 12C24 5.37258 18.6274 0 12 0C5.37258 0 0 5.37258 0 12C0 18.6274 5.37258 24 12 24Z" fill="#F0F0F0"/>
<path d="M3.51469 3.51469C0.942891 6.08648 -0.217125 9.53527 0.0337969 12.8984L12.8983 0.0338438C9.53522 -0.217125 6.08648 0.942891 3.51469 3.51469Z" fill="#FFDA44"/>
<path d="M4.28484 21.1908C8.99958 25.1575 16.0477 24.9229 20.4853 20.4853C24.923 16.0477 25.1576 8.99953 21.1909 4.28484L4.28484 21.1908Z" fill="#0052B4"/>
<path d="M11.9572 11.5167L12.9913 10.9565L11.9572 10.3964C11.7158 8.82787 10.4765 7.58855 8.90798 7.34714L8.34778 6.31298L7.78763 7.34709C6.21919 7.5885 4.97991 8.82783 4.73841 10.3963L3.70425 10.9565L4.73836 11.5167C4.97981 13.0852 6.21909 14.3245 7.78758 14.5659L8.34778 15.6L8.90794 14.5659C10.4765 14.3245 11.7158 13.0852 11.9572 11.5167ZM8.34783 13.0435C7.19522 13.0435 6.26086 12.1092 6.26086 10.9565C6.26086 9.80386 7.19517 8.86955 8.34783 8.86955C9.50048 8.86955 10.4348 9.80386 10.4348 10.9565C10.4348 12.1092 9.50044 13.0435 8.34783 13.0435Z" fill="black"/>
<path d="M8.34783 9.39131L8.79966 10.1739H9.70336L9.25148 10.9565L9.70336 11.7391H8.79966L8.34783 12.5217L7.896 11.7391H6.99234L7.44417 10.9565L6.99234 10.1739H7.896L8.34783 9.39131Z" fill="#D80027"/>
</g>
<defs>
<clipPath id="FlagBONAIREIcon__clip0_3811_32303">
<rect fill="white"/>
</clipPath>
</defs>
</svg>