<svg viewBox="0 0 24 24" fill="none" xmlns="http://www.w3.org/2000/svg">
<g clip-path="url(#FlagMELILLAIcon__clip0_3811_32349)">
<path d="M12 24C18.6274 24 24 18.6274 24 12C24 5.37258 18.6274 0 12 0C5.37258 0 0 5.37258 0 12C0 18.6274 5.37258 24 12 24Z" fill="#338AF3"/>
<path d="M5.73914 13.0435H18.2609V14.6087H5.73914V13.0435Z" fill="#818085"/>
<path d="M7.82611 8.34783L12 8.86964L16.1739 8.34783V5.84348L14.5043 6.67828L12 4.17389L9.49566 6.67828L7.82611 5.84348V8.34783Z" fill="#FFDA44"/>
<path d="M6.78262 16.174H5.21737V13.3044L5.73914 12.5217L5.21737 11.7391V9.91308H6.78262V16.174Z" fill="#F0F0F0"/>
<path d="M18.7826 16.174H17.2174V9.91308H18.7826V11.7391L18.2609 12.5348L18.7826 13.3045V16.174Z" fill="#F0F0F0"/>
<path d="M5.21737 11.7391L18.7826 11.7391V13.3045L5.21737 13.3044V11.7391Z" fill="#ACABB1"/>
<path d="M12 18.2609C9.69848 18.2609 7.82611 16.3884 7.82611 14.087V8.34783H16.1739L16.1739 14.087C16.1739 16.3884 14.3015 18.2609 12 18.2609Z" fill="#F0F0F0"/>
<path d="M12 16.6957C10.5615 16.6957 9.39131 15.5254 9.39131 14.087V9.91313H14.6087V14.087C14.6087 15.5254 13.4385 16.6957 12 16.6957Z" fill="#0052B4"/>
<path d="M7.82611 8.34783H9.39131V9.91313L7.82611 9.91303V8.34783Z" fill="#D80027"/>
<path d="M14.6087 8.34783H16.1739V9.91303L14.6087 9.91313L14.6087 8.34783Z" fill="#D80027"/>
<path d="M14.6087 11.7391H16.1739V13.3043H14.6087V11.7391Z" fill="#D80027"/>
<path d="M7.82611 11.7391H9.39131V13.3043H7.82611V11.7391Z" fill="#D80027"/>
<path d="M11.2174 8.34783H12.7826V9.91303H11.2174V8.34783Z" fill="#D80027"/>
<path d="M12 16.6957C11.7274 16.6957 11.4645 16.6535 11.2174 16.5756V18.1862C11.4711 18.2346 11.7324 18.2609 12 18.2609C12.2676 18.2609 12.5289 18.2346 12.7826 18.1862V16.5756C12.5355 16.6534 12.2726 16.6957 12 16.6957Z" fill="#D80027"/>
<path d="M9.42619 14.5104L8.17706 15.7596C8.39363 16.2526 8.70263 16.696 9.08241 17.0677L10.1887 15.9615C9.79387 15.5801 9.51886 15.0757 9.42619 14.5104Z" fill="#D80027"/>
<path d="M15.8229 15.7597L14.5738 14.5105C14.4811 15.0758 14.2061 15.5801 13.8114 15.9616L14.9176 17.0679C15.2973 16.6961 15.6064 16.2527 15.8229 15.7597Z" fill="#D80027"/>
</g>
<defs>
<clipPath id="FlagMELILLAIcon__clip0_3811_32349">
<rect fill="white"/>
</clipPath>
</defs>
</svg>