<svg viewBox="0 0 24 24" fill="none" xmlns="http://www.w3.org/2000/svg">
<g clip-path="url(#FlagTMIcon__clip0_3811_31959)">
<path d="M11.9999 0C11.1039 0 10.2312 0.0990469 9.39127 0.285234L8.86955 12L9.39127 23.7147C10.2312 23.9009 11.104 24 11.9999 24C18.6273 24 23.9999 18.6274 23.9999 12C23.9999 5.37258 18.6273 0 11.9999 0Z" fill="#496E2D"/>
<path d="M3.13041 3.91739C1.18584 6.05002 0 8.88642 0 12C0 15.1135 1.18589 17.9499 3.13045 20.0826L3.65217 12L3.13041 3.91739Z" fill="#496E2D"/>
<path d="M17.5509 9.05152C18.1413 7.40592 17.478 5.61619 16.0546 4.72481C16.3106 4.75814 16.5669 4.81842 16.8199 4.90912C18.7185 5.59031 19.7054 7.6815 19.0242 9.58003C18.343 11.4787 16.2518 12.4655 14.3532 11.7843C14.1002 11.6936 13.864 11.5771 13.6453 11.4401C15.3107 11.657 16.9605 10.6971 17.5509 9.05152Z" fill="#F0F0F0"/>
<path d="M14.2764 4.27373L13.7633 4.93664L12.9745 4.65356L13.4463 5.34628L12.9334 6.00909L13.738 5.77444L14.2099 6.46706L14.2352 5.62931L15.0399 5.39461L14.251 5.11162L14.2764 4.27373Z" fill="#F0F0F0"/>
<path d="M15.6616 6.43369L15.1486 7.09655L14.3597 6.81347L14.8316 7.50619L14.3186 8.169L15.1232 7.93425L15.5951 8.62702L15.6205 7.78922L16.4251 7.55447L15.6362 7.27144L15.6616 6.43369Z" fill="#F0F0F0"/>
<path d="M11.834 5.06039L11.321 5.7232L10.5321 5.44022L11.004 6.13289L10.491 6.79575L11.2956 6.56105L11.7675 7.25372L11.7929 6.41597L12.5975 6.18127L11.8087 5.89819L11.834 5.06039Z" fill="#F0F0F0"/>
<path d="M11.7778 7.53455L11.2648 8.19741L10.4759 7.91437L10.9478 8.60709L10.4347 9.26991L11.2394 9.03525L11.7113 9.72787L11.7367 8.89013L12.5413 8.65542L11.7524 8.37234L11.7778 7.53455Z" fill="#F0F0F0"/>
<path d="M14.1321 8.37928L13.6191 9.04209L12.8302 8.75906L13.3021 9.45178L12.789 10.1145L13.5938 9.87989L14.0656 10.5726L14.091 9.73477L14.8957 9.50011L14.1067 9.21708L14.1321 8.37928Z" fill="#F0F0F0"/>
<path d="M3.13041 3.91739L3.13045 20.0826C4.76545 21.8758 6.93713 23.1707 9.39127 23.7147V0.285234C6.93708 0.829266 4.76545 2.12419 3.13041 3.91739Z" fill="#D80027"/>
<path d="M5.51962 6.31805L4.47145 5.5372V4.43297L5.51962 3.65217H7.00205L8.05022 4.43297V5.5372L7.00205 6.31805H5.51962Z" fill="#F0F0F0"/>
<path d="M6.26086 3.65217H5.51962L4.47145 4.43297V4.97283H6.26086V3.65217Z" fill="#FF9811"/>
<path d="M6.26086 6.31805H7.00205L8.05022 5.5372V4.97391H6.26086V6.31805Z" fill="#FF9811"/>
<path d="M5.51962 20.3477L4.47145 19.5669V18.4627L5.51962 17.6819H7.00205L8.05022 18.4627V19.5669L7.00205 20.3477H5.51962Z" fill="#F0F0F0"/>
<path d="M6.26086 17.6819H5.51962L4.47145 18.4627V19.0026H6.26086V17.6819Z" fill="#FF9811"/>
<path d="M6.26086 20.3477H7.00205L8.05022 19.5669V19.0036H6.26086V20.3477Z" fill="#FF9811"/>
<path d="M5.51962 13.3329L4.47145 12.552V11.4479L5.51962 10.667H7.00205L8.05022 11.4479V12.552L7.00205 13.3329H5.51962Z" fill="#496E2D"/>
<path d="M8.08692 15.0509H7.63036V14.5943H6.82809L6.26081 14.0271L5.69358 14.5943H4.89131V15.0509H4.4348V15.9639H4.89131V16.4204H5.69353L6.26086 16.9877L6.82809 16.4204H7.63036V15.9639H8.08692V15.0509Z" fill="#496E2D"/>
<path d="M8.08692 8.03597H7.63036V7.57941H6.82809L6.26081 7.01213L5.69358 7.57941H4.89131V8.03597H4.4348V8.949H4.89131V9.40552H5.69353L6.26086 9.97289L6.82809 9.40552H7.63036V8.949H8.08692V8.03597Z" fill="#496E2D"/>
<path d="M5.73905 11.4782H6.78253V12.5217H5.73905V11.4782Z" fill="#D80027"/>
<path d="M6.26077 9.01402C6.5489 9.01402 6.78248 8.78043 6.78248 8.4923C6.78248 8.20416 6.5489 7.97058 6.26077 7.97058C5.97263 7.97058 5.73905 8.20416 5.73905 8.4923C5.73905 8.78043 5.97263 9.01402 6.26077 9.01402Z" fill="#D80027"/>
<path d="M6.26077 16.0293C6.5489 16.0293 6.78248 15.7957 6.78248 15.5076C6.78248 15.2194 6.5489 14.9858 6.26077 14.9858C5.97263 14.9858 5.73905 15.2194 5.73905 15.5076C5.73905 15.7957 5.97263 16.0293 6.26077 16.0293Z" fill="#D80027"/>
</g>
<defs>
<clipPath id="FlagTMIcon__clip0_3811_31959">
<rect fill="white"/>
</clipPath>
</defs>
</svg>