<svg viewBox="0 0 24 24" fill="none" xmlns="http://www.w3.org/2000/svg">
<g clip-path="url(#FlagSINTMAARTENIcon__clip0_3811_32083)">
<path d="M10.9565 13.0435C10.9565 13.0435 3.52174 3.51305 3.51471 3.51473C5.68624 1.34316 8.68629 0 12 0C18.6274 0 24 5.37262 24 12L10.9565 13.0435Z" fill="#D80027"/>
<path d="M10.9565 12C10.9565 12 3.52174 20.487 3.51471 20.4853C5.68624 22.6568 8.68629 24 12 24C18.6274 24 24 18.6274 24 12H10.9565Z" fill="#0052B4"/>
<path d="M3.51471 3.51473C-1.17157 8.20102 -1.17157 15.7989 3.51471 20.4853C5.45126 18.5487 7.31374 16.6863 12 12L3.51471 3.51473Z" fill="#F0F0F0"/>
<path d="M1.31538 12C1.30882 12.0862 1.30437 12.173 1.30437 12.2609C1.30437 14.1338 2.82274 15.6522 4.69568 15.6522C6.56862 15.6522 8.08699 14.1338 8.08699 12.2609C8.08699 12.173 8.08254 12.0862 8.07598 12H1.31538Z" fill="#FFDA44"/>
<path d="M4.69568 10.4348C5.27198 10.4348 5.73916 9.96761 5.73916 9.39131C5.73916 8.81501 5.27198 8.34783 4.69568 8.34783C4.11938 8.34783 3.6522 8.81501 3.6522 9.39131C3.6522 9.96761 4.11938 10.4348 4.69568 10.4348Z" fill="#FFDA44"/>
<path d="M2.34785 9.13045V12.5218C2.34785 14.319 4.69568 14.8696 4.69568 14.8696C4.69568 14.8696 7.04351 14.319 7.04351 12.5218V9.13045H2.34785Z" fill="#D80027"/>
<path d="M4.6968 13.7775C4.26124 13.6208 3.39129 13.2202 3.39129 12.5217V10.1739H6.00002V12.5217C6.00002 13.2225 5.13016 13.6221 4.6968 13.7775Z" fill="#338AF3"/>
<path d="M5.2174 11.4783V10.9565L4.69568 10.6957L4.17391 10.9565V11.4783L3.91305 11.7391V12.7826H5.4783V11.7391L5.2174 11.4783Z" fill="#F3F3F3"/>
</g>
<defs>
<clipPath id="FlagSINTMAARTENIcon__clip0_3811_32083">
<rect fill="white"/>
</clipPath>
</defs>
</svg>