<svg viewBox="0 0 24 24" fill="none" xmlns="http://www.w3.org/2000/svg">
<g clip-path="url(#FlagSNIcon__clip0_3811_32115)">
<path d="M17.2174 1.19072C15.6397 0.427875 13.8698 0 12 0C10.1302 0 8.36025 0.427875 6.78263 1.19072L5.73914 12L6.78263 22.8093C8.36025 23.5721 10.1302 24 12 24C13.8698 24 15.6397 23.5721 17.2174 22.8093L18.2609 12L17.2174 1.19072Z" fill="#FFDA44"/>
<path d="M11.9999 7.82611L13.0358 11.0145H16.3887L13.6763 12.9853L14.7123 16.1739L11.9999 14.2033L9.28748 16.1739L10.3237 12.9853L7.61128 11.0145H10.9639L11.9999 7.82611Z" fill="#496E2D"/>
<path d="M6.78263 1.19072C2.76872 3.13167 0 7.24252 0 12C0 16.7575 2.76872 20.8683 6.78263 22.8093V1.19072Z" fill="#496E2D"/>
<path d="M17.2174 1.19072V22.8093C21.2313 20.8683 24 16.7575 24 12C24 7.24252 21.2313 3.13167 17.2174 1.19072Z" fill="#D80027"/>
</g>
<defs>
<clipPath id="FlagSNIcon__clip0_3811_32115">
<rect fill="white"/>
</clipPath>
</defs>
</svg>