<svg viewBox="0 0 24 24" fill="none" xmlns="http://www.w3.org/2000/svg">
<g clip-path="url(#FlagEUROPEANUNIONIcon__clip0_3811_32127)">
<path d="M12 24C18.6274 24 24 18.6274 24 12C24 5.37258 18.6274 0 12 0C5.37258 0 0 5.37258 0 12C0 18.6274 5.37258 24 12 24Z" fill="#0052B4"/>
<path d="M12 4.69566L12.3886 5.89139H13.6458L12.6286 6.63037L13.0172 7.82611L12 7.08708L10.9829 7.82611L11.3714 6.63037L10.3543 5.89139H11.6115L12 4.69566Z" fill="#FFDA44"/>
<path d="M6.83503 6.83503L7.95534 7.40578L8.84433 6.51684L8.64759 7.75856L9.76786 8.32936L8.52609 8.52605L8.32941 9.76786L7.75861 8.64759L6.51689 8.84433L7.40588 7.95534L6.83503 6.83503Z" fill="#FFDA44"/>
<path d="M4.6957 12L5.89144 11.6115V10.3542L6.63037 11.3714L7.82616 10.9829L7.08708 12L7.82616 13.0171L6.63037 12.6286L5.89144 13.6458V12.3885L4.6957 12Z" fill="#FFDA44"/>
<path d="M6.83503 17.165L7.40583 16.0447L6.51689 15.1557L7.75866 15.3525L8.32936 14.2322L8.52609 15.474L9.76781 15.6706L8.64769 16.2414L8.84433 17.4832L7.95534 16.5942L6.83503 17.165Z" fill="#FFDA44"/>
<path d="M12 19.3043L11.6115 18.1086H10.3543L11.3715 17.3696L10.9829 16.174L12 16.9129L13.0172 16.174L12.6286 17.3696L13.6458 18.1086H12.3885L12 19.3043Z" fill="#FFDA44"/>
<path d="M17.165 17.165L16.0448 16.5942L15.1557 17.4832L15.3525 16.2414L14.2323 15.6706L15.474 15.474L15.6707 14.2322L16.2414 15.3525L17.4832 15.1557L16.5942 16.0448L17.165 17.165Z" fill="#FFDA44"/>
<path d="M19.3043 12L18.1086 12.3885V13.6458L17.3696 12.6286L16.174 13.0171L16.913 12L16.174 10.9829L17.3697 11.3714L18.1086 10.3542V11.6115L19.3043 12Z" fill="#FFDA44"/>
<path d="M17.165 6.83503L16.5942 7.95534L17.4832 8.84433L16.2414 8.64755L15.6707 9.76781L15.474 8.52605L14.2323 8.32931L15.3525 7.75856L15.1557 6.51689L16.0448 7.40583L17.165 6.83503Z" fill="#FFDA44"/>
</g>
<defs>
<clipPath id="FlagEUROPEANUNIONIcon__clip0_3811_32127">
<rect fill="white"/>
</clipPath>
</defs>
</svg>