<svg viewBox="0 0 24 24" fill="none" xmlns="http://www.w3.org/2000/svg">
<g clip-path="url(#FlagIVORYCOASTIcon__clip0_3811_31973)">
<path d="M12 24C13.4678 24 14.874 23.736 16.1739 23.2536L16.6957 12L16.1739 0.746391C14.874 0.264047 13.4678 0 12 0C10.5322 0 9.12605 0.264047 7.82611 0.746391L7.30434 12L7.82606 23.2536C9.12605 23.736 10.5322 24 12 24Z" fill="#F0F0F0"/>
<path d="M0 12C0 17.1596 3.25645 21.5581 7.82606 23.2536L7.82611 0.746391C3.2565 2.44191 0 6.84042 0 12Z" fill="#FF9811"/>
<path d="M16.1739 0.746391L16.1739 23.2536C20.7435 21.558 24 17.1596 24 12C24 6.84042 20.7435 2.44191 16.1739 0.746391Z" fill="#6DA544"/>
</g>
<defs>
<clipPath id="FlagIVORYCOASTIcon__clip0_3811_31973">
<rect fill="white"/>
</clipPath>
</defs>
</svg>