<svg viewBox="0 0 24 24" fill="none" xmlns="http://www.w3.org/2000/svg">
<g clip-path="url(#FlagSIIcon__clip0_3811_32079)">
<path d="M12 24C18.6274 24 24 18.6274 24 12C24 5.37258 18.6274 0 12 0C5.37258 0 0 5.37258 0 12C0 18.6274 5.37258 24 12 24Z" fill="#F0F0F0"/>
<path d="M23.2536 7.82611H10.4348V4.69566H4.17389V7.82611H0.746391C0.264047 9.12605 0 10.5322 0 12C0 13.4678 0.264047 14.8739 0.746391 16.1739L12 17.2174L23.2536 16.1739C23.736 14.8739 24 13.4678 24 12C24 10.5322 23.736 9.12605 23.2536 7.82611Z" fill="#0052B4"/>
<path d="M12 24C17.1596 24 21.5581 20.7435 23.2536 16.1739H0.746391C2.44191 20.7435 6.84042 24 12 24Z" fill="#D80027"/>
<path d="M4.17389 7.82611V8.86955C4.17389 11.2658 7.30434 12 7.30434 12C7.30434 12 10.4348 11.2658 10.4348 8.86955L10.4348 7.82611L9.39131 8.86959L7.30434 7.30439L5.21737 8.86959L4.17389 7.82611Z" fill="#F0F0F0"/>
</g>
<defs>
<clipPath id="FlagSIIcon__clip0_3811_32079">
<rect fill="white"/>
</clipPath>
</defs>
</svg>