<svg viewBox="0 0 24 24" fill="none" xmlns="http://www.w3.org/2000/svg">
<g clip-path="url(#FlagNAIcon__clip0_3811_32307)">
<path d="M12 24C18.6274 24 24 18.6274 24 12C24 5.37258 18.6274 0 12 0C5.37258 0 0 5.37258 0 12C0 18.6274 5.37258 24 12 24Z" fill="#F0F0F0"/>
<path d="M3.51473 20.4853C4.01813 20.9887 4.55522 21.4376 5.11861 21.8329L21.8328 5.11866C21.4376 4.55527 20.9887 4.01817 20.4852 3.51478C19.9818 3.01139 19.4447 2.56252 18.8813 2.16727L2.16722 18.8815C2.56242 19.4448 3.01134 19.9819 3.51473 20.4853Z" fill="#A2001D"/>
<path d="M3.51473 3.51469C-0.271078 7.3005 -0.997828 12.9861 1.33294 17.5021L17.5021 1.33298C12.9861 -0.997781 7.30045 -0.270937 3.51473 3.51469Z" fill="#0052B4"/>
<path d="M20.4853 20.4853C24.271 16.6996 24.9977 11.014 22.6671 6.49791L6.49791 22.6671C11.0139 24.9978 16.6995 24.2711 20.4853 20.4853Z" fill="#496E2D"/>
<path d="M9.91303 6.78263L8.56838 7.41511L9.28444 8.71739L7.82433 8.43811L7.63927 9.91303L6.62227 8.8282L5.60522 9.91303L5.42025 8.43811L3.96009 8.71734L4.67611 7.41506L3.3315 6.78263L4.67616 6.15009L3.96009 4.84791L5.4202 5.12719L5.60527 3.65217L6.62227 4.73705L7.63931 3.65217L7.82433 5.12719L9.28444 4.84791L8.56847 6.15014L9.91303 6.78263Z" fill="#FFDA44"/>
</g>
<defs>
<clipPath id="FlagNAIcon__clip0_3811_32307">
<rect fill="white"/>
</clipPath>
</defs>
</svg>