<svg viewBox="0 0 24 24" fill="none" xmlns="http://www.w3.org/2000/svg">
<g clip-path="url(#FlagCORSICAIcon__clip0_3811_32209)">
<path d="M12 24C18.6274 24 24 18.6274 24 12C24 5.37258 18.6274 0 12 0C5.37258 0 0 5.37258 0 12C0 18.6274 5.37258 24 12 24Z" fill="#FCFCFC"/>
<path d="M16.1782 10.164C16.1782 7.62605 14.1208 5.56866 11.5829 5.56866C9.71002 5.56866 8.1 6.68944 7.38413 8.2965L6.81736 10.3513L7.33908 10.873L6.29559 12.96L7.33908 13.4817L6.81736 14.0034V14.5251L7.33908 15.0468V16.0903L7.8608 16.612L9.426 16.0903C9.426 16.0903 9.426 16.612 9.94772 17.1338C10.4694 17.6555 10.9913 18.699 10.9913 18.699C10.9913 18.699 12.5565 19.2208 13.5999 17.6556C14.6434 16.0904 15.6869 15.5686 15.6869 15.5686L14.6812 13.557C15.6009 12.7169 16.1782 11.5081 16.1782 10.164Z" fill="black"/>
<path d="M16.5528 11.9213C18.6729 11.5637 19.026 7.4122 19.026 7.4122H16.1043C17.6174 11.0644 16.0337 11.31 16.0337 11.31C15.8191 11.1504 8.14111 7.51313 7.89773 7.42064C7.83909 7.49911 7.62323 7.70522 7.36083 8.34694C7.09838 8.98866 7.03397 9.56597 7.03397 9.56597C7.15688 9.64608 15.3109 12.4933 15.5265 12.517C15.9542 12.7967 16.4805 13.633 16.1864 16.1126L18.9986 15.32C18.9986 15.32 18.0443 12.7811 16.5528 11.9213Z" fill="#ACABB1"/>
</g>
<defs>
<clipPath id="FlagCORSICAIcon__clip0_3811_32209">
<rect fill="white"/>
</clipPath>
</defs>
</svg>