<svg viewBox="0 0 24 24" fill="none" xmlns="http://www.w3.org/2000/svg">
<g clip-path="url(#FlagNPIcon__clip0_3811_32281)">
<path d="M12 24C18.6274 24 24 18.6274 24 12C24 5.37258 18.6274 0 12 0C5.37258 0 0 5.37258 0 12C0 18.6274 5.37258 24 12 24Z" fill="#F0F0F0"/>
<path d="M23.9295 13.3043C23.9295 13.3042 23.9295 13.3045 23.9295 13.3043L10.7693 0.0623906C10.1757 0.122906 9.59475 0.226688 9.02986 0.370547C3.83897 1.69219 0 12 0 12C0 12 16.7999 23.2423 18.7165 21.9452C19.1 21.6857 19.4677 21.4046 19.8177 21.1036L12.0185 13.3043H23.9295Z" fill="#0052B4"/>
<path d="M20.8695 12L9.19898 0.329484C3.92287 1.59122 0 6.33712 0 12C0 18.6274 5.37258 24 12 24C14.5139 24 16.8467 23.2265 18.7748 21.9052L8.86955 12H20.8695Z" fill="#D80027"/>
<path d="M11.4128 17.7184L9.9472 17.0291L10.7276 15.6097L9.13622 15.9142L8.93456 14.3065L7.82611 15.4889L6.71766 14.3065L6.51595 15.9142L4.92459 15.6097L5.70502 17.0291L4.23942 17.7184L5.70502 18.4077L4.92459 19.8271L6.51605 19.5227L6.71761 21.1303L7.82611 19.9479L8.93456 21.1303L9.13622 19.5227L10.7276 19.8271L9.94716 18.4078L11.4128 17.7184Z" fill="#F0F0F0"/>
<path d="M10.4348 6.65545L9.36886 6.15412L9.93647 5.1218L8.77898 5.34323L8.63231 4.17389L7.82611 5.03391L7.01991 4.17389L6.87319 5.34323L5.7157 5.1218L6.28336 6.15412L5.21737 6.65545L7.82611 7.17727L10.4348 6.65545Z" fill="#F0F0F0"/>
<path d="M10.9565 6.65545C10.9565 8.38434 9.55495 9.78591 7.82606 9.78591C6.09717 9.78591 4.69561 8.38434 4.69561 6.65545" fill="#F0F0F0"/>
</g>
<defs>
<clipPath id="FlagNPIcon__clip0_3811_32281">
<rect fill="white"/>
</clipPath>
</defs>
</svg>