<svg viewBox="0 0 24 24" fill="none" xmlns="http://www.w3.org/2000/svg">
<g clip-path="url(#FlagBALEARICISLANDSIcon__clip0_3811_32365)">
<path d="M12 0C18.6273 0 24 5.37261 24 12C24 18.6273 18.6273 24 12 24C5.37261 24 3.065e-10 18.6273 3.065e-10 12" fill="#FFDA44"/>
<path d="M11.7391 5.33333H21.9787C21.3044 4.32613 20.4816 3.42707 19.5418 2.66667H11.7391V5.33333Z" fill="#D80027"/>
<path d="M11.7391 10.6667H23.9259C23.8236 9.74201 23.6164 8.84919 23.3162 8.00005H11.7391V10.6667Z" fill="#D80027"/>
<path d="M0.683764 16H23.3161C23.6163 15.1509 23.8236 14.2579 23.9258 13.3333H0.0741092C0.176297 14.258 0.383577 15.1509 0.683764 16Z" fill="#D80027"/>
<path d="M4.45813 21.3333H19.5417C20.4815 20.5729 21.3044 19.6738 21.9786 18.6666H2.02134C2.69559 19.6738 3.51834 20.5729 4.45813 21.3333Z" fill="#D80027"/>
<path d="M12 0C5.37257 0 -4.68746e-05 5.37252 3.065e-10 12C2.73871 11.9999 5.37257 12.0001 11.9999 12.0001L12 0Z" fill="#4A1F63"/>
<path d="M9.91301 6.26085V7.30433H9.39129V6.26085H8.34781V7.30433H7.82609V5.21737H5.73913V7.30433H5.21737V6.26085H4.17393V7.30433H3.65216V6.26085H2.60864V9.39125H10.9565V6.26085H9.91301Z" fill="#F0F0F0"/>
</g>
<defs>
<clipPath id="FlagBALEARICISLANDSIcon__clip0_3811_32365">
<rect fill="white"/>
</clipPath>
</defs>
</svg>