<svg viewBox="0 0 24 24" fill="none" xmlns="http://www.w3.org/2000/svg">
<g clip-path="url(#FlagEEIcon__clip0_3811_32131)">
<path d="M0 12C0 13.4678 0.264047 14.8739 0.746391 16.1739L12 16.6957L23.2536 16.1739C23.736 14.8739 24 13.4678 24 12C24 10.5322 23.736 9.12609 23.2536 7.82611L12 7.30434L0.746391 7.82606C0.264047 9.12609 0 10.5322 0 12Z" fill="black"/>
<path d="M12 0C6.84042 0 2.44191 3.25645 0.746391 7.82606L23.2536 7.82611C21.558 3.2565 17.1596 0 12 0Z" fill="#0052B4"/>
<path d="M23.2536 16.1739L0.746391 16.1739C2.44191 20.7435 6.84042 24 12 24C17.1596 24 21.5581 20.7435 23.2536 16.1739Z" fill="#F0F0F0"/>
</g>
<defs>
<clipPath id="FlagEEIcon__clip0_3811_32131">
<rect fill="white"/>
</clipPath>
</defs>
</svg>