<svg viewBox="0 0 24 24" fill="none" xmlns="http://www.w3.org/2000/svg">
<g clip-path="url(#FlagTKIcon__clip0_3811_31991)">
<path d="M12 24C18.6274 24 24 18.6274 24 12C24 5.37258 18.6274 0 12 0C5.37258 0 0 5.37258 0 12C0 18.6274 5.37258 24 12 24Z" fill="#FFDA44"/>
<path d="M19.3043 5.73914C19.1967 6.25641 19.1478 6.80733 19.1478 7.35652C19.1478 10.5222 21.035 13.2621 23.7394 14.4955C23.9097 13.6904 24 12.8558 24 12C24 5.37258 18.6274 0 12 0C5.37258 0 0 5.37258 0 12C0 18.6274 5.37258 24 12 24C16.1101 24 19.7371 21.9332 21.8998 18.7826H6.78263V17.2174H22.8093C22.9733 16.8782 23.1215 16.53 23.2537 16.1739H6.78263L19.3043 5.73914Z" fill="#0052B4"/>
<path d="M8.81588 6.26086L9.07491 7.05802H9.91303L9.23498 7.55072L9.49402 8.34783L8.81588 7.85522L8.13783 8.34783L8.39681 7.55072L7.71867 7.05802H8.55684L8.81588 6.26086Z" fill="#F0F0F0"/>
<path d="M5.41116 12L5.73497 12.9965H6.78262L5.93498 13.6122L6.2588 14.6087L5.41116 13.9928L4.56356 14.6087L4.88733 13.6122L4.03973 12.9965H5.08739L5.41116 12Z" fill="#F0F0F0"/>
<path d="M5.41116 3.65217L5.73497 4.64869H6.78262L5.93498 5.26439L6.2588 6.26086L5.41116 5.64502L4.56356 6.26086L4.88733 5.26439L4.03973 4.64869H5.08739L5.41116 3.65217Z" fill="#F0F0F0"/>
<path d="M2.80247 8.34783L3.12628 9.34434H4.17389L3.3263 9.96005L3.65011 10.9565L2.80247 10.3407L1.95487 10.9565L2.27864 9.96005L1.43105 9.34434H2.47866L2.80247 8.34783Z" fill="#F0F0F0"/>
</g>
<defs>
<clipPath id="FlagTKIcon__clip0_3811_31991">
<rect fill="white"/>
</clipPath>
</defs>
</svg>