<svg viewBox="0 0 24 24" fill="none" xmlns="http://www.w3.org/2000/svg">
<g clip-path="url(#FlagILIcon__clip0_3811_31977)">
<path d="M12 24C18.6274 24 24 18.6274 24 12C24 5.37258 18.6274 0 12 0C5.37258 0 0 5.37258 0 12C0 18.6274 5.37258 24 12 24Z" fill="#F0F0F0"/>
<path d="M16.5184 9.39131H13.5061L12 6.78263L10.494 9.39131H7.48158L8.98786 12L7.48158 14.6087H10.494L12 17.2174L13.5061 14.6087H16.5184L15.0121 12L16.5184 9.39131ZM13.8504 12L12.9253 13.6026H11.0749L10.1496 12L11.0748 10.3974H12.9252L13.8504 12ZM12 8.79483L12.3443 9.39127H11.6558L12 8.79483ZM9.22434 10.3974H9.91303L9.56869 10.9939L9.22434 10.3974ZM9.22434 13.6026L9.56873 13.0061L9.91308 13.6026H9.22434ZM12 15.2051L11.6557 14.6087H12.3443L12 15.2051ZM14.7757 13.6026H14.087L14.4314 13.0061L14.7757 13.6026ZM14.087 10.3974H14.7757L14.4313 10.9939L14.087 10.3974Z" fill="#0052B4"/>
<path d="M19.4699 2.60869H4.53014C3.435 3.48094 2.49581 4.54041 1.76128 5.73914H22.2387C21.5041 4.54045 20.565 3.48094 19.4699 2.60869Z" fill="#0052B4"/>
<path d="M4.53014 21.3913H19.4698C20.565 20.5191 21.5041 19.4596 22.2387 18.2609H1.76128C2.49586 19.4595 3.43505 20.5191 4.53014 21.3913Z" fill="#0052B4"/>
</g>
<defs>
<clipPath id="FlagILIcon__clip0_3811_31977">
<rect fill="white"/>
</clipPath>
</defs>
</svg>