<svg viewBox="0 0 24 24" fill="none" xmlns="http://www.w3.org/2000/svg">
<g clip-path="url(#FlagBWIcon__clip0_3811_32299)">
<path d="M0.566625 8.34773C0.199031 9.49941 -4.68667e-05 10.7263 8.27595e-09 11.9999C-4.68667e-05 13.2735 0.199031 14.5004 0.566672 15.6521L12 16.1739L23.4333 15.6521C23.8008 14.5004 24 13.2734 24 12C24 10.7264 23.8009 9.49941 23.4333 8.34773L12 7.82602L0.566625 8.34773Z" fill="#F0F0F0"/>
<path d="M24 12C24 11.2881 23.9376 10.5908 23.8187 9.91294H0.181266C0.0622969 10.5908 8.27595e-09 11.288 8.27595e-09 11.9999C8.27595e-09 12.7118 0.0623438 13.4091 0.181266 14.0869H23.8187C23.9376 13.409 24 12.7118 24 12Z" fill="black"/>
<path d="M12 23.9999C17.3539 23.9999 21.8881 20.4936 23.4333 15.6521H0.566672C2.11191 20.4935 6.64617 23.9998 12 23.9999Z" fill="#338AF3"/>
<path d="M12 1.88015e-09C6.64617 1.88015e-09 2.11195 3.50639 0.566625 8.34773H23.4333C21.8881 3.50634 17.3538 -9.37481e-05 12 1.88015e-09Z" fill="#338AF3"/>
</g>
<defs>
<clipPath id="FlagBWIcon__clip0_3811_32299">
<rect fill="white"/>
</clipPath>
</defs>
</svg>