<svg viewBox="0 0 24 24" fill="none" xmlns="http://www.w3.org/2000/svg">
<g clip-path="url(#FlagBBIcon__clip0_3811_32341)">
<path d="M17.2174 1.19072C15.6397 0.427875 13.8698 0 12 0C10.1302 0 8.36025 0.427875 6.78263 1.19072L5.73914 12L6.78263 22.8093C8.36025 23.5721 10.1302 24 12 24C13.8698 24 15.6397 23.5721 17.2174 22.8093L18.2609 12L17.2174 1.19072Z" fill="#FFDA44"/>
<path d="M6.78263 1.19072C2.76872 3.13162 0 7.24247 0 12C0 16.7575 2.76872 20.8684 6.78263 22.8093V1.19072Z" fill="#0052B4"/>
<path d="M17.2174 1.19072V22.8093C21.2313 20.8684 24 16.7575 24 12C24 7.24252 21.2313 3.13162 17.2174 1.19072Z" fill="#0052B4"/>
<path d="M15.6522 7.30434L14.9521 6.95438C14.91 7.0388 13.9959 8.89847 13.8466 11.7391H12.7826V7.30434L12 6.26086L11.2174 7.30434V11.7391H10.1534C10.004 8.89847 9.09005 7.0388 9.04781 6.95438L7.64784 7.65436C7.6575 7.67358 8.60873 9.60975 8.60873 12.5218V13.3044H11.2174V17.7392H12.7826V13.3044H15.3913V12.5217C15.3913 11.0162 15.6518 9.77475 15.8704 8.99841C16.1086 8.15184 16.3507 7.65745 16.353 7.65253L15.6522 7.30434Z" fill="black"/>
</g>
<defs>
<clipPath id="FlagBBIcon__clip0_3811_32341">
<rect fill="white"/>
</clipPath>
</defs>
</svg>