<svg viewBox="0 0 24 24" fill="none" xmlns="http://www.w3.org/2000/svg">
<g clip-path="url(#FlagAUIcon__clip0_3811_32377)">
<path d="M24 12C24 18.6274 18.6274 24 12 24C5.37262 24 0 18.6274 0 12C0 12.0028 12 0.00135937 12 0C18.6274 0 24 5.37262 24 12Z" fill="#0052B4"/>
<path d="M11.9679 12H12C12 11.9891 12 11.9787 12 11.9679C11.9893 11.9786 11.9786 11.9893 11.9679 12Z" fill="#F0F0F0"/>
<path d="M12 6.2609C12 4.14942 12 2.76577 12 0C11.9993 0 11.9986 4.6875e-05 11.998 4.6875e-05C5.3715 0.001125 0 5.37323 0 12L6.26086 12V8.47444L9.78642 12L11.9679 12C11.9786 11.9893 11.9893 11.9786 12 11.9679C12 11.1594 12 10.4381 12 9.78651L8.47444 6.2609H12Z" fill="#F0F0F0"/>
<path d="M6.07102 1.5652C4.19419 2.63391 2.63391 4.19419 1.5652 6.07102V12H4.69566V4.6957L12 4.69566C12 3.70833 12 2.76773 12 1.5652H6.07102Z" fill="#D80027"/>
<path d="M12 10.5243L7.73658 6.26095H6.26091L12 12C12 12 12 10.9826 12 10.5243Z" fill="#D80027"/>
<path d="M7.23727 14.087L7.89586 15.4641L9.38306 15.1203L8.71706 16.4939L9.91303 17.4423L8.42395 17.7779L8.42813 19.3043L7.23727 18.3494L6.04645 19.3043L6.05062 17.7779L4.5615 17.4423L5.75752 16.4939L5.09142 15.1203L6.57872 15.4641L7.23727 14.087Z" fill="#F0F0F0"/>
<path d="M17.9664 16.6957L18.2957 17.3842L19.0394 17.2123L18.7063 17.8991L19.3043 18.3733L18.5598 18.5411L18.5618 19.3043L17.9664 18.8268L17.371 19.3043L17.3731 18.5411L16.6286 18.3733L17.2266 17.8991L16.8936 17.2123L17.6371 17.3842L17.9664 16.6957Z" fill="#F0F0F0"/>
<path d="M14.9031 9.39131L15.2324 10.0799L15.976 9.90797L15.643 10.5947L16.241 11.069L15.4965 11.2368L15.4985 12L14.9031 11.5225L14.3077 12L14.3097 11.2368L13.5652 11.069L14.1632 10.5947L13.8302 9.90797L14.5738 10.0799L14.9031 9.39131Z" fill="#F0F0F0"/>
<path d="M17.9664 5.21737L18.2957 5.90597L19.0394 5.73408L18.7064 6.42084L19.3043 6.89503L18.5598 7.06289L18.5618 7.82611L17.9664 7.34859L17.371 7.82611L17.3731 7.06289L16.6286 6.89503L17.2265 6.42084L16.8936 5.73408L17.6371 5.90597L17.9664 5.21737Z" fill="#F0F0F0"/>
<path d="M20.6423 8.34783L20.9715 9.03642L21.7151 8.86448L21.3821 9.55125L21.9801 10.0255L21.2355 10.1933L21.2376 10.9565L20.6423 10.479L20.0468 10.9565L20.0489 10.1933L19.3043 10.0255L19.9023 9.55125L19.5693 8.86448L20.3129 9.03642L20.6423 8.34783Z" fill="#F0F0F0"/>
<path d="M18.7289 12L18.9879 12.7972H19.8261L19.148 13.2899L19.407 14.087L18.7289 13.5943L18.0508 14.087L18.3098 13.2899L17.6317 12.7972H18.4699L18.7289 12Z" fill="#F0F0F0"/>
</g>
<defs>
<clipPath id="FlagAUIcon__clip0_3811_32377">
<rect fill="white"/>
</clipPath>
</defs>
</svg>