<svg viewBox="0 0 24 24" fill="none" xmlns="http://www.w3.org/2000/svg">
<g clip-path="url(#FlagPGIcon__clip0_3811_32203)">
<path d="M20.4853 20.4853C15.799 25.1716 8.20108 25.1716 3.5147 20.4853C-1.17158 15.799 -1.17158 8.20097 3.51475 3.51465C8.20103 -1.17163 15.0611 -0.433775 19.7474 4.25255C24.4337 8.93883 25.1716 15.799 20.4853 20.4853Z" fill="black"/>
<path d="M3.51475 3.51465C8.20103 -1.17163 15.799 -1.17149 20.4853 3.51474C25.1716 8.20102 25.1716 15.7989 20.4853 20.4853" fill="#A2001D"/>
<path d="M9.17074 16.1739L9.36499 16.7718H9.99363L9.48503 17.1413L9.67933 17.7392L9.17074 17.3697L8.66214 17.7392L8.85639 17.1413L8.34785 16.7718H8.97644L9.17074 16.1739Z" fill="#F0F0F0"/>
<path d="M7.56522 10.4348L7.88908 11.4313H8.93674L8.0891 12.0471L8.41286 13.0435L7.56522 12.4276L6.71763 13.0435L7.04144 12.0471L6.19375 11.4313H7.2415L7.56522 10.4348Z" fill="#F0F0F0"/>
<path d="M7.56522 17.7392L7.88899 18.7357H8.93674L8.089 19.3514L8.41286 20.3479L7.56522 19.732L6.71763 20.3479L7.04135 19.3514L6.19375 18.7357H7.24136L7.56522 17.7392Z" fill="#F0F0F0"/>
<path d="M10.6285 13.0435L10.9524 14.04H12L11.1524 14.6558L11.4761 15.6522L10.6285 15.0363L9.78091 15.6522L10.1047 14.6558L9.25708 14.04H10.3048L10.6285 13.0435Z" fill="#F0F0F0"/>
<path d="M4.50189 13.0435L4.82575 14.04H5.87336L5.02577 14.6558L5.34949 15.6522L4.50189 15.0363L3.65425 15.6522L3.97811 14.6558L3.13042 14.04H4.17813L4.50189 13.0435Z" fill="#F0F0F0"/>
<path d="M20.0883 8.88568C19.552 8.34938 18.8551 8.03255 18.1063 7.97813L20.3478 6.23471C19.4551 5.34198 18.2586 4.9388 17.091 5.02407C16.9512 4.52176 16.6848 4.04729 16.2897 3.65227L15.4043 5.42312C15.3462 5.31727 15.2727 5.21766 15.183 5.12799C14.6735 4.6186 13.8477 4.6186 13.3383 5.12799C12.829 5.63738 12.8289 6.46322 13.3383 6.97262C13.428 7.06229 13.5277 7.13583 13.6335 7.19396L11.8627 8.07938C12.2578 8.47454 12.7326 8.74121 13.2352 8.8809C13.1496 10.0485 13.5524 11.2448 14.4452 12.1376L16.4036 9.61955C16.5509 9.47447 16.7455 9.39437 16.9525 9.39437C17.1616 9.39437 17.3581 9.47574 17.5059 9.62363C17.6537 9.77143 17.7351 9.96797 17.7351 10.177C17.7351 10.3861 17.6537 10.5826 17.5059 10.7304L18.2438 11.4683C18.5886 11.1234 18.7786 10.6648 18.7786 10.177C18.7786 9.77794 18.6513 9.39854 18.4163 9.08485C18.7587 9.1763 19.0824 9.35546 19.3505 9.62363C20.1643 10.4373 20.1643 11.7614 19.3505 12.575L20.0884 13.3129C20.6797 12.7216 21.0053 11.9356 21.0053 11.0993C21.0052 10.2631 20.6795 9.47696 20.0883 8.88568Z" fill="#FFDA44"/>
</g>
<defs>
<clipPath id="FlagPGIcon__clip0_3811_32203">
<rect fill="white"/>
</clipPath>
</defs>
</svg>