<svg viewBox="0 0 24 24" fill="none" xmlns="http://www.w3.org/2000/svg">
<g clipPath="url(#BrandMastercardIcon__clip0_4146_131089)">
<path fillRule="evenodd" clipRule="evenodd" d="M0 4C0 1.79086 1.79086 0 4 0H20C22.2091 0 24 1.79086 24 4V20C24 22.2091 22.2091 24 20 24H4C1.79086 24 0 22.2091 0 20V4Z" fill="black"/>
<path d="M9.76514 7.87988H14.2074V16.0226H9.76514V7.87988Z" fill="#FF5F00"/>
<path d="M10.0472 11.9515C10.0444 11.1707 10.2172 10.3994 10.5528 9.69445C10.8884 8.98952 11.3782 8.36906 11.986 7.87897C9.9047 6.21097 6.91595 6.45397 5.11895 8.43772C3.32195 10.4215 3.3227 13.48 5.11895 15.4637C6.9152 17.4475 9.90395 17.6905 11.986 16.0217C11.3785 15.5319 10.8889 14.9118 10.5533 14.2073C10.2177 13.5027 10.0448 12.7318 10.0472 11.9515Z" fill="#EB001B"/>
<path d="M20.2006 11.952C20.2006 13.9342 19.0906 15.7425 17.3431 16.6095C15.5956 17.4765 13.5143 17.2477 11.9858 16.0222C12.5932 15.5321 13.0828 14.9118 13.4186 14.2073C13.7544 13.5027 13.9279 12.7317 13.9261 11.9512C13.9261 10.3627 13.2106 8.86124 11.9858 7.87949C13.5143 6.65474 15.5933 6.42674 17.3423 7.29299C19.0913 8.15924 20.2006 9.96749 20.2006 11.9505V11.952Z" fill="#F79E1B"/>
</g>
<defs>
<clipPath id="BrandMastercardIcon__clip0_4146_131089">
<rect fill="white"/>
</clipPath>
</defs>
</svg>