<svg viewBox="0 0 24 24" fill="none" xmlns="http://www.w3.org/2000/svg">
<path d="M21.0062 18.816C20.8523 19.9616 20.0814 20.9521 19.0025 21.3925C18.4739 21.6122 17.9011 21.6789 17.3283 21.6122C16.7781 21.5465 16.2269 21.3699 15.6551 21.0404C14.8626 20.599 14.0691 19.9174 13.1443 18.9043C14.5978 17.1202 15.4785 15.4911 15.8091 14.0376C15.963 13.355 15.9856 12.7381 15.9189 12.1653C15.8306 11.6151 15.6325 11.108 15.3246 10.6676C14.6419 9.67702 13.4964 9.10424 12.2194 9.10424C10.9424 9.10424 9.79684 9.69858 9.11422 10.6676C8.80626 11.108 8.60815 11.6151 8.51987 12.1653C8.43159 12.7381 8.45417 13.3765 8.62971 14.0376C8.96024 15.4911 9.86254 17.1428 11.2945 18.9258C10.3912 19.939 9.57717 20.6216 8.78368 21.062C8.21089 21.3925 7.66069 21.5691 7.11048 21.6348C6.54283 21.6984 5.96901 21.6224 5.43728 21.4151C4.35843 20.9747 3.58753 19.9831 3.43355 18.8386C3.36786 18.2884 3.41199 17.7381 3.63167 17.1212C3.69736 16.9005 3.80822 16.6809 3.91806 16.417C4.07204 16.0649 4.24859 15.6903 4.42413 15.3156L4.44671 15.2715C5.96593 11.9897 7.59602 8.64231 9.2918 5.38317L9.3575 5.25075C9.53405 4.92124 9.70959 4.56812 9.88615 4.23759C10.0627 3.8855 10.2608 3.55496 10.5031 3.26857C10.966 2.73992 11.5819 2.45353 12.2646 2.45353C12.9472 2.45353 13.5641 2.73992 14.026 3.26857C14.2683 3.55496 14.4664 3.8855 14.643 4.23759C14.8195 4.56812 14.995 4.92021 15.1716 5.24972L15.2383 5.38214C16.9115 8.66284 18.5416 12.0103 20.0608 15.292V15.3135C20.2374 15.6656 20.3914 16.0629 20.5669 16.415C20.6767 16.6798 20.7876 16.8995 20.8533 17.1192C21.0288 17.693 21.0945 18.2432 21.0062 18.816ZM12.2194 17.7802C11.0307 16.2826 10.2598 14.8732 9.99496 13.6845C9.88512 13.1774 9.86254 12.737 9.92926 12.3408C9.9734 11.9887 10.1058 11.6797 10.2813 11.4159C10.7002 10.8216 11.4043 10.4469 12.2194 10.4469C13.0344 10.4469 13.7612 10.8 14.1574 11.4159C14.334 11.6808 14.4654 11.9887 14.5095 12.3408C14.5752 12.737 14.5537 13.2 14.4438 13.6845C14.18 14.8516 13.4091 16.261 12.2194 17.7802ZM22.1518 16.6357C22.042 16.3719 21.9311 16.0855 21.8213 15.8432C21.6447 15.447 21.4692 15.0723 21.3142 14.7202L21.2926 14.6987C19.7734 11.3954 18.1433 8.04797 16.426 4.74468L16.3603 4.61226C16.1837 4.28173 16.0082 3.92964 15.8316 3.57755C15.6109 3.18132 15.3913 2.7625 15.0392 2.36627C14.334 1.48451 13.3208 1 12.242 1C11.1405 1 10.15 1.48451 9.42217 2.32111C9.09163 2.71734 8.84938 3.13615 8.62971 3.53238C8.45315 3.88447 8.27762 4.23656 8.10106 4.5671L8.03536 4.69849C6.33958 8.00177 4.68794 11.3492 3.16871 14.6525L3.14716 14.6966C2.99318 15.0487 2.81662 15.4234 2.64006 15.8196C2.52202 16.0803 2.41218 16.3452 2.30953 16.6121C2.02314 17.4271 1.93486 18.198 2.04469 18.9905C2.28695 20.6421 3.38839 22.03 4.90761 22.6459C5.4804 22.8881 6.07474 22.9979 6.69167 22.9979C6.86823 22.9979 7.0879 22.9764 7.26446 22.9538C7.99122 22.8655 8.73954 22.6243 9.46631 22.2055C10.3696 21.6994 11.2278 20.9727 12.1968 19.9154C13.1658 20.9727 14.0466 21.6994 14.9273 22.2055C15.6541 22.6243 16.4024 22.8655 17.1291 22.9538C17.3057 22.9764 17.5254 22.9979 17.7019 22.9979C18.3189 22.9979 18.9348 22.8881 19.486 22.6459C21.0278 22.0289 22.1067 20.6195 22.3489 18.9905C22.5255 18.2206 22.4372 17.4507 22.1518 16.6357Z" fill="#E0565B"/>
</svg>