<svg viewBox="0 0 24 24" fill="none" xmlns="http://www.w3.org/2000/svg">
<g clipPath="url(#BrandVisaIcon__clip0_4146_131088)">
<path fillRule="evenodd" clipRule="evenodd" d="M0 4C0 1.79086 1.79086 0 4 0H20C22.2091 0 24 1.79086 24 4V20C24 22.2091 22.2091 24 20 24H4C1.79086 24 0 22.2091 0 20V4Z" fill="#00579F"/>
<path d="M10.3669 14.907H8.84969L9.79844 9.10503H11.3157L10.3669 14.907ZM15.8674 9.24753C15.433 9.08201 14.9718 8.9981 14.5069 9.00003C13.0084 9.00003 11.9532 9.78978 11.9464 10.92C11.9344 11.7525 12.7017 12.216 13.2762 12.4935C13.8634 12.7778 14.0637 12.963 14.0637 13.2158C14.0569 13.6043 13.5889 13.7835 13.1517 13.7835C12.5457 13.7835 12.2217 13.6913 11.7282 13.4753L11.5279 13.3823L11.3157 14.685C11.6719 14.8448 12.3274 14.9873 13.0084 14.9933C14.6007 14.9933 15.6372 14.2155 15.6492 13.0125C15.6552 12.3518 15.2502 11.8455 14.3757 11.4323C13.8447 11.1668 13.5199 10.9875 13.5199 10.716C13.5259 10.4685 13.7944 10.2158 14.3937 10.2158C14.7823 10.2047 15.1685 10.2808 15.5239 10.4385L15.6612 10.5L15.8674 9.24753ZM17.8849 12.852L18.4902 11.2283C18.4842 11.241 18.6154 10.8893 18.6897 10.6733L18.7962 11.1728C18.7962 11.1728 19.0834 12.5618 19.1457 12.852H17.8849ZM19.7577 9.10503H18.5839C18.2217 9.10503 17.9464 9.21003 17.7904 9.58653L15.5367 14.907H17.1289L17.4477 14.037H19.3954C19.4397 14.2403 19.5769 14.907 19.5769 14.907H20.9817L19.7577 9.10503ZM7.58219 9.10503L6.09569 13.0613L5.93369 12.2588C5.65919 11.3333 4.79744 10.3275 3.83594 9.82728L5.19719 14.901H6.80219L9.18719 9.10503H7.58219Z" fill="white"/>
<path d="M4.71675 9.10547H2.27475L2.25 9.22322C4.155 9.70397 5.41575 10.865 5.934 12.26L5.403 9.59297C5.316 9.22247 5.0475 9.11822 4.71675 9.10547Z" fill="white"/>
</g>
<defs>
<clipPath id="BrandVisaIcon__clip0_4146_131088">
<rect fill="white"/>
</clipPath>
</defs>
</svg>