<svg viewBox="0 0 24 24" fill="none" xmlns="http://www.w3.org/2000/svg">
<mask id="BrandIllustratorIcon__mask0_3983_36709" style={{ maskType: 'luminance' }} maskUnits="userSpaceOnUse" x="1" y="1">
<path d="M22.7485 1H1V22.2048H22.7485V1Z" fill="white"/>
</mask>
<g mask="url(#BrandIllustratorIcon__mask0_3983_36709)">
<path d="M18.8972 1H4.8513C2.72429 1 1 2.72429 1 4.8513V18.3535C1 20.4805 2.72429 22.2048 4.8513 22.2048H18.8972C21.0242 22.2048 22.7485 20.4805 22.7485 18.3535V4.8513C22.7485 2.72429 21.0242 1 18.8972 1Z" fill="#330000"/>
<path d="M11.5385 13.7254H8.16833L7.48262 15.8555C7.47329 15.8943 7.45068 15.9287 7.41871 15.9527C7.38674 15.9767 7.34743 15.9887 7.30754 15.9868H5.60055C5.5032 15.9868 5.46916 15.9333 5.49843 15.8263L8.41632 7.42269C8.44553 7.33517 8.47471 7.23548 8.50389 7.1236C8.54206 6.92894 8.5616 6.7311 8.56226 6.53273C8.56027 6.51886 8.56154 6.50471 8.56597 6.49143C8.57042 6.47812 8.57787 6.46606 8.58778 6.45615C8.5977 6.44624 8.60978 6.43876 8.62306 6.43434C8.63637 6.42988 8.6505 6.42861 8.66439 6.4306H10.9841C11.0521 6.4306 11.091 6.4549 11.1008 6.50354L14.4127 15.8409C14.4419 15.9383 14.4127 15.9869 14.3251 15.9868H12.4285C12.3959 15.9904 12.3631 15.982 12.3363 15.9633C12.3094 15.9445 12.2903 15.9165 12.2826 15.8847L11.5385 13.7254ZM8.69354 11.8871H10.9987C10.9404 11.6927 10.8723 11.4738 10.7945 11.2306C10.7165 10.9876 10.6338 10.7274 10.5464 10.45C10.4589 10.1729 10.3713 9.89565 10.2838 9.61843C10.1963 9.34123 10.116 9.07375 10.0431 8.81598C9.97013 8.5584 9.90447 8.32255 9.84616 8.1084H9.83155C9.74941 8.50244 9.64715 8.892 9.52517 9.27557C9.38885 9.71326 9.25022 10.1607 9.10934 10.6178C8.96822 11.0751 8.82962 11.4982 8.69354 11.8871Z" fill="#FF9A00"/>
<path d="M16.3823 7.97751C16.2335 7.9835 16.0851 7.958 15.9468 7.90269C15.8085 7.84737 15.6835 7.7635 15.5798 7.65655C15.4765 7.54496 15.3962 7.41405 15.3436 7.27134C15.291 7.12861 15.2672 6.97691 15.2734 6.82495C15.2681 6.67448 15.2946 6.52459 15.3512 6.38506C15.4077 6.24553 15.4931 6.11949 15.6017 6.01522C15.7092 5.912 15.8362 5.83114 15.9752 5.7773C16.1141 5.72344 16.2624 5.6977 16.4114 5.70155C16.7616 5.70155 17.0364 5.80609 17.2358 6.01522C17.3364 6.12389 17.4146 6.25133 17.4659 6.39028C17.5173 6.52922 17.5407 6.67694 17.5348 6.82495C17.5409 6.97749 17.5163 7.12974 17.4624 7.27259C17.4085 7.41545 17.3265 7.54602 17.2212 7.65655C17.1111 7.76507 16.9797 7.84962 16.8353 7.90486C16.6909 7.9601 16.5367 7.98483 16.3823 7.97751ZM15.3755 15.8413V8.86748C15.3755 8.77996 15.4143 8.73617 15.4923 8.73617H17.2868C17.3646 8.73617 17.4035 8.77993 17.4035 8.86748V15.8413C17.4035 15.9387 17.3646 15.9873 17.2868 15.9872H15.5069C15.4194 15.9872 15.3756 15.9386 15.3755 15.8413Z" fill="#FF9A00"/>
</g>
</svg>