<svg viewBox="0 0 24 25" fill="none" xmlns="http://www.w3.org/2000/svg">
<g filter="url(#BrandAlgorandIcon__filter0_d_3983_36720)">
<path d="M12 23C18.0751 23 23 18.0751 23 12C23 5.92487 18.0751 1 12 1C5.92487 1 1 5.92487 1 12C1 18.0751 5.92487 23 12 23Z" fill="black"/>
</g>
<path d="M12 23C18.0751 23 23 18.0751 23 12C23 5.92487 18.0751 1 12 1C5.92487 1 1 5.92487 1 12C1 18.0751 5.92487 23 12 23Z" fill="#E5E5E5"/>
<path style={{ mixBlendMode: 'soft-light' }} d="M12 23C18.0751 23 23 18.0751 23 12C23 5.92487 18.0751 1 12 1C5.92487 1 1 5.92487 1 12C1 18.0751 5.92487 23 12 23Z" fill="url(#BrandAlgorandIcon__paint0_linear_3983_36720)"/>
<path d="M11.9995 22.6329C17.8722 22.6329 22.6329 17.8722 22.6329 11.9995C22.6329 6.12692 17.8722 1.36621 11.9995 1.36621C6.12692 1.36621 1.36621 6.12692 1.36621 11.9995C1.36621 17.8722 6.12692 22.6329 11.9995 22.6329Z" stroke="black" strokeOpacity="0.097"/>
<path d="M7.84305 17.8671L13.1386 8.62582L13.8655 11.014L9.81592 17.8671H11.8926L14.4885 13.4022L15.6307 17.8671H17.4997L15.7345 11.2217L16.9805 9.04116H15.1115L14.3846 6.13379H12.6195L5.76636 17.8671H7.84305Z" fill="black"/>
<defs>
<filter id="BrandAlgorandIcon__filter0_d_3983_36720" x="0" y="0.5" filterUnits="userSpaceOnUse" colorInterpolationFilters="sRGB">
<feFlood floodOpacity="0" result="BackgroundImageFix"/>
<feColorMatrix in="SourceAlpha" type="matrix" values="0 0 0 0 0 0 0 0 0 0 0 0 0 0 0 0 0 0 127 0" result="hardAlpha"/>
<feOffset dy="0.5"/>
<feGaussianBlur stdDeviation="0.5"/>
<feComposite in2="hardAlpha" operator="out"/>
<feColorMatrix type="matrix" values="0 0 0 0 0 0 0 0 0 0 0 0 0 0 0 0 0 0 0.199474 0"/>
<feBlend mode="normal" in2="BackgroundImageFix" result="effect1_dropShadow_3983_36720"/>
<feBlend mode="normal" in="SourceGraphic" in2="effect1_dropShadow_3983_36720" result="shape"/>
</filter>
<linearGradient id="BrandAlgorandIcon__paint0_linear_3983_36720" x1="12" y1="1" x2="12" y2="23" gradientUnits="userSpaceOnUse">
<stop stopColor="white" stopOpacity="0.5"/>
<stop offset="1" stopOpacity="0.5"/>
</linearGradient>
</defs>
</svg>