<svg viewBox="0 0 24 24" fill="none" xmlns="http://www.w3.org/2000/svg">
<mask id="BrandCoinbaseIcon__mask0_3983_36777" style={{ maskType: 'luminance' }} maskUnits="userSpaceOnUse" x="1" y="1">
<path d="M23 12C23 5.92487 18.0751 1 12 1C5.92487 1 1 5.92487 1 12C1 18.0751 5.92487 23 12 23C18.0751 23 23 18.0751 23 12Z" fill="white"/>
</mask>
<g mask="url(#BrandCoinbaseIcon__mask0_3983_36777)">
<path d="M1 6.07691C1 3.27302 3.27302 1 6.07691 1H17.9231C20.727 1 23 3.27302 23 6.07691V17.9231C23 20.727 20.727 23 17.9231 23H6.07691C3.27302 23 1 20.727 1 17.9231V6.07691Z" fill="#0052FF"/>
<path d="M11.9801 15.8955C11.2447 15.8807 10.5283 15.6589 9.91366 15.2559C9.29899 14.8528 8.81091 14.2847 8.50566 13.6171C8.20046 12.9495 8.09041 12.2095 8.18827 11.4823C8.28612 10.755 8.58789 10.0701 9.05878 9.50643C9.52972 8.94273 10.1507 8.52317 10.8501 8.29602C11.5496 8.06887 12.2991 8.04339 13.0125 8.22251C13.7259 8.40162 14.374 8.778 14.8823 9.30839C15.3907 9.83877 15.7385 10.5016 15.8857 11.2205H19.7913C19.591 9.23162 18.6319 7.39553 17.1125 6.09217C15.5931 4.78877 13.6296 4.11772 11.6282 4.21779C9.6267 4.31786 7.74038 5.1814 6.35929 6.62984C4.9782 8.07827 4.20801 10.0007 4.20801 11.9997C4.20801 13.9986 4.9782 15.9211 6.35929 17.3695C7.74038 18.8179 9.6267 19.6815 11.6282 19.7816C13.6296 19.8816 15.5931 19.2106 17.1125 17.9072C18.6319 16.6038 19.591 14.7677 19.7913 12.7788H15.8857C15.8857 14.3372 13.5423 15.8955 11.9801 15.8955Z" fill="white"/>
</g>
</svg>