<svg viewBox="0 0 24 24" fill="none" xmlns="http://www.w3.org/2000/svg">
<path d="M12.0001 1C5.92568 1 1 5.92482 1 12.0001C1 16.8602 4.15184 20.9836 8.52254 22.4381C9.07228 22.5399 9.27415 22.1994 9.27415 21.9089C9.27415 21.6466 9.26384 20.7801 9.2592 19.861C6.19896 20.5263 5.55323 18.563 5.55323 18.563C5.05281 17.2916 4.3318 16.9534 4.3318 16.9534C3.3338 16.2708 4.40708 16.2848 4.40708 16.2848C5.51163 16.3624 6.09326 17.4184 6.09326 17.4184C7.07441 19.1 8.66666 18.6138 9.29434 18.3327C9.39309 17.6219 9.67814 17.1365 9.99276 16.8618C7.54947 16.5837 4.98105 15.6405 4.98105 11.4256C4.98105 10.2246 5.41074 9.2433 6.1144 8.47295C6.00019 8.19589 5.6237 7.07716 6.22096 5.56191C6.22096 5.56191 7.1447 5.26628 9.24682 6.68949C10.1242 6.44577 11.0653 6.32357 12.0001 6.31936C12.9349 6.32357 13.8767 6.44569 14.7558 6.68949C16.8553 5.26637 17.7778 5.56199 17.7778 5.56199C18.3765 7.07707 17.9998 8.19598 17.8856 8.47295C18.5909 9.2433 19.0177 10.2246 19.0177 11.4256C19.0177 15.6505 16.4443 16.5808 13.9949 16.8532C14.3894 17.1945 14.741 17.8639 14.741 18.8902C14.741 20.362 14.7283 21.5465 14.7283 21.9089C14.7283 22.2016 14.9263 22.5446 15.4838 22.4365C19.8521 20.9805 23 16.8586 23 12.0002C23 5.92482 18.075 1 12.0001 1ZM5.11993 16.6698C5.0957 16.7245 5.00967 16.7409 4.93138 16.7034C4.85155 16.6675 4.80677 16.593 4.83255 16.5382C4.85627 16.4819 4.94247 16.4662 5.02205 16.5039C5.10197 16.5398 5.14752 16.615 5.11993 16.6698ZM5.66099 17.1526C5.60857 17.2013 5.50596 17.1787 5.43635 17.1019C5.36442 17.0252 5.35093 16.9226 5.40413 16.8733C5.45827 16.8246 5.5577 16.8474 5.6298 16.924C5.70181 17.0016 5.71573 17.1035 5.66099 17.1526ZM6.03224 17.7704C5.96478 17.8172 5.85461 17.7733 5.78646 17.6755C5.71909 17.5777 5.71909 17.4604 5.78792 17.4134C5.85624 17.3664 5.96478 17.4086 6.03379 17.5058C6.10099 17.6052 6.10099 17.7225 6.03216 17.7704L6.03224 17.7704ZM6.65993 18.4858C6.59969 18.5523 6.47121 18.5344 6.3772 18.4437C6.28103 18.355 6.2543 18.2292 6.31481 18.1627C6.37582 18.096 6.50498 18.1147 6.59969 18.2048C6.69508 18.2933 6.7243 18.42 6.65993 18.4858ZM7.47135 18.7273C7.44471 18.8135 7.32096 18.8527 7.19644 18.816C7.072 18.7783 6.99062 18.6774 7.01571 18.5904C7.04158 18.5036 7.16584 18.4628 7.29131 18.502C7.41558 18.5395 7.49722 18.6396 7.47135 18.7273ZM8.39466 18.8298C8.39776 18.9205 8.29214 18.9957 8.16134 18.9974C8.02986 19.0003 7.92338 18.9269 7.92192 18.8375C7.92192 18.746 8.02522 18.6715 8.15679 18.6693C8.28759 18.6667 8.39466 18.7396 8.39466 18.8298ZM9.30173 18.795C9.31738 18.8835 9.22654 18.9744 9.0966 18.9987C8.96898 19.022 8.85073 18.9673 8.83449 18.8796C8.81868 18.7888 8.91123 18.6979 9.03868 18.6744C9.16879 18.6518 9.28515 18.705 9.30173 18.795Z" fill="#24292F"/>
</svg>