<svg viewBox="0 0 24 24" fill="none" xmlns="http://www.w3.org/2000/svg">
<path d="M3.37626 14.6367C3.37626 15.4767 3.56068 16.1217 3.80165 16.5118C4.11764 17.0229 4.58884 17.2394 5.06931 17.2394C5.68901 17.2394 6.25594 17.0856 7.34838 15.5746C8.22365 14.3636 9.25498 12.6636 9.94884 11.5979L11.124 9.7923C11.9404 8.53839 12.8852 7.14448 13.9686 6.1996C14.8528 5.4284 15.8069 5 16.767 5C18.379 5 19.9144 5.93414 21.0896 7.68615C22.3757 9.60488 23 12.0217 23 14.5158C23 15.9985 22.7078 17.0879 22.2105 17.9486C21.73 18.781 20.7936 19.6126 19.2183 19.6126V17.2394C20.5671 17.2394 20.9037 16 20.9037 14.5816C20.9037 12.5604 20.4324 10.3171 19.3943 8.71439C18.6575 7.57744 17.7027 6.8828 16.6523 6.8828C15.5162 6.8828 14.6019 7.7396 13.5745 9.26757C13.0282 10.0792 12.4674 11.0685 11.8378 12.1846L11.1447 13.4126C9.75222 15.8814 9.39953 16.4437 8.70335 17.3717C7.48304 18.9968 6.44113 19.6126 5.06931 19.6126C3.44209 19.6126 2.41298 18.908 1.77576 17.8461C1.25549 16.9808 1 15.8455 1 14.5518L3.37626 14.6367Z" fill="#0081FB"/>
<path d="M2.87402 7.85364C3.96354 6.17442 5.53568 5 7.33891 5C8.3833 5 9.42143 5.30912 10.5055 6.19427C11.6913 7.16202 12.9552 8.75564 14.532 11.3821L15.0974 12.3246C16.4622 14.5984 17.2387 15.7681 17.6932 16.3199C18.2777 17.0282 18.687 17.2394 19.2187 17.2394C20.5675 17.2394 20.9041 16 20.9041 14.5816L23.0004 14.5158C23.0004 15.9985 22.7082 17.0879 22.2109 17.9486C21.7304 18.781 20.794 19.6126 19.2187 19.6126C18.2395 19.6126 17.3719 19.3999 16.4125 18.4949C15.675 17.8002 14.8128 16.5662 14.1495 15.4568L12.1763 12.1609C11.1864 10.5069 10.2782 9.27367 9.75272 8.71508C9.18742 8.11455 8.46056 7.38923 7.30075 7.38923C6.36205 7.38923 5.56481 8.04803 4.89768 9.05556L2.87402 7.85364Z" fill="url(#BrandMetaIcon__paint0_linear_3983_36742)"/>
<path d="M7.30025 7.38923C6.36155 7.38923 5.56431 8.04803 4.89718 9.05556C3.95393 10.4794 3.37626 12.6001 3.37626 14.6367C3.37626 15.4767 3.56068 16.1217 3.80165 16.5118L1.77576 17.8461C1.25549 16.9808 1 15.8455 1 14.5518C1 12.1992 1.64573 9.74719 2.87361 7.85364C3.96312 6.17442 5.53527 5 7.33849 5L7.30025 7.38923Z" fill="url(#BrandMetaIcon__paint1_linear_3983_36742)"/>
<defs>
<linearGradient id="BrandMetaIcon__paint0_linear_3983_36742" x1="282.188" y1="822.343" x2="1795.2" y2="898.76" gradientUnits="userSpaceOnUse">
<stop stopColor="#0064E1"/>
<stop offset="0.4" stopColor="#0064E1"/>
<stop offset="0.83" stopColor="#0073EE"/>
<stop offset="1" stopColor="#0082FB"/>
</linearGradient>
<linearGradient id="BrandMetaIcon__paint1_linear_3983_36742" x1="345.275" y1="1068.43" x2="345.275" y2="509.942" gradientUnits="userSpaceOnUse">
<stop stopColor="#0082FB"/>
<stop offset="1" stopColor="#0064E0"/>
</linearGradient>
</defs>
</svg>