<svg viewBox="0 0 24 24" fill="none" xmlns="http://www.w3.org/2000/svg">
<path d="M2.32098 1.94714L14.4701 1.04991C15.9624 0.921845 16.3458 1.0082 17.2841 1.69029L21.1623 4.42239C21.802 4.89219 22.0149 5.02033 22.0149 5.53191V20.5155C22.0149 21.4545 21.6738 22.0099 20.4802 22.0949L6.37194 22.9489C5.4761 22.9914 5.04948 22.8633 4.58034 22.2654L1.72452 18.5519C1.21228 17.8683 1 17.3567 1 16.7587V3.44019C1 2.67249 1.34108 2.03211 2.32098 1.94714Z" fill="white"/>
<path d="M14.4701 1.04991L2.32098 1.94714C1.34108 2.03211 1 2.67249 1 3.44019V16.7588C1 17.3567 1.2122 17.8683 1.72452 18.5519L4.58034 22.2654C5.04948 22.8633 5.4761 22.9914 6.37194 22.9489L20.4802 22.0949C21.6731 22.0099 22.0149 21.4545 22.0149 20.5155V5.53191C22.0149 5.04668 21.8232 4.90688 21.2589 4.49266L21.1616 4.42239L17.2841 1.69029C16.3458 1.0082 15.9625 0.921845 14.4701 1.04991ZM6.69102 5.28671C5.53906 5.36429 5.27777 5.38185 4.62351 4.84975L2.95997 3.52655C2.79087 3.35531 2.87575 3.14155 3.30171 3.09911L14.9809 2.24579C15.9616 2.16017 16.4725 2.50191 16.856 2.80055L18.8591 4.25189C18.9447 4.29499 19.1577 4.55045 18.9015 4.55045L6.84034 5.27645L6.69102 5.28671ZM5.34804 20.3874V7.66747C5.34804 7.11197 5.51854 6.85585 6.02938 6.81267L19.8822 6.00171C20.3521 5.95927 20.5644 6.25783 20.5644 6.81267V19.4477C20.5644 20.0032 20.4787 20.4729 19.7117 20.5155L6.45534 21.2839C5.68838 21.3264 5.34804 21.071 5.34804 20.3874ZM18.4339 8.34947C18.5188 8.73373 18.4339 9.11799 18.0497 9.16191L17.4108 9.28849V18.6799C16.856 18.9784 16.3452 19.149 15.9184 19.149C15.2364 19.149 15.0658 18.9352 14.555 18.2956L10.3768 11.722V18.0819L11.6984 18.3812C11.6984 18.3812 11.6984 19.1497 10.6321 19.1497L7.69219 19.3202C7.60657 19.149 7.69219 18.7223 7.99017 18.6374L8.75779 18.4244V10.0153L7.69227 9.92896C7.60657 9.54478 7.81951 8.98993 8.41679 8.94676L11.5712 8.73455L15.9185 15.3931V9.50234L14.8104 9.37494C14.7248 8.90432 15.0658 8.56258 15.4918 8.52087L18.4339 8.34955L18.4339 8.34947Z" fill="black"/>
</svg>