<svg viewBox="0 0 24 24" fill="none" xmlns="http://www.w3.org/2000/svg">
<path d="M19.3706 14.3121C19.3706 16.9325 16.1725 17.9974 12.2017 17.9974C8.23092 17.9974 4.98633 16.9325 4.98633 14.3121C4.98633 11.6917 8.20763 9.57129 12.1784 9.57129C16.1492 9.57129 19.3706 11.6963 19.3706 14.3121Z" fill="#24A95A"/>
<path d="M18.6406 8.60063C18.6406 7.22098 17.5141 6.10059 16.1269 6.10059C15.4056 6.10059 14.7554 6.40391 14.2972 6.88702C14.2262 6.96185 14.1225 6.99831 14.0214 6.9779C13.4409 6.8607 12.8269 6.79504 12.1934 6.79504C11.5599 6.79504 10.9459 6.85683 10.3655 6.97686C10.2643 6.99779 10.1601 6.96191 10.0887 6.88721C9.62685 6.40399 8.97702 6.10059 8.25983 6.10059C6.87261 6.10059 5.74609 7.22098 5.74609 8.60063C5.74609 9.00302 5.84129 9.37993 6.00895 9.71519C6.04911 9.79547 6.05315 9.88948 6.01842 9.97225C5.85575 10.3598 5.76937 10.7691 5.76937 11.1933C5.76937 13.6239 8.6462 15.5915 12.1934 15.5915C15.7406 15.5915 18.6174 13.6239 18.6174 11.1933C18.6174 10.7691 18.531 10.3598 18.3683 9.97225C18.3336 9.88948 18.3377 9.79547 18.3778 9.71519C18.5455 9.37993 18.6406 9.00302 18.6406 8.60063Z" fill="#32DA6D"/>
<path d="M8.05375 9.98725C8.90215 9.98725 9.58993 9.30323 9.58993 8.45945C9.58993 7.61566 8.90215 6.93164 8.05375 6.93164C7.20534 6.93164 6.51758 7.61566 6.51758 8.45945C6.51758 9.30323 7.20534 9.98725 8.05375 9.98725Z" fill="white"/>
<path d="M16.25 9.98725C17.0983 9.98725 17.7862 9.30323 17.7862 8.45945C17.7862 7.61566 17.0983 6.93164 16.25 6.93164C15.4016 6.93164 14.7139 7.61566 14.7139 8.45945C14.7139 9.30323 15.4016 9.98725 16.25 9.98725Z" fill="white"/>
<path d="M7.23909 17.8087C7.56961 17.8087 7.83029 17.5216 7.79305 17.1976C7.65806 16.0494 7.08547 13.5632 4.56708 12.0678C1.80639 10.4281 3.11982 14.7877 3.66881 16.376C3.77986 16.6973 3.65108 17.0541 3.35628 17.2233L3.17521 17.3272C2.94246 17.4615 3.04022 17.8087 3.30556 17.8087H7.23909Z" fill="#32DA6D"/>
<path d="M17.2433 17.8087C16.9454 17.8087 16.7126 17.5216 16.7452 17.1976C16.8616 16.054 17.383 13.5632 19.6547 12.0678C22.1701 10.4153 20.9458 14.8558 20.457 16.4125C20.3612 16.7178 20.4791 17.0504 20.7495 17.2216L20.9162 17.3272C21.1256 17.4615 21.0372 17.8087 20.7999 17.8087H17.2433Z" fill="#32DA6D"/>
<path d="M8.05607 9.37286C8.56219 9.37286 8.97249 8.96258 8.97249 8.45645C8.97249 7.95033 8.56219 7.54004 8.05607 7.54004C7.54995 7.54004 7.13965 7.95033 7.13965 8.45645C7.13965 8.96258 7.54995 9.37286 8.05607 9.37286Z" fill="#092511"/>
<path d="M16.2514 9.37286C16.7575 9.37286 17.1677 8.96258 17.1677 8.45645C17.1677 7.95033 16.7575 7.54004 16.2514 7.54004C15.7453 7.54004 15.335 7.95033 15.335 8.45645C15.335 8.96258 15.7453 9.37286 16.2514 9.37286Z" fill="#092511"/>
<path d="M14.2269 12.0026C14.4541 12.0222 14.6259 12.2238 14.5686 12.4445C14.5223 12.6229 14.4561 12.796 14.3709 12.9604C14.222 13.2473 14.0181 13.5021 13.7708 13.7102C13.5236 13.9183 13.2377 14.0757 12.9296 14.1733C12.6215 14.2709 12.2971 14.307 11.9751 14.2793C11.6531 14.2515 11.3397 14.1607 11.0528 14.0118C10.7659 13.863 10.5111 13.6591 10.3029 13.4118C10.0948 13.1646 9.93747 12.8787 9.83982 12.5706C9.76996 12.3501 9.73166 12.1214 9.72567 11.8911C9.72171 11.7391 9.85668 11.6267 10.0081 11.6397L12.1861 11.8271L14.2269 12.0026Z" fill="#092511"/>
</svg>