<svg viewBox="0 0 24 24" fill="none" xmlns="http://www.w3.org/2000/svg">
<path d="M21.7862 7.2656C21.7862 7.4372 21.7978 7.61045 21.784 7.78095C21.7676 7.9795 21.7389 8.17805 21.7021 8.37495C21.651 8.65415 21.5902 8.93152 21.5201 9.20655C21.4675 9.40944 21.4016 9.60862 21.3226 9.80275C21.1504 10.2246 20.9596 10.6377 20.7083 11.0183C20.5532 11.2531 20.3948 11.4852 20.2331 11.7146C20.1708 11.7982 20.1028 11.8774 20.0295 11.9516C19.9058 12.0825 19.7865 12.2173 19.6523 12.3339C19.4554 12.5107 19.2492 12.6768 19.0346 12.8316C18.8388 12.9691 18.6188 13.0687 18.4186 13.2023C18.1964 13.3497 17.9423 13.4135 17.7058 13.5252C17.4946 13.6242 17.2686 13.6572 17.0535 13.7342C16.7796 13.8332 16.492 13.8563 16.2115 13.9162C15.9123 13.9806 15.6081 14.0279 15.3078 14.0895C15.0609 14.139 14.8161 14.1984 14.5708 14.2534C14.4311 14.2842 14.2903 14.3073 14.155 14.3485C13.9878 14.3997 13.825 14.4662 13.6622 14.5267C13.5517 14.5663 13.4356 14.596 13.33 14.6472C13.176 14.7242 13.0308 14.8204 12.8774 14.9024C12.626 15.0355 12.4165 15.2241 12.2262 15.4304C12.0656 15.6064 11.9258 15.8049 11.7861 16.0002C11.5562 16.323 11.3979 16.6844 11.256 17.054C11.1163 17.4153 10.9881 17.7811 10.8572 18.1463C10.7357 18.49 10.6207 18.8349 10.497 19.1775C10.3886 19.4762 10.2731 19.771 10.1571 20.0658C9.98971 20.49 9.7835 20.8978 9.54105 21.284C9.359 21.5761 9.1643 21.861 8.91295 22.0969C8.71165 22.2856 8.51695 22.4841 8.26945 22.6161C8.02415 22.7481 7.77115 22.8625 7.49945 22.9225C7.17297 22.9914 6.83857 23.0153 6.5056 22.9934C6.37965 22.9868 6.25535 22.9522 6.1294 22.9291C6.05405 22.9148 5.9776 22.9032 5.90445 22.8801C5.84285 22.8609 5.7862 22.8268 5.72735 22.7971C5.56125 22.7162 5.38415 22.6519 5.23235 22.5507C5.04658 22.4209 4.87014 22.2783 4.70435 22.1239C4.39965 21.8533 4.17085 21.5172 3.96625 21.1669C3.82773 20.9323 3.70267 20.6901 3.5917 20.4414C3.4861 20.2016 3.4069 19.9503 3.3211 19.7017C3.25441 19.5082 3.19206 19.3133 3.1341 19.117C3.0835 18.9427 3.04335 18.7645 3.00045 18.5874C2.9603 18.4235 2.91795 18.2607 2.88385 18.0951C2.82225 17.8003 2.7656 17.505 2.70785 17.2102C2.68226 17.0857 2.65788 16.9611 2.6347 16.8362C2.6017 16.6492 2.572 16.4616 2.54065 16.2741C2.51645 16.1344 2.49005 15.9958 2.46915 15.8561C2.44495 15.7021 2.42515 15.5481 2.40095 15.3946C2.38115 15.2615 2.35805 15.129 2.33935 14.9959C2.32175 14.8716 2.30635 14.7473 2.2904 14.623C2.27246 14.4892 2.25523 14.3554 2.2387 14.2215C2.2222 14.0917 2.20845 13.9624 2.1936 13.8326C2.176 13.6826 2.1584 13.5327 2.1408 13.3827C2.13475 13.3288 2.12815 13.2766 2.1243 13.2227C2.1056 13.0021 2.0869 12.7805 2.0693 12.5583C2.0583 12.4208 2.0473 12.2827 2.0418 12.1458C2.03025 11.9313 2.0187 11.7184 2.0143 11.5045C2.0055 11.153 2.00055 10.8005 2 10.449C2 10.2411 2.0011 10.0338 2.01485 9.8275C2.02915 9.6119 2.05885 9.3963 2.08195 9.1807C2.10065 9.0091 2.11715 8.8386 2.1397 8.667C2.15235 8.57075 2.1749 8.4756 2.1947 8.381C2.2453 8.1434 2.2915 7.90635 2.34925 7.6704C2.39105 7.4999 2.4488 7.3349 2.49555 7.1666C2.5819 6.85255 2.7117 6.5561 2.8382 6.25745C2.8965 6.11995 2.968 5.98795 3.0406 5.8587C3.1429 5.67775 3.2419 5.4957 3.3574 5.3252C3.49985 5.1173 3.65055 4.916 3.81005 4.7213C3.9613 4.5365 4.1219 4.3583 4.2902 4.19055C4.4222 4.05855 4.5718 3.94415 4.7137 3.8248C4.8534 3.7082 4.98925 3.58665 5.1372 3.4816C5.3638 3.3188 5.59645 3.1648 5.83185 3.01465C5.9688 2.92775 6.11455 2.85295 6.25755 2.77595C6.4803 2.6555 6.70305 2.53395 6.92855 2.41955C7.07155 2.34805 7.2184 2.28535 7.36525 2.22485C7.7409 2.0725 8.11545 1.9185 8.4955 1.77605C8.7485 1.68255 9.0081 1.6094 9.26495 1.52745C9.39695 1.4851 9.5262 1.4389 9.6593 1.4015C9.7693 1.3707 9.8804 1.3542 9.9915 1.32835C10.1125 1.30085 10.2302 1.2629 10.3523 1.24035C10.5168 1.2079 10.684 1.18535 10.8512 1.1595C11.0382 1.1309 11.2246 1.10175 11.4122 1.0759C11.4886 1.06545 11.5678 1.0649 11.6459 1.0594C11.9044 1.0451 12.1651 1.0297 12.4236 1.01705C12.527 1.01155 12.6337 0.989001 12.7344 1.0066C12.978 1.0506 13.2233 1.01595 13.467 1.0341C13.7024 1.0506 13.9361 1.0759 14.1699 1.10395C14.3382 1.12485 14.5043 1.1606 14.6726 1.18645C14.82 1.20845 14.9668 1.2222 15.1137 1.2453C15.2319 1.26455 15.3502 1.28985 15.4684 1.3157C15.7214 1.37235 15.9739 1.4235 16.2241 1.49005C16.4463 1.55055 16.6624 1.6413 16.8863 1.69355C17.1442 1.7557 17.3808 1.87615 17.6294 1.957C17.8835 2.03895 18.1024 2.1902 18.3443 2.2914C18.6276 2.41075 18.8724 2.5917 19.1243 2.7633C19.3151 2.8942 19.501 3.0339 19.6742 3.1868C19.9311 3.4123 20.1803 3.6466 20.4201 3.8908C20.562 4.0338 20.6829 4.201 20.8122 4.3583C21.0212 4.6135 21.1741 4.90445 21.3226 5.19595C21.4409 5.42915 21.5387 5.67665 21.618 5.9269C21.684 6.13205 21.7038 6.3526 21.7527 6.5627C21.8066 6.7937 21.8055 7.0269 21.7929 7.2612L21.7862 7.2656Z" fill="black"/>
</svg>