<svg viewBox="0 0 24 24" fill="none" xmlns="http://www.w3.org/2000/svg">
<g clipPath="url(#BrandCustomAIIcon__clip0_4119_11232)">
<g filter="url(#BrandCustomAIIcon__filter0_dii_4119_11232)">
<path d="M22 12C22 17.5228 17.5228 22 12 22C6.47715 22 2 17.5228 2 12C2 6.47715 6.47715 2 12 2C17.5228 2 22 6.47715 22 12Z" fill="url(#BrandCustomAIIcon__paint0_linear_4119_11232)"/>
<path d="M22 12C22 17.5228 17.5228 22 12 22C6.47715 22 2 17.5228 2 12C2 6.47715 6.47715 2 12 2C17.5228 2 22 6.47715 22 12Z" fill="url(#BrandCustomAIIcon__paint1_linear_4119_11232)"/>
<path d="M12 2.125C17.4538 2.125 21.875 6.54619 21.875 12C21.875 17.4538 17.4538 21.875 12 21.875C6.54619 21.875 2.125 17.4538 2.125 12C2.125 6.54619 6.54619 2.125 12 2.125Z" stroke="black" strokeOpacity="0.1" strokeWidth="0.25"/>
</g>
<g filter="url(#BrandCustomAIIcon__filter1_f_4119_11232)">
<path d="M8.4158 6.50661C7.6467 4.08059 11.1971 4.02217 12.4394 6.86174C13.0676 8.29753 12.9471 10.3388 12.8121 12.3848C10.8815 10.1162 8.81905 7.7786 8.4158 6.50661Z" fill="url(#BrandCustomAIIcon__paint2_linear_4119_11232)"/>
</g>
<g filter="url(#BrandCustomAIIcon__filter2_f_4119_11232)">
<path d="M13.3658 18.9328C19.7 17.815 22.3707 12.3361 19.9739 8.8496C18.856 7.22352 17.1053 7.52541 13.3658 7.74935C9.62633 7.9733 5.90973 8.60135 5.90967 13.489C5.90961 18.3766 10.4554 19.4464 13.3658 18.9328Z" fill="url(#BrandCustomAIIcon__paint3_radial_4119_11232)"/>
<path d="M13.3658 18.9328C19.7 17.815 22.3707 12.3361 19.9739 8.8496C18.856 7.22352 17.1053 7.52541 13.3658 7.74935C9.62633 7.9733 5.90973 8.60135 5.90967 13.489C5.90961 18.3766 10.4554 19.4464 13.3658 18.9328Z" fill="url(#BrandCustomAIIcon__paint4_linear_4119_11232)"/>
</g>
<g style={{ mixBlendMode: 'hard-light' }} filter="url(#BrandCustomAIIcon__filter3_f_4119_11232)">
<path d="M7.7439 13.1936C7.74378 9.92435 8.75417 6.87486 9.26254 5.43114C9.47172 4.83709 10.2545 4.66796 10.7764 5.02047C11.6651 5.55633 13.4555 6.85814 15.2627 8.10615C17.1407 9.40303 19.8488 10.8368 18.6059 15.0884C17.6642 18.3097 13.0694 18.164 13.0694 18.164C13.0694 18.164 7.74406 18.0754 7.7439 13.1936Z" fill="url(#BrandCustomAIIcon__paint5_linear_4119_11232)"/>
</g>
<g filter="url(#BrandCustomAIIcon__filter4_f_4119_11232)">
<path d="M18.0204 18.0145C20.6239 15.7365 21.5278 10.9746 19.7822 8.0161C18.0366 5.05762 15.5496 4.36869 13.4804 4.46569C11.4112 4.56268 7.20822 5.85652 7.0307 10.5012C6.85318 15.1459 9.26879 17.116 11.7954 19.3357C12.7717 20.1934 15.4169 20.2925 18.0204 18.0145Z" fill="url(#BrandCustomAIIcon__paint6_linear_4119_11232)"/>
</g>
<g filter="url(#BrandCustomAIIcon__filter5_f_4119_11232)">
<path d="M8.97508 16.6031C9.12395 16.6911 9.25691 16.7767 9.35628 16.8657C10.6522 18.0262 12.6389 17.9031 14.7428 17.3529C16.9618 16.7726 20.5612 15.7268 21.1456 12.9573C21.4766 11.3884 20.2753 9.28085 18.6638 7.57085C17.196 6.01317 15.4052 4.78536 13.7829 4.59502C13.3765 4.54733 12.8805 4.54282 12.3482 4.61209C9.26662 5.24786 7.60313 6.9708 7.34905 10.4771C7.09497 13.9834 7.38175 14.6602 8.97508 16.6031Z" fill="url(#BrandCustomAIIcon__paint7_linear_4119_11232)" fillOpacity="0.78"/>
</g>
<g style={{ mixBlendMode: 'color-dodge' }} filter="url(#BrandCustomAIIcon__filter6_f_4119_11232)">
<path d="M4.54893 14.1882C4.06618 10.8344 5.4885 7.21875 8.74132 7.21875C11.3093 7.21875 12.7605 9.18199 14.7334 10.4716C17.1562 12.0553 19.0134 13.1474 19.0134 14.7516C19.0134 17.662 14.6742 19.2077 10.5354 17.5509C7.5155 16.3421 5.03168 17.5421 4.54893 14.1882Z" fill="url(#BrandCustomAIIcon__paint8_radial_4119_11232)" fillOpacity="0.8"/>
</g>
<g filter="url(#BrandCustomAIIcon__filter7_f_4119_11232)">
<path d="M7.49665 18.0061C8.56175 20.9351 11.2542 20.0175 10.8398 17.7101C10.6426 16.6125 8.99949 14.611 7.2479 12.5527C7.11592 14.5531 6.97011 16.558 7.49665 18.0061Z" fill="url(#BrandCustomAIIcon__paint9_radial_4119_11232)"/>
<path d="M7.49665 18.0061C8.56175 20.9351 11.2542 20.0175 10.8398 17.7101C10.6426 16.6125 8.99949 14.611 7.2479 12.5527C7.11592 14.5531 6.97011 16.558 7.49665 18.0061Z" fill="url(#BrandCustomAIIcon__paint10_linear_4119_11232)"/>
</g>
<g filter="url(#BrandCustomAIIcon__filter8_f_4119_11232)">
<path d="M9.04617 9.99931C9.27293 11.4717 8.86676 12.7561 8.13896 12.8682C7.41116 12.9803 6.63734 11.8776 6.41058 10.4052C6.18382 8.93285 6.59 7.64839 7.3178 7.53631C8.0456 7.42422 8.81942 8.52694 9.04617 9.99931Z" fill="white"/>
</g>
</g>
<defs>
<filter id="BrandCustomAIIcon__filter0_dii_4119_11232" x="0" y="1" filterUnits="userSpaceOnUse" colorInterpolationFilters="sRGB">
<feFlood floodOpacity="0" result="BackgroundImageFix"/>
<feColorMatrix in="SourceAlpha" type="matrix" values="0 0 0 0 0 0 0 0 0 0 0 0 0 0 0 0 0 0 127 0" result="hardAlpha"/>
<feOffset dy="1"/>
<feGaussianBlur stdDeviation="1"/>
<feComposite in2="hardAlpha" operator="out"/>
<feColorMatrix type="matrix" values="0 0 0 0 0 0 0 0 0 0 0 0 0 0 0 0 0 0 0.12 0"/>
<feBlend mode="normal" in2="BackgroundImageFix" result="effect1_dropShadow_4119_11232"/>
<feBlend mode="normal" in="SourceGraphic" in2="effect1_dropShadow_4119_11232" result="shape"/>
<feColorMatrix in="SourceAlpha" type="matrix" values="0 0 0 0 0 0 0 0 0 0 0 0 0 0 0 0 0 0 127 0" result="hardAlpha"/>
<feOffset dx="1" dy="1"/>
<feGaussianBlur stdDeviation="1"/>
<feComposite in2="hardAlpha" operator="arithmetic" k2="-1" k3="1"/>
<feColorMatrix type="matrix" values="0 0 0 0 1 0 0 0 0 1 0 0 0 0 1 0 0 0 0.6 0"/>
<feBlend mode="normal" in2="shape" result="effect2_innerShadow_4119_11232"/>
<feColorMatrix in="SourceAlpha" type="matrix" values="0 0 0 0 0 0 0 0 0 0 0 0 0 0 0 0 0 0 127 0" result="hardAlpha"/>
<feOffset dy="-0.25"/>
<feComposite in2="hardAlpha" operator="arithmetic" k2="-1" k3="1"/>
<feColorMatrix type="matrix" values="0 0 0 0 0 0 0 0 0 0 0 0 0 0 0 0 0 0 0.25 0"/>
<feBlend mode="normal" in2="effect2_innerShadow_4119_11232" result="effect3_innerShadow_4119_11232"/>
</filter>
<filter id="BrandCustomAIIcon__filter1_f_4119_11232" x="7.30786" y="3.70801" filterUnits="userSpaceOnUse" colorInterpolationFilters="sRGB">
<feFlood floodOpacity="0" result="BackgroundImageFix"/>
<feBlend mode="normal" in="SourceGraphic" in2="BackgroundImageFix" result="shape"/>
<feGaussianBlur stdDeviation="0.5" result="effect1_foregroundBlur_4119_11232"/>
</filter>
<filter id="BrandCustomAIIcon__filter2_f_4119_11232" x="4.90967" y="6.57031" filterUnits="userSpaceOnUse" colorInterpolationFilters="sRGB">
<feFlood floodOpacity="0" result="BackgroundImageFix"/>
<feBlend mode="normal" in="SourceGraphic" in2="BackgroundImageFix" result="shape"/>
<feGaussianBlur stdDeviation="0.5" result="effect1_foregroundBlur_4119_11232"/>
</filter>
<filter id="BrandCustomAIIcon__filter3_f_4119_11232" x="6.7439" y="3.83789" filterUnits="userSpaceOnUse" colorInterpolationFilters="sRGB">
<feFlood floodOpacity="0" result="BackgroundImageFix"/>
<feBlend mode="normal" in="SourceGraphic" in2="BackgroundImageFix" result="shape"/>
<feGaussianBlur stdDeviation="0.5" result="effect1_foregroundBlur_4119_11232"/>
</filter>
<filter id="BrandCustomAIIcon__filter4_f_4119_11232" x="6.02148" y="3.45703" filterUnits="userSpaceOnUse" colorInterpolationFilters="sRGB">
<feFlood floodOpacity="0" result="BackgroundImageFix"/>
<feBlend mode="normal" in="SourceGraphic" in2="BackgroundImageFix" result="shape"/>
<feGaussianBlur stdDeviation="0.5" result="effect1_foregroundBlur_4119_11232"/>
</filter>
<filter id="BrandCustomAIIcon__filter5_f_4119_11232" x="6.26758" y="3.55957" filterUnits="userSpaceOnUse" colorInterpolationFilters="sRGB">
<feFlood floodOpacity="0" result="BackgroundImageFix"/>
<feBlend mode="normal" in="SourceGraphic" in2="BackgroundImageFix" result="shape"/>
<feGaussianBlur stdDeviation="0.5" result="effect1_foregroundBlur_4119_11232"/>
</filter>
<filter id="BrandCustomAIIcon__filter6_f_4119_11232" x="3.45703" y="6.21875" filterUnits="userSpaceOnUse" colorInterpolationFilters="sRGB">
<feFlood floodOpacity="0" result="BackgroundImageFix"/>
<feBlend mode="normal" in="SourceGraphic" in2="BackgroundImageFix" result="shape"/>
<feGaussianBlur stdDeviation="0.5" result="effect1_foregroundBlur_4119_11232"/>
</filter>
<filter id="BrandCustomAIIcon__filter7_f_4119_11232" x="6.12378" y="11.5527" filterUnits="userSpaceOnUse" colorInterpolationFilters="sRGB">
<feFlood floodOpacity="0" result="BackgroundImageFix"/>
<feBlend mode="normal" in="SourceGraphic" in2="BackgroundImageFix" result="shape"/>
<feGaussianBlur stdDeviation="0.5" result="effect1_foregroundBlur_4119_11232"/>
</filter>
<filter id="BrandCustomAIIcon__filter8_f_4119_11232" x="5.34766" y="6.52832" filterUnits="userSpaceOnUse" colorInterpolationFilters="sRGB">
<feFlood floodOpacity="0" result="BackgroundImageFix"/>
<feBlend mode="normal" in="SourceGraphic" in2="BackgroundImageFix" result="shape"/>
<feGaussianBlur stdDeviation="0.5" result="effect1_foregroundBlur_4119_11232"/>
</filter>
<linearGradient id="BrandCustomAIIcon__paint0_linear_4119_11232" x1="12" y1="2" x2="12" y2="22" gradientUnits="userSpaceOnUse">
<stop offset="0.2" stopColor="#FF86B2"/>
<stop offset="0.8" stopColor="#FF8DA4"/>
</linearGradient>
<linearGradient id="BrandCustomAIIcon__paint1_linear_4119_11232" x1="5.83289" y1="11.9548" x2="17.5734" y2="16.3015" gradientUnits="userSpaceOnUse">
<stop stopColor="#67A9FF" stopOpacity="0.8"/>
<stop offset="1" stopColor="white" stopOpacity="0.1"/>
</linearGradient>
<linearGradient id="BrandCustomAIIcon__paint2_linear_4119_11232" x1="8.30786" y1="6.38834" x2="12.596" y2="5.67827" gradientUnits="userSpaceOnUse">
<stop stopColor="#E375A0"/>
<stop offset="1" stopColor="#E375A0" stopOpacity="0"/>
</linearGradient>
<radialGradient id="BrandCustomAIIcon__paint3_radial_4119_11232" cx="0" cy="0" r="1" gradientUnits="userSpaceOnUse" gradientTransform="translate(9.51906 9.28779) rotate(69.3339) scale(7.20949 8.68379)">
<stop stopColor="#B850C1"/>
<stop offset="1" stopColor="#DCADE0" stopOpacity="0"/>
</radialGradient>
<linearGradient id="BrandCustomAIIcon__paint4_linear_4119_11232" x1="13.8534" y1="7.55976" x2="13.7865" y2="9.80367" gradientUnits="userSpaceOnUse">
<stop stopColor="#B850C1"/>
<stop offset="1" stopColor="#DCADE0" stopOpacity="0"/>
</linearGradient>
<linearGradient id="BrandCustomAIIcon__paint5_linear_4119_11232" x1="8.86817" y1="14.732" x2="14.4303" y2="12.6018" gradientUnits="userSpaceOnUse">
<stop stopColor="#7EA1E4"/>
<stop offset="1" stopColor="#70CBFF" stopOpacity="0"/>
</linearGradient>
<linearGradient id="BrandCustomAIIcon__paint6_linear_4119_11232" x1="20.6538" y1="11.4181" x2="13.8535" y2="14.4828" gradientUnits="userSpaceOnUse">
<stop stopColor="#5BAEEC"/>
<stop offset="1" stopColor="#5BAEEC" stopOpacity="0"/>
</linearGradient>
<linearGradient id="BrandCustomAIIcon__paint7_linear_4119_11232" x1="9.4325" y1="10.696" x2="18.4523" y2="12.373" gradientUnits="userSpaceOnUse">
<stop stopColor="#85FAFE" stopOpacity="0"/>
<stop offset="1" stopColor="#FFF9FE"/>
</linearGradient>
<radialGradient id="BrandCustomAIIcon__paint8_radial_4119_11232" cx="0" cy="0" r="1" gradientUnits="userSpaceOnUse" gradientTransform="translate(8.32323 8.94112) rotate(84.3771) scale(6.60009 7.37153)">
<stop stopColor="#65ECE8"/>
<stop offset="1" stopColor="#8BECE9" stopOpacity="0"/>
</radialGradient>
<radialGradient id="BrandCustomAIIcon__paint9_radial_4119_11232" cx="0" cy="0" r="1" gradientUnits="userSpaceOnUse" gradientTransform="translate(7.91935 19.16) rotate(-68.2079) scale(4.14489 5.32156)">
<stop stopColor="#E375A0" stopOpacity="0"/>
<stop offset="1" stopColor="#FF91C6"/>
</radialGradient>
<linearGradient id="BrandCustomAIIcon__paint10_linear_4119_11232" x1="7.50515" y1="13.4204" x2="7.80101" y2="15.4322" gradientUnits="userSpaceOnUse">
<stop stopColor="white"/>
<stop offset="1" stopColor="white" stopOpacity="0"/>
</linearGradient>
<clipPath id="BrandCustomAIIcon__clip0_4119_11232">
<rect fill="white"/>
</clipPath>
</defs>
</svg>