<svg viewBox="0 0 24 24" fill="none" xmlns="http://www.w3.org/2000/svg">
<path d="M12 23C18.0774 23 23 18.074 23 12C23 5.92602 18.0774 1 12 1C5.92261 1 1 5.92602 1 12C1 18.074 5.92682 23 12 23Z" fill="#FF060A"/>
<path d="M18.189 10.0185C17.5852 9.45951 16.7464 8.60786 16.0671 8.00516L16.0251 7.97895C15.958 7.92654 15.8825 7.88287 15.8028 7.8523C14.159 7.54658 6.50989 6.11843 6.36312 6.1359C6.32118 6.14027 6.27924 6.15774 6.24569 6.17957L6.20796 6.21014C6.16183 6.25819 6.12408 6.31497 6.10312 6.38048L6.09473 6.40668V6.5508V6.57264C6.95441 8.96599 10.3554 16.8012 11.0264 18.6442C11.0683 18.7708 11.1438 19.0067 11.2864 19.0198H11.3199C11.3954 19.0198 11.7225 18.5874 11.7225 18.5874C11.7225 18.5874 17.5642 11.5209 18.1555 10.7697C18.2309 10.678 18.298 10.5776 18.3568 10.4728C18.3736 10.3898 18.3651 10.3068 18.3358 10.2282C18.3065 10.1496 18.252 10.0753 18.189 10.0185ZM13.2155 10.844L15.7064 8.78256L17.17 10.1277L13.2155 10.844ZM12.2467 10.7086L7.95668 7.19718L14.9013 8.47684L12.2467 10.7086ZM12.6325 11.6257L17.0232 10.9182L12.0035 16.9584L12.6325 11.6257ZM7.37378 7.55095L11.8903 11.3724L11.2361 16.9627L7.37378 7.55095Z" fill="white"/>
</svg>