<svg viewBox="0 0 24 24" fill="none" xmlns="http://www.w3.org/2000/svg">
<path d="M21.5919 8.3645C21.1296 7.25213 20.1919 6.0511 19.4575 5.67145C19.9812 6.68584 20.3447 7.77523 20.535 8.90088L20.5369 8.91873C19.3339 5.91959 17.294 4.71034 15.628 2.07715C15.5419 1.94292 15.4584 1.80711 15.3773 1.66977C15.3356 1.59805 15.2965 1.5248 15.2601 1.45019C15.191 1.31638 15.1377 1.17495 15.1014 1.02879C15.1014 1.02204 15.099 1.01551 15.0946 1.01044C15.0901 1.00537 15.0839 1.00212 15.0772 1.00131C15.0707 0.999564 15.0638 0.999564 15.0572 1.00131C15.0559 1.00131 15.0537 1.0038 15.052 1.00438C15.0503 1.00488 15.0468 1.00737 15.0444 1.00845L15.0484 1.00131C12.3761 2.56613 11.4692 5.46282 11.3858 6.91175C10.3186 6.9851 9.29822 7.37836 8.45781 8.04023C8.37012 7.96597 8.27847 7.89652 8.18327 7.83218C7.94086 6.98363 7.93054 6.08559 8.15338 5.2317C7.17196 5.70712 6.29991 6.38109 5.59241 7.21095H5.58743C5.16578 6.67648 5.19542 4.91407 5.21958 4.54588C5.09484 4.59605 4.97577 4.65927 4.86434 4.7345C4.49213 5.0002 4.14414 5.29829 3.82444 5.62529C3.4602 5.99464 3.12752 6.39383 2.82988 6.81869V6.82026V6.81836C2.14588 7.78814 1.66071 8.88379 1.40237 10.0421L1.38817 10.1123C1.34891 10.333 1.31403 10.5546 1.28357 10.7767C1.28357 10.7847 1.28191 10.7921 1.28108 10.8C1.18794 11.2841 1.13023 11.7743 1.1084 12.2667V12.3217C1.11554 20.5124 9.98677 25.6238 17.0766 21.5222C18.4259 20.7416 19.5872 19.6741 20.4783 18.3951C21.3695 17.1162 21.9688 15.657 22.2337 14.1209C22.2516 13.9836 22.2661 13.8477 22.282 13.7091C22.5012 11.8979 22.2639 10.0606 21.5919 8.3645ZM9.32909 16.6928C9.37882 16.7167 9.42548 16.7425 9.47653 16.7653L9.48392 16.77C9.43193 16.745 9.38031 16.7193 9.32909 16.6928ZM20.5377 8.92122V8.91101L20.5396 8.9223L20.5377 8.92122Z" fill="url(#BrandFirefoxIcon__paint0_linear_3983_36685)"/>
<path d="M21.5919 8.36492C21.1296 7.25255 20.1919 6.05152 19.4575 5.67188C19.9812 6.68626 20.3447 7.77566 20.535 8.90131V8.91144L20.5369 8.92273C21.3569 11.2694 21.2383 13.8423 20.2058 16.1036C18.9864 18.72 16.0348 21.4018 11.4146 21.2714C6.42252 21.13 2.02609 17.4257 1.2042 12.5738C1.0546 11.8087 1.2042 11.4208 1.27942 10.799C1.17679 11.282 1.11954 11.7735 1.1084 12.2671V12.3221C1.11554 20.5128 9.98677 25.6242 17.0766 21.5227C18.4259 20.7421 19.5872 19.6745 20.4783 18.3956C21.3695 17.1166 21.9688 15.6574 22.2337 14.1213C22.2516 13.9841 22.2661 13.8482 22.282 13.7095C22.5012 11.8983 22.2639 10.0611 21.5919 8.36492Z" fill="url(#BrandFirefoxIcon__paint1_radial_3983_36685)"/>
<path d="M21.5919 8.36492C21.1296 7.25255 20.1919 6.05152 19.4575 5.67188C19.9812 6.68626 20.3447 7.77566 20.535 8.90131V8.91144L20.5369 8.92273C21.3569 11.2694 21.2383 13.8423 20.2058 16.1036C18.9864 18.72 16.0348 21.4018 11.4146 21.2714C6.42252 21.13 2.02609 17.4257 1.2042 12.5738C1.0546 11.8087 1.2042 11.4208 1.27942 10.799C1.17679 11.282 1.11954 11.7735 1.1084 12.2671V12.3221C1.11554 20.5128 9.98677 25.6242 17.0766 21.5227C18.4259 20.7421 19.5872 19.6745 20.4783 18.3956C21.3695 17.1166 21.9688 15.6574 22.2337 14.1213C22.2516 13.9841 22.2661 13.8482 22.282 13.7095C22.5012 11.8983 22.2639 10.0611 21.5919 8.36492Z" fill="url(#BrandFirefoxIcon__paint2_radial_3983_36685)"/>
<path d="M16.4215 9.61582C16.4446 9.63201 16.466 9.6482 16.4877 9.66439C16.2204 9.19049 15.8877 8.7566 15.4994 8.37552C12.1926 5.06813 14.6328 1.20427 15.0443 1.00801L15.0484 1.00195C12.376 2.56678 11.4692 5.46347 11.3857 6.9124C11.5099 6.90385 11.6328 6.89339 11.7597 6.89339C12.7079 6.89514 13.6388 7.14797 14.4576 7.62615C15.2764 8.10434 15.954 8.79083 16.4215 9.61582Z" fill="url(#BrandFirefoxIcon__paint3_radial_3983_36685)"/>
<path d="M11.7659 10.2765C11.7483 10.5412 10.8133 11.4539 10.4863 11.4539C7.46087 11.4539 6.96973 13.2841 6.96973 13.2841C7.10372 14.8253 8.17765 16.0946 9.47582 16.7661C9.53509 16.7969 9.59528 16.8246 9.65539 16.8518C9.75827 16.8974 9.86245 16.94 9.96779 16.9797C10.4133 17.1374 10.8799 17.2274 11.3521 17.2468C16.655 17.4955 17.6823 10.9054 13.8555 8.9931C14.7582 8.87562 15.6725 9.0976 16.4208 9.61599C15.9534 8.791 15.2758 8.1045 14.4569 7.62632C13.6381 7.14813 12.7072 6.89531 11.759 6.89355C11.6327 6.89355 11.5092 6.90401 11.3851 6.91257C10.3179 6.98592 9.2975 7.37917 8.45709 8.04104C8.61931 8.17835 8.80245 8.36174 9.18816 8.74189C9.91009 9.45319 11.7617 10.19 11.7659 10.2765Z" fill="url(#BrandFirefoxIcon__paint4_radial_3983_36685)"/>
<path d="M11.7659 10.2765C11.7483 10.5412 10.8133 11.4539 10.4863 11.4539C7.46087 11.4539 6.96973 13.2841 6.96973 13.2841C7.10372 14.8253 8.17765 16.0946 9.47582 16.7661C9.53509 16.7969 9.59528 16.8246 9.65539 16.8518C9.75827 16.8974 9.86245 16.94 9.96779 16.9797C10.4133 17.1374 10.8799 17.2274 11.3521 17.2468C16.655 17.4955 17.6823 10.9054 13.8555 8.9931C14.7582 8.87562 15.6725 9.0976 16.4208 9.61599C15.9534 8.791 15.2758 8.1045 14.4569 7.62632C13.6381 7.14813 12.7072 6.89531 11.759 6.89355C11.6327 6.89355 11.5092 6.90401 11.3851 6.91257C10.3179 6.98592 9.2975 7.37917 8.45709 8.04104C8.61931 8.17835 8.80245 8.36174 9.18816 8.74189C9.91009 9.45319 11.7617 10.19 11.7659 10.2765Z" fill="url(#BrandFirefoxIcon__paint5_radial_3983_36685)"/>
<path d="M7.96119 7.68712C8.03533 7.73429 8.10854 7.78289 8.18078 7.83291C7.93834 6.98436 7.92801 6.08631 8.15089 5.23242C7.16946 5.70787 6.29739 6.38183 5.58984 7.21167C5.64173 7.21026 7.18513 7.18253 7.96119 7.68712Z" fill="url(#BrandFirefoxIcon__paint6_radial_3983_36685)"/>
<path d="M1.20496 12.5735C2.02602 17.4254 6.42328 21.1297 11.4154 21.2711C16.0355 21.4017 18.9871 18.7197 20.2066 16.1033C21.2391 13.842 21.3577 11.2692 20.5376 8.92243V8.9123C20.5376 8.90433 20.536 8.8996 20.5376 8.90209L20.5396 8.91994C20.917 11.3843 19.6635 13.7718 17.704 15.3862L17.698 15.4C13.88 18.5094 10.2261 17.276 9.48659 16.7725C9.43457 16.7477 9.38295 16.7219 9.33176 16.6954C7.10569 15.6313 6.18609 13.6032 6.38318 11.8639C5.85476 11.8717 5.33542 11.7261 4.88808 11.4447C4.44074 11.1633 4.0846 10.7582 3.86281 10.2785C4.44715 9.92055 5.11344 9.71817 5.79817 9.69069C6.4829 9.66321 7.16326 9.81154 7.77441 10.1216C9.03441 10.6935 10.4682 10.7499 11.7692 10.2785C11.7651 10.192 9.91347 9.45499 9.19146 8.74402C8.80575 8.36379 8.62269 8.18065 8.46048 8.04318C8.37281 7.96887 8.28116 7.89939 8.18593 7.83505C8.12276 7.79196 8.05169 7.7453 7.96635 7.68927C7.19029 7.18468 5.64688 7.21241 5.59583 7.21382H5.59093C5.16928 6.67934 5.19891 4.91693 5.22307 4.54883C5.09832 4.59892 4.97924 4.66212 4.86784 4.73736C4.49561 5.00304 4.14762 5.30113 3.82794 5.62816C3.46241 5.99649 3.12834 6.39477 2.82922 6.81881V6.82039V6.81848C2.14522 7.78827 1.66005 8.88391 1.40171 10.0422C1.39657 10.0639 1.0185 11.7164 1.20496 12.5735Z" fill="url(#BrandFirefoxIcon__paint7_radial_3983_36685)"/>
<path d="M15.4993 8.37488C15.8877 8.75642 16.2204 9.19078 16.4876 9.66516C16.5428 9.70621 16.596 9.74981 16.6471 9.79583C19.0593 12.0194 17.7954 15.1627 17.7012 15.3864C19.6607 13.7719 20.9131 11.3845 20.5368 8.92006C19.3332 5.91959 17.2933 4.71034 15.6273 2.07715C15.5412 1.94292 15.4577 1.80711 15.3766 1.66978C15.3349 1.59805 15.2958 1.5248 15.2594 1.45019C15.1903 1.31638 15.137 1.17495 15.1007 1.02879C15.1007 1.02204 15.0983 1.01551 15.0938 1.01044C15.0894 1.00537 15.0832 1.00212 15.0765 1.00131C15.07 0.999564 15.0631 0.999564 15.0565 1.00131C15.0552 1.00131 15.0529 1.0038 15.0513 1.00438C15.0496 1.00488 15.0461 1.00737 15.0436 1.00845C14.6321 1.20362 12.192 5.06749 15.4993 8.37488Z" fill="url(#BrandFirefoxIcon__paint8_radial_3983_36685)"/>
<path d="M16.6453 9.79476C16.5942 9.74876 16.541 9.70516 16.4858 9.66408C16.4641 9.6479 16.4427 9.63171 16.4196 9.61552C15.6713 9.09714 14.757 8.87516 13.8543 8.99263C17.681 10.906 16.6543 17.495 11.3509 17.2463C10.8787 17.2269 10.4121 17.1369 9.96658 16.9792C9.86118 16.9397 9.757 16.8971 9.65418 16.8513C9.59399 16.8238 9.53388 16.7964 9.47461 16.7656L9.482 16.7703C10.2215 17.2752 13.8743 18.5086 17.6934 15.3977L17.6995 15.384C17.7947 15.1616 19.0586 12.0176 16.6453 9.79476Z" fill="url(#BrandFirefoxIcon__paint9_radial_3983_36685)"/>
<path d="M6.96968 13.2833C6.96968 13.2833 7.46082 11.453 10.4863 11.453C10.8132 11.453 11.7491 10.5403 11.7658 10.2757C10.4648 10.747 9.03104 10.6906 7.77106 10.1186C7.15988 9.80861 6.4795 9.66031 5.79476 9.6878C5.11003 9.7153 4.44373 9.91768 3.85938 10.2757C4.08116 10.7553 4.4373 11.1604 4.88464 11.4418C5.33198 11.7232 5.85133 11.8688 6.37974 11.861C6.18266 13.6006 7.10226 15.6288 9.32833 16.6925C9.37805 16.7164 9.42471 16.7422 9.47577 16.765C8.17652 16.0938 7.10367 14.8244 6.96968 13.2833Z" fill="url(#BrandFirefoxIcon__paint10_radial_3983_36685)"/>
<path d="M21.5919 8.3645C21.1296 7.25213 20.1919 6.0511 19.4575 5.67145C19.9812 6.68584 20.3447 7.77523 20.535 8.90088L20.5369 8.91873C19.3339 5.91959 17.294 4.71034 15.628 2.07715C15.5419 1.94292 15.4584 1.80711 15.3773 1.66977C15.3356 1.59805 15.2965 1.5248 15.2601 1.45019C15.191 1.31638 15.1377 1.17495 15.1014 1.02879C15.1014 1.02204 15.099 1.01551 15.0946 1.01044C15.0901 1.00537 15.0839 1.00212 15.0772 1.00131C15.0707 0.999564 15.0638 0.999564 15.0572 1.00131C15.0559 1.00131 15.0537 1.0038 15.052 1.00438C15.0503 1.00488 15.0468 1.00737 15.0444 1.00845L15.0484 1.00131C12.3761 2.56613 11.4692 5.46282 11.3858 6.91175C11.5099 6.9032 11.6329 6.89274 11.7597 6.89274C12.708 6.8945 13.6388 7.14732 14.4576 7.6255C15.2765 8.10369 15.9541 8.79018 16.4216 9.61518C15.6732 9.09679 14.759 8.87481 13.8562 8.99229C17.683 10.9057 16.6563 17.4947 11.3528 17.2459C10.8806 17.2266 10.414 17.1366 9.9685 16.9789C9.86311 16.9394 9.75893 16.8967 9.65611 16.8509C9.596 16.8235 9.53581 16.7961 9.47653 16.7653L9.48392 16.77C9.43193 16.745 9.38031 16.7193 9.32909 16.6928C9.37882 16.7167 9.42548 16.7425 9.47653 16.7653C8.17729 16.0938 7.10444 14.8244 6.97044 13.2833C6.97044 13.2833 7.46158 11.453 10.487 11.453C10.814 11.453 11.7498 10.5403 11.7666 10.2757C11.7625 10.1892 9.91081 9.45213 9.18888 8.74107C8.80317 8.36093 8.62003 8.17779 8.45781 8.04023C8.37012 7.96597 8.27847 7.89652 8.18327 7.83218C7.94086 6.98363 7.93054 6.08559 8.15338 5.2317C7.17196 5.70712 6.29991 6.38109 5.59241 7.21095H5.58743C5.16578 6.67648 5.19542 4.91407 5.21958 4.54588C5.09484 4.59605 4.97577 4.65927 4.86434 4.7345C4.49213 5.0002 4.14414 5.29829 3.82444 5.62529C3.4602 5.99464 3.12752 6.39383 2.82988 6.81869V6.82026V6.81836C2.14588 7.78814 1.66071 8.88379 1.40237 10.0421L1.38817 10.1123C1.36808 10.2059 1.27834 10.6814 1.26539 10.7835C1.26539 10.7755 1.26539 10.7912 1.26539 10.7835C1.1833 11.2743 1.13088 11.7696 1.1084 12.2667V12.3217C1.11554 20.5124 9.98677 25.6238 17.0766 21.5222C18.4259 20.7416 19.5872 19.6741 20.4783 18.3951C21.3695 17.1162 21.9688 15.657 22.2337 14.1209C22.2516 13.9836 22.2661 13.8477 22.282 13.7091C22.5012 11.8979 22.2639 10.0606 21.5919 8.3645Z" fill="url(#BrandFirefoxIcon__paint11_linear_3983_36685)"/>
<defs>
<linearGradient id="BrandFirefoxIcon__paint0_linear_3983_36685" x1="20.1836" y1="4.40092" x2="2.52132" y2="21.4417" gradientUnits="userSpaceOnUse">
<stop offset="0.048" stopColor="#FFF44F"/>
<stop offset="0.111" stopColor="#FFE847"/>
<stop offset="0.225" stopColor="#FFC830"/>
<stop offset="0.368" stopColor="#FF980E"/>
<stop offset="0.401" stopColor="#FF8B16"/>
<stop offset="0.462" stopColor="#FF672A"/>
<stop offset="0.534" stopColor="#FF3647"/>
<stop offset="0.705" stopColor="#E31587"/>
</linearGradient>
<radialGradient id="BrandFirefoxIcon__paint1_radial_3983_36685" cx="0" cy="0" r="1" gradientUnits="userSpaceOnUse" gradientTransform="translate(19.3678 3.43704) scale(22.1803 22.1803)">
<stop offset="0.129" stopColor="#FFBD4F"/>
<stop offset="0.186" stopColor="#FFAC31"/>
<stop offset="0.247" stopColor="#FF9D17"/>
<stop offset="0.283" stopColor="#FF980E"/>
<stop offset="0.403" stopColor="#FF563B"/>
<stop offset="0.467" stopColor="#FF3750"/>
<stop offset="0.71" stopColor="#F5156C"/>
<stop offset="0.782" stopColor="#EB0878"/>
<stop offset="0.86" stopColor="#E50080"/>
</radialGradient>
<radialGradient id="BrandFirefoxIcon__paint2_radial_3983_36685" cx="0" cy="0" r="1" gradientUnits="userSpaceOnUse" gradientTransform="translate(11.2629 12.5049) scale(22.1803 22.1803)">
<stop offset="0.3" stopColor="#960E18"/>
<stop offset="0.351" stopColor="#B11927" stopOpacity="0.74"/>
<stop offset="0.435" stopColor="#DB293D" stopOpacity="0.343"/>
<stop offset="0.497" stopColor="#F5334B" stopOpacity="0.094"/>
<stop offset="0.53" stopColor="#FF3750" stopOpacity="0"/>
</radialGradient>
<radialGradient id="BrandFirefoxIcon__paint3_radial_3983_36685" cx="0" cy="0" r="1" gradientUnits="userSpaceOnUse" gradientTransform="translate(13.9369 -1.59631) scale(16.0687 16.0687)">
<stop offset="0.132" stopColor="#FFF44F"/>
<stop offset="0.252" stopColor="#FFDC3E"/>
<stop offset="0.506" stopColor="#FF9D12"/>
<stop offset="0.526" stopColor="#FF980E"/>
</radialGradient>
<radialGradient id="BrandFirefoxIcon__paint4_radial_3983_36685" cx="0" cy="0" r="1" gradientUnits="userSpaceOnUse" gradientTransform="translate(8.80882 18.299) scale(10.561)">
<stop offset="0.353" stopColor="#3A8EE6"/>
<stop offset="0.472" stopColor="#5C79F0"/>
<stop offset="0.669" stopColor="#9059FF"/>
<stop offset="1" stopColor="#C139E6"/>
</radialGradient>
<radialGradient id="BrandFirefoxIcon__paint5_radial_3983_36685" cx="0" cy="0" r="1" gradientTransform="matrix(5.44257 -1.31584 1.53982 6.37206 12.4776 10.6878)" gradientUnits="userSpaceOnUse">
<stop offset="0.206" stopColor="#9059FF" stopOpacity="0"/>
<stop offset="0.278" stopColor="#8C4FF3" stopOpacity="0.064"/>
<stop offset="0.747" stopColor="#7716A8" stopOpacity="0.45"/>
<stop offset="0.975" stopColor="#6E008B" stopOpacity="0.6"/>
</radialGradient>
<radialGradient id="BrandFirefoxIcon__paint6_radial_3983_36685" cx="0" cy="0" r="1" gradientUnits="userSpaceOnUse" gradientTransform="translate(10.9823 2.52978) scale(7.59757)">
<stop stopColor="#FFE226"/>
<stop offset="0.121" stopColor="#FFDB27"/>
<stop offset="0.295" stopColor="#FFC82A"/>
<stop offset="0.502" stopColor="#FFA930"/>
<stop offset="0.732" stopColor="#FF7E37"/>
<stop offset="0.792" stopColor="#FF7139"/>
</radialGradient>
<radialGradient id="BrandFirefoxIcon__paint7_radial_3983_36685" cx="0" cy="0" r="1" gradientUnits="userSpaceOnUse" gradientTransform="translate(16.9541 -2.28971) scale(32.4154)">
<stop offset="0.113" stopColor="#FFF44F"/>
<stop offset="0.456" stopColor="#FF980E"/>
<stop offset="0.622" stopColor="#FF5634"/>
<stop offset="0.716" stopColor="#FF3647"/>
<stop offset="0.904" stopColor="#E31587"/>
</radialGradient>
<radialGradient id="BrandFirefoxIcon__paint8_radial_3983_36685" cx="0" cy="0" r="1" gradientTransform="matrix(2.49326 23.6269 -15.5059 1.63843 14.2272 -0.488049)" gradientUnits="userSpaceOnUse">
<stop stopColor="#FFF44F"/>
<stop offset="0.06" stopColor="#FFE847"/>
<stop offset="0.168" stopColor="#FFC830"/>
<stop offset="0.304" stopColor="#FF980E"/>
<stop offset="0.356" stopColor="#FF8B16"/>
<stop offset="0.455" stopColor="#FF672A"/>
<stop offset="0.57" stopColor="#FF3647"/>
<stop offset="0.737" stopColor="#E31587"/>
</radialGradient>
<radialGradient id="BrandFirefoxIcon__paint9_radial_3983_36685" cx="0" cy="0" r="1" gradientUnits="userSpaceOnUse" gradientTransform="translate(10.8031 5.34348) scale(20.2375 20.2375)">
<stop offset="0.137" stopColor="#FFF44F"/>
<stop offset="0.48" stopColor="#FF980E"/>
<stop offset="0.592" stopColor="#FF5634"/>
<stop offset="0.655" stopColor="#FF3647"/>
<stop offset="0.904" stopColor="#E31587"/>
</radialGradient>
<radialGradient id="BrandFirefoxIcon__paint10_radial_3983_36685" cx="0" cy="0" r="1" gradientUnits="userSpaceOnUse" gradientTransform="translate(16.1453 6.52767) scale(22.1498 22.1498)">
<stop offset="0.094" stopColor="#FFF44F"/>
<stop offset="0.231" stopColor="#FFE141"/>
<stop offset="0.509" stopColor="#FFAF1E"/>
<stop offset="0.626" stopColor="#FF980E"/>
</radialGradient>
<linearGradient id="BrandFirefoxIcon__paint11_linear_3983_36685" x1="19.9714" y1="4.30978" x2="4.94258" y2="19.3383" gradientUnits="userSpaceOnUse">
<stop offset="0.167" stopColor="#FFF44F" stopOpacity="0.8"/>
<stop offset="0.266" stopColor="#FFF44F" stopOpacity="0.634"/>
<stop offset="0.489" stopColor="#FFF44F" stopOpacity="0.217"/>
<stop offset="0.6" stopColor="#FFF44F" stopOpacity="0"/>
</linearGradient>
</defs>
</svg>