<svg viewBox="0 0 24 24" fill="none" xmlns="http://www.w3.org/2000/svg">
<path d="M16.7231 6.76579C16.7231 9.39672 14.5899 11.5316 11.959 11.5316C9.32636 11.5316 7.19317 9.39838 7.19317 6.76579C7.19317 4.13319 9.32636 2 11.959 2C14.5899 2 16.7231 4.13319 16.7231 6.76579ZM5.76774 12.7222C3.1368 12.7222 1.00195 14.8554 1.00195 17.4863C1.00195 20.1173 3.13514 22.2521 5.76774 22.2521C8.40032 22.2521 10.5335 20.1189 10.5335 17.4863C10.5335 14.8554 8.40032 12.7222 5.76774 12.7222ZM18.1485 12.7222C15.5159 12.7222 13.3827 14.8554 13.3827 17.488C13.3827 20.1206 15.5159 22.2538 18.1485 22.2538C20.7795 22.2538 22.9143 20.1206 22.9143 17.488C22.9143 14.8554 20.7811 12.7222 18.1485 12.7222Z" fill="#F06A6A"/>
</svg>