<svg viewBox="0 0 24 24" fill="none" xmlns="http://www.w3.org/2000/svg">
<path d="M3.83709 1.07227C2.33183 1.07227 1.10156 2.30253 1.10156 3.80779V20.2354C1.10156 21.7407 2.33183 22.971 3.83709 22.971H20.2792C21.7845 22.971 23.0147 21.7407 23.0147 20.2354V3.82226C23.0147 2.317 21.7845 1.08674 20.2792 1.08674H3.83709V1.07227Z" fill="#E44332"/>
<path d="M5.74727 11.4497L14.5473 6.32599C14.7354 6.2102 14.7499 5.8773 14.5328 5.76151C14.3157 5.64572 13.9249 5.41414 13.7657 5.3273C13.5486 5.21151 13.3025 5.21151 13.0854 5.34177C12.9841 5.39967 5.9499 9.49572 5.70384 9.62598C5.42884 9.78519 5.067 9.78519 4.792 9.62598L1.07227 7.44046V9.29309C1.96963 9.82862 4.22753 11.1457 4.77753 11.4641C5.11042 11.6378 5.42884 11.6378 5.74727 11.4497ZM5.74727 14.9523L14.5473 9.82861C14.7354 9.71282 14.7499 9.37993 14.5328 9.26414C14.3157 9.14835 13.9249 8.91677 13.7657 8.82993C13.5486 8.71414 13.3025 8.71414 13.0854 8.84441C12.9841 8.9023 5.9499 12.9984 5.70384 13.1286C5.42884 13.2878 5.067 13.2878 4.792 13.1286L1.07227 10.9431V12.7957C1.96963 13.3312 4.22753 14.6484 4.77753 14.9668C5.11042 15.1405 5.42884 15.1405 5.74727 14.9523ZM5.74727 18.6865L14.5473 13.5628C14.7354 13.447 14.7499 13.1141 14.5328 12.9984C14.3157 12.8826 13.9249 12.651 13.7657 12.5641C13.5486 12.4484 13.3025 12.4484 13.0854 12.5786C12.9841 12.6365 5.9499 16.7326 5.70384 16.8628C5.42884 17.022 5.067 17.022 4.792 16.8628L1.07227 14.6773V16.5155C1.96963 17.051 4.22753 18.3681 4.77753 18.6865C5.11042 18.8602 5.42884 18.8602 5.74727 18.6865Z" fill="white"/>
</svg>