<svg viewBox="0 0 26 26" fill="none" xmlns="http://www.w3.org/2000/svg">
<g opacity="0.53" filter="url(#BrandSafariIcon__filter0_f_3983_36735)">
<path d="M23.6152 12.929C23.6152 14.2714 23.3407 15.6006 22.8072 16.8408C22.2737 18.0809 21.4918 19.2078 20.5061 20.157C19.5204 21.1062 18.3502 21.8591 17.0623 22.3728C15.7744 22.8865 14.394 23.1509 13 23.1509C11.606 23.1509 10.2256 22.8865 8.9377 22.3728C7.6498 21.8591 6.47958 21.1062 5.49386 20.157C4.50815 19.2078 3.72623 18.0809 3.19276 16.8408C2.6593 15.6006 2.38473 14.2714 2.38473 12.929C2.38473 10.218 3.50312 7.61803 5.49386 5.70106C7.48461 3.78409 10.1846 2.70715 13 2.70715C14.394 2.70715 15.7744 2.97154 17.0623 3.48524C18.3502 3.99894 19.5204 4.75187 20.5061 5.70106C21.4918 6.65025 22.2737 7.7771 22.8072 9.01727C23.3407 10.2574 23.6152 11.5867 23.6152 12.929Z" fill="black"/>
</g>
<path d="M24.0185 12.026C24.0185 13.4731 23.7335 14.906 23.1797 16.2429C22.6259 17.5798 21.8143 18.7946 20.791 19.8179C19.7678 20.8411 18.553 21.6528 17.2161 22.2066C15.8791 22.7603 14.4462 23.0454 12.9991 23.0454C10.0766 23.0454 7.27377 21.8844 5.20724 19.8179C3.1407 17.7513 1.97974 14.9485 1.97974 12.026C1.97974 9.10345 3.1407 6.30062 5.20724 4.23409C7.27377 2.16755 10.0766 1.00658 12.9991 1.00658C14.4462 1.00658 15.8791 1.2916 17.2161 1.84538C18.553 2.39916 19.7678 3.21084 20.791 4.23409C21.8143 5.25733 22.6259 6.4721 23.1797 7.80903C23.7335 9.14597 24.0185 10.5789 24.0185 12.026Z" fill="url(#BrandSafariIcon__paint0_linear_3983_36735)" stroke="#CDCDCD" strokeWidth="0.0930123" strokeLinecap="round" strokeLinejoin="round"/>
<path d="M23.1546 12.0265C23.1546 14.7201 22.0847 17.3033 20.18 19.2079C18.2754 21.1125 15.6922 22.1825 12.9987 22.1825C10.3052 22.1825 7.722 21.1125 5.8174 19.2079C3.91279 17.3033 2.8428 14.7201 2.8428 12.0265C2.8428 9.33303 3.91279 6.74983 5.8174 4.84522C7.722 2.94062 10.3052 1.87062 12.9987 1.87062C15.6922 1.87062 18.2754 2.94062 20.18 4.84522C22.0847 6.74983 23.1546 9.33303 23.1546 12.0265Z" fill="url(#BrandSafariIcon__paint1_radial_3983_36735)"/>
<path d="M12.9995 2.39947C12.9174 2.39947 12.8514 2.46551 12.8514 2.54754V4.25546C12.8514 4.3375 12.9174 4.40353 12.9995 4.40353C13.0815 4.40353 13.1475 4.3375 13.1475 4.25546V2.54754C13.1475 2.46551 13.0815 2.39947 12.9995 2.39947ZM12.0308 2.46069C12.021 2.45964 12.0109 2.45964 12.0007 2.46082C11.9191 2.46933 11.8603 2.54187 11.8688 2.62346L11.9434 3.33798C11.9519 3.41957 12.0245 3.4784 12.106 3.46988C12.1876 3.46136 12.2465 3.38883 12.2379 3.30724L12.1634 2.59272C12.1559 2.52133 12.0994 2.46736 12.0308 2.46069ZM13.9749 2.4614C13.9062 2.46801 13.8497 2.52198 13.8422 2.59336L13.7671 3.30782C13.7585 3.3894 13.8173 3.462 13.8989 3.47058C13.9805 3.47917 14.053 3.42039 14.0616 3.33881L14.1368 2.62429C14.1454 2.54271 14.0865 2.47016 14.0049 2.46159C13.9947 2.46053 13.9847 2.46052 13.9749 2.4614ZM11.0357 2.60499C11.0259 2.60507 11.0158 2.60605 11.0058 2.60816C10.9256 2.62515 10.8746 2.70345 10.8916 2.7837L11.2453 4.45456C11.2623 4.53482 11.3406 4.58575 11.4209 4.56876C11.5011 4.55177 11.5521 4.47353 11.5351 4.39328L11.1814 2.72236C11.1665 2.65213 11.1047 2.60445 11.0357 2.60499ZM14.9699 2.6064C14.9009 2.60569 14.8391 2.65352 14.8242 2.72373L14.4693 4.39439C14.4522 4.47463 14.5031 4.55295 14.5833 4.57C14.6636 4.58706 14.7419 4.53616 14.7589 4.45593L15.1139 2.78526C15.1309 2.70502 15.08 2.6267 14.9998 2.60965C14.9898 2.60754 14.9797 2.6064 14.9699 2.6064ZM10.0861 2.87275C10.0669 2.87099 10.0471 2.8731 10.0276 2.87958C9.9496 2.90494 9.90717 2.9881 9.93252 3.06611L10.1545 3.74939C10.1799 3.82741 10.2631 3.86983 10.3411 3.84448C10.4192 3.81912 10.4615 3.73589 10.4362 3.65788L10.2142 2.9746C10.1952 2.91609 10.1436 2.87764 10.0861 2.87275ZM15.9142 2.8731C15.8566 2.87799 15.8051 2.91646 15.7861 2.97497L15.564 3.65818C15.5386 3.73619 15.581 3.81942 15.659 3.84478C15.737 3.87014 15.8202 3.82775 15.8456 3.74975L16.0677 3.06648C16.0931 2.98846 16.0507 2.90524 15.9727 2.87988C15.9532 2.87355 15.9333 2.87148 15.9142 2.8731ZM9.147 3.2164C9.12776 3.21675 9.10829 3.22097 9.08955 3.22931C9.01463 3.26262 8.98108 3.34977 9.0144 3.42473L9.70809 4.98542C9.7414 5.06038 9.82855 5.09389 9.90351 5.06057C9.97843 5.02726 10.012 4.94011 9.97873 4.86515L9.28497 3.30446C9.26 3.24824 9.20471 3.21528 9.147 3.2164ZM16.8638 3.22164C16.8061 3.22059 16.7508 3.25334 16.7258 3.30951L16.0299 4.86924C15.9965 4.94416 16.0299 5.03137 16.1049 5.06479C16.1798 5.09821 16.267 5.06481 16.3004 4.98989L16.9962 3.43017C17.0296 3.35525 16.9962 3.26804 16.9213 3.23461C16.9026 3.22628 16.8831 3.22206 16.8638 3.22164ZM8.27534 3.6776C8.24691 3.67549 8.21763 3.68183 8.19099 3.69723C8.11994 3.73825 8.09578 3.82845 8.13679 3.89949L8.49601 4.52167C8.53702 4.59272 8.62722 4.61688 8.69826 4.57586C8.7693 4.53485 8.79347 4.44465 8.75246 4.3736L8.39324 3.75143C8.3676 3.70702 8.32272 3.68092 8.27534 3.6776ZM17.7236 3.6776C17.6762 3.68077 17.6314 3.70701 17.6057 3.75142L17.2464 4.37359C17.2054 4.44464 17.2297 4.53484 17.3007 4.57585C17.3717 4.61687 17.4619 4.5927 17.503 4.52166L17.8622 3.89948C17.9032 3.82844 17.879 3.73824 17.808 3.69722C17.7814 3.68185 17.752 3.67563 17.7236 3.6776ZM7.42892 4.20552C7.40043 4.20658 7.37189 4.21572 7.34699 4.23377C7.28059 4.28194 7.26591 4.37417 7.3141 4.44057L8.31696 5.82302C8.36513 5.88942 8.45742 5.9041 8.52382 5.85595C8.59022 5.80778 8.6049 5.71555 8.55671 5.64915L7.55379 4.2667C7.52368 4.22519 7.47638 4.2039 7.42892 4.20552ZM18.5806 4.21305C18.5331 4.21129 18.4858 4.23257 18.4557 4.27402L17.4509 5.65513C17.4026 5.72146 17.4172 5.81373 17.4835 5.86199C17.5499 5.91025 17.6421 5.89573 17.6904 5.82942L18.6951 4.4483C18.7434 4.38196 18.7288 4.2897 18.6625 4.24144C18.6376 4.22336 18.6091 4.21407 18.5806 4.21305ZM6.67234 4.84002C6.63455 4.83791 6.59598 4.85054 6.5655 4.87798C6.50453 4.93286 6.49963 5.02611 6.55452 5.08708L7.03521 5.62107C7.09009 5.68204 7.18334 5.68694 7.24431 5.63204C7.30528 5.57716 7.31019 5.48385 7.25529 5.42288L6.77466 4.88896C6.74722 4.85846 6.71015 4.84201 6.67234 4.84002ZM19.3276 4.84108C19.2898 4.84319 19.2528 4.85954 19.2253 4.89003L18.7446 5.42389C18.6897 5.48485 18.6946 5.57816 18.7556 5.63305C18.8165 5.68794 18.9098 5.68302 18.9647 5.62207L19.4454 5.08821C19.5003 5.02725 19.4954 4.93394 19.4345 4.87905C19.404 4.85161 19.3654 4.8391 19.3276 4.84108ZM5.94722 5.53655C5.90942 5.53866 5.87241 5.55502 5.84497 5.5855C5.79008 5.64647 5.79499 5.73972 5.85594 5.7946L7.12529 6.93728C7.18626 6.99217 7.2795 6.98726 7.33438 6.92631C7.38927 6.86534 7.38443 6.77209 7.32344 6.71721L6.05404 5.57453C6.02354 5.54709 5.98502 5.53456 5.94722 5.53655ZM20.0563 5.54155C20.0185 5.53944 19.9799 5.55203 19.9494 5.57944L18.6793 6.72123C18.6183 6.77607 18.6132 6.86932 18.6681 6.93033C18.7229 6.99133 18.8162 6.99629 18.8772 6.94145L20.1474 5.79966C20.2084 5.74482 20.2134 5.65157 20.1585 5.59056C20.1311 5.56006 20.0941 5.54356 20.0563 5.54155ZM5.34421 6.31192C5.29674 6.31017 5.24941 6.33155 5.21928 6.37302C5.17106 6.43938 5.18568 6.5316 5.25206 6.57981L5.83328 7.0021C5.89964 7.05032 5.99186 7.03576 6.04007 6.96938C6.08829 6.90302 6.0737 6.81074 6.00736 6.76252L5.42614 6.34024C5.40127 6.32216 5.37269 6.31295 5.34421 6.31192ZM20.6587 6.31731C20.6302 6.31836 20.6017 6.32747 20.5768 6.34555L19.9953 6.76746C19.9289 6.81563 19.9142 6.90792 19.9624 6.97432C20.0106 7.04072 20.1028 7.05534 20.1692 7.00717L20.7507 6.58527C20.8171 6.5371 20.8317 6.44487 20.7836 6.37848C20.7535 6.33698 20.7062 6.31568 20.6587 6.31731ZM4.7807 7.139C4.73332 7.14216 4.68849 7.16841 4.66286 7.21281C4.62184 7.28385 4.64601 7.37405 4.71705 7.41507L6.19613 8.26903C6.26717 8.31004 6.35737 8.28588 6.39839 8.21484C6.4394 8.1438 6.41524 8.05359 6.3442 8.01258L4.86512 7.15861C4.83849 7.14324 4.80912 7.13703 4.7807 7.139ZM21.2182 7.139C21.1898 7.13689 21.1604 7.14322 21.1338 7.15863L19.6547 8.01259C19.5837 8.05361 19.5595 8.14381 19.6005 8.21485C19.6415 8.28589 19.7317 8.31006 19.8028 8.26904L21.2819 7.41508C21.353 7.37406 21.3771 7.28386 21.3361 7.21282C21.3105 7.16842 21.2656 7.14231 21.2182 7.139ZM4.35464 8.02057C4.29694 8.01916 4.24161 8.05219 4.21654 8.10837C4.18312 8.18329 4.21652 8.2705 4.29144 8.30392L4.94761 8.5966C5.02253 8.63002 5.10975 8.59663 5.14316 8.52171C5.17658 8.44679 5.14312 8.35957 5.06821 8.32616L4.41209 8.03348C4.39338 8.0251 4.37387 8.02095 4.35464 8.02057ZM21.6471 8.02665C21.6279 8.027 21.6084 8.03122 21.5896 8.03956L20.9333 8.33173C20.8584 8.36512 20.8249 8.45228 20.8582 8.52722C20.8916 8.60216 20.9788 8.63567 21.0538 8.60231L21.7101 8.31007C21.785 8.27672 21.8185 8.18953 21.7851 8.11458C21.7601 8.05838 21.7048 8.0255 21.6471 8.02665ZM3.97492 8.94196C3.91741 8.94678 3.86585 8.9852 3.84679 9.0437C3.82139 9.1217 3.86367 9.20495 3.94169 9.23037L5.56558 9.7595C5.64357 9.7849 5.72683 9.74258 5.75224 9.6646C5.77764 9.5866 5.73536 9.50335 5.65735 9.47793L4.03346 8.9488C4.01397 8.94243 3.99409 8.94035 3.97492 8.94196ZM22.0262 8.9483C22.007 8.94654 21.9872 8.94865 21.9677 8.95512L20.3434 9.48311C20.2654 9.50847 20.223 9.59169 20.2484 9.66971C20.2737 9.74772 20.357 9.7901 20.435 9.76474L22.0592 9.23675C22.1372 9.21139 22.1796 9.12816 22.1543 9.05015C22.1353 8.99164 22.0837 8.95318 22.0262 8.9483ZM3.73834 9.90917C3.66936 9.90847 3.6075 9.95635 3.59258 10.0266C3.57551 10.1068 3.62642 10.1851 3.70665 10.2022L4.40941 10.3515C4.48965 10.3686 4.56796 10.3177 4.58502 10.2375C4.60208 10.1572 4.55118 10.0789 4.47095 10.0618L3.76825 9.9125C3.75822 9.91038 3.74819 9.90917 3.73834 9.90917ZM22.2609 9.91058C22.251 9.91066 22.2411 9.91199 22.2311 9.91375L21.5283 10.063C21.448 10.0801 21.3972 10.1583 21.4142 10.2386C21.4313 10.3188 21.5096 10.3698 21.5898 10.3527L22.2925 10.2034C22.3728 10.1864 22.4237 10.1081 22.4067 10.0278C22.3917 9.95761 22.3299 9.91 22.2609 9.91058ZM3.55928 10.8821C3.49061 10.8886 3.43409 10.9425 3.42655 11.0139C3.41793 11.0955 3.47662 11.1681 3.55819 11.1767L5.25666 11.3563C5.33824 11.3649 5.41087 11.3062 5.41949 11.2246C5.42811 11.143 5.36936 11.0704 5.28778 11.0618L3.58932 10.8822C3.57912 10.8811 3.56909 10.8811 3.55928 10.8821ZM22.4412 10.8948C22.4314 10.8938 22.4213 10.8938 22.4111 10.895L20.7124 11.0722C20.6309 11.0807 20.572 11.1533 20.5805 11.2349C20.5891 11.3165 20.6616 11.3753 20.7432 11.3668L22.4418 11.1895C22.5234 11.181 22.5823 11.1084 22.5737 11.0269C22.5663 10.9555 22.5099 10.9015 22.4412 10.8948ZM3.53052 11.8779C3.44849 11.8779 3.38246 11.944 3.38246 12.026C3.38246 12.108 3.44849 12.1741 3.53052 12.1741H4.24894C4.33097 12.1741 4.39708 12.108 4.39708 12.026C4.39708 11.944 4.33097 11.8779 4.24894 11.8779H3.53052ZM21.75 11.8779C21.6679 11.8779 21.6019 11.944 21.6019 12.026C21.6019 12.108 21.6679 12.1741 21.75 12.1741H22.4684C22.5504 12.1741 22.6164 12.108 22.6164 12.026C22.6164 11.944 22.5504 11.8779 22.4684 11.8779H21.75ZM5.2858 12.6851C5.27599 12.6841 5.26596 12.6841 5.25576 12.6853L3.55704 12.8625C3.47545 12.871 3.41663 12.9436 3.42514 13.0252C3.43365 13.1068 3.50619 13.1656 3.58777 13.1571L5.2865 12.9798C5.36809 12.9713 5.4269 12.8987 5.4184 12.8172C5.41094 12.7458 5.35446 12.6918 5.2858 12.6851ZM20.7122 12.6956C20.6435 12.7022 20.587 12.7561 20.5795 12.8275C20.5709 12.909 20.6295 12.9817 20.7111 12.9903L22.4096 13.1699C22.4912 13.1785 22.5638 13.1197 22.5724 13.0381C22.581 12.9566 22.5223 12.8839 22.4407 12.8753L20.7423 12.6957C20.7321 12.6947 20.722 12.6947 20.7122 12.6956ZM4.43906 13.6959C4.42921 13.696 4.41919 13.697 4.40916 13.6991L3.7064 13.8484C3.62615 13.8654 3.57529 13.9437 3.59233 14.024C3.60939 14.1042 3.6877 14.1551 3.76794 14.1381L4.4707 13.9888C4.55094 13.9718 4.60181 13.8935 4.58477 13.8132C4.56985 13.743 4.50804 13.6953 4.43906 13.6959ZM21.5596 13.6973C21.4907 13.6966 21.4289 13.7444 21.4139 13.8147C21.3969 13.8949 21.4477 13.9732 21.528 13.9903L22.2307 14.1396C22.311 14.1567 22.3893 14.1058 22.4063 14.0256C22.4234 13.9454 22.3725 13.867 22.2923 13.8499L21.5896 13.7006C21.5795 13.6985 21.5695 13.6973 21.5596 13.6973ZM5.62245 14.2805C5.60328 14.2788 5.58348 14.2809 5.56398 14.2873L3.93971 14.8153C3.86169 14.8407 3.81932 14.9239 3.84468 15.0019C3.87004 15.08 3.95327 15.1223 4.03128 15.097L5.65549 14.569C5.73351 14.5436 5.77594 14.4604 5.75058 14.3824C5.73155 14.3239 5.67996 14.2854 5.62245 14.2805ZM20.3749 14.2858C20.3173 14.2906 20.2658 14.329 20.2467 14.3875C20.2213 14.4655 20.2636 14.5488 20.3416 14.5742L21.9655 15.1033C22.0435 15.1287 22.1268 15.0864 22.1522 15.0084C22.1776 14.9304 22.1353 14.8472 22.0573 14.8217L20.4334 14.2926C20.4139 14.2862 20.394 14.2841 20.3749 14.2858ZM5.00264 15.437C4.9834 15.4373 4.96392 15.4415 4.94519 15.4498L4.28882 15.742C4.21388 15.7754 4.18043 15.8626 4.21379 15.9375C4.24718 16.0125 4.33434 16.0459 4.40928 16.0125L5.06565 15.7204C5.14059 15.687 5.17404 15.5998 5.14067 15.5249C5.11566 15.4687 5.06034 15.4358 5.00264 15.437ZM20.9939 15.4426C20.9362 15.4412 20.8809 15.4742 20.8558 15.5304C20.8224 15.6053 20.8558 15.6925 20.9307 15.7259L21.5868 16.0186C21.6617 16.052 21.7489 16.0186 21.7824 15.9437C21.8158 15.8688 21.7824 15.7816 21.7075 15.7482L21.0514 15.4555C21.0326 15.4471 21.0131 15.443 20.9939 15.4426ZM6.28055 15.7634C6.25212 15.7613 6.22277 15.7677 6.19613 15.7831L4.71705 16.637C4.64601 16.6781 4.62184 16.7683 4.66286 16.8393C4.70387 16.9103 4.79407 16.9345 4.86512 16.8935L6.3442 16.0396C6.41524 15.9986 6.4394 15.9083 6.39839 15.8373C6.37274 15.7929 6.32793 15.7668 6.28055 15.7634ZM19.7184 15.7634C19.671 15.7666 19.6262 15.7929 19.6005 15.8373C19.5595 15.9083 19.5837 15.9986 19.6547 16.0396L21.1338 16.8935C21.2048 16.9345 21.2951 16.9103 21.3361 16.8393C21.3771 16.7682 21.353 16.678 21.2819 16.637L19.8028 15.7831C19.7761 15.7677 19.7468 15.7615 19.7184 15.7634ZM5.91162 17.0166C5.88313 17.0177 5.8546 17.0269 5.82969 17.0449L5.24823 17.4668C5.18183 17.515 5.16714 17.6072 5.2153 17.6736C5.26348 17.74 5.3557 17.7547 5.4221 17.7065L6.00363 17.2846C6.07003 17.2365 6.08472 17.1442 6.03656 17.0778C6.00644 17.0363 5.95909 17.015 5.91162 17.0166ZM20.0838 17.0216C20.0363 17.0199 19.989 17.0412 19.9588 17.0827C19.9106 17.1491 19.9252 17.2414 19.9916 17.2896L20.5728 17.7119C20.6392 17.7601 20.7314 17.7454 20.7796 17.6791C20.8278 17.6127 20.8133 17.5205 20.7469 17.4723L20.1657 17.05C20.1408 17.0319 20.1122 17.0226 20.0838 17.0216ZM7.22857 17.0727C7.19078 17.0706 7.15223 17.0832 7.12173 17.1106L5.85155 18.2524C5.79055 18.3073 5.78559 18.4005 5.84044 18.4615C5.89528 18.5225 5.98852 18.5275 6.04953 18.4726L7.31971 17.3309C7.38071 17.276 7.38567 17.1828 7.33082 17.1218C7.30342 17.0913 7.26637 17.0748 7.22857 17.0727ZM18.7668 17.0768C18.729 17.0789 18.6919 17.0953 18.6645 17.1258C18.6096 17.1867 18.6145 17.28 18.6755 17.3349L19.9448 18.4776C20.0058 18.5324 20.0991 18.5275 20.154 18.4666C20.2089 18.4056 20.204 18.3124 20.143 18.2575L18.8736 17.1148C18.8431 17.0874 18.8046 17.0748 18.7668 17.0768ZM8.43357 18.1615C8.3861 18.1598 8.33873 18.181 8.30857 18.2225L7.30386 19.6036C7.2556 19.67 7.27012 19.7622 7.33643 19.8105C7.40277 19.8587 7.49504 19.8442 7.54329 19.7779L8.548 18.3968C8.59626 18.3304 8.58174 18.2382 8.51543 18.1899C8.49056 18.1718 8.46205 18.1625 8.43357 18.1615ZM17.5571 18.1677C17.5286 18.1688 17.5001 18.1779 17.4752 18.196C17.4088 18.2442 17.3941 18.3364 17.4422 18.4028L18.4451 19.7852C18.4933 19.8516 18.5855 19.8663 18.6519 19.8182C18.7183 19.77 18.733 19.6778 18.6848 19.6114L17.682 18.2289C17.6518 18.1874 17.6046 18.1661 17.5571 18.1677ZM7.13655 18.3811C7.09875 18.3832 7.06169 18.3995 7.03424 18.43L6.55355 18.9639C6.49865 19.0248 6.50351 19.1181 6.56449 19.173C6.62545 19.2279 6.71869 19.223 6.77358 19.162L7.25434 18.6282C7.30924 18.5672 7.30431 18.4739 7.24336 18.419C7.21286 18.3916 7.17435 18.3791 7.13655 18.3811ZM18.8615 18.3818C18.8237 18.3796 18.7852 18.3923 18.7547 18.4197C18.6937 18.4746 18.6888 18.5678 18.7437 18.6288L19.2243 19.1628C19.2792 19.2238 19.3724 19.2287 19.4334 19.1738C19.4944 19.1189 19.4993 19.0256 19.4444 18.9646L18.9637 18.4307C18.9363 18.4002 18.8993 18.3837 18.8615 18.3818ZM9.8366 18.974C9.7789 18.9726 9.72363 19.0056 9.69857 19.0618L9.0027 20.6216C8.96929 20.6965 9.00269 20.7837 9.0776 20.8171C9.15252 20.8505 9.23973 20.8171 9.27315 20.7422L9.96901 19.1825C10.0024 19.1076 9.96903 19.0204 9.89411 18.9869C9.8754 18.9786 9.85584 18.9744 9.8366 18.974ZM16.1529 18.9783C16.1337 18.9787 16.1141 18.9828 16.0954 18.9912C16.0205 19.0245 15.9869 19.1116 16.0202 19.1866L16.7139 20.7473C16.7472 20.8222 16.8345 20.8557 16.9094 20.8224C16.9843 20.7891 17.0179 20.702 16.9846 20.627L16.2909 19.0663C16.2659 19.0101 16.2106 18.9772 16.1529 18.9783ZM8.61384 19.4563C8.56647 19.4594 8.52164 19.4857 8.49601 19.5301L8.13679 20.1522C8.09578 20.2233 8.11994 20.3135 8.19099 20.3545C8.26203 20.3955 8.35223 20.3714 8.39324 20.3003L8.75246 19.6781C8.79347 19.6071 8.76931 19.5169 8.69826 19.4759C8.67163 19.4605 8.64227 19.4543 8.61384 19.4563ZM17.3851 19.4563C17.3566 19.4542 17.3273 19.4605 17.3007 19.4759C17.2297 19.5169 17.2055 19.6071 17.2465 19.6781L17.6057 20.3003C17.6467 20.3714 17.7369 20.3955 17.808 20.3545C17.879 20.3135 17.9032 20.2233 17.8622 20.1523L17.503 19.5301C17.4773 19.4857 17.4324 19.4596 17.3851 19.4563ZM11.3857 19.4786C11.3167 19.4779 11.2549 19.5257 11.24 19.5959L10.8851 21.2666C10.868 21.3468 10.9189 21.4251 10.9992 21.4422C11.0794 21.4592 11.1577 21.4083 11.1748 21.3281L11.5297 19.6574C11.5468 19.5772 11.4959 19.4989 11.4156 19.4818C11.4056 19.4797 11.3956 19.4786 11.3857 19.4786ZM14.6079 19.4796C14.5981 19.4797 14.5881 19.4807 14.5781 19.4828C14.4979 19.4998 14.4469 19.578 14.4639 19.6583L14.8176 21.3292C14.8346 21.4094 14.9129 21.4604 14.9932 21.4434C15.0734 21.4264 15.1244 21.3481 15.1074 21.2678L14.7536 19.597C14.7387 19.5268 14.6769 19.4791 14.6079 19.4796ZM12.9995 19.6481C12.9174 19.6481 12.8514 19.7142 12.8514 19.7962V21.5041C12.8514 21.5862 12.9174 21.6522 12.9995 21.6522C13.0815 21.6522 13.1475 21.5862 13.1475 21.5041V19.7962C13.1475 19.7142 13.0815 19.6481 12.9995 19.6481ZM10.2814 20.2C10.2239 20.2049 10.1723 20.2434 10.1533 20.3019L9.93124 20.9852C9.90588 21.0632 9.94827 21.1464 10.0263 21.1718C10.1043 21.1971 10.1875 21.1547 10.2129 21.0767L10.4349 20.3935C10.4603 20.3154 10.4179 20.2322 10.3399 20.2069C10.3204 20.2005 10.3006 20.1984 10.2814 20.2ZM15.7163 20.2004C15.6971 20.1986 15.6773 20.2007 15.6578 20.2072C15.5798 20.2325 15.5374 20.3157 15.5627 20.3938L15.7847 21.077C15.8101 21.1551 15.8933 21.1974 15.9714 21.1721C16.0494 21.1467 16.0918 21.0635 16.0664 20.9855L15.8444 20.3023C15.8253 20.2437 15.7738 20.2053 15.7163 20.2004ZM12.07 20.5809C12.0014 20.5875 11.9448 20.6414 11.9373 20.7128L11.8622 21.4273C11.8536 21.5089 11.9124 21.5815 11.994 21.59C12.0756 21.5986 12.1482 21.5399 12.1567 21.4583L12.2318 20.7438C12.2404 20.6622 12.1816 20.5896 12.1001 20.5811C12.0899 20.58 12.0798 20.58 12.07 20.5809ZM13.9229 20.5816C13.9131 20.5806 13.903 20.5806 13.8928 20.5818C13.8112 20.5903 13.7524 20.6628 13.7609 20.7444L13.8356 21.459C13.8441 21.5406 13.9166 21.5993 13.9982 21.5908C14.0798 21.5823 14.1386 21.5098 14.1301 21.4282L14.0555 20.7137C14.0481 20.6423 13.9916 20.5883 13.9229 20.5816Z" fill="#F4F2F3"/>
<g opacity="0.409" filter="url(#BrandSafariIcon__filter1_f_3983_36735)">
<path d="M19.9389 6.10238L11.8378 10.8091L6.71577 18.8728L14.209 13.3226L19.9389 6.10238Z" fill="black"/>
</g>
<path d="M14.1592 13.2427L11.8371 10.8109L20.0743 5.26979L14.1592 13.2427Z" fill="#FF5150"/>
<path d="M14.1597 13.2416L11.8376 10.8099L5.9225 18.7828L14.1597 13.2416Z" fill="#F1F1F1"/>
<path opacity="0.243" d="M5.9225 18.7838L14.1597 13.2427L20.0748 5.26979L5.9225 18.7838Z" fill="black"/>
<defs>
<filter id="BrandSafariIcon__filter0_f_3983_36735" x="0.00018839" y="0.322608" filterUnits="userSpaceOnUse" colorInterpolationFilters="sRGB">
<feFlood floodOpacity="0" result="BackgroundImageFix"/>
<feBlend mode="normal" in="SourceGraphic" in2="BackgroundImageFix" result="shape"/>
<feGaussianBlur stdDeviation="1.18448" result="effect1_foregroundBlur_3983_36735"/>
</filter>
<filter id="BrandSafariIcon__filter1_f_3983_36735" x="6.03801" y="5.42463" filterUnits="userSpaceOnUse" colorInterpolationFilters="sRGB">
<feFlood floodOpacity="0" result="BackgroundImageFix"/>
<feBlend mode="normal" in="SourceGraphic" in2="BackgroundImageFix" result="shape"/>
<feGaussianBlur stdDeviation="0.336661" result="effect1_foregroundBlur_3983_36735"/>
</filter>
<linearGradient id="BrandSafariIcon__paint0_linear_3983_36735" x1="12.9987" y1="23.0451" x2="12.9987" y2="1.00652" gradientUnits="userSpaceOnUse">
<stop stopColor="#BDBDBD"/>
<stop offset="1" stopColor="white"/>
</linearGradient>
<radialGradient id="BrandSafariIcon__paint1_radial_3983_36735" cx="0" cy="0" r="1" gradientUnits="userSpaceOnUse" gradientTransform="translate(13.0445 10.5457) scale(11.0194 11.0194)">
<stop stopColor="#06C2E7"/>
<stop offset="0.25" stopColor="#0DB8EC"/>
<stop offset="0.5" stopColor="#12AEF1"/>
<stop offset="0.75" stopColor="#1F86F9"/>
<stop offset="1" stopColor="#107DDD"/>
</radialGradient>
</defs>
</svg>