<svg viewBox="0 0 24 24" fill="none" xmlns="http://www.w3.org/2000/svg">
<path d="M11.6247 3.00103C12.8137 3.03523 13.8876 3.73322 14.4022 4.81337L16.4442 9.10887L16.477 9.02585C16.5581 8.81175 16.6246 8.59239 16.6759 8.36929L16.7045 8.23626C17.0486 6.51579 18.7208 5.4023 20.4445 5.7427C20.8539 5.82447 21.2431 5.98611 21.59 6.21837C21.9369 6.45063 22.2347 6.74896 22.4663 7.09632C22.6978 7.44368 22.8587 7.83327 22.9397 8.24282C23.0207 8.65237 23.0202 9.07386 22.9382 9.48321C22.4796 11.7736 21.2972 13.8993 19.6013 15.5833L19.5476 15.6355L20.2635 17.1406C21.0943 18.8877 20.2335 20.9994 18.4244 21.5921L18.3428 21.6176L18.2805 21.6364C18.0037 21.7143 17.7175 21.754 17.43 21.7544C16.8288 21.7544 16.2399 21.5841 15.7316 21.2631C15.2233 20.9422 14.8163 20.4837 14.5579 19.9409L14.0053 18.7792L13.866 18.8138C13.119 18.9903 12.3614 19.0881 11.6034 19.1031L11.3967 19.1052C10.6673 19.1052 9.9258 19.0204 9.18502 18.856L9.03893 18.822L8.50809 19.938C8.15017 20.6906 7.51091 21.2724 6.72807 21.5581L6.63354 21.5909C6.22581 21.7254 5.79505 21.7758 5.3673 21.7391C4.93954 21.7024 4.52366 21.5794 4.14478 21.3775C2.63572 20.5753 2.06029 18.6974 2.7966 17.1463L3.45574 15.7603L3.39816 15.7044C2.49453 14.813 1.77815 13.7998 1.30292 12.7106L1.23958 12.5617L1.23047 12.5375C0.576402 10.9112 1.36187 9.06005 2.98712 8.40203C4.26192 7.88598 5.67507 8.25654 6.54407 9.22514L6.5604 9.24388L8.66123 4.8248C8.91029 4.29251 9.30252 3.84 9.79405 3.51789C10.2856 3.19578 10.857 3.01676 11.4445 3.00086L11.5334 3L11.6247 3.00103Z" fill="white"/>
<path d="M8.48631 17.6137L10.368 13.6547C8.93078 13.3495 7.48471 12.4604 6.66684 11.3789L4.69922 15.5155C5.7926 16.443 7.10538 17.1721 8.48631 17.6137Z" fill="#1A007F"/>
<path d="M16.3394 11.2598C15.3941 12.4185 14.0814 13.2778 12.6768 13.6126L14.5525 17.5598C15.9216 17.0974 17.2017 16.3507 18.3071 15.3936L16.3394 11.2598Z" fill="#4E000A"/>
<path d="M4.69986 15.5147L3.71605 17.5832C3.2152 18.6351 3.59152 19.9301 4.62277 20.4783C5.71624 21.0591 7.06159 20.6058 7.58908 19.5003L8.48695 17.6128C7.10041 17.1658 5.81413 16.4532 4.69986 15.5147Z" fill="#1A007F"/>
<path d="M20.2454 6.74419C19.9672 6.68848 19.6807 6.68813 19.4024 6.74317C19.124 6.79821 18.8592 6.90755 18.6231 7.06495C18.387 7.22235 18.1842 7.42472 18.0263 7.66051C17.8684 7.89629 17.7586 8.16088 17.703 8.43914C17.4955 9.4764 17.0096 10.4423 16.3398 11.2632L18.3045 15.4C20.1181 13.8265 21.4574 11.6841 21.9376 9.28665C22.1716 8.11318 21.413 6.97528 20.2454 6.74419Z" fill="#FF9396"/>
<path d="M12.6771 13.6123C12.2563 13.713 11.8267 13.7664 11.397 13.7664C11.0622 13.7664 10.7155 13.7279 10.3687 13.6538C8.9315 13.3485 7.48544 12.4595 6.66757 11.378C6.46304 11.1083 6.29718 10.8268 6.18159 10.5393C5.73411 9.434 4.4747 8.90067 3.36937 9.34514C2.26404 9.79262 1.7308 11.052 2.17518 12.1573C2.68187 13.4137 3.57683 14.5664 4.69994 15.5147C5.81313 16.4531 7.09842 17.1657 8.48403 17.6128C9.43527 17.9179 10.422 18.0869 11.394 18.0869C12.4726 18.0869 13.5365 17.9001 14.5499 17.5594L12.6771 13.6123Z" fill="#002DC8"/>
<path d="M19.341 17.5746L18.3039 15.3937L16.3392 11.2599L16.3363 11.2629C16.3363 11.2629 16.3363 11.2599 16.3392 11.2599L13.4826 5.25027C13.3073 4.88157 13.031 4.5701 12.6859 4.35194C12.3408 4.13377 11.941 4.01784 11.5327 4.01758C10.7 4.01758 9.94139 4.49763 9.58286 5.25035L6.66992 11.3785C7.48779 12.46 8.93386 13.349 10.3711 13.6543L11.3134 11.6748C11.4023 11.488 11.669 11.488 11.7579 11.6748L12.6795 13.6128H12.6855H12.6794L14.5553 17.5599L15.4769 19.4978C15.6521 19.8673 15.9287 20.1793 16.2744 20.3975C16.6201 20.6158 17.0208 20.7313 17.4296 20.7306C17.6223 20.7306 17.8149 20.704 18.0046 20.6506C19.3055 20.292 19.9218 18.7956 19.341 17.5746Z" fill="#FF536A"/>
</svg>