<svg viewBox="0 0 24 24" fill="none" xmlns="http://www.w3.org/2000/svg">
<mask id="BrandLightroomIcon__mask0_3983_36779" style={{ maskType: 'luminance' }} maskUnits="userSpaceOnUse" x="1" y="1">
<path d="M22.7485 1H1V22.2048H22.7485V1Z" fill="white"/>
</mask>
<g mask="url(#BrandLightroomIcon__mask0_3983_36779)">
<path d="M18.8972 1H4.8513C2.72429 1 1 2.72429 1 4.8513V18.3535C1 20.4805 2.72429 22.2048 4.8513 22.2048H18.8972C21.0242 22.2048 22.7485 20.4805 22.7485 18.3535V4.8513C22.7485 2.72429 21.0242 1 18.8972 1Z" fill="#001E36"/>
<path d="M12.4217 15.9871H6.67342C6.57612 15.9871 6.52748 15.9336 6.52753 15.8266V6.56216C6.52499 6.54432 6.52663 6.52614 6.53233 6.50904C6.53803 6.49195 6.54762 6.47642 6.56037 6.46367C6.57312 6.45094 6.58865 6.44132 6.60575 6.43562C6.62282 6.42995 6.64103 6.42831 6.65887 6.43085H8.4388C8.45266 6.42889 8.46679 6.43019 8.48007 6.43464C8.49338 6.43907 8.50544 6.44654 8.51535 6.45646C8.52524 6.46634 8.53271 6.47843 8.53714 6.49171C8.54159 6.50499 8.54289 6.51912 8.54093 6.53301V14.1488H12.7282C12.8157 14.1488 12.8497 14.1926 12.8303 14.2801L12.5677 15.8558C12.5671 15.8773 12.5615 15.8984 12.5513 15.9173C12.5412 15.9363 12.5268 15.9527 12.5093 15.9652C12.4822 15.9792 12.4522 15.9868 12.4217 15.9871Z" fill="#31A8FF"/>
<path d="M13.8655 8.7359H15.4558C15.499 8.7363 15.5408 8.75074 15.5751 8.77706C15.6093 8.80341 15.634 8.84017 15.6454 8.88181C15.6801 8.94572 15.7048 9.01464 15.7184 9.08607C15.7388 9.17993 15.7534 9.27493 15.7622 9.37059C15.7718 9.47269 15.7766 9.5821 15.7768 9.69884C16.0495 9.38127 16.3784 9.11668 16.747 8.91831C17.161 8.69442 17.6259 8.58134 18.0965 8.59004C18.1144 8.58749 18.1325 8.58911 18.1496 8.59481C18.1667 8.60051 18.1823 8.61013 18.195 8.62285C18.2077 8.6356 18.2173 8.65113 18.223 8.66823C18.2287 8.68533 18.2304 8.70351 18.2278 8.72135V10.4867C18.2278 10.5548 18.1792 10.5889 18.0819 10.5888C17.4942 10.5524 16.9064 10.6575 16.3676 10.8952C16.1846 10.9744 16.0186 11.0883 15.8789 11.2308V15.8557C15.8789 15.9432 15.84 15.987 15.7622 15.987H13.9968C13.977 15.9898 13.9568 15.988 13.9378 15.9817C13.9188 15.9754 13.9015 15.9647 13.8874 15.9505C13.8732 15.9364 13.8625 15.9191 13.8562 15.9001C13.8499 15.8811 13.8481 15.8609 13.8509 15.8411V10.8222C13.8509 10.6084 13.8485 10.3823 13.8436 10.1438C13.8386 9.90558 13.8313 9.66973 13.8217 9.43621C13.8153 9.23578 13.7958 9.03597 13.7634 8.83805C13.7598 8.82393 13.7598 8.80911 13.7637 8.79503C13.7675 8.78096 13.775 8.76813 13.7853 8.75779C13.7956 8.74748 13.8084 8.74003 13.8225 8.73619C13.8366 8.73235 13.8514 8.73227 13.8655 8.7359Z" fill="#31A8FF"/>
</g>
</svg>