<svg viewBox="0 0 24 24" fill="none" xmlns="http://www.w3.org/2000/svg">
<path fillRule="evenodd" clipRule="evenodd" d="M17.3554 2.07227C18.4745 2.07227 19.3817 2.98067 19.3817 4.10125V8.73892C19.3817 9.85952 18.4745 10.7679 17.3554 10.7679C16.2363 10.7679 15.3291 9.85952 15.3291 8.73892V4.10125C15.3291 2.98067 16.2363 2.07227 17.3554 2.07227Z" fill="#FF5543"/>
<path fillRule="evenodd" clipRule="evenodd" d="M2.30273 7.28974C2.30273 6.16914 3.20995 5.26074 4.32905 5.26074H8.96062C10.0797 5.26074 10.9869 6.16914 10.9869 7.28974C10.9869 8.4103 10.0797 9.3187 8.96062 9.3187H4.32905C3.20995 9.3187 2.30273 8.4103 2.30273 7.28974Z" fill="#A112FF"/>
<path fillRule="evenodd" clipRule="evenodd" d="M4.63911 14.6121C3.96551 13.7253 2.70222 13.5479 1.81065 14.2174C0.915363 14.8898 0.733921 16.1615 1.40538 17.058L3.02643 15.8406C1.40538 17.058 1.40595 17.0588 1.40653 17.0595L1.40775 17.0612L1.41042 17.0647L1.41665 17.0729C1.42119 17.0789 1.42651 17.0858 1.43263 17.0938C1.44487 17.1096 1.46026 17.1293 1.47881 17.1525C1.51591 17.199 1.5657 17.2599 1.62819 17.3332C1.75307 17.4795 1.92933 17.6758 2.15698 17.9051C2.61118 18.3626 3.27697 18.9586 4.15463 19.5516C5.9163 20.7417 8.5475 21.9276 12.0001 21.9276C15.4528 21.9276 18.084 20.7417 19.8456 19.5516C20.7233 18.9586 21.3891 18.3626 21.8433 17.9051C22.0709 17.6758 22.2472 17.4795 22.3721 17.3332C22.4345 17.2599 22.4843 17.199 22.5214 17.1525C22.54 17.1293 22.5554 17.1096 22.5676 17.0938C22.5737 17.0858 22.5791 17.0789 22.5836 17.0729L22.5898 17.0647L22.5925 17.0612L22.5937 17.0595C22.5943 17.0588 22.5949 17.058 20.9738 15.8406L22.5949 17.058C23.2663 16.1615 23.0849 14.8898 22.1896 14.2174C21.298 13.5479 20.0347 13.7253 19.3611 14.6121C19.36 14.6136 19.3579 14.6162 19.355 14.6198C19.3447 14.6328 19.3234 14.6591 19.2912 14.6968C19.2267 14.7724 19.1191 14.8931 18.9691 15.0442C18.6679 15.3476 18.2029 15.7661 17.579 16.1876C16.3373 17.0265 14.4817 17.8696 12.0001 17.8696C9.51854 17.8696 7.6629 17.0265 6.42126 16.1876C5.7973 15.7661 5.3323 15.3476 5.03118 15.0442C4.88115 14.8931 4.77359 14.7724 4.70906 14.6968C4.67685 14.6591 4.65555 14.6328 4.64523 14.6198C4.6423 14.6162 4.64026 14.6136 4.63911 14.6121ZM19.355 14.6198L19.3549 14.6204L19.3538 14.6218C19.3533 14.6225 19.3528 14.6232 20.9215 15.8014L19.3527 14.6232C19.3535 14.6222 19.3543 14.6209 19.355 14.6198Z" fill="#00CBEC"/>
</svg>