<svg viewBox="0 0 24 24" fill="none" xmlns="http://www.w3.org/2000/svg">
<path d="M20.3646 8.4998C20.237 8.5988 17.9842 9.8682 17.9842 12.6908C17.9842 15.9556 20.8508 17.1106 20.9366 17.1392C20.9234 17.2096 20.4812 18.721 19.4252 20.261C18.4836 21.6162 17.5002 22.9692 16.0042 22.9692C14.5082 22.9692 14.1232 22.1002 12.3962 22.1002C10.7132 22.1002 10.1148 22.9978 8.74637 22.9978C7.37797 22.9978 6.42317 21.7438 5.32537 20.2038C4.05377 18.3954 3.02637 15.586 3.02637 12.9196C3.02637 8.6428 5.80717 6.3746 8.54397 6.3746C9.99817 6.3746 11.2104 7.3294 12.1234 7.3294C12.9924 7.3294 14.3476 6.3174 16.002 6.3174C16.629 6.3174 18.8818 6.3746 20.3646 8.4998ZM15.2166 4.5068C15.9008 3.695 16.3848 2.5686 16.3848 1.4422C16.3848 1.286 16.3716 1.1276 16.343 1C15.2298 1.0418 13.9054 1.7414 13.1068 2.6676C12.4798 3.3804 11.8946 4.5068 11.8946 5.6486C11.8946 5.8202 11.9232 5.9918 11.9364 6.0468C12.0068 6.06 12.1212 6.0754 12.2356 6.0754C13.2344 6.0754 14.4906 5.4066 15.2166 4.5068Z" fill="black"/>
</svg>