<svg viewBox="0 0 24 24" fill="none" xmlns="http://www.w3.org/2000/svg">
<path d="M12.002 22.9432C18.0468 22.9432 22.9472 18.0429 22.9472 11.998C22.9472 5.9531 18.0468 1.05273 12.002 1.05273C5.95701 1.05273 1.05664 5.9531 1.05664 11.998C1.05664 18.0429 5.95701 22.9432 12.002 22.9432Z" fill="black"/>
<path fillRule="evenodd" clipRule="evenodd" d="M14.841 13.1624L16.4921 14.8087L12.0039 19.2921L7.52045 14.8087L9.17149 13.1624L12.0039 15.9947L14.841 13.1624ZM12.0039 10.3252L13.6786 12L12.0039 13.6747L10.3339 12.0047V12L10.628 11.7058L10.7704 11.5635L12.0039 10.3252ZM6.35808 10.3489L8.00912 12L6.35808 13.6463L4.70703 11.9952L6.35808 10.3489ZM17.6497 10.3489L19.3008 12L17.6497 13.6463L15.9987 11.9952L17.6497 10.3489ZM12.0039 4.70312L16.4873 9.18656L14.8363 10.8376L12.0039 8.00047L9.17149 10.8329L7.52045 9.18656L12.0039 4.70312Z" fill="#F3BA2F"/>
</svg>