<svg viewBox="0 0 24 24" fill="none" xmlns="http://www.w3.org/2000/svg">
<path d="M18.575 6.06C18.575 8.78507 16.0602 12 12.2552 12H8.58996L8.41004 13.1352L7.55498 18.6H3L5.74022 1H13.12C15.605 1 17.5601 2.38502 18.2802 4.30978C18.4879 4.86939 18.5879 5.46323 18.575 6.06Z" fill="#002991"/>
<path d="M21.2005 11.1196C20.9574 12.5967 20.1965 13.9391 19.0541 14.9065C17.9116 15.8739 16.4622 16.4032 14.9652 16.3996H12.42L11.3606 22.9996H6.83008L7.5551 18.5996L8.41066 13.1348L8.59008 11.9996H12.2553C16.0554 11.9996 18.5751 8.78464 18.5751 6.05957C20.4451 7.02464 21.5354 8.97481 21.2005 11.1196Z" fill="#60CDFF"/>
<path d="M18.5749 6.06039C17.7907 5.65021 16.8398 5.40039 15.8049 5.40039H9.62531L8.58984 12.0004H12.255C16.0552 12.0004 18.5749 8.78546 18.5749 6.06039Z" fill="#008CFF"/>
</svg>