<svg viewBox="0 0 24 24" fill="none" xmlns="http://www.w3.org/2000/svg">
<path d="M2.71875 1C2.26291 1 1.82574 1.18108 1.50341 1.50341C1.18108 1.82574 1 2.26291 1 2.71875L1 21.2812C1 21.7371 1.18108 22.1743 1.50341 22.4966C1.82574 22.8189 2.26291 23 2.71875 23H21.2812C21.7371 23 22.1743 22.8189 22.4966 22.4966C22.8189 22.1743 23 21.7371 23 21.2812V2.71875C23 2.26291 22.8189 1.82574 22.4966 1.50341C22.1743 1.18108 21.7371 1 21.2812 1L2.71875 1Z" fill="#E62E04"/>
<path d="M7.0503 8.37426C7.13452 8.71801 7.08708 9.08926 7.16993 9.43885C7.45868 9.22745 7.65118 8.87854 7.61165 8.5152C7.6058 7.86482 6.8743 7.35504 6.26208 7.57401C5.87708 7.68401 5.59246 8.02948 5.52783 8.41963C5.45083 8.86651 5.7193 9.3237 6.1184 9.52788C6.07887 9.14288 5.9864 8.73726 6.08987 8.36051C6.24799 7.95007 6.90421 7.95832 7.0503 8.37426ZM18.4415 8.84038C18.5817 8.33576 18.2765 7.75069 17.776 7.58913C17.2947 7.40007 16.699 7.64069 16.4869 8.10957C16.2504 8.54373 16.3934 9.16145 16.8259 9.41582C16.9111 9.06726 16.8482 8.69395 16.9496 8.35535C17.1112 7.95076 17.7591 7.96245 17.9066 8.37254C18.0005 8.73898 17.9156 9.12398 17.8801 9.49385C18.1737 9.4031 18.3569 9.1226 18.4411 8.84141L18.4415 8.84038Z" fill="#B32100"/>
<path d="M16.9501 8.35455C16.8484 8.69658 16.9113 9.0668 16.8264 9.41502C16.5748 10.9275 15.5621 12.2791 14.1909 12.9567C13.5083 13.3002 12.7546 13.4786 11.9905 13.4776C11.2264 13.4767 10.4732 13.2964 9.79154 12.9512C8.43304 12.2754 7.42826 10.9351 7.1701 9.43874C7.0876 9.0888 7.13435 8.72133 7.05047 8.37414C6.90472 7.96164 6.24816 7.94961 6.09004 8.36039C5.98691 8.74058 6.07973 9.14311 6.11857 9.52777C6.40732 11.3978 7.65857 13.077 9.35394 13.9106C10.1331 14.296 10.9871 14.5064 11.8562 14.527C12.7252 14.5475 13.5882 14.3777 14.3847 14.0295C16.2179 13.2379 17.5885 11.47 17.8817 9.49202C17.9171 9.12214 18.002 8.7368 17.9078 8.37071C17.76 7.96061 17.1124 7.94927 16.9505 8.35352L16.9501 8.35455Z" fill="white"/>
<path d="M2.71875 1C2.26291 1 1.82574 1.18108 1.50341 1.50341C1.18108 1.82574 1 2.26291 1 2.71875L1 5.98438C1 5.52853 1.18108 5.09136 1.50341 4.76904C1.82574 4.44671 2.26291 4.26562 2.71875 4.26562H21.2812C21.7371 4.26562 22.1743 4.44671 22.4966 4.76904C22.8189 5.09136 23 5.52853 23 5.98438V2.71875C23 2.26291 22.8189 1.82574 22.4966 1.50341C22.1743 1.18108 21.7371 1 21.2812 1L2.71875 1Z" fill="#FF9900"/>
</svg>