<svg viewBox="0 0 24 24" fill="none" xmlns="http://www.w3.org/2000/svg">
<path d="M11.9999 21.8093C17.4175 21.8093 21.8093 17.4175 21.8093 11.9999C21.8093 6.58227 17.4175 2.19043 11.9999 2.19043C6.58227 2.19043 2.19043 6.58227 2.19043 11.9999C2.19043 17.4175 6.58227 21.8093 11.9999 21.8093Z" fill="white"/>
<path d="M12 1C9.82441 1 7.69767 1.64514 5.88873 2.85383C4.07979 4.06253 2.66989 5.7805 1.83733 7.79048C1.00477 9.80047 0.786929 12.0122 1.21137 14.146C1.6358 16.2798 2.68345 18.2398 4.22183 19.7782C5.76021 21.3166 7.72022 22.3642 9.85401 22.7886C11.9878 23.2131 14.1995 22.9952 16.2095 22.1627C18.2195 21.3301 19.9375 19.9202 21.1462 18.1113C22.3549 16.3023 23 14.1756 23 12C23.0042 10.5597 22.7247 9.13259 22.1774 7.80027C21.63 6.46796 20.8257 5.2565 19.8102 4.23505C18.7946 3.21361 17.5879 2.40218 16.2588 1.84711C14.9297 1.29204 13.5043 1.00419 12.0639 1H12ZM12.1864 12.3729L11.0412 16.2349H17.1671C17.2077 16.2334 17.2481 16.24 17.2861 16.2543C17.3242 16.2685 17.359 16.2901 17.3887 16.3178C17.4184 16.3455 17.4423 16.3788 17.4591 16.4157C17.476 16.4527 17.4853 16.4926 17.4867 16.5332V16.6344L16.954 18.4722C16.9305 18.5591 16.8782 18.6354 16.8056 18.6886C16.733 18.7419 16.6444 18.7689 16.5545 18.7651H7.17918L8.75061 13.4116L6.99274 13.9443L7.39226 12.7191L9.15013 12.1864L11.3608 4.67554C11.3851 4.58912 11.4377 4.51333 11.5101 4.46024C11.5825 4.40714 11.6706 4.3798 11.7603 4.38257H14.1308C14.1713 4.38114 14.2118 4.38773 14.2498 4.40196C14.2879 4.41618 14.3227 4.43776 14.3524 4.46547C14.3821 4.49317 14.406 4.52646 14.4228 4.56342C14.4396 4.60038 14.449 4.64029 14.4504 4.68087V4.78208L12.586 11.1211L14.3438 10.5884L13.971 11.8668L12.1864 12.3729Z" fill="#345D9D"/>
</svg>