<svg viewBox="0 0 24 24" fill="none" xmlns="http://www.w3.org/2000/svg">
<mask id="BrandDubIcon__mask0_3983_36707" style={{ maskType: 'luminance' }} maskUnits="userSpaceOnUse" x="1" y="1">
<path d="M23 1H1V23H23V1Z" fill="white"/>
</mask>
<g mask="url(#BrandDubIcon__mask0_3983_36707)">
<path d="M23 12C23 18.0751 18.0751 23 12 23C5.92487 23 1 18.0751 1 12C1 5.92487 5.92487 1 12 1C18.0751 1 23 5.92487 23 12Z" fill="black"/>
<mask id="BrandDubIcon__mask1_3983_36707" style={{ maskType: 'alpha' }} maskUnits="userSpaceOnUse" x="1" y="1">
<path d="M23 12C23 18.0751 18.0751 23 12 23C5.92487 23 1 18.0751 1 12C1 5.92487 5.92487 1 12 1C18.0751 1 23 5.92487 23 12Z" fill="black"/>
</mask>
<g mask="url(#BrandDubIcon__mask1_3983_36707)">
<path d="M11.9428 18.163C15.0599 18.163 17.5868 15.6361 17.5868 12.519C17.5868 9.4019 15.0599 6.875 11.9428 6.875C8.82572 6.875 6.29883 9.4019 6.29883 12.519C6.29883 15.6361 8.82572 18.163 11.9428 18.163Z" fill="white"/>
<path d="M15.0527 -0.612305H17.5868V18.0474H15.0527V-0.612305Z" fill="white"/>
</g>
</g>
</svg>