<svg viewBox="0 0 24 24" fill="none" xmlns="http://www.w3.org/2000/svg">
<mask id="BrandPhotoshopIcon__mask0_3983_36688" style={{ maskType: 'luminance' }} maskUnits="userSpaceOnUse" x="1" y="1">
<path d="M22.7485 1H1V22.2048H22.7485V1Z" fill="white"/>
</mask>
<g mask="url(#BrandPhotoshopIcon__mask0_3983_36688)">
<path d="M18.8972 1H4.8513C2.72429 1 1 2.72429 1 4.8513V18.3535C1 20.4805 2.72429 22.2048 4.8513 22.2048H18.8972C21.0242 22.2048 22.7485 20.4805 22.7485 18.3535V4.8513C22.7485 2.72429 21.0242 1 18.8972 1Z" fill="#001E36"/>
<path d="M5.89746 15.8701V6.54728C5.89746 6.47935 5.92664 6.44516 5.98501 6.44516C6.14047 6.44516 6.28238 6.44288 6.49647 6.43787C6.71032 6.43307 6.94132 6.42822 7.18947 6.42329C7.43751 6.41846 7.70014 6.41361 7.97734 6.40868C8.25451 6.40389 8.52927 6.40147 8.80162 6.40137C9.54069 6.40137 10.1632 6.49377 10.6691 6.67859C11.1255 6.83296 11.5416 7.08713 11.8873 7.42264C12.1804 7.71347 12.4069 8.06441 12.5512 8.45124C12.6876 8.8277 12.7568 9.22524 12.7554 9.62569C12.7554 10.404 12.5755 11.0459 12.2156 11.5515C11.8534 12.0592 11.3442 12.4437 10.7567 12.6531C10.1439 12.8817 9.46295 12.9592 8.7141 12.9592C8.50003 12.9592 8.34927 12.9568 8.2618 12.9519C8.17428 12.9471 8.04299 12.9447 7.86792 12.9446V15.8555C7.87046 15.8733 7.86882 15.8915 7.86312 15.9086C7.85742 15.9257 7.84783 15.9412 7.83508 15.954C7.82233 15.9667 7.8068 15.9763 7.7897 15.982C7.7726 15.9877 7.75442 15.9893 7.73658 15.9868H5.99959C5.93144 15.9868 5.89746 15.948 5.89746 15.8701ZM7.86792 8.1959V11.2366C7.99419 11.2464 8.1109 11.2513 8.21804 11.2512H8.69949C9.05375 11.25 9.40567 11.1938 9.74269 11.0847C10.0317 10.9988 10.29 10.8317 10.4867 10.6032C10.6764 10.3796 10.7712 10.0683 10.7713 9.66948C10.7789 9.38724 10.7055 9.10875 10.5597 8.86704C10.4063 8.63328 10.1848 8.45246 9.92502 8.34911C9.58591 8.2173 9.22365 8.15527 8.85999 8.16675C8.62652 8.16675 8.41985 8.16916 8.23996 8.17401C8.05985 8.17905 7.93585 8.18634 7.86792 8.1959Z" fill="#31A8FF"/>
<path d="M18.3967 10.6834C18.1225 10.5425 17.8305 10.4395 17.5286 10.377C17.1959 10.3007 16.8559 10.2616 16.5146 10.2603C16.33 10.2553 16.1457 10.2774 15.9675 10.326C15.8541 10.3512 15.7533 10.4158 15.683 10.5083C15.6354 10.5823 15.6101 10.6684 15.6101 10.7564C15.6127 10.8417 15.6435 10.9237 15.6976 10.9898C15.7828 11.0895 15.8869 11.1713 16.0039 11.2305C16.212 11.3425 16.4263 11.4424 16.6459 11.5296C17.1355 11.6935 17.6034 11.9164 18.0392 12.1934C18.3361 12.3808 18.5817 12.639 18.7541 12.9448C18.8991 13.2344 18.9716 13.5548 18.9657 13.8786C18.9744 14.3061 18.8522 14.7261 18.6155 15.0822C18.3621 15.4437 18.0101 15.7248 17.6015 15.8919C17.1588 16.0864 16.6117 16.1836 15.9602 16.1837C15.5463 16.1879 15.1331 16.1488 14.7274 16.067C14.4077 16.0084 14.0965 15.9104 13.8009 15.7752C13.769 15.7587 13.7425 15.7335 13.7244 15.7025C13.7063 15.6715 13.6974 15.636 13.6988 15.6001V14.0244C13.697 14.009 13.6995 13.9934 13.7059 13.9792C13.7124 13.9651 13.7225 13.953 13.7353 13.9442C13.7478 13.9371 13.7622 13.934 13.7765 13.9353C13.7909 13.9366 13.8045 13.9423 13.8155 13.9515C14.1646 14.1573 14.5436 14.3074 14.9389 14.3965C15.2873 14.4838 15.6448 14.5303 16.0039 14.5351C16.3443 14.5351 16.5948 14.4913 16.7553 14.4038C16.8278 14.3706 16.8892 14.3171 16.9319 14.2498C16.9746 14.1824 16.9969 14.1042 16.9961 14.0244C16.9961 13.8981 16.9231 13.7766 16.7772 13.6597C16.6313 13.543 16.3347 13.4019 15.8872 13.2366C15.4291 13.0771 14.9948 12.8563 14.596 12.5801C14.3109 12.3817 14.076 12.1194 13.9103 11.8141C13.7669 11.5266 13.6943 11.2089 13.6988 10.8877C13.698 10.5016 13.804 10.1229 14.0052 9.79344C14.2345 9.43063 14.5638 9.14182 14.9535 8.96184C15.3814 8.74799 15.9163 8.64101 16.5584 8.64085C16.9344 8.63783 17.31 8.66466 17.6818 8.72109C17.951 8.75525 18.2142 8.82642 18.4639 8.93266C18.4837 8.93833 18.5019 8.94854 18.5171 8.96245C18.5323 8.97639 18.544 8.99365 18.5514 9.01289C18.5613 9.04852 18.5662 9.08533 18.566 9.12231V10.5959C18.567 10.613 18.5635 10.6301 18.5558 10.6455C18.5481 10.6609 18.5366 10.6739 18.5222 10.6834C18.5027 10.6931 18.4812 10.6982 18.4595 10.6982C18.4377 10.6982 18.4162 10.6931 18.3967 10.6834Z" fill="#31A8FF"/>
</g>
</svg>