<svg viewBox="0 0 24 24" fill="none" xmlns="http://www.w3.org/2000/svg">
<path d="M17.3059 8.2176C17.3059 8.2176 15.5238 13.8157 15.3783 14.2778C15.3255 13.8026 14.0184 3.75488 14.0184 3.75488C10.9816 3.75488 9.35765 5.92017 8.4995 8.20447C8.4995 8.20447 6.334 13.8157 6.14933 14.2909C6.13599 13.8553 5.81916 8.27055 5.81916 8.27055C5.63427 5.47119 3.07295 3.76822 1 3.76822L3.50859 18.9915C6.69065 18.9784 8.40695 16.8262 9.30491 14.5419C9.30491 14.5419 11.2192 9.59081 11.2984 9.36632C11.3118 9.57747 12.6717 18.9915 12.6717 18.9915C15.8668 18.9915 17.5834 16.9713 18.5076 14.7664L22.9834 3.76822C19.8276 3.76822 18.1643 5.92017 17.3059 8.2176Z" fill="#4353FF"/>
</svg>