<svg viewBox="0 0 24 24" fill="none" xmlns="http://www.w3.org/2000/svg">
<path fillRule="evenodd" clipRule="evenodd" d="M19.9635 15.638C19.9635 16.1158 19.7472 16.5888 19.3268 17.0302C18.9065 17.4716 18.2903 17.8727 17.5136 18.2105C16.7369 18.5483 15.8148 18.8163 14.7999 18.9991C13.7851 19.1819 12.6974 19.276 11.599 19.276C10.5005 19.276 9.41281 19.1819 8.39797 18.9991C7.38313 18.8163 6.46103 18.5483 5.6843 18.2105C4.90758 17.8727 4.29145 17.4716 3.87109 17.0302C3.45073 16.5888 3.23437 16.1158 3.23438 15.638C3.23437 15.1603 3.45073 14.6872 3.87109 14.2458C4.29145 13.8044 4.90758 13.4034 5.6843 13.0656C6.46103 12.7277 7.38313 12.4598 8.39797 12.2769C9.41281 12.0941 10.5005 12 11.599 12C12.6974 12 13.7851 12.0941 14.7999 12.2769C15.8148 12.4598 16.7369 12.7277 17.5136 13.0656C18.2903 13.4034 18.9065 13.8044 19.3268 14.2458C19.7472 14.6872 19.9635 15.1603 19.9635 15.638Z" fill="url(#BrandGimpIcon__paint0_radial_3983_36758)"/>
<path fillRule="evenodd" clipRule="evenodd" d="M5.75483 6.7149C5.75483 6.7149 7.07232 9.43173 10.1545 9.35508C16.6136 9.19304 17.7462 5.82365 17.9082 5.33751C18.0703 4.85138 18.3182 4.92501 18.3756 5.3743C20.4821 24.4956 3.75613 16.2914 3.16211 13.0347C6.48404 12.0624 5.67381 10.1989 5.67381 10.1989L5.75483 6.7149Z" fill="url(#BrandGimpIcon__paint1_radial_3983_36758)" stroke="#2E3436" strokeMiterlimit="10"/>
<path fillRule="evenodd" clipRule="evenodd" d="M8.21289 14.7812C11.3016 15.399 12.8745 14.8262 13.795 14.1153C13.5519 13.8014 13.1367 13.457 13.1367 13.457C13.1367 13.457 14.2153 13.7568 14.5951 14.247C14.9738 14.7358 14.7357 15.037 14.6366 15.6625C14.416 15.1131 14.0041 14.9071 13.9484 14.6889C13.1205 15.8333 11.0579 15.7857 8.21289 14.7812Z" fill="url(#BrandGimpIcon__paint2_linear_3983_36758)"/>
<path opacity="0.185393" d="M17.9434 6.42871C17.6858 6.85354 17.2987 7.36058 16.7116 7.84668C15.5053 8.84541 13.4801 9.75442 10.166 9.83757C8.22984 9.88571 6.97934 8.95108 6.21289 8.11882L6.1556 10.167C6.21798 10.3589 6.34602 10.8043 6.12695 11.4131C5.89123 12.0682 5.13947 12.7383 3.84961 13.2464C3.96434 13.4857 4.07671 13.7247 4.42253 14.0628C4.89367 14.5234 5.54867 15.0198 6.32747 15.4665C7.88509 16.3597 9.9032 17.0675 11.7845 17.0993C13.6658 17.131 15.3857 16.5334 16.5684 14.8076C17.6586 13.2166 18.2562 10.5231 17.9434 6.42871Z" stroke="url(#BrandGimpIcon__paint3_linear_3983_36758)" strokeMiterlimit="10"/>
<path fillRule="evenodd" clipRule="evenodd" d="M9.11669 10.8064C9.11676 11.0511 9.0686 11.2935 8.97497 11.5197C8.88135 11.7458 8.7441 11.9513 8.57105 12.1244C8.398 12.2975 8.19254 12.4348 7.96642 12.5285C7.74029 12.6221 7.49793 12.6704 7.25317 12.6704C7.00841 12.6704 6.76605 12.6221 6.53993 12.5285C6.3138 12.4348 6.10835 12.2975 5.9353 12.1244C5.76225 11.9513 5.62499 11.7458 5.53137 11.5197C5.43775 11.2935 5.38959 11.0511 5.38965 10.8064C5.38959 10.5616 5.43775 10.3192 5.53137 10.0931C5.62499 9.86694 5.76225 9.66145 5.9353 9.48836C6.10835 9.31527 6.3138 9.17796 6.53993 9.08428C6.76605 8.9906 7.00841 8.94238 7.25317 8.94238C7.49793 8.94238 7.74029 8.9906 7.96642 9.08428C8.19254 9.17796 8.398 9.31527 8.57105 9.48836C8.7441 9.66145 8.88135 9.86694 8.97497 10.0931C9.0686 10.3192 9.11676 10.5616 9.11669 10.8064Z" fill="url(#BrandGimpIcon__paint4_radial_3983_36758)" stroke="#888A85" strokeMiterlimit="10"/>
<path fillRule="evenodd" clipRule="evenodd" d="M5.40493 11.5086C5.83867 12.1098 6.08504 12.8088 6.08984 13.4517C6.09464 14.0947 5.85747 14.6289 5.43051 14.9369C5.00356 15.2449 4.42178 15.3015 3.81317 15.0942C3.20457 14.8868 2.61898 14.4326 2.18524 13.8314C1.75149 13.2302 1.50512 12.5312 1.50032 11.8883C1.49553 11.2453 1.73269 10.7111 2.15965 10.4031C2.58661 10.095 3.16838 10.0385 3.77699 10.2458C4.3856 10.4531 4.97119 10.9074 5.40493 11.5086Z" fill="url(#BrandGimpIcon__paint5_radial_3983_36758)" stroke="black" strokeMiterlimit="10"/>
<path fillRule="evenodd" clipRule="evenodd" d="M8.58649 11.0831C8.58653 11.2009 8.56335 11.3176 8.51827 11.4265C8.4732 11.5354 8.40711 11.6343 8.32379 11.7177C8.24047 11.801 8.14154 11.8671 8.03267 11.9123C7.92379 11.9574 7.80709 11.9806 7.68924 11.9806C7.57139 11.9806 7.4547 11.9574 7.34582 11.9123C7.23694 11.8671 7.13802 11.801 7.0547 11.7177C6.97138 11.6343 6.90529 11.5354 6.86022 11.4265C6.81514 11.3176 6.79196 11.2009 6.79199 11.0831C6.79196 10.9652 6.81514 10.8485 6.86022 10.7396C6.90529 10.6307 6.97138 10.5318 7.0547 10.4484C7.13802 10.3651 7.23694 10.299 7.34582 10.2539C7.4547 10.2088 7.57139 10.1855 7.68924 10.1855C7.80709 10.1855 7.92379 10.2088 8.03267 10.2539C8.14154 10.299 8.24047 10.3651 8.32379 10.4484C8.40711 10.5318 8.4732 10.6307 8.51827 10.7396C8.56335 10.8485 8.58653 10.9652 8.58649 11.0831Z" fill="#2E3436" stroke="black" strokeMiterlimit="10"/>
<path opacity="0.280899" d="M2.32187 10.8123C2.02904 11.0316 1.87471 11.4027 1.88861 11.9063C1.90252 12.4099 2.10125 13.0264 2.50915 13.571C2.91704 14.1156 3.45282 14.4797 3.93216 14.6347C4.41149 14.7897 4.81101 14.7459 5.10384 14.5266C5.39667 14.3073 5.55157 13.9185 5.53998 13.4126C5.52839 12.9067 5.33504 12.3027 4.92803 11.7593C4.52102 11.2159 3.99583 10.8605 3.51361 10.7071C3.03139 10.5537 2.61471 10.593 2.32187 10.8123Z" stroke="url(#BrandGimpIcon__paint6_linear_3983_36758)" strokeMiterlimit="10"/>
<path fillRule="evenodd" clipRule="evenodd" d="M3.67319 11.6571C3.67321 11.7848 3.65227 11.9112 3.61157 12.0292C3.57086 12.1472 3.51118 12.2544 3.43595 12.3447C3.36071 12.435 3.27138 12.5067 3.17307 12.5555C3.07475 12.6044 2.96938 12.6296 2.86296 12.6296C2.75654 12.6296 2.65117 12.6044 2.55286 12.5555C2.45454 12.5067 2.36522 12.435 2.28998 12.3447C2.21474 12.2544 2.15506 12.1472 2.11435 12.0292C2.07365 11.9112 2.05271 11.7848 2.05273 11.6571C2.05271 11.5294 2.07365 11.4029 2.11435 11.2849C2.15506 11.1669 2.21474 11.0597 2.28998 10.9694C2.36522 10.8791 2.45454 10.8075 2.55286 10.7586C2.65117 10.7097 2.75654 10.6846 2.86296 10.6846C2.96938 10.6846 3.07475 10.7097 3.17307 10.7586C3.27138 10.8075 3.36071 10.8791 3.43595 10.9694C3.51118 11.0597 3.57086 11.1669 3.61157 11.2849C3.65227 11.4029 3.67321 11.5294 3.67319 11.6571Z" fill="white"/>
<path fillRule="evenodd" clipRule="evenodd" d="M7.965 10.668C7.965 10.7496 7.94894 10.8304 7.91772 10.9058C7.8865 10.9811 7.84075 11.0496 7.78307 11.1073C7.72538 11.165 7.65691 11.2107 7.58154 11.2419C7.50618 11.2732 7.4254 11.2892 7.34383 11.2892C7.26226 11.2892 7.18148 11.2732 7.10612 11.2419C7.03075 11.2107 6.96227 11.165 6.90459 11.1073C6.84691 11.0496 6.80116 10.9811 6.76994 10.9058C6.73872 10.8304 6.72266 10.7496 6.72266 10.668C6.72266 10.5865 6.73872 10.5057 6.76994 10.4303C6.80116 10.355 6.84691 10.2865 6.90459 10.2288C6.96227 10.1711 7.03075 10.1254 7.10612 10.0942C7.18148 10.0629 7.26226 10.0469 7.34383 10.0469C7.4254 10.0469 7.50618 10.0629 7.58154 10.0942C7.65691 10.1254 7.72538 10.1711 7.78307 10.2288C7.84075 10.2865 7.8865 10.355 7.91772 10.4303C7.94894 10.5057 7.965 10.5865 7.965 10.668Z" fill="white"/>
<path fillRule="evenodd" clipRule="evenodd" d="M13.2903 11.0094C13.2903 11.2968 13.2338 11.5813 13.1239 11.8468C13.014 12.1123 12.8529 12.3535 12.6497 12.5567C12.4466 12.7599 12.2054 12.9211 11.9399 13.031C11.6745 13.141 11.39 13.1976 11.1027 13.1976C10.8153 13.1976 10.5308 13.141 10.2654 13.031C9.99992 12.9211 9.75873 12.7599 9.55558 12.5567C9.35244 12.3535 9.19131 12.1123 9.08141 11.8468C8.9715 11.5813 8.91497 11.2968 8.91504 11.0094C8.91497 10.7221 8.9715 10.4376 9.08141 10.1721C9.19131 9.90664 9.35244 9.66542 9.55558 9.46222C9.75873 9.25902 9.99992 9.09784 10.2654 8.98786C10.5308 8.87789 10.8153 8.82129 11.1027 8.82129C11.39 8.82129 11.6745 8.87789 11.9399 8.98786C12.2054 9.09784 12.4466 9.25902 12.6497 9.46222C12.8529 9.66542 13.014 9.90664 13.1239 10.1721C13.2338 10.4376 13.2903 10.7221 13.2903 11.0094Z" fill="url(#BrandGimpIcon__paint7_radial_3983_36758)" stroke="#888A85" strokeMiterlimit="10"/>
<path fillRule="evenodd" clipRule="evenodd" d="M12.6671 11.3329C12.6672 11.4712 12.64 11.6082 12.587 11.7361C12.5341 11.8639 12.4566 11.9801 12.3587 12.0779C12.2609 12.1757 12.1448 12.2533 12.017 12.3063C11.8892 12.3593 11.7522 12.3865 11.6138 12.3865C11.4755 12.3865 11.3385 12.3593 11.2107 12.3063C11.0829 12.2533 10.9668 12.1757 10.8689 12.0779C10.7711 11.9801 10.6935 11.8639 10.6406 11.7361C10.5877 11.6082 10.5605 11.4712 10.5605 11.3329C10.5605 11.1946 10.5877 11.0576 10.6406 10.9297C10.6935 10.8019 10.7711 10.6857 10.8689 10.5879C10.9668 10.4901 11.0829 10.4125 11.2107 10.3595C11.3385 10.3066 11.4755 10.2793 11.6138 10.2793C11.7522 10.2793 11.8892 10.3066 12.017 10.3595C12.1448 10.4125 12.2609 10.4901 12.3587 10.5879C12.4566 10.6857 12.5341 10.8019 12.587 10.9297C12.64 11.0576 12.6672 11.1946 12.6671 11.3329Z" fill="#2E3436" stroke="black" strokeWidth="1.17391" strokeMiterlimit="10"/>
<path fillRule="evenodd" clipRule="evenodd" d="M11.9379 10.8474C11.9379 10.9431 11.919 11.038 11.8824 11.1264C11.8457 11.2149 11.792 11.2953 11.7243 11.363C11.6566 11.4307 11.5762 11.4844 11.4878 11.5211C11.3993 11.5577 11.3045 11.5766 11.2087 11.5766C11.1129 11.5766 11.0181 11.5577 10.9296 11.5211C10.8412 11.4844 10.7608 11.4307 10.6931 11.363C10.6254 11.2953 10.5716 11.2149 10.535 11.1264C10.4984 11.038 10.4795 10.9431 10.4795 10.8474C10.4795 10.7516 10.4984 10.6568 10.535 10.5683C10.5716 10.4798 10.6254 10.3995 10.6931 10.3317C10.7608 10.264 10.8412 10.2103 10.9296 10.1737C11.0181 10.137 11.1129 10.1182 11.2087 10.1182C11.3045 10.1182 11.3993 10.137 11.4878 10.1737C11.5762 10.2103 11.6566 10.264 11.7243 10.3317C11.792 10.3995 11.8457 10.4798 11.8824 10.5683C11.919 10.6568 11.9379 10.7516 11.9379 10.8474Z" fill="white"/>
<path d="M17.769 17.5427L18.1936 16.6971C16.614 15.5415 13.7022 14.7006 13.7022 14.7006C13.1975 14.4655 13.0382 14.919 13.3877 15.2137C13.3877 15.2137 15.8779 16.9989 17.769 17.5427Z" fill="url(#BrandGimpIcon__paint8_linear_3983_36758)" stroke="#673907" strokeLinecap="round"/>
<path d="M19.7936 18.3221L20.0209 17.8189L18.2574 16.6892L18.1168 16.6772L18.056 16.4826C17.7999 16.643 17.4276 17.2389 17.5263 17.574L17.7168 17.5019L17.8199 17.6016L19.7936 18.3221Z" fill="url(#BrandGimpIcon__paint9_linear_3983_36758)" stroke="#888A85" strokeLinecap="round"/>
<path d="M18.6511 17.3675L19.8219 17.8702" stroke="white" strokeLinecap="round" strokeLinejoin="round"/>
<path d="M22.3568 20.4585C21.807 18.5923 21.612 17.1106 20.1753 17.2424C19.0175 17.3487 18.9364 19.0076 20.1328 19.4654C21.2854 19.9064 22.3568 20.4585 22.3568 20.4585Z" fill="url(#BrandGimpIcon__paint10_radial_3983_36758)"/>
<path opacity="0.527778" d="M20.2614 17.3932C20.3221 17.3753 20.3857 17.3695 20.4487 17.3762C20.5116 17.3829 20.5726 17.4019 20.6282 17.4322C20.6838 17.4625 20.7329 17.5034 20.7727 17.5527C20.8124 17.602 20.8421 17.6586 20.86 17.7193C20.8779 17.78 20.8837 17.8437 20.8769 17.9066C20.8702 17.9696 20.8512 18.0306 20.8209 18.0862C20.7906 18.1417 20.7496 18.1908 20.7004 18.2306C20.6511 18.2703 20.5945 18.3 20.5338 18.3179C20.473 18.3358 20.4094 18.3415 20.3464 18.3348C20.2835 18.3281 20.2225 18.3091 20.1669 18.2788C20.1113 18.2485 20.0622 18.2076 20.0224 18.1584C19.9827 18.1091 19.953 18.0525 19.9351 17.9918C19.9172 17.931 19.9114 17.8674 19.9182 17.8044C19.9249 17.7415 19.9439 17.6805 19.9742 17.6249C20.0045 17.5693 20.0455 17.5202 20.0947 17.4805C20.144 17.4407 20.2006 17.4111 20.2614 17.3932Z" fill="white"/>
<path d="M18.1595 16.708C18.2005 16.6959 18.2434 16.692 18.2859 16.6965C18.3284 16.701 18.3695 16.7139 18.407 16.7343C18.4446 16.7548 18.4777 16.7824 18.5045 16.8156C18.5313 16.8488 18.5514 16.887 18.5634 16.928C18.5755 16.969 18.5794 17.0119 18.5749 17.0544C18.5703 17.0969 18.5575 17.1381 18.537 17.1756C18.5166 17.2131 18.489 17.2462 18.4557 17.273C18.4225 17.2998 18.3843 17.3198 18.3433 17.3319C18.3023 17.344 18.2594 17.3479 18.2169 17.3434C18.1744 17.3388 18.1333 17.326 18.0957 17.3056C18.0582 17.2851 18.0251 17.2575 17.9983 17.2243C17.9714 17.191 17.9514 17.1528 17.9393 17.1119C17.9273 17.0709 17.9234 17.0279 17.9279 16.9855C17.9325 16.943 17.9453 16.9018 17.9658 16.8643C17.9862 16.8268 18.0138 16.7937 18.0471 16.7669C18.0803 16.7401 18.1185 16.72 18.1595 16.708Z" fill="white"/>
<path opacity="0.427778" d="M21.6661 19.3424C21.6661 19.3424 21.4871 18.6724 21.0919 18.3238C20.952 18.2004 21.1282 18.0187 21.2602 18.1783C21.5452 18.523 21.6661 19.3424 21.6661 19.3424Z" fill="url(#BrandGimpIcon__paint11_linear_3983_36758)"/>
<path fillRule="evenodd" clipRule="evenodd" d="M11.543 15.5468C12.2293 15.6124 12.849 15.422 13.1068 15.3295C13.1518 15.075 13.3527 14.5865 14.0445 14.5543L13.8015 14.1289C13.8015 14.1289 12.9001 14.7467 11.938 14.929L11.543 15.5468Z" fill="url(#BrandGimpIcon__paint12_linear_3983_36758)"/>
<defs>
<radialGradient id="BrandGimpIcon__paint0_radial_3983_36758" cx="0" cy="0" r="1" gradientUnits="userSpaceOnUse" gradientTransform="translate(11.599 15.638) scale(8.36458 3.63803)">
<stop/>
<stop offset="1" stopOpacity="0"/>
</radialGradient>
<radialGradient id="BrandGimpIcon__paint1_radial_3983_36758" cx="0" cy="0" r="1" gradientUnits="userSpaceOnUse" gradientTransform="translate(8.58883 11.2213) scale(15.6239 11.4281)">
<stop stopColor="#857C63"/>
<stop offset="1" stopColor="#221F19"/>
</radialGradient>
<linearGradient id="BrandGimpIcon__paint2_linear_3983_36758" x1="14.0685" y1="14.031" x2="8.96404" y2="15.0438" gradientUnits="userSpaceOnUse">
<stop/>
<stop offset="1" stopOpacity="0"/>
</linearGradient>
<linearGradient id="BrandGimpIcon__paint3_linear_3983_36758" x1="7.86003" y1="9.75939" x2="19.1148" y2="22.5354" gradientUnits="userSpaceOnUse">
<stop stopColor="white"/>
<stop offset="1" stopColor="white" stopOpacity="0"/>
</linearGradient>
<radialGradient id="BrandGimpIcon__paint4_radial_3983_36758" cx="0" cy="0" r="1" gradientUnits="userSpaceOnUse" gradientTransform="translate(7.25317 9.495) scale(2.71442 2.71442)">
<stop stopColor="white"/>
<stop offset="1" stopColor="#B9B9B0"/>
</radialGradient>
<radialGradient id="BrandGimpIcon__paint5_radial_3983_36758" cx="0" cy="0" r="1" gradientUnits="userSpaceOnUse" gradientTransform="translate(3.05028 11.696) rotate(-30) scale(2.03905 2.3799)">
<stop stopColor="#5B676B"/>
<stop offset="1" stopColor="#141718"/>
</radialGradient>
<linearGradient id="BrandGimpIcon__paint6_linear_3983_36758" x1="2.73084" y1="11.1967" x2="4.86839" y2="14.2957" gradientUnits="userSpaceOnUse">
<stop stopColor="white"/>
<stop offset="1" stopColor="white" stopOpacity="0"/>
</linearGradient>
<radialGradient id="BrandGimpIcon__paint7_radial_3983_36758" cx="0" cy="0" r="1" gradientUnits="userSpaceOnUse" gradientTransform="translate(11.1026 9.47002) scale(3.1865 3.18649)">
<stop stopColor="white"/>
<stop offset="1" stopColor="#B9B9B0"/>
</radialGradient>
<linearGradient id="BrandGimpIcon__paint8_linear_3983_36758" x1="16.748" y1="15.6924" x2="15.7959" y2="17.7718" gradientUnits="userSpaceOnUse">
<stop stopColor="#6E3D09"/>
<stop offset="0.242424" stopColor="#EA8113"/>
<stop offset="0.621212" stopColor="#5C3307"/>
<stop offset="1" stopColor="#E07C12"/>
</linearGradient>
<linearGradient id="BrandGimpIcon__paint9_linear_3983_36758" x1="18.7879" y1="17.9508" x2="19.2066" y2="17.1061" gradientUnits="userSpaceOnUse">
<stop stopColor="#BDBDBD"/>
<stop offset="0.333333" stopColor="#E2E2E2"/>
<stop offset="0.666667" stopColor="#A3A3A3"/>
<stop offset="1" stopColor="#DDDDDD"/>
</linearGradient>
<radialGradient id="BrandGimpIcon__paint10_radial_3983_36758" cx="0" cy="0" r="1" gradientUnits="userSpaceOnUse" gradientTransform="translate(19.8323 18.4412) rotate(-106.415) scale(2.2204 2.16385)">
<stop stopColor="#696969"/>
<stop offset="1"/>
</radialGradient>
<linearGradient id="BrandGimpIcon__paint11_linear_3983_36758" x1="21.1464" y1="17.9984" x2="21.6827" y2="18.9922" gradientUnits="userSpaceOnUse">
<stop stopColor="white"/>
<stop offset="1" stopColor="white" stopOpacity="0"/>
</linearGradient>
<linearGradient id="BrandGimpIcon__paint12_linear_3983_36758" x1="12.9912" y1="14.9999" x2="12.1506" y2="15.2025" gradientUnits="userSpaceOnUse">
<stop/>
<stop offset="1" stopOpacity="0"/>
</linearGradient>
</defs>
</svg>