<svg viewBox="0 0 24 24" fill="none" xmlns="http://www.w3.org/2000/svg">
<path d="M22.4856 12.206C22.4856 11.3047 22.4125 10.6469 22.2542 9.96484H11.9619V14.033H18.0033C17.8815 15.044 17.2238 16.5665 15.7621 17.5896L15.7416 17.7258L18.9959 20.2468L19.2213 20.2693C21.2919 18.357 22.4856 15.5434 22.4856 12.206Z" fill="#4285F4"/>
<path d="M11.9619 22.924C14.9216 22.924 17.4064 21.9495 19.2213 20.2687L15.7621 17.589C14.8364 18.2346 13.594 18.6852 11.9619 18.6852C9.06301 18.6852 6.60262 16.773 5.72556 14.1299L5.597 14.1408L2.2132 16.7596L2.16895 16.8826C3.9716 20.4635 7.6744 22.924 11.9619 22.924Z" fill="#34A853"/>
<path d="M5.72589 14.1306C5.49447 13.4485 5.36053 12.7176 5.36053 11.9625C5.36053 11.2072 5.49447 10.4765 5.71371 9.79437L5.70758 9.64911L2.28137 6.98828L2.16927 7.0416C1.42631 8.52761 1 10.1963 1 11.9625C1 13.7286 1.42631 15.3972 2.16927 16.8832L5.72589 14.1306Z" fill="#FBBC05"/>
<path d="M11.9619 5.23869C14.0203 5.23869 15.4088 6.12785 16.2006 6.87089L19.2943 3.85018C17.3943 2.08405 14.9216 1 11.9619 1C7.6744 1 3.9716 3.46039 2.16895 7.04135L5.71338 9.79412C6.60262 7.15102 9.06301 5.23869 11.9619 5.23869Z" fill="#EB4335"/>
</svg>